<?xml version="1.0" encoding="utf-8"?>
<!-- Generator: Adobe Illustrator 21.1.0, SVG Export Plug-In . SVG Version: 6.00 Build 0)  -->
<svg version="1.1" id="Слой_1" xmlns="http://www.w3.org/2000/svg" xmlns:xlink="http://www.w3.org/1999/xlink" x="0px" y="0px"
	 viewBox="0 0 900 712" style="enable-background:new 0 0 900 712;" xml:space="preserve">
<style type="text/css">
	.st0{fill:#F3AB00;}
	.st1{fill:#FFDE00;}
	.st2{fill:#FFFFFF;}
	.st3{fill:#803BE9;}
	.st4{fill:#B61BB6;}
	.st5{fill:#DA44D0;}
	.st6{fill:#B37FFF;}
</style>
<rect x="100" y="100" class="st0" width="700" height="512"/>
<path id="cloud_65_" class="st1" d="M509.6,407.4c-15.3-52.2-57.7-94.2-111.4-101.5c-13.2-65.5-59.6-134.7-114.4-165.6
	c-57.6-32.5-104.9-11.6-113.9,46c-0.2-0.1-0.4-0.2-0.6-0.3c-40.7-22.9-73.3-3.8-73,42.8c-31.5-7.6-54.4,12.7-54,52.3
	c0.5,47.7,34.6,105.4,76.2,128.8l233.7,131.7C407.4,582.9,553.4,557,509.6,407.4z"/>
<polygon class="st2" points="499,198.1 390.7,134.1 390.7,569 499,633 499,634 606.7,696 606.7,262.2 "/>
<polygon points="606.7,697.1 753.3,612.5 753.3,177.6 606.7,262.2 "/>
<polygon class="st1" points="390.7,134.1 606.7,262.2 753.3,177.6 537.2,49.5 "/>
<g>
	<polygon class="st3" points="399.6,564.1 494.3,618.8 494.3,524.8 399.6,470.1 	"/>
</g>
<g>
	<polygon class="st3" points="399.6,458.3 494.3,512.9 494.3,418.9 399.6,364.2 	"/>
</g>
<g>
	<polygon class="st3" points="399.3,353.4 494,408.1 494,314.1 399.3,259.4 	"/>
	<g>
		<g>
			<polygon points="399.2,354 493.9,408.7 493.9,314.6 399.2,260 			"/>
		</g>
		<g>
			<polygon class="st4" points="432.2,279.9 432.2,340.6 493.9,376.2 493.9,314.6 432.2,279 			"/>
			<g>
				<g>
					<path class="st5" d="M424.6,282l25.6,14.8c0.9,0.5,1.8,1.5,2.4,2.5l0,0c0.6,1.1,1,2.2,1,3.3v5.4l40.3,23.2v60.7l-72.6-41.9
						v-60.7v-5.6C421.3,281.8,422.8,281,424.6,282z"/>
				</g>
			</g>
			<g>
				<g>
					<path class="st4" d="M411.4,285.1l25.6,14.8c0.9,0.5,1.8,1.5,2.4,2.5l0,0c0.6,1.1,1,2.2,1,3.3v5.4l40.3,23.2v60.7l-72.6-41.9
						v-60.7v-5.6C408.1,284.9,409.6,284,411.4,285.1z"/>
				</g>
			</g>
			<g>
				<g>
					<path class="st5" d="M398,292.9l25.6,14.8c0.9,0.5,1.8,1.5,2.4,2.5l0,0c0.6,1.1,1,2.2,1,3.3v5.4l40.3,23.2v60.7L394.6,361
						v-60.7v-5.6C394.6,292.6,396.1,291.8,398,292.9z"/>
				</g>
			</g>
			<g>
				<g>
					<path class="st4" d="M386.7,300.4l25.6,14.8c0.9,0.5,1.8,1.5,2.4,2.5l0,0c0.6,1.1,1,2.2,1,3.3v5.4l40.3,23.2v60.7l-72.6-41.9
						v-60.7v-5.6C383.4,300.2,384.9,299.4,386.7,300.4z"/>
				</g>
			</g>
			<g>
				<g>
					<path class="st5" d="M371,308.4l25.6,14.8c0.9,0.5,1.8,1.5,2.4,2.5l0,0c0.6,1.1,1,2.2,1,3.3v5.4l40.3,23.2v60.7l-72.6-41.9
						v-60.7v-5.6C367.7,308.2,369.2,307.4,371,308.4z"/>
				</g>
			</g>
			<g>
				<g>
					<path class="st4" d="M357.5,316.2l25.6,14.8c0.9,0.5,1.8,1.5,2.4,2.5l0,0c0.6,1.1,1,2.2,1,3.3v5.4l40.3,23.2v60.7l-72.6-41.9
						v-60.7V318C354.2,316,355.7,315.1,357.5,316.2z"/>
				</g>
			</g>
			<g>
				<g>
					<path class="st5" d="M413.4,373.3V434l-72.6-41.9v-60.7v-5.6c0-2.1,1.5-2.9,3.3-1.8l25.6,14.8c0.9,0.5,1.8,1.5,2.4,2.5l0,0
						c0.6,1.1,1,2.2,1,3.3v5.4L413.4,373.3z"/>
				</g>
			</g>
			<g>
				<g>
					<path class="st4" d="M330.6,331.8l25.6,14.8c0.9,0.5,1.8,1.5,2.4,2.5l0,0c0.6,1.1,1,2.2,1,3.3v5.4l40.3,23.2v60.7l-72.6-41.9
						v-60.7v-5.6C327.3,331.5,328.8,330.7,330.6,331.8z"/>
				</g>
			</g>
			<g>
				<g>
					<path class="st5" d="M317.1,339.5l25.6,14.8c0.9,0.5,1.8,1.5,2.4,2.5l0,0c0.6,1.1,1,2.2,1,3.3v5.4l40.3,23.2v60.7l-72.6-41.9
						V347v-5.6C313.8,339.3,315.3,338.5,317.1,339.5z"/>
				</g>
			</g>
			<g>
				<g>
					<path class="st4" d="M303.6,347.3l25.6,14.8c0.9,0.5,1.8,1.5,2.4,2.5l0,0c0.6,1.1,1,2.2,1,3.3v5.4l40.3,23.2v60.7l-72.6-41.9
						v-60.7v-5.6C300.3,347.1,301.8,346.3,303.6,347.3z"/>
				</g>
			</g>
			<g>
				<g>
					<path class="st5" d="M290.2,355.1l25.6,14.8c0.9,0.5,1.8,1.5,2.4,2.5l0,0c0.6,1.1,1,2.2,1,3.3v5.4l40.3,23.2v60.7l-72.6-41.9
						v-60.7v-5.6C286.9,354.9,288.3,354,290.2,355.1z"/>
				</g>
			</g>
			<g>
				<g>
					<path class="st4" d="M276.1,360.9l25.6,14.8c0.9,0.5,1.8,1.5,2.4,2.5l0,0c0.6,1.1,1,2.2,1,3.3v5.4l40.3,23.2v60.7L272.8,429
						v-60.7v-5.6C272.8,360.6,274.3,359.8,276.1,360.9z"/>
				</g>
			</g>
			<g>
				<g>
					<path class="st5" d="M262.6,368.7l25.6,14.8c0.9,0.5,1.8,1.5,2.4,2.5l0,0c0.6,1.1,1,2.2,1,3.3v5.4L332,418v60.7l-72.6-41.9
						v-60.7v-5.6C259.3,368.4,260.8,367.6,262.6,368.7z"/>
				</g>
			</g>
			<g>
				<g>
					<path class="st4" d="M251.4,378.2L277,393c0.9,0.5,1.8,1.5,2.4,2.5l0,0c0.6,1.1,1,2.2,1,3.3v5.4l40.3,23.2v60.7l-72.6-41.9
						v-60.7v-5.6C248.1,378,249.6,377.2,251.4,378.2z"/>
				</g>
			</g>
			<g>
				<g>
					<path class="st5" d="M235.7,384.2l25.6,14.8c0.9,0.5,1.8,1.5,2.4,2.5l0,0c0.6,1.1,1,2.2,1,3.3v5.4l40.3,23.2v60.7l-72.6-41.9
						v-60.7v-5.6C232.4,384,233.9,383.2,235.7,384.2z"/>
				</g>
			</g>
			<g>
				<g>
					<path class="st4" d="M222.2,392l25.6,14.8c0.9,0.5,1.8,1.5,2.4,2.5l0,0c0.6,1.1,1,2.2,1,3.3v5.4l40.3,23.2V502l-72.6-41.9
						v-60.7v-5.6C218.9,391.8,220.4,390.9,222.2,392z"/>
				</g>
			</g>
			<g>
				<g>
					<path class="st5" d="M278.1,449.1v60.7l-72.6-41.9v-60.7v-5.6c0-2.1,1.5-2.9,3.3-1.8l25.6,14.8c0.9,0.5,1.8,1.5,2.4,2.5l0,0
						c0.6,1.1,1,2.2,1,3.3v5.4L278.1,449.1z"/>
				</g>
			</g>
			<g>
				<g>
					<path class="st4" d="M195.3,407.5l25.6,14.8c0.9,0.5,1.8,1.5,2.4,2.5l0,0c0.6,1.1,1,2.2,1,3.3v5.4l40.3,23.2v60.7L192,475.7
						V415v-5.6C192,407.3,193.4,406.5,195.3,407.5z"/>
				</g>
			</g>
			<g>
				<g>
					<path class="st5" d="M181.8,415.3l25.6,14.8c0.9,0.5,1.8,1.5,2.4,2.5l0,0c0.6,1.1,1,2.2,1,3.3v5.4l40.3,23.2v60.7l-72.6-41.9
						v-60.7v-5.6C178.5,415.1,180,414.3,181.8,415.3z"/>
				</g>
			</g>
		</g>
		<g>
			<polygon points="236.2,556.9 236.2,504.7 493.9,356.5 493.9,408.7 			"/>
			<g>
				<g>
					<g>
						<polygon class="st3" points="143.3,503.3 236.2,556.9 236.2,464.7 143.3,411 						"/>
						<polygon class="st2" points="175.4,461.2 204.1,477.8 204.1,458.6 175.4,442 						"/>
					</g>
				</g>
			</g>
		</g>
	</g>
</g>
<g>
	<polygon class="st3" points="503.6,306.6 598.3,361.3 598.3,267.3 503.6,212.6 	"/>
	<polygon class="st2" points="536.3,263.7 565.6,280.6 565.6,261 536.3,244.1 	"/>
</g>
<g>
	<polygon class="st3" points="503.6,624.2 598.3,678.9 598.3,584.8 503.6,530.1 	"/>
</g>
<g>
	<polygon class="st3" points="503.6,412.5 598.3,467.2 598.3,373.1 503.6,318.4 	"/>
	<polygon class="st2" points="536.3,369.6 565.6,386.5 565.6,366.9 536.3,350 	"/>
</g>
<g>
	<g>
		<polygon points="503.6,518.3 598.3,573 598.3,479 503.6,424.3 		"/>
	</g>
	<g>
		<polygon class="st4" points="536.6,444.2 536.6,504.9 598.3,540.5 598.3,479 536.6,443.3 		"/>
		<g>
			<g>
				<path class="st5" d="M529,446.3l25.6,14.8c0.9,0.5,1.8,1.5,2.4,2.5l0,0c0.6,1.1,1,2.2,1,3.3v5.4l40.3,23.2v60.7l-72.6-41.9
					v-60.7v-5.6C525.7,446.1,527.2,445.3,529,446.3z"/>
			</g>
		</g>
		<g>
			<g>
				<path class="st4" d="M514.8,454.4l25.6,14.8c0.9,0.5,1.8,1.5,2.4,2.5l0,0c0.6,1.1,1,2.2,1,3.3v5.4l40.3,23.2v60.7l-72.6-41.9
					v-60.7v-5.6C511.5,454.2,513,453.4,514.8,454.4z"/>
			</g>
		</g>
		<g>
			<g>
				<path class="st5" d="M501.4,462.2L527,477c0.9,0.5,1.8,1.5,2.4,2.5l0,0c0.6,1.1,1,2.2,1,3.3v5.4l40.3,23.2v60.7L498,530.3v-60.7
					V464C498,462,499.5,461.1,501.4,462.2z"/>
			</g>
		</g>
		<g>
			<g>
				<path class="st4" d="M490.1,471.8l25.6,14.8c0.9,0.5,1.8,1.5,2.4,2.5l0,0c0.6,1.1,1,2.2,1,3.3v5.4l40.3,23.2v60.7l-72.6-41.9
					v-60.7v-5.6C486.8,471.5,488.3,470.7,490.1,471.8z"/>
			</g>
		</g>
		<g>
			<g>
				<path class="st5" d="M474.4,477.7l25.6,14.8c0.9,0.5,1.8,1.5,2.4,2.5l0,0c0.6,1.1,1,2.2,1,3.3v5.4l40.3,23.2v60.7l-72.6-41.9
					v-60.7v-5.6C471.1,477.5,472.6,476.7,474.4,477.7z"/>
			</g>
		</g>
		<g>
			<g>
				<path class="st4" d="M460.9,485.5l25.6,14.8c0.9,0.5,1.8,1.5,2.4,2.5l0,0c0.6,1.1,1,2.2,1,3.3v5.4l40.3,23.2v60.7l-72.6-41.9
					v-60.7v-5.6C457.6,485.3,459.1,484.5,460.9,485.5z"/>
			</g>
		</g>
		<g>
			<g>
				<path class="st5" d="M516.8,542.7v60.7l-72.6-41.9v-60.7v-5.6c0-2.1,1.5-2.9,3.3-1.8l25.6,14.8c0.9,0.5,1.8,1.5,2.4,2.5l0,0
					c0.6,1.1,1,2.2,1,3.3v5.4L516.8,542.7z"/>
			</g>
		</g>
		<g>
			<g>
				<path class="st4" d="M434,501.1l25.6,14.8c0.9,0.5,1.8,1.5,2.4,2.5l0,0c0.6,1.1,1,2.2,1,3.3v5.4l40.3,23.2v60.7l-72.6-41.9
					v-60.7v-5.6C430.7,500.8,432.2,500,434,501.1z"/>
			</g>
		</g>
		<g>
			<g>
				<path class="st5" d="M420.5,508.9l25.6,14.8c0.9,0.5,1.8,1.5,2.4,2.5l0,0c0.6,1.1,1,2.2,1,3.3v5.4l40.3,23.2v60.7L417.2,577
					v-60.7v-5.6C417.2,508.6,418.7,507.8,420.5,508.9z"/>
			</g>
		</g>
		<g>
			<g>
				<path class="st4" d="M407,516.6l25.6,14.8c0.9,0.5,1.8,1.5,2.4,2.5l0,0c0.6,1.1,1,2.2,1,3.3v5.4l40.3,23.2v60.7l-72.6-41.9
					v-60.7v-5.6C403.7,516.4,405.2,515.6,407,516.6z"/>
			</g>
		</g>
		<g>
			<g>
				<path class="st5" d="M393.6,524.4l25.6,14.8c0.9,0.5,1.8,1.5,2.4,2.5l0,0c0.6,1.1,1,2.2,1,3.3v5.4l40.3,23.2v60.7l-72.6-41.9
					v-60.7v-5.6C390.3,524.2,391.7,523.4,393.6,524.4z"/>
			</g>
		</g>
	</g>
	<polygon points="437.6,665.8 437.6,613.6 598.3,520.8 598.3,573 	"/>
	<g>
		<g>
			<g>
				<polygon class="st3" points="344.8,612.2 437.6,665.8 437.6,573.6 344.8,520 				"/>
				<polygon class="st2" points="376.8,570.2 405.5,586.7 405.5,567.5 376.8,550.9 				"/>
			</g>
		</g>
	</g>
</g>
<path id="cloud_64_" class="st6" d="M665,418.5c-1.3-42.4,15-69.5,43.4-75.4c9.5-25.4,27.8-49.5,48.9-61.7
	c30.8-17.8,55.7-3.4,55.7,32.2c0,0.8,0,1.6,0,2.4c0,0,0,0,0,0c23.6-13.6,42.7-2.6,42.7,24.6c0,27.2-19.1,60.3-42.7,73.9l-141.6,81.6
	c-19.7,11.4-35.7,2.2-35.7-20.6C635.8,452.9,644.2,436.2,665,418.5z"/>
<path id="cloud_66_" class="st2" d="M276.7,300c-16.6-9.6-30.9-6-37.9,7.1c-2.3-1.9-4.8-3.7-7.3-5.1c-14.6-8.4-27.1-4.9-31.7,7.4
	c-2.2-2.1-4.5-3.8-6.9-5.2c-12.8-7.4-23.1-1.4-23.1,13.3c0,14.7,10.3,32.6,23.1,40l83.9,48.4c23.5,13.6,42.5,0.8,42.5-28.5
	C319.2,348.3,300.2,313.5,276.7,300z"/>
<g>
	<g>
		<polygon points="399.6,246.6 494.3,301.2 494.3,207.2 399.6,152.5 		"/>
	</g>
	<path class="st4" d="M424.7,170.2v5.6v60.7l69.6,40.2v-69.5l-68-39.3C425.3,168,424.7,168.8,424.7,170.2z"/>
	<g>
		<g>
			<path class="st5" d="M414.5,176.1l25.6,14.8c0.9,0.5,1.8,1.5,2.4,2.5l0,0c0.6,1.1,1,2.2,1,3.3v5.4l40.3,23.2v60.7l-72.6-41.9
				v-60.7V178C411.2,175.9,412.7,175.1,414.5,176.1z"/>
		</g>
	</g>
	<g>
		<g>
			<path class="st4" d="M401,183.9l25.6,14.8c0.9,0.5,1.8,1.5,2.4,2.5l0,0c0.6,1.1,1,2.2,1,3.3v5.4l40.3,23.2V294L397.7,252v-60.7
				v-5.6C397.7,183.7,399.2,182.9,401,183.9z"/>
		</g>
	</g>
	<g>
		<g>
			<path class="st5" d="M387.6,191.7l25.6,14.8c0.9,0.5,1.8,1.5,2.4,2.5l0,0c0.6,1.1,1,2.2,1,3.3v5.4l40.3,23.2v60.7l-72.6-41.9
				v-60.7v-5.6C384.3,191.5,385.7,190.6,387.6,191.7z"/>
		</g>
	</g>
	<polygon points="440.6,332.1 440.6,279.9 494.3,249.1 494.3,301.2 	"/>
	<g>
		<g>
			<g>
				<polygon class="st3" points="347.8,278.5 440.6,332.1 440.6,239.9 347.8,186.3 				"/>
				<polygon class="st2" points="379.8,236.4 408.5,253 408.5,233.8 379.8,217.2 				"/>
			</g>
		</g>
	</g>
</g>
</svg>
