<?xml version="1.0" encoding="utf-8"?>
<!-- Generator: Adobe Illustrator 21.1.0, SVG Export Plug-In . SVG Version: 6.00 Build 0)  -->
<svg version="1.1" id="Слой_1" xmlns="http://www.w3.org/2000/svg" xmlns:xlink="http://www.w3.org/1999/xlink" x="0px" y="0px"
	 viewBox="0 0 900 712" style="enable-background:new 0 0 900 712;" xml:space="preserve">
<style type="text/css">
	.st0{fill:#923CFF;}
	.st1{fill:#FFDE00;}
	.st2{fill:#B37FFF;}
	.st3{fill:#CBABFD;}
	.st4{fill:#DEE3F3;}
	.st5{fill:#EBEDF7;}
	.st6{fill:#E7EAF6;}
	.st7{fill:#DA44D0;}
	.st8{fill:#B17EFD;}
	.st9{fill-rule:evenodd;clip-rule:evenodd;}
	.st10{fill-rule:evenodd;clip-rule:evenodd;fill:#FFFFFF;}
	.st11{fill-rule:evenodd;clip-rule:evenodd;fill:#FFDE00;}
	.st12{fill-rule:evenodd;clip-rule:evenodd;fill:#923CFF;}
	.st13{opacity:0.3;}
	.st14{fill:#42D1FD;}
	.st15{opacity:0.6;fill:#42D1FD;}
</style>
<rect x="100" y="100" class="st0" width="700" height="512"/>
<path id="cloud_88_" class="st1" d="M789.5,354.1c7.4-89-42.3-147.3-103.3-153.2c-9.5-53-34.5-104.7-75.2-128.2
	C551.5,38.4,482.7,54.3,472.1,122c-0.2,1.6,0,3.2,0,4.7c0,0-0.1,0-0.1,0c-45.6-26.3-83.1-3.9-83.9,50.1c-0.8,54,35.5,119.1,81,145.4
	l302.3,173.7c38.1,22,74.5,0.9,80.3-38.7C857,420.6,838.7,371.5,789.5,354.1z"/>
<g>
	<path class="st0" d="M683.8,298.6C683.8,298.6,683.8,298.6,683.8,298.6c-22.6-24.6-61.1-41.3-97.4-51.1
		c-98.6-26.6-230.4-17.4-304.8,28.2v204.5c51.2-28.8,123.6-40.7,186.5-40.7c63.6,0,122.3,11.5,166.1,30.4c2,0.9,3.9,1.7,5.9,2.6
		c29.3,13.6,51.3,30.6,62.4,49.8V370v-24.8v-8.4C701.3,324.2,695.3,311.3,683.8,298.6z"/>
</g>
<g>
	<g>
		<path class="st2" d="M532.5,643.3l24.1,43.8c8.1,6.1,19.2-27.3,19.2-37.4l0.4-302.8h-90.9v261.6
			C485.4,608.5,528.6,640.4,532.5,643.3z"/>
		<g>
			<path class="st2" d="M554.1,703.2c12.9,4.3,21.2-5.8,21.5-21.8l0.6-148.3c0.1-14.5-9.7-31.6-21.7-38c-12-6.5-21.9,0.1-21.9,14.6
				L532,664.1C532,682.6,539.5,698.3,554.1,703.2z"/>
		</g>
		<g>
			<path class="st2" d="M520.5,674.4c7.1,2.1,11.6-4,11.6-11.8l0.3-134.5c0-7.8-5.3-17.1-11.8-20.6c-6.5-3.5-11.8,0.1-11.9,7.9
				l-0.3,137.9C508.5,661.1,512,671.9,520.5,674.4z"/>
		</g>
		<g>
			<path class="st2" d="M490,643.9c12.5,4.2,20.6-5.6,20.9-21.2l0.6-291.5c0.1-14.1-9.4-30.7-21.1-37c-11.7-6.3-21.3,0.1-21.3,14.2
				l-0.6,297.6C468.5,623.9,475.8,639.1,490,643.9z"/>
		</g>
	</g>
	<path class="st3" d="M555.6,524.3c-1,0-1.8,0.8-1.8,1.8v155.4c0,1,0.8,1.8,1.8,1.8c1,0,1.8-0.8,1.8-1.8V526.1
		C557.4,525.2,556.6,524.3,555.6,524.3z"/>
	<path class="st3" d="M555.6,362.2c-1,0-1.8,0.8-1.8,1.8v164.2c0,1,0.8,1.8,1.8,1.8c1,0,1.8-0.8,1.8-1.8V364
		C557.4,363,556.6,362.2,555.6,362.2z"/>
	<path class="st3" d="M491.2,556.9c-1,0-1.8,0.8-1.8,1.8v44.7c0,1,0.8,1.8,1.8,1.8s1.8-0.8,1.8-1.8v-44.7
		C493,557.7,492.2,556.9,491.2,556.9z"/>
	<path class="st3" d="M491.2,515.3c-1,0-1.8,0.8-1.8,1.8v32c0,1,0.8,1.8,1.8,1.8s1.8-0.8,1.8-1.8v-32
		C493,516.1,492.2,515.3,491.2,515.3z"/>
	<path class="st3" d="M491.2,404.6c-1,0-1.8,0.8-1.8,1.8v97.6c0,1,0.8,1.8,1.8,1.8s1.8-0.8,1.8-1.8v-97.6
		C493,405.4,492.2,404.6,491.2,404.6z"/>
</g>
<g id="XMLID_544_">
	<polygon id="XMLID_547_" class="st4" points="489.9,145.7 501.8,167.7 526.9,168.4 515,146.4 	"/>
	<polygon id="XMLID_546_" class="st5" points="489.9,145.7 503.1,124.3 528.1,125 515,146.4 	"/>
	<polygon id="XMLID_545_" class="st6" points="526.9,168.4 540,147.1 528.1,125 515,146.4 	"/>
</g>
<g id="XMLID_536_">
	<polygon id="XMLID_539_" class="st4" points="576.6,242.2 565.2,273.3 586.4,298.7 597.8,267.6 	"/>
	<polygon id="XMLID_538_" class="st5" points="576.6,242.2 609.2,236.5 630.5,261.9 597.8,267.6 	"/>
	<polygon id="XMLID_537_" class="st6" points="586.4,298.7 619.1,293.1 630.5,261.9 597.8,267.6 	"/>
</g>
<g id="XMLID_532_">
	<polygon id="XMLID_535_" class="st4" points="516.4,322.3 524.1,336.5 540.2,337 532.6,322.8 	"/>
	<polygon id="XMLID_534_" class="st5" points="516.4,322.3 524.9,308.6 541,309.1 532.6,322.8 	"/>
	<polygon id="XMLID_533_" class="st6" points="540.2,337 548.7,323.3 541,309.1 532.6,322.8 	"/>
</g>
<g id="XMLID_528_">
	<polygon id="XMLID_531_" class="st4" points="711.2,179.7 719.9,196 738.4,196.5 729.6,180.3 	"/>
	<polygon id="XMLID_530_" class="st5" points="711.2,179.7 720.8,164 739.3,164.5 729.6,180.3 	"/>
	<polygon id="XMLID_529_" class="st6" points="738.4,196.5 748.1,180.8 739.3,164.5 729.6,180.3 	"/>
</g>
<g id="XMLID_493_">
	<polygon id="XMLID_496_" class="st4" points="403.8,514.7 397.3,532.5 409.5,547.1 416,529.3 	"/>
	<polygon id="XMLID_495_" class="st5" points="403.8,514.7 422.5,511.5 434.7,526 416,529.3 	"/>
	<polygon id="XMLID_494_" class="st6" points="409.5,547.1 428.1,543.8 434.7,526 416,529.3 	"/>
</g>
<path id="cloud_86_" class="st7" d="M64.6,415.8c11-37.6,41.5-67.8,80.1-73c9.5-47.1,42.9-96.9,82.3-119.1
	c41.4-23.3,75.5-8.3,81.9,33.1c0.1-0.1,0.3-0.2,0.4-0.2c29.3-16.5,52.7-2.7,52.5,30.8c22.7-5.5,39.1,9.1,38.8,37.6
	c-0.4,34.3-24.9,75.8-54.8,92.7l-168.1,94.7C138.1,542.1,33.1,523.4,64.6,415.8z"/>
<g>
	<g>
		<path class="st8" d="M372.3,118.3l21.5-104.1C401,8.7,411,38.6,411,47.6l0.4,307.8l-81.2,25.2V109.4
			C330.2,109.4,368.9,120.9,372.3,118.3z"/>
		<g>
			<path class="st8" d="M391.6,10.6c11.5-3.8,18.9,5.2,19.2,19.5l0.6,92.5c0.1,12.9-8.7,28.2-19.4,34c-10.7,5.8-19.5-0.1-19.6-13
				l-0.6-98.1C371.9,28.9,378.6,15,391.6,10.6z"/>
		</g>
		<g>
			<path class="st8" d="M340.9,75.7c6.3-1.9,10.4,3.6,10.4,10.6l0.3,31.8c0,7-4.7,15.3-10.5,18.4c-5.8,3.1-10.6-0.1-10.6-7.1
				l-0.3-34.9C330.2,87.6,333.3,77.9,340.9,75.7z"/>
		</g>
		<g>
			<path class="st8" d="M361.6,43.1c6.3-1.9,10.4,3.6,10.4,10.6l0.3,80.2c0,7-4.7,15.3-10.5,18.4c-5.8,3.1-10.6-0.1-10.6-7.1
				L350.9,62C350.8,54.9,354,45.3,361.6,43.1z"/>
		</g>
	</g>
	<path class="st3" d="M393,146.5c-0.9,0-1.6-0.7-1.6-1.6V46c0-0.9,0.7-1.6,1.6-1.6s1.6,0.7,1.6,1.6v98.9
		C394.6,145.8,393.9,146.5,393,146.5z"/>
	<path class="st3" d="M393,318.2c-0.9,0-1.6-0.7-1.6-1.6V169.8c0-0.9,0.7-1.6,1.6-1.6s1.6,0.7,1.6,1.6v146.8
		C394.6,317.5,393.9,318.2,393,318.2z"/>
	<path class="st3" d="M393,365c-0.9,0-1.6-0.7-1.6-1.6v-22.2c0-0.9,0.7-1.6,1.6-1.6s1.6,0.7,1.6,1.6v22.2
		C394.6,364.2,393.9,365,393,365z"/>
	<path class="st3" d="M374.6,223.7c-0.9,0-1.6-0.7-1.6-1.6V83.2c0-0.9,0.7-1.6,1.6-1.6s1.6,0.7,1.6,1.6v138.9
		C376.2,223,375.4,223.7,374.6,223.7z"/>
	<path class="st3" d="M374.6,288.4c-0.9,0-1.6-0.7-1.6-1.6v-42.1c0-0.9,0.7-1.6,1.6-1.6s1.6,0.7,1.6,1.6v42.1
		C376.2,287.6,375.4,288.4,374.6,288.4z"/>
	<path class="st3" d="M350.3,161.3c-0.9,0-1.6-0.7-1.6-1.6v-28.6c0-0.9,0.7-1.6,1.6-1.6c0.9,0,1.6,0.7,1.6,1.6v28.6
		C352,160.6,351.2,161.3,350.3,161.3z"/>
	<path class="st3" d="M350.3,279c-0.9,0-1.6-0.7-1.6-1.6v-87.2c0-0.9,0.7-1.6,1.6-1.6c0.9,0,1.6,0.7,1.6,1.6v87.2
		C352,278.3,351.2,279,350.3,279z"/>
	<path class="st3" d="M350.3,321.1c-0.9,0-1.6-0.7-1.6-1.6v-12.9c0-0.9,0.7-1.6,1.6-1.6c0.9,0,1.6,0.7,1.6,1.6v12.9
		C352,320.4,351.2,321.1,350.3,321.1z"/>
</g>
<g>
	<g>
		<path class="st9" d="M441.8,143.3c31.5,61.2,110.9,165.5,155.7,209c16.6,143.3-71,230.9-145.7,227.1
			C377.3,497.1,255,306.8,272.3,183.2c6.8-0.4,25.6-5.1,32.7-8.7C351.8,177.4,410.7,164.4,441.8,143.3z"/>
		<g>
			<path class="st10" d="M428.4,154.5c31.5,61.2,110.9,165.5,155.7,209c16.6,143.3-82.4,234.6-157,230.8
				C352.6,512,254.4,306.8,271.8,183.2C320.4,192.2,392.7,178.6,428.4,154.5z"/>
			<path class="st11" d="M421.9,175.9c27.8,54.1,104.4,150.3,144.1,188.8c14.7,126.8-72.9,207.6-138.9,204.2
				c-65.8-72.7-152.7-254.3-137.3-363.6C332.8,213.2,390.4,197.3,421.9,175.9z"/>
			<path class="st10" d="M423.8,465.3c-45.4-26.3-85.1-88.2-88.6-138.4c-3.5-50.2,30.5-69.6,76-43.3c45.4,26.3,85.1,88.3,88.6,138.5
				C503.2,472.2,469.2,491.5,423.8,465.3z"/>
			<polygon class="st12" points="446,338.6 458.1,344.6 404.6,426.1 357.3,356 372.9,362.1 397.8,385.8 			"/>
		</g>
	</g>
</g>
<g>
	<g class="st13">
		<path class="st14" d="M546.4,507c27.1-4.6,54-11.4,79-20.7v66.3c-23.6,9.5-50.4,70-78.9,75.1C546.5,615.1,546.5,534.5,546.4,507z"
			/>
		<path class="st14" d="M625.4,419v28.5c-23.6,9.5-50.4,17-78.9,22.2c0-6.6,0-17.3-0.1-29.9C573.3,435.1,600.2,428.4,625.4,419z"/>
		<path class="st15" d="M546.2,474.8c0,6.8,0.1,18,0.1,25.6c42.4-7.2,85.4-20.1,121.6-40v-25.6C631.8,454.6,588.8,467.5,546.2,474.8
			z"/>
	</g>
	<path class="st7" d="M576.9,423.4c-15.6,3.9-31.8,6.9-48.1,9.1v210.7c98-13.3,173.4-55.1,173-107.1l0.6-209.3
		C701.5,371.8,644.5,406.3,576.9,423.4z"/>
</g>
<path d="M341.7,436.2c-59.4-18.3-106.7-50.6-107.5-91.6l0.6,209.3c-0.3,39.4,43.1,73.1,106.9,92.8V436.2z"/>
<g id="XMLID_548_">
	<polygon id="XMLID_551_" class="st4" points="219.1,430.1 211,452.2 226.1,470.2 234.2,448.2 	"/>
	<polygon id="XMLID_550_" class="st5" points="219.1,430.1 242.3,426.1 257.3,444.1 234.2,448.2 	"/>
	<polygon id="XMLID_549_" class="st6" points="226.1,470.2 249.2,466.2 257.3,444.1 234.2,448.2 	"/>
</g>
<g id="XMLID_523_">
	<polygon id="XMLID_527_" class="st4" points="669,435.4 653.7,477.3 682.2,511.4 697.5,469.6 	"/>
	<polygon id="XMLID_526_" class="st5" points="669,435.4 712.9,427.8 741.4,462 697.5,469.6 	"/>
	<polygon id="XMLID_524_" class="st6" points="682.2,511.4 726.1,503.8 741.4,462 697.5,469.6 	"/>
</g>
<g id="XMLID_540_">
	<polygon id="XMLID_543_" class="st4" points="472.6,386.3 482.3,404.3 502.7,404.9 493,386.9 	"/>
	<polygon id="XMLID_542_" class="st5" points="472.6,386.3 483.3,369 503.7,369.6 493,386.9 	"/>
	<polygon id="XMLID_541_" class="st6" points="502.7,404.9 513.4,387.5 503.7,369.6 493,386.9 	"/>
</g>
<g id="XMLID_552_">
	<polygon id="XMLID_555_" class="st4" points="174.1,261.7 182.9,277.9 201.3,278.5 192.6,262.2 	"/>
	<polygon id="XMLID_554_" class="st5" points="174.1,261.7 183.8,246 202.3,246.5 192.6,262.2 	"/>
	<polygon id="XMLID_553_" class="st6" points="201.3,278.5 211,262.7 202.3,246.5 192.6,262.2 	"/>
</g>
<g id="XMLID_556_">
	<polygon id="XMLID_559_" class="st4" points="197.3,173.5 204.3,186.5 219.1,186.9 212.1,173.9 	"/>
	<polygon id="XMLID_558_" class="st5" points="197.3,173.5 205,160.9 219.8,161.3 212.1,173.9 	"/>
	<polygon id="XMLID_557_" class="st6" points="219.1,186.9 226.9,174.3 219.8,161.3 212.1,173.9 	"/>
</g>
</svg>
