<?xml version="1.0" encoding="utf-8"?>
<!-- Generator: Adobe Illustrator 21.1.0, SVG Export Plug-In . SVG Version: 6.00 Build 0)  -->
<svg version="1.1" id="Слой_1" xmlns="http://www.w3.org/2000/svg" xmlns:xlink="http://www.w3.org/1999/xlink" x="0px" y="0px"
	 viewBox="0 0 900 712" style="enable-background:new 0 0 900 712;" xml:space="preserve">
<style type="text/css">
	.st0{fill:#923CFF;}
	.st1{fill:#DA44D0;}
	.st2{fill:#B37FFF;}
	.st3{fill:#FFDE00;}
	.st4{fill:#FFFFFF;}
	.st5{fill:#F3AB00;}
	.st6{fill:url(#SVGID_1_);}
	.st7{fill:url(#SVGID_2_);}
</style>
<rect x="111.2" y="105.6" class="st0" width="700" height="511.3"/>
<path class="st1" d="M418.4,297.9l216.4-120v81.6c0,39.8,21.2,76.6,55.7,96.5l154.2,89L625.1,571.7l-121.9-70.4
	C448.9,470,416,411.7,417.3,349L418.4,297.9z"/>
<path id="cloud_35_" class="st2" d="M481.1,375.9c7.4-25.3,27.9-45.6,53.9-49.1c6.4-31.7,28.9-65.2,55.4-80.2
	c27.9-15.7,50.8-5.6,55.1,22.3c0.1-0.1,0.2-0.1,0.3-0.2c19.7-11.1,35.5-1.8,35.3,20.7c15.3-3.7,26.3,6.1,26.1,25.3
	c-0.2,23.1-16.7,51-36.9,62.3l-113.1,63.7C530.6,460.9,459.9,448.3,481.1,375.9z"/>
<path id="cloud_46_" class="st3" d="M753.3,372.7c-3-10.4-11.5-18.8-22.2-20.2c-2.6-13.1-11.9-26.8-22.8-33
	c-11.5-6.5-20.9-2.3-22.7,9.2c0,0-0.1,0-0.1-0.1c-8.1-4.6-14.6-0.7-14.5,8.5c-6.3-1.5-10.8,2.5-10.7,10.4c0.1,9.5,6.9,21,15.2,25.7
	l46.5,26.2C732.9,407.7,762,402.5,753.3,372.7z"/>
<path id="cloud_45_" class="st3" d="M62.1,481.6c5.8-19.8,21.9-35.8,42.3-38.5c5-24.9,22.6-51.1,43.4-62.8
	c21.9-12.3,39.8-4.4,43.2,17.4c0.1,0,0.1-0.1,0.2-0.1c15.4-8.7,27.8-1.4,27.7,16.2c12-2.9,20.6,4.8,20.5,19.8
	c-0.2,18.1-13.1,40-28.9,48.9l-88.7,50C100.8,548.2,45.5,538.3,62.1,481.6z"/>
<path id="cloud_34_" class="st4" d="M751.7,424.8c-1.9-1.1-3.7-1.9-5.5-2.4c-0.9-19.2-14.3-41.8-30.8-51.3c-1.5-0.9-3-1.6-4.5-2.2
	c-6.2-16.7-18.2-32.5-32.1-40.4c-20.2-11.7-36.5-2.2-36.5,21.1c0,0.5,0,1,0,1.6c0,0,0,0,0,0c-15.5-8.9-28-1.7-28,16.2
	s12.5,39.6,28,48.5l109.3,63.1c12.9,7.5,23.4,1.4,23.4-13.5C775.1,450.4,764.6,432.3,751.7,424.8z"/>
<g>
	<polygon class="st5" points="621.1,287.2 633.7,417.1 617.2,425.3 602.2,417.3 617.2,287.2 	"/>
	<polygon class="st3" points="642.8,412.6 624.2,293.7 617.2,298 624.2,421.8 	"/>
	<polygon class="st3" points="592.8,412.6 611.5,293.7 618.4,298 611.5,421.8 	"/>
	<g>
		<path class="st2" d="M597.1,263.3l-17.8,9.5v-12c0-1.7,0.3-3.2,0.9-4.3l7.7-14.6c1.7-3.2,5.2-3.7,9.2-1.4l0,0V263.3z"/>
		<path class="st2" d="M637.4,263.3l17.8,9.5v-12c0-1.7-0.3-3.2-0.9-4.3l-7.7-14.6c-1.7-3.2-5.2-3.7-9.2-1.4l0,0V263.3z"/>
	</g>
	<path d="M608.7,289.8h17v2.4h0c0,0,0,0,0,0.1c0,2.7-3.8,4.9-8.5,4.9c-4.7,0-8.5-2.2-8.5-4.9c0,0,0,0,0-0.1h0V289.8z"/>
	<path d="M596.9,268.6h40.5v12h0c0,0.1,0,0.1,0,0.2c0,6.5-9.1,11.8-20.3,11.8c-11.2,0-20.3-5.3-20.3-11.8c0-0.1,0-0.1,0-0.2h0V268.6
		z"/>
	<path class="st3" d="M585.5,215.3c-2.1-17.2,1.9-34.7,11.8-48.9c0.4-0.6,0.8-1.2,1.3-1.8l18.7-25.6l18.7,25.6
		c0.4,0.6,0.8,1.2,1.3,1.8c9.8,14.2,13.8,31.7,11.8,48.9l-4.8,53.3h0c0,0.1,0,0.1,0,0.2c0,8.7-12.1,15.7-26.9,15.7
		c-14.9,0-26.9-7-26.9-15.7c0-0.1,0-0.1,0-0.2h0L585.5,215.3z"/>
	
		<linearGradient id="SVGID_1_" gradientUnits="userSpaceOnUse" x1="1185.4916" y1="152.0556" x2="1218.9241" y2="165.598" gradientTransform="matrix(-1 0 0 1 1814.8563 0)">
		<stop  offset="0" style="stop-color:#5C1CCA"/>
		<stop  offset="3.612279e-02" style="stop-color:#6223CE"/>
		<stop  offset="9.010085e-02" style="stop-color:#7438D7"/>
		<stop  offset="0.1549" style="stop-color:#9059E7"/>
		<stop  offset="0.1919" style="stop-color:#A36FF2"/>
		<stop  offset="0.3434" style="stop-color:#7945CF"/>
		<stop  offset="0.442" style="stop-color:#6C36C4"/>
		<stop  offset="0.6003" style="stop-color:#5E26B8"/>
		<stop  offset="0.7756" style="stop-color:#561CB0"/>
		<stop  offset="1" style="stop-color:#5319AE"/>
	</linearGradient>
	<path class="st6" d="M598.5,164.6l18.7-25.6l18.7,25.6c0.1,0.1,0.2,0.3,0.3,0.4c-3.2,4.2-10.5,7.2-19,7.2c-8.5,0-15.8-3-19-7.2
		C598.3,164.9,598.4,164.8,598.5,164.6z"/>
	<path d="M598.5,164.6l18.7-25.6l18.7,25.6c0.1,0.1,0.2,0.3,0.3,0.4c-3.2,4.2-10.5,7.2-19,7.2c-8.5,0-15.8-3-19-7.2
		C598.3,164.9,598.4,164.8,598.5,164.6z"/>
	<g>
		<path class="st2" d="M637.2,279.8l14.2,27.2l2.9-1.7v-11.5c0-1.6-0.3-3.4-0.9-5.2L646,266c-1.6-4.8-5-9.3-8.8-11.5l0,0l-2.8,1.7
			L637.2,279.8z"/>
		<path class="st0" d="M634.3,281.5l17.1,25.5v-11.5c0-1.6-0.3-3.4-0.9-5.2l-7.4-22.5c-1.6-4.8-5-9.3-8.8-11.5l0,0V281.5z"/>
		<path class="st2" d="M597.3,279.8l-14.2,27.2l-2.9-1.7v-11.5c0-1.6,0.3-3.4,0.9-5.2l7.4-22.5c1.6-4.8,5-9.3,8.8-11.5l0,0l2.8,1.7
			L597.3,279.8z"/>
		<path class="st0" d="M600.1,281.5l-17.1,25.5v-11.5c0-1.6,0.3-3.4,0.9-5.2l7.4-22.5c1.6-4.8,5-9.3,8.8-11.5l0,0V281.5z"/>
	</g>
</g>
<path id="cloud_33_" class="st2" d="M573.6,405.8c17.3-10,32.2-6.3,39.6,7.4c2.4-2,5-3.8,7.6-5.3c15.2-8.8,28.2-5.1,33.1,7.8
	c2.3-2.2,4.7-4,7.2-5.5c13.3-7.7,24.1-1.5,24.1,13.9s-10.8,34-24.1,41.7l-87.5,50.5c-24.5,14.1-44.3,0.9-44.3-29.7
	C529.3,456.1,549.1,419.9,573.6,405.8z"/>
<path d="M582.3,380.9l-225.5-125v84.7c0,41.7-22.2,80.2-58.3,101l-160.3,92.6l228.8,132.1L488.5,596c59.9-34.6,96.2-99,94.7-168.1
	L582.3,380.9z"/>
<path id="cloud_32_" class="st4" d="M512,440.2c-7.4-25.4-28.1-45.9-54.3-49.4c-6.4-31.9-29-65.6-55.7-80.7
	c-28-15.8-51.1-5.6-55.5,22.4c-0.1-0.1-0.2-0.1-0.3-0.2c-19.8-11.2-35.7-1.8-35.6,20.9c-15.4-3.7-26.5,6.2-26.3,25.5
	c0.2,23.2,16.8,51.3,37.1,62.7l113.8,64.1C462.2,525.7,533.3,513,512,440.2z"/>
<path id="cloud_30_" class="st2" d="M164.9,480.3c2.2-1.2,4.3-2.2,6.3-2.8c1-22,16.4-47.8,35.2-58.7c1.7-1,3.5-1.8,5.1-2.5
	c7.1-19,20.9-37.1,36.7-46.2c23.1-13.3,41.8-2.5,41.8,24.1c0,0.6,0,1.2,0,1.8c0,0,0,0,0,0c17.7-10.2,32-1.9,32,18.5
	c0,20.4-14.3,45.2-32,55.4l-125,72.2c-14.8,8.5-26.8,1.6-26.8-15.4C138.2,509.6,150.2,488.9,164.9,480.3z"/>
<g>
	<polygon class="st5" points="326.7,294.6 306.2,528.6 333.2,541.9 357.7,528.8 333.2,294.6 	"/>
	<polygon class="st3" points="291.1,521.2 321.8,305.3 333.2,312.3 321.8,536.2 	"/>
	<polygon class="st3" points="373.2,521.2 342.5,305.3 331.1,312.3 342.5,536.2 	"/>
	<g>
		<path class="st2" d="M366.2,255.4l29.2,15.6v-19.7c0-2.8-0.5-5.2-1.5-7.1l-12.6-24c-2.7-5.2-8.6-6.1-15.1-2.4l0,0V255.4z"/>
		<path class="st2" d="M300.1,255.4L270.9,271v-19.7c0-2.8,0.5-5.2,1.5-7.1l12.6-24c2.7-5.2,8.6-6.1,15.1-2.4l0,0V255.4z"/>
	</g>
	<path d="M347.1,299h-27.8v3.9h0c0,0,0,0.1,0,0.1c0,4.5,6.2,8.1,13.9,8.1c7.7,0,13.9-3.6,13.9-8.1c0,0,0-0.1,0-0.1h0V299z"/>
	<path d="M366.4,264.1h-66.5v19.8h0c0,0.1,0,0.2,0,0.3c0,10.7,14.9,19.4,33.2,19.4c18.4,0,33.2-8.7,33.2-19.4c0-0.1,0-0.2,0-0.3h0
		V264.1z"/>
	<path class="st1" d="M385.1,176.7c3.4-28.2-3.2-56.8-19.3-80.2c-0.7-1-1.4-2-2.1-2.9l-30.6-42l-30.6,42c-0.7,1-1.4,1.9-2.1,2.9
		c-16.1,23.4-22.6,52-19.3,80.2l7.8,87.4h0c0,0.1,0,0.2,0,0.4c0,14.2,19.8,25.7,44.2,25.7c24.4,0,44.2-11.5,44.2-25.7
		c0-0.1,0-0.2,0-0.4h0L385.1,176.7z"/>
	<linearGradient id="SVGID_2_" gradientUnits="userSpaceOnUse" x1="313.218" y1="72.9751" x2="368.0575" y2="95.1886">
		<stop  offset="0" style="stop-color:#5C1CCA"/>
		<stop  offset="3.612279e-02" style="stop-color:#6223CE"/>
		<stop  offset="9.010085e-02" style="stop-color:#7438D7"/>
		<stop  offset="0.1549" style="stop-color:#9059E7"/>
		<stop  offset="0.1919" style="stop-color:#A36FF2"/>
		<stop  offset="0.3434" style="stop-color:#7945CF"/>
		<stop  offset="0.442" style="stop-color:#6C36C4"/>
		<stop  offset="0.6003" style="stop-color:#5E26B8"/>
		<stop  offset="0.7756" style="stop-color:#561CB0"/>
		<stop  offset="1" style="stop-color:#5319AE"/>
	</linearGradient>
	<path class="st7" d="M363.8,93.6l-30.6-42l-30.6,42c-0.2,0.2-0.3,0.5-0.5,0.7c5.3,6.9,17.2,11.8,31.1,11.8s25.8-4.8,31.1-11.8
		C364.1,94.1,364,93.9,363.8,93.6z"/>
	<path d="M363.8,93.6l-30.6-42l-30.6,42c-0.2,0.2-0.3,0.5-0.5,0.7c5.3,6.9,17.2,11.8,31.1,11.8s25.8-4.8,31.1-11.8
		C364.1,94.1,364,93.9,363.8,93.6z"/>
	<g>
		<path class="st2" d="M300.4,282.5L277.2,327l-4.7-2.8v-18.9c0-2.6,0.5-5.5,1.5-8.5l12.1-36.9c2.6-8,8.2-15.3,14.4-18.9l0,0
			l4.5,2.7L300.4,282.5z"/>
		<path class="st0" d="M305.1,285.2l-28,41.8v-18.9c0-2.6,0.5-5.5,1.5-8.5l12.1-36.9c2.6-8,8.2-15.3,14.4-18.9l0,0V285.2z"/>
		<path class="st2" d="M365.9,282.5l23.3,44.6l4.7-2.8v-18.9c0-2.6-0.5-5.5-1.5-8.5l-12.1-36.9c-2.6-8-8.2-15.3-14.4-18.9l0,0
			l-4.5,2.7L365.9,282.5z"/>
		<path class="st0" d="M361.2,285.2l28,41.8v-18.9c0-2.6-0.5-5.5-1.5-8.5l-12.1-36.9c-2.6-8-8.2-15.3-14.4-18.9l0,0V285.2z"/>
	</g>
</g>
<path id="cloud_31_" class="st2" d="M356.2,488.9c-15.1-8.7-28.3-5.5-34.7,6.5c-2.1-1.8-4.4-3.3-6.6-4.7c-13.4-7.7-24.7-4.5-29,6.8
	c-2-1.9-4.1-3.5-6.3-4.8c-11.7-6.7-21.1-1.3-21.1,12.2s9.4,29.8,21.1,36.5l76.6,44.2c21.5,12.4,38.9,0.7,38.9-26
	C395,533.1,377.6,501.3,356.2,488.9z"/>
<ellipse class="st4" cx="337" cy="158.8" rx="18.8" ry="26.8"/>
<ellipse class="st4" cx="618.9" cy="215.2" rx="14.5" ry="20.7"/>
</svg>
