<?xml version="1.0" encoding="utf-8"?>
<!-- Generator: Adobe Illustrator 21.1.0, SVG Export Plug-In . SVG Version: 6.00 Build 0)  -->
<svg version="1.1" id="Слой_1" xmlns="http://www.w3.org/2000/svg" xmlns:xlink="http://www.w3.org/1999/xlink" x="0px" y="0px"
	 viewBox="0 0 900 712" style="enable-background:new 0 0 900 712;" xml:space="preserve">
<style type="text/css">
	.st0{fill:#DA44D0;}
	.st1{fill:#FFDE00;}
	.st2{fill:#F2A31D;}
	.st3{fill:#FFFFFF;}
	.st4{fill:#F3AB00;}
	.st5{fill:#5954FD;}
	.st6{fill:#923CFF;}
	.st7{fill:#6C19D6;}
	.st8{fill:#D1CAAD;}
	.st9{fill:#CDD8EF;}
	.st10{fill:#F285F2;}
	.st11{fill:#E455E0;}
	.st12{fill:#EB66EB;}
	.st13{fill:#C103D1;}
</style>
<rect x="100" y="100" class="st0" width="700" height="512"/>
<g>
	<g>
		<path class="st1" d="M463,61.4l-3.5-2.5l0,0c-1.6-1-3.8-0.9-6.3,0.5l-148.9,86V357v6.8l3.6,2.1v-4.2l145.3-83.9
			c4.8-2.8,8.7-9.6,8.7-15.1V64.5c0-0.9-0.1-1.7-0.3-2.4L463,61.4z"/>
		<path class="st2" d="M465.6,264.8c0,5.6-3.9,12.4-8.7,15.1l-148.9,86V147.5l148.9-86c4.8-2.8,8.7-0.5,8.7,5V264.8z"/>
		<polygon class="st3" points="312.9,162.1 459.4,77.8 506,104.9 360,189.2 		"/>
		<path class="st1" d="M512.8,89.6l-3.5-2.5l0,0c-1.6-1-3.8-0.9-6.3,0.5l-148.9,86V392L503,306c4.8-2.8,8.7-9.6,8.7-15.1V92.7
			c0-0.9-0.1-1.7-0.3-2.4L512.8,89.6z"/>
		<path class="st1" d="M515.7,293.6c0,5.6-3.9,12.4-8.7,15.1l-148.9,86V176.3l148.9-86c4.8-2.8,8.7-0.5,8.7,5V293.6z"/>
		<path class="st1" d="M304.3,145.4l53.7,30.9c0,0,2.3,219.6,0,218.4c-2.3-1.1-53.7-30.9-53.7-30.9V145.4z"/>
		<polygon class="st1" points="312.3,145 362,174 358,176.3 307.9,147.5 		"/>
	</g>
	<polygon class="st4" points="350.3,227.2 313.1,205.7 313.1,177.2 350.3,198.7 	"/>
</g>
<g>
	<g>
		<path d="M543.2,188.7l-3.5-2.5l0,0c-1.6-1-3.8-0.9-6.3,0.5l-148.9,86v211.6v6.8l3.6,2.1v-4.2l145.3-83.9c4.8-2.8,8.7-9.6,8.7-15.1
			V191.8c0-0.9-0.1-1.7-0.3-2.4L543.2,188.7z"/>
		<path d="M545.7,392.2c0,5.6-3.9,12.4-8.7,15.1l-148.9,86V274.9l148.9-86c4.8-2.8,8.7-0.5,8.7,5V392.2z"/>
		<polygon class="st3" points="393.1,289.5 539.6,205.1 586.2,232.3 440.2,316.6 		"/>
		<path d="M593,216.9l-3.5-2.5l0,0c-1.6-1-3.8-0.9-6.3,0.5l-148.9,86v218.4l148.9-86c4.8-2.8,8.7-9.6,8.7-15.1V220
			c0-0.9-0.1-1.7-0.3-2.4L593,216.9z"/>
		<path d="M595.8,421c0,5.6-3.9,12.4-8.7,15.1l-148.9,86V303.6l148.9-86c4.8-2.8,8.7-0.5,8.7,5V421z"/>
		<polygon points="384.5,272.7 438.2,303.6 438.2,522.1 384.5,491.2 		"/>
		<polygon points="392.5,272.4 442.2,301.3 438.2,303.6 388.1,274.9 		"/>
	</g>
	<polygon class="st5" points="430.5,354.6 393.2,333.1 393.2,304.5 430.5,326 	"/>
</g>
<g>
	<g>
		<g>
			<path class="st6" d="M778.1,219l-3.5-2.5l0,0c-1.6-1-3.8-0.9-6.3,0.5l-148.9,86v211.6v6.8l3.6,2.1v-4.2l145.3-83.9
				c4.8-2.8,8.7-9.6,8.7-15.1V222.1c0-0.9-0.1-1.7-0.3-2.4L778.1,219z"/>
			<path class="st7" d="M780.6,422.4c0,5.6-3.9,12.4-8.7,15.1l-148.9,86V305.1l148.9-86c4.8-2.8,8.7-0.5,8.7,5V422.4z"/>
			<polygon class="st3" points="628,319.7 774.5,235.4 821,262.5 675.1,346.8 			"/>
			<path class="st6" d="M827.9,247.2l-3.5-2.5l0,0c-1.6-1-3.8-0.9-6.3,0.5l-148.9,86v218.4l148.9-86c4.8-2.8,8.7-9.6,8.7-15.1V250.3
				c0-0.9-0.1-1.7-0.3-2.4L827.9,247.2z"/>
			<path class="st6" d="M830.7,451.2c0,5.6-3.9,12.4-8.7,15.1l-148.9,86V333.9l148.9-86c4.8-2.8,8.7-0.5,8.7,5V451.2z"/>
			<polygon class="st7" points="619.4,303 673.1,333.9 673.1,552.3 619.4,521.4 			"/>
			<polygon class="st6" points="627.3,302.6 677.1,331.6 673.1,333.9 623,305.1 			"/>
		</g>
		<polygon class="st7" points="665.3,384.8 628.1,363.3 628.1,334.8 665.3,356.3 		"/>
	</g>
	<polygon class="st7" points="801.8,315.5 690.2,380 690.2,357.2 801.8,292.8 	"/>
</g>
<path id="cloud_80_" class="st7" d="M64.1,439.3c9.9-34,37.5-61.3,72.5-66c8.6-42.6,38.8-87.6,74.4-107.7
	c37.5-21.1,68.3-7.5,74.1,29.9c0.1-0.1,0.2-0.1,0.4-0.2c26.5-14.9,47.7-2.4,47.5,27.9c20.5-4.9,35.4,8.3,35.1,34
	c-0.3,31-22.5,68.5-49.5,83.8l-152,85.6C130.5,553.5,35.6,536.6,64.1,439.3z"/>
<path id="cloud_78_" class="st1" d="M681.5,391.2c-19.6-11.3-36.5-7.1-44.8,8.4c-2.8-2.3-5.6-4.3-8.6-6c-17.3-10-32-5.8-37.5,8.8
	c-2.6-2.4-5.3-4.5-8.2-6.2c-15.1-8.7-27.3-1.6-27.3,15.7c0,17.4,12.2,38.5,27.3,47.2l99.1,57.2c27.7,16,50.2,1,50.2-33.6
	S709.3,407.2,681.5,391.2z"/>
<g>
	<path class="st6" d="M577.5,410.4L419,318.9v0l-164.6-95c-1.6-0.9-3-1-4.1-0.5l0,0l0,0c-0.1,0.1-0.2,0.1-0.3,0.2l-9,5.4l7.4,3.5
		V463c0,3.9,2.7,8.6,6.1,10.5L412.9,565v0l156.9,90.6l2,10.6l9.9-5.7c0,0,0.1,0,0.1-0.1l0,0l0,0c1.1-0.6,1.7-2,1.7-3.9V420.9
		C583.6,417,580.9,412.3,577.5,410.4z"/>
	<path class="st7" d="M567.4,416.3l-158.6-91.5v0l-164.6-95c-3.3-1.9-6.1-0.4-6.1,3.5v235.7c0,3.9,2.7,8.6,6.1,10.5l158.6,91.5v0
		l164.6,95c3.3,1.9,6.1,0.4,6.1-3.5V426.7C573.5,422.9,570.8,418.2,567.4,416.3z"/>
	<polygon class="st8" points="399.8,544.9 251.7,459.4 251.7,242.7 399.8,328.2 	"/>
	<polygon class="st3" points="378.6,557.4 230.5,471.9 230.5,255.2 378.6,340.7 	"/>
	<polygon class="st9" points="378.6,340.7 399.8,328.2 251.7,242.7 230.5,255.2 	"/>
	<polygon class="st8" points="399.8,544.9 399.8,328.2 378.6,340.7 378.6,557.4 	"/>
	<polygon class="st8" points="564.4,639.9 416.3,554.4 416.3,337.8 564.4,423.3 	"/>
	<polygon class="st3" points="543.2,652.4 395.1,566.9 395.1,350.3 543.2,435.8 	"/>
	<polygon class="st9" points="543.2,435.8 564.4,423.3 416.3,337.8 395.1,350.3 	"/>
	<polygon class="st9" points="564.4,639.9 564.4,423.3 543.2,435.8 543.2,652.4 	"/>
	<polygon class="st9" points="378.6,340.7 395.1,350.3 416.3,337.8 399.8,328.2 	"/>
	<polygon class="st9" points="395.1,566.9 378.6,557.4 378.6,340.7 395.1,350.3 	"/>
	<g>
		<polygon class="st9" points="360.9,366.7 248.2,301.6 248.2,290.8 360.9,355.9 		"/>
		<polygon class="st9" points="360.9,393.6 248.2,328.5 248.2,317.7 360.9,382.8 		"/>
		<polygon class="st9" points="360.9,420.5 248.2,355.4 248.2,344.6 360.9,409.7 		"/>
		<polygon class="st9" points="360.9,447.4 248.2,382.3 248.2,371.5 360.9,436.6 		"/>
		<polygon class="st9" points="360.9,474.3 248.2,409.2 248.2,398.4 360.9,463.5 		"/>
		<polygon class="st9" points="360.9,501.2 248.2,436.2 248.2,425.3 360.9,490.4 		"/>
		<polygon class="st9" points="360.9,528.1 248.2,463.1 248.2,452.2 360.9,517.3 		"/>
	</g>
	<g>
		<polygon class="st9" points="525.5,458.6 412.8,393.5 412.8,382.7 525.5,447.7 		"/>
		<polygon class="st9" points="525.5,485.5 412.8,420.4 412.8,409.6 525.5,474.6 		"/>
		<polygon class="st9" points="525.5,512.4 412.8,447.3 412.8,436.5 525.5,501.6 		"/>
		<polygon class="st9" points="525.5,539.3 412.8,474.2 412.8,463.4 525.5,528.5 		"/>
		<polygon class="st9" points="525.5,566.2 412.8,501.1 412.8,490.3 525.5,555.4 		"/>
		<polygon class="st9" points="525.5,593.1 412.8,528 412.8,517.2 525.5,582.3 		"/>
		<polygon class="st9" points="525.5,620 412.8,554.9 412.8,544.1 525.5,609.2 		"/>
	</g>
</g>
<g>
	<g>
		<path class="st10" d="M262,367.1l-2.4-1.7l0,0c-1.1-0.7-2.6-0.6-4.3,0.4l-101.1,58.4v143.6v4.6l2.5,1.4v-2.9l98.6-56.9
			c3.3-1.9,5.9-6.5,5.9-10.3V369.2c0-0.6-0.1-1.2-0.2-1.7L262,367.1z"/>
		<path class="st11" d="M263.7,505.2c0,3.8-2.7,8.4-5.9,10.3l-101.1,58.4V425.5l101.1-58.4c3.3-1.9,5.9-0.4,5.9,3.4V505.2z"/>
		<polygon class="st3" points="160.1,435.5 259.5,378.2 291.1,396.6 192.1,453.8 		"/>
		<path class="st10" d="M295.8,386.2l-2.4-1.7l0,0c-1.1-0.7-2.6-0.6-4.3,0.4L188,443.2v148.3l101.1-58.4c3.3-1.9,5.9-6.5,5.9-10.3
			V388.3c0-0.6-0.1-1.2-0.2-1.7L295.8,386.2z"/>
		<path class="st12" d="M297.7,524.7c0,3.8-2.7,8.4-5.9,10.3l-101.1,58.4V445.1l101.1-58.4c3.3-1.9,5.9-0.4,5.9,3.4V524.7z"/>
		<polygon class="st11" points="154.2,424.1 190.7,445.1 190.7,593.3 154.2,572.4 		"/>
		<polygon class="st10" points="159.7,423.8 193.4,443.5 190.7,445.1 156.7,425.5 		"/>
	</g>
	<polygon class="st13" points="185.5,479.7 160.2,465.1 160.2,445.7 185.5,460.3 	"/>
</g>
</svg>
