<?xml version="1.0" encoding="utf-8"?>
<!-- Generator: Adobe Illustrator 21.1.0, SVG Export Plug-In . SVG Version: 6.00 Build 0)  -->
<svg version="1.1" id="Слой_1" xmlns="http://www.w3.org/2000/svg" xmlns:xlink="http://www.w3.org/1999/xlink" x="0px" y="0px"
	 viewBox="0 0 900 712" style="enable-background:new 0 0 900 712;" xml:space="preserve">
<style type="text/css">
	.st0{fill:#DA44D0;}
	.st1{fill:#B61BB6;}
	.st2{fill:#FFFFFF;}
	.st3{fill:#B37FFF;}
	.st4{fill:#923CFF;}
	.st5{fill:#FFDE00;}
	.st6{fill:#F3AB00;}
	.st7{fill:#5E5E5E;}
	.st8{fill:#FDE500;}
	.st9{fill:#0F70FD;}
	.st10{enable-background:new    ;}
	.st11{fill:#020202;}
	.st12{fill:#28A3E8;}
</style>
<rect x="100" y="100" class="st0" width="700" height="512"/>
<g>
	<polygon class="st1" points="568.2,540.2 348.7,413.5 138.8,534.6 358.3,661.4 	"/>
</g>
<g>
	<g>
		<polygon class="st2" points="539.7,85 511.1,265.2 721.7,386.8 750.3,206.5 		"/>
		<path d="M721.4,387.3c0.1,0.1,0.2,0.1,0.3,0.1c0.1,0,0.2,0,0.2-0.1c0.2-0.1,0.3-0.2,0.3-0.4l28.6-180.3c0-0.2-0.1-0.5-0.3-0.6
			L540,84.5c-0.2-0.1-0.4-0.1-0.5,0c-0.2,0.1-0.3,0.2-0.3,0.4l-28.6,180.3c0,0.2,0.1,0.5,0.3,0.6L721.4,387.3z M540.2,85.9
			l209.5,121l-28.4,179l-209.5-121L540.2,85.9z"/>
	</g>
	<polygon class="st3" points="729.4,393.1 729.2,394 728.7,395.1 728.1,396.1 727.9,396.3 728.8,396.8 728.8,396.8 729.7,396.4 
		730.6,395.8 731.4,395 732,394 732.5,392.9 732.7,392 733,390.3 761.6,210 761.7,208.7 761.7,207.3 761.6,205.9 761.3,204.4 
		760.9,203 760.4,201.6 759.7,200.3 759,199.1 758.1,198 757.2,197 756.2,196.2 755.2,195.5 543.2,73.1 542.5,72.8 541.4,72.5 
		540.3,72.5 539.3,72.7 538.3,73.1 537.5,73.6 538.1,73.7 539.1,73.9 539.9,74.2 751.9,196.6 752.9,197.3 753.9,198.1 754.8,199.1 
		755.7,200.2 756.4,201.5 757.1,202.8 757.6,204.1 758,205.6 758.3,207 758.4,208.4 758.4,209.8 758.3,211.1 	"/>
	<polygon class="st4" points="503.7,266.1 504,267 504.1,267.3 727.8,396.4 727.9,396.3 728.1,396.1 728.7,395.1 729.2,394 
		729.4,393.1 758.3,211.1 758.4,209.8 758.4,208.4 758.3,207 758,205.6 757.6,204.1 757.1,202.8 756.4,201.5 755.7,200.2 
		754.8,199.1 753.9,198.1 752.9,197.3 751.9,196.6 539.9,74.2 539.1,73.9 538.1,73.7 537.5,73.6 537,73.6 536,73.8 535,74.2 
		534.1,74.8 533.4,75.6 532.8,76.6 532.3,77.7 532,78.6 503.2,260.6 503.1,262 503.2,263.3 503.4,264.7 	"/>
	<polygon points="539.7,85 511.1,265.2 721.7,386.8 750.3,206.5 	"/>
	<path class="st3" d="M576.5,487l0.6,0.3l0.6,0.2l0.6,0.1l0.7,0.1l0.7,0l0.7-0.1l0.7-0.2l0.8-0.3l0.8-0.3l38.4-18.3l96.7-55.8
		l1.1-0.7l1.1-0.8l1.1-0.9l1.1-1l1-1.1l1-1.2l0.9-1.3l0.9-1.3l0.8-1.4l0.7-1.4l0.7-1.4l0.6-1.5v-1.7l-153.8,88.8l0.4,0.5l0.5,0.4
		L576.5,487z"/>
	<path class="st4" d="M728.9,396.9l-0.2-0.1l-0.9-0.5l-0.1,0.1L504.1,267.3L504,267l-1.5-0.9l-153.8,88.8l226.5,130.8L728.9,396.9z
		 M502.4,281.8l199.3,115.1l-63.3,36.6L439.1,318.4L502.4,281.8z M508.6,431.6l-67.4-38.9l53.4-30.8l67.4,38.9L508.6,431.6z"/>
	<polygon class="st3" points="494.6,361.9 441.2,392.7 508.6,431.6 562,400.8 	"/>
	<polygon class="st3" points="502.4,281.8 439.1,318.4 638.4,433.5 701.8,396.9 	"/>
	<g>
		<defs>
			<polygon id="SVGID_1_" points="720.6,386.8 749.1,206.5 538.6,85 510,265.2 			"/>
		</defs>
		<clipPath id="SVGID_2_">
			<use xlink:href="#SVGID_1_"  style="overflow:visible;"/>
		</clipPath>
	</g>
	<g>
		<polygon class="st4" points="594.5,149.9 602.4,154.5 602.4,149.9 589.4,142.3 589.4,142.4 567.6,129.6 567.6,134.2 594.5,149.9 
					"/>
		<polygon class="st4" points="563.8,127.4 546.5,117.3 545.8,121.5 563.8,132 		"/>
		<polygon class="st4" points="553.4,146.6 542.8,140.5 542.2,144.6 553.4,151.2 		"/>
		<polygon class="st4" points="589.4,155.3 588.1,154.5 588.1,159.1 594.5,162.8 594.5,162.8 609,171.3 609,166.7 589.4,155.3 		"/>
		<polygon class="st4" points="547.7,155.8 541,151.9 540.4,156 547.7,160.3 		"/>
		<polygon class="st4" points="551.5,137.7 584.3,156.9 584.3,152.3 551.5,133.2 		"/>
		<polygon class="st4" points="547.7,130.9 544.6,129.1 543.9,133.3 547.7,135.5 		"/>
		<polygon class="st4" points="573.4,162.9 594.5,175.2 594.5,170.6 573.4,158.3 		"/>
		<polygon class="st4" points="569.6,156.1 557.2,148.9 557.2,153.4 569.6,160.7 		"/>
		<polygon class="st4" points="655.8,185.6 660.2,188.1 660.2,183.6 647.2,176 647.2,176 628.9,165.4 628.9,169.9 655.8,185.6 		"/>
		<polygon class="st4" points="625.1,163.2 606.2,152.1 606.2,156.7 625.1,167.7 		"/>
		<polygon class="st4" points="596.6,176.4 614.7,186.9 614.7,182.4 596.6,171.9 		"/>
		<polygon class="st4" points="647.2,193.5 649.4,194.8 649.4,194.8 655.8,198.5 655.8,198.5 666.8,204.9 666.8,200.4 647.2,188.9 
					"/>
		<polygon class="st4" points="551.5,162.5 594.5,187.6 594.5,187.6 609,196.1 609,191.5 591.7,181.4 591.7,181.5 551.5,158 		"/>
		<polygon class="st4" points="645.6,188.1 612.8,168.9 612.8,173.5 645.6,192.6 		"/>
		<polygon class="st4" points="672.5,216.1 654.4,205.5 654.4,205.6 634.7,194.1 634.7,198.6 655.8,210.9 655.8,210.9 672.5,220.6 
					"/>
		<polygon class="st4" points="630.9,196.4 630.9,191.9 618.5,184.6 618.5,189.2 		"/>
		<polygon class="st4" points="686.7,199.1 686.7,203.6 703.4,213.3 704,209.2 		"/>
		<polygon class="st4" points="682.9,196.8 664,185.8 664,190.4 682.9,201.4 		"/>
		<polygon class="st4" points="649.5,215.1 612.8,193.7 612.8,198.3 655.8,223.3 655.8,223.3 666.8,229.7 666.8,225.2 649.5,215.1 
					"/>
		<polygon class="st4" points="670.6,227.4 670.6,231.9 697.9,247.9 698.6,243.7 		"/>
		<polygon class="st4" points="670.6,202.6 670.6,207.1 701.5,225.2 702.2,221 		"/>
		<polygon class="st4" points="692.5,227.7 692.5,232.3 699.7,236.5 700.4,232.4 		"/>
		<polygon class="st4" points="676.3,218.3 676.3,222.8 688.7,230.1 688.7,225.5 		"/>
		<polygon class="st4" points="587.3,195.9 595.2,200.5 595.2,196 582.2,188.4 582.2,188.4 560.4,175.7 560.4,180.2 587.3,195.9 		
			"/>
		<polygon class="st4" points="556.6,173.5 539.2,163.3 538.6,167.5 556.6,178 		"/>
		<polygon class="st4" points="546.2,192.7 535.6,186.5 534.9,190.7 546.2,197.2 		"/>
		<polygon class="st4" points="587.3,208.8 601.8,217.3 601.8,212.7 582.2,201.3 582.2,201.3 580.9,200.6 580.9,205.1 587.3,208.8 
					"/>
		<polygon class="st4" points="540.5,201.8 533.8,197.9 533.1,202.1 540.5,206.4 		"/>
		<polygon class="st4" points="544.3,183.8 577.1,202.9 577.1,198.4 544.3,179.2 		"/>
		<polygon class="st4" points="540.5,177 537.4,175.2 536.7,179.4 540.5,181.5 		"/>
		<polygon class="st4" points="566.2,208.9 587.3,221.2 587.3,216.7 566.2,204.4 		"/>
		<polygon class="st4" points="562.4,202.1 550,194.9 550,199.5 562.4,206.7 		"/>
		<polygon class="st4" points="648.6,231.6 653,234.2 653,229.6 640,222.1 640,222.1 621.7,211.4 621.7,216 648.6,231.7 		"/>
		<polygon class="st4" points="599,202.7 617.9,213.8 617.9,209.2 599,198.2 		"/>
		<polygon class="st4" points="607.5,228.4 589.4,217.9 589.4,222.5 607.5,233 		"/>
		<polygon class="st4" points="640,239.5 642.2,240.9 642.2,240.9 648.6,244.6 648.6,244.5 659.6,251 659.6,246.4 640,235 		"/>
		<polygon class="st4" points="544.3,208.6 587.3,233.6 587.3,233.6 601.8,242.1 601.8,237.6 584.5,227.5 584.5,227.5 544.3,204 		
			"/>
		<polygon class="st4" points="605.6,219.5 638.4,238.7 638.4,234.1 605.6,215 		"/>
		<polygon class="st4" points="665.3,262.1 647.2,251.6 647.2,251.7 627.5,240.1 627.5,244.7 648.6,257 648.6,256.9 665.3,266.7 		
			"/>
		<polygon class="st4" points="623.7,242.5 623.7,237.9 611.3,230.7 611.3,235.2 		"/>
		<polygon class="st4" points="679.5,245.1 679.5,249.7 696.1,259.3 696.8,255.2 		"/>
		<polygon class="st4" points="675.7,242.9 656.8,231.9 656.8,236.4 675.7,247.4 		"/>
		<polygon class="st4" points="642.3,261.2 605.6,239.8 605.6,244.3 648.6,269.4 648.6,269.3 659.6,275.8 659.6,271.2 642.3,261.1 
					"/>
		<polygon class="st4" points="663.4,273.4 663.4,278 690.6,293.9 691.3,289.7 		"/>
		<polygon class="st4" points="663.4,248.6 663.4,253.2 694.2,271.2 694.9,267 		"/>
		<polygon class="st4" points="685.3,273.8 685.3,278.3 692.4,282.5 693.1,278.4 		"/>
		<polygon class="st4" points="669.1,264.3 669.1,268.9 681.5,276.1 681.5,271.6 		"/>
		<polygon class="st4" points="584.4,244 592.3,248.7 592.3,244.1 579.3,236.5 579.3,236.5 557.5,223.8 557.5,228.4 584.4,244.1 		
			"/>
		<polygon class="st4" points="553.7,221.6 532.1,208.9 531.4,213 553.7,226.2 		"/>
		<polygon class="st4" points="543.3,240.8 528.4,232.1 527.8,236.3 543.3,245.4 		"/>
		<polygon class="st4" points="584.4,257 598.9,265.4 598.9,260.9 579.3,249.4 579.3,249.5 578.1,248.7 578.1,253.3 584.4,257 		"/>
		<polygon class="st4" points="526,247.7 537.6,254.5 537.6,249.9 526.6,243.5 		"/>
		<polygon class="st4" points="574.3,246.5 541.4,227.4 541.4,231.9 574.3,251.1 		"/>
		<polygon class="st4" points="537.6,225.1 530.2,220.8 529.6,225 537.6,229.7 		"/>
		<polygon class="st4" points="584.4,264.8 563.3,252.5 563.3,257.1 584.4,269.4 		"/>
		<polygon class="st4" points="559.5,254.8 559.5,250.3 547.1,243.1 547.1,247.6 		"/>
		<polygon class="st4" points="645.7,279.8 650.1,282.3 650.1,277.8 637.1,270.2 637.1,270.2 618.9,259.6 618.9,264.1 645.7,279.8 
					"/>
		<polygon class="st4" points="596.1,250.9 615,261.9 615,257.4 596.1,246.3 		"/>
		<polygon class="st4" points="604.6,276.6 586.6,266 586.6,270.6 604.6,281.1 		"/>
		<polygon class="st4" points="637.1,287.7 639.4,289 639.4,289 645.7,292.7 645.7,292.7 656.7,299.1 656.7,294.6 637.1,283.1 		"/>
		<polygon class="st4" points="581.7,275.6 541.4,252.2 541.4,256.7 584.4,281.8 584.4,281.8 598.9,290.2 598.9,285.7 581.7,275.6 
					"/>
		<polygon class="st4" points="635.6,282.3 602.8,263.1 602.8,267.7 635.6,286.8 		"/>
		<polygon class="st4" points="645.7,305 662.4,314.8 662.4,310.2 644.4,299.7 644.4,299.8 624.6,288.3 624.6,292.8 645.7,305.1 		
			"/>
		<polygon class="st4" points="620.8,290.6 620.8,286 608.4,278.8 608.4,283.4 		"/>
		<polygon class="st4" points="676.6,293.2 676.6,297.8 688.9,304.9 689.5,300.8 		"/>
		<polygon class="st4" points="672.8,291 653.9,280 653.9,284.5 672.8,295.6 		"/>
		<polygon class="st4" points="639.5,309.3 602.8,287.9 602.8,292.5 645.7,317.5 645.7,317.5 656.7,323.9 656.7,319.4 639.5,309.3 
					"/>
		<polygon class="st4" points="660.5,321.6 660.5,326.1 683.4,339.5 684.1,335.3 		"/>
		<polygon class="st4" points="660.5,296.8 660.5,301.3 687,316.8 687.7,312.6 		"/>
		<polygon class="st4" points="682.4,321.9 682.4,326.5 685.2,328.1 685.9,323.9 		"/>
		<polygon class="st4" points="666.2,312.5 666.2,317 678.6,324.3 678.6,319.7 		"/>
	</g>
</g>
<g>
	<polygon class="st5" points="298,545.5 245.2,575.9 347.1,634.4 525.2,531.5 271.6,387.5 270,391 246.8,418.6 450.7,533.8 
		345.8,593.8 324.4,582.1 317.4,578.1 335.9,567.5 	"/>
	<polygon class="st5" points="473.3,317 428.7,342.7 426,344.3 380.4,370.5 418.1,392.5 510.9,339 	"/>
	<polygon class="st6" points="418,392.5 380.4,370.5 345.8,443.9 326.6,484.6 321.4,495.7 298,545.5 335.6,567.5 	"/>
	<polygon class="st6" points="473.2,317.2 367.9,165.6 323.4,191.2 428.7,342.7 	"/>
</g>
<g>
	<path class="st5" d="M702.7,347.7c2.3,1.3,5.1-0.1,5.5-2.6l13.5-85.1l-117.2-67.7l-13.9,87.9c-0.2,1.5,0.5,3,1.8,3.8L702.7,347.7z"
		/>
	<path class="st6" d="M719.4,247.8l-110.1-63.6c-1.6-0.9-3.5,0-3.8,1.8l-1,6.3L721.7,260l0.9-5.5C723,251.8,721.7,249.1,719.4,247.8
		z"/>
	<g>
		<defs>
			<path id="SVGID_3_" d="M708.2,345l13.5-85.1l-117.2-67.7l-13.9,87.9c-0.2,1.5,0.5,3,1.8,3.8l110.4,63.7
				C704.9,349,707.8,347.6,708.2,345z"/>
		</defs>
		<clipPath id="SVGID_4_">
			<use xlink:href="#SVGID_3_"  style="overflow:visible;"/>
		</clipPath>
	</g>
</g>
<g>
	<g>
		<g>
			<polygon points="177.1,476.8 179.1,477.4 181.5,477.2 184,476.1 355.1,377.3 357.7,375.5 360,372.9 362.1,370 363.6,366.7 
				364.6,363.4 365,360.2 365,226.8 364.6,224.1 363.6,221.9 362.1,220.5 360,219.8 357.7,220.1 355.1,221.1 184,319.9 181.5,321.8 
				179.1,324.3 177.1,327.3 175.5,330.5 174.5,333.8 174.2,337 174.2,470.4 174.5,473.1 175.5,475.3 			"/>
			<path d="M176.4,477.9l2.6,0.8l2.6-0.3l3-1.2l171.1-98.8l2.7-1.9l2.6-2.7l2.2-3.1l1.7-3.4l1.1-3.5l0.4-3.4l0-133.6l-0.3-2.9
				l-1.2-2.8l-2-1.8l-2.6-0.8l-2.6,0.3l-3,1.2l-171.1,98.8l-2.7,1.9l-2.6,2.7l-2.2,3.1l-1.7,3.4l-1.1,3.5l-0.4,3.4l0,133.6l0.3,2.9
				l1.2,2.8L176.4,477.9z M175.5,337l0.3-2.9l0.9-3.1l1.5-3.1l1.9-2.8l2.2-2.3l2.4-1.7l170.9-98.7l2.3-1l1.9-0.2l1.5,0.5l1.1,1.1
				l0.8,1.7l0.3,2.5v133.3l-0.3,2.9l-0.9,3.1l-1.5,3.1l-1.9,2.8l-2.2,2.3l-2.4,1.7l-170.9,98.7l-2.3,1l-1.9,0.2l-1.5-0.5l-1.1-1.1
				l-0.8-1.7l-0.3-2.5V337z"/>
		</g>
		<polygon class="st2" points="356.5,301 357.1,301.2 357.8,301.1 358.6,300.8 359.4,300.2 360.2,299.4 360.8,298.5 361.3,297.4 
			361.6,296.4 361.7,295.4 361.6,294.5 361.3,293.9 360.8,293.4 360.2,293.2 359.4,293.3 358.6,293.6 357.8,294.2 357.1,295 
			356.5,295.9 356,297 355.7,298 355.5,299 355.7,299.8 356,300.5 		"/>
		<polygon class="st2" points="351.9,367.3 351.9,235.4 351.5,235.2 186.8,330.3 186.4,331 186.4,462.9 186.8,463.1 351.5,368.1 		
			"/>
	</g>
	<polygon class="st7" points="230.6,351.8 203.8,367.4 203.8,372 230.6,356.3 	"/>
	<g>
		<polygon class="st7" points="253.4,338.5 234.5,349.5 234.5,354.1 253.4,343.1 		"/>
		<polygon class="st7" points="257.2,336.3 257.2,340.8 270.2,333.3 270.2,328.7 		"/>
	</g>
	<polygon class="st7" points="244.9,368.8 244.9,373.3 262.9,362.8 262.9,358.2 	"/>
	<polygon class="st7" points="210.1,376.6 203.8,380.3 203.8,384.9 210.1,381.2 	"/>
	<g>
		<polygon class="st7" points="250.6,377.9 250.6,382.4 267.8,372.3 267.8,367.8 		"/>
		<polygon class="st7" points="246.7,380.1 203.8,405.2 203.8,409.7 246.7,384.6 		"/>
	</g>
	<g>
		<g>
			<path class="st8" d="M337.1,314.1c0.1,17.9-12.7,40-28.3,49c-15.6,9-28.4,1.7-28.5-16.3c-0.1-17.9,12.7-40,28.3-48.9
				C324.2,288.9,337,296.2,337.1,314.1z"/>
		</g>
	</g>
	<g>
		<polygon class="st7" points="246.7,355.3 213.9,374.4 213.9,379 246.7,359.8 		"/>
		<polygon class="st7" points="250.6,353.1 250.6,357.6 270.2,346.2 270.2,341.6 		"/>
	</g>
	<g>
		<polygon class="st7" points="224.9,380.4 203.8,392.7 203.8,397.3 224.9,385 		"/>
		<polygon class="st7" points="228.7,378.2 228.7,382.8 241.1,375.5 241.1,371 		"/>
	</g>
</g>
<g>
	<g>
		<path class="st2" d="M669,417.6c2.5,1.5,4.6,0.3,4.6-2.6l0.2-53.1c0-2.9-2-6.4-4.5-7.9l-63-36.4c-2.5-1.5-4.6-0.3-4.6,2.6
			l-0.2,53.1c0,2.9,2,6.4,4.5,7.9L669,417.6z"/>
	</g>
	<path class="st9" d="M602.9,317.8c-0.1,0.1-0.2,0.1-0.2,0.2C602.8,317.9,602.9,317.8,602.9,317.8z"/>
	<path class="st9" d="M602.7,318c-0.1,0.1-0.2,0.2-0.2,0.2C602.5,318.1,602.6,318.1,602.7,318z"/>
</g>
<circle class="st6" cx="687.4" cy="279" r="5.6"/>
<g>
	<path class="st6" d="M625.8,353.7c0-6-4.2-13.4-9.5-16.5c-5.3-3-9.5-0.6-9.6,5.5c0,6,4.2,13.4,9.5,16.5
		C621.5,362.2,625.7,359.7,625.8,353.7z M609.5,344.3c0-4.3,3-6,6.8-3.9c3.7,2.1,6.7,7.4,6.7,11.7c0,4.3-3.1,6-6.8,3.8
		C612.5,353.8,609.5,348.6,609.5,344.3z"/>
</g>
<circle class="st6" cx="616.2" cy="348.6" r="3.5"/>
<polygon class="st6" points="688.3,281.1 687.3,279 615.1,312.6 615.1,350.1 617.4,350.1 617.4,314.1 "/>
<g>
	<g>
		<path class="st8" d="M646.1,363.6c0.9,0.5,1.7,0.1,1.7-1c0-1.1-0.7-2.3-1.7-2.9l-15.2-8.8c-0.9-0.5-1.7-0.1-1.7,0.9
			c0,1.1,0.7,2.3,1.7,2.9L646.1,363.6z"/>
	</g>
	<g>
		<path class="st8" d="M657.5,377.3c0.8,0.5,1.4,0.1,1.4-0.8l0-0.5c0-0.9-0.6-2-1.4-2.5l-11.3-6.5c-0.8-0.5-1.4-0.1-1.4,0.8l0,0.5
			c0,0.9,0.6,2,1.4,2.5L657.5,377.3z"/>
	</g>
	<g>
		<path class="st8" d="M660.8,372.1c0.8,0.5,1.4,0.1,1.4-0.8l0-0.5c0-0.9-0.6-2-1.4-2.5l-9.1-5.2c-0.8-0.5-1.4-0.1-1.4,0.8l0,0.5
			c0,0.9,0.6,2,1.4,2.5L660.8,372.1z"/>
	</g>
	<g>
		<path class="st8" d="M640.5,367.5c0.9,0.5,1.7,0.1,1.7-1c0-1-0.7-2.3-1.7-2.9l-9.6-5.5c-0.9-0.5-1.7-0.1-1.7,0.9
			c0,1.1,0.7,2.3,1.7,2.9L640.5,367.5z"/>
	</g>
</g>
<g>
	<g class="st10">
		<g>
			<path class="st8" d="M628.2,382c0.7,0.4,1.2,0.1,1.2-0.7c0-0.8-0.5-1.7-1.2-2.1l-4.9-2.8c-0.7-0.4-1.2-0.1-1.2,0.7
				c0,0.8,0.5,1.7,1.2,2.1L628.2,382z"/>
		</g>
		<g>
			<path class="st8" d="M631.4,378.6c0.7,0.4,1.2,0.1,1.2-0.7c0-0.8-0.5-1.7-1.2-2.1l-8.1-4.7c-0.7-0.4-1.2-0.1-1.2,0.7
				c0,0.8,0.5,1.7,1.2,2.1L631.4,378.6z"/>
		</g>
	</g>
	<g>
		<path class="st8" d="M618.3,378.7c0.9,0.5,1.7,0.1,1.7-1l0-8.2c0-1.1-0.8-2.4-1.7-3l-7.1-4.1c-1-0.5-1.7-0.1-1.7,1l0,8.2
			c0,1.1,0.8,2.4,1.7,3L618.3,378.7z"/>
	</g>
</g>
<g>
	<g class="st10">
		<g>
			<path class="st8" d="M656.4,397.2c0.7,0.4,1.2,0.1,1.2-0.7c0-0.8-0.5-1.7-1.2-2.1l-4.9-2.8c-0.7-0.4-1.2-0.1-1.2,0.7
				c0,0.8,0.5,1.7,1.2,2.1L656.4,397.2z"/>
		</g>
		<g>
			<path class="st8" d="M659.6,393.8c0.7,0.4,1.2,0.1,1.2-0.7c0-0.8-0.5-1.7-1.2-2.1l-8.1-4.7c-0.7-0.4-1.2-0.1-1.2,0.7
				c0,0.8,0.5,1.7,1.2,2.1L659.6,393.8z"/>
		</g>
	</g>
	<g>
		<path class="st8" d="M646.6,393.9c0.9,0.5,1.7,0.1,1.7-1l0-8.2c0-1.1-0.8-2.4-1.7-3l-7.1-4.1c-1-0.5-1.7-0.1-1.7,1l0,8.2
			c0,1.1,0.8,2.4,1.7,3L646.6,393.9z"/>
	</g>
</g>
<g>
	<g>
		<polygon class="st8" points="581.6,414 570.1,420.7 576.7,424.3 588.3,417.7 		"/>
		<g>
			<polygon class="st8" points="573.1,428.8 573.8,427.4 574.6,426.2 575.7,425.1 576.7,424.3 570.1,420.7 569,421.5 568,422.5 
				567.1,423.8 566.4,425.2 566,426.6 565.9,428 566,429.2 566.4,430.2 567.1,430.8 573.8,434.4 573.1,433.8 572.7,432.8 
				572.5,431.6 572.7,430.2 			"/>
			<polygon class="st8" points="590.4,417.2 591.3,417.5 584.6,413.8 583.7,413.5 582.7,413.6 581.6,414 588.3,417.7 589.4,417.2 
							"/>
		</g>
		<path class="st6" d="M573.8,434.4l0.9,0.3l1-0.1l1.1-0.4l11.6-6.7l1.1-0.8l1-1.1l0.9-1.3l0.7-1.4l0.4-1.4l0.1-1.4l-0.1-1.2l-0.4-1
			l-0.7-0.7l-0.9-0.3l-1,0.1l-1.1,0.4l-11.6,6.7l-1.1,0.8l-1,1.1l-0.9,1.3l-0.7,1.4l-0.4,1.4l-0.1,1.4l0.1,1.2l0.4,1L573.8,434.4z"
			/>
	</g>
	<g>
		<polygon class="st8" points="592.5,419.3 581,426 587.6,429.6 599.2,422.9 		"/>
		<g>
			<polygon class="st8" points="584,434.1 584.6,432.7 585.5,431.4 586.5,430.4 587.6,429.6 581,426 579.9,426.7 578.8,427.8 
				578,429.1 577.3,430.5 576.9,431.9 576.7,433.3 576.9,434.5 577.3,435.4 578,436.1 584.6,439.7 584,439.1 583.6,438.1 
				583.4,436.9 583.6,435.5 			"/>
			<polygon class="st8" points="601.3,422.4 602.2,422.7 595.5,419.1 594.6,418.8 593.6,418.9 592.5,419.3 599.2,422.9 600.3,422.5 
							"/>
		</g>
		<path class="st6" d="M584.6,439.7l0.9,0.3l1-0.1l1.1-0.4l11.6-6.7l1.1-0.8l1-1.1l0.9-1.3l0.7-1.4l0.4-1.4l0.1-1.4l-0.1-1.2l-0.4-1
			l-0.7-0.7l-0.9-0.3l-1,0.1l-1.1,0.4l-11.6,6.7l-1.1,0.8l-1,1.1l-0.9,1.3l-0.7,1.4l-0.4,1.4l-0.1,1.4l0.1,1.2l0.4,1L584.6,439.7z
			 M597.1,428.6l0.2-0.8l0.4-0.8l0.5-0.7l0.6-0.6l0.6-0.4l0.6-0.2l0.6,0l0.5,0.2l0.4,0.4l0.2,0.5l0.1,0.7l-0.1,0.7l-0.2,0.8L601,429
			l-0.5,0.7l-0.6,0.6l-0.6,0.4l-0.6,0.2l-0.6,0l-0.5-0.2l-0.4-0.4l-0.2-0.5l-0.1-0.7L597.1,428.6z M585.8,435.6l0.2-0.7l0.3-0.7
			l0.4-0.6l0.5-0.5l0.5-0.4l0.5-0.2l0.5,0l0.4,0.2l0.3,0.3l0.2,0.5l0.1,0.6l-0.1,0.7l-0.2,0.7l-0.3,0.7l-0.4,0.6l-0.5,0.5l-0.5,0.4
			l-0.5,0.2l-0.5,0l-0.4-0.2l-0.3-0.3l-0.2-0.5l-0.1-0.6L585.8,435.6z"/>
		<polygon class="st8" points="586.4,437.7 586.8,437.9 587.3,437.9 587.8,437.6 588.4,437.3 588.9,436.7 589.3,436.1 589.7,435.4 
			589.9,434.7 590,434 589.9,433.4 589.7,432.9 589.3,432.6 588.9,432.4 588.4,432.5 587.8,432.7 587.3,433.1 586.8,433.6 
			586.4,434.2 586,434.9 585.8,435.6 585.7,436.3 585.8,436.9 586,437.4 		"/>
		<polygon class="st8" points="597.8,430.8 598.3,431 598.8,431 599.4,430.7 600,430.3 600.6,429.7 601,429 601.4,428.2 
			601.6,427.4 601.7,426.7 601.6,426 601.4,425.5 601,425.2 600.5,425 600,425 599.4,425.3 598.8,425.7 598.2,426.3 597.7,427 
			597.4,427.8 597.1,428.6 597.1,429.3 597.2,430 597.4,430.5 		"/>
	</g>
	<g>
		<path class="st8" d="M584.7,418.4c2.1,1.2,4.8,1.2,6.9,0l14.6-8.4c2.7-1.6,4.4-4.5,4.4-7.6v-15.1c0-3-1.6-5.7-4.1-7.2l-12.9-7.4
			c-3.3-1.9-7.5-1.9-10.8,0l-14.1,8.1c-1.8,1.1-3,3-3,5.1v17.8c0,2.3,1.2,4.4,3.2,5.5L584.7,418.4z"/>
		<path class="st4" d="M603.6,406.4l6.9-4v-15.1l-10.7,5.1c-1.6,0.8-2.6,2.5-2.5,4.2l0.4,6.6C597.9,406.2,601.1,407.9,603.6,406.4z"
			/>
		<g>
			<polygon class="st2" points="610.5,390.4 604.5,393.9 604.5,396.6 610.5,393.1 			"/>
		</g>
		<g>
			<polygon class="st2" points="610.5,395.3 606.9,397.4 606.9,400.1 610.5,398 			"/>
		</g>
	</g>
	<g>
		<path class="st8" d="M608.6,421.7c0.7,0,1.5-0.1,2.3-0.2c5.3-1,8.8-4.7,9.5-10.1c0.1-0.6-0.4-1.2-1-1.3c-0.6-0.1-1.2,0.4-1.3,1
			c-0.8,5.9-5.1,7.7-7.6,8.1c-7.7,1.5-11.9-6.7-12-7c-0.3-0.6-1-0.8-1.6-0.5c-0.6,0.3-0.8,1-0.5,1.6
			C596.4,413.2,600.7,421.7,608.6,421.7z"/>
		<path class="st8" d="M617.9,403.1c-0.6-0.2-1.3,0-1.5,0.6c-0.2,0.4-1.5,3.9-0.2,6.4c0.6,1.1,1.6,1.8,3,2.1c0.3,0.1,0.7,0.1,1,0.1
			c1,0,1.9-0.3,2.7-0.9c2.2-1.7,2.5-5.1,2.6-5.5c0-0.6-0.4-1.2-1.1-1.2c-0.6,0-1.2,0.4-1.3,1.1c-0.1,0.8-0.5,2.9-1.7,3.8
			c-0.5,0.4-1.1,0.5-1.9,0.4c-0.9-0.2-1.2-0.6-1.4-0.9c-0.7-1.3,0-3.7,0.3-4.4C618.8,404,618.5,403.3,617.9,403.1z"/>
		<path class="st8" d="M601.3,412.6c0-2.2-1.8-3.9-3.9-3.9c-2.2,0-3.9,1.8-3.9,3.9c0,2.2,1.8,3.9,3.9,3.9
			C599.6,416.5,601.3,414.8,601.3,412.6z M595.8,412.6c0-0.9,0.7-1.6,1.6-1.6s1.6,0.7,1.6,1.6c0,0.9-0.7,1.6-1.6,1.6
			S595.8,413.5,595.8,412.6z"/>
	</g>
</g>
<path class="st9" d="M378,225c-0.1-0.1-0.2-0.2-0.3-0.3C377.8,224.8,377.9,224.9,378,225z"/>
<path class="st9" d="M378.4,225.4c-0.1-0.1-0.2-0.2-0.3-0.4C378.2,225.1,378.3,225.2,378.4,225.4z"/>
<g>
	<path class="st8" d="M448.5,255.4c0-4.1,2.9-5.8,6.5-3.7l40,23.3c3.6,2.1,6.5,7.1,6.4,11.2l0,5.8l-53-30.8L448.5,255.4z"/>
	<g>
		<path class="st2" d="M452.9,253.9c0.3-0.1,0.6-0.1,0.9,0.1c0.3,0.2,0.7,0.5,0.9,1l1.3,2.3l1.3-0.8c0.3-0.1,0.6-0.1,0.9,0.1
			c0.3,0.2,0.7,0.5,0.9,1c0.5,0.9,0.5,1.8,0,2.1l-1.3,0.7l1.3,2.3c0.5,0.9,0.5,1.8,0,2.1c-0.3,0.1-0.6,0.1-0.9-0.1
			c-0.3-0.2-0.7-0.5-0.9-1l-1.3-2.3l-1.3,0.8c-0.3,0.1-0.6,0.1-0.9-0.1c-0.3-0.2-0.7-0.5-0.9-1c-0.5-0.9-0.5-1.8,0-2.1l1.3-0.8
			l-1.3-2.3C452.4,255.1,452.4,254.2,452.9,253.9z"/>
	</g>
	<path class="st2" d="M494.8,336.3l-20.4-11.8l-10.9-6.3l-8.8-5.1c-3.6-2.1-6.5-7.1-6.5-11.2l0.2-46.4c0-4.1,2.9-5.8,6.5-3.7
		L495,275c3.6,2.1,6.5,7.1,6.5,11.2l-0.2,46.4C501.3,336.7,498.3,338.3,494.8,336.3z"/>
	<path class="st11" d="M502.4,332.6l0.2-46.4c0-4.6-3.1-9.9-7-12.2l-40.1-23.2c-2.1-1.2-4.2-1.4-5.8-0.5c-1.6,0.9-2.5,2.8-2.5,5.2
		l-0.2,46.4c0,4.6,3.1,9.9,7,12.2l8.2,4.7l12.2,7.1l19.7,11.4c1.2,0.7,2.4,1,3.5,1c0.8,0,1.6-0.2,2.3-0.6
		C501.5,336.8,502.4,335,502.4,332.6z"/>
	<g>
		<g>
			<path class="st0" d="M461,285.9c-0.2,0.2-0.6,0.1-0.9-0.1c-0.3-0.2-0.6-0.5-0.8-0.9l-4.3-7c-0.3-0.4-0.4-0.9-0.4-1.3
				c0-0.4,0.1-0.7,0.4-0.8l4.3-2.1c0.2-0.1,0.5-0.1,0.8,0.1c0.3,0.2,0.7,0.5,0.9,1c0.5,0.8,0.4,1.7-0.1,1.9l-3.3,1.6l3.3,5.4
				C461.5,284.7,461.5,285.6,461,285.9z"/>
		</g>
		<g>
			<path class="st0" d="M492.7,320.5l-36.3-20.8c-0.7-0.4-1.2-1.3-1.2-2.1c0-0.8,0.5-1.1,1.2-0.7l36.3,20.8c0.7,0.4,1.2,1.3,1.2,2.1
				C493.9,320.6,493.3,320.9,492.7,320.5z"/>
		</g>
		<g>
			<path class="st0" d="M492.6,311.3l-9.4-5.4c-0.7-0.4-1.2-1.3-1.2-2.1c0-0.8,0.6-1.1,1.2-0.7l9.4,5.4c0.7,0.4,1.2,1.3,1.2,2.1
				C493.9,311.3,493.3,311.7,492.6,311.3z"/>
		</g>
		<g>
			<path class="st0" d="M487.5,290c0.2-0.2,0.6-0.1,0.9,0.1c0.3,0.2,0.6,0.5,0.8,0.9l4.3,7c0.3,0.4,0.4,0.9,0.4,1.3
				c0,0.4-0.1,0.7-0.4,0.8l-4.3,2.1c-0.2,0.1-0.5,0.1-0.8-0.1c-0.3-0.2-0.7-0.5-0.9-1c-0.5-0.8-0.4-1.7,0.1-2l3.3-1.6l-3.3-5.4
				C487.1,291.2,487,290.3,487.5,290z"/>
		</g>
		<g>
			<path class="st0" d="M465.6,295.8l-9.4-5.4c-0.7-0.4-1.2-1.3-1.2-2.1c0-0.8,0.6-1.1,1.2-0.7l9.4,5.4c0.7,0.4,1.2,1.3,1.2,2.1
				C466.9,295.9,466.3,296.2,465.6,295.8z"/>
		</g>
		<g>
			<path class="st0" d="M477.3,302.4l-5.1-2.8c-0.7-0.4-1.2-1.3-1.2-2.1c0-0.8,0.6-1.1,1.2-0.7l5.1,2.8c0.7,0.4,1.2,1.3,1.2,2.1
				C478.5,302.5,477.9,302.8,477.3,302.4z"/>
		</g>
		<g>
			<path class="st0" d="M485.5,295.8L463.1,283c-0.7-0.4-1.2-1.3-1.2-2.1c0-0.8,0.6-1.1,1.2-0.7l22.4,12.8c0.7,0.4,1.2,1.3,1.2,2.1
				C486.7,295.9,486.2,296.2,485.5,295.8z"/>
		</g>
	</g>
</g>
<g>
	<path class="st8" d="M504.9,455.8c0-4.1-2.9-5.8-6.5-3.7l-40,23.3c-3.6,2.1-6.5,7.1-6.4,11.2l0,5.8l53-30.8L504.9,455.8z"/>
	<g>
		<path class="st2" d="M500.4,454.3c-0.3-0.1-0.6-0.1-0.9,0.1c-0.3,0.2-0.7,0.5-0.9,1l-1.3,2.3l-1.3-0.8c-0.3-0.1-0.6-0.1-0.9,0.1
			c-0.3,0.2-0.7,0.5-0.9,1c-0.5,0.9-0.5,1.8,0,2.1l1.3,0.7l-1.3,2.3c-0.5,0.9-0.5,1.8,0,2.1c0.3,0.1,0.6,0.1,0.9-0.1
			c0.3-0.2,0.7-0.5,0.9-1l1.3-2.3l1.3,0.8c0.3,0.1,0.6,0.1,0.9-0.1c0.3-0.2,0.7-0.5,0.9-1c0.5-0.9,0.5-1.8,0-2.1l-1.3-0.8l1.3-2.3
			C500.9,455.5,500.9,454.6,500.4,454.3z"/>
	</g>
	<path class="st2" d="M458.6,536.7l20.4-11.8l10.9-6.3l8.8-5.1c3.6-2.1,6.5-7.1,6.5-11.2l-0.2-46.4c0-4.1-2.9-5.8-6.5-3.7
		l-40.1,23.2c-3.6,2.1-6.5,7.1-6.5,11.2l0.2,46.4C452.1,537.1,455,538.8,458.6,536.7z"/>
	<path class="st2" d="M453.4,538.2c0.7,0.4,1.5,0.6,2.3,0.6c1.1,0,2.3-0.4,3.5-1l19.7-11.4l12.2-7.1l8.2-4.7c4-2.3,7.1-7.6,7-12.2
		l-0.2-46.4c0-2.4-0.9-4.2-2.5-5.2c-1.6-0.9-3.7-0.8-5.8,0.5l-40.1,23.2c-4,2.3-7.1,7.6-7,12.2l0.2,46.4
		C450.9,535.4,451.8,537.2,453.4,538.2z"/>
	<g>
		<g>
			<path class="st0" d="M492.3,486.4c0.2,0.2,0.6,0.1,0.9-0.1c0.3-0.2,0.6-0.5,0.8-0.9l4.3-7c0.3-0.4,0.4-0.9,0.4-1.3
				c0-0.4-0.1-0.7-0.4-0.8l-4.3-2.1c-0.2-0.1-0.5-0.1-0.8,0.1c-0.3,0.2-0.7,0.5-0.9,1c-0.5,0.8-0.4,1.7,0.1,1.9l3.3,1.6l-3.3,5.4
				C491.9,485.1,491.8,486,492.3,486.4z"/>
		</g>
		<g>
			<path class="st0" d="M460.7,520.9l36.3-20.8c0.7-0.4,1.2-1.3,1.2-2.1c0-0.8-0.5-1.1-1.2-0.7l-36.3,20.8c-0.7,0.4-1.2,1.3-1.2,2.1
				C459.4,521,460,521.3,460.7,520.9z"/>
		</g>
		<g>
			<path class="st0" d="M460.7,511.7l9.4-5.4c0.7-0.4,1.2-1.3,1.2-2.1c0-0.8-0.6-1.1-1.2-0.7l-9.4,5.4c-0.7,0.4-1.2,1.3-1.2,2.1
				C459.5,511.7,460,512.1,460.7,511.7z"/>
		</g>
		<g>
			<path class="st0" d="M465.8,490.4c-0.2-0.2-0.6-0.1-0.9,0.1c-0.3,0.2-0.6,0.5-0.8,0.9l-4.3,7c-0.3,0.4-0.4,0.9-0.4,1.3
				c0,0.4,0.1,0.7,0.4,0.8l4.3,2.1c0.2,0.1,0.5,0.1,0.8-0.1c0.3-0.2,0.7-0.5,0.9-1c0.5-0.8,0.4-1.7-0.1-2l-3.3-1.6l3.3-5.4
				C466.3,491.7,466.3,490.7,465.8,490.4z"/>
		</g>
		<g>
			<path class="st0" d="M487.7,496.2l9.4-5.4c0.7-0.4,1.2-1.3,1.2-2.1c0-0.8-0.6-1.1-1.2-0.7l-9.4,5.4c-0.7,0.4-1.2,1.3-1.2,2.1
				C486.5,496.3,487,496.6,487.7,496.2z"/>
		</g>
		<g>
			<path class="st0" d="M476.1,502.8l5.1-2.8c0.7-0.4,1.2-1.3,1.2-2.1c0-0.8-0.6-1.1-1.2-0.7l-5.1,2.8c-0.7,0.4-1.2,1.3-1.2,2.1
				C474.9,502.9,475.4,503.2,476.1,502.8z"/>
		</g>
		<g>
			<path class="st0" d="M467.8,496.2l22.4-12.8c0.7-0.4,1.2-1.3,1.2-2.1c0-0.8-0.6-1.1-1.2-0.7l-22.4,12.8c-0.7,0.4-1.2,1.3-1.2,2.1
				C466.6,496.3,467.1,496.6,467.8,496.2z"/>
		</g>
	</g>
</g>
<path id="cloud_29_" class="st4" d="M483.9,165.4c-6.2-21.2-23.5-38.3-45.3-41.2c-5.4-26.6-24.2-54.8-46.5-67.3
	c-23.4-13.2-42.7-4.7-46.3,18.7c-0.1,0-0.2-0.1-0.2-0.1c-16.5-9.3-29.8-1.5-29.7,17.4c-12.8-3.1-22.1,5.2-21.9,21.2
	c0.2,19.4,14.1,42.8,31,52.4l95,53.5C442.4,236.8,501.7,226.2,483.9,165.4z"/>
<path id="cloud_27_" class="st3" d="M225.9,205.7c1.8-1,3.6-1.8,5.2-2.3c0.9-18.4,13.7-39.9,29.4-49c1.5-0.8,2.9-1.5,4.3-2.1
	c5.9-15.9,17.4-31,30.6-38.6c19.3-11.1,34.9-2.1,34.9,20.1c0,0.5,0,1,0,1.5c0,0,0,0,0,0c14.8-8.5,26.7-1.6,26.7,15.4
	s-12,37.8-26.7,46.3l-104.4,60.3c-12.3,7.1-22.3,1.3-22.3-12.9S213.6,212.8,225.9,205.7z"/>
<path id="cloud_28_" class="st2" d="M395.5,159.3c-9.2-5.3-17.1-3.3-21,4c-1.3-1.1-2.6-2-4-2.8c-8.1-4.7-15-2.7-17.6,4.1
	c-1.2-1.1-2.5-2.1-3.8-2.9c-7.1-4.1-12.8-0.8-12.8,7.4s5.7,18,12.8,22.1l46.4,26.8c13,7.5,23.5,0.5,23.5-15.7
	C419.1,186,408.5,166.8,395.5,159.3z"/>
<g>
	<polygon class="st1" points="554.4,335.1 552.9,334.5 551.4,334.4 550.2,334.8 532,344.8 533.2,344.4 534.6,344.5 536.1,345.1 
		552.3,354.4 553.9,355.5 555.3,357 556.5,358.8 557.4,360.7 558,362.7 558.2,364.6 558,366.3 557.4,367.7 556.5,368.6 574.7,358.6 
		575.7,357.7 576.3,356.3 576.5,354.6 576.3,352.7 575.7,350.7 574.7,348.7 573.5,347 572.1,345.5 570.6,344.4 570.6,344.4 
		570.6,344.4 	"/>
	<polygon class="st0" points="532,354.7 533.2,356.5 534.6,357.9 536.1,359 552.3,368.4 553.9,369 555.3,369.1 556.5,368.6 
		557.4,367.7 558,366.3 558.2,364.6 558,362.7 557.4,360.7 556.5,358.8 555.3,357 553.9,355.5 552.3,354.4 536.1,345.1 534.6,344.5 
		533.2,344.4 532,344.8 531,345.8 530.4,347.1 530.2,348.8 530.4,350.7 531,352.7 	"/>
	<polygon class="st1" points="549.9,363.6 550.5,364.4 551.2,365.2 552,365.7 552.8,366 553.5,366.1 554.1,365.8 554.6,365.4 
		554.9,364.7 555,363.9 554.9,362.9 554.6,361.9 554.1,360.9 553.5,360 552.8,359.3 552,358.8 551.2,358.5 550.5,358.4 549.9,358.6 
		549.5,359.1 549.2,359.8 549.1,360.6 549.2,361.6 549.5,362.6 	"/>
	<polygon class="st1" points="533.5,353.6 534.2,354.6 535,355.4 535.8,356 536.6,356.4 537.4,356.4 538.1,356.2 538.6,355.7 
		539,355 539.1,354 539,353 538.7,351.9 538.2,350.8 537.5,349.8 536.7,349 535.9,348.4 535.1,348.1 534.3,348 533.6,348.2 
		533.1,348.7 532.7,349.5 532.6,350.4 532.7,351.4 533,352.5 	"/>
	<g>
		<path class="st0" d="M551.7,349.9c3,1.7,6.7,1.7,9.6,0l22.1-12.8c2.8-1.6,4.5-4.5,4.5-7.7v-25c0-3-1.6-5.7-4.1-7.2l-19.7-11.4
			c-4.7-2.7-10.5-2.7-15.1,0l-18,10.4c-3.6,2.1-5.8,5.9-5.8,10v21.1c0,4.4,2.3,8.4,6.1,10.6L551.7,349.9z"/>
		<path class="st2" d="M543.7,329l0.6-9.3c0.2-2.5-1.2-4.9-3.5-5.9l-15-7.1v21.1l9.6,5.6C538.9,335.5,543.4,333.1,543.7,329z"/>
	</g>
	<path class="st1" d="M482.8,222.9c0,3.8,1.7,8.1,4.4,11.5l10.8,5.1c0,0,0.1,0,0.1-0.1c0.2-0.1,0.9-0.5,0.9-0.5l3.3-1.9
		c1.6-0.9,2.5-2.8,2.7-5.4l32.8,0.2c1.9,3.3,4.4,6.3,7.2,8.3l1.1,58.3c1.9,6.6,17.4,10.3,23.2,5.3l-9.7-64.3l0.7-0.4
		c2.2-1.3,3.5-4,3.6-7.8c0-7.7-5.4-17.1-12.1-21c-3.4-2-6.5-2.1-8.7-0.8l-5.1,3c0,0,0,0,0,0c-1.4,0.8-2.5,2.2-3,4.1l-32.8,5.4
		c-1.6-2.7-3.8-5-6.2-6.4c-2.5-1.5-4.9-1.6-6.5-0.6l-3.8,2.2c0,0,0,0,0,0C483.9,217.9,482.8,220,482.8,222.9z"/>
	<path class="st0" d="M551.2,228c-0.5-2-1.5-3.8-3-5.2c-3.9-3.7-7.5-1.7-6.3,3.6c0.5,2,1.5,3.8,3,5.2
		C548.9,235.3,552.5,233.2,551.2,228z"/>
	<polygon class="st1" points="473.5,265 473.6,274.1 477.7,279.4 481.3,281.5 484.2,279.9 484.1,267.9 492.8,256.1 497.9,257.1 
		497.9,267.8 501.5,269.9 504.4,268.2 508.5,258.1 508.5,249 504.8,246.9 496.1,242.7 499.4,221.5 486.9,217 488.5,244 485.1,245.9 
			"/>
	<path class="st0" d="M496.3,228c-0.4-1.5-1.1-2.9-2.3-3.9c-3-2.8-5.7-1.3-4.7,2.7c0.4,1.5,1.2,2.9,2.3,3.9
		C494.5,233.4,497.2,231.9,496.3,228z"/>
</g>
<g>
	<g>
		<polygon class="st12" points="412,519.2 394.6,528.8 410,537.7 427.4,528.1 		"/>
		<g>
			<polygon class="st4" points="414.9,550.3 414,551.2 431.4,541.6 432.3,540.7 432.8,539.4 433,537.8 432.8,536 432.3,534.1 
				431.4,532.2 430.2,530.6 428.9,529.1 427.4,528.1 410,537.7 411.5,538.7 412.8,540.1 414,541.8 414.9,543.7 415.4,545.6 
				415.6,547.4 415.4,549 			"/>
			<polygon class="st12" points="394.6,528.8 412,519.2 410.5,518.6 409.2,518.6 408,519 390.6,528.5 391.8,528.1 393.1,528.2 			
				"/>
		</g>
		<path class="st3" d="M390.6,537.9l1.2,1.7l1.4,1.4l1.5,1l15.4,8.9l1.5,0.6l1.4,0.1l1.2-0.4l0.9-0.9l0.6-1.3l0.2-1.6l-0.2-1.8
			l-0.6-1.9l-0.9-1.9l-1.2-1.7l-1.4-1.4l-1.5-1l-15.4-8.9l-1.5-0.6l-1.4-0.1l-1.2,0.4l-0.9,0.9l-0.6,1.3l-0.2,1.6l0.2,1.8l0.6,1.9
			L390.6,537.9z M407,542.8l0.3-0.6l0.4-0.4l0.6-0.2l0.7,0l0.7,0.3l0.7,0.5l0.7,0.7l0.6,0.8l0.4,0.9l0.3,1l0.1,0.9l-0.1,0.8
			l-0.3,0.6l-0.4,0.4l-0.6,0.2l-0.7,0l-0.7-0.3l-0.7-0.5l-0.7-0.7l-0.6-0.8l-0.4-0.9l-0.3-1l-0.1-0.9L407,542.8z M391.3,532.9
			l0.3-0.7l0.5-0.5l0.6-0.2l0.7,0.1l0.8,0.3l0.8,0.6l0.7,0.8l0.6,0.9l0.5,1l0.3,1l0.1,1l-0.1,0.9l-0.3,0.7l-0.5,0.5l-0.6,0.2
			l-0.7-0.1l-0.8-0.3l-0.8-0.6l-0.7-0.8l-0.6-0.9l-0.5-1l-0.3-1l-0.1-1L391.3,532.9z"/>
		<polygon points="407.7,546.4 408.3,547.2 409,547.9 409.7,548.4 410.4,548.7 411.1,548.7 411.7,548.5 412.1,548.1 412.4,547.5 
			412.5,546.6 412.4,545.7 412.1,544.8 411.7,543.9 411.1,543 410.4,542.3 409.7,541.8 409,541.5 408.3,541.5 407.7,541.7 
			407.3,542.1 407,542.8 406.9,543.6 407,544.5 407.3,545.4 		"/>
		<polygon points="392.1,536.9 392.7,537.8 393.5,538.6 394.3,539.2 395.1,539.5 395.8,539.6 396.5,539.3 397,538.9 397.3,538.2 
			397.4,537.3 397.3,536.3 397,535.3 396.5,534.2 395.9,533.3 395.2,532.5 394.4,531.9 393.6,531.6 392.8,531.5 392.2,531.8 
			391.7,532.2 391.3,532.9 391.2,533.8 391.3,534.8 391.6,535.8 		"/>
	</g>
	<g>
		<path d="M407.7,536.9c2.8,1.6,6.3,1.6,9.2,0l21.1-12.2c2.6-1.5,4.2-4.3,4.2-7.4v-23.8c0-2.8-1.5-5.4-4-6.8l-18.8-10.8
			c-4.5-2.6-10-2.6-14.4,0l-17.2,9.9c-3.4,2-5.5,5.6-5.5,9.6v20.1c0,4.2,2.2,8,5.8,10.1L407.7,536.9z"/>
		<path class="st8" d="M403.2,527.6l2.2,1.3c4.3,2.5,9.6,2.5,13.8,0l21.3-12.4v-22.1l-21.3,12.4c-4.3,2.5-9.6,2.5-13.8,0l-5.1-3
			c-2.7-1.6-6.1,0.4-6.1,3.5v4.7c0,3.1,0.8,6.2,2.4,9C398.2,523.8,400.5,526,403.2,527.6z"/>
	</g>
	<path d="M424.5,492.9l5.7-44.4l4.5-2.6c2.1-1.2,3.4-3.8,3.4-7.5c0-1.5-0.2-3.1-0.6-4.6l27.5-15.7c0.5,0.7,1,1.3,1.5,2l-0.1,0.1
		l2,20.1l-10,4.9l-3.4,2l0,8.6l3.9,9.6l2.7,1.6l3.4-2l0-10.2l4.8-0.9L478,465l0,11.5l2.7,1.6l3.4-2l4-5.1l0-8.6l-11-18.2l-2-1.2
		l1.6-19.7l2.5-1.4c1.5-0.8,2.4-2.6,2.4-5.2c0-5.1-3.6-11.4-8.1-14c-2.3-1.3-4.3-1.4-5.8-0.6l-3.4,2c0,0,0,0,0,0
		c-1.5,0.8-2.4,2.6-2.4,5.2c0,1,0.1,2,0.4,3.1l-31.1,10.1c-1.5-1.6-3.1-3-4.8-4c-3.2-1.9-6.2-2-8.3-0.8l-4.9,2.8c0,0,0,0,0,0
		c-2.1,1.2-3.4,3.8-3.4,7.4c0,5,2.3,10.7,5.8,15l-13.4,45.1L424.5,492.9z M478.1,418.5c0,0.3,0,0.6,0,0.9
		C478.1,419.2,478.1,418.9,478.1,418.5z M478.1,419.7c0,0.2,0,0.4-0.1,0.6C478,420.1,478,419.9,478.1,419.7z M477.9,420.6
		c0,0.2-0.1,0.3-0.1,0.5C477.8,420.9,477.9,420.8,477.9,420.6z M477.7,421.4c-0.1,0.1-0.1,0.3-0.2,0.4
		C477.6,421.7,477.6,421.5,477.7,421.4z M477.3,422.1c-0.1,0.1-0.1,0.2-0.2,0.3C477.2,422.3,477.3,422.2,477.3,422.1z M477,422.6
		c-0.1,0.1-0.1,0.2-0.2,0.3C476.8,422.8,476.9,422.7,477,422.6z M469.2,404.1c-0.1,0-0.2-0.1-0.2-0.1
		C469.1,404,469.1,404.1,469.2,404.1z M468.4,403.8c-0.1,0-0.2-0.1-0.3-0.1C468.2,403.7,468.3,403.7,468.4,403.8z M467.6,403.6
		c-0.1,0-0.2,0-0.3,0C467.4,403.5,467.5,403.5,467.6,403.6z M466.9,403.4c-0.1,0-0.2,0-0.3,0C466.7,403.4,466.8,403.4,466.9,403.4z
		 M466.2,403.4c-0.1,0-0.2,0-0.3,0C466,403.4,466.1,403.4,466.2,403.4z M465.5,403.5c-0.1,0-0.2,0.1-0.3,0.1
		C465.3,403.6,465.4,403.5,465.5,403.5z M464.9,403.7c-0.1,0-0.2,0.1-0.3,0.1C464.7,403.8,464.8,403.7,464.9,403.7z M433.1,441.2
		c0,0.5,0,0.9-0.1,1.3C433.1,442.1,433.1,441.7,433.1,441.2z M433,442.9c0,0.3-0.1,0.6-0.1,0.8C432.9,443.5,433,443.2,433,442.9z
		 M432.8,444.2c-0.1,0.2-0.1,0.5-0.2,0.7C432.7,444.6,432.7,444.4,432.8,444.2z M432.4,445.3c-0.1,0.2-0.1,0.4-0.2,0.6
		C432.3,445.7,432.3,445.5,432.4,445.3z M432,446.2c-0.1,0.2-0.2,0.3-0.3,0.5C431.8,446.6,431.9,446.4,432,446.2z M431.4,447.1
		c-0.1,0.1-0.2,0.3-0.3,0.4C431.2,447.4,431.3,447.2,431.4,447.1z M430.8,447.8c-0.1,0.1-0.2,0.2-0.4,0.3
		C430.6,448,430.7,447.9,430.8,447.8z M420.4,420.5c-0.1-0.1-0.3-0.1-0.4-0.2C420.1,420.4,420.2,420.5,420.4,420.5z M419.2,420.1
		c-0.2-0.1-0.3-0.1-0.5-0.1C418.9,420,419,420,419.2,420.1z M418.1,419.8c-0.2,0-0.3,0-0.5-0.1C417.8,419.7,417.9,419.7,418.1,419.8
		z M417,419.6c-0.2,0-0.3,0-0.5,0C416.7,419.6,416.9,419.6,417,419.6z M413.8,420.1c0.1-0.1,0.3-0.1,0.4-0.2
		C414,420,413.9,420.1,413.8,420.1z M414.6,419.8c0.1,0,0.3-0.1,0.4-0.1C414.9,419.7,414.8,419.8,414.6,419.8z M415.6,419.6
		c0.1,0,0.3,0,0.4-0.1C415.8,419.6,415.7,419.6,415.6,419.6z"/>
	<path class="st4" d="M473.3,415.7c0-2.1-1.4-4.6-3.2-5.6c-1.8-1-3.3-0.2-3.3,1.9c0,2.1,1.5,4.6,3.2,5.6
		C471.8,418.6,473.3,417.8,473.3,415.7z"/>
	<path class="st4" d="M425.9,435.3c-0.4-1.9-1.5-3.6-2.9-5c-3.7-3.5-7.2-1.6-6,3.4c0.4,1.9,1.5,3.6,2.9,5
		C423.7,442.2,427.1,440.3,425.9,435.3z"/>
</g>
</svg>
