<?xml version="1.0" encoding="utf-8"?>
<!-- Generator: Adobe Illustrator 21.1.0, SVG Export Plug-In . SVG Version: 6.00 Build 0)  -->
<svg version="1.1" id="Слой_1" xmlns="http://www.w3.org/2000/svg" xmlns:xlink="http://www.w3.org/1999/xlink" x="0px" y="0px"
	 viewBox="0 0 900 712" style="enable-background:new 0 0 900 712;" xml:space="preserve">
<style type="text/css">
	.st0{fill:#FFDE00;}
	.st1{fill:#923CFF;}
	.st2{fill:#F1A901;}
	.st3{fill:#FFFFFF;}
	.st4{fill:#DA44D0;}
	.st5{fill:#B37FFF;}
	.st6{opacity:0.2;fill:#ABAAAF;}
	.st7{enable-background:new    ;}
	.st8{clip-path:url(#SVGID_4_);}
	.st9{clip-path:url(#SVGID_6_);}
	.st10{clip-path:url(#SVGID_8_);}
	.st11{fill:#B61BB6;}
	.st12{fill:#DEE3F3;}
	.st13{fill:#EBEDF7;}
	.st14{fill:#E7EAF6;}
</style>
<rect x="98" y="98" class="st0" width="700" height="512"/>
<path id="cloud_3_" class="st1" d="M784.7,339.9c7.1-85.4-40.6-141.3-99.1-147c-9.1-50.9-33.1-100.4-72.2-123
	c-57.1-32.9-123-17.6-133.2,47.3c-0.2,1.5,0,3,0,4.5c0,0-0.1,0-0.1,0c-43.7-25.2-79.7-3.7-80.5,48.1c-0.8,51.8,34,114.2,77.7,139.5
	l290,166.6c36.5,21.1,71.5,0.8,77-37.2C849.4,403.7,831.8,356.6,784.7,339.9z"/>
<path id="cloud_1_" class="st2" d="M56.7,396.2c12.2-41.8,46.2-75.4,89.2-81.3c10.6-52.5,47.7-107.9,91.6-132.6
	c46.1-26,84-9.3,91.2,36.8c0.2-0.1,0.3-0.2,0.4-0.3c32.6-18.4,58.7-3,58.5,34.3c25.2-6.1,43.5,10.2,43.2,41.9
	c-0.4,38.2-27.7,84.4-61,103.1L182.7,503.6C138.5,536.8,21.6,516,56.7,396.2z"/>
<g>
	<g>
		<polygon class="st3" points="461.3,205.3 494.6,415.3 249.3,556.9 216,346.9 		"/>
		<path d="M494.9,415.8c0.2-0.1,0.4-0.4,0.3-0.7l-33.3-210c0-0.2-0.2-0.4-0.4-0.5c-0.2-0.1-0.4-0.1-0.6,0L215.7,346.3
			c-0.2,0.1-0.4,0.4-0.3,0.7l33.3,210c0,0.2,0.2,0.4,0.4,0.5c0.1,0,0.2,0.1,0.3,0.1c0.1,0,0.2,0,0.3-0.1L494.9,415.8z M493.9,414.9
			l-244,140.9l-33.1-208.5l244-140.9L493.9,414.9z"/>
	</g>
	<polygon points="240.4,564.2 240.6,565.3 241.2,566.6 241.9,567.7 242.1,568 241.1,568.5 241.1,568.5 240,568.1 239,567.4 
		238.1,566.4 237.4,565.3 236.8,564 236.5,562.9 236.2,560.9 202.9,351 202.7,349.4 202.7,347.8 202.9,346.1 203.2,344.4 
		203.7,342.8 204.3,341.2 205.1,339.7 205.9,338.3 206.9,337 208,335.8 209.1,334.8 210.3,334 457.2,191.5 458.1,191.1 459.4,190.8 
		460.7,190.8 461.8,191 465.7,192.3 463.3,192.1 462,192.4 461.1,192.8 214.2,335.3 213,336.1 211.8,337.1 210.8,338.3 209.8,339.6 
		208.9,341 208.2,342.5 207.5,344.1 207.1,345.8 206.7,347.4 206.6,349.1 206.6,350.7 206.7,352.3 	"/>
	<polygon points="503.3,416.3 502.9,417.4 502.9,417.7 242.3,568.1 242.1,568 241.9,567.7 241.2,566.6 240.6,565.3 240.4,564.2 
		206.7,352.3 206.6,350.7 206.6,349.1 206.7,347.4 207.1,345.8 207.5,344.1 208.2,342.5 208.9,341 209.8,339.6 210.8,338.3 
		211.8,337.1 213,336.1 214.2,335.3 461.1,192.8 462,192.4 463.3,192.1 463.9,192.1 464.5,192.1 465.7,192.3 466.8,192.8 
		467.8,193.5 468.7,194.4 469.4,195.6 470,196.9 470.3,197.9 503.9,409.9 503.9,411.5 503.9,413.1 503.6,414.7 	"/>
	<polygon class="st4" points="461.3,205.3 493.8,410.9 248.6,552.5 216,346.9 	"/>
	<path d="M419,673.2l0.6-0.5l0.5-0.6L240.9,568.6v2l0.7,1.7l0.8,1.7l0.9,1.6l1,1.6l1,1.5l1.1,1.5l1.2,1.4l1.2,1.3l1.3,1.2l1.3,1.1
		l1.3,1l1.3,0.8l112.6,65l44.7,21.3l0.9,0.4l0.9,0.3l0.9,0.2l0.8,0.1l0.8,0l0.8-0.1l0.7-0.2l0.7-0.2l0.7-0.3L419,673.2z"/>
	<path class="st1" d="M420.1,672.1l263.8-152.3L504.7,416.3l-1.8,1l-0.1,0.3L242.3,568.1l-0.1-0.2l-1,0.6l-0.2,0.1L420.1,672.1z"/>
	<g>
		<defs>
			<polygon id="SVGID_1_" points="250.7,556.9 217.4,346.9 462.7,205.3 496,415.3 			"/>
		</defs>
		<clipPath id="SVGID_2_">
			<use xlink:href="#SVGID_1_"  style="overflow:visible;"/>
		</clipPath>
	</g>
	<path class="st5" d="M558.6,559.8l-41.1-24c-0.8-0.5-1.8-0.5-2.7,0l-61.9,35.7c-1,0.6-1.4,1.6-1.3,2.6c-0.1,1,0.3,2.1,1.3,2.6
		l41.1,23.6c0.8,0.5,1.8,0.5,2.6,0l62-35.3c1-0.6,1.4-1.6,1.3-2.6C560,561.5,559.6,560.4,558.6,559.8z"/>
	<g>
		<path d="M381.5,602.3l-12.7-6.9c-0.3-0.2-0.6-0.1-0.9,0l-12.2,7.3c-0.4,0.3-0.5,0.8-0.3,1.1c0,0.3,0.1,0.7,0.4,0.8l11.9,6.9
			c0.3,0.2,0.6,0.2,0.9,0l12.9-7.3c0.4-0.2,0.5-0.8,0.4-1.2C381.9,602.8,381.8,602.5,381.5,602.3z"/>
		<path d="M399.1,592.2l-12.7-6.9c-0.3-0.2-0.6-0.1-0.9,0l-12.2,7.3c-0.4,0.3-0.5,0.8-0.3,1.1c0,0.3,0.1,0.7,0.4,0.8l11.9,6.9
			c0.3,0.2,0.6,0.2,0.9,0l12.9-7.3c0.4-0.2,0.5-0.8,0.4-1.2C399.6,592.8,399.4,592.4,399.1,592.2z"/>
		<path d="M366.6,578.7l11.9,6.9c0.3,0.2,0.6,0.2,0.9,0l12.9-7.3c0.4-0.2,0.5-0.8,0.4-1.2c0-0.3-0.1-0.7-0.5-0.9l-12.7-6.9
			c-0.3-0.2-0.6-0.1-0.9,0l-12.2,7.3c-0.4,0.3-0.5,0.8-0.3,1.1C366.1,578.1,366.2,578.5,366.6,578.7z"/>
		<path d="M398.4,573.9l12.9-7.3c0.4-0.2,0.5-0.8,0.4-1.2c0-0.3-0.1-0.7-0.5-0.9l-12.7-6.9c-0.3-0.2-0.6-0.1-0.9,0l-12.2,7.3
			c-0.4,0.3-0.5,0.8-0.3,1.1c0,0.3,0.1,0.7,0.4,0.8l11.9,6.9C397.8,574,398.2,574,398.4,573.9z"/>
		<path d="M416.8,563l12.9-7.3c0.4-0.2,0.5-0.8,0.4-1.2c0-0.3-0.1-0.7-0.5-0.9l-12.7-6.9c-0.3-0.2-0.6-0.1-0.9,0l-12.2,7.3
			c-0.4,0.3-0.5,0.8-0.3,1.1c0,0.3,0.1,0.7,0.4,0.8l11.9,6.9C416.2,563.2,416.5,563.2,416.8,563z"/>
		<path d="M436.4,552.4l12.9-7.3c0.4-0.2,0.5-0.8,0.4-1.2c0-0.3-0.1-0.7-0.5-0.9l-12.7-6.9c-0.3-0.2-0.6-0.1-0.9,0l-12.2,7.3
			c-0.4,0.3-0.5,0.8-0.3,1.1c0,0.3,0.1,0.7,0.4,0.8l11.9,6.9C435.8,552.5,436.1,552.5,436.4,552.4z"/>
		<path d="M352.6,565.9l11.9,6.9c0.3,0.2,0.6,0.2,0.9,0l12.9-7.3c0.4-0.2,0.5-0.8,0.4-1.2c0-0.3-0.1-0.7-0.5-0.9l-12.7-6.9
			c-0.3-0.2-0.6-0.1-0.9,0l-12.2,7.3c-0.4,0.3-0.5,0.8-0.3,1.1C352.2,565.4,352.3,565.7,352.6,565.9z"/>
		<path d="M371.7,554.2l11.9,6.9c0.3,0.2,0.6,0.2,0.9,0l12.9-7.3c0.4-0.2,0.5-0.8,0.4-1.2c0-0.3-0.1-0.7-0.5-0.9l-12.7-6.9
			c-0.3-0.2-0.6-0.1-0.9,0l-12.2,7.3c-0.4,0.3-0.5,0.8-0.3,1.1C371.2,553.7,371.4,554,371.7,554.2z"/>
		<path d="M402.8,550.2l12.9-7.3c0.4-0.2,0.5-0.8,0.4-1.2c0-0.3-0.1-0.7-0.5-0.9l-12.7-6.9c-0.3-0.2-0.6-0.1-0.9,0l-12.2,7.3
			c-0.4,0.3-0.5,0.8-0.3,1.1c0,0.3,0.1,0.7,0.4,0.8l11.9,6.9C402.2,550.4,402.6,550.4,402.8,550.2z"/>
		<path d="M422.4,539.6l12.9-7.3c0.4-0.2,0.5-0.8,0.4-1.2c0-0.3-0.1-0.7-0.5-0.9l-12.7-6.9c-0.3-0.2-0.6-0.1-0.9,0l-12.2,7.3
			c-0.4,0.3-0.5,0.8-0.3,1.1c0,0.3,0.1,0.7,0.4,0.8l11.9,6.9C421.8,539.8,422.2,539.8,422.4,539.6z"/>
		<path d="M441,528.2l12.9-7.3c0.4-0.2,0.5-0.8,0.4-1.2c0-0.3-0.1-0.7-0.5-0.9l-12.7-6.9c-0.3-0.2-0.6-0.1-0.9,0l-12.2,7.3
			c-0.4,0.3-0.5,0.8-0.3,1.1c0,0.3,0.1,0.7,0.4,0.8l11.9,6.9C440.4,528.4,440.8,528.4,441,528.2z"/>
		<path d="M460.1,516.6l12.9-7.3c0.4-0.2,0.5-0.8,0.4-1.2c0-0.3-0.1-0.7-0.5-0.9l-12.7-6.9c-0.3-0.2-0.6-0.1-0.9,0l-12.2,7.3
			c-0.4,0.3-0.5,0.8-0.3,1.1c0,0.3,0.1,0.7,0.4,0.8l11.9,6.9C459.5,516.7,459.8,516.7,460.1,516.6z"/>
		<path d="M478.4,505.7l12.9-7.3c0.4-0.2,0.5-0.8,0.4-1.2c0-0.3-0.1-0.7-0.5-0.9l-12.7-6.9c-0.3-0.2-0.6-0.1-0.9,0l-12.2,7.3
			c-0.4,0.3-0.5,0.8-0.3,1.1c0,0.3,0.1,0.7,0.4,0.8l11.9,6.9C477.8,505.9,478.1,505.9,478.4,505.7z"/>
		<path d="M472.8,471.9l-12.2,7.3c-0.4,0.3-0.5,0.8-0.3,1.1c0,0.3,0.1,0.7,0.4,0.8l11.9,6.9c0.3,0.2,0.6,0.2,0.9,0l12.9-7.3
			c0.4-0.2,0.5-0.8,0.4-1.2c0-0.3-0.1-0.7-0.5-0.9l-12.7-6.9C473.4,471.7,473,471.7,472.8,471.9z"/>
		<path d="M503.9,467l-12.7-6.9c-0.3-0.2-0.6-0.1-0.9,0l-12.2,7.3c-0.4,0.3-0.5,0.8-0.3,1.1c0,0.3,0.1,0.7,0.4,0.8l11.9,6.9
			c0.3,0.2,0.6,0.2,0.9,0l12.9-7.3c0.4-0.2,0.5-0.8,0.4-1.2C504.4,467.6,504.3,467.2,503.9,467z"/>
		<path d="M444.5,469.1l11.9,6.9c0.3,0.2,0.6,0.2,0.9,0l12.9-7.3c0.4-0.2,0.5-0.8,0.4-1.2c0-0.3-0.1-0.7-0.5-0.9l-12.7-6.9
			c-0.3-0.2-0.6-0.1-0.9,0l-12.2,7.3c-0.4,0.3-0.5,0.8-0.3,1.1C444,468.6,444.2,468.9,444.5,469.1z"/>
		<path d="M462.8,459.1l11.9,6.9c0.3,0.2,0.6,0.2,0.9,0l12.9-7.3c0.4-0.2,0.5-0.8,0.4-1.2c0-0.3-0.1-0.7-0.5-0.9l-12.7-6.9
			c-0.3-0.2-0.6-0.1-0.9,0l-12.2,7.3c-0.4,0.3-0.5,0.8-0.3,1.1C462.3,458.6,462.5,459,462.8,459.1z"/>
		<path d="M327.8,560.1l11.9,6.9c0.3,0.2,0.6,0.2,0.9,0l12.9-7.3c0.4-0.2,0.5-0.8,0.4-1.2c0-0.3-0.1-0.7-0.5-0.9l-12.7-6.9
			c-0.3-0.2-0.6-0.1-0.9,0l-12.2,7.3c-0.4,0.3-0.5,0.8-0.3,1.1C327.3,559.6,327.5,559.9,327.8,560.1z"/>
		<path d="M358.9,539.2l-12.2,7.3c-0.4,0.3-0.5,0.8-0.3,1.1c0,0.3,0.1,0.7,0.4,0.8l11.9,6.9c0.3,0.2,0.6,0.2,0.9,0l12.9-7.3
			c0.4-0.2,0.5-0.8,0.4-1.2c0-0.3-0.1-0.7-0.5-0.9l-12.7-6.9C359.5,539,359.2,539,358.9,539.2z"/>
		<path d="M377.3,528.3l-12.2,7.3c-0.4,0.3-0.5,0.8-0.3,1.1c0,0.3,0.1,0.7,0.4,0.8l11.9,6.9c0.3,0.2,0.6,0.2,0.9,0l12.9-7.3
			c0.4-0.2,0.5-0.8,0.4-1.2c0-0.3-0.1-0.7-0.5-0.9l-12.7-6.9C377.9,528.1,377.5,528.1,377.3,528.3z"/>
		<path d="M396.9,517.7l-12.2,7.3c-0.4,0.3-0.5,0.8-0.3,1.1c0,0.3,0.1,0.7,0.4,0.8l11.9,6.9c0.3,0.2,0.6,0.2,0.9,0l12.9-7.3
			c0.4-0.2,0.5-0.8,0.4-1.2c0-0.3-0.1-0.7-0.5-0.9l-12.7-6.9C397.5,517.5,397.1,517.5,396.9,517.7z"/>
		<path d="M415.5,506.3l-12.2,7.3c-0.4,0.3-0.5,0.8-0.3,1.1c0,0.3,0.1,0.7,0.4,0.8l11.9,6.9c0.3,0.2,0.6,0.2,0.9,0l12.9-7.3
			c0.4-0.2,0.5-0.8,0.4-1.2c0-0.3-0.1-0.7-0.5-0.9l-12.7-6.9C416.1,506.1,415.7,506.1,415.5,506.3z"/>
		<path d="M434.5,494.6l-12.2,7.3c-0.4,0.3-0.5,0.8-0.3,1.1c0,0.3,0.1,0.7,0.4,0.8l11.9,6.9c0.3,0.2,0.6,0.2,0.9,0l12.9-7.3
			c0.4-0.2,0.5-0.8,0.4-1.2c0-0.3-0.1-0.7-0.5-0.9l-12.7-6.9C435.1,494.5,434.8,494.5,434.5,494.6z"/>
		<path d="M452.9,483.8l-12.2,7.3c-0.4,0.3-0.5,0.8-0.3,1.1c0,0.3,0.1,0.7,0.4,0.8l11.9,6.9c0.3,0.2,0.6,0.2,0.9,0l12.9-7.3
			c0.4-0.2,0.5-0.8,0.4-1.2c0-0.3-0.1-0.7-0.5-0.9l-12.7-6.9C453.5,483.6,453.1,483.6,452.9,483.8z"/>
		<path d="M310.2,548.5l11.9,6.9c0.3,0.2,0.6,0.2,0.9,0l12.9-7.3c0.4-0.2,0.5-0.8,0.4-1.2c0-0.3-0.1-0.7-0.5-0.9l-12.7-6.9
			c-0.3-0.2-0.6-0.1-0.9,0l-12.2,7.3c-0.4,0.3-0.5,0.8-0.3,1.1C309.8,547.9,309.9,548.3,310.2,548.5z"/>
		<path d="M329.3,536.8l11.9,6.9c0.3,0.2,0.6,0.2,0.9,0l12.9-7.3c0.4-0.2,0.5-0.8,0.4-1.2c0-0.3-0.1-0.7-0.5-0.9l-12.7-6.9
			c-0.3-0.2-0.6-0.1-0.9,0l-12.2,7.3c-0.4,0.3-0.5,0.8-0.3,1.1C328.8,536.3,329,536.6,329.3,536.8z"/>
		<path d="M347.6,525.9l11.9,6.9c0.3,0.2,0.6,0.2,0.9,0l12.9-7.3c0.4-0.2,0.5-0.8,0.4-1.2c0-0.3-0.1-0.7-0.5-0.9l-12.7-6.9
			c-0.3-0.2-0.6-0.1-0.9,0l-12.2,7.3c-0.4,0.3-0.5,0.8-0.3,1.1C347.2,525.4,347.3,525.8,347.6,525.9z"/>
		<path d="M367.2,515.3l11.9,6.9c0.3,0.2,0.6,0.2,0.9,0l12.9-7.3c0.4-0.2,0.5-0.8,0.4-1.2c0-0.3-0.1-0.7-0.5-0.9l-12.7-6.9
			c-0.3-0.2-0.6-0.1-0.9,0l-12.2,7.3c-0.4,0.3-0.5,0.8-0.3,1.1C366.8,514.8,366.9,515.1,367.2,515.3z"/>
		<path d="M385.8,503.9l11.9,6.9c0.3,0.2,0.6,0.2,0.9,0l12.9-7.3c0.4-0.2,0.5-0.8,0.4-1.2c0-0.3-0.1-0.7-0.5-0.9l-12.7-6.9
			c-0.3-0.2-0.6-0.1-0.9,0l-12.2,7.3c-0.4,0.3-0.5,0.8-0.3,1.1C385.4,503.4,385.5,503.7,385.8,503.9z"/>
		<path d="M404.9,492.3l11.9,6.9c0.3,0.2,0.6,0.2,0.9,0l12.9-7.3c0.4-0.2,0.5-0.8,0.4-1.2c0-0.3-0.1-0.7-0.5-0.9l-12.7-6.9
			c-0.3-0.2-0.6-0.1-0.9,0l-12.2,7.3c-0.4,0.3-0.5,0.8-0.3,1.1C404.4,491.8,404.6,492.1,404.9,492.3z"/>
		<path d="M424.5,481.2l11.9,6.9c0.3,0.2,0.6,0.2,0.9,0l12.9-7.3c0.4-0.2,0.5-0.8,0.4-1.2c0-0.3-0.1-0.7-0.5-0.9l-12.7-6.9
			c-0.3-0.2-0.6-0.1-0.9,0l-12.2,7.3c-0.4,0.3-0.5,0.8-0.3,1.1C424.1,480.7,424.2,481,424.5,481.2z"/>
		<path d="M510.9,485.8l-12.7-6.9c-0.3-0.2-0.6-0.1-0.9,0l-12.2,7.3c-0.4,0.3-0.5,0.8-0.3,1.1c0,0.3,0.1,0.7,0.4,0.8l11.9,6.9
			c0.3,0.2,0.6,0.2,0.9,0l12.9-7.3c0.4-0.2,0.5-0.8,0.4-1.2C511.4,486.3,511.2,486,510.9,485.8z"/>
		<path d="M527.3,474.9l-12.7-6.9c-0.3-0.2-0.6-0.1-0.9,0l-12.2,7.3c-0.4,0.3-0.5,0.8-0.3,1.1c0,0.3,0.1,0.7,0.4,0.8l11.9,6.9
			c0.3,0.2,0.6,0.2,0.9,0l12.9-7.3c0.4-0.2,0.5-0.8,0.4-1.2C527.8,475.4,527.6,475.1,527.3,474.9z"/>
		<path d="M549.1,484.4l-12.7-6.9c-0.3-0.2-0.6-0.1-0.9,0l-12.2,7.3c-0.4,0.3-0.5,0.8-0.3,1.1c0,0.3,0.1,0.7,0.4,0.8l11.9,6.9
			c0.3,0.2,0.6,0.2,0.9,0l12.9-7.3c0.4-0.2,0.5-0.8,0.4-1.2C549.6,484.9,549.5,484.6,549.1,484.4z"/>
		<path d="M455.4,540.7l12.9-7.3c0.4-0.2,0.5-0.8,0.4-1.2c0-0.3-0.1-0.7-0.5-0.9l-12.7-6.9c-0.3-0.2-0.6-0.1-0.9,0l-12.2,7.3
			c-0.4,0.3-0.5,0.8-0.3,1.1c0,0.3,0.1,0.7,0.4,0.8l11.9,6.9C454.8,540.9,455.2,540.9,455.4,540.7z"/>
		<path d="M473.6,529.9l12.9-7.3c0.4-0.2,0.5-0.8,0.4-1.2c0-0.3-0.1-0.7-0.5-0.9l-12.7-6.9c-0.3-0.2-0.6-0.1-0.9,0l-12.2,7.3
			c-0.4,0.3-0.5,0.8-0.3,1.1c0,0.3,0.1,0.7,0.4,0.8l11.9,6.9C473,530,473.4,530,473.6,529.9z"/>
		<path d="M490.9,519.5l12.9-7.3c0.4-0.2,0.5-0.8,0.4-1.2c0-0.3-0.1-0.7-0.5-0.9l-12.7-6.9c-0.3-0.2-0.6-0.1-0.9,0l-12.2,7.3
			c-0.4,0.3-0.5,0.8-0.3,1.1c0,0.3,0.1,0.7,0.4,0.8l11.9,6.9C490.3,519.6,490.6,519.6,490.9,519.5z"/>
		<path d="M416.2,582.1l-12.7-6.9c-0.3-0.2-0.6-0.1-0.9,0l-12.2,7.3c-0.4,0.3-0.5,0.8-0.3,1.1c0,0.3,0.1,0.7,0.4,0.8l11.9,6.9
			c0.3,0.2,0.6,0.2,0.9,0l12.9-7.3c0.4-0.2,0.5-0.8,0.4-1.2C416.7,582.7,416.6,582.3,416.2,582.1z"/>
		<path d="M513.9,526.6l-12.7-6.9c-0.3-0.2-0.6-0.1-0.9,0l-12.2,7.3c-0.4,0.3-0.5,0.8-0.3,1.1c0,0.3,0.1,0.7,0.4,0.8l11.9,6.9
			c0.3,0.2,0.6,0.2,0.9,0l12.9-7.3c0.4-0.2,0.5-0.8,0.4-1.2C514.3,527.2,514.2,526.8,513.9,526.6z"/>
		<path d="M531.9,516.2l-12.7-6.9c-0.3-0.2-0.6-0.1-0.9,0l-12.2,7.3c-0.4,0.3-0.5,0.8-0.3,1.1c0,0.3,0.1,0.7,0.4,0.8l11.9,6.9
			c0.3,0.2,0.6,0.2,0.9,0l12.9-7.3c0.4-0.2,0.5-0.8,0.4-1.2C532.4,516.7,532.2,516.4,531.9,516.2z"/>
		<path d="M550.7,504.4l-12.7-6.9c-0.3-0.2-0.6-0.1-0.9,0l-12.2,7.3c-0.4,0.3-0.5,0.8-0.3,1.1c0,0.3,0.1,0.7,0.4,0.8l11.9,6.9
			c0.3,0.2,0.6,0.2,0.9,0l12.9-7.3c0.4-0.2,0.5-0.8,0.4-1.2C551.1,504.9,551,504.6,550.7,504.4z"/>
		<path d="M371.1,589.4c0.1-0.2,0.1-0.4-0.1-0.6l-12.8-7.1c-0.1-0.1-0.3-0.1-0.4,0l-20.2,11.4c-0.2,0.1-0.2,0.4-0.1,0.6
			c-0.1,0.2-0.1,0.4,0.1,0.6l12.7,7.3c0.1,0.1,0.3,0.1,0.4,0l20.3-11.6C371.2,589.8,371.3,589.6,371.1,589.4z"/>
		<path d="M335.9,569.3c0.1-0.2,0.1-0.4-0.1-0.6l-12.8-7.1c-0.1-0.1-0.3-0.1-0.4,0l-20.2,11.4c-0.2,0.1-0.2,0.4-0.1,0.6
			c-0.1,0.2-0.1,0.4,0.1,0.6l12.7,7.3c0.1,0.1,0.3,0.1,0.4,0l20.3-11.6C336,569.7,336,569.4,335.9,569.3z"/>
		<path d="M317.9,558.7c0.1-0.2,0.1-0.4-0.1-0.6L305,551c-0.1-0.1-0.3-0.1-0.4,0l-20.2,11.4c-0.2,0.1-0.2,0.4-0.1,0.6
			c-0.1,0.2-0.1,0.4,0.1,0.6l12.7,7.3c0.1,0.1,0.3,0.1,0.4,0l20.3-11.6C318,559.2,318,558.9,317.9,558.7z"/>
		<path d="M353,579.9l6.9-3.9c0.2-0.1,0.2-0.4,0.1-0.6c0.1-0.2,0.1-0.4-0.1-0.6l-12.8-7.1c-0.1-0.1-0.3-0.1-0.4,0l-20.2,11.4
			c0,0,0,0.1,0,0.1l-6.9,3.9c-0.2,0.1-0.2,0.4-0.1,0.6c-0.1,0.2-0.1,0.4,0.1,0.6l12.7,7.3c0.1,0.1,0.3,0.1,0.4,0L353,579.9
			C353,579.9,353,579.9,353,579.9z"/>
		<path d="M511.2,509.3l19.8-12.4c0.2-0.1,0.2-0.4,0.1-0.6c0.1-0.2,0.1-0.4-0.1-0.6l-13.1-6.6c-0.1-0.1-0.3-0.1-0.4,0l-19.7,12.2
			c-0.2,0.1-0.2,0.4-0.1,0.6c-0.1,0.2-0.1,0.4,0.1,0.6l13,6.8C511,509.3,511.1,509.3,511.2,509.3z"/>
		<path d="M479.6,448.2l12.7,7.3c0.1,0.1,0.3,0.1,0.4,0l20.3-11.6c0.2-0.1,0.2-0.4,0.1-0.6c0.1-0.2,0.1-0.4-0.1-0.6l-12.8-7.1
			c-0.1-0.1-0.3-0.1-0.4,0l-20.2,11.4c-0.2,0.1-0.2,0.4-0.1,0.6C479.3,447.8,479.4,448.1,479.6,448.2z"/>
		<path d="M496.3,458.8c-0.1,0.2-0.1,0.4,0.1,0.6l12.7,7.3c0.1,0.1,0.3,0.1,0.4,0l20.3-11.6c0.2-0.1,0.2-0.4,0.1-0.6
			c0.1-0.2,0.1-0.4-0.1-0.6l-12.8-7.1c-0.1-0.1-0.3-0.1-0.4,0l-20.2,11.4C496.2,458.3,496.1,458.6,496.3,458.8z"/>
		<path d="M494.2,537.7l-12.5-7.3l-71.9,40.8c-0.5,0.3-0.7,0.9-0.5,1.4c-0.2,0.5,0,1.1,0.5,1.4l10.7,6.1c1,0.6,2.2,0.6,3.3,0
			l70.4-40.3c0.4-0.2,0.5-0.7,0.3-1C494.7,538.4,494.6,537.9,494.2,537.7z"/>
		<path d="M559.3,470.7l-24.7-14c-0.3-0.2-0.7-0.2-1.1,0l-13.7,8c-0.5,0.3-0.6,0.8-0.5,1.3c-0.2,0.5,0,1,0.5,1.3l7.7,4.1
			c1.1,0.6,2.3,0.5,3.3-0.1l4.2-2.4c0.7-0.4,1.6-0.4,2.3,0l15,9.1c0.4,0.2,0.9,0.2,1.2-0.1l5.8-4.7c0.4-0.3,0.4-0.7,0.3-1.1
			C560,471.5,559.8,470.9,559.3,470.7z"/>
	</g>
</g>
<g id="lock_1_">
	<path id="XMLID_278_" class="st6" d="M430.7,310.8c1.4,2.8,1.7,6.1,1.7,9.1l-0.1,25.8l-41.5,23.2v-30.2c0,0,1.8-23.3,19.1-32.7
		c4.9-2.7,10.5-2.9,15.6-0.9C427.5,306.4,429.3,308.1,430.7,310.8z"/>
	<g id="XMLID_265_">
		<path id="XMLID_277_" class="st0" d="M372.3,393.6l79-45.6c3.3-1.9,7.4-1.9,10.8,0l12,6.9c7.2,4.1,7.2,14.5,0,18.6l-79,45.6
			c-3.3,1.9-7.4,1.9-10.8,0l-12-6.9C365.2,408.1,365.2,397.8,372.3,393.6z"/>
		<path id="XMLID_276_" class="st0" d="M485.9,376.4c0,0,3.1-15.6-14.7-22.6l-2.3-1.2l-2.4,10.8l2.3,15.5L485.9,376.4z"/>
		<path id="XMLID_275_" class="st0" d="M401.4,412.6c-1.1-0.6-14.5-5.1-15-4.6c-0.5,0.5-6.6,7.8-6.6,7.8l9.9,15.2l17-9.2
			L401.4,412.6z"/>
		<path id="XMLID_274_" class="st2" d="M404.1,519.7c0,0-12.5,10.7-23.7,1.8l8.9-7.8l2.3-2.3l3,2.5L404.1,519.7z"/>
		<path id="XMLID_273_" class="st0" d="M359.9,410.7c0,0-1.3-13.2,15.8-20l-1.2,13.1l0,3.3l-3.9,0.3L359.9,410.7z"/>
		<path id="XMLID_272_" class="st0" d="M473.8,369.4l-79,45.6c-2.5,1.4-4.1,4.1-4.1,7v91.3c0,6.2,6.8,10.1,12.2,7l79.1-45.7
			c2.5-1.4,4-4.1,4-7l0-91.3C485.9,370.2,479.2,366.3,473.8,369.4z"/>
		<path id="XMLID_271_" class="st2" d="M387.5,415.5l-18.1-10.4c-4.2-2.4-9.5,0.6-9.5,5.5V506c0,2.3,1.2,4.4,3.2,5.5l18.1,10.4
			c4.2,2.4,9.5-0.6,9.5-5.5v-95.4C390.7,418.8,389.5,416.7,387.5,415.5z"/>
		<path id="XMLID_270_" class="st0" d="M470.3,353.3L461,348c-3.2-1.9-7.2-1.9-10.4,0l-74.8,42.7c-7,4-10.2,12.3-3.2,16.3l12.9,7.4
			c3.2,1.9,7.2,1.9,10.5,0l74.3-42.9C477.2,367.4,477.2,357.4,470.3,353.3z"/>
		<path id="XMLID_269_" d="M430.5,438.3c1.8-6.8,8.1-14.6,13-15.6c6.1-1.3,8.9,0.6,8.8,10.5c0,3.4-2,7.2-4.5,10.3l3.6,20.1l-17,9.3
			l1.5-22.7C430.1,449.9,429.1,443.7,430.5,438.3z"/>
		<g id="XMLID_266_">
			<path id="XMLID_268_" class="st2" d="M386,349.7v51l5.8,3.8l9-5.2v-56.1c0,0,1.9-25.8,19.7-36.2c5.9-3.5,12.8-3.2,18.6,0.3
				c2.6,1.6,5,3.4,6.7,6.8c1.4,2.8,1.7,6.2,1.7,9.3l-0.1,44.4l3.3,2.4l9.5-6V325c0-13.7-7.8-26.6-20-31.3
				c-7.3-2.8-16.7-3.1-27.9,2.9C412.4,296.6,387.6,307,386,349.7L386,349.7z"/>
			<path id="XMLID_267_" class="st0" d="M391.8,348.4c1.5-39.3,25.4-48.9,25.4-48.9c10.8-5.5,19.8-5.3,26.9-2.6
				c11.9,4.4,19.3,16.2,19.3,28.8v36.8l-12.4,7.6l0.1-45.7c0-2.9-0.7-5.7-2-8.3c-1.6-3.2-3.6-5.2-6.1-6.6c-5.6-3.2-12.3-3.4-18-0.3
				c-17.2,9.6-19.1,33.4-19.1,33.4v53.7l-14.2,8.2L391.8,348.4L391.8,348.4z"/>
		</g>
	</g>
</g>
<g id="XMLID_280_">
	<g id="XMLID_286_">
		<path id="XMLID_289_" class="st3" d="M256.5,358.4L362.7,299c2.9-1.6,6.6,0.5,6.5,3.9l-0.7,51.7c0,3.3-1.9,6.3-4.8,8l-157.9,88.1
			c-2.9,1.6-6.6-0.5-6.5-3.9l0.8-51.6c0-3.3,1.9-6.3,4.7-8L256.5,358.4z"/>
	</g>
	<g id="XMLID_281_">
		<path id="XMLID_285_" class="st4" d="M247,408.5l-8-5l8.2-4.8c1.7-1,1.4-2.9-0.4-3.5l-2.3-0.7c-0.8-0.3-1.8-0.2-2.5,0.3l-6.2,3.6
			l0.1-9.7c0-1.9-1.4-3.1-2.6-2.2l-1.7,1.3c-0.6,0.4-0.9,1.3-0.9,2.1l-0.1,8.4l-6.1-3.8c-0.7-0.5-1.7-0.6-2.5-0.3l-2.3,0.7
			c-1.9,0.5-2.1,2.5-0.5,3.5l8,5l-8.2,4.8c-1.6,1-1.4,2.9,0.4,3.5l2.2,0.7c0.8,0.3,1.8,0.2,2.6-0.3l6.2-3.6l-0.1,9.5
			c0,1.9,1.4,3.1,2.6,2.2l1.7-1.3c0.6-0.4,0.9-1.3,0.9-2.1l0.1-8.2l6.1,3.8c0.7,0.5,1.7,0.6,2.6,0.3l2.2-0.7
			C248.4,411.4,248.6,409.5,247,408.5z"/>
		<path id="XMLID_284_" class="st4" d="M281.8,389.3l-8-5l8.2-4.8c1.7-1,1.4-2.9-0.4-3.5l-2.3-0.7c-0.8-0.3-1.8-0.2-2.5,0.3
			l-6.2,3.6l0.1-9.7c0-1.9-1.4-3.1-2.6-2.2l-1.7,1.3c-0.6,0.4-0.9,1.3-0.9,2.1l-0.1,8.4l-6.1-3.8c-0.7-0.5-1.7-0.6-2.5-0.3l-2.3,0.7
			c-1.9,0.5-2.1,2.5-0.5,3.5l8,5l-8.2,4.8c-1.6,1-1.4,2.9,0.4,3.5l2.2,0.7c0.8,0.3,1.8,0.2,2.6-0.3l6.2-3.6l-0.1,9.5
			c0,1.9,1.4,3.1,2.6,2.2l1.7-1.3c0.6-0.4,0.9-1.3,0.9-2.1l0.1-8.2l6.1,3.8c0.7,0.5,1.7,0.6,2.6,0.3l2.2-0.7
			C283.2,392.3,283.5,390.3,281.8,389.3z"/>
		<path id="XMLID_283_" class="st4" d="M316.3,370.2l-8-5l8.2-4.8c1.7-1,1.4-2.9-0.4-3.5l-2.3-0.7c-0.8-0.3-1.8-0.2-2.5,0.3
			l-6.2,3.6l0.1-9.7c0-1.9-1.4-3.1-2.6-2.2l-1.7,1.3c-0.6,0.4-0.9,1.3-0.9,2.1l-0.1,8.4l-6.1-3.8c-0.7-0.5-1.7-0.6-2.5-0.3l-2.3,0.7
			c-1.9,0.5-2.1,2.5-0.5,3.5l8,5l-8.2,4.8c-1.6,1-1.4,2.9,0.4,3.5l2.2,0.7c0.8,0.3,1.8,0.2,2.6-0.3l6.2-3.6l-0.1,9.5
			c0,1.9,1.4,3.1,2.6,2.2l1.7-1.3c0.6-0.4,0.9-1.3,0.9-2.1l0.1-8.2l6.1,3.8c0.7,0.5,1.7,0.6,2.6,0.3l2.2-0.7
			C317.7,373.1,317.9,371.2,316.3,370.2z"/>
		<path id="XMLID_282_" class="st4" d="M350.8,351l-8-5l8.2-4.8c1.7-1,1.4-2.9-0.4-3.5l-2.3-0.7c-0.8-0.3-1.8-0.2-2.5,0.3l-6.2,3.6
			l0.1-9.7c0-1.9-1.4-3.1-2.6-2.2l-1.7,1.3c-0.6,0.4-0.9,1.3-0.9,2.1l-0.1,8.4l-6.1-3.8c-0.7-0.5-1.7-0.6-2.5-0.3l-2.3,0.7
			c-1.9,0.5-2.1,2.5-0.5,3.5l8,5l-8.2,4.8c-1.6,1-1.4,2.9,0.4,3.5l2.2,0.7c0.8,0.3,1.8,0.2,2.6-0.3l6.2-3.6l-0.1,9.5
			c0,1.9,1.4,3.1,2.6,2.2l1.7-1.3c0.6-0.4,0.9-1.3,0.9-2.1l0.1-8.2l6.1,3.8c0.7,0.5,1.7,0.6,2.6,0.3l2.2-0.7
			C352.1,353.9,352.4,352,350.8,351z"/>
	</g>
</g>
<g>
	<g class="st7">
		<g class="st7">
			<defs>
				<path id="SVGID_3_" class="st7" d="M570.4,143.5l-5.2,2.9c-1.5,0.9-2.9,2.2-3.9,3.9l5.2-2.9
					C567.5,145.7,568.9,144.4,570.4,143.5z"/>
			</defs>
			<use xlink:href="#SVGID_3_"  style="overflow:visible;fill:#F1A901;"/>
			<clipPath id="SVGID_4_">
				<use xlink:href="#SVGID_3_"  style="overflow:visible;"/>
			</clipPath>
			<g class="st8">
				<path class="st2" d="M561.3,150.4l5.2-2.9c1-1.7,2.3-3,3.9-3.9l-5.2,2.9C563.7,147.3,562.3,148.6,561.3,150.4L561.3,150.4z"/>
			</g>
		</g>
		<g class="st7">
			<defs>
				<path id="SVGID_5_" class="st7" d="M579.5,171.9c1.7-1,3.5-2,5.2-2.9c-3.8,2.1-9,1.6-13.3-1.8c-3-2.4-5.1-5.9-6-9.4
					c-0.9-3.6-0.6-7.3,1.1-10.3l-5.2,2.9c-1.7,3-2,6.7-1.1,10.3c0.9,3.6,3,7,6,9.4C570.6,173.5,575.7,174.1,579.5,171.9z"/>
			</defs>
			<use xlink:href="#SVGID_5_"  style="overflow:visible;fill:#F1A901;"/>
			<clipPath id="SVGID_6_">
				<use xlink:href="#SVGID_5_"  style="overflow:visible;"/>
			</clipPath>
			<g class="st9">
				<path class="st2" d="M579.5,171.9l5.2-2.9c-3.8,2.1-9,1.6-13.3-1.8c-3-2.4-5.1-5.9-6-9.4c-0.9-3.6-0.6-7.3,1.1-10.3l-5.2,2.9
					c-1.7,3-2,6.7-1.1,10.3c0.9,3.6,3,7,6,9.4C570.6,173.5,575.7,174.1,579.5,171.9L579.5,171.9z"/>
			</g>
		</g>
		<g class="st7">
			<path class="st2" d="M578.7,133.6l5.2-2.9c-7.2-3.4-14.8-3.3-20.7,0l-5.2,2.9C563.9,130.3,571.5,130.2,578.7,133.6L578.7,133.6z"
				/>
		</g>
		<path class="st2" d="M563.2,130.7c-1.7,1-3.5,2-5.2,2.9c6-3.4,13.6-3.5,20.7,0l5.2-2.9C576.7,127.3,569.2,127.3,563.2,130.7z"/>
		<g class="st7">
			<defs>
				<path id="SVGID_7_" class="st7" d="M586.8,184.7c1.7-1,3.5-2,5.2-2.9c3.1-1.7,5.8-4.4,7.7-7.9c3.4-6,4-13.4,2.2-20.6
					c-1.2-4.9-3.6-9.7-6.9-13.8l-5.2,2.9c3.3,4.1,5.7,8.9,6.9,13.8c1.8,7.1,1.2,14.6-2.2,20.6C592.6,180.4,589.9,183,586.8,184.7z"
					/>
			</defs>
			<use xlink:href="#SVGID_7_"  style="overflow:visible;fill:#F1A901;"/>
			<clipPath id="SVGID_8_">
				<use xlink:href="#SVGID_7_"  style="overflow:visible;"/>
			</clipPath>
			<g class="st10">
				<path class="st2" d="M586.8,184.7l5.2-2.9c3.1-1.7,5.8-4.4,7.7-7.9c3.4-6,4-13.4,2.2-20.6c-1.2-4.9-3.6-9.7-6.9-13.8l-5.2,2.9
					c3.3,4.1,5.7,8.9,6.9,13.8c1.8,7.1,1.2,14.6-2.2,20.6C592.6,180.4,589.9,183,586.8,184.7L586.8,184.7z"/>
			</g>
		</g>
		<g>
			<polygon class="st2" points="589.8,142.5 595,139.6 625.2,85.9 620,88.8 			"/>
		</g>
		<g>
			<polygon class="st2" points="637.2,86.6 642.4,83.7 631.4,74.9 626.2,77.8 			"/>
		</g>
		<g>
			<polygon class="st2" points="631,97.6 636.2,94.7 642.4,83.7 637.2,86.6 			"/>
		</g>
		<g>
			<polygon class="st2" points="626.2,77.8 631.4,74.9 635.3,68 630.1,70.9 			"/>
		</g>
		<g>
			<polygon class="st2" points="648.5,85.7 653.7,82.7 659.9,71.7 654.7,74.7 			"/>
		</g>
		<g>
			<polygon class="st2" points="654.7,74.7 659.9,71.7 641.5,57 636.2,59.9 			"/>
		</g>
		<g>
			<polygon class="st2" points="644,46.1 649.2,43.2 638.1,34.3 632.8,37.3 			"/>
		</g>
		<g>
			<path class="st0" d="M644,46.1l-7.7,13.8l18.5,14.8l-6.2,11l-18.5-14.8l-3.9,6.9l11,8.8l-6.2,11l-11-8.8l-30.2,53.7
				c3.3,4.1,5.7,8.9,6.9,13.8c1.8,7.1,1.2,14.6-2.2,20.6c-6.8,12.1-22.2,13.9-34.4,4.2c-6.1-4.9-10.3-11.8-12-18.9
				c-1.8-7.2-1.2-14.6,2.2-20.6c5.7-10.2,17.6-13,28.5-7.9l54.2-96.3L644,46.1z M561.3,150.4c-1.7,3-2,6.7-1.1,10.3
				c0.9,3.6,3,7,6,9.4c6.1,4.9,13.8,3.9,17.1-2.1c1.7-3,2-6.7,1.1-10.3c-0.9-3.6-3-7-6-9.4C572.4,143.4,564.7,144.4,561.3,150.4
				L561.3,150.4z"/>
		</g>
		<g>
			<polygon class="st2" points="636.2,59.9 641.5,57 649.2,43.2 644,46.1 			"/>
		</g>
	</g>
</g>
<g>
	<g>
		<polygon class="st5" points="270,214.6 276.9,210.5 276.9,227.4 269.9,231.4 		"/>
	</g>
	<g>
		<polygon class="st5" points="270,192.6 277,188.6 277,197.1 270,201.1 		"/>
	</g>
	<g>
		<polygon class="st5" points="289.4,212.3 296.4,208.3 296.4,221.7 289.4,225.8 		"/>
	</g>
	<g>
		<polygon class="st5" points="270,201.1 277,197.1 296.4,208.3 289.4,212.3 		"/>
	</g>
	<g>
		<polygon class="st5" points="281.7,185.9 288.7,181.8 288.6,195.3 281.6,199.3 		"/>
	</g>
	<g>
		<polygon class="st5" points="270.1,179.2 277,175.1 288.7,181.8 281.7,185.9 		"/>
	</g>
	<polygon class="st5" points="270.3,113.4 277.2,109.4 277,175.1 270.1,179.2 	"/>
	<path class="st5" d="M271.4,93.4c-6.4-3.7-11.6-12.7-11.6-20c0-3.7,1.3-6.2,3.4-7.4l-7,4.1c-2.1,1.2-3.4,3.8-3.4,7.4
		c0,7.4,5.2,16.3,11.6,20c3.2,1.9,6.1,2,8.3,0.8l7-4.1C277.6,95.4,274.6,95.3,271.4,93.4z"/>
	<path class="st1" d="M270,201.1l19.4,11.2l0,13.5L270,214.6l0,16.9l-11.7-6.8l0.3-118c-10-8.8-17.4-23.5-17.4-36
		c0-14.8,10.5-20.8,23.4-13.3c12.9,7.4,23.3,25.5,23.2,40.2c0,12.4-7.5,18.6-17.5,15.8l-0.2,65.8l11.6,6.7l0,13.4l-11.6-6.7
		L270,201.1z M264.4,97.5c6.4,3.7,11.6,0.7,11.6-6.6c0-7.3-5.2-16.3-11.6-20c-6.4-3.7-11.6-0.7-11.7,6.6
		C252.8,84.8,258,93.8,264.4,97.5L264.4,97.5z"/>
	<path class="st5" d="M248,55.7l7-4.1c4.2-2.5,10.1-2.1,16.6,1.6c12.9,7.4,23.3,25.5,23.2,40.2c0,7.3-2.6,12.5-6.8,14.9l-7,4.1
		c4.2-2.4,6.8-7.6,6.8-14.9c0-14.8-10.4-32.8-23.2-40.2C258.1,53.6,252.2,53.3,248,55.7L248,55.7z"/>
</g>
<path id="cloud_4_" class="st3" d="M679.8,316c-21.9-12.6-40.9-8-50.2,9.4c-3.1-2.6-6.3-4.8-9.6-6.7c-19.3-11.2-35.8-6.5-42,9.8
	c-2.9-2.7-6-5.1-9.2-6.9c-16.9-9.7-30.5-1.8-30.5,17.6c0,19.5,13.7,43.1,30.5,52.9l110.9,64c31.1,17.9,56.2,1.1,56.2-37.6
	C736,379.9,710.8,333.9,679.8,316z"/>
<g id="XMLID_287_">
	<path id="XMLID_299_" class="st11" d="M699.9,541.1c-19.8,0-38.1,10.6-35.6,24.8c0.4,2.5,1.6,4.9,3.3,7.1l-47.5,27.6l-6.7,3.9
		l-18.9,11l16.1,9.3l6-3.5l15.7,9l5.9-3.4l2.5-1.5l-11.1-6.5l5.3-3l3.2,1.7l3-1.7l2.5-1.5l-5.7-3.4l2.2-1.2l13.3,7.7l3.4-2l2.3-1.4
		l-14.6-8.9l38.4-22.2c5,1.7,10.8,2.6,17.2,2.6c19.8,0,34.7-8.9,35.8-19.8C737.4,551.1,719.7,541.1,699.9,541.1z M721.4,562.6
		c-0.7,6.5-9.5,11.8-21.3,11.8c-11.8,0-20.2-5.4-21.3-11.8c-1.5-8.4,9.4-14.7,21.2-14.7S722.3,553.8,721.4,562.6z"/>
	<path id="XMLID_296_" class="st4" d="M699.9,536c-19.8,0-38.1,10.6-35.6,24.8c0.4,2.5,1.6,4.9,3.3,7.1l-47.5,27.6l-6.7,3.9
		l-18.9,11l16.1,9.3l6-3.5l15.7,9l5.9-3.4l2.5-1.5l-11.1-6.5l5.3-3l3.2,1.7l3-1.7l2.5-1.5l-5.7-3.4l2.2-1.2l13.3,7.7l3.4-2l2.3-1.4
		l-14.6-8.9l38.4-22.2c5,1.7,10.8,2.6,17.2,2.6c19.8,0,34.7-8.9,35.8-19.8C737.4,546,719.7,536,699.9,536z M721.4,557.4
		c-0.7,6.5-9.5,11.8-21.3,11.8c-11.8,0-20.2-5.4-21.3-11.8c-1.5-8.4,9.4-14.7,21.2-14.7S722.3,548.7,721.4,557.4z"/>
	<polygon id="XMLID_295_" class="st11" points="594.5,610.3 594.5,615.4 610.7,624.7 610.7,619.6 	"/>
	<polygon id="XMLID_294_" class="st11" points="616.6,621.3 616.6,616.1 632.3,625.1 632.3,630.2 	"/>
	<polygon id="XMLID_293_" class="st11" points="640.7,620.3 640.7,625.4 632.3,630.2 632.3,625.1 	"/>
	<polygon id="XMLID_292_" class="st11" points="634.9,610.7 634.9,615.9 638.1,617.6 638.1,612.4 	"/>
	<polygon id="XMLID_291_" class="st11" points="643.6,609.2 643.6,614.4 638.1,617.6 638.1,612.4 	"/>
	<polygon id="XMLID_290_" class="st11" points="653.4,612.4 653.4,617.6 659.1,614.1 659.1,608.9 	"/>
	<polygon id="XMLID_288_" class="st11" points="682.9,577.9 682.9,583.1 648.8,602.7 644.5,600.1 	"/>
</g>
<g id="XMLID_310_">
	<polygon id="XMLID_313_" class="st12" points="161.7,355.6 157.5,367.1 165.4,376.5 169.6,365 	"/>
	<polygon id="XMLID_312_" class="st13" points="161.7,355.6 173.8,353.4 181.7,362.9 169.6,365 	"/>
	<polygon id="XMLID_311_" class="st14" points="165.4,376.5 177.5,374.4 181.7,362.9 169.6,365 	"/>
</g>
<g id="XMLID_306_">
	<polygon id="XMLID_309_" class="st12" points="643.2,253.5 637.9,268.1 647.9,280.1 653.2,265.5 	"/>
	<polygon id="XMLID_308_" class="st13" points="643.2,253.5 658.6,250.8 668.6,262.8 653.2,265.5 	"/>
	<polygon id="XMLID_307_" class="st14" points="647.9,280.1 663.2,277.4 668.6,262.8 653.2,265.5 	"/>
</g>
<g id="XMLID_302_">
	<polygon id="XMLID_305_" class="st12" points="657,365.5 666.6,383.1 686.6,383.7 677.1,366 	"/>
	<polygon id="XMLID_304_" class="st13" points="657,365.5 667.6,348.4 687.6,348.9 677.1,366 	"/>
	<polygon id="XMLID_303_" class="st14" points="686.6,383.7 697.2,366.6 687.6,348.9 677.1,366 	"/>
</g>
<g id="XMLID_314_">
	<polygon id="XMLID_317_" class="st12" points="152.6,185.1 170.7,218.7 208.8,219.8 190.7,186.2 	"/>
	<polygon id="XMLID_316_" class="st13" points="152.6,185.1 172.6,152.6 210.7,153.7 190.7,186.2 	"/>
	<polygon id="XMLID_315_" class="st14" points="208.8,219.8 228.9,187.3 210.7,153.7 190.7,186.2 	"/>
</g>
</svg>
