<?xml version="1.0" encoding="utf-8"?>
<!-- Generator: Adobe Illustrator 21.1.0, SVG Export Plug-In . SVG Version: 6.00 Build 0)  -->
<svg version="1.1" id="Слой_1" xmlns="http://www.w3.org/2000/svg" xmlns:xlink="http://www.w3.org/1999/xlink" x="0px" y="0px"
	 viewBox="0 0 900 712" style="enable-background:new 0 0 900 712;" xml:space="preserve">
<style type="text/css">
	.st0{fill:#FFDE00;}
	.st1{fill:#B17EFD;}
	.st2{fill:#701EED;}
	.st3{fill:#FFFFFF;}
	.st4{fill:#FDDC03;}
	.st5{fill:#DA44D0;}
	.st6{fill:#B37FFF;}
	.st7{fill:#DEE3F3;}
	.st8{fill:#EBEDF7;}
	.st9{fill:#E7EAF6;}
	.st10{fill:#FDE500;}
	.st11{fill:#28A3E8;}
	.st12{fill:#923CFF;}
	.st13{fill:#F3AB00;}
	.st14{fill:#6C19D6;}
	.st15{fill:#903CFD;}
	.st16{fill:#803BE9;}
	.st17{fill:#AD7FF7;}
	.st18{opacity:0.4;fill:#DA44D0;}
	.st19{fill:#C7ACFA;}
</style>
<rect x="100" y="100" transform="matrix(1 -2.334527e-03 2.334527e-03 1 -0.8299 1.0515)" class="st0" width="700" height="512"/>
<polygon points="340.2,643.3 845.2,415.3 649.3,287.2 128.3,551.2 "/>
<g>
	<g>
		<path class="st1" d="M269.8,362.2l0.2,136.4c0,3.6,2.6,5.1,5.7,3.3l131.1-75.8c3.2-1.8,5.7-6.3,5.7-9.9l-0.2-136.4L269.8,362.2z"
			/>
		<path class="st2" d="M275.5,340.9c-3.2,1.8-5.7,6.3-5.7,9.9l0,11.5l142.6-82.4l0-11.5c0-3.6-2.6-5.1-5.7-3.3L275.5,340.9z"/>
	</g>
	<path class="st2" d="M355.3,436l-23.8,13.7c-1.9,1.1-3.4-0.1-3.4-2.6v-26c0-2.5,1.5-5.5,3.4-6.6l23.8-13.7c1.9-1.1,3.4,0.1,3.4,2.6
		v26C358.7,432,357.2,434.9,355.3,436z"/>
	<path class="st2" d="M394.7,413.3L370.9,427c-1.9,1.1-3.4-0.1-3.4-2.6v-94.7c0-2.5,1.5-5.5,3.4-6.6l23.8-13.7
		c1.9-1.1,3.4,0.1,3.4,2.6v94.7C398.2,409.2,396.6,412.2,394.7,413.3z"/>
	<path class="st2" d="M353.4,388.7l-61,35.4c-2.6,1.5-4.8-0.1-4.8-3.6v-42.7c0-3.5,2.1-7.6,4.8-9.1l61-35.4c2.6-1.5,4.8,0.1,4.8,3.6
		v42.7C358.2,383.1,356,387.2,353.4,388.7z"/>
	<path class="st2" d="M319.4,457.4l-23.8,13.7c-1.9,1.1-3.4-0.1-3.4-2.6v-26c0-2.5,1.5-5.5,3.4-6.6l23.8-13.7
		c1.9-1.1,3.4,0.1,3.4,2.6v26C322.9,453.4,321.3,456.3,319.4,457.4z"/>
</g>
<g>
	<path d="M328,403.8l0.2,84.4c0,3.9,2.8,5.4,6.1,3.5l84-48.5c3.4-1.9,6.1-6.7,6.1-10.5l-0.2-84.4L328,403.8z"/>
	<path d="M334.1,381c-3.4,1.9-6.1,6.7-6.1,10.5l0,12.3l96.2-55.6l0-12.3c0-3.9-2.8-5.4-6.1-3.5L334.1,381z"/>
	<g>
		<polygon class="st3" points="379.1,395.4 358.2,407.5 358.2,403.6 379.1,391.6 		"/>
		<polygon class="st3" points="394.2,393.6 365.4,410.2 365.4,406.3 394.2,389.7 		"/>
		<polygon class="st4" points="411.2,383.7 399.2,390.6 399.2,386.8 411.2,379.8 		"/>
		<polygon class="st3" points="350.1,412.2 346.8,414.1 346.8,410.2 350.1,408.3 		"/>
		<polygon class="st3" points="350.1,419 346.8,420.9 346.8,417 350.1,415.2 		"/>
		<polygon class="st3" points="386.9,404.9 358.2,421.5 358.2,417.6 386.9,401.1 		"/>
		<polygon class="st4" points="378.3,416.7 365.4,424.2 365.4,420.3 378.3,412.8 		"/>
		<polygon class="st3" points="350.1,426.2 346.8,428.1 346.8,424.2 350.1,422.3 		"/>
		<polygon class="st3" points="350.1,433 346.8,434.9 346.8,431 350.1,429.1 		"/>
	</g>
	<g>
		<polygon class="st3" points="379.1,423.2 358.2,435.3 358.2,431.4 379.1,419.4 		"/>
		<polygon class="st4" points="394.2,421.4 365.4,438 365.4,434.1 394.2,417.5 		"/>
		<polygon class="st3" points="411.2,411.5 399.2,418.4 399.2,414.6 411.2,407.6 		"/>
		<polygon class="st3" points="350.1,440 346.8,441.9 346.8,438 350.1,436.1 		"/>
		<polygon class="st3" points="350.1,446.8 346.8,448.7 346.8,444.8 350.1,442.9 		"/>
		<polygon class="st3" points="386.9,432.7 358.2,449.2 358.2,445.4 386.9,428.9 		"/>
		<polygon class="st4" points="378.3,444.5 365.4,451.9 365.4,448.1 378.3,440.6 		"/>
		<polygon class="st3" points="350.1,454 346.8,455.9 346.8,452 350.1,450.1 		"/>
		<polygon class="st3" points="350.1,460.8 346.8,462.7 346.8,458.8 350.1,456.9 		"/>
	</g>
</g>
<path id="cloud_48_" class="st5" d="M696.5,185.9c4.4-53.6-25.7-88.6-62.4-92c-5.8-31.9-20.9-62.9-45.4-77
	C552.9-3.7,511.5,6,505.2,46.8c-0.1,0.9,0,1.9,0,2.9c0,0,0,0,0,0c-27.4-15.8-50-2.2-50.4,30.3c-0.4,32.5,21.5,71.6,49,87.3
	l182.1,104c22.9,13.2,44.8,0.4,48.2-23.4C737.2,225.9,726.1,196.4,696.5,185.9z"/>
<path id="cloud_47_" class="st6" d="M209.6,191.3c8.7-30,33-54.1,63.8-58.3c7.5-37.6,34-77.3,65.4-95.1c33-18.7,60.2-6.8,65.4,26.2
	c0.1-0.1,0.2-0.1,0.3-0.2c23.3-13.2,42-2.3,41.9,24.5c18.1-4.4,31.2,7.2,31,29.9c-0.2,27.4-19.7,60.5-43.5,74L300.1,268
	C268.5,291.8,184.7,277.1,209.6,191.3z"/>
<g id="XMLID_160_">
	<polygon id="XMLID_163_" class="st7" points="539.1,92.5 544.6,102.5 556,102.8 550.5,92.8 	"/>
	<polygon id="XMLID_162_" class="st8" points="539.1,92.5 545.1,82.7 556.5,83 550.5,92.8 	"/>
	<polygon id="XMLID_161_" class="st9" points="556,102.8 562,93.1 556.5,83 550.5,92.8 	"/>
</g>
<g id="XMLID_156_">
	<polygon id="XMLID_159_" class="st7" points="288.1,151.3 295.6,165 311.2,165.4 303.7,151.7 	"/>
	<polygon id="XMLID_158_" class="st8" points="288.1,151.3 296.3,137.9 311.9,138.3 303.7,151.7 	"/>
	<polygon id="XMLID_157_" class="st9" points="311.2,165.4 319.4,152.1 311.9,138.3 303.7,151.7 	"/>
</g>
<g id="XMLID_132_">
	<polygon id="XMLID_135_" class="st7" points="286.7,254.7 303.6,286.1 339.3,287.2 322.3,255.8 	"/>
	<polygon id="XMLID_134_" class="st8" points="286.7,254.7 305.4,224.4 341.1,225.4 322.3,255.8 	"/>
	<polygon id="XMLID_133_" class="st9" points="339.3,287.2 358,256.8 341.1,225.4 322.3,255.8 	"/>
</g>
<g id="XMLID_168_">
	<polygon id="XMLID_171_" class="st7" points="396.9,112.4 405.1,127.6 422.4,128 414.2,112.8 	"/>
	<polygon id="XMLID_170_" class="st8" points="396.9,112.4 405.9,97.7 423.2,98.1 414.2,112.8 	"/>
	<polygon id="XMLID_169_" class="st9" points="422.4,128 431.4,113.3 423.2,98.1 414.2,112.8 	"/>
</g>
<g>
	<path class="st10" d="M67.8,376.4c0-7.3,5.2-10.2,11.6-6.6l71.1,41.3c6.3,3.7,11.5,12.6,11.5,19.9l0,10.3l-94.2-54.5L67.8,376.4z"
		/>
	<g>
		<path class="st3" d="M75.7,373.7c0.5-0.3,1.1-0.2,1.7,0.2c0.6,0.3,1.2,1,1.6,1.7l2.3,4.1l2.4-1.3c0.5-0.3,1.1-0.2,1.7,0.2
			c0.6,0.3,1.2,1,1.6,1.7c0.9,1.5,0.9,3.2,0,3.8l-2.4,1.3l2.4,4.1c0.9,1.5,0.9,3.3,0,3.8c-0.5,0.3-1.1,0.2-1.7-0.2
			c-0.6-0.3-1.2-1-1.6-1.7l-2.3-4.1l-2.4,1.3c-0.5,0.3-1.1,0.2-1.7-0.2c-0.6-0.3-1.2-1-1.6-1.7c-0.9-1.5-0.9-3.3,0-3.8l2.4-1.4
			l-2.4-4.1C74.8,375.9,74.8,374.2,75.7,373.7z"/>
	</g>
	<path class="st3" d="M150.3,519.8l-36.3-20.9l-19.4-11.2l-15.6-9c-6.4-3.6-11.5-12.6-11.5-19.8l0.2-82.4c0-7.3,5.2-10.3,11.5-6.6
		l71.3,41c6.4,3.6,11.5,12.6,11.5,19.8l-0.2,82.4C161.9,520.5,156.7,523.4,150.3,519.8z"/>
	<path class="st5" d="M163.9,513.2l0.2-82.4c0-8.1-5.5-17.6-12.6-21.6l-71.3-41c-3.7-2.2-7.4-2.4-10.2-0.8c-2.8,1.6-4.4,4.9-4.4,9.2
		l-0.2,82.4c0,8.1,5.5,17.6,12.6,21.6l14.6,8.4l21.7,12.5l35,20.2c2.1,1.2,4.3,1.9,6.2,1.8c1.5,0,2.8-0.4,4-1.1
		C162.4,520.7,163.9,517.5,163.9,513.2z"/>
	<g>
		<g>
			<path class="st3" d="M90.2,430.6c-0.4,0.3-1,0.2-1.6-0.1c-0.5-0.3-1.1-0.8-1.5-1.5l-7.6-12.5c-0.4-0.7-0.7-1.5-0.7-2.2
				c0-0.7,0.3-1.2,0.7-1.4l7.6-3.7c0.4-0.2,1-0.1,1.5,0.2c0.6,0.3,1.2,0.9,1.6,1.7c0.8,1.5,0.8,3-0.1,3.5l-5.9,2.9l5.9,9.7
				C91,428.4,91.1,430,90.2,430.6z"/>
		</g>
		<g>
			<path class="st3" d="M146.5,491.8L82,454.9c-1.2-0.7-2.2-2.4-2.2-3.7c0-1.4,1-2,2.2-1.3l64.5,36.8c1.2,0.7,2.2,2.4,2.2,3.8
				C148.7,491.9,147.7,492.5,146.5,491.8z"/>
		</g>
		<g>
			<path class="st3" d="M146.4,475.4l-16.6-9.6c-1.2-0.7-2.2-2.4-2.2-3.8c0-1.4,1-1.9,2.2-1.3l16.6,9.6c1.2,0.7,2.2,2.4,2.2,3.8
				C148.6,475.5,147.7,476.1,146.4,475.4z"/>
		</g>
		<g>
			<path class="st3" d="M137.2,437.7c0.4-0.3,1-0.2,1.6,0.1c0.5,0.3,1.1,0.8,1.5,1.5l7.6,12.5c0.4,0.7,0.7,1.5,0.7,2.2
				c0,0.7-0.2,1.2-0.7,1.4l-7.6,3.7c-0.4,0.2-1,0.1-1.5-0.2c-0.6-0.3-1.2-0.9-1.6-1.7c-0.8-1.5-0.8-3,0.1-3.5l5.9-2.9l-5.9-9.6
				C136.5,439.9,136.4,438.3,137.2,437.7z"/>
		</g>
		<g>
			<path class="st3" d="M98.5,448.1l-16.7-9.6c-1.2-0.7-2.2-2.4-2.2-3.8c0-1.4,1-1.9,2.2-1.3l16.7,9.6c1.2,0.7,2.2,2.4,2.2,3.8
				C100.6,448.2,99.7,448.8,98.5,448.1z"/>
		</g>
		<g>
			<path class="st3" d="M119.1,459.7l-9.1-5c-1.2-0.7-2.2-2.4-2.2-3.8c0-1.4,1-1.9,2.2-1.3l9.1,5c1.2,0.7,2.2,2.4,2.2,3.8
				C121.3,459.8,120.3,460.4,119.1,459.7z"/>
		</g>
		<g>
			<path class="st3" d="M133.7,448l-39.9-22.7c-1.2-0.7-2.2-2.4-2.2-3.8c0-1.4,1-1.9,2.2-1.3l39.9,22.7c1.2,0.7,2.2,2.4,2.2,3.8
				C135.9,448.1,134.9,448.7,133.7,448z"/>
		</g>
	</g>
</g>
<g>
	<g>
		<polygon class="st11" points="240.1,488.7 271,505.6 243.6,521.5 212.7,504.6 		"/>
		<g>
			<polygon class="st12" points="235,543.9 236.6,545.5 205.7,528.6 204.1,527 203.1,524.7 202.8,521.9 203.1,518.7 204.1,515.3 
				205.7,512 207.7,508.9 210.1,506.4 212.7,504.6 243.6,521.5 241,523.4 238.6,525.9 236.6,528.9 235,532.2 234,535.6 233.7,538.8 
				234,541.7 			"/>
			<polygon class="st11" points="271,505.6 240.1,488.7 242.6,487.7 245,487.6 247.1,488.3 278,505.2 276,504.5 273.6,504.6 			"/>
		</g>
		<path class="st6" d="M279.6,518.5l1-3.4l0.3-3.2l-0.3-2.9l-1-2.3l-1.6-1.6l-2.1-0.7l-2.4,0.2l-2.6,1l-27.4,15.9l-2.6,1.8l-2.4,2.5
			l-2.1,3l-1.6,3.3l-1,3.4l-0.3,3.2l0.3,2.9l1,2.3l1.6,1.6l2.1,0.7l2.4-0.2l2.6-1l27.4-15.9l2.6-1.8l2.4-2.5l2.1-3L279.6,518.5z
			 M249.2,531.9l-0.2,1.6l-0.5,1.7l-0.8,1.7l-1,1.5l-1.2,1.3l-1.3,0.9l-1.3,0.5l-1.2,0.1l-1-0.4l-0.8-0.8l-0.5-1.1l-0.2-1.4l0.2-1.6
			l0.5-1.7l0.8-1.7l1-1.5l1.2-1.3l1.3-0.9l1.3-0.5l1.2-0.1l1,0.4l0.8,0.8l0.5,1.1L249.2,531.9z M277,514.6l-0.2,1.8l-0.5,1.9
			l-0.9,1.8l-1.1,1.7l-1.3,1.4l-1.4,1l-1.4,0.6l-1.3,0.1l-1.1-0.4l-0.9-0.8l-0.6-1.2l-0.2-1.6l0.2-1.8l0.5-1.9l0.9-1.8l1.1-1.7
			l1.3-1.4l1.4-1l1.4-0.6l1.3-0.1l1.1,0.4l0.9,0.8l0.6,1.2L277,514.6z"/>
		<polygon points="247.7,536.9 246.7,538.4 245.5,539.7 244.2,540.6 242.9,541.1 241.7,541.2 240.7,540.8 239.9,540 239.4,538.9 
			239.2,537.4 239.4,535.8 239.9,534.1 240.7,532.5 241.7,531 242.9,529.7 244.2,528.8 245.5,528.3 246.7,528.2 247.7,528.6 
			248.5,529.4 249,530.5 249.2,531.9 249,533.6 248.5,535.3 		"/>
		<polygon points="275.4,520 274.3,521.7 273,523.1 271.6,524.1 270.2,524.7 268.8,524.8 267.7,524.4 266.8,523.6 266.2,522.3 
			266,520.8 266.2,519 266.7,517.2 267.6,515.3 268.7,513.7 270,512.3 271.4,511.2 272.8,510.7 274.1,510.5 275.3,510.9 
			276.2,511.8 276.8,513 277,514.6 276.8,516.3 276.3,518.2 		"/>
	</g>
	<g>
		<path d="M247.7,520.1c-5,2.9-11.3,2.9-16.3,0l-37.5-21.5c-4.7-2.7-7.6-7.7-7.6-13l-0.1-42.2c0-5,2.7-9.7,7-12.2l33.3-19.3
			c7.9-4.6,17.7-4.6,25.6-0.1l30.5,17.5c6.1,3.5,9.8,10,9.8,17l0.1,35.8c0,7.4-3.9,14.3-10.3,18L247.7,520.1z"/>
		<path class="st10" d="M255.7,503.6l-3.9,2.3c-7.6,4.4-16.9,4.4-24.6,0.1l-36.4-21.1l-0.1-39.2l36.4,21.1c7.6,4.4,17,4.3,24.6-0.1
			l9-5.3c4.8-2.8,10.8,0.7,10.8,6.2l0,8.3c0,5.6-1.4,11.1-4.2,15.9C264.5,496.8,260.5,500.8,255.7,503.6z"/>
	</g>
	<path d="M257,433l-23.9-79.9c6.2-7.7,10.4-17.8,10.3-26.6c0-6.5-2.4-11.1-6.1-13.2c0,0,0,0,0,0l-8.7-5c-3.8-2.2-8.9-1.9-14.7,1.5
		c-3,1.8-5.9,4.2-8.5,7.1L150.3,299c0.4-1.9,0.7-3.7,0.7-5.5c0-4.6-1.6-7.7-4.2-9.2c0,0,0,0,0,0l-6-3.5c-2.6-1.5-6.3-1.3-10.3,1
		c-7.9,4.6-14.3,15.7-14.3,24.9c0,4.5,1.6,7.7,4.2,9.2l4.4,2.5l3,35l-3.6,2.1L104.7,388l0.1,15.3l7.1,9l6.1,3.5l4.8-2.8l-0.1-20.3
		l14.6-19.9l8.5,1.6l0.1,18l6.1,3.5l4.8-2.8l6.9-17.1l-0.1-15.3l-6.1-3.5l-17.7-8.6l3.5-35.6l-0.2-0.1c0.9-1.1,1.8-2.3,2.6-3.5
		l48.8,27.7c-0.7,2.8-1.1,5.6-1.1,8.2c0,6.5,2.3,11.1,6,13.2l7.9,4.6l10.2,78.9L257,433z M122.3,311.9c-0.1-0.5-0.1-1.1-0.1-1.6
		C122.2,310.9,122.2,311.4,122.3,311.9z M122.5,313.4c-0.1-0.3-0.1-0.7-0.2-1C122.4,312.8,122.4,313.1,122.5,313.4z M122.9,314.8
		c-0.1-0.3-0.2-0.6-0.2-0.8C122.7,314.3,122.8,314.5,122.9,314.8z M123.4,316.1c-0.1-0.2-0.2-0.5-0.3-0.7
		C123.2,315.6,123.3,315.8,123.4,316.1z M124,317.1c-0.1-0.2-0.2-0.4-0.3-0.6C123.7,316.7,123.8,317,124,317.1z M124.7,318.1
		c-0.1-0.2-0.3-0.3-0.4-0.5C124.4,317.8,124.6,317.9,124.7,318.1z M138.4,284.5c-0.1,0.1-0.3,0.1-0.4,0.2
		C138.1,284.6,138.3,284.5,138.4,284.5z M139.9,283.9c-0.2,0.1-0.4,0.1-0.5,0.2C139.6,284,139.8,283.9,139.9,283.9z M141.4,283.6
		c-0.2,0-0.4,0-0.6,0.1C141,283.6,141.2,283.6,141.4,283.6z M142.7,283.4c-0.2,0-0.4,0-0.6,0C142.3,283.4,142.5,283.4,142.7,283.4z
		 M143.9,283.5c-0.2,0-0.4-0.1-0.5-0.1C143.6,283.4,143.7,283.5,143.9,283.5z M145.1,283.7c-0.2,0-0.3-0.1-0.5-0.1
		C144.8,283.6,144.9,283.7,145.1,283.7z M146.2,284.1c-0.2-0.1-0.3-0.2-0.5-0.2C145.9,283.9,146,284,146.2,284.1z M202.3,352.7
		c-0.1-0.8-0.1-1.5-0.1-2.4C202.2,351.1,202.3,351.9,202.3,352.7z M202.7,354.8c-0.1-0.5-0.2-1-0.2-1.5
		C202.5,353.9,202.6,354.4,202.7,354.8z M203.2,356.8c-0.1-0.4-0.2-0.8-0.3-1.2C203,356,203.1,356.4,203.2,356.8z M203.9,358.6
		c-0.1-0.3-0.3-0.7-0.4-1C203.6,357.9,203.7,358.3,203.9,358.6z M204.7,360.2c-0.2-0.3-0.3-0.6-0.5-0.9
		C204.4,359.6,204.6,359.9,204.7,360.2z M205.8,361.5c-0.2-0.2-0.4-0.5-0.6-0.7C205.4,361,205.6,361.3,205.8,361.5z M207,362.6
		c-0.2-0.2-0.4-0.4-0.6-0.6C206.5,362.2,206.7,362.5,207,362.6z M225.5,313.3c-0.2,0.1-0.5,0.2-0.7,0.3
		C225,313.5,225.2,313.4,225.5,313.3z M227.6,312.6c-0.3,0.1-0.5,0.1-0.8,0.2C227.1,312.7,227.4,312.6,227.6,312.6z M229.6,312.1
		c-0.3,0-0.5,0.1-0.8,0.1C229.1,312.2,229.4,312.1,229.6,312.1z M231.5,311.9c-0.3,0-0.5,0-0.8,0C231,311.9,231.2,311.9,231.5,311.9
		z M235.8,312.5c0.2,0.1,0.5,0.2,0.7,0.3C236.3,312.8,236.1,312.6,235.8,312.5z M234.2,312.1c0.3,0.1,0.5,0.1,0.7,0.2
		C234.7,312.2,234.5,312.1,234.2,312.1z M232.5,311.9c0.3,0,0.5,0.1,0.8,0.1C233,312,232.8,311.9,232.5,311.9z"/>
	<path class="st12" d="M130.8,305.3c0-3.7,2.6-8.1,5.7-10c3.2-1.9,5.8-0.4,5.8,3.3c0,3.7-2.6,8.2-5.7,10
		C133.4,310.4,130.8,309,130.8,305.3z"/>
	<path class="st12" d="M214.9,339.8c0.8-3.4,2.6-6.5,5.1-8.8c6.6-6.3,12.7-2.9,10.6,6c-0.8,3.4-2.6,6.5-5.1,8.8
		C218.9,352.1,212.9,348.7,214.9,339.8z"/>
</g>
<g>
	<path d="M606,414l-3.8,2.1l-4.7,2.2c-0.4,0.2-0.8,0.3-1.2,0.5c-0.1,0-0.2,0.1-0.2,0.1c-0.4,0.1-0.8,0.2-1.2,0.3
		c-0.3,0.1-0.7,0.2-1,0.2c-0.1,0-0.3,0.1-0.4,0.1c-0.2,0-0.4,0-0.6,0.1c-0.2,0-0.5,0-0.7,0.1c-0.1,0-0.3,0-0.4,0c-0.3,0-0.5,0-0.8,0
		c-0.2,0-0.3,0-0.4-0.1c-0.2,0-0.5-0.1-0.7-0.1c-0.2,0-0.3-0.1-0.5-0.1c-0.2-0.1-0.4-0.1-0.6-0.2c-0.2-0.1-0.4-0.1-0.5-0.2
		c-0.3-0.1-0.5-0.2-0.8-0.3l43.4,22.5c0.1,0.1,0.2,0.1,0.4,0.2c0.1,0.1,0.3,0.1,0.4,0.2c0.2,0.1,0.4,0.2,0.5,0.2
		c0.1,0,0.1,0,0.2,0.1c0.2,0.1,0.3,0.1,0.5,0.1c0.2,0,0.3,0.1,0.5,0.1c0,0,0.1,0,0.1,0c0.2,0,0.4,0.1,0.6,0.1c0.1,0,0.3,0,0.4,0.1
		c0,0,0.1,0,0.1,0c0.2,0,0.5,0,0.7,0c0.1,0,0.3,0,0.4,0c0,0,0,0,0,0c0.2,0,0.4,0,0.6-0.1c0.2,0,0.4,0,0.6-0.1c0,0,0,0,0,0
		c0.1,0,0.2,0,0.3-0.1c0.3-0.1,0.7-0.1,1-0.2c0,0,0.1,0,0.1,0c0.3-0.1,0.7-0.2,1.1-0.3c0.1,0,0.2-0.1,0.2-0.1
		c0.2-0.1,0.4-0.2,0.6-0.2c0.2-0.1,0.4-0.2,0.6-0.2l4.7-2.2l3.8-2.1L606,414z"/>
	<path d="M553.7,487.8L521,367.5L477.6,345l32.7,120.3c3.8,13.7,9,23.7,15.4,29.9c2.2,2.1,4.4,3.8,6.9,5l43.4,22.5
		C566.2,517.7,558.8,506,553.7,487.8z"/>
	<path class="st12" d="M477.6,225.9c-2.4-7.7-5.6-12.5-9.6-14.6l-43.4-22.5c4,2.1,7.3,7,9.6,14.6l14.3,41.2L340.2,601.2l43.4,22.5
		L492,267.1L477.6,225.9z"/>
	<path class="st12" d="M445.3,151.3c0.6-0.4,1.1-0.8,1.7-1.2c0.9-0.6,1.8-1.3,2.7-1.9c0.6-0.4,1.2-0.8,1.9-1.3
		c0.8-0.6,1.7-1.1,2.5-1.7c1-0.6,2-1.2,3-1.9c0.7-0.4,1.4-0.9,2.2-1.3c1-0.6,2.1-1.2,3.2-1.8c0.7-0.4,1.4-0.8,2.1-1.2
		c1.2-0.7,2.4-1.3,3.6-1.9c0.6-0.3,1.2-0.6,1.8-0.9c1.8-0.9,3.7-1.8,5.6-2.7c1-0.5,2.1-1,3.1-1.4c0.3-0.1,0.7-0.3,1-0.4
		c0.7-0.3,1.4-0.6,2.1-0.9c0.4-0.1,0.7-0.3,1.1-0.4c0.7-0.3,1.3-0.5,1.9-0.7c0.3-0.1,0.7-0.2,1-0.4c0.7-0.2,1.4-0.5,2.1-0.7
		c0.3-0.1,0.5-0.2,0.8-0.3c0.9-0.3,1.8-0.5,2.7-0.8c1.1-0.3,2.2-0.5,3.2-0.8c0.3-0.1,0.6-0.1,0.9-0.2c0.7-0.1,1.5-0.3,2.2-0.4
		c0.5-0.1,0.9-0.1,1.4-0.2c0.4-0.1,0.9-0.1,1.3-0.1c0.5,0,0.9-0.1,1.4-0.1c0.4,0,0.8-0.1,1.2-0.1c0.6,0,1.1,0,1.6,0
		c0.2,0,0.5,0,0.7,0c0.8,0,1.6,0.1,2.3,0.1c0.1,0,0.1,0,0.2,0c0.7,0.1,1.3,0.1,2,0.2c0.2,0,0.4,0.1,0.7,0.1c0.5,0.1,1,0.2,1.5,0.3
		c0.2,0,0.4,0.1,0.6,0.1c0.6,0.1,1.2,0.3,1.7,0.5c0.1,0,0.2,0.1,0.3,0.1c0.6,0.2,1.3,0.5,1.9,0.7c0.2,0.1,0.3,0.1,0.5,0.2
		c0.6,0.3,1.2,0.5,1.7,0.8l-43.4-22.5c-0.3-0.2-0.6-0.3-0.9-0.5c-0.3-0.1-0.5-0.2-0.8-0.3c-0.2-0.1-0.3-0.2-0.5-0.2
		c-0.6-0.2-1.2-0.5-1.8-0.7c0,0,0,0-0.1,0c-0.1,0-0.2-0.1-0.3-0.1c-0.6-0.2-1.1-0.3-1.7-0.5c-0.2-0.1-0.4-0.1-0.6-0.1
		c-0.2-0.1-0.4-0.1-0.7-0.2c-0.3-0.1-0.6-0.1-0.8-0.1c-0.2,0-0.4-0.1-0.7-0.1c-0.7-0.1-1.3-0.2-2-0.2c-0.1,0-0.1,0-0.2,0
		c0,0,0,0,0,0c-0.8-0.1-1.5-0.1-2.3-0.1c-0.2,0-0.5,0-0.7,0c-0.4,0-0.9,0-1.3,0c-0.1,0-0.2,0-0.3,0c-0.4,0-0.8,0-1.2,0.1
		c-0.5,0-0.9,0.1-1.4,0.1c-0.4,0-0.8,0.1-1.3,0.1c-0.3,0-0.6,0.1-1,0.1c-0.1,0-0.3,0-0.4,0.1c-0.7,0.1-1.5,0.2-2.2,0.4
		c-0.3,0.1-0.6,0.1-0.9,0.2c-1.1,0.2-2.1,0.5-3.2,0.8c0,0,0,0-0.1,0c-0.9,0.2-1.8,0.5-2.7,0.8c-0.3,0.1-0.5,0.2-0.8,0.3
		c-0.7,0.2-1.4,0.4-2.1,0.7c-0.3,0.1-0.7,0.2-1,0.4c-0.6,0.2-1.3,0.5-2,0.7c-0.3,0.1-0.7,0.3-1.1,0.4c-0.2,0.1-0.4,0.2-0.6,0.2
		c-0.5,0.2-1,0.4-1.5,0.6c-0.3,0.1-0.6,0.3-1,0.4c-1,0.4-2.1,0.9-3.1,1.4c-1.9,0.9-3.7,1.8-5.6,2.7c-0.6,0.3-1.2,0.6-1.8,0.9
		c-1.2,0.6-2.4,1.3-3.6,1.9c-0.7,0.4-1.4,0.8-2.1,1.2c-1.1,0.6-2.1,1.2-3.2,1.8c-0.7,0.4-1.4,0.9-2.1,1.3c-1,0.6-2,1.2-3,1.9
		c-0.3,0.2-0.6,0.4-0.9,0.5c-0.6,0.4-1.1,0.7-1.6,1.1c-0.6,0.4-1.3,0.8-1.9,1.3c-0.9,0.6-1.8,1.3-2.7,1.9c-0.6,0.4-1.1,0.8-1.7,1.2
		c-1,0.7-1.9,1.4-2.9,2.2c-0.5,0.4-0.9,0.7-1.4,1.1c-1.4,1.1-2.8,2.2-4.1,3.3l43.4,22.5c1.3-1.1,2.7-2.3,4.1-3.3
		c0.5-0.4,0.9-0.7,1.4-1.1C443.4,152.7,444.3,152,445.3,151.3z"/>
	<g>
		<polygon points="434.8,220.8 391.4,198.3 393.6,135.4 436.9,157.9 		"/>
	</g>
	<g>
		<path class="st13" d="M475.4,133.5c31.3-14.7,51.5-8.4,60.6,18.8l82.4,267.8l3.2,8.6c4.6,11.8,11,15.8,19.2,12.1l4.7-2.2l3.8-2
			v67.2c-6.6,4.4-18.6,9.2-29.5,14.3c-17.5,8.2-31.6,10.1-42.2,5.5c-10.6-4.6-18.6-16.5-24-35.8L521,367.5l-63.9,223.2l-73.5,33
			L492,267.1l-14.3-41.2c-2.6-8.5-6.3-13.5-10.9-15.2c-4.7-1.7-10.7-0.8-18.2,2.7l-13.8,7.3l2.1-62.9
			C448.2,148.3,461.1,140.2,475.4,133.5z"/>
	</g>
</g>
<path id="cloud_49_" class="st3" d="M529.1,266.7c-11-6.3-20.6-4-25.2,4.8c-1.6-1.3-3.2-2.4-4.8-3.4c-9.7-5.6-18-3.2-21.1,5
	c-1.5-1.4-3-2.5-4.6-3.5c-8.5-4.9-15.4-0.9-15.3,8.9c0,9.8,6.9,21.7,15.4,26.6l55.9,32.1c15.6,9,28.3,0.5,28.2-19
	C557.5,298.7,544.7,275.7,529.1,266.7z"/>
<g>
	<path class="st14" d="M786.2,599.7c16.8,0,30.9-6.5,30.9-14.2v-23.8h-61.8v23.4C755.3,593,769.4,599.7,786.2,599.7z"/>
	<ellipse class="st15" cx="786.2" cy="561.8" rx="30.9" ry="15.1"/>
	<path class="st16" d="M786.2,628.8c16.8,0,30.9-6.5,30.9-14.2v-23.5c-5.7,5.8-17.2,11.4-30.9,11.4c-13.7,0-25.2-5.6-30.9-11.4v23.2
		C755.3,622,769.4,628.8,786.2,628.8z"/>
	<path class="st17" d="M786.2,632.4c-13.7,0-25.2-6.5-30.9-12.3v23.2c0,7.7,14.1,14.5,30.9,14.5c16.8,0,30.9-6.5,30.9-14.2v-23.5
		C811.4,625.9,799.9,632.4,786.2,632.4z"/>
	<ellipse class="st5" cx="810.2" cy="581.9" rx="1.4" ry="2.6"/>
	<ellipse class="st5" cx="810.2" cy="609.8" rx="1.4" ry="2.6"/>
	<ellipse class="st18" cx="810.2" cy="640" rx="1.4" ry="2.6"/>
	<path class="st19" d="M786.2,628.8c-14.4,0-26.8-5-30.1-11.3c-0.5,0.9-0.8,1.8-0.8,2.8v0.1c0,1.3,0.4,2.7,1.6,3.8
		c6.1,5,16.8,8.2,29.3,8.2c0,0,0,0,0,0c12.5,0,23.2-3.3,29.3-8.2c1.5-1.6,1.6-2.5,1.6-3.9c0-0.9-0.3-1.8-0.8-2.7
		C813.2,624,800.7,628.8,786.2,628.8z"/>
	<path class="st15" d="M786.2,599.7c-14.4,0-26.8-5-30.1-11.3c-0.5,0.9-0.8,1.8-0.8,2.8v0.1c0,1.3,0.4,2.7,1.6,3.8
		c6.1,5,16.8,8.2,29.3,8.2c0,0,0,0,0,0c12.5,0,23.2-3.3,29.3-8.2c1.5-1.6,1.6-2.5,1.6-3.9c0-0.9-0.3-1.8-0.8-2.7
		C813.2,594.9,800.7,599.7,786.2,599.7z"/>
</g>
<g id="XMLID_152_">
	<polygon id="XMLID_155_" class="st7" points="585.3,130.5 576,156 593.4,176.8 602.7,151.3 	"/>
	<polygon id="XMLID_154_" class="st8" points="585.3,130.5 612,125.8 629.4,146.5 602.7,151.3 	"/>
	<polygon id="XMLID_153_" class="st9" points="593.4,176.8 620.2,172 629.4,146.5 602.7,151.3 	"/>
</g>
<g>
	<path class="st14" d="M679,560.8c29.1,0,53.6-11.2,53.6-24.6V495H625.4v40.6C625.4,549.1,649.9,560.8,679,560.8z"/>
	<ellipse class="st15" cx="679" cy="495" rx="53.6" ry="26.2"/>
	<path class="st16" d="M679,611.2c29.1,0,53.6-11.2,53.6-24.6v-40.8c-9.8,10.1-29.9,19.8-53.6,19.8c-23.7,0-43.8-9.8-53.6-19.8v40.2
		C625.4,599.4,649.9,611.2,679,611.2z"/>
	<path class="st17" d="M679,617.5c-23.7,0-43.8-11.3-53.6-21.3v40.2c0,13.4,24.5,25.1,53.6,25.1c29.1,0,53.6-11.2,53.6-24.6v-40.8
		C722.8,606.3,702.7,617.5,679,617.5z"/>
	<ellipse class="st5" cx="720.6" cy="529.9" rx="2.4" ry="4.4"/>
	<ellipse class="st5" cx="720.6" cy="578.2" rx="2.4" ry="4.4"/>
	<ellipse class="st18" cx="720.6" cy="630.7" rx="2.4" ry="4.4"/>
	<path class="st19" d="M679,611.2c-25,0-46.5-8.6-52.1-19.5c-0.9,1.5-1.4,3.1-1.5,4.8v0.2c0,2.3,0.7,4.7,2.8,6.6
		c10.5,8.6,29.2,14.3,50.8,14.3c0,0,0,0,0,0c21.6,0,40.2-5.6,50.8-14.3c2.5-2.7,2.8-4.4,2.8-6.7c0-1.6-0.5-3.1-1.3-4.6
		C725.8,602.8,704.1,611.2,679,611.2z"/>
	<path class="st15" d="M679,560.8c-25,0-46.5-8.6-52.1-19.5c-0.9,1.5-1.4,3.1-1.5,4.8v0.2c0,2.3,0.7,4.7,2.8,6.6
		c10.5,8.6,29.2,14.3,50.8,14.3c0,0,0,0,0,0c21.6,0,40.2-5.6,50.8-14.3c2.5-2.7,2.8-4.4,2.8-6.7c0-1.6-0.5-3.1-1.3-4.6
		C725.8,552.4,704.1,560.8,679,560.8z"/>
</g>
</svg>
