<?xml version="1.0" encoding="utf-8"?>
<!-- Generator: Adobe Illustrator 21.1.0, SVG Export Plug-In . SVG Version: 6.00 Build 0)  -->
<svg version="1.1" id="Слой_1" xmlns="http://www.w3.org/2000/svg" xmlns:xlink="http://www.w3.org/1999/xlink" x="0px" y="0px"
	 viewBox="0 0 900 712" style="enable-background:new 0 0 900 712;" xml:space="preserve">
<style type="text/css">
	.st0{fill:#923CFF;}
	.st1{fill:#B37FFF;}
	.st2{fill:#DA44D0;}
	.st3{fill:#FFDE00;}
	.st4{fill:#AD7FF7;}
	.st5{fill:#6C19D6;}
	.st6{fill:#CE9550;}
	.st7{fill:#FDD8B4;}
	.st8{fill:#FFFFFF;}
	.st9{fill:#91551C;}
	.st10{fill:#F07E01;}
	.st11{fill:#D96D01;}
	.st12{fill:#FD8A1A;}
	.st13{fill:#BF5C01;}
	.st14{fill:#B61BB6;}
	.st15{fill:#F3AB00;}
	.st16{fill:#DEE3F3;}
	.st17{fill:#EBEDF7;}
	.st18{fill:#E7EAF6;}
	.st19{fill:#B17EFD;}
	.st20{fill:#CBABFD;}
</style>
<rect x="100" y="100" transform="matrix(1 -2.334527e-03 2.334527e-03 1 -0.8299 1.0515)" class="st0" width="700" height="512"/>
<path id="cloud_65_" class="st1" d="M862.7,407.6c-14.7-50.3-55.6-90.8-107.4-97.8c-12.7-63.2-57.5-129.9-110.3-159.7
	c-55.5-31.3-101.2-11.2-109.8,44.3c-0.2-0.1-0.4-0.2-0.5-0.3c-39.2-22.1-70.7-3.6-70.4,41.3c-30.4-7.3-52.4,12.2-52,50.4
	c0.5,46,33.4,101.6,73.4,124.2l225.3,127C764.2,576.8,904.9,551.8,862.7,407.6z"/>
<path id="cloud_64_" class="st2" d="M85.3,445.1c4.5-2.6,8.8-4.5,12.9-5.7c2.1-45.3,33.7-98.5,72.4-120.8c3.6-2.1,7.1-3.8,10.6-5.2
	c14.6-39.2,42.9-76.4,75.4-95.1c47.5-27.4,86-5.2,86,49.6c0,1.2,0,2.5-0.1,3.7c0,0,0,0,0.1,0c36.4-21,65.9-4,65.9,38
	s-29.5,93.1-65.9,114.1L85.3,572.3c-30.4,17.6-55.1,3.3-55.1-31.8C30.3,505.4,54.9,462.7,85.3,445.1z"/>
<polygon class="st3" points="448.1,476.3 326,406.1 326,581.7 448.1,662.6 "/>
<polygon points="588.8,393.2 448.1,474.4 448.1,662.6 588.8,581.7 "/>
<g>
	<path class="st4" d="M560.1,531.3c0,0.1,0,0.2,0,0.2l-22.9,13.2c0,0-0.1-12.7-0.1-26.6L560.1,531.3z"/>
	<path class="st5" d="M539.5,493.3c1.7-6.3,4.5-12,9.1-14.6c6.3-3.6,9.2,3,10.4,10.4c0.4,2.5,0.7,5,0.8,7.3
		c0.3,4.7,0.2,32.5,0.2,34.8l-23-13.2C537.1,503,538.5,497.2,539.5,493.3z"/>
</g>
<path class="st5" d="M488,522.1c1.7-6.3,4.5-12,9.1-14.6c6.3-3.6,9.2,3,10.4,10.4c0.4,2.5,0.7,5,0.8,7.3c0.3,4.7,0.2,32.5,0.2,34.8
	l-23-13.2C485.6,531.8,487,526,488,522.1z"/>
<polygon points="594.2,410.1 562.8,428 562.8,411.2 537.1,425.9 537.1,442.6 505.2,460.9 505.2,444.3 479.6,459.1 479.6,475.6 
	448.1,493.6 448.1,477 594.2,393.2 "/>
<polygon class="st4" points="294.6,388.8 448.1,477.1 448.1,460.5 294.6,371.9 "/>
<polygon points="616.5,380.4 499.3,447.7 448.1,477.1 448.1,460.5 616.5,363.5 "/>
<polygon class="st4" points="276.3,361.5 276.3,325.9 315.2,348.3 315.2,366.7 409.2,421.6 409.1,402.3 448.1,424.8 448.1,460.5 "/>
<polygon points="619.9,361.7 619.9,325.9 581.5,348.1 581.5,366.2 486.6,421.9 486.6,402.6 448.1,424.8 448.1,460.5 "/>
<polygon class="st6" points="317.8,349.8 448.2,274.8 578.5,349.8 448.1,424.8 "/>
<polygon class="st7" points="276.3,326 314.8,303.8 353.7,326.2 315.2,348.3 "/>
<polygon class="st7" points="409.2,402.4 447.7,380.2 486.6,402.6 448.1,424.8 "/>
<polygon class="st4" points="409.7,284.8 409.7,249.2 448.6,271.7 448.6,289.7 542.6,344.1 542.5,325.6 581.5,348.1 581.5,366.2 
	566.4,375.1 "/>
<polygon class="st7" points="409.7,249.3 448.2,227.1 487.1,249.5 448.6,271.7 "/>
<polygon class="st7" points="542.6,325.7 581,303.5 619.9,326 581.5,348.1 "/>
<polygon points="493.8,455.8 493.8,444.2 500.9,440 500.9,459.9 "/>
<polygon points="556.9,424.3 556.9,414.6 562.8,411.2 562.8,427.8 "/>
<polygon class="st4" points="302.1,410.1 333.5,428 333.5,411.2 359.2,425.9 359.2,442.6 391.1,460.9 391.1,444.3 416.7,459.1 
	416.7,475.6 448.1,493.6 448.1,477 302.1,393.2 "/>
<polygon points="397,457.4 397,447.7 391.1,444.3 391.1,460.9 "/>
<polygon points="339.4,424.3 339.3,414.6 333.4,411.2 333.4,427.8 "/>
<polygon class="st8" points="315.2,366.7 409.2,421.6 409.1,402.3 431.6,389.5 353.7,344.6 "/>
<polygon class="st8" points="581.5,366.2 486.5,422 486.6,402.7 464,389.6 542.6,344.1 "/>
<polygon points="353.7,326.2 315.2,348.3 315.2,366.7 353.7,344.6 "/>
<polygon class="st9" points="487.1,249.5 448.6,271.7 448.6,289.7 487.1,267.6 "/>
<polygon class="st8" points="448.6,289.7 487.1,267.6 565.3,312.6 542.6,325.7 542.6,344.1 "/>
<polygon class="st8" points="353.7,344.6 448.6,289.7 409.7,266.1 329.7,312.4 353.7,326.2 "/>
<polygon class="st9" points="448.6,289.7 448.6,307.3 368.8,353.3 353.7,344.6 "/>
<g>
	<path class="st10" d="M409.7,249.2l38.9,22.4l0-126.2c0,0-13.1,50.5-20.7,68.4C417.8,237.7,409.7,249.2,409.7,249.2z"/>
	<path class="st11" d="M487.1,249.5l-38.4,22.1l0-126.2c0,0,14,54,20.8,71.3C475.9,233.5,487.1,249.5,487.1,249.5z"/>
	<polygon class="st12" points="416.5,238 409.7,249.2 448.6,271.7 448.6,256.7 	"/>
	<polygon class="st10" points="480.1,238.4 487.1,249.5 448.6,271.7 448.6,256.7 	"/>
	<path class="st10" d="M449.3,120h-1.2c-0.1,0-0.1,0.1-0.1,0.1v31.8c0,0.1,0.1,0.1,0.1,0.1h1.2c0.1,0,0.1-0.1,0.1-0.1v-31.8
		C449.5,120.1,449.4,120,449.3,120z"/>
	<path class="st10" d="M449.3,107.6h-1.2c-0.1,0-0.1,0.1-0.1,0.1v31.8c0,0.1,0.1,0.1,0.1,0.1h1.2c0.1,0,0.1-0.1,0.1-0.1v-31.8
		C449.5,107.7,449.4,107.6,449.3,107.6z"/>
	<polygon class="st13" points="448,144.2 446.4,153.9 450.9,153.9 449.5,144.2 	"/>
	<ellipse class="st13" cx="448.6" cy="153.9" rx="2.2" ry="1.2"/>
	<ellipse class="st10" cx="448.7" cy="144.2" rx="0.7" ry="0.4"/>
</g>
<g>
	<path class="st2" d="M353.9,344.7l94.8,54.6l0-307.7c0,0-32,123-50.4,166.6C373.5,316.7,353.9,344.7,353.9,344.7z"/>
	<path class="st14" d="M542.6,344.1l-93.9,55.2l0-307.7c0,0,34.2,131.5,50.6,173.7C515.2,306.3,542.6,344.1,542.6,344.1z"/>
	<path class="st5" d="M450.4,29.8h-2.8c-0.2,0-0.3,0.1-0.3,0.3v77.5c0,0.2,0.1,0.3,0.3,0.3h2.8c0.2,0,0.3-0.1,0.3-0.3V30.1
		C450.7,29.9,450.6,29.8,450.4,29.8z"/>
	<path class="st5" d="M450.4,8.4h-2.8c-0.2,0-0.3,0.1-0.3,0.3v68.5c0,0.2,0.1,0.3,0.3,0.3h2.8c0.2,0,0.3-0.1,0.3-0.3V8.8
		C450.7,8.6,450.6,8.4,450.4,8.4z"/>
	<polygon points="447.2,88.7 443.2,112.3 454.1,112.3 450.7,88.7 	"/>
	<ellipse cx="448.7" cy="112.3" rx="5.5" ry="2.9"/>
</g>
<g>
	<path class="st3" d="M276.3,325.9l38.9,22.4l0-126.2c0,0-13.1,50.5-20.7,68.4C284.4,314.4,276.3,325.9,276.3,325.9z"/>
	<path class="st15" d="M353.7,326.2l-38.4,22.1l0-126.2c0,0,14,54,20.8,71.3C342.5,310.2,353.7,326.2,353.7,326.2z"/>
</g>
<g>
	<path class="st3" d="M409.2,402.3l38.9,22.4l0-126.2c0,0-13.1,50.5-20.7,68.4C417.3,390.9,409.2,402.3,409.2,402.3z"/>
	<path class="st15" d="M486.6,402.6l-38.4,22.1l0-126.2c0,0,14,54,20.8,71.3C475.4,386.6,486.6,402.6,486.6,402.6z"/>
</g>
<g>
	<path class="st3" d="M542.6,325.7l38.9,22.4l0-126.2c0,0-13.1,50.5-20.7,68.4C550.7,314.3,542.6,325.7,542.6,325.7z"/>
	<path class="st15" d="M619.9,326.1l-38.4,22.1l0-126.2c0,0,14,54,20.8,71.3C608.8,310,619.9,326.1,619.9,326.1z"/>
</g>
<polygon class="st5" points="447.4,14.4 447.4,66.3 494.3,61.4 "/>
<path id="cloud_66_" class="st8" d="M279.8,261.3c-8.4-4.8-15.7-3.1-19.2,3.6c-1.2-1-2.4-1.9-3.7-2.6c-7.4-4.3-13.7-2.5-16.1,3.8
	c-1.1-1-2.3-1.9-3.5-2.7c-6.5-3.7-11.7-0.7-11.7,6.8c0,7.5,5.2,16.5,11.7,20.3l42.5,24.5c11.9,6.9,21.5,0.4,21.5-14.4
	C301.3,285.8,291.7,268.2,279.8,261.3z"/>
<g id="XMLID_276_">
	<polygon id="XMLID_279_" class="st16" points="355.2,183.4 360.7,193.5 372.1,193.8 366.6,183.7 	"/>
	<polygon id="XMLID_278_" class="st17" points="355.2,183.4 361.2,173.7 372.6,174 366.6,183.7 	"/>
	<polygon id="XMLID_277_" class="st18" points="372.1,193.8 378.1,184 372.6,174 366.6,183.7 	"/>
</g>
<g id="XMLID_272_">
	<polygon id="XMLID_275_" class="st16" points="637.5,207.7 645,221.4 660.6,221.9 653.1,208.1 	"/>
	<polygon id="XMLID_274_" class="st17" points="637.5,207.7 645.7,194.4 661.3,194.8 653.1,208.1 	"/>
	<polygon id="XMLID_273_" class="st18" points="660.6,221.9 668.8,208.5 661.3,194.8 653.1,208.1 	"/>
</g>
<g id="XMLID_268_">
	<polygon id="XMLID_271_" class="st16" points="621.1,508.2 632.4,529.1 656.3,529.8 644.9,508.9 	"/>
	<polygon id="XMLID_270_" class="st17" points="621.1,508.2 633.6,487.9 657.4,488.6 644.9,508.9 	"/>
	<polygon id="XMLID_269_" class="st18" points="656.3,529.8 668.8,509.5 657.4,488.6 644.9,508.9 	"/>
</g>
<g id="XMLID_264_">
	<polygon id="XMLID_267_" class="st16" points="246.5,507.1 237.2,532.7 254.7,553.4 263.9,527.9 	"/>
	<polygon id="XMLID_266_" class="st17" points="246.5,507.1 273.2,502.4 290.7,523.2 263.9,527.9 	"/>
	<polygon id="XMLID_265_" class="st18" points="254.7,553.4 281.4,548.7 290.7,523.2 263.9,527.9 	"/>
</g>
<g id="XMLID_260_">
	<polygon id="XMLID_263_" class="st16" points="163.6,410.5 171.9,425.7 189.1,426.1 180.9,411 	"/>
	<polygon id="XMLID_262_" class="st17" points="163.6,410.5 172.7,395.8 189.9,396.2 180.9,411 	"/>
	<polygon id="XMLID_261_" class="st18" points="189.1,426.1 198.2,411.4 189.9,396.2 180.9,411 	"/>
</g>
<path class="st19" d="M512.8,565.2c0-2.5-1.4-4.7-3.6-5.8c-1.4-0.7-2.6-1.3-2.6-1.3l-21-12.1v26.8c1.1,0.9,1.8,2.2,1.8,3.7v8.6l0,0
	v45.9c-0.2,1.1-0.2,2.2-0.2,3.2l0.2,67.7c0,5.5,3.8,8,8.3,5.5c4.5-2.4,8.3-9,8.2-14.4l0-9.2c0.3,2.4,2.2,3.4,4.4,2.2
	c2.5-1.3,4.5-4.9,4.5-7.8l0-0.6c0,0,0,0,0-0.1V565.2z"/>
<path class="st19" d="M564.3,537.4c0-2.5-1.4-4.7-3.6-5.8c-1.4-0.7-2.6-1.3-2.6-1.3l-21-12.1V545c1.1,0.9,1.8,2.2,1.8,3.7v8.6l0,0
	V607c-0.2,1.1-0.2,2.2-0.2,3.2l0.2,36.7c0,5.5,3.8,8,8.3,5.5c4.5-2.4,8.3-9,8.2-14.4l0-9.2c0.3,2.4,2.2,3.4,4.4,2.2
	c2.5-1.3,4.5-4.9,4.5-7.8l-0.1-13.3c0-0.1,0.1-0.3,0.1-0.6V537.4z"/>
<g>
	<path class="st15" d="M349.5,535.6c0,0.1,0,0.2,0,0.2l22.9,13.2c0,0,0.1-12.7,0.1-26.6L349.5,535.6z"/>
	<path d="M370,497.7c-1.7-6.3-4.5-12-9.1-14.6c-6.3-3.6-9.2,3-10.4,10.4c-0.4,2.5-0.7,5-0.8,7.3c-0.3,4.7-0.2,32.5-0.2,34.8l23-13.2
		C372.5,507.3,371.1,501.5,370,497.7z"/>
</g>
<g>
	<path class="st15" d="M396.5,564.6c0,0.1,0,0.2,0,0.2l22.9,13.2c0,0,0.1-12.7,0.1-26.6L396.5,564.6z"/>
	<path d="M417,526.7c-1.7-6.3-4.5-12-9.1-14.6c-6.3-3.6-9.2,3-10.4,10.4c-0.4,2.5-0.7,5-0.8,7.3c-0.3,4.7-0.2,32.5-0.2,34.8l23-13.2
		C419.5,536.3,418.1,530.6,417,526.7z"/>
</g>
<path class="st20" d="M495.7,640.6c-0.5,0-1-0.4-1-1v-58.8c0-0.5,0.4-1,1-1c0.5,0,1,0.4,1,1v58.8
	C496.6,640.2,496.2,640.6,495.7,640.6z"/>
<path class="st20" d="M505.1,594.9c-0.5,0-1-0.4-1-1v-21c0-0.5,0.4-1,1-1c0.5,0,1,0.4,1,1v21C506.1,594.5,505.6,594.9,505.1,594.9z"
	/>
<path class="st20" d="M505.1,669.6c-0.5,0-1-0.4-1-1V612c0-0.5,0.4-1,1-1c0.5,0,1,0.4,1,1v56.6C506.1,669.1,505.6,669.6,505.1,669.6
	z"/>
<path class="st20" d="M495.7,662.6c-0.5,0-1-0.4-1-1v-7.5c0-0.5,0.4-1,1-1c0.5,0,1,0.4,1,1v7.5C496.6,662.2,496.2,662.6,495.7,662.6
	z"/>
<path class="st20" d="M547.2,612.8c-0.5,0-1-0.4-1-1v-58.8c0-0.5,0.4-1,1-1c0.5,0,1,0.4,1,1v58.8
	C548.1,612.4,547.7,612.8,547.2,612.8z"/>
<path class="st20" d="M556.6,567.1c-0.5,0-1-0.4-1-1v-21c0-0.5,0.4-1,1-1s1,0.4,1,1v21C557.6,566.7,557.1,567.1,556.6,567.1z"/>
<path class="st20" d="M556.6,614.8c-0.5,0-1-0.4-1-1v-34.6c0-0.5,0.4-1,1-1s1,0.4,1,1v34.6C557.6,614.3,557.1,614.8,556.6,614.8z"/>
<path class="st20" d="M547.2,634.8c-0.5,0-1-0.4-1-1v-7.5c0-0.5,0.4-1,1-1c0.5,0,1,0.4,1,1v7.5C548.1,634.4,547.7,634.8,547.2,634.8
	z"/>
<g id="XMLID_1_">
	<polygon id="XMLID_4_" class="st16" points="246.5,421.7 252,431.8 263.4,432.1 258,422 	"/>
	<polygon id="XMLID_3_" class="st17" points="246.5,421.7 252.5,412 264,412.3 258,422 	"/>
	<polygon id="XMLID_2_" class="st18" points="263.4,432.1 269.4,422.3 264,412.3 258,422 	"/>
</g>
<g id="XMLID_5_">
	<polygon id="XMLID_8_" class="st16" points="707.4,397.5 698.1,423 715.6,443.8 724.8,418.3 	"/>
	<polygon id="XMLID_7_" class="st17" points="707.4,397.5 734.1,392.8 751.6,413.6 724.8,418.3 	"/>
	<polygon id="XMLID_6_" class="st18" points="715.6,443.8 742.3,439.1 751.6,413.6 724.8,418.3 	"/>
</g>
<g id="XMLID_9_">
	<polygon id="XMLID_12_" class="st16" points="663.6,363.2 669,373.3 680.4,373.6 675,363.5 	"/>
	<polygon id="XMLID_11_" class="st17" points="663.6,363.2 669.5,353.5 681,353.8 675,363.5 	"/>
	<polygon id="XMLID_10_" class="st18" points="680.4,373.6 686.4,363.8 681,353.8 675,363.5 	"/>
</g>
<g id="XMLID_13_">
	<polygon id="XMLID_16_" class="st16" points="475.6,233.8 481.1,243.8 492.5,244.1 487.1,234.1 	"/>
	<polygon id="XMLID_15_" class="st17" points="475.6,233.8 481.6,224 493,224.3 487.1,234.1 	"/>
	<polygon id="XMLID_14_" class="st18" points="492.5,244.1 498.5,234.4 493,224.3 487.1,234.1 	"/>
</g>
</svg>
