<?xml version="1.0" encoding="utf-8"?>
<!-- Generator: Adobe Illustrator 21.1.0, SVG Export Plug-In . SVG Version: 6.00 Build 0)  -->
<svg version="1.1" id="Слой_1" xmlns="http://www.w3.org/2000/svg" xmlns:xlink="http://www.w3.org/1999/xlink" x="0px" y="0px"
	 viewBox="0 0 900 712" style="enable-background:new 0 0 900 712;" xml:space="preserve">
<style type="text/css">
	.st0{fill:#DA44D0;}
	.st1{fill:#B17EFD;}
	.st2{fill:#701EED;}
	.st3{fill:#FDDC03;}
	.st4{fill:#FFFFFF;}
	.st5{fill:#C7C255;}
	.st6{fill:#949D46;}
	.st7{fill:#D2D7EA;}
	.st8{fill:#F1A901;}
	.st9{fill:#975B40;}
	.st10{fill:#5911C6;}
	.st11{fill:#637A36;}
	.st12{fill:#B41CB4;}
</style>
<rect x="100" y="100" class="st0" width="700" height="512"/>
<g>
	<g>
		<g>
			<g>
				<polygon class="st1" points="564.3,413.2 598.9,433.3 633.8,413.2 599.2,393 				"/>
			</g>
		</g>
	</g>
	<path class="st2" d="M580.3,403.9l0,9.7c0,2.8,1.8,5.5,5.4,7.6c7.3,4.2,19.1,4.2,26.5,0c3.7-2.1,5.5-4.9,5.5-7.7c0-3.2,0-6.5,0-9.7
		c0,2.8-1.8,5.6-5.5,7.7c-7.3,4.2-19.2,4.2-26.5,0C582.2,409.4,580.3,406.7,580.3,403.9z"/>
	<g>
		<path class="st1" d="M585.9,396.2c-7.3,4.2-7.4,11.1-0.1,15.3c7.3,4.2,19.1,4.2,26.5,0c7.3-4.2,7.4-11.1,0.1-15.3
			C605,392,593.2,392,585.9,396.2z"/>
	</g>
</g>
<path id="cloud_75_" class="st3" d="M800.6,298.9c7.2-86-40.9-142.2-99.7-147.9C691.7,99.9,667.5,50,628.2,27.3
	c-57.4-33.1-123.8-17.7-134,47.6c-0.2,1.5,0,3,0,4.6c0,0-0.1,0-0.1,0c-44-25.4-80.2-3.7-81,48.4s34.2,114.9,78.2,140.3l291.8,167.6
	c36.8,21.2,71.9,0.8,77.5-37.4C865.7,363.2,848,315.8,800.6,298.9z"/>
<polygon class="st1" points="424.5,625.1 633.6,502.7 633.5,413.4 599,433.3 599,371.4 633.5,352.2 633.4,108.1 284.7,307.8 
	285.3,706.6 390,645.3 389.8,614 424.7,594 424.8,530.1 494.4,491 494.4,553.8 424.7,593.9 "/>
<path id="cloud_74_" class="st1" d="M46.8,332c11-37.6,41.5-67.8,80.1-73c9.5-47.1,42.9-96.9,82.3-119.1
	c41.4-23.3,75.5-8.3,81.9,33.1c0.1-0.1,0.3-0.2,0.4-0.2c29.3-16.5,52.7-2.7,52.5,30.8c22.7-5.5,39.1,9.1,38.8,37.6
	c-0.4,34.3-24.9,75.8-54.8,92.7L160,428.5C120.3,458.3,15.3,439.6,46.8,332z"/>
<g>
	<g>
		<g>
			<polygon points="177.1,466.4 177.1,450.9 142.4,430.7 142.4,446.2 142.4,446.1 142.4,461.6 177.1,481.8 177.1,466.3 			"/>
			<polygon class="st4" points="212,446.2 211.9,430.7 177.1,450.9 177.1,466.3 177.1,466.3 177.1,481.8 212,461.6 211.9,446.3 			
				"/>
			<g>
				<polygon class="st5" points="142.4,430.7 177.1,450.9 211.9,430.7 177.3,410.6 				"/>
			</g>
		</g>
	</g>
	<path class="st6" d="M158.5,421.5l0,9.7c0,2.8,1.8,5.5,5.4,7.6c7.3,4.2,19.1,4.2,26.5,0c3.7-2.1,5.5-4.9,5.5-7.7c0-3.2,0-6.5,0-9.7
		c0,2.8-1.8,5.6-5.5,7.7c-7.3,4.2-19.2,4.2-26.5,0C160.3,427,158.5,424.2,158.5,421.5z"/>
	<g>
		<path class="st5" d="M164,413.8c-7.3,4.2-7.4,11.1-0.1,15.3c7.3,4.2,19.1,4.2,26.5,0c7.3-4.2,7.4-11.1,0.1-15.3
			C183.2,409.5,171.3,409.5,164,413.8z"/>
	</g>
</g>
<g>
	<g>
		<g>
			<polygon points="703.8,328.8 703.7,313.3 669.1,293.2 669.1,308.6 669.1,308.6 669.1,324.1 703.8,344.2 703.7,328.8 			"/>
			<polygon class="st1" points="738.7,308.7 738.6,293.2 703.7,313.3 703.8,328.7 703.7,328.7 703.8,344.2 738.7,324.1 738.6,308.7 
							"/>
			<g>
				<polygon class="st1" points="669.1,293.2 703.7,313.3 738.6,293.2 704,273 				"/>
			</g>
		</g>
	</g>
	<path class="st2" d="M685.2,283.9l0,9.7c0,2.8,1.8,5.5,5.4,7.6c7.3,4.2,19.1,4.2,26.5,0c3.7-2.1,5.5-4.9,5.5-7.7c0-3.2,0-6.5,0-9.7
		c0,2.8-1.8,5.6-5.5,7.7c-7.3,4.2-19.2,4.2-26.5,0C687,289.4,685.2,286.7,685.2,283.9z"/>
	<g>
		<path class="st1" d="M690.7,276.2c-7.3,4.2-7.4,11.1-0.1,15.3c7.3,4.2,19.1,4.2,26.5,0c7.3-4.2,7.4-11.1,0.1-15.3
			C709.9,272,698,272,690.7,276.2z"/>
	</g>
</g>
<g>
	<g>
		<g>
			<polygon points="177.1,435.8 177.1,420.3 142.4,400.2 142.4,415.6 142.4,415.6 142.4,431.1 177.1,451.2 177.1,435.8 			"/>
			<polygon class="st4" points="212,415.7 211.9,400.2 177.1,420.3 177.1,435.7 177.1,435.8 177.1,451.2 212,431.1 211.9,415.7 			
				"/>
			<g>
				<polygon class="st4" points="142.4,400.2 177.1,420.3 211.9,400.2 177.3,380.1 				"/>
			</g>
		</g>
	</g>
	<path class="st7" d="M158.5,391l0,9.7c0,2.8,1.8,5.5,5.4,7.6c7.3,4.2,19.1,4.2,26.5,0c3.7-2.1,5.5-4.9,5.5-7.7c0-3.2,0-6.5,0-9.7
		c0,2.8-1.8,5.6-5.5,7.7c-7.3,4.2-19.2,4.2-26.5,0C160.3,396.5,158.5,393.7,158.5,391z"/>
	<g>
		<path class="st4" d="M164,383.2c-7.3,4.2-7.4,11.1-0.1,15.3c7.3,4.2,19.1,4.2,26.5,0c7.3-4.2,7.4-11.1,0.1-15.3
			C183.2,379,171.3,379,164,383.2z"/>
	</g>
</g>
<g>
	<polygon class="st1" points="599,464.4 529.2,504.7 529.2,520.1 529.2,520.1 529.2,535.6 599,495.3 	"/>
	<polygon class="st2" points="599,464.4 529.2,504.7 529.2,521.6 599,481.3 	"/>
	<line class="st7" x1="599" y1="489.3" x2="599" y2="485.4"/>
</g>
<path class="st3" d="M547.7,217.7c0-10.4,7.3-23.2,16.4-28.4c9-5.2,16.4-1,16.4,9.5c0,10.5-7.3,23.2-16.4,28.4
	C555.1,232.4,547.7,228.1,547.7,217.7z"/>
<path class="st8" d="M320.1,440.7L320,407c36.3-35.3,55.4-101.5,91.6-111.6s44.8,33.9,82.7,13.8l0,30.9L320.1,440.7z"/>
<g>
	<path class="st9" d="M368.2,322.6c3.6,2.1,5.4,4.9,5.4,7.6c0,0,0,0,0,0c0,0,0,0,0,0l16,9.3l0,0l0-15.4v-15.5l-22.8,13.2
		C367.3,322.1,367.8,322.3,368.2,322.6z"/>
	<path class="st5" d="M373.7,339.8c0,2.8-1.8,5.6-5.5,7.7c-3.7,2.1-8.5,3.2-13.2,3.2l0,8.9l21.4-12.4l13.3-7.7l-16-9.3
		C373.7,333.4,373.7,336.6,373.7,339.8z"/>
	<path class="st6" d="M373.6,330.7c0,0.2,0,0.3,0,0.5c0,0.2-0.1,0.4-0.1,0.5c0,0.2-0.1,0.3-0.1,0.5c-0.1,0.2-0.2,0.4-0.2,0.6
		c-0.1,0.2-0.1,0.3-0.2,0.5c-0.1,0.2-0.2,0.4-0.4,0.6c-0.1,0.1-0.2,0.3-0.3,0.4c-0.1,0.2-0.3,0.4-0.5,0.6c-0.1,0.1-0.2,0.2-0.3,0.4
		c-0.2,0.2-0.4,0.4-0.7,0.7c-0.1,0.1-0.2,0.2-0.3,0.3c-0.3,0.2-0.6,0.5-0.9,0.7c-0.1,0.1-0.1,0.1-0.2,0.2c-0.4,0.3-0.8,0.6-1.3,0.8
		c-3.7,2.1-8.4,3.2-13.2,3.2l0,3.1l0,0l0,6.5c4.8,0,9.6-1.1,13.2-3.2c3.7-2.1,5.5-4.9,5.5-7.7c0-3.2,0-6.4,0-9.6l0,0
		C373.7,330.4,373.6,330.6,373.6,330.7z"/>
	<path class="st5" d="M373.7,330.2c0-2.8-1.8-5.5-5.4-7.6c-0.4-0.3-0.9-0.5-1.4-0.7l-4.3,2.5l-7.6,4.4l0,12.3
		c4.8,0,9.6-1.1,13.2-3.2c0.5-0.3,0.9-0.5,1.3-0.8c0.1-0.1,0.1-0.1,0.2-0.2c0.3-0.2,0.6-0.5,0.9-0.7c0.1-0.1,0.2-0.2,0.3-0.3
		c0.2-0.2,0.5-0.4,0.7-0.7c0.1-0.1,0.2-0.2,0.3-0.4c0.2-0.2,0.3-0.4,0.5-0.6c0.1-0.1,0.2-0.3,0.3-0.4c0.1-0.2,0.3-0.4,0.4-0.6
		c0.1-0.2,0.1-0.3,0.2-0.5c0.1-0.2,0.2-0.4,0.2-0.6c0.1-0.2,0.1-0.3,0.1-0.5c0-0.2,0.1-0.4,0.1-0.5c0-0.2,0-0.3,0-0.5
		C373.6,330.6,373.7,330.4,373.7,330.2L373.7,330.2L373.7,330.2z"/>
</g>
<polygon class="st2" points="319.7,318.6 494.1,218.6 494.4,340.1 320.1,440.7 "/>
<polygon class="st2" points="529.7,197.4 599.5,157.6 599.5,218.5 529.7,258.8 "/>
<g>
	<path d="M403.2,241.3c3.6,2.1,5.4,4.9,5.4,7.6c0,0,0,0,0,0c0,0,0,0,0,0l16,9.3l0,0l0-15.4v-15.5l-22.8,13.2
		C402.3,240.8,402.7,241,403.2,241.3z"/>
	<path class="st1" d="M408.6,258.6c0,2.8-1.8,5.6-5.5,7.7c-3.7,2.1-8.5,3.2-13.2,3.2l0,8.9l21.4-12.4l13.3-7.7l-16-9.3
		C408.6,252.1,408.6,255.3,408.6,258.6z"/>
	<path class="st2" d="M408.6,249.5c0,0.2,0,0.3,0,0.5c0,0.2-0.1,0.4-0.1,0.5c0,0.2-0.1,0.3-0.1,0.5c-0.1,0.2-0.2,0.4-0.2,0.6
		c-0.1,0.2-0.1,0.3-0.2,0.5c-0.1,0.2-0.2,0.4-0.4,0.6c-0.1,0.1-0.2,0.3-0.3,0.4c-0.1,0.2-0.3,0.4-0.5,0.6c-0.1,0.1-0.2,0.2-0.3,0.4
		c-0.2,0.2-0.4,0.4-0.7,0.7c-0.1,0.1-0.2,0.2-0.3,0.3c-0.3,0.2-0.6,0.5-0.9,0.7c-0.1,0.1-0.1,0.1-0.2,0.2c-0.4,0.3-0.8,0.6-1.3,0.8
		c-3.7,2.1-8.4,3.2-13.2,3.2l0,3.1l0,0l0,6.5c4.8,0,9.6-1.1,13.2-3.2c3.7-2.1,5.5-4.9,5.5-7.7c0-3.2,0-6.4,0-9.6l0,0
		C408.6,249.1,408.6,249.3,408.6,249.5z"/>
	<path class="st1" d="M408.6,248.9c0-2.8-1.8-5.5-5.4-7.6c-0.4-0.3-0.9-0.5-1.4-0.7l-4.3,2.5l-7.6,4.4l0,12.3
		c4.8,0,9.6-1.1,13.2-3.2c0.5-0.3,0.9-0.5,1.3-0.8c0.1-0.1,0.1-0.1,0.2-0.2c0.3-0.2,0.6-0.5,0.9-0.7c0.1-0.1,0.2-0.2,0.3-0.3
		c0.2-0.2,0.5-0.4,0.7-0.7c0.1-0.1,0.2-0.2,0.3-0.4c0.2-0.2,0.3-0.4,0.5-0.6c0.1-0.1,0.2-0.3,0.3-0.4c0.1-0.2,0.3-0.4,0.4-0.6
		c0.1-0.2,0.1-0.3,0.2-0.5c0.1-0.2,0.2-0.4,0.2-0.6c0.1-0.2,0.1-0.3,0.1-0.5c0-0.2,0.1-0.4,0.1-0.5c0-0.2,0-0.3,0-0.5
		C408.6,249.3,408.6,249.1,408.6,248.9L408.6,248.9L408.6,248.9z"/>
</g>
<polygon class="st4" points="320,471.7 389.8,431.2 389.8,614 320.1,654.5 "/>
<polygon class="st3" points="424.6,411.1 494.1,371.4 494.5,491 424.7,530.2 "/>
<polygon points="250.3,257 284.9,277.1 285.5,706.8 250.9,686.6 "/>
<path class="st3" d="M320.2,440.7l-0.1-33.7c36.3-35.3,55.4-101.5,91.6-111.6s44.8,33.9,82.7,13.8l0,30.9L320.2,440.7z"/>
<g>
	<path d="M366.5,325.1c3.6,2.1,5.4,4.9,5.4,7.6c0,0,0,0,0,0c0,0,0,0,0,0l16,9.3l0,0l0-15.4v-15.5l-22.8,13.2
		C365.6,324.6,366.1,324.9,366.5,325.1z"/>
	<path class="st3" d="M372,342.4c0,2.8-1.8,5.6-5.5,7.7c-3.7,2.1-8.5,3.2-13.2,3.2l0,8.9l21.4-12.4l13.3-7.7l-16-9.3
		C372,336,372,339.2,372,342.4z"/>
	<path class="st8" d="M371.9,333.3c0,0.2,0,0.3,0,0.5c0,0.2-0.1,0.4-0.1,0.5c0,0.2-0.1,0.3-0.1,0.5c-0.1,0.2-0.2,0.4-0.2,0.6
		c-0.1,0.2-0.1,0.3-0.2,0.5c-0.1,0.2-0.2,0.4-0.4,0.6c-0.1,0.1-0.2,0.3-0.3,0.4c-0.1,0.2-0.3,0.4-0.5,0.6c-0.1,0.1-0.2,0.2-0.3,0.4
		c-0.2,0.2-0.4,0.4-0.7,0.7c-0.1,0.1-0.2,0.2-0.3,0.3c-0.3,0.2-0.6,0.5-0.9,0.7c-0.1,0.1-0.1,0.1-0.2,0.2c-0.4,0.3-0.8,0.6-1.3,0.8
		c-3.7,2.1-8.4,3.2-13.2,3.2l0,3.1l0,0l0,6.5c4.8,0,9.6-1.1,13.2-3.2c3.7-2.1,5.5-4.9,5.5-7.7c0-3.2,0-6.4,0-9.6l0,0
		C372,332.9,371.9,333.1,371.9,333.3z"/>
	<path class="st3" d="M372,332.7c0-2.8-1.8-5.5-5.4-7.6c-0.4-0.3-0.9-0.5-1.4-0.7l-4.3,2.5l-7.6,4.4l0,12.3c4.8,0,9.6-1.1,13.2-3.2
		c0.5-0.3,0.9-0.5,1.3-0.8c0.1-0.1,0.1-0.1,0.2-0.2c0.3-0.2,0.6-0.5,0.9-0.7c0.1-0.1,0.2-0.2,0.3-0.3c0.2-0.2,0.5-0.4,0.7-0.7
		c0.1-0.1,0.2-0.2,0.3-0.4c0.2-0.2,0.3-0.4,0.5-0.6c0.1-0.1,0.2-0.3,0.3-0.4c0.1-0.2,0.3-0.4,0.4-0.6c0.1-0.2,0.1-0.3,0.2-0.5
		c0.1-0.2,0.2-0.4,0.2-0.6c0.1-0.2,0.1-0.3,0.1-0.5c0-0.2,0.1-0.4,0.1-0.5c0-0.2,0-0.3,0-0.5C371.9,333.1,372,332.9,372,332.7
		L372,332.7L372,332.7z"/>
</g>
<g>
	<g>
		<polygon class="st1" points="599.5,249.5 529.7,289.8 529.7,305.1 529.7,305.2 529.7,320.7 599.5,280.4 		"/>
		<polygon class="st2" points="599.5,249.5 529.7,289.8 529.7,306.7 599.5,266.4 		"/>
		<line class="st7" x1="599.5" y1="274.4" x2="599.5" y2="270.5"/>
	</g>
	<g>
		<polygon class="st1" points="599.5,279.5 529.7,319.8 529.7,335.1 529.7,335.2 529.7,350.7 599.5,310.4 		"/>
		<polygon class="st2" points="599.5,279.5 573.5,294.5 573.5,311.4 599.5,296.4 		"/>
		<polygon class="st2" points="569.3,296.9 529.7,319.8 529.7,336.7 569.3,313.8 		"/>
		<line class="st7" x1="599.5" y1="304.4" x2="599.5" y2="300.5"/>
	</g>
	<g>
		<polygon class="st1" points="599.5,310.5 529.7,350.8 529.7,366.1 529.7,366.2 529.7,381.7 599.5,341.4 		"/>
		<polygon class="st2" points="599.5,310.5 529.7,350.8 529.7,367.7 599.5,327.4 		"/>
		<line class="st7" x1="599.5" y1="335.4" x2="599.5" y2="331.5"/>
	</g>
	<g>
		<polygon class="st1" points="599.5,341.5 529.7,381.8 529.7,397.2 529.7,397.2 529.7,412.7 599.5,372.4 		"/>
		<polygon class="st2" points="544.6,373.2 529.7,381.8 529.7,398.7 544.6,390.1 		"/>
		<polygon class="st2" points="599.5,341.5 549.3,370.4 549.3,387.3 599.5,358.4 		"/>
		<line class="st7" x1="599.5" y1="366.4" x2="599.5" y2="362.5"/>
	</g>
	<g>
		<polygon class="st1" points="599.5,371.5 529.7,411.8 529.7,427.2 529.7,427.2 529.7,442.7 599.5,402.4 		"/>
		<polygon class="st2" points="599.5,371.5 529.7,411.8 529.7,428.7 599.5,388.4 		"/>
		<line class="st7" x1="599.5" y1="396.4" x2="599.5" y2="392.5"/>
	</g>
	<g>
		<polygon class="st1" points="599.5,433.3 529.7,473.6 529.7,489 529.7,489 529.7,504.5 599.5,464.2 		"/>
		<polygon class="st2" points="599.5,433.3 529.7,473.6 529.7,490.5 599.5,450.2 		"/>
		<line class="st7" x1="599.5" y1="458.2" x2="599.5" y2="454.3"/>
	</g>
	<g>
		<polygon class="st1" points="599.5,402.4 529.7,442.7 529.7,458.1 529.7,458.1 529.7,473.6 599.5,433.3 		"/>
		<polygon class="st2" points="599.5,402.4 573.5,417.5 573.5,434.4 599.5,419.3 		"/>
		<polygon class="st2" points="569.3,419.9 529.7,442.7 529.7,459.6 569.3,436.8 		"/>
		<line class="st7" x1="599.5" y1="427.3" x2="599.5" y2="423.4"/>
	</g>
	<g>
		<polygon class="st1" points="599.5,218.5 529.7,258.8 529.7,274.2 529.7,274.2 529.7,289.7 599.5,249.4 		"/>
		<polygon class="st2" points="599.5,217.9 529.7,257.3 529.7,275.7 599.5,235.3 		"/>
		<line class="st7" x1="599.5" y1="243.4" x2="599.5" y2="239.5"/>
	</g>
</g>
<g>
	<polygon class="st1" points="320,562.4 320,522.1 345.5,507.6 355.1,512.9 364.8,507.5 389.9,522.1 	"/>
	<path class="st2" d="M338.8,533.5c0,0.2,0,0.3,0,0.5c0,0.2-0.1,0.4-0.1,0.6c0,0.2-0.1,0.3-0.1,0.5c-0.1,0.2-0.2,0.4-0.2,0.5
		c-0.1,0.2-0.1,0.3-0.2,0.5c-0.1,0.2-0.2,0.4-0.3,0.5c-0.1,0.2-0.2,0.3-0.3,0.5c-0.1,0.2-0.3,0.3-0.4,0.5c-0.1,0.2-0.2,0.3-0.4,0.5
		c-0.2,0.2-0.3,0.3-0.5,0.5c-0.1,0.1-0.3,0.3-0.4,0.4c-0.2,0.2-0.4,0.3-0.6,0.5c-0.2,0.1-0.3,0.3-0.5,0.4c-0.4,0.3-0.8,0.6-1.3,0.8
		c-3.7,2.1-8.5,3.2-13.3,3.2v9.7c4.8,0,9.6-1,13.3-3.2c3.7-2.1,5.5-4.9,5.5-7.7c0-3.2,0-6.4,0-9.6c0,0,0,0,0,0c0,0,0,0,0,0
		C338.9,533.1,338.8,533.3,338.8,533.5z"/>
	<path class="st1" d="M320,543.8c4.8,0,9.6-1,13.3-3.2c0.5-0.3,0.9-0.5,1.3-0.8c0.2-0.1,0.3-0.2,0.5-0.4c0.2-0.2,0.4-0.3,0.6-0.5
		c0.2-0.1,0.3-0.3,0.4-0.4c0.2-0.2,0.4-0.3,0.5-0.5c0.1-0.1,0.2-0.3,0.4-0.5c0.1-0.2,0.3-0.3,0.4-0.5c0.1-0.2,0.2-0.3,0.3-0.5
		c0.1-0.2,0.2-0.4,0.3-0.5c0.1-0.2,0.1-0.3,0.2-0.5c0.1-0.2,0.2-0.4,0.2-0.5c0.1-0.2,0.1-0.3,0.1-0.5c0-0.2,0.1-0.4,0.1-0.6
		c0-0.2,0-0.3,0-0.5c0-0.2,0-0.4,0-0.6c0-2.8-1.8-5.5-5.4-7.6c-3.6-2.1-8.4-3.2-13.2-3.2c0,0,0,0,0,0c-0.1,0-0.1,0-0.2,0V543.8z"/>
	<path class="st0" d="M336.4,512.8c0-2.8,1.8-5.6,5.5-7.7c3.6-2.1,8.3-3.1,13.1-3.2l0-19.9l-35,20.2v19.8c0.1,0,0.1,0,0.2,0l0,0l0,0
		c0,0,0.1,0,0.1,0l0,0L336.4,512.8z"/>
	<polygon points="364.6,507.4 389.9,522.1 389.9,522.1 389.8,493 	"/>
	<path class="st2" d="M373.8,513.8c0,0.2-0.1,0.4-0.1,0.6c0,0.2-0.1,0.3-0.1,0.5c-0.1,0.2-0.2,0.4-0.2,0.6c-0.1,0.2-0.1,0.3-0.2,0.5
		c-0.1,0.2-0.2,0.4-0.3,0.5c-0.1,0.2-0.2,0.3-0.3,0.5c-0.1,0.2-0.3,0.4-0.4,0.5c-0.1,0.1-0.2,0.3-0.4,0.4c-0.2,0.2-0.4,0.4-0.5,0.5
		c-0.1,0.1-0.3,0.3-0.4,0.4c-0.2,0.2-0.5,0.4-0.7,0.6c-0.1,0.1-0.3,0.2-0.4,0.3c-0.4,0.3-0.8,0.6-1.3,0.8c-7.3,4.2-19.2,4.2-26.5,0
		c-0.5-0.3-0.9-0.5-1.3-0.8c-0.2-0.1-0.3-0.3-0.5-0.4c-0.2-0.2-0.4-0.3-0.6-0.5c-0.2-0.1-0.3-0.3-0.5-0.5c-0.2-0.2-0.3-0.3-0.5-0.5
		c-0.1-0.2-0.3-0.3-0.4-0.5c-0.1-0.2-0.3-0.3-0.4-0.5c-0.1-0.2-0.2-0.3-0.3-0.5c-0.1-0.2-0.2-0.3-0.3-0.5c-0.1-0.2-0.1-0.3-0.2-0.5
		c-0.1-0.2-0.2-0.4-0.2-0.5c-0.1-0.2-0.1-0.3-0.1-0.5c0-0.2-0.1-0.4-0.1-0.5c0-0.2,0-0.3,0-0.5c0-0.2,0-0.3,0-0.5l0,9.7
		c0,2.8,1.8,5.5,5.4,7.6c7.3,4.2,19.1,4.2,26.5,0c3.7-2.1,5.5-4.9,5.5-7.7c0-3.2,0-6.4,0-9.6c0,0.2,0,0.4,0,0.6
		C373.8,513.5,373.8,513.6,373.8,513.8z"/>
	<path class="st1" d="M373.8,512.8c0-2.7-1.8-5.5-5.3-7.6l-4.5,2.6l-9,5.2l0-10.9l0-0.1c-4.7,0-9.5,1.1-13.1,3.2
		c-3.7,2.1-5.5,4.9-5.5,7.7c0,0.2,0,0.4,0,0.5c0,0.2,0,0.3,0,0.5c0,0.2,0.1,0.4,0.1,0.5c0,0.2,0.1,0.3,0.1,0.5
		c0.1,0.2,0.1,0.4,0.2,0.5c0.1,0.2,0.1,0.3,0.2,0.5c0.1,0.2,0.2,0.3,0.3,0.5c0.1,0.2,0.2,0.3,0.3,0.5c0.1,0.2,0.3,0.3,0.4,0.5
		c0.1,0.2,0.2,0.3,0.4,0.5c0.1,0.2,0.3,0.3,0.5,0.5c0.2,0.2,0.3,0.3,0.5,0.5c0.2,0.2,0.4,0.3,0.6,0.5c0.2,0.1,0.3,0.3,0.5,0.4
		c0.4,0.3,0.8,0.6,1.3,0.8c7.3,4.2,19.1,4.2,26.5,0c0.5-0.3,0.9-0.5,1.3-0.8c0.1-0.1,0.3-0.2,0.4-0.3c0.2-0.2,0.5-0.4,0.7-0.6
		c0.1-0.1,0.3-0.3,0.4-0.4c0.2-0.2,0.4-0.4,0.5-0.5c0.1-0.1,0.2-0.3,0.4-0.4c0.1-0.2,0.3-0.4,0.4-0.5c0.1-0.1,0.2-0.3,0.3-0.5
		c0.1-0.2,0.2-0.4,0.3-0.5c0.1-0.2,0.1-0.3,0.2-0.5c0.1-0.2,0.2-0.4,0.2-0.6c0.1-0.2,0.1-0.3,0.1-0.5c0-0.2,0.1-0.4,0.1-0.6
		c0-0.2,0-0.3,0-0.5C373.8,513.2,373.8,513,373.8,512.8l-0.3-0.1L373.8,512.8C373.8,512.8,373.8,512.8,373.8,512.8z"/>
	<polygon points="355,482.1 355,482.1 355,482.1 328.4,497.4 355.1,512.9 	"/>
</g>
<g>
	<polygon points="494.5,491 494.4,553.8 459.5,533.8 459.5,510.6 	"/>
	<g>
		<g>
			<g>
				<g>
					<polygon class="st1" points="424.8,553.8 459.5,573.9 494.4,553.8 459.7,533.6 					"/>
				</g>
			</g>
		</g>
		<path class="st2" d="M440.9,544.5l0,9.7c0,2.8,1.8,5.5,5.4,7.6c7.3,4.2,19.1,4.2,26.5,0c3.7-2.1,5.5-4.9,5.5-7.7
			c0-3.2,0-6.5,0-9.7c0,2.8-1.8,5.6-5.5,7.7c-7.3,4.2-19.2,4.2-26.5,0C442.7,550,440.9,547.3,440.9,544.5z"/>
		<g>
			<path class="st1" d="M446.4,536.8c-7.3,4.2-7.4,11.1-0.1,15.3c7.3,4.2,19.1,4.2,26.5,0c7.3-4.2,7.4-11.1,0.1-15.3
				C465.6,532.6,453.7,532.6,446.4,536.8z"/>
		</g>
	</g>
	<g>
		<path class="st1" d="M443.5,564.5c0,3.2,0,6.4,0,9.6c0,2.8-1.8,5.6-5.5,7.7c-3.7,2.1-8.5,3.2-13.3,3.2v8.9l34.9-20.1L443.5,564.5z
			"/>
		<path class="st2" d="M443.5,564.9c0,0.2,0,0.4,0,0.6c0,0.2-0.1,0.3-0.1,0.5c0,0.2-0.1,0.3-0.1,0.5c-0.1,0.2-0.2,0.4-0.2,0.5
			c-0.1,0.2-0.1,0.3-0.2,0.5c-0.1,0.2-0.2,0.4-0.3,0.6c-0.1,0.1-0.2,0.3-0.3,0.4c-0.1,0.2-0.3,0.4-0.4,0.6c-0.1,0.1-0.2,0.3-0.3,0.4
			c-0.2,0.2-0.4,0.4-0.6,0.6c-0.1,0.1-0.2,0.2-0.4,0.4c-0.2,0.2-0.5,0.4-0.8,0.6c-0.1,0.1-0.2,0.2-0.4,0.3c-0.4,0.3-0.8,0.6-1.3,0.8
			c-3.7,2.1-8.5,3.2-13.3,3.2v9.7c4.8,0,9.6-1,13.3-3.2c3.7-2.1,5.5-4.9,5.5-7.7c0-3.2,0-6.4,0-9.6c0,0,0,0,0,0c0,0,0,0,0,0
			c0,0,0,0,0,0C443.5,564.6,443.5,564.8,443.5,564.9z"/>
		<path class="st1" d="M438,572.1c0.5-0.3,0.9-0.5,1.3-0.8c0.1-0.1,0.2-0.2,0.4-0.3c0.3-0.2,0.5-0.4,0.8-0.6
			c0.1-0.1,0.2-0.2,0.4-0.4c0.2-0.2,0.4-0.4,0.6-0.6c0.1-0.1,0.2-0.3,0.3-0.4c0.2-0.2,0.3-0.4,0.4-0.6c0.1-0.1,0.2-0.3,0.3-0.4
			c0.1-0.2,0.2-0.4,0.3-0.6c0.1-0.2,0.1-0.3,0.2-0.5c0.1-0.2,0.2-0.4,0.2-0.5c0.1-0.2,0.1-0.3,0.1-0.5c0-0.2,0.1-0.3,0.1-0.5
			c0-0.2,0-0.4,0-0.6c0-0.2,0-0.3,0-0.5c0,0,0,0,0,0h0c0-2.8-1.8-5.5-5.4-7.6c-3.6-2.1-8.4-3.2-13.2-3.2l0,0l0,0c-0.1,0-0.1,0-0.2,0
			v21.7C429.5,575.3,434.3,574.3,438,572.1z"/>
	</g>
</g>
<g>
	<g>
		<g>
			<polygon points="634.2,162.8 634.2,147.3 599.5,127.1 599.5,142.6 599.5,142.5 599.5,158 634.2,178.2 634.2,162.7 			"/>
			<polygon class="st2" points="669.1,142.6 669,127.1 634.2,147.3 634.2,162.7 634.2,162.7 634.2,178.2 669.1,158 669,142.7 			"/>
			<g>
				<polygon class="st2" points="599.5,127.1 634.2,147.3 669,127.1 634.4,107 				"/>
			</g>
		</g>
	</g>
	<path class="st10" d="M615.6,117.9l0,9.7c0,2.8,1.8,5.5,5.4,7.6c7.3,4.2,19.1,4.2,26.5,0c3.7-2.1,5.5-4.9,5.5-7.7
		c0-3.2,0-6.5,0-9.7c0,2.8-1.8,5.6-5.5,7.7c-7.3,4.2-19.2,4.2-26.5,0C617.4,123.4,615.6,120.6,615.6,117.9z"/>
	<g>
		<path class="st2" d="M621.1,110.2c-7.3,4.2-7.4,11.1-0.1,15.3c7.3,4.2,19.1,4.2,26.5,0c7.3-4.2,7.4-11.1,0.1-15.3
			C640.3,105.9,628.4,105.9,621.1,110.2z"/>
	</g>
</g>
<g>
	<g>
		<g>
			<polygon points="599.4,182.9 599.4,167.5 564.7,147.3 564.7,162.8 564.7,162.7 564.7,178.2 599.4,198.4 599.4,182.9 			"/>
			<polygon class="st2" points="634.3,162.8 634.2,147.3 599.4,167.5 599.4,182.8 599.4,182.9 599.4,198.4 634.3,178.2 634.2,162.8 
							"/>
			<g>
				<polygon class="st2" points="564.7,147.3 599.4,167.5 634.2,147.3 599.6,127.2 				"/>
			</g>
		</g>
	</g>
	<path class="st10" d="M580.8,138.1l0,9.7c0,2.8,1.8,5.5,5.4,7.6c7.3,4.2,19.1,4.2,26.5,0c3.7-2.1,5.5-4.9,5.5-7.7
		c0-3.2,0-6.5,0-9.7c0,2.8-1.8,5.6-5.5,7.7c-7.3,4.2-19.2,4.2-26.5,0C582.6,143.6,580.8,140.8,580.8,138.1z"/>
	<g>
		<path class="st2" d="M586.3,130.4c-7.3,4.2-7.4,11.1-0.1,15.3c7.3,4.2,19.1,4.2,26.5,0c7.3-4.2,7.4-11.1,0.1-15.3
			C605.5,126.1,593.6,126.1,586.3,130.4z"/>
	</g>
</g>
<g>
	<polygon class="st2" points="389.5,216.9 389.6,247.8 564.9,147.8 564.3,116.9 	"/>
	<polygon class="st2" points="389.5,216.9 354.3,197 529.1,97 564.3,116.9 	"/>
	<g>
		<path class="st10" d="M510.8,107.6l0,9.7c0,2.8,1.8,5.5,5.4,7.6c7.3,4.2,19.1,4.2,26.5,0c3.7-2.1,5.5-4.9,5.5-7.7
			c0-3.2,0-6.5,0-9.7c0,2.8-1.8,5.6-5.5,7.7c-7.3,4.2-19.2,4.2-26.5,0C512.6,113.1,510.8,110.4,510.8,107.6z"/>
		<g>
			<path class="st2" d="M516.3,99.9c-7.3,4.2-7.4,11.1-0.1,15.3c7.3,4.2,19.1,4.2,26.5,0c7.3-4.2,7.4-11.1,0.1-15.3
				C535.5,95.7,523.7,95.7,516.3,99.9z"/>
		</g>
		<path class="st10" d="M475.9,127.1l0,9.7c0,2.8,1.8,5.5,5.4,7.6c7.3,4.2,19.1,4.2,26.5,0c3.7-2.1,5.5-4.9,5.5-7.7
			c0-3.2,0-6.5,0-9.7c0,2.8-1.8,5.6-5.5,7.7c-7.3,4.2-19.2,4.2-26.5,0C477.8,132.6,475.9,129.8,475.9,127.1z"/>
		<g>
			<path class="st2" d="M481.5,119.4c-7.3,4.2-7.4,11.1-0.1,15.3c7.3,4.2,19.1,4.2,26.5,0c7.3-4.2,7.4-11.1,0.1-15.3
				C500.6,115.1,488.8,115.1,481.5,119.4z"/>
		</g>
		<path class="st10" d="M441,147.3l0,9.7c0,2.8,1.8,5.5,5.4,7.6c7.3,4.2,19.1,4.2,26.5,0c3.7-2.1,5.5-4.9,5.5-7.7c0-3.2,0-6.5,0-9.7
			c0,2.8-1.8,5.6-5.5,7.7c-7.3,4.2-19.2,4.2-26.5,0C442.8,152.8,441,150.1,441,147.3z"/>
		<g>
			<path class="st2" d="M446.5,139.6c-7.3,4.2-7.4,11.1-0.1,15.3c7.3,4.2,19.1,4.2,26.5,0c7.3-4.2,7.4-11.1,0.1-15.3
				C465.7,135.4,453.9,135.4,446.5,139.6z"/>
		</g>
		<path class="st10" d="M406.3,167.4l0,9.7c0,2.8,1.8,5.5,5.4,7.6c7.3,4.2,19.1,4.2,26.5,0c3.7-2.1,5.5-4.9,5.5-7.7
			c0-3.2,0-6.5,0-9.7c0,2.8-1.8,5.6-5.5,7.7c-7.3,4.2-19.2,4.2-26.5,0C408.1,172.9,406.3,170.1,406.3,167.4z"/>
		<g>
			<path class="st2" d="M411.8,159.7c-7.3,4.2-7.4,11.1-0.1,15.3c7.3,4.2,19.1,4.2,26.5,0c7.3-4.2,7.4-11.1,0.1-15.3
				C431,155.4,419.1,155.4,411.8,159.7z"/>
		</g>
		<path class="st10" d="M371.4,187.8l0,9.7c0,2.8,1.8,5.5,5.4,7.6c7.3,4.2,19.1,4.2,26.5,0c3.7-2.1,5.5-4.9,5.5-7.7
			c0-3.2,0-6.5,0-9.7c0,2.8-1.8,5.6-5.5,7.7c-7.3,4.2-19.2,4.2-26.5,0C373.2,193.3,371.4,190.5,371.4,187.8z"/>
		<g>
			<path class="st2" d="M376.9,180.1c-7.3,4.2-7.4,11.1-0.1,15.3c7.3,4.2,19.1,4.2,26.5,0c7.3-4.2,7.4-11.1,0.1-15.3
				C396.1,175.8,384.2,175.8,376.9,180.1z"/>
		</g>
	</g>
</g>
<path id="cloud_73_" class="st4" d="M597.5,496c18.9-10.9,35.3-6.9,43.3,8.1c2.7-2.2,5.4-4.2,8.3-5.8c16.7-9.6,30.9-5.6,36.2,8.5
	c2.5-2.4,5.2-4.4,7.9-6c14.5-8.4,26.3-1.6,26.3,15.2c0,16.8-11.8,37.2-26.3,45.6l-95.7,55.2c-26.8,15.5-48.5,0.9-48.5-32.4
	S570.8,511.5,597.5,496z"/>
<g>
	<g>
		<g>
			<g>
				<polygon class="st11" points="597.6,645.1 597.6,629.6 562.9,609.5 563,624.9 562.9,624.9 563,640.4 597.6,660.5 597.6,645.1 
									"/>
				<polygon class="st3" points="632.5,625 632.5,609.5 597.6,629.6 597.6,645 597.6,645 597.6,660.5 632.5,640.4 632.5,625 				"/>
				<g>
					<polygon class="st5" points="562.9,609.5 597.6,629.6 632.5,609.5 597.8,589.4 					"/>
				</g>
			</g>
		</g>
		<path class="st6" d="M579,600.3l0,9.7c0,2.8,1.8,5.5,5.4,7.6c7.3,4.2,19.1,4.2,26.5,0c3.7-2.1,5.5-4.9,5.5-7.7c0-3.2,0-6.5,0-9.7
			c0,2.8-1.8,5.6-5.5,7.7c-7.3,4.2-19.2,4.2-26.5,0C580.8,605.8,579,603,579,600.3z"/>
		<g>
			<path class="st5" d="M584.5,592.5c-7.3,4.2-7.4,11.1-0.1,15.3c7.3,4.2,19.1,4.2,26.5,0c7.3-4.2,7.4-11.1,0.1-15.3
				C603.7,588.3,591.8,588.3,584.5,592.5z"/>
		</g>
	</g>
	<g>
		<g>
			<g>
				<polygon points="562.9,665.1 562.8,649.6 528.2,629.5 528.2,644.9 528.2,644.9 528.2,660.4 562.9,680.5 562.8,665.1 				"/>
				<polygon class="st3" points="597.8,645 597.7,629.5 562.8,649.6 562.9,665 562.8,665 562.9,680.5 597.8,660.4 597.7,645 				"/>
				<g>
					<polygon class="st5" points="528.2,629.5 562.8,649.6 597.7,629.5 563,609.4 					"/>
				</g>
			</g>
		</g>
		<path class="st6" d="M544.2,620.2l0,9.7c0,2.8,1.8,5.5,5.4,7.6c7.3,4.2,19.1,4.2,26.5,0c3.7-2.1,5.5-4.9,5.5-7.7
			c0-3.2,0-6.5,0-9.7c0,2.8-1.8,5.6-5.5,7.7c-7.3,4.2-19.2,4.2-26.5,0C546,625.8,544.2,623,544.2,620.2z"/>
		<g>
			<path class="st5" d="M549.8,612.5c-7.3,4.2-7.4,11.1-0.1,15.3c7.3,4.2,19.1,4.2,26.5,0c7.3-4.2,7.4-11.1,0.1-15.3
				C568.9,608.3,557.1,608.3,549.8,612.5z"/>
		</g>
	</g>
	<g>
		<g>
			<g>
				<polygon class="st11" points="597.6,614.5 597.6,599 562.9,578.8 563,594.3 562.9,594.2 563,609.7 597.6,629.9 597.6,614.4 				
					"/>
				<polygon class="st3" points="632.5,594.3 632.5,578.8 597.6,599 597.6,614.4 597.6,614.4 597.6,629.9 632.5,609.7 632.5,594.3 
									"/>
				<g>
					<polygon class="st3" points="562.9,578.8 597.6,599 632.5,578.8 597.8,558.7 					"/>
				</g>
			</g>
		</g>
		<path class="st8" d="M579,569.6l0,9.7c0,2.8,1.8,5.5,5.4,7.6c7.3,4.2,19.1,4.2,26.5,0c3.7-2.1,5.5-4.9,5.5-7.7c0-3.2,0-6.5,0-9.7
			c0,2.8-1.8,5.6-5.5,7.7c-7.3,4.2-19.2,4.2-26.5,0C580.8,575.1,579,572.3,579,569.6z"/>
		<g>
			<path class="st3" d="M584.5,561.9c-7.3,4.2-7.4,11.1-0.1,15.3c7.3,4.2,19.1,4.2,26.5,0c7.3-4.2,7.4-11.1,0.1-15.3
				C603.7,557.6,591.9,557.6,584.5,561.9z"/>
		</g>
	</g>
	<g>
		<g>
			<g>
				<polygon points="562.9,634.3 562.9,618.9 528.2,598.7 528.2,614.1 528.2,614.1 528.2,629.6 562.9,649.7 562.9,634.3 				"/>
				<polygon class="st3" points="597.8,614.2 597.8,598.7 562.9,618.9 562.9,634.2 562.9,634.3 562.9,649.7 597.8,629.6 
					597.8,614.2 				"/>
				<g>
					<polygon class="st3" points="528.2,598.7 562.9,618.9 597.8,598.7 563.1,578.6 					"/>
				</g>
			</g>
		</g>
		<path class="st8" d="M544.3,589.5l0,9.7c0,2.8,1.8,5.5,5.4,7.6c7.3,4.2,19.1,4.2,26.5,0c3.7-2.1,5.5-4.9,5.5-7.7
			c0-3.2,0-6.5,0-9.7c0,2.8-1.8,5.6-5.5,7.7c-7.3,4.2-19.2,4.2-26.5,0C546.1,595,544.3,592.2,544.3,589.5z"/>
		<g>
			<path class="st3" d="M549.8,581.8c-7.3,4.2-7.4,11.1-0.1,15.3c7.3,4.2,19.1,4.2,26.5,0c7.3-4.2,7.4-11.1,0.1-15.3
				C569,577.5,557.1,577.5,549.8,581.8z"/>
		</g>
	</g>
</g>
<polygon points="396.8,610 424.6,625.1 424.6,593.9 "/>
<g>
	<g>
		<g>
			<polygon class="st11" points="354.7,252.5 354.7,237 320,216.9 320,232.3 320,232.3 320,247.8 354.7,267.9 354.7,252.5 			"/>
			<polygon class="st4" points="389.6,232.4 389.5,216.9 354.7,237 354.7,252.4 354.7,252.4 354.7,267.9 389.6,247.8 389.5,232.4 
							"/>
			<g>
				<polygon class="st4" points="320,216.9 354.7,237 389.5,216.9 354.9,196.7 				"/>
			</g>
		</g>
	</g>
	<path class="st7" d="M336.1,207.6l0,9.7c0,2.8,1.8,5.5,5.4,7.6c7.3,4.2,19.1,4.2,26.5,0c3.7-2.1,5.5-4.9,5.5-7.7c0-3.2,0-6.5,0-9.7
		c0,2.8-1.8,5.6-5.5,7.7c-7.3,4.2-19.2,4.2-26.5,0C337.9,213.1,336.1,210.4,336.1,207.6z"/>
	<g>
		<path class="st4" d="M341.6,199.9c-7.3,4.2-7.4,11.1-0.1,15.3c7.3,4.2,19.1,4.2,26.5,0c7.3-4.2,7.4-11.1,0.1-15.3
			C360.8,195.7,348.9,195.7,341.6,199.9z"/>
	</g>
</g>
<g>
	<g>
		<g>
			<polygon class="st11" points="319.8,272.7 319.8,257.2 285.1,237 285.2,252.5 285.1,252.4 285.2,267.9 319.8,288.1 319.8,272.6 
							"/>
			<polygon class="st3" points="354.7,252.5 354.7,237 319.8,257.2 319.8,272.5 319.8,272.6 319.8,288.1 354.7,267.9 354.7,252.5 
							"/>
			<g>
				<polygon class="st3" points="285.1,237 319.8,257.2 354.7,237 320,216.9 				"/>
			</g>
		</g>
	</g>
	<path class="st8" d="M301.2,227.8l0,9.7c0,2.8,1.8,5.5,5.4,7.6c7.3,4.2,19.1,4.2,26.5,0c3.7-2.1,5.5-4.9,5.5-7.7c0-3.2,0-6.5,0-9.7
		c0,2.8-1.8,5.6-5.5,7.7c-7.3,4.2-19.2,4.2-26.5,0C303,233.3,301.2,230.5,301.2,227.8z"/>
	<g>
		<path class="st3" d="M306.7,220.1c-7.3,4.2-7.4,11.1-0.1,15.3c7.3,4.2,19.1,4.2,26.5,0c7.3-4.2,7.4-11.1,0.1-15.3
			C325.9,215.8,314.1,215.8,306.7,220.1z"/>
	</g>
</g>
<g>
	<g>
		<g>
			<polygon points="285,292.8 284.9,277.3 250.3,257.2 250.3,272.6 250.3,272.6 250.3,288.1 285,308.2 284.9,292.8 			"/>
			<polygon class="st0" points="319.9,272.7 319.8,257.2 284.9,277.3 285,292.7 284.9,292.7 285,308.2 319.9,288.1 319.8,272.7 			
				"/>
			<g>
				<polygon class="st0" points="250.3,257.2 284.9,277.3 319.8,257.2 285.2,237 				"/>
			</g>
		</g>
	</g>
	<path class="st12" d="M266.3,247.9l0,9.7c0,2.8,1.8,5.5,5.4,7.6c7.3,4.2,19.1,4.2,26.5,0c3.7-2.1,5.5-4.9,5.5-7.7
		c0-3.2,0-6.5,0-9.7c0,2.8-1.8,5.6-5.5,7.7c-7.3,4.2-19.2,4.2-26.5,0C268.2,253.4,266.3,250.7,266.3,247.9z"/>
	<g>
		<path class="st0" d="M271.9,240.2c-7.3,4.2-7.4,11.1-0.1,15.3c7.3,4.2,19.1,4.2,26.5,0c7.3-4.2,7.4-11.1,0.1-15.3
			C291,236,279.2,236,271.9,240.2z"/>
	</g>
</g>
<path class="st1" d="M550.9,226.3c0-10.4,7.3-23.2,16.4-28.4c9-5.2,16.4-1,16.4,9.5c0,10.5-7.3,23.2-16.4,28.4
	C558.2,241,550.9,236.8,550.9,226.3z"/>
</svg>
