<?xml version="1.0" encoding="utf-8"?>
<!-- Generator: Adobe Illustrator 21.1.0, SVG Export Plug-In . SVG Version: 6.00 Build 0)  -->
<svg version="1.1" id="Слой_1" xmlns="http://www.w3.org/2000/svg" xmlns:xlink="http://www.w3.org/1999/xlink" x="0px" y="0px"
	 viewBox="0 0 900 712" style="enable-background:new 0 0 900 712;" xml:space="preserve">
<style type="text/css">
	.st0{fill:#FFDE00;}
	.st1{fill:#DA44D0;}
	.st2{fill:#B37FFF;}
	.st3{fill:#CBABFD;}
	.st4{fill:#FFFFFF;}
	.st5{fill:#DEE3F3;}
	.st6{fill:#EBEDF7;}
	.st7{fill:#E7EAF6;}
	.st8{opacity:0.3;}
	.st9{fill:#42D1FD;}
	.st10{opacity:0.6;fill:#42D1FD;}
	.st11{fill:#923CFF;}
	.st12{fill:#B17EFD;}
	.st13{fill:#FDDC03;}
	.st14{fill:#F1A901;}
	.st15{fill:#1D1D1B;}
	.st16{fill:#FD8058;}
</style>
<rect x="100" y="100" class="st0" width="700" height="512"/>
<path id="cloud_36_" class="st1" d="M778.8,326.9c7.4-89-42.3-147.3-103.3-153.2C666,120.7,641,69,600.3,45.5
	C540.8,11.2,472,27.1,461.4,94.8c-0.2,1.6,0,3.2,0,4.7c0,0-0.1,0-0.1,0c-45.6-26.3-83.1-3.9-83.9,50.1c-0.8,54,35.5,119.1,81,145.4
	l302.3,173.7c38.1,22,74.5,0.9,80.3-38.7C846.3,393.4,828,344.3,778.8,326.9z"/>
<g>
	<path class="st0" d="M672,253.1C672,253.1,672,253.1,672,253.1c-22.6-24.6-61.1-41.3-97.4-51.1c-98.6-26.6-230.4-17.4-304.8,28.2
		v204.5c51.2-28.8,123.6-40.7,186.5-40.7c63.6,0,122.3,11.5,166.1,30.4c2,0.9,3.9,1.7,5.9,2.6c29.3,13.6,51.3,30.6,62.4,49.8V324.5
		v-24.8v-8.4C689.5,278.8,683.5,265.9,672,253.1z"/>
</g>
<g>
	<g>
		<path class="st2" d="M540.5,631.7l24.1,43.8c8.1,6.1,19.2-27.3,19.2-37.4l0.4-269.8h-90.9v228.6
			C493.4,596.9,536.6,628.7,540.5,631.7z"/>
		<g>
			<path class="st2" d="M562.1,705.5c12.9,4.3,21.2-5.8,21.5-21.8l0.6-148.3c0.1-14.5-9.7-31.6-21.7-38c-12-6.5-21.9,0.1-21.9,14.6
				L540,666.5C540,685,547.5,700.6,562.1,705.5z"/>
		</g>
		<g>
			<path class="st2" d="M528.5,662.7c7.1,2.1,11.6-4,11.6-11.8l0.3-134.5c0-7.8-5.3-17.1-11.8-20.6c-6.5-3.5-11.8,0.1-11.9,7.9
				l-0.3,137.9C516.5,649.4,520,660.2,528.5,662.7z"/>
		</g>
		<g>
			<path class="st2" d="M498,662.2c12.5,4.2,20.6-5.6,20.9-21.2l0.6-247.5c0.1-14.1-9.4-30.7-21.1-37c-11.7-6.3-21.3,0.1-21.3,14.2
				l-0.6,253.6C476.5,642.2,483.7,657.5,498,662.2z"/>
		</g>
	</g>
	<path class="st3" d="M563.6,520.7c-1,0-1.8,0.8-1.8,1.8v155.4c0,1,0.8,1.8,1.8,1.8s1.8-0.8,1.8-1.8V522.5
		C565.4,521.5,564.6,520.7,563.6,520.7z"/>
	<path class="st3" d="M563.6,350.5c-1,0-1.8,0.8-1.8,1.8v164.2c0,1,0.8,1.8,1.8,1.8s1.8-0.8,1.8-1.8V352.3
		C565.4,351.3,564.6,350.5,563.6,350.5z"/>
	<path class="st3" d="M499.2,565.2c-1,0-1.8,0.8-1.8,1.8v44.7c0,1,0.8,1.8,1.8,1.8c1,0,1.8-0.8,1.8-1.8V567
		C501,566,500.2,565.2,499.2,565.2z"/>
	<path class="st3" d="M499.2,503.7c-1,0-1.8,0.8-1.8,1.8v32c0,1,0.8,1.8,1.8,1.8c1,0,1.8-0.8,1.8-1.8v-32
		C501,504.5,500.2,503.7,499.2,503.7z"/>
	<path class="st3" d="M499.2,392.9c-1,0-1.8,0.8-1.8,1.8v97.6c0,1,0.8,1.8,1.8,1.8c1,0,1.8-0.8,1.8-1.8v-97.6
		C501,393.7,500.2,392.9,499.2,392.9z"/>
</g>
<path id="cloud_37_" class="st4" d="M590.3,351.1c-26.1-15.1-48.8-9.5-59.8,11.3c-3.7-3.1-7.5-5.8-11.4-8
	c-23.1-13.3-42.7-7.7-50.1,11.7c-3.5-3.3-7.1-6.1-11-8.3c-20.1-11.6-36.4-2.2-36.4,21s16.3,51.5,36.4,63.1l132.3,76.4
	c37,21.4,67.1,1.3,67.1-44.9C657.3,427.3,627.3,372.5,590.3,351.1z"/>
<g id="XMLID_36_">
	<polygon id="XMLID_39_" class="st5" points="537.2,115.5 549.1,137.5 574.2,138.2 562.3,116.2 	"/>
	<polygon id="XMLID_38_" class="st6" points="537.2,115.5 550.4,94.1 575.4,94.8 562.3,116.2 	"/>
	<polygon id="XMLID_37_" class="st7" points="574.2,138.2 587.3,116.9 575.4,94.8 562.3,116.2 	"/>
</g>
<g id="XMLID_28_">
	<polygon id="XMLID_31_" class="st5" points="191.3,167.5 201,185.4 221.3,186 211.7,168.1 	"/>
	<polygon id="XMLID_30_" class="st6" points="191.3,167.5 202,150.1 222.4,150.7 211.7,168.1 	"/>
	<polygon id="XMLID_29_" class="st7" points="221.3,186 232,168.7 222.4,150.7 211.7,168.1 	"/>
</g>
<g id="XMLID_12_">
	<polygon id="XMLID_15_" class="st5" points="583.6,259.2 575.5,281.3 590.6,299.3 598.7,277.2 	"/>
	<polygon id="XMLID_14_" class="st6" points="583.6,259.2 606.8,255.2 621.8,273.2 598.7,277.2 	"/>
	<polygon id="XMLID_13_" class="st7" points="590.6,299.3 613.8,295.3 621.8,273.2 598.7,277.2 	"/>
</g>
<g id="XMLID_20_">
	<polygon id="XMLID_23_" class="st5" points="505.7,314.1 513.4,328.3 529.5,328.8 521.9,314.6 	"/>
	<polygon id="XMLID_22_" class="st6" points="505.7,314.1 514.2,300.4 530.3,300.9 521.9,314.6 	"/>
	<polygon id="XMLID_21_" class="st7" points="529.5,328.8 538,315.1 530.3,300.9 521.9,314.6 	"/>
</g>
<g id="XMLID_80_">
	<polygon id="XMLID_83_" class="st5" points="710.2,150.3 719,166.5 737.5,167.1 728.7,150.8 	"/>
	<polygon id="XMLID_82_" class="st6" points="710.2,150.3 719.9,134.6 738.4,135.1 728.7,150.8 	"/>
	<polygon id="XMLID_81_" class="st7" points="737.5,167.1 747.1,151.3 738.4,135.1 728.7,150.8 	"/>
</g>
<g id="XMLID_84_">
	<polygon id="XMLID_87_" class="st5" points="476.8,170.5 461.5,212.4 490.1,246.5 505.4,204.7 	"/>
	<polygon id="XMLID_86_" class="st6" points="476.8,170.5 520.7,162.9 549.3,197.1 505.4,204.7 	"/>
	<polygon id="XMLID_85_" class="st7" points="490.1,246.5 533.9,238.9 549.3,197.1 505.4,204.7 	"/>
</g>
<g>
	<g class="st8">
		<path class="st9" d="M535.7,476.8c27.1-4.6,54-11.4,79-20.7v66.3c-23.6,9.5-50.4,70-78.9,75.1
			C535.8,584.9,535.8,504.3,535.7,476.8z"/>
		<path class="st9" d="M614.7,388.8v28.5c-23.6,9.5-50.4,17-78.9,22.2c0-6.6,0-17.3-0.1-29.9C562.6,404.9,589.5,398.2,614.7,388.8z"
			/>
		<path class="st10" d="M535.5,444.6c0,6.8,0.1,18,0.1,25.6c42.4-7.2,85.4-20.1,121.6-40v-25.6C621.1,424.5,578.1,437.3,535.5,444.6
			z"/>
	</g>
	<path d="M566.2,393.2c-15.6,3.9-31.8,6.9-48.1,9.1V613c98-13.3,173.4-55.1,173-107.1l0.6-209.3
		C690.8,341.6,633.8,376.1,566.2,393.2z"/>
</g>
<g id="XMLID_24_">
	<polygon id="XMLID_27_" class="st5" points="597.9,452.1 589.3,475.5 605.3,494.6 613.8,471.2 	"/>
	<polygon id="XMLID_26_" class="st6" points="597.9,452.1 622.4,447.9 638.4,467 613.8,471.2 	"/>
	<polygon id="XMLID_25_" class="st7" points="605.3,494.6 629.8,490.3 638.4,467 613.8,471.2 	"/>
</g>
<g id="XMLID_16_">
	<polygon id="XMLID_19_" class="st5" points="393.2,506.5 386.6,524.3 398.8,538.9 405.3,521.1 	"/>
	<polygon id="XMLID_18_" class="st6" points="393.2,506.5 411.8,503.3 424,517.8 405.3,521.1 	"/>
	<polygon id="XMLID_17_" class="st7" points="398.8,538.9 417.4,535.6 424,517.8 405.3,521.1 	"/>
</g>
<path id="cloud_38_" class="st11" d="M63.9,407.6c11-37.6,41.5-67.8,80.1-73c9.5-47.1,42.9-96.9,82.3-119.1
	c41.4-23.3,75.5-8.3,81.9,33.1c0.1-0.1,0.3-0.2,0.4-0.2c29.3-16.5,52.7-2.7,52.5,30.8c22.7-5.5,39.1,9.1,38.8,37.6
	c-0.4,34.3-24.9,75.8-54.8,92.7l-168.1,94.7C137.4,533.9,32.4,515.2,63.9,407.6z"/>
<g id="XMLID_8_">
	<polygon id="XMLID_11_" class="st5" points="569.9,534.6 565.4,546.9 573.8,557 578.3,544.7 	"/>
	<polygon id="XMLID_10_" class="st6" points="569.9,534.6 582.8,532.3 591.3,542.4 578.3,544.7 	"/>
	<polygon id="XMLID_9_" class="st7" points="573.8,557 586.7,554.7 591.3,542.4 578.3,544.7 	"/>
</g>
<g>
	<g>
		<polygon points="261.8,344.1 272.4,401.5 351.2,476.8 377.6,441.1 391.4,451.5 444.3,399.8 458.1,345.5 327,333.7 		"/>
		<ellipse cx="360.1" cy="340.6" rx="98.6" ry="48.2"/>
		<ellipse class="st12" cx="361.3" cy="340.6" rx="72.1" ry="33.8"/>
		<ellipse class="st12" cx="361.3" cy="340.6" rx="79.3" ry="37.1"/>
		<path class="st12" d="M319.3,344.5c3.9-0.3,6.2-2.7,8.2-6c3.1,0,7.4-2.2,8.2-5.2c6.6,1,17.2,14,9.9,22.3
			c-6.7,7.7-19.1,10.6-21.3,10c-4.7-1.5-14.2-2.8-17.6-6.3c-4.3-4.4-5.6-12.8-2.3-16.6c2.7-3.2,2.4-1.5,5.6,0.3
			C312.3,344.2,316.6,344.7,319.3,344.5z"/>
		<g>
			<g>
				<path class="st12" d="M361.6,113.1L383.1,9c7.2-5.5,17.2,24.4,17.2,33.4l0.4,296.8l-81.2-7.8V104.2
					C319.5,104.2,358.2,115.7,361.6,113.1z"/>
				<g>
					<path class="st12" d="M380.9,5.4c11.5-3.8,18.9,5.2,19.2,19.5l0.6,92.5c0.1,12.9-8.7,28.2-19.4,34c-10.7,5.8-19.5-0.1-19.6-13
						l-0.6-98.1C361.2,23.7,367.9,9.8,380.9,5.4z"/>
				</g>
				<g>
					<path class="st12" d="M330.2,70.5c6.3-1.9,10.4,3.6,10.4,10.6l0.3,31.8c0,7-4.7,15.3-10.5,18.4c-5.8,3.1-10.6-0.1-10.6-7.1
						l-0.3-34.9C319.5,82.4,322.6,72.7,330.2,70.5z"/>
				</g>
				<g>
					<path class="st12" d="M350.9,37.9c6.3-1.9,10.4,3.6,10.4,10.6l0.3,80.2c0,7-4.7,15.3-10.5,18.4c-5.8,3.1-10.6-0.1-10.6-7.1
						l-0.3-83.3C340.2,49.7,343.3,40.1,350.9,37.9z"/>
				</g>
			</g>
			<path class="st3" d="M382.3,141.3c-0.9,0-1.6-0.7-1.6-1.6V40.8c0-0.9,0.7-1.6,1.6-1.6c0.9,0,1.6,0.7,1.6,1.6v98.9
				C383.9,140.6,383.2,141.3,382.3,141.3z"/>
			<path class="st3" d="M382.3,313c-0.9,0-1.6-0.7-1.6-1.6V164.6c0-0.9,0.7-1.6,1.6-1.6c0.9,0,1.6,0.7,1.6,1.6v146.8
				C383.9,312.3,383.2,313,382.3,313z"/>
			<path class="st3" d="M363.9,218.5c-0.9,0-1.6-0.7-1.6-1.6V78c0-0.9,0.7-1.6,1.6-1.6c0.9,0,1.6,0.7,1.6,1.6v138.9
				C365.5,217.8,364.8,218.5,363.9,218.5z"/>
			<path class="st3" d="M363.9,283.2c-0.9,0-1.6-0.7-1.6-1.6v-42.1c0-0.9,0.7-1.6,1.6-1.6c0.9,0,1.6,0.7,1.6,1.6v42.1
				C365.5,282.4,364.8,283.2,363.9,283.2z"/>
			<path class="st3" d="M339.6,156.1c-0.9,0-1.6-0.7-1.6-1.6v-28.6c0-0.9,0.7-1.6,1.6-1.6c0.9,0,1.6,0.7,1.6,1.6v28.6
				C341.3,155.4,340.5,156.1,339.6,156.1z"/>
			<path class="st3" d="M339.6,273.8c-0.9,0-1.6-0.7-1.6-1.6V185c0-0.9,0.7-1.6,1.6-1.6c0.9,0,1.6,0.7,1.6,1.6v87.2
				C341.3,273.1,340.5,273.8,339.6,273.8z"/>
			<path class="st3" d="M339.6,315.9c-0.9,0-1.6-0.7-1.6-1.6v-12.9c0-0.9,0.7-1.6,1.6-1.6c0.9,0,1.6,0.7,1.6,1.6v12.9
				C341.3,315.2,340.5,315.9,339.6,315.9z"/>
		</g>
	</g>
	<g>
		<path class="st13" d="M291.6,325.6c0,22.7,30.2,41,67.4,41c12.2,0,23.7-2,33.5-5.4c17.4-6.1,29.9-16.7,33.1-29.2
			c0.8-6.9-0.6-14.3-3.4-20.6c-4.1-6.7-11-12.6-19.7-17.1c-11.7-6-26.9-9.7-43.5-9.7C321.8,284.6,291.6,302.9,291.6,325.6z
			 M332.2,320.4c0-4.2,12.5-7.5,27.8-7.5c6.4,0,12.4,0.6,17.1,1.6c6.5,1.4,10.7,3.5,10.7,5.9c0,1.8-2.4,3.5-6.5,4.8
			c-5.1,1.6-12.8,2.7-21.3,2.7C344.7,327.9,332.2,324.6,332.2,320.4z"/>
		<path class="st14" d="M312.1,310.1c0,12,22.1,21.8,49.3,21.8c7.9,0,15.4-0.8,22.1-2.3c16.1-3.6,27.2-11,27.2-19.5
			c0-3.5-1.9-6.8-5.2-9.7l0,0c-1.1-1-2.4-2-3.9-2.9l0,0c-0.5-0.3-1.1-0.7-1.7-1c-9-5-22.9-8.2-38.6-8.2
			C334.2,288.3,312.1,298.1,312.1,310.1z M333.4,320.1c0-3.8,12.3-6.9,27.4-6.9c6.4,0,12.2,0.5,16.8,1.5c6.4,1.3,10.6,3.2,10.6,5.4
			c0,1.7-2.4,3.2-6.4,4.4c-5,1.5-12.6,2.5-21,2.5C345.7,327,333.4,323.9,333.4,320.1z"/>
		<path class="st13" d="M358.6,273.6c0.3,9.7,10.5,27.4,19.3,28.4c3.1,0.4,20.8-4.1,26.2-7.7c10-6.8,8.7-18.2,8.3-24.5
			c-0.7-10-9.3-22.5-21.1-23.8C382.4,244.9,357.9,245.7,358.6,273.6z"/>
		
			<ellipse transform="matrix(0.9141 -0.4054 0.4054 0.9141 -76.8272 183.9533)" class="st15" cx="395.9" cy="273.3" rx="2.5" ry="3.8"/>
		<path d="M395.3,289.3c-1.4,4.3,4.9,3.3,11,4.3c14.7,2.5,15.2,0.6,17-2.6c1.3-2.3,0.2-7.4-1.6-7.6
			C419.9,283.2,396.3,286.3,395.3,289.3z"/>
		<path class="st16" d="M395.2,290.3c0.9,2,2.9-2.2,8.6-0.2c7.6,2.6,18.1-5.7,22.2-11.4c0.4-0.6,0.8-2.4-0.4-3
			c-1.6-0.8-7,1.2-11-1.6c-1.9-1.4-1.7-2.5-2.5-2.4c-3.7,0.5-10.1,8.6-13.4,13.3C397.4,286.8,394.7,289.1,395.2,290.3z"/>
		<path class="st13" d="M392.6,361.2c6.3-2.2,12-5,16.8-8.3c-2.7-12.9-12.2-24.5-24.7-29c-0.9,0.5-2,0.9-3.3,1.4
			c-5.1,1.6-12.8,2.7-21.3,2.7c-12.7,0-23.5-2.3-26.8-5.5c-1.6,0.4-2.4,1.5-4.7,2.1c-2.1,0.5-2.6,0.5-4.4,0.5
			c-4.9,3.6-8.3,8.9-10.9,14.5c-2,4.5-3.6,9.4-3.3,14.2c12.3,7.9,29.7,12.9,49,12.9C371.2,366.6,382.7,364.6,392.6,361.2z"/>
		<path class="st14" d="M327.7,324.7c-0.1,0-0.2,0-0.3,0.1c-0.1,0-0.2,0-0.2,0c-0.1,0-0.2,0-0.3,0.1c-0.1,0-0.2,0-0.3,0.1
			c-0.1,0-0.1,0-0.2,0c-0.1,0-0.2,0-0.2,0c0,0-0.1,0-0.1,0c-0.2,0-0.4,0-0.6,0c9,4.3,21.8,6.9,36,6.9c7.9,0,15.4-0.8,22.1-2.3
			c2.9-0.6,5.7-1.4,8.2-2.3c0,0-0.1,0-0.1-0.1c-0.6-0.4-1.3-0.8-2-1.2c-0.1-0.1-0.2-0.1-0.3-0.2c-0.8-0.4-1.6-0.8-2.4-1.2
			c-0.3-0.1-0.6-0.2-0.9-0.4c-0.5-0.2-0.9-0.4-1.4-0.5c-0.9,0.5-2.2,0.4-3.5,0.8c-5.1,1.6-12.9,2.3-21.5,2.3
			c-12.7,0-20.2-2.1-24.1-3.7l-2.3-0.8c-0.2,0-0.4,0.1-0.6,0.2c0,0,0,0,0,0c-0.8,0.3-1.4,0.8-2.2,1.2c0,0-0.1,0-0.1,0
			c-0.2,0.1-0.4,0.2-0.6,0.3c-0.1,0-0.1,0.1-0.2,0.1c-0.3,0.1-0.6,0.2-0.9,0.3c-0.2,0.1-0.4,0.1-0.6,0.1
			C327.9,324.7,327.8,324.7,327.7,324.7z"/>
		<path class="st13" d="M364.4,290c0.1,0.2,2.5,5.2,2.7,5.4c0.4,0.7,0.9,1.5,1.3,2.2v0c3.2,5.5,6.2,11.1,8.8,16.9
			c1.4,3.2,2.7,6.3,3.8,9.6c0.1,0.4,0.3,0.8,0.4,1.2c0.3,0.8,0.5,1.6,0.8,2.4c0.3,1.1,0.6,2.1,0.9,3.2c0.3,1.2,0.6,2.3,0.9,3.5
			c0.4,1.9,0.8,3.9,1.1,5.8c0.9,5.7,1.3,11.6,0.9,17.6c-0.1,0.9-0.1,1.8-0.2,2.7c0,0.2,0,0.4-0.1,0.5c2.4,0.2,4.7,0.3,6.9,0.2
			c17.4-6.1,29.9-16.7,33.1-29.2c1.7-8.1-0.6-14.3-3.4-20.6c-4.1-6.7-11-12.6-19.7-17.1c-0.8,0.1-1.7,0.2-2.7,0.4
			c-4.3,0.8-10.5,2.3-17.2,2.3h0C376.7,296.9,363.9,289.1,364.4,290z"/>
	</g>
</g>
<path class="st1" d="M331,428c-59.4-18.3-106.7-50.6-107.5-91.6l0.6,209.3c-0.3,39.4,43.1,73.1,106.9,92.8V428z"/>
<g id="XMLID_32_">
	<polygon id="XMLID_35_" class="st5" points="200,433.8 211.3,454.7 235.2,455.4 223.9,434.4 	"/>
	<polygon id="XMLID_34_" class="st6" points="200,433.8 212.5,413.5 236.4,414.2 223.9,434.4 	"/>
	<polygon id="XMLID_33_" class="st7" points="235.2,455.4 247.7,435.1 236.4,414.2 223.9,434.4 	"/>
</g>
</svg>
