<?xml version="1.0" encoding="utf-8"?>
<!-- Generator: Adobe Illustrator 21.1.0, SVG Export Plug-In . SVG Version: 6.00 Build 0)  -->
<svg version="1.1" id="Слой_1" xmlns="http://www.w3.org/2000/svg" xmlns:xlink="http://www.w3.org/1999/xlink" x="0px" y="0px"
	 viewBox="0 0 900 712" style="enable-background:new 0 0 900 712;" xml:space="preserve">
<style type="text/css">
	.st0{fill:#923CFF;}
	.st1{fill:#B37FFF;}
	.st2{fill-rule:evenodd;clip-rule:evenodd;}
	.st3{fill:#B61BB6;}
	.st4{fill:#DA44D0;}
	.st5{fill:#FFDE00;}
	.st6{fill:#0F70FD;}
	.st7{fill:#FFFFFF;}
	.st8{fill:#DEE3F3;}
	.st9{fill:#EBEDF7;}
	.st10{fill:#E7EAF6;}
</style>
<rect x="100" y="100" class="st0" width="700" height="512"/>
<path id="cloud_70_" class="st1" d="M86.1,260.1c4.6-2.7,9.1-4.6,13.4-5.9c2.2-46.8,34.9-101.8,74.9-124.9c3.7-2.1,7.4-3.9,10.9-5.4
	c15.1-40.5,44.4-79,78-98.4c49.1-28.4,89-5.4,89,51.4c0,1.3,0,2.5-0.1,3.8c0,0,0,0,0.1,0c37.6-21.7,68.1-4.1,68.1,39.3
	s-30.5,96.3-68.1,118L86.1,391.7c-31.5,18.2-57,3.4-57-32.9S54.6,278.3,86.1,260.1z"/>
<polygon class="st2" points="874,439.5 713,347.5 249.5,611.8 295.6,637.8 414.5,703.8 "/>
<g>
	<g>
		<polygon points="671.9,329.7 700.6,316.6 668.2,426.4 639.5,439.5 		"/>
	</g>
	<g>
		<polygon class="st3" points="757.8,461.1 786.5,448 787,489.1 758.3,505.6 		"/>
	</g>
	<path class="st4" d="M784.1,446.9l-3-1.6c-0.3-0.2-0.6-0.4-0.9-0.6c0,0-0.1,0-0.1-0.1c-0.3-0.2-0.6-0.4-0.8-0.6c0,0-0.1,0-0.1-0.1
		c-0.3-0.2-0.6-0.5-0.8-0.7c0,0-0.1-0.1-0.1-0.1c-0.3-0.2-0.5-0.5-0.8-0.8c0,0-0.1-0.1-0.1-0.1c-0.3-0.3-0.5-0.5-0.8-0.8
		c0-0.1-0.1-0.1-0.1-0.2c-0.3-0.3-0.5-0.6-0.7-0.9c0,0-0.1-0.1-0.1-0.2c-0.3-0.3-0.5-0.7-0.8-1c0,0,0,0,0,0
		c-0.2-0.3-0.5-0.7-0.7-1.1c-0.1-0.2-0.2-0.3-0.3-0.5c-0.2-0.3-0.3-0.5-0.5-0.8c-0.1-0.1-0.2-0.3-0.2-0.4c-0.2-0.3-0.4-0.7-0.6-1.1
		c0-0.1-0.1-0.2-0.1-0.3c-0.2-0.5-0.5-0.9-0.7-1.4c-0.1-0.1-0.1-0.3-0.2-0.4c-0.2-0.3-0.3-0.7-0.5-1c-0.2-0.4-0.3-0.7-0.5-1.1
		c-0.1-0.3-0.2-0.5-0.3-0.8c-0.1-0.3-0.2-0.5-0.3-0.8c-0.1-0.3-0.3-0.6-0.4-1c-0.1-0.3-0.2-0.5-0.3-0.8c-0.1-0.3-0.2-0.7-0.4-1
		c-0.1-0.3-0.2-0.6-0.3-1c-0.2-0.5-0.3-0.9-0.5-1.4l-2.4-8l-64-237.1c-0.1-0.4-0.2-0.8-0.3-1.1c-0.3-0.9-0.5-1.8-0.8-2.6
		c-0.1-0.2-0.1-0.3-0.2-0.5c-0.1-0.2-0.1-0.4-0.2-0.6c-0.1-0.4-0.3-0.9-0.4-1.3c-0.3-0.8-0.6-1.7-0.9-2.5c0,0,0-0.1,0-0.1
		c0-0.1-0.1-0.2-0.1-0.3c-0.3-0.7-0.6-1.5-0.9-2.2c-0.2-0.4-0.3-0.8-0.5-1.2c-0.2-0.4-0.3-0.7-0.5-1.1c-0.1-0.3-0.2-0.5-0.3-0.8
		c-0.4-0.9-0.8-1.8-1.2-2.6c-0.1-0.2-0.2-0.3-0.2-0.5c-0.5-1.1-1.1-2.2-1.7-3.2c-0.1-0.1-0.1-0.3-0.2-0.4c-0.4-0.8-0.9-1.6-1.4-2.4
		c-0.1-0.2-0.3-0.5-0.4-0.7c-0.2-0.3-0.4-0.7-0.6-1c-0.2-0.3-0.4-0.7-0.6-1c-0.4-0.6-0.8-1.3-1.3-1.9c0,0,0-0.1-0.1-0.1c0,0,0,0,0,0
		c-0.4-0.7-0.9-1.3-1.4-1.9c-0.3-0.4-0.5-0.7-0.8-1.1c-0.1-0.2-0.2-0.3-0.3-0.5c-0.1-0.1-0.2-0.2-0.3-0.3c-0.5-0.6-1-1.2-1.5-1.9
		c-0.2-0.2-0.3-0.4-0.5-0.6c-0.2-0.2-0.3-0.4-0.5-0.6c-0.2-0.2-0.4-0.5-0.6-0.7c-0.6-0.6-1.1-1.2-1.7-1.9c0,0-0.1-0.1-0.1-0.1
		c-0.1-0.1-0.1-0.2-0.2-0.2c-0.5-0.5-1-1-1.5-1.5c-0.3-0.3-0.6-0.6-0.9-0.9c-0.2-0.2-0.4-0.3-0.5-0.5c-0.1-0.1-0.3-0.3-0.4-0.4
		c-0.6-0.6-1.3-1.2-1.9-1.7c-0.1-0.1-0.2-0.2-0.3-0.3c-0.2-0.1-0.4-0.3-0.5-0.4c-0.4-0.3-0.8-0.6-1.2-1c-0.4-0.3-0.9-0.7-1.3-1
		c-0.2-0.1-0.3-0.3-0.5-0.4c-0.1-0.1-0.2-0.1-0.3-0.2c-0.7-0.5-1.5-1.1-2.2-1.6c-0.1-0.1-0.3-0.2-0.4-0.3c-0.2-0.2-0.5-0.3-0.7-0.5
		c-0.4-0.3-0.8-0.5-1.2-0.8c-0.4-0.3-0.9-0.5-1.3-0.8c-0.3-0.2-0.5-0.3-0.8-0.5c-0.1-0.1-0.3-0.2-0.4-0.3c-0.9-0.5-1.8-1-2.8-1.5
		c-0.1,0-0.1-0.1-0.2-0.1c-0.6-0.3-1.3-0.7-1.9-1c-0.2-0.1-0.4-0.2-0.6-0.3c-0.4-0.2-0.9-0.4-1.3-0.6c-0.1-0.1-0.2-0.1-0.3-0.2
		c-0.1-0.1-0.2-0.1-0.4-0.2c-0.4-0.2-0.8-0.4-1.2-0.6c-0.2-0.1-0.4-0.2-0.6-0.3c-0.5-0.2-0.9-0.4-1.4-0.6c-0.1-0.1-0.2-0.1-0.3-0.2
		c0,0-0.1,0-0.1,0c-0.6-0.2-1.1-0.5-1.7-0.7c-0.1,0-0.2-0.1-0.3-0.1c-0.4-0.2-0.9-0.4-1.3-0.5c0,0-0.1,0-0.1-0.1
		c-0.2-0.1-0.3-0.1-0.5-0.2c-0.3-0.1-0.7-0.2-1-0.4c-0.2-0.1-0.4-0.2-0.7-0.2c-0.3-0.1-0.6-0.2-0.9-0.3c-0.1,0-0.2-0.1-0.3-0.1
		c-0.1,0-0.2-0.1-0.4-0.1c-0.3-0.1-0.6-0.2-0.9-0.3c-0.2-0.1-0.4-0.1-0.7-0.2c-0.3-0.1-0.6-0.2-0.8-0.2c-0.1,0-0.3-0.1-0.4-0.1
		c-0.1,0-0.2,0-0.3-0.1c-0.3-0.1-0.5-0.1-0.8-0.2c-0.2-0.1-0.4-0.1-0.6-0.2c-0.3-0.1-0.5-0.1-0.8-0.2c-0.2,0-0.3-0.1-0.5-0.1
		c-0.1,0-0.1,0-0.2,0c-0.3-0.1-0.6-0.1-0.8-0.2c-0.2,0-0.4-0.1-0.6-0.1c-0.3,0-0.6-0.1-0.9-0.1c-0.1,0-0.3,0-0.4-0.1
		c0,0-0.1,0-0.1,0l-28.7,13.1c0.2,0,0.4,0.1,0.5,0.1c0.3,0,0.6,0.1,0.9,0.1c0.2,0,0.4,0.1,0.6,0.1c0.3,0,0.6,0.1,0.8,0.2
		c0.2,0,0.4,0.1,0.6,0.1c0.3,0.1,0.5,0.1,0.8,0.2c0.2,0,0.4,0.1,0.6,0.1c0.3,0.1,0.5,0.1,0.8,0.2c0.2,0.1,0.4,0.1,0.6,0.2
		c0.3,0.1,0.6,0.2,0.8,0.2c0.2,0.1,0.4,0.1,0.7,0.2c0.3,0.1,0.6,0.2,0.9,0.3c0.2,0.1,0.4,0.1,0.7,0.2c0.3,0.1,0.6,0.2,0.9,0.3
		c0.2,0.1,0.4,0.1,0.6,0.2c0.3,0.1,0.7,0.2,1,0.4c0.2,0.1,0.4,0.1,0.6,0.2c0.4,0.2,0.9,0.3,1.3,0.5c0.1,0,0.2,0.1,0.3,0.1
		c0.6,0.2,1.1,0.5,1.7,0.7c0.1,0.1,0.3,0.1,0.4,0.2c0.5,0.2,0.9,0.4,1.4,0.6c0.2,0.1,0.4,0.2,0.6,0.3c0.4,0.2,0.8,0.4,1.2,0.6
		c0.2,0.1,0.4,0.2,0.7,0.3c0.4,0.2,0.9,0.4,1.3,0.6c0.2,0.1,0.4,0.2,0.6,0.3c0.6,0.3,1.3,0.6,1.9,1c1.1,0.6,2.2,1.2,3.3,1.9
		c0.3,0.2,0.5,0.3,0.8,0.5c0.8,0.5,1.7,1,2.5,1.6c0.2,0.2,0.5,0.3,0.7,0.5c1,0.7,2,1.4,2.9,2.1c0.2,0.1,0.3,0.3,0.5,0.4
		c0.8,0.6,1.7,1.3,2.5,2c0.2,0.1,0.4,0.3,0.5,0.4c0.9,0.8,1.8,1.6,2.6,2.4c0.2,0.2,0.4,0.3,0.5,0.5c0.8,0.8,1.6,1.6,2.4,2.4
		c0.1,0.1,0.1,0.2,0.2,0.2c0.8,0.9,1.6,1.8,2.4,2.7c0.2,0.2,0.3,0.4,0.5,0.6c0.8,0.9,1.5,1.8,2.2,2.8c0.1,0.2,0.2,0.3,0.3,0.5
		c0.8,1,1.5,2,2.2,3.1c0,0,0,0.1,0.1,0.1c0.6,1,1.3,1.9,1.9,2.9c0.2,0.3,0.4,0.6,0.6,1c0.6,1,1.2,2.1,1.8,3.1
		c0.1,0.1,0.1,0.3,0.2,0.4c0.6,1.1,1.1,2.1,1.7,3.2c0.1,0.2,0.2,0.3,0.2,0.5c0.5,1.1,1.1,2.3,1.6,3.4c0.2,0.4,0.3,0.7,0.5,1.1
		c0.5,1.1,0.9,2.2,1.3,3.4c0,0.1,0.1,0.2,0.1,0.3c0.5,1.3,0.9,2.6,1.4,3.9c0.1,0.2,0.1,0.4,0.2,0.6c0.5,1.4,0.9,2.8,1.3,4.3
		l64,237.1l2.4,8c0.1,0.3,0.2,0.5,0.2,0.8c0.1,0.2,0.1,0.4,0.2,0.6c0.1,0.3,0.2,0.6,0.3,1c0,0.1,0.1,0.2,0.1,0.4
		c0.1,0.2,0.2,0.4,0.2,0.7c0.1,0.3,0.2,0.6,0.3,0.8c0,0.1,0.1,0.2,0.1,0.3c0.1,0.2,0.2,0.5,0.3,0.7c0.1,0.3,0.2,0.5,0.3,0.8
		c0,0.1,0.1,0.2,0.1,0.2c0.1,0.2,0.1,0.3,0.2,0.5c0.2,0.4,0.3,0.7,0.5,1.1c0,0.1,0.1,0.2,0.1,0.3c0.1,0.2,0.2,0.5,0.3,0.7
		c0.1,0.1,0.1,0.3,0.2,0.4c0.2,0.5,0.5,0.9,0.7,1.4c0,0.1,0.1,0.2,0.1,0.3c0.2,0.4,0.4,0.7,0.6,1.1c0.1,0.1,0.2,0.3,0.2,0.4
		c0.1,0.1,0.2,0.3,0.2,0.4c0.1,0.1,0.2,0.3,0.3,0.4c0.1,0.2,0.2,0.3,0.3,0.5c0,0.1,0.1,0.2,0.1,0.2c0.2,0.3,0.4,0.6,0.6,0.8
		c0,0,0,0,0,0c0,0,0,0,0,0c0.2,0.2,0.3,0.4,0.5,0.7c0.1,0.1,0.2,0.3,0.3,0.4c0,0.1,0.1,0.1,0.1,0.2c0,0,0.1,0.1,0.1,0.1
		c0.2,0.2,0.3,0.4,0.5,0.6c0.1,0.1,0.1,0.1,0.2,0.2c0,0.1,0.1,0.1,0.1,0.2c0.1,0.1,0.1,0.1,0.2,0.2c0.2,0.2,0.3,0.4,0.5,0.5
		c0,0,0.1,0.1,0.1,0.1c0,0,0.1,0.1,0.1,0.1c0.1,0.1,0.2,0.2,0.2,0.2c0.2,0.2,0.3,0.3,0.5,0.5c0,0,0.1,0,0.1,0.1c0,0,0.1,0.1,0.1,0.1
		c0.1,0.1,0.2,0.2,0.3,0.2c0.1,0.1,0.3,0.3,0.4,0.4c0,0,0.1,0.1,0.1,0.1c0,0,0.1,0,0.1,0.1c0.1,0.1,0.2,0.1,0.2,0.2
		c0.1,0.1,0.3,0.2,0.4,0.3c0,0,0.1,0.1,0.1,0.1c0,0,0.1,0,0.1,0.1c0.1,0,0.1,0.1,0.2,0.1c0.1,0.1,0.3,0.2,0.4,0.3
		c0.1,0.1,0.2,0.1,0.3,0.2l3,1.6l2.4,1.1l28.7-13.1L784.1,446.9z"/>
	<g>
		<path class="st5" d="M633.1,139.8c19.7,10.5,33,28,40,52.6l64,237.1l2.4,8c3.4,11,7.7,18,12.9,20.9l3,1.6l2.4,1.1l0.5,44.5
			c-4.1-1.3-9.7-3.9-16.6-7.5c-11-5.9-19.9-14.5-27-24.6c-7-10.1-12.7-23.5-17-40.2l-26-103.7l-32.3,109.8L593,414.7L649.1,242
			l-10.9-37.5c-2-7.5-4.6-13.3-7.7-17.6c-3.1-4.2-7-7.6-11.7-10.1l-8.6-4l-1.1-41.6C616,132.1,624,135,633.1,139.8z"/>
	</g>
</g>
<path class="st6" d="M344.8,747.2c-0.1-0.1-0.2-0.2-0.3-0.3C344.6,747,344.7,747.1,344.8,747.2z"/>
<path class="st6" d="M345.1,747.6c-0.1-0.1-0.2-0.2-0.3-0.4C344.9,747.3,345,747.4,345.1,747.6z"/>
<path id="cloud_69_" class="st1" d="M693,362.6c-7.8-26.6-29.5-48.1-56.9-51.8c-6.7-33.4-30.4-68.7-58.4-84.5
	c-29.4-16.6-53.5-5.9-58.1,23.5c-0.1-0.1-0.2-0.1-0.3-0.2c-20.8-11.7-37.4-1.9-37.2,21.8c-16.1-3.9-27.7,6.5-27.5,26.7
	c0.3,24.3,17.7,53.8,38.9,65.7L612.7,431C640.9,452.2,715.4,438.9,693,362.6z"/>
<path id="cloud_68_" class="st5" d="M426.4,146.9c-12.9-7.4-24.1-4.7-29.5,5.6c-1.8-1.5-3.7-2.8-5.6-4c-11.4-6.6-21.1-3.8-24.7,5.8
	c-1.7-1.6-3.5-3-5.4-4.1c-9.9-5.7-18-1.1-18,10.4c0,11.5,8,25.4,18,31.1l65.3,37.7c18.3,10.6,33.1,0.6,33.1-22.1
	C459.5,184.5,444.7,157.5,426.4,146.9z"/>
<path id="cloud_67_" class="st7" d="M224.3,467c2.2-1.3,4.4-2.2,6.5-2.9c1.1-22.7,16.9-49.4,36.3-60.6c1.8-1,3.6-1.9,5.3-2.6
	c7.3-19.6,21.5-38.3,37.8-47.7c23.8-13.7,43.1-2.6,43.1,24.9c0,0.6,0,1.2,0,1.8c0,0,0,0,0,0c18.2-10.5,33-2,33,19.1
	s-14.8,46.7-33,57.2l-129,74.5c-15.2,8.8-27.6,1.7-27.6-15.9C196.7,497.2,209.1,475.8,224.3,467z"/>
<g>
	<g>
		<polygon points="556.6,396.9 585.3,383.8 553,493.6 524.3,506.7 		"/>
	</g>
	<g>
		<polygon points="642.5,528.3 671.2,515.2 671.7,555.9 643.1,572.4 		"/>
	</g>
	<path d="M668.9,514.1l-3-1.6c-0.3-0.2-0.6-0.4-0.9-0.6c0,0-0.1,0-0.1-0.1c-0.3-0.2-0.6-0.4-0.8-0.6c0,0-0.1,0-0.1-0.1
		c-0.3-0.2-0.6-0.5-0.8-0.7c0,0-0.1-0.1-0.1-0.1c-0.3-0.2-0.5-0.5-0.8-0.8c0,0-0.1-0.1-0.1-0.1c-0.3-0.3-0.5-0.5-0.8-0.8
		c0-0.1-0.1-0.1-0.1-0.2c-0.3-0.3-0.5-0.6-0.7-0.9c0,0-0.1-0.1-0.1-0.2c-0.3-0.3-0.5-0.7-0.8-1c0,0,0,0,0,0
		c-0.2-0.3-0.5-0.7-0.7-1.1c-0.1-0.2-0.2-0.3-0.3-0.5c-0.2-0.3-0.3-0.5-0.5-0.8c-0.1-0.1-0.2-0.3-0.2-0.4c-0.2-0.3-0.4-0.7-0.6-1.1
		c0-0.1-0.1-0.2-0.1-0.3c-0.2-0.5-0.5-0.9-0.7-1.4c-0.1-0.1-0.1-0.3-0.2-0.4c-0.2-0.3-0.3-0.7-0.5-1c-0.2-0.4-0.3-0.7-0.5-1.1
		c-0.1-0.3-0.2-0.5-0.3-0.8c-0.1-0.3-0.2-0.5-0.3-0.8c-0.1-0.3-0.3-0.6-0.4-1c-0.1-0.3-0.2-0.5-0.3-0.8c-0.1-0.3-0.2-0.7-0.4-1
		c-0.1-0.3-0.2-0.6-0.3-1c-0.2-0.5-0.3-0.9-0.5-1.4l-2.4-8l-64-237.1c-0.1-0.4-0.2-0.8-0.3-1.1c-0.3-0.9-0.5-1.8-0.8-2.6
		c-0.1-0.2-0.1-0.3-0.2-0.5c-0.1-0.2-0.1-0.4-0.2-0.6c-0.1-0.4-0.3-0.9-0.4-1.3c-0.3-0.8-0.6-1.7-0.9-2.5c0,0,0-0.1,0-0.1
		c0-0.1-0.1-0.2-0.1-0.3c-0.3-0.7-0.6-1.5-0.9-2.2c-0.2-0.4-0.3-0.8-0.5-1.2c-0.2-0.4-0.3-0.7-0.5-1.1c-0.1-0.3-0.2-0.5-0.3-0.8
		c-0.4-0.9-0.8-1.8-1.2-2.6c-0.1-0.2-0.2-0.3-0.2-0.5c-0.5-1.1-1.1-2.2-1.7-3.2c-0.1-0.1-0.1-0.3-0.2-0.4c-0.4-0.8-0.9-1.6-1.4-2.4
		c-0.1-0.2-0.3-0.5-0.4-0.7c-0.2-0.3-0.4-0.7-0.6-1c-0.2-0.3-0.4-0.7-0.6-1c-0.4-0.6-0.8-1.3-1.3-1.9c0,0,0-0.1-0.1-0.1c0,0,0,0,0,0
		c-0.4-0.7-0.9-1.3-1.4-1.9c-0.3-0.4-0.5-0.7-0.8-1.1c-0.1-0.2-0.2-0.3-0.3-0.5c-0.1-0.1-0.2-0.2-0.3-0.3c-0.5-0.6-1-1.2-1.5-1.9
		c-0.2-0.2-0.3-0.4-0.5-0.6c-0.2-0.2-0.3-0.4-0.5-0.6c-0.2-0.2-0.4-0.5-0.6-0.7c-0.6-0.6-1.1-1.2-1.7-1.9c0,0-0.1-0.1-0.1-0.1
		c-0.1-0.1-0.1-0.2-0.2-0.2c-0.5-0.5-1-1-1.5-1.5c-0.3-0.3-0.6-0.6-0.9-0.9c-0.2-0.2-0.4-0.3-0.5-0.5c-0.1-0.1-0.3-0.3-0.4-0.4
		c-0.6-0.6-1.3-1.2-1.9-1.7c-0.1-0.1-0.2-0.2-0.3-0.3c-0.2-0.1-0.4-0.3-0.5-0.4c-0.4-0.3-0.8-0.6-1.2-1c-0.4-0.3-0.9-0.7-1.3-1
		c-0.2-0.1-0.3-0.3-0.5-0.4c-0.1-0.1-0.2-0.1-0.3-0.2c-0.7-0.5-1.5-1.1-2.2-1.6c-0.1-0.1-0.3-0.2-0.4-0.3c-0.2-0.2-0.5-0.3-0.7-0.5
		c-0.4-0.3-0.8-0.5-1.2-0.8c-0.4-0.3-0.9-0.5-1.3-0.8c-0.3-0.2-0.5-0.3-0.8-0.5c-0.1-0.1-0.3-0.2-0.4-0.3c-0.9-0.5-1.8-1-2.8-1.5
		c-0.1,0-0.1-0.1-0.2-0.1c-0.6-0.3-1.3-0.7-1.9-1c-0.2-0.1-0.4-0.2-0.6-0.3c-0.4-0.2-0.9-0.4-1.3-0.6c-0.1-0.1-0.2-0.1-0.3-0.2
		c-0.1-0.1-0.2-0.1-0.4-0.2c-0.4-0.2-0.8-0.4-1.2-0.6c-0.2-0.1-0.4-0.2-0.6-0.3c-0.5-0.2-0.9-0.4-1.4-0.6c-0.1-0.1-0.2-0.1-0.3-0.2
		c0,0-0.1,0-0.1,0c-0.6-0.2-1.1-0.5-1.7-0.7c-0.1,0-0.2-0.1-0.3-0.1c-0.4-0.2-0.9-0.4-1.3-0.5c0,0-0.1,0-0.1-0.1
		c-0.2-0.1-0.3-0.1-0.5-0.2c-0.3-0.1-0.7-0.2-1-0.4c-0.2-0.1-0.4-0.2-0.7-0.2c-0.3-0.1-0.6-0.2-0.9-0.3c-0.1,0-0.2-0.1-0.3-0.1
		c-0.1,0-0.2-0.1-0.4-0.1c-0.3-0.1-0.6-0.2-0.9-0.3c-0.2-0.1-0.4-0.1-0.7-0.2c-0.3-0.1-0.6-0.2-0.8-0.2c-0.1,0-0.3-0.1-0.4-0.1
		c-0.1,0-0.2,0-0.3-0.1c-0.3-0.1-0.5-0.1-0.8-0.2c-0.2-0.1-0.4-0.1-0.6-0.2c-0.3-0.1-0.5-0.1-0.8-0.2c-0.2,0-0.3-0.1-0.5-0.1
		c-0.1,0-0.1,0-0.2,0c-0.3-0.1-0.6-0.1-0.8-0.2c-0.2,0-0.4-0.1-0.6-0.1c-0.3,0-0.6-0.1-0.9-0.1c-0.1,0-0.3,0-0.4-0.1
		c0,0-0.1,0-0.1,0l-28.7,13.1c0.2,0,0.4,0.1,0.5,0.1c0.3,0,0.6,0.1,0.9,0.1c0.2,0,0.4,0.1,0.6,0.1c0.3,0,0.6,0.1,0.8,0.2
		c0.2,0,0.4,0.1,0.6,0.1c0.3,0.1,0.5,0.1,0.8,0.2c0.2,0,0.4,0.1,0.6,0.1c0.3,0.1,0.5,0.1,0.8,0.2c0.2,0.1,0.4,0.1,0.6,0.2
		c0.3,0.1,0.6,0.2,0.8,0.2c0.2,0.1,0.4,0.1,0.7,0.2c0.3,0.1,0.6,0.2,0.9,0.3c0.2,0.1,0.4,0.1,0.7,0.2c0.3,0.1,0.6,0.2,0.9,0.3
		c0.2,0.1,0.4,0.1,0.6,0.2c0.3,0.1,0.7,0.2,1,0.4c0.2,0.1,0.4,0.1,0.6,0.2c0.4,0.2,0.9,0.3,1.3,0.5c0.1,0,0.2,0.1,0.3,0.1
		c0.6,0.2,1.1,0.5,1.7,0.7c0.1,0.1,0.3,0.1,0.4,0.2c0.5,0.2,0.9,0.4,1.4,0.6c0.2,0.1,0.4,0.2,0.6,0.3c0.4,0.2,0.8,0.4,1.2,0.6
		c0.2,0.1,0.4,0.2,0.7,0.3c0.4,0.2,0.9,0.4,1.3,0.6c0.2,0.1,0.4,0.2,0.6,0.3c0.6,0.3,1.3,0.6,1.9,1c1.1,0.6,2.2,1.2,3.3,1.9
		c0.3,0.2,0.5,0.3,0.8,0.5c0.8,0.5,1.7,1,2.5,1.6c0.2,0.2,0.5,0.3,0.7,0.5c1,0.7,2,1.4,2.9,2.1c0.2,0.1,0.3,0.3,0.5,0.4
		c0.8,0.6,1.7,1.3,2.5,2c0.2,0.1,0.4,0.3,0.5,0.4c0.9,0.8,1.8,1.6,2.6,2.4c0.2,0.2,0.4,0.3,0.5,0.5c0.8,0.8,1.6,1.6,2.4,2.4
		c0.1,0.1,0.1,0.2,0.2,0.2c0.8,0.9,1.6,1.8,2.4,2.7c0.2,0.2,0.3,0.4,0.5,0.6c0.8,0.9,1.5,1.8,2.2,2.8c0.1,0.2,0.2,0.3,0.3,0.5
		c0.8,1,1.5,2,2.2,3.1c0,0,0,0.1,0.1,0.1c0.6,1,1.3,1.9,1.9,2.9c0.2,0.3,0.4,0.6,0.6,1c0.6,1,1.2,2.1,1.8,3.1
		c0.1,0.1,0.1,0.3,0.2,0.4c0.6,1.1,1.1,2.1,1.7,3.2c0.1,0.2,0.2,0.3,0.2,0.5c0.5,1.1,1.1,2.3,1.6,3.4c0.2,0.4,0.3,0.7,0.5,1.1
		c0.5,1.1,0.9,2.2,1.3,3.4c0,0.1,0.1,0.2,0.1,0.3c0.5,1.3,0.9,2.6,1.4,3.9c0.1,0.2,0.1,0.4,0.2,0.6c0.5,1.4,0.9,2.8,1.3,4.3
		l64,237.1l2.4,8c0.1,0.3,0.2,0.5,0.2,0.8c0.1,0.2,0.1,0.4,0.2,0.6c0.1,0.3,0.2,0.6,0.3,1c0,0.1,0.1,0.2,0.1,0.4
		c0.1,0.2,0.2,0.4,0.2,0.7c0.1,0.3,0.2,0.6,0.3,0.8c0,0.1,0.1,0.2,0.1,0.3c0.1,0.2,0.2,0.5,0.3,0.7c0.1,0.3,0.2,0.5,0.3,0.8
		c0,0.1,0.1,0.2,0.1,0.2c0.1,0.2,0.1,0.3,0.2,0.5c0.2,0.4,0.3,0.7,0.5,1.1c0,0.1,0.1,0.2,0.1,0.3c0.1,0.2,0.2,0.5,0.3,0.7
		c0.1,0.1,0.1,0.3,0.2,0.4c0.2,0.5,0.5,0.9,0.7,1.4c0,0.1,0.1,0.2,0.1,0.3c0.2,0.4,0.4,0.7,0.6,1.1c0.1,0.1,0.2,0.3,0.2,0.4
		c0.1,0.1,0.2,0.3,0.2,0.4c0.1,0.1,0.2,0.3,0.3,0.4c0.1,0.2,0.2,0.3,0.3,0.5c0,0.1,0.1,0.2,0.1,0.2c0.2,0.3,0.4,0.6,0.6,0.8
		c0,0,0,0,0,0c0,0,0,0,0,0c0.2,0.2,0.3,0.4,0.5,0.7c0.1,0.1,0.2,0.3,0.3,0.4c0,0,0.1,0.1,0.1,0.2c0,0,0.1,0.1,0.1,0.1
		c0.2,0.2,0.3,0.4,0.5,0.6c0.1,0.1,0.1,0.1,0.2,0.2c0,0.1,0.1,0.1,0.1,0.2c0.1,0.1,0.1,0.1,0.2,0.2c0.2,0.2,0.3,0.4,0.5,0.5
		c0,0,0.1,0.1,0.1,0.1c0,0,0.1,0.1,0.1,0.1c0.1,0.1,0.2,0.2,0.2,0.2c0.2,0.2,0.3,0.3,0.5,0.5c0,0,0.1,0,0.1,0.1c0,0,0.1,0.1,0.1,0.1
		c0.1,0.1,0.2,0.2,0.3,0.2c0.1,0.1,0.3,0.3,0.4,0.4c0,0,0.1,0.1,0.1,0.1c0,0,0.1,0,0.1,0.1c0.1,0.1,0.2,0.1,0.2,0.2
		c0.1,0.1,0.3,0.2,0.4,0.3c0,0,0.1,0.1,0.1,0.1c0,0,0.1,0,0.1,0.1c0.1,0,0.1,0.1,0.2,0.1c0.1,0.1,0.3,0.2,0.4,0.3
		c0.1,0.1,0.2,0.1,0.3,0.2l3,1.6l2.4,1.1l28.7-13.1L668.9,514.1z"/>
	<g>
		<path class="st4" d="M517.8,207c19.7,10.5,33,28,40,52.6l64,237.1l2.4,8c3.4,11,7.7,18,12.9,20.9l3,1.6l2.4,1.1l0.5,44.2
			c-4.1-1.3-9.6-3.5-16.5-7.2c-11-5.9-20-14.5-27.1-24.5c-7-10.1-12.7-23.5-17-40.2l-26-103.7l-32.3,109.8l-46.6-24.8l56.1-172.6
			l-10.9-37.5c-2-7.5-4.6-13.3-7.7-17.6c-3.1-4.2-7-7.6-11.7-10.1l-8.6-4l-1.1-41.6C500.8,199.3,508.8,202.2,517.8,207z"/>
	</g>
	<g id="XMLID_1_">
		<polygon id="XMLID_4_" class="st8" points="504.9,504.8 518.1,529.2 545.8,530 532.6,505.6 		"/>
		<polygon id="XMLID_3_" class="st9" points="504.9,504.8 519.4,481.2 547.2,482 532.6,505.6 		"/>
		<polygon id="XMLID_2_" class="st10" points="545.8,530 560.4,506.4 547.2,482 532.6,505.6 		"/>
	</g>
</g>
<g>
	<g>
		<polygon points="442.8,463.3 471.5,450.2 439.2,560 410.5,573.1 		"/>
	</g>
	<g>
		<polygon class="st0" points="528.8,594.7 557.5,581.6 558,621.5 529.3,638 		"/>
	</g>
	<path class="st1" d="M555.1,580.6l-3-1.6c-0.3-0.2-0.6-0.4-0.9-0.6c0,0-0.1,0-0.1-0.1c-0.3-0.2-0.6-0.4-0.8-0.6c0,0-0.1,0-0.1-0.1
		c-0.3-0.2-0.6-0.5-0.8-0.7c0,0-0.1-0.1-0.1-0.1c-0.3-0.2-0.5-0.5-0.8-0.8c0,0-0.1-0.1-0.1-0.1c-0.3-0.3-0.5-0.5-0.8-0.8
		c0-0.1-0.1-0.1-0.1-0.2c-0.3-0.3-0.5-0.6-0.7-0.9c0,0-0.1-0.1-0.1-0.2c-0.3-0.3-0.5-0.7-0.8-1c0,0,0,0,0,0
		c-0.2-0.3-0.5-0.7-0.7-1.1c-0.1-0.2-0.2-0.3-0.3-0.5c-0.2-0.3-0.3-0.5-0.5-0.8c-0.1-0.1-0.2-0.3-0.2-0.4c-0.2-0.3-0.4-0.7-0.6-1.1
		c0-0.1-0.1-0.2-0.1-0.3c-0.2-0.5-0.5-0.9-0.7-1.4c-0.1-0.1-0.1-0.3-0.2-0.4c-0.2-0.3-0.3-0.7-0.5-1c-0.2-0.4-0.3-0.7-0.5-1.1
		c-0.1-0.3-0.2-0.5-0.3-0.8c-0.1-0.3-0.2-0.5-0.3-0.8c-0.1-0.3-0.3-0.6-0.4-1c-0.1-0.3-0.2-0.5-0.3-0.8c-0.1-0.3-0.2-0.7-0.4-1
		c-0.1-0.3-0.2-0.6-0.3-1c-0.2-0.5-0.3-0.9-0.5-1.4l-2.4-8l-64-237.1c-0.1-0.4-0.2-0.8-0.3-1.1c-0.3-0.9-0.5-1.8-0.8-2.6
		c-0.1-0.2-0.1-0.3-0.2-0.5c-0.1-0.2-0.1-0.4-0.2-0.6c-0.1-0.4-0.3-0.9-0.4-1.3c-0.3-0.8-0.6-1.7-0.9-2.5c0,0,0-0.1,0-0.1
		c0-0.1-0.1-0.2-0.1-0.3c-0.3-0.7-0.6-1.5-0.9-2.2c-0.2-0.4-0.3-0.8-0.5-1.2c-0.2-0.4-0.3-0.7-0.5-1.1c-0.1-0.3-0.2-0.5-0.3-0.8
		c-0.4-0.9-0.8-1.8-1.2-2.6c-0.1-0.2-0.2-0.3-0.2-0.5c-0.5-1.1-1.1-2.2-1.7-3.2c-0.1-0.1-0.1-0.3-0.2-0.4c-0.4-0.8-0.9-1.6-1.4-2.4
		c-0.1-0.2-0.3-0.5-0.4-0.7c-0.2-0.3-0.4-0.7-0.6-1c-0.2-0.3-0.4-0.7-0.6-1c-0.4-0.6-0.8-1.3-1.3-1.9c0,0,0-0.1-0.1-0.1c0,0,0,0,0,0
		c-0.4-0.7-0.9-1.3-1.4-1.9c-0.3-0.4-0.5-0.7-0.8-1.1c-0.1-0.2-0.2-0.3-0.3-0.5c-0.1-0.1-0.2-0.2-0.3-0.3c-0.5-0.6-1-1.2-1.5-1.9
		c-0.2-0.2-0.3-0.4-0.5-0.6c-0.2-0.2-0.3-0.4-0.5-0.6c-0.2-0.2-0.4-0.5-0.6-0.7c-0.6-0.6-1.1-1.2-1.7-1.9c0,0-0.1-0.1-0.1-0.1
		c-0.1-0.1-0.1-0.2-0.2-0.2c-0.5-0.5-1-1-1.5-1.5c-0.3-0.3-0.6-0.6-0.9-0.9c-0.2-0.2-0.4-0.3-0.5-0.5c-0.1-0.1-0.3-0.3-0.4-0.4
		c-0.6-0.6-1.3-1.2-1.9-1.7c-0.1-0.1-0.2-0.2-0.3-0.3c-0.2-0.1-0.4-0.3-0.5-0.4c-0.4-0.3-0.8-0.6-1.2-1c-0.4-0.3-0.9-0.7-1.3-1
		c-0.2-0.1-0.3-0.3-0.5-0.4c-0.1-0.1-0.2-0.1-0.3-0.2c-0.7-0.5-1.5-1.1-2.2-1.6c-0.1-0.1-0.3-0.2-0.4-0.3c-0.2-0.2-0.5-0.3-0.7-0.5
		c-0.4-0.3-0.8-0.5-1.2-0.8c-0.4-0.3-0.9-0.5-1.3-0.8c-0.3-0.2-0.5-0.3-0.8-0.5c-0.1-0.1-0.3-0.2-0.4-0.3c-0.9-0.5-1.8-1-2.8-1.5
		c-0.1,0-0.1-0.1-0.2-0.1c-0.6-0.3-1.3-0.7-1.9-1c-0.2-0.1-0.4-0.2-0.6-0.3c-0.4-0.2-0.9-0.4-1.3-0.6c-0.1-0.1-0.2-0.1-0.3-0.2
		c-0.1-0.1-0.2-0.1-0.4-0.2c-0.4-0.2-0.8-0.4-1.2-0.6c-0.2-0.1-0.4-0.2-0.6-0.3c-0.5-0.2-0.9-0.4-1.4-0.6c-0.1-0.1-0.2-0.1-0.3-0.2
		c0,0-0.1,0-0.1,0c-0.6-0.2-1.1-0.5-1.7-0.7c-0.1,0-0.2-0.1-0.3-0.1c-0.4-0.2-0.9-0.4-1.3-0.5c0,0-0.1,0-0.1-0.1
		c-0.2-0.1-0.3-0.1-0.5-0.2c-0.3-0.1-0.7-0.2-1-0.4c-0.2-0.1-0.4-0.2-0.7-0.2c-0.3-0.1-0.6-0.2-0.9-0.3c-0.1,0-0.2-0.1-0.3-0.1
		c-0.1,0-0.2-0.1-0.4-0.1c-0.3-0.1-0.6-0.2-0.9-0.3c-0.2-0.1-0.4-0.1-0.7-0.2c-0.3-0.1-0.6-0.2-0.8-0.2c-0.1,0-0.3-0.1-0.4-0.1
		c-0.1,0-0.2,0-0.3-0.1c-0.3-0.1-0.5-0.1-0.8-0.2c-0.2-0.1-0.4-0.1-0.6-0.2c-0.3-0.1-0.5-0.1-0.8-0.2c-0.2,0-0.3-0.1-0.5-0.1
		c-0.1,0-0.1,0-0.2,0c-0.3-0.1-0.6-0.1-0.8-0.2c-0.2,0-0.4-0.1-0.6-0.1c-0.3,0-0.6-0.1-0.9-0.1c-0.1,0-0.3,0-0.4-0.1
		c0,0-0.1,0-0.1,0l-28.7,13.1c0.2,0,0.4,0.1,0.5,0.1c0.3,0,0.6,0.1,0.9,0.1c0.2,0,0.4,0.1,0.6,0.1c0.3,0,0.6,0.1,0.8,0.2
		c0.2,0,0.4,0.1,0.6,0.1c0.3,0.1,0.5,0.1,0.8,0.2c0.2,0,0.4,0.1,0.6,0.1c0.3,0.1,0.5,0.1,0.8,0.2c0.2,0.1,0.4,0.1,0.6,0.2
		c0.3,0.1,0.6,0.2,0.8,0.2c0.2,0.1,0.4,0.1,0.7,0.2c0.3,0.1,0.6,0.2,0.9,0.3c0.2,0.1,0.4,0.1,0.7,0.2c0.3,0.1,0.6,0.2,0.9,0.3
		c0.2,0.1,0.4,0.1,0.6,0.2c0.3,0.1,0.7,0.2,1,0.4c0.2,0.1,0.4,0.1,0.6,0.2c0.4,0.2,0.9,0.3,1.3,0.5c0.1,0,0.2,0.1,0.3,0.1
		c0.6,0.2,1.1,0.5,1.7,0.7c0.1,0.1,0.3,0.1,0.4,0.2c0.5,0.2,0.9,0.4,1.4,0.6c0.2,0.1,0.4,0.2,0.6,0.3c0.4,0.2,0.8,0.4,1.2,0.6
		c0.2,0.1,0.4,0.2,0.7,0.3c0.4,0.2,0.9,0.4,1.3,0.6c0.2,0.1,0.4,0.2,0.6,0.3c0.6,0.3,1.3,0.6,1.9,1c1.1,0.6,2.2,1.2,3.3,1.9
		c0.3,0.2,0.5,0.3,0.8,0.5c0.8,0.5,1.7,1,2.5,1.6c0.2,0.2,0.5,0.3,0.7,0.5c1,0.7,2,1.4,2.9,2.1c0.2,0.1,0.3,0.3,0.5,0.4
		c0.8,0.6,1.7,1.3,2.5,2c0.2,0.1,0.4,0.3,0.5,0.4c0.9,0.8,1.8,1.6,2.6,2.4c0.2,0.2,0.4,0.3,0.5,0.5c0.8,0.8,1.6,1.6,2.4,2.4
		c0.1,0.1,0.1,0.2,0.2,0.2c0.8,0.9,1.6,1.8,2.4,2.7c0.2,0.2,0.3,0.4,0.5,0.6c0.8,0.9,1.5,1.8,2.2,2.8c0.1,0.2,0.2,0.3,0.3,0.5
		c0.8,1,1.5,2,2.2,3.1c0,0,0,0.1,0.1,0.1c0.6,1,1.3,1.9,1.9,2.9c0.2,0.3,0.4,0.6,0.6,1c0.6,1,1.2,2.1,1.8,3.1
		c0.1,0.1,0.1,0.3,0.2,0.4c0.6,1.1,1.1,2.1,1.7,3.2c0.1,0.2,0.2,0.3,0.2,0.5c0.5,1.1,1.1,2.3,1.6,3.4c0.2,0.4,0.3,0.7,0.5,1.1
		c0.5,1.1,0.9,2.2,1.3,3.4c0,0.1,0.1,0.2,0.1,0.3c0.5,1.3,0.9,2.6,1.4,3.9c0.1,0.2,0.1,0.4,0.2,0.6c0.5,1.4,0.9,2.8,1.3,4.3
		l64,237.1l2.4,8c0.1,0.3,0.2,0.5,0.2,0.8c0.1,0.2,0.1,0.4,0.2,0.6c0.1,0.3,0.2,0.6,0.3,1c0,0.1,0.1,0.2,0.1,0.4
		c0.1,0.2,0.2,0.4,0.2,0.7c0.1,0.3,0.2,0.6,0.3,0.8c0,0.1,0.1,0.2,0.1,0.3c0.1,0.2,0.2,0.5,0.3,0.7c0.1,0.3,0.2,0.5,0.3,0.8
		c0,0.1,0.1,0.2,0.1,0.2c0.1,0.2,0.1,0.3,0.2,0.5c0.2,0.4,0.3,0.7,0.5,1.1c0,0.1,0.1,0.2,0.1,0.3c0.1,0.2,0.2,0.5,0.3,0.7
		c0.1,0.1,0.1,0.3,0.2,0.4c0.2,0.5,0.5,0.9,0.7,1.4c0,0.1,0.1,0.2,0.1,0.3c0.2,0.4,0.4,0.7,0.6,1.1c0.1,0.1,0.2,0.3,0.2,0.4
		c0.1,0.1,0.2,0.3,0.2,0.4c0.1,0.1,0.2,0.3,0.3,0.4c0.1,0.2,0.2,0.3,0.3,0.5c0,0.1,0.1,0.2,0.1,0.2c0.2,0.3,0.4,0.6,0.6,0.8
		c0,0,0,0,0,0c0,0,0,0,0,0c0.2,0.2,0.3,0.4,0.5,0.7c0.1,0.1,0.2,0.3,0.3,0.4c0,0.1,0.1,0.1,0.1,0.2c0,0,0.1,0.1,0.1,0.1
		c0.2,0.2,0.3,0.4,0.5,0.6c0.1,0.1,0.1,0.1,0.2,0.2c0,0.1,0.1,0.1,0.1,0.2c0.1,0.1,0.1,0.1,0.2,0.2c0.2,0.2,0.3,0.4,0.5,0.5
		c0,0,0.1,0.1,0.1,0.1c0,0,0.1,0.1,0.1,0.1c0.1,0.1,0.2,0.2,0.2,0.2c0.2,0.2,0.3,0.3,0.5,0.5c0,0,0.1,0,0.1,0.1c0,0,0.1,0.1,0.1,0.1
		c0.1,0.1,0.2,0.2,0.3,0.2c0.1,0.1,0.3,0.3,0.4,0.4c0,0,0.1,0.1,0.1,0.1c0,0,0.1,0,0.1,0.1c0.1,0.1,0.2,0.1,0.2,0.2
		c0.1,0.1,0.3,0.2,0.4,0.3c0,0,0.1,0.1,0.1,0.1c0,0,0.1,0,0.1,0.1c0.1,0,0.1,0.1,0.2,0.1c0.1,0.1,0.3,0.2,0.4,0.3
		c0.1,0.1,0.2,0.1,0.3,0.2l3,1.6l2.4,1.1l28.7-13.1L555.1,580.6z"/>
	<g>
		<path class="st7" d="M404.1,273.5c19.7,10.5,33,28,40,52.6l64,237.1l2.4,8c3.4,11,7.7,18,12.9,20.9l3,1.6l2.4,1.1l0.5,43.3
			c-4.1-1.3-9.7-2.7-16.5-6.4c-11-5.9-20-14.4-27-24.4c-7-10.1-12.7-23.5-17-40.2l-26-103.7l-32.3,109.8L364,548.3l56.1-172.6
			l-10.9-37.5c-2-7.5-4.6-13.3-7.7-17.6c-3.1-4.2-7-7.6-11.7-10.1l-8.6-4l-1.1-41.6C387,265.8,395,268.6,404.1,273.5z"/>
	</g>
</g>
<g>
	<g>
		<polygon points="328,527.7 356.7,514.6 324.4,624.4 295.6,637.8 		"/>
	</g>
	<g>
		<polygon class="st3" points="414,659.1 442.7,646 443.2,687.1 414.5,703.8 		"/>
	</g>
	<path class="st4" d="M440.3,645l-3-1.6c-0.3-0.2-0.6-0.4-0.9-0.6c0,0-0.1,0-0.1-0.1c-0.3-0.2-0.6-0.4-0.8-0.6c0,0-0.1,0-0.1-0.1
		c-0.3-0.2-0.6-0.5-0.8-0.7c0,0-0.1-0.1-0.1-0.1c-0.3-0.2-0.5-0.5-0.8-0.8c0,0-0.1-0.1-0.1-0.1c-0.3-0.3-0.5-0.5-0.8-0.8
		c0-0.1-0.1-0.1-0.1-0.2c-0.3-0.3-0.5-0.6-0.7-0.9c0,0-0.1-0.1-0.1-0.2c-0.3-0.3-0.5-0.7-0.8-1c0,0,0,0,0,0
		c-0.2-0.3-0.5-0.7-0.7-1.1c-0.1-0.2-0.2-0.3-0.3-0.5c-0.2-0.3-0.3-0.5-0.5-0.8c-0.1-0.1-0.2-0.3-0.2-0.4c-0.2-0.3-0.4-0.7-0.6-1.1
		c0-0.1-0.1-0.2-0.1-0.3c-0.2-0.5-0.5-0.9-0.7-1.4c-0.1-0.1-0.1-0.3-0.2-0.4c-0.2-0.3-0.3-0.7-0.5-1c-0.2-0.4-0.3-0.7-0.5-1.1
		c-0.1-0.3-0.2-0.5-0.3-0.8c-0.1-0.3-0.2-0.5-0.3-0.8c-0.1-0.3-0.3-0.6-0.4-1c-0.1-0.3-0.2-0.5-0.3-0.8c-0.1-0.3-0.2-0.7-0.4-1
		c-0.1-0.3-0.2-0.6-0.3-1c-0.2-0.5-0.3-0.9-0.5-1.4l-2.4-8l-64-237.1c-0.1-0.4-0.2-0.8-0.3-1.1c-0.3-0.9-0.5-1.8-0.8-2.6
		c-0.1-0.2-0.1-0.3-0.2-0.5c-0.1-0.2-0.1-0.4-0.2-0.6c-0.1-0.4-0.3-0.9-0.4-1.3c-0.3-0.8-0.6-1.7-0.9-2.5c0,0,0-0.1,0-0.1
		c0-0.1-0.1-0.2-0.1-0.3c-0.3-0.7-0.6-1.5-0.9-2.2c-0.2-0.4-0.3-0.8-0.5-1.2c-0.2-0.4-0.3-0.7-0.5-1.1c-0.1-0.3-0.2-0.5-0.3-0.8
		c-0.4-0.9-0.8-1.8-1.2-2.6c-0.1-0.2-0.2-0.3-0.2-0.5c-0.5-1.1-1.1-2.2-1.7-3.2c-0.1-0.1-0.1-0.3-0.2-0.4c-0.4-0.8-0.9-1.6-1.4-2.4
		c-0.1-0.2-0.3-0.5-0.4-0.7c-0.2-0.3-0.4-0.7-0.6-1c-0.2-0.3-0.4-0.7-0.6-1c-0.4-0.6-0.8-1.3-1.3-1.9c0,0,0-0.1-0.1-0.1c0,0,0,0,0,0
		c-0.4-0.7-0.9-1.3-1.4-1.9c-0.3-0.4-0.5-0.7-0.8-1.1c-0.1-0.2-0.2-0.3-0.3-0.5c-0.1-0.1-0.2-0.2-0.3-0.3c-0.5-0.6-1-1.2-1.5-1.9
		c-0.2-0.2-0.3-0.4-0.5-0.6c-0.2-0.2-0.3-0.4-0.5-0.6c-0.2-0.2-0.4-0.5-0.6-0.7c-0.6-0.6-1.1-1.2-1.7-1.9c0,0-0.1-0.1-0.1-0.1
		c-0.1-0.1-0.1-0.2-0.2-0.2c-0.5-0.5-1-1-1.5-1.5c-0.3-0.3-0.6-0.6-0.9-0.9c-0.2-0.2-0.4-0.3-0.5-0.5c-0.1-0.1-0.3-0.3-0.4-0.4
		c-0.6-0.6-1.3-1.2-1.9-1.7c-0.1-0.1-0.2-0.2-0.3-0.3c-0.2-0.1-0.4-0.3-0.5-0.4c-0.4-0.3-0.8-0.6-1.2-1c-0.4-0.3-0.9-0.7-1.3-1
		c-0.2-0.1-0.3-0.3-0.5-0.4c-0.1-0.1-0.2-0.1-0.3-0.2c-0.7-0.5-1.5-1.1-2.2-1.6c-0.1-0.1-0.3-0.2-0.4-0.3c-0.2-0.2-0.5-0.3-0.7-0.5
		c-0.4-0.3-0.8-0.5-1.2-0.8c-0.4-0.3-0.9-0.5-1.3-0.8c-0.3-0.2-0.5-0.3-0.8-0.5c-0.1-0.1-0.3-0.2-0.4-0.3c-0.9-0.5-1.8-1-2.8-1.5
		c-0.1,0-0.1-0.1-0.2-0.1c-0.6-0.3-1.3-0.7-1.9-1c-0.2-0.1-0.4-0.2-0.6-0.3c-0.4-0.2-0.9-0.4-1.3-0.6c-0.1-0.1-0.2-0.1-0.3-0.2
		c-0.1-0.1-0.2-0.1-0.4-0.2c-0.4-0.2-0.8-0.4-1.2-0.6c-0.2-0.1-0.4-0.2-0.6-0.3c-0.5-0.2-0.9-0.4-1.4-0.6c-0.1-0.1-0.2-0.1-0.3-0.2
		c0,0-0.1,0-0.1,0c-0.6-0.2-1.1-0.5-1.7-0.7c-0.1,0-0.2-0.1-0.3-0.1c-0.4-0.2-0.9-0.4-1.3-0.5c0,0-0.1,0-0.1-0.1
		c-0.2-0.1-0.3-0.1-0.5-0.2c-0.3-0.1-0.7-0.2-1-0.4c-0.2-0.1-0.4-0.2-0.7-0.2c-0.3-0.1-0.6-0.2-0.9-0.3c-0.1,0-0.2-0.1-0.3-0.1
		c-0.1,0-0.2-0.1-0.4-0.1c-0.3-0.1-0.6-0.2-0.9-0.3c-0.2-0.1-0.4-0.1-0.7-0.2c-0.3-0.1-0.6-0.2-0.8-0.2c-0.1,0-0.3-0.1-0.4-0.1
		c-0.1,0-0.2,0-0.3-0.1c-0.3-0.1-0.5-0.1-0.8-0.2c-0.2-0.1-0.4-0.1-0.6-0.2c-0.3-0.1-0.5-0.1-0.8-0.2c-0.2,0-0.3-0.1-0.5-0.1
		c-0.1,0-0.1,0-0.2,0c-0.3-0.1-0.6-0.1-0.8-0.2c-0.2,0-0.4-0.1-0.6-0.1c-0.3,0-0.6-0.1-0.9-0.1c-0.1,0-0.3,0-0.4-0.1
		c0,0-0.1,0-0.1,0l-28.7,13.1c0.2,0,0.4,0.1,0.5,0.1c0.3,0,0.6,0.1,0.9,0.1c0.2,0,0.4,0.1,0.6,0.1c0.3,0,0.6,0.1,0.8,0.2
		c0.2,0,0.4,0.1,0.6,0.1c0.3,0.1,0.5,0.1,0.8,0.2c0.2,0,0.4,0.1,0.6,0.1c0.3,0.1,0.5,0.1,0.8,0.2c0.2,0.1,0.4,0.1,0.6,0.2
		c0.3,0.1,0.6,0.2,0.8,0.2c0.2,0.1,0.4,0.1,0.7,0.2c0.3,0.1,0.6,0.2,0.9,0.3c0.2,0.1,0.4,0.1,0.7,0.2c0.3,0.1,0.6,0.2,0.9,0.3
		c0.2,0.1,0.4,0.1,0.6,0.2c0.3,0.1,0.7,0.2,1,0.4c0.2,0.1,0.4,0.1,0.6,0.2c0.4,0.2,0.9,0.3,1.3,0.5c0.1,0,0.2,0.1,0.3,0.1
		c0.6,0.2,1.1,0.5,1.7,0.7c0.1,0.1,0.3,0.1,0.4,0.2c0.5,0.2,0.9,0.4,1.4,0.6c0.2,0.1,0.4,0.2,0.6,0.3c0.4,0.2,0.8,0.4,1.2,0.6
		c0.2,0.1,0.4,0.2,0.7,0.3c0.4,0.2,0.9,0.4,1.3,0.6c0.2,0.1,0.4,0.2,0.6,0.3c0.6,0.3,1.3,0.6,1.9,1c1.1,0.6,2.2,1.2,3.3,1.9
		c0.3,0.2,0.5,0.3,0.8,0.5c0.8,0.5,1.7,1,2.5,1.6c0.2,0.2,0.5,0.3,0.7,0.5c1,0.7,2,1.4,2.9,2.1c0.2,0.1,0.3,0.3,0.5,0.4
		c0.8,0.6,1.7,1.3,2.5,2c0.2,0.1,0.4,0.3,0.5,0.4c0.9,0.8,1.8,1.6,2.6,2.4c0.2,0.2,0.4,0.3,0.5,0.5c0.8,0.8,1.6,1.6,2.4,2.4
		c0.1,0.1,0.1,0.2,0.2,0.2c0.8,0.9,1.6,1.8,2.4,2.7c0.2,0.2,0.3,0.4,0.5,0.6c0.8,0.9,1.5,1.8,2.2,2.8c0.1,0.2,0.2,0.3,0.3,0.5
		c0.8,1,1.5,2,2.2,3.1c0,0,0,0.1,0.1,0.1c0.6,1,1.3,1.9,1.9,2.9c0.2,0.3,0.4,0.6,0.6,1c0.6,1,1.2,2.1,1.8,3.1
		c0.1,0.1,0.1,0.3,0.2,0.4c0.6,1.1,1.1,2.1,1.7,3.2c0.1,0.2,0.2,0.3,0.2,0.5c0.5,1.1,1.1,2.3,1.6,3.4c0.2,0.4,0.3,0.7,0.5,1.1
		c0.5,1.1,0.9,2.2,1.3,3.4c0,0.1,0.1,0.2,0.1,0.3c0.5,1.3,0.9,2.6,1.4,3.9c0.1,0.2,0.1,0.4,0.2,0.6c0.5,1.4,0.9,2.8,1.3,4.3
		l64,237.1l2.4,8c0.1,0.3,0.2,0.5,0.2,0.8c0.1,0.2,0.1,0.4,0.2,0.6c0.1,0.3,0.2,0.6,0.3,1c0,0.1,0.1,0.2,0.1,0.4
		c0.1,0.2,0.2,0.4,0.2,0.7c0.1,0.3,0.2,0.6,0.3,0.8c0,0.1,0.1,0.2,0.1,0.3c0.1,0.2,0.2,0.5,0.3,0.7c0.1,0.3,0.2,0.5,0.3,0.8
		c0,0.1,0.1,0.2,0.1,0.2c0.1,0.2,0.1,0.3,0.2,0.5c0.2,0.4,0.3,0.7,0.5,1.1c0,0.1,0.1,0.2,0.1,0.3c0.1,0.2,0.2,0.5,0.3,0.7
		c0.1,0.1,0.1,0.3,0.2,0.4c0.2,0.5,0.5,0.9,0.7,1.4c0,0.1,0.1,0.2,0.1,0.3c0.2,0.4,0.4,0.7,0.6,1.1c0.1,0.1,0.2,0.3,0.2,0.4
		c0.1,0.1,0.2,0.3,0.2,0.4c0.1,0.1,0.2,0.3,0.3,0.4c0.1,0.2,0.2,0.3,0.3,0.5c0,0.1,0.1,0.2,0.1,0.2c0.2,0.3,0.4,0.6,0.6,0.8
		c0,0,0,0,0,0c0,0,0,0,0,0c0.2,0.2,0.3,0.4,0.5,0.7c0.1,0.1,0.2,0.3,0.3,0.4c0,0.1,0.1,0.1,0.1,0.2c0,0,0.1,0.1,0.1,0.1
		c0.2,0.2,0.3,0.4,0.5,0.6c0.1,0.1,0.1,0.1,0.2,0.2c0,0.1,0.1,0.1,0.1,0.2c0.1,0.1,0.1,0.1,0.2,0.2c0.2,0.2,0.3,0.4,0.5,0.5
		c0,0,0.1,0.1,0.1,0.1c0,0,0.1,0.1,0.1,0.1c0.1,0.1,0.2,0.2,0.2,0.2c0.2,0.2,0.3,0.3,0.5,0.5c0,0,0.1,0,0.1,0.1c0,0,0.1,0.1,0.1,0.1
		c0.1,0.1,0.2,0.2,0.3,0.2c0.1,0.1,0.3,0.3,0.4,0.4c0,0,0.1,0.1,0.1,0.1c0,0,0.1,0,0.1,0.1c0.1,0.1,0.2,0.1,0.2,0.2
		c0.1,0.1,0.3,0.2,0.4,0.3c0,0,0.1,0.1,0.1,0.1c0,0,0.1,0,0.1,0.1c0.1,0,0.1,0.1,0.2,0.1c0.1,0.1,0.3,0.2,0.4,0.3
		c0.1,0.1,0.2,0.1,0.3,0.2l3,1.6l2.4,1.1l28.7-13.1L440.3,645z"/>
	<g>
		<path class="st5" d="M289.3,337.9c19.7,10.5,33,28,40,52.6l64,237.1l2.4,8c3.4,11,7.7,18,12.9,20.9l3,1.6l2.4,1.1l0.5,44.6
			c-4.1-1.3-9.5-3.7-16.3-7.4c-11-5.9-20.2-14.7-27.2-24.8c-7-10.1-12.7-23.5-17-40.2l-26-103.7l-32.4,110.1L249.2,612l56.1-171.9
			l-10.9-37.5c-2-7.5-4.6-13.3-7.7-17.6c-3.1-4.2-7-7.6-11.7-10.1l-8.6-4l-1.1-41.6C272.2,330.2,280.2,333,289.3,337.9z"/>
	</g>
</g>
<g id="XMLID_292_">
	<polygon id="XMLID_295_" class="st8" points="153.8,256.2 149.9,266.8 157.1,275.5 161,264.9 	"/>
	<polygon id="XMLID_294_" class="st9" points="153.8,256.2 164.9,254.3 172.1,262.9 161,264.9 	"/>
	<polygon id="XMLID_293_" class="st10" points="157.1,275.5 168.2,273.5 172.1,262.9 161,264.9 	"/>
</g>
<g id="XMLID_288_">
	<polygon id="XMLID_291_" class="st8" points="263.8,108.7 259.5,120.3 267.4,129.7 271.6,118.2 	"/>
	<polygon id="XMLID_290_" class="st9" points="263.8,108.7 275.9,106.6 283.7,116.1 271.6,118.2 	"/>
	<polygon id="XMLID_289_" class="st10" points="267.4,129.7 279.5,127.6 283.7,116.1 271.6,118.2 	"/>
</g>
<g id="XMLID_284_">
	<polygon id="XMLID_287_" class="st8" points="221.3,180.8 215.9,195.4 225.9,207.4 231.3,192.7 	"/>
	<polygon id="XMLID_286_" class="st9" points="221.3,180.8 236.6,178.1 246.6,190.1 231.3,192.7 	"/>
	<polygon id="XMLID_285_" class="st10" points="225.9,207.4 241.3,204.7 246.6,190.1 231.3,192.7 	"/>
</g>
<g id="XMLID_280_">
	<polygon id="XMLID_283_" class="st8" points="72.2,524.5 85.4,548.9 113.2,549.7 100,525.3 	"/>
	<polygon id="XMLID_282_" class="st9" points="72.2,524.5 86.8,500.9 114.6,501.7 100,525.3 	"/>
	<polygon id="XMLID_281_" class="st10" points="113.2,549.7 127.8,526.1 114.6,501.7 100,525.3 	"/>
</g>
<g id="XMLID_5_">
	<polygon id="XMLID_8_" class="st8" points="671.8,329.4 666.4,344 676.4,356 681.8,341.4 	"/>
	<polygon id="XMLID_7_" class="st9" points="671.8,329.4 687.1,326.7 697.1,338.7 681.8,341.4 	"/>
	<polygon id="XMLID_6_" class="st10" points="676.4,356 691.8,353.3 697.1,338.7 681.8,341.4 	"/>
</g>
<g id="XMLID_9_">
	<polygon id="XMLID_12_" class="st8" points="269.8,253.2 283,277.6 310.7,278.4 297.5,254 	"/>
	<polygon id="XMLID_11_" class="st9" points="269.8,253.2 284.3,229.5 312.1,230.3 297.5,254 	"/>
	<polygon id="XMLID_10_" class="st10" points="310.7,278.4 325.3,254.8 312.1,230.3 297.5,254 	"/>
</g>
<g id="XMLID_13_">
	<polygon id="XMLID_16_" class="st8" points="742.7,225 738.8,235.6 746,244.2 749.9,233.6 	"/>
	<polygon id="XMLID_15_" class="st9" points="742.7,225 753.8,223.1 761,231.7 749.9,233.6 	"/>
	<polygon id="XMLID_14_" class="st10" points="746,244.2 757.1,242.3 761,231.7 749.9,233.6 	"/>
</g>
</svg>
