<?xml version="1.0" encoding="utf-8"?>
<!-- Generator: Adobe Illustrator 21.1.0, SVG Export Plug-In . SVG Version: 6.00 Build 0)  -->
<svg version="1.1" id="Слой_1" xmlns="http://www.w3.org/2000/svg" xmlns:xlink="http://www.w3.org/1999/xlink" x="0px" y="0px"
	 viewBox="0 0 900 712" style="enable-background:new 0 0 900 712;" xml:space="preserve">
<style type="text/css">
	.st0{fill:#923CFF;}
	.st1{fill:#FFFFFF;}
	.st2{fill:#B17EFD;}
	.st3{fill:#CBABFD;}
	.st4{fill:#FDDC03;}
	.st5{fill:#F1A901;}
	.st6{fill-rule:evenodd;clip-rule:evenodd;}
	.st7{fill:#B41CB4;}
	.st8{fill:#DA44D0;}
	.st9{fill:#EE8056;}
	.st10{opacity:0.71;}
	.st11{fill:#FD8058;}
	.st12{fill:#903CFD;}
	.st13{fill:#C0DAF2;}
	.st14{fill:#E9F0F5;}
	.st15{fill:#CBD3E6;}
	.st16{fill:#1D1D1B;}
	.st17{fill:#701EED;}
</style>
<rect x="100" y="100" class="st0" width="700" height="512"/>
<g>
	<path d="M230.7,294.5l2.1,267.7c0,8.7,6.2,12.2,13.7,7.8l128.2-74.4c7.6-4.4,13.7-15,13.7-23.7l-1.8-151.1l-0.3-100.3l0-16.2
		c0-8.7-6.2-12.2-13.7-7.8l-128.2,74.4C236.8,275.3,230.7,285.8,230.7,294.5z"/>
	<path class="st1" d="M244.4,282.3c-2.1,1.2-3.8,4.1-3.8,6.5l2.1,263.5c0,2.4,1.7,3.4,3.8,2.2l128.2-74.4c2.1-1.2,3.8-4.1,3.8-6.5
		l-2.1-263.5c0-2.4-1.7-3.4-3.8-2.2L244.4,282.3z"/>
</g>
<g>
	<g>
		<polygon points="404.2,463.5 423.7,568.3 567.3,705.6 615.5,640.6 640.7,659.5 737.1,565.1 762.3,466.2 523.2,444.6 		"/>
		<ellipse cx="583.5" cy="457.2" rx="179.8" ry="88"/>
		<ellipse class="st2" cx="585.7" cy="457.2" rx="131.6" ry="61.6"/>
		<ellipse class="st2" cx="585.7" cy="457.2" rx="144.7" ry="67.7"/>
		<path class="st2" d="M509.1,464.4c7-0.6,11.4-4.9,15-11c5.7,0,13.5-4,15-9.5c12.1,1.9,31.3,25.5,18.1,40.6
			c-12.3,14-34.9,19.4-38.8,18.2c-8.7-2.7-25.8-5.1-32.1-11.6c-7.9-8.1-10.2-23.3-4.2-30.3c4.9-5.8,4.4-2.7,10.2,0.6
			C496.3,463.7,504.3,464.8,509.1,464.4z"/>
		<g>
			<g>
				<path class="st2" d="M581.3,98.5L549,30.3c-10.8-8.2-25.8,36.5-25.8,50.1L522.7,454l121.8,37.8V195.1
					C644.4,195.1,586.5,102.4,581.3,98.5z"/>
				<g>
					<path class="st2" d="M552.3,6.9c-17.3-5.8-28.4,7.8-28.8,29.3L522.7,175c-0.1,19.4,13,42.3,29.1,51
						c16.1,8.6,29.3-0.2,29.4-19.5l0.8-147.2C581.9,34.4,571.9,13.5,552.3,6.9z"/>
				</g>
				<g>
					<path class="st2" d="M628.4,82.5c-9.5-2.8-15.6,5.4-15.6,15.9l-0.5,113.7c0,10.5,7.1,22.9,15.8,27.6
						c8.7,4.7,15.9-0.1,15.9-10.6l0.5-118.3C644.5,100.4,639.8,85.9,628.4,82.5z"/>
				</g>
				<g>
					<path class="st2" d="M597.4,55.6c-9.5-2.8-15.6,5.4-15.6,15.9l-0.5,120.3c0,10.5,7.1,22.9,15.8,27.6
						c8.7,4.7,15.9-0.1,15.9-10.6L613.4,84C613.5,73.5,608.8,59,597.4,55.6z"/>
				</g>
			</g>
			<path class="st3" d="M550.3,118.7c1.3,0,2.4-1.1,2.4-2.4V45c0-1.3-1.1-2.4-2.4-2.4s-2.4,1.1-2.4,2.4v71.2
				C547.9,117.6,548.9,118.7,550.3,118.7z"/>
			<path class="st3" d="M550.3,398.2c1.3,0,2.4-1.1,2.4-2.4V135.7c0-1.3-1.1-2.4-2.4-2.4s-2.4,1.1-2.4,2.4v260.1
				C547.9,397.1,548.9,398.2,550.3,398.2z"/>
			<path class="st3" d="M550.3,468.4c1.3,0,2.4-1.1,2.4-2.4v-33.3c0-1.3-1.1-2.4-2.4-2.4s-2.4,1.1-2.4,2.4v33.3
				C547.9,467.3,548.9,468.4,550.3,468.4z"/>
			<path class="st3" d="M581.9,190.5c1.3,0,2.4-1.1,2.4-2.4V98.8c0-1.3-1.1-2.4-2.4-2.4s-2.4,1.1-2.4,2.4v89.2
				C579.5,189.4,580.6,190.5,581.9,190.5z"/>
			<path class="st3" d="M581.9,353.5c1.3,0,2.4-1.1,2.4-2.4V288c0-1.3-1.1-2.4-2.4-2.4s-2.4,1.1-2.4,2.4v63.1
				C579.5,352.4,580.6,353.5,581.9,353.5z"/>
			<path class="st3" d="M616.2,162.9c1.3,0,2.4-1.1,2.4-2.4v-42.9c0-1.3-1.1-2.4-2.4-2.4s-2.4,1.1-2.4,2.4v42.9
				C613.8,161.9,614.9,162.9,616.2,162.9z"/>
			<path class="st3" d="M616.2,339.5c1.3,0,2.4-1.1,2.4-2.4V206.3c0-1.3-1.1-2.4-2.4-2.4s-2.4,1.1-2.4,2.4v130.7
				C613.8,338.4,614.9,339.5,616.2,339.5z"/>
			<path class="st3" d="M616.2,402.7c1.3,0,2.4-1.1,2.4-2.4v-19.4c0-1.3-1.1-2.4-2.4-2.4s-2.4,1.1-2.4,2.4v19.4
				C613.8,401.6,614.9,402.7,616.2,402.7z"/>
		</g>
	</g>
	<g>
		<path class="st4" d="M462.1,427.3c0,40.4,53.8,73.2,120.2,73.2c21.8,0,42.2-3.5,59.8-9.7c31-10.8,53.3-29.8,59-52.2
			c1.3-12.4-1.1-25.5-6-36.8c-7.3-11.9-19.5-22.4-35.2-30.5c-20.9-10.8-48-17.2-77.5-17.2C515.9,354.1,462.1,386.9,462.1,427.3z
			 M534.5,418.1c0-7.4,22.2-13.4,49.6-13.4c11.5,0,22.1,1.1,30.5,2.8c11.6,2.5,19.1,6.3,19.1,10.6c0,3.3-4.4,6.3-11.6,8.6
			c-9.1,2.9-22.8,4.8-38,4.8C556.7,431.5,534.5,425.5,534.5,418.1z"/>
		<path class="st5" d="M498.7,399.8c0,21.5,39.4,38.9,87.9,38.9c14.1,0,27.5-1.5,39.3-4.1c28.8-6.4,48.6-19.6,48.6-34.8
			c0-6.2-3.3-12.1-9.2-17.4l0,0c-2-1.8-4.3-3.5-6.9-5.1l0,0c-1-0.6-1.9-1.2-3-1.7c-16.1-8.9-40.9-14.7-68.8-14.7
			C538,360.9,498.7,378.3,498.7,399.8z M536.6,417.5c0-6.8,21.9-12.3,48.9-12.3c11.3,0,21.8,1,30.1,2.6c11.5,2.2,18.8,5.7,18.8,9.7
			c0,3-4.3,5.8-11.4,7.9c-9,2.7-22.4,4.4-37.4,4.4C558.5,429.8,536.6,424.3,536.6,417.5z"/>
		<g>
			<g>
				<g>
					<g>
						<g>
							<g>
								<g>
									<g>
										<g>
											<g>
												<g>
													<g>
														<g>
															<path class="st4" d="M399.5,406.5c0.7,2.3-0.5,4.9-2.4,6.5c-1.9,1.6-4.3,2.3-6.7,3c-2.1,0.6-4.4,1.2-6.3,0.2
																c-1.2-0.7-2-1.9-2.7-3.1c-1.4-2.2-2.7-4.4-3.7-6.9c-1.1-2.7-1.6-5.7-2.8-8.4c-0.8-1.7-1.9-3.3-2.8-4.9
																c-2.6-4.6-4.1-9.9-4.1-15.2c0-1.2,0.1-2.4,0.7-3.4c1.1-1.6,3.5-1.9,5.3-1.1c1.8,0.8,3.2,2.3,4.5,3.8
																c3.9,4.4,7.8,8.9,11.7,13.3c3.8,4.4,7.7,8.9,9.5,14.4c0.6,1.8,0.5,4.3-1.4,4.7L399.5,406.5z"/>
														</g>
													</g>
												</g>
											</g>
										</g>
									</g>
								</g>
							</g>
						</g>
					</g>
				</g>
			</g>
			<g>
				<g>
					<g>
						<g>
							<g>
								<g>
									<g>
										<g>
											<g>
												<g>
													<g>
														<g>
															<path class="st1" d="M388.3,403l0,0.5c-0.3,3.6,2.3,6.7,5.8,7l10.9,1c3.6,0.3,6.7-2.3,7-5.8l0-0.5
																c0.3-3.6-2.3-6.7-5.8-7l-10.9-1C391.7,396.8,388.6,399.4,388.3,403z"/>
														</g>
													</g>
												</g>
											</g>
										</g>
									</g>
								</g>
							</g>
						</g>
					</g>
				</g>
			</g>
			<g>
				<g>
					<g>
						<g>
							<g>
								<g>
									<g>
										<g>
											<g>
												<g>
													<g>
														<g>
															<path class="st4" d="M436.2,480.5c-1.9,0.8-3.9,1.7-5.8,2.5c-2,0.9-3.9,1.7-5.7,2.9c-2.7,1.7-7.8,5-7.5,8.7
																c0.6,5.6,7.7,6.7,11.9,6.3c6.3-0.5,12.6-1.5,18.8-3c2.6-0.6,5.4-1.4,7.4-3.2c6.3-5.5,9.6-17.6,0-21.6
																c-3.5-1.5-6.3-0.4-9,1.7C443.2,477.3,439.7,479,436.2,480.5z"/>
														</g>
													</g>
												</g>
											</g>
										</g>
									</g>
								</g>
							</g>
						</g>
					</g>
				</g>
			</g>
			<g>
				<g>
					<g>
						<g>
							<g>
								<g>
									<g>
										<g>
											<g>
												<g>
													<g>
														<g>
															<path class="st1" d="M446.5,480.2l8.6,5c0.8,0.5,1.9,0.2,2.4-0.6l10.2-17.5c0.5-0.8,0.2-1.9-0.6-2.4l-8.6-5
																c-0.8-0.5-1.9-0.2-2.4,0.6l-10.2,17.5C445.3,478.6,445.6,479.7,446.5,480.2z"/>
														</g>
													</g>
												</g>
											</g>
										</g>
									</g>
								</g>
							</g>
						</g>
					</g>
				</g>
			</g>
			<g>
				<g>
					<path class="st6" d="M492.1,358.6c-16.4,35.8-30.8,72.1-44.7,108.9c0.9,5.1,8.2,10.3,17.4,10.3c10-17.2,30.6-40.3,39.2-58.4
						c7-14.8,9-26.2,13.1-43.1C524.7,355.6,499.5,348.6,492.1,358.6z"/>
				</g>
				<path class="st6" d="M607.5,366.6c-4.3-1.2-15-3.6-31.4-6.8c-16.4-3.1-47.9-6.9-67.4-8c-17.5-2.8-27.7,16.6-7.4,29.7
					c26,7.7,64.3,17.4,97,22.3L607.5,366.6z"/>
			</g>
			<g>
				<path class="st6" d="M627.4,404.7c-3.1,6.9-5.8,13.2-8.9,17.8c-8.6,12.9-17.7,17.1-26.8,17.3c-18.5,0.3-30.3-10.8-67.6-22.7
					c-8.5-2.7-14.2-3-20.8-3.4c-13.1-3.6-14-30.9,4.4-34.2c6.4-0.8,12.7-1.1,19.1-0.6c17,1.3,31.6,1.8,48.9,4
					c1-11.8,5.1-20,11.2-25.9C587.7,357,619.1,398.7,627.4,404.7z"/>
				<g>
					<path class="st6" d="M518.9,415.3c-17.3-0.8-39.6,4.4-54.6,4.5c-18.1,0.2-42-2.6-65.7-5.2c-3.1-5.6-3.4-17.1-0.3-19.9
						c29.4-1.1,56.8-9.2,80.5-12.1c10.9-1.3,22.3-2.9,35.4-4.8C538.3,375.8,548.9,413.2,518.9,415.3z"/>
				</g>
			</g>
			<g>
				<g>
					<g>
						<g>
							<g>
								<g>
									<g>
										<g>
											<g>
												<g>
													<g>
														<g>
															<path class="st7" d="M545.8,342.3c-3.9-3.8-5.4-9.4-3.7-14.6l0,0l16.2-50.7l5.5-1c2.9-4.6,1.6-1,7.1,0.4
																c3.4,0.9,6.1,3,7.8,5.9c1.6,2.7,2,5.9,1.1,8.9l-18,57.4l-0.2,0.4c-2.4,4-7.1,6.3-12,5.9c-0.7-0.1-1.4-0.2-2.1-0.4
																c-0.2,0,3-7.8,2.8-7.9L545.8,342.3z"/>
														</g>
													</g>
												</g>
											</g>
										</g>
									</g>
								</g>
							</g>
						</g>
					</g>
				</g>
			</g>
			<g>
				<g>
					<g>
						<g>
							<g>
								<g>
									<g>
										<g>
											<g>
												<g>
													<g>
														<g>
															<path class="st8" d="M624,407.8c-5.6,4.3-15.4,3.5-25.3,0.5c-10.7-3.2-21.6-8.9-27.6-13.5l0,0c-0.8-0.6-6.8-4.1-13-8
																c-8.3-5.1-11.6-15.5-7.7-24.4c8-18.2,13-38.8,8.7-57.2c-0.9-3.9-1.7-7.9-2.2-11.7c-0.1-0.6-0.1-1.2,0-1.9l0.2-1.7
																l-0.3,2.3c-1.2-12.1,1.6-23,15.7-29.5c2.7-1.2,6.2-1.6,10.2-1.2c1.8,0.2,3.6,0.4,5.5,0.9c25.1,7,37.9,16.5,44.4,29.9
																c4.4,8.9,6,19.6,6.6,32.4C640.1,343.9,634.4,399.9,624,407.8z"/>
														</g>
													</g>
												</g>
											</g>
										</g>
									</g>
								</g>
							</g>
						</g>
					</g>
				</g>
			</g>
			<g>
				<g>
					<g>
						<g>
							<g>
								<g>
									<g>
										<g>
											<g>
												<g>
													<g>
														<g>
															<path class="st7" d="M600.3,272.7c-0.2,1.8-1.1,3.4-2.6,4.7c-2.4,2-6.1,3.1-10.1,2.7c-3.9-0.4-7.3-2-9.3-4.3
																c-1.4-1.5-2.1-3.4-1.9-5.3c0.2-1.9,1.2-3.6,2.8-4.8c0.2-0.1,0.3-0.2,0.5-0.3c0,0,0,0,0,0c1.8-1.2,4.2-2,6.9-2.2
																c0.4,0,0.8,0,1.3,0c0.4,0,0.8,0,1.3,0.1c4.1,0.4,7.5,2.1,9.5,4.5C599.9,269.2,600.5,270.9,600.3,272.7z"/>
														</g>
													</g>
												</g>
											</g>
										</g>
									</g>
								</g>
							</g>
						</g>
					</g>
				</g>
			</g>
			<g>
				<g>
					<g>
						<g>
							<g>
								<g>
									<g>
										<g>
											<g>
												<g>
													<g>
														<g>
															<g>
																<g>
																	<g>
																		<g>
																			<g>
																				<path class="st9" d="M600.2,243.8l-2.7,29.1c-0.1,1-0.6,1.8-1.5,2.3c-2.3,1.4-5.4,2.1-8.8,1.7
																					c-3.3-0.3-5.6-1.7-7.5-3.5c-0.7-0.7-1-1.6-1-2.5l2-28.9L600.2,243.8z"/>
																			</g>
																		</g>
																	</g>
																</g>
															</g>
														</g>
													</g>
												</g>
											</g>
										</g>
									</g>
								</g>
							</g>
						</g>
					</g>
				</g>
				<g class="st10">
					<g>
						<g>
							<g>
								<g>
									<g>
										<g>
											<g>
												<g>
													<g>
														<g>
															<g>
																<g>
																	<g>
																		<g>
																			<g>
																				<path class="st9" d="M578.8,270.9c0,0,2.9-0.2,3.8-0.4c6.1-1.2,10.6-6.6,12.3-12.7l2.1-7.6l1.9-2.3l-1.5-0.1
																					l-7.6-0.3c-3.5,2.9-6.8,5.5-9.9,8.7L578.8,270.9z"/>
																			</g>
																		</g>
																	</g>
																</g>
															</g>
														</g>
													</g>
												</g>
											</g>
										</g>
									</g>
								</g>
							</g>
						</g>
					</g>
				</g>
				<g>
					<g>
						<g>
							<g>
								<g>
									<g>
										<g>
											<g>
												<g>
													<g>
														<g>
															<g>
																<g>
																	<g>
																		<g>
																			<g>
																				<path class="st11" d="M601.7,241.2c0,1.1-1.2,2.2-2.6,3.2c-0.4,0.4-0.9,0.7-1.3,1.1c0,0-0.1,0-0.1,0.1
																					c-0.3,0.3-0.6,0.6-0.8,0.9c-0.3,0.4-0.5,0.8-0.6,1.2c-0.2,1.5-0.5,3-1,4.4c-1.5,4.5-4.4,8.4-7.9,11.1
																					c-0.8,0.6-1.6,1.1-2.5,1.6c-1.7,1-3.6,1.7-5.5,2c-0.7,0.1-1.5,0.2-2.3,0.3c-4.7,0.3-9.7-1.3-14.1-5.7
																					c-2.4-2.3-3.9-5.2-4.8-8.4c-0.5-1.8-0.9-3.8-1.2-5.8c-0.2-2.3-0.4-4.5-0.5-6.7c-0.1-3.5-0.3-7-0.5-10.4
																					c-0.1-1.4-0.1-2.8-0.2-4.2c-0.2-0.6-0.2-1.3-0.1-1.9c0.2-1.8,1.4-3.5,3-4.5c2.3-1.5,5.3-1.7,8.1-1.6
																					c5.7,0.1,11.5,1,16.7,3.3c5.1,2.4,9.7,6.5,11.8,11.8C596.3,235.5,601.6,238.6,601.7,241.2z"/>
																			</g>
																		</g>
																	</g>
																</g>
															</g>
														</g>
													</g>
												</g>
											</g>
										</g>
									</g>
								</g>
							</g>
						</g>
					</g>
				</g>
				<g>
					<g>
						<g>
							<g>
								<g>
									<g>
										<g>
											<g>
												<g>
													<g>
														<g>
															<g>
																<g>
																	<g>
																		<g>
																			<g>
																				<path class="st12" d="M605.8,222c-0.8-5.2-3-9.4-6.2-12.5c-2.9-2.8-6.8-4.8-11.3-5.8c-2.8-0.6-5.8-1-8.7-0.6
																					c-4.1,0.6-7.6,2.9-11.5,4.3c-4,1.5-8.2,2.1-12,3.8c-3.8,1.8-7.3,5.2-7.4,9.4c-0.1,4.3,3.6,8,7.7,9.4
																					c4.1,1.4,8.6,1,12.9,0.5c2.9-0.3,9-2.1,11.7-0.9c4.2,1.8,3.2,8,5.4,11.1c0.7,0.9,1.8,1.5,2.9,1.4
																					c2.6-0.4,3.3-4.2,5.7-5.4c1.7-0.8,3.9,0.2,4.7,1.8c0.9,1.6,0.6,3.7-0.4,5.3c-1.1,1.7-3.4,2-4.4,3.4
																					c-0.8,1.1-0.3,2.9,0.2,4.5c0.4,1.4,1.5,2.8,2.9,3.1C609,257.7,606.6,226.9,605.8,222z"/>
																			</g>
																		</g>
																	</g>
																</g>
															</g>
														</g>
													</g>
												</g>
											</g>
										</g>
									</g>
								</g>
							</g>
						</g>
					</g>
				</g>
			</g>
			<g id="XMLID_236_">
				<g>
					<g>
						<g>
							<g>
								<g>
									<g>
										<g>
											<g>
												<g>
													<g>
														<g>
															<g>
																<path class="st13" d="M589.9,364.3l-56.5-33L478.6,362l57.3,35c2.5,1.5,5.5,1.6,8.1,0.2l47.2-26.4
																	c0.8-0.4,1.3-1.2,1.3-2.1l0,0C592.4,366.9,591.5,365.2,589.9,364.3z"/>
															</g>
														</g>
													</g>
												</g>
											</g>
										</g>
									</g>
								</g>
							</g>
						</g>
					</g>
					<g>
						<g>
							<g>
								<g>
									<g>
										<g>
											<g>
												<g>
													<g>
														<g>
															<g>
																<path class="st14" d="M537.6,396.5L476.3,359l52.2-29.2c1.6-0.9,3.7-0.9,5.3,0.1l56.3,34.4c1.1,0.6,1,2.2-0.1,2.8
																	L537.6,396.5z"/>
															</g>
														</g>
													</g>
												</g>
											</g>
										</g>
									</g>
								</g>
							</g>
						</g>
					</g>
					<g>
						<g>
							<g>
								<g>
									<g>
										<g>
											<g>
												<g>
													<g>
														<g>
															<g>
																<polygon class="st15" points="510.5,343.3 559.9,371.8 538.9,385 491.2,355.7 																"/>
															</g>
														</g>
													</g>
												</g>
											</g>
										</g>
									</g>
								</g>
							</g>
						</g>
					</g>
					<g>
						<g>
							<g>
								<g>
									<g>
										<g>
											<g>
												<g>
													<g>
														<g>
															<g>
																<polygon class="st15" points="566.2,355 542.6,339.6 530,346.4 554,362.3 																"/>
															</g>
														</g>
													</g>
												</g>
											</g>
										</g>
									</g>
								</g>
							</g>
						</g>
					</g>
					<path class="st11" d="M560,329.5c-1-1.3-2.3-2.4-3.9-3c-4.8-1.9-8,0.5-12.3,5.2l-32.1,42.2c-1.9,4.8,0.6,0.1,5.4,2.1
						c1.1,0.4,2.2,0.7,3.2,0.7c3.8,0.1,3.5,5.8,5.1,2c6.7-15.1,31.5-34.6,31.5-34.6C558.5,339.1,559.4,334.6,560,329.5z"/>
					<g>
						<g>
							<g>
								<g>
									<g>
										<g>
											<g>
												<g>
													<g>
														<g>
															<g>
																<g>
																	<path class="st1" d="M543.3,393.3l-5.7-55.5c-0.1-1.3-0.9-2.5-2.1-3.2c0,0-29-17.7-29-17.7l-27.2-17.1
																		c-0.7-0.5-1.5-0.6-2.2-0.6l0,0l-0.1,0c-0.7,0.1-5.6,2.6-5.6,2.6l3.1,1.7l5.7,52.9c0.1,1.3,0.9,2.5,2.1,3.2l56.7,36
																		C538.9,395.7,542.8,393.6,543.3,393.3z"/>
																</g>
															</g>
														</g>
													</g>
												</g>
											</g>
										</g>
									</g>
								</g>
							</g>
						</g>
						<g>
							<g>
								<g>
									<g>
										<g>
											<g>
												<path d="M475.3,301.8l27.2,17.1c0,0,29,17.7,29,17.7c1.1,0.7,1.9,1.9,2.1,3.2l5.8,54c0.3,2.7-2.4,4.3-4.9,2.7
													l-56.2-34.8c-1.1-0.7-1.9-1.9-2.1-3.2l-5.8-54C470.1,301.8,472.8,300.3,475.3,301.8z"/>
											</g>
										</g>
									</g>
								</g>
							</g>
						</g>
					</g>
				</g>
			</g>
			<g>
				<g>
					<g>
						<g>
							<g>
								<g>
									<g>
										<g>
											<g>
												<g>
													<g>
														<g>
															<g>
																<path class="st11" d="M634.8,308.2l-5.8,60.1c-2.1,7.8-6.9,15.5-15.5,17.2c0,0-34.1-9.2-45.6-8.1
																	c-2.5,0.2-5.2,6.8-7.4,6.2c-3.3-0.9-6.2-3.3-7.6-6.8c-2.2-5.8,0.3-13.6,6.5-14.6c11.4-1.8,46,2.2,46,2.2
																	c0.9-0.4,1.6-1.1,1.8-2.1l5.8-60.1c1.6-6,7.8-9.6,13.8-7.9C632.9,296,636.4,302.2,634.8,308.2z"/>
															</g>
														</g>
													</g>
												</g>
											</g>
										</g>
									</g>
								</g>
							</g>
						</g>
					</g>
				</g>
			</g>
			<g>
				<g>
					<g>
						<g>
							<g>
								<g>
									<g>
										<g>
											<g>
												<g>
													<g>
														<g>
															<path class="st8" d="M623.2,286.9c7.3,0.7,12.6,8.6,11.8,17.7l-5.5,58.5l-0.1,0.2c-3.5,4.7-7.4,6.6-12.6,6.2
																c-0.8-0.1-1.6-0.2-2.5-0.4c-3.3-0.7-7.4-2.8-11.3-5.9l-0.3-0.3l5.7-60.8C609.2,293,615.9,286.2,623.2,286.9z"/>
														</g>
													</g>
												</g>
											</g>
										</g>
									</g>
								</g>
							</g>
						</g>
					</g>
				</g>
			</g>
			<g>
				<g>
					<g>
						<g>
							<g>
								<g>
									<g>
										<g>
											<g>
												<g>
													<g>
														<g>
															<path class="st11" d="M551,383.4l8.8-12.5c0.8-1.8-0.1-3.9-1.9-4.7l0,0c-1.8-0.8-3.9,0.1-4.7,1.9l-5.7,13.8
																C546.7,383.8,550.2,385.2,551,383.4z"/>
														</g>
													</g>
												</g>
											</g>
										</g>
									</g>
								</g>
							</g>
						</g>
					</g>
				</g>
			</g>
		</g>
		<path class="st4" d="M581.6,334.5c0.5,17.2,18.7,48.8,34.5,50.6c5.5,0.6,37.1-7.3,46.7-13.8c17.8-12.1,15.6-32.5,14.8-43.7
			c-1.3-17.9-16.7-40.1-37.7-42.5C624,283.3,580.3,284.9,581.6,334.5z"/>
		
			<ellipse transform="matrix(0.9141 -0.4054 0.4054 0.9141 -79.8202 291.4084)" class="st16" cx="648" cy="334.1" rx="4.5" ry="6.8"/>
		<path d="M647,362.6c-2.5,7.6,8.7,5.8,19.6,7.7c26.2,4.5,27.1,1,30.3-4.7c2.3-4,0.3-13.2-2.8-13.5
			C690.9,351.8,648.8,357.3,647,362.6z"/>
		<path class="st11" d="M646.9,364.3c1.6,3.7,5.1-3.9,15.3-0.4c13.6,4.7,32.2-10.2,39.7-20.3c0.8-1.1,1.5-4.2-0.7-5.3
			c-2.8-1.4-12.5,2.2-19.6-2.9c-3.4-2.4-3-4.5-4.4-4.3c-6.5,0.8-18.1,15.4-24,23.6C650.8,358.1,645.9,362.2,646.9,364.3z"/>
		<path class="st4" d="M642.1,490.8c11.3-3.9,21.4-9,30-14.9c-4.9-23-21.8-43.6-44-51.7c-1.7,0.9-3.6,1.7-6,2.4
			c-9.1,2.9-22.8,4.8-38,4.8c-22.7,0-41.8-4.1-47.7-9.8c-2.9,0.6-4.2,2.7-8.4,3.7c-3.8,0.9-4.6,1-7.9,1c-8.8,6.4-14.9,16-19.4,25.9
			c-3.6,7.9-6.4,16.8-5.8,25.3c21.9,14.1,52.9,22.9,87.4,22.9C604.1,500.5,624.5,497,642.1,490.8z"/>
		<path class="st5" d="M526.5,425.7c-0.2,0-0.4,0.1-0.6,0.1c-0.1,0-0.3,0.1-0.4,0.1c-0.2,0-0.4,0.1-0.5,0.1c-0.2,0-0.4,0.1-0.6,0.1
			c-0.1,0-0.2,0-0.3,0c-0.1,0-0.3,0-0.4,0.1c-0.1,0-0.2,0-0.3,0c-0.3,0-0.7,0.1-1,0.1c16,7.6,38.9,12.3,64.2,12.3
			c14.1,0,27.5-1.5,39.3-4.1c5.2-1.2,10.1-2.5,14.7-4.1c-0.1,0-0.1-0.1-0.2-0.1c-1.2-0.7-2.3-1.4-3.5-2.1c-0.2-0.1-0.4-0.2-0.5-0.3
			c-1.4-0.7-2.8-1.4-4.2-2.1c-0.5-0.2-1.1-0.4-1.6-0.6c-0.8-0.3-1.6-0.7-2.4-1c-1.7,0.9-4,0.7-6.3,1.4c-9.1,2.9-23.1,4.1-38.3,4.1
			c-22.7,0-35.9-3.7-43-6.6l-4.1-1.4c-0.4,0.1-0.7,0.2-1,0.3c0,0,0,0,0,0c-1.4,0.5-2.5,1.4-4,2.2c0,0-0.1,0-0.1,0.1
			c-0.4,0.2-0.7,0.3-1.2,0.5c-0.1,0-0.2,0.1-0.4,0.1c-0.5,0.2-1.1,0.4-1.7,0.5c-0.4,0.1-0.8,0.2-1.1,0.2
			C526.8,425.7,526.6,425.7,526.5,425.7z"/>
		<path class="st4" d="M591.9,363.8c0.2,0.3,4.5,9.3,4.7,9.6c0.8,1.3,1.6,2.6,2.3,3.9v0c5.8,9.8,11.1,19.9,15.7,30.1
			c2.5,5.6,4.8,11.3,6.8,17.1c0.2,0.7,0.5,1.4,0.7,2.2c0.5,1.4,1,2.9,1.4,4.4c0.6,1.9,1.1,3.8,1.6,5.7c0.6,2.1,1.1,4.1,1.6,6.2
			c0.8,3.4,1.5,6.9,2,10.4c1.6,10.2,2.2,20.7,1.6,31.3c-0.1,1.6-0.2,3.2-0.4,4.8c0,0.3-0.1,0.6-0.1,1c4.3,0.4,8.4,0.6,12.3,0.4
			c31-10.8,53.3-29.8,59-52.2c3.1-14.4-1.1-25.5-6-36.8c-7.3-11.9-19.5-22.4-35.2-30.5c-1.4,0.1-3,0.4-4.8,0.7
			c-7.6,1.4-18.7,4.1-30.7,4.1h0C614,376.1,591,362.2,591.9,363.8z"/>
	</g>
</g>
<path class="st17" d="M335.8,291.5l-32.7,18.9c-2.6,1.5-4.7-0.1-4.7-3.6v-35.7c0-3.5,2.1-7.5,4.7-9l32.7-18.9
	c2.6-1.5,4.7,0.1,4.7,3.6v35.7C340.5,286,338.4,290,335.8,291.5z"/>
<g>
	<g>
		<path class="st2" d="M266.6,142.3l0.3,187.3c0,5,3.5,7,7.9,4.5L454.9,230c4.3-2.5,7.9-8.6,7.8-13.6l-0.3-187.3L266.6,142.3z"/>
		<path class="st17" d="M274.4,113c-4.3,2.5-7.9,8.6-7.8,13.6l0,15.8L462.4,29.1l0-15.8c0-5-3.5-7-7.9-4.5L274.4,113z"/>
	</g>
	<path class="st17" d="M438.1,212.4l-32.7,18.9c-2.6,1.5-4.7-0.1-4.7-3.6V97.6c0-3.5,2.1-7.5,4.7-9l32.7-18.9
		c2.6-1.5,4.7,0.1,4.7,3.6v130.1C442.8,206.8,440.7,210.9,438.1,212.4z"/>
	<path class="st17" d="M381.4,178.6l-83.8,48.6c-3.6,2.1-6.5-0.1-6.5-4.9v-58.6c0-4.8,2.9-10.4,6.5-12.5l83.8-48.6
		c3.6-2.1,6.5,0.1,6.5,4.9v58.6C387.9,171,385,176.6,381.4,178.6z"/>
</g>
<g>
	<path d="M360.4,226l0.3,108.7c0,5,3.5,7,7.9,4.5l108.2-62.5c4.3-2.5,7.9-8.6,7.8-13.6l-0.3-108.7L360.4,226z"/>
	<path d="M368.2,196.7c-4.3,2.5-7.9,8.6-7.8,13.6l0,15.8l123.9-71.6l0-15.8c0-5-3.5-7-7.9-4.5L368.2,196.7z"/>
	<g>
		<polygon class="st1" points="426.1,215.3 399.2,230.8 399.2,225.8 426.1,210.3 		"/>
		<polygon class="st1" points="445.5,212.9 408.4,234.3 408.4,229.3 445.5,207.9 		"/>
		<polygon class="st4" points="467.5,200.2 452,209.1 452,204.2 467.5,195.2 		"/>
		<polygon class="st1" points="388.7,236.8 384.5,239.3 384.5,234.3 388.7,231.9 		"/>
		<polygon class="st1" points="388.7,245.6 384.5,248.1 384.5,243.1 388.7,240.7 		"/>
		<polygon class="st1" points="436.1,227.5 399.2,248.8 399.2,243.8 436.1,222.6 		"/>
		<polygon class="st4" points="425.1,242.7 408.4,252.3 408.4,247.3 425.1,237.7 		"/>
		<polygon class="st1" points="388.7,254.9 384.5,257.3 384.5,252.3 388.7,249.9 		"/>
		<polygon class="st1" points="388.7,263.6 384.5,266.1 384.5,261.1 388.7,258.7 		"/>
	</g>
	<g>
		<polygon class="st1" points="426.1,251.1 399.2,266.6 399.2,261.6 426.1,246.1 		"/>
		<polygon class="st4" points="445.5,248.7 408.4,270 408.4,265.1 445.5,243.7 		"/>
		<polygon class="st1" points="467.5,236 452,244.9 452,239.9 467.5,231 		"/>
		<polygon class="st1" points="388.7,272.6 384.5,275.1 384.5,270.1 388.7,267.7 		"/>
		<polygon class="st1" points="388.7,281.4 384.5,283.9 384.5,278.9 388.7,276.5 		"/>
		<polygon class="st1" points="436.1,263.3 399.2,284.6 399.2,279.6 436.1,258.3 		"/>
		<polygon class="st4" points="425.1,278.5 408.4,288 408.4,283.1 425.1,273.5 		"/>
		<polygon class="st1" points="388.7,290.6 384.5,293.1 384.5,288.1 388.7,285.7 		"/>
		<polygon class="st1" points="388.7,299.4 384.5,301.9 384.5,296.9 388.7,294.5 		"/>
	</g>
</g>
<path class="st8" d="M508.1,662.2c0,8.4-3,14.3-7.8,17c-4.6,2.6-10.8,2.4-17.8-1.3c-0.3-0.2-0.6-0.3-1-0.5l-32-18.5l-21.3-12.3
	l-42-24.2c-14.6-8.4-26.4-28.8-26.3-45.6c0-8.4,3-14.3,7.8-16.9c4.8-2.8,11.4-2.3,18.7,1.9l5.5,3.2c3.6-9.9,13.4-12.7,25-6
	c4.8,2.7,9.2,6.8,13.1,11.6c1-15.2,12.4-21,26.4-13c7.3,4.2,13.9,11.4,18.7,19.7c4.7,8.3,7.7,17.5,7.7,25.9l-0.1,14.3
	C496.9,626,508.1,645.9,508.1,662.2z"/>
<path id="cloud_60_" class="st1" d="M687.6,149.5c-12.5-7.2-23.4-4.6-28.7,5.4c-1.8-1.5-3.6-2.8-5.5-3.9c-11.1-6.4-20.5-3.7-24,5.6
	c-1.7-1.6-3.4-2.9-5.3-4c-9.7-5.6-17.5-1.1-17.5,10.1c0,11.2,7.8,24.7,17.5,30.3l63.5,36.7c17.8,10.3,32.2,0.6,32.2-21.5
	C719.8,186,705.4,159.7,687.6,149.5z"/>
<g>
	<g>
		<g>
			<path class="st4" d="M153.8,308.2l0.3,187.3c0,5,3.5,7,7.9,4.5l180.1-104.1c4.3-2.5,7.9-8.6,7.8-13.6L349.6,195L153.8,308.2z"/>
			<path class="st5" d="M161.6,278.8c-4.3,2.5-7.9,8.6-7.8,13.6l0,15.8L349.6,195l0-15.8c0-5-3.5-7-7.9-4.5L161.6,278.8z"/>
		</g>
	</g>
	<polygon class="st1" points="170.4,416.2 335.3,320.9 335.3,221.3 170.4,316.5 	"/>
	<polygon class="st5" points="170.4,495.5 238.9,455.9 238.9,385.8 170.4,425.4 	"/>
	<polygon class="st4" points="248.6,449.3 335.3,399.3 335.3,330.2 248.6,380.2 	"/>
	<path class="st5" d="M184.7,366.4c9.7-5.6,8.9-43.3,26-53.1c17.1-9.9,18.8,38.8,29.9,32.4c11.1-6.4,10.8-42,24.8-50.1
		c14-8.1,13.7,33.6,25.1,27.1c11.4-6.6,13.8-37.1,25.3-43.8c11.5-6.7,15.7,13.1,19.6,10.9v31.2l-164.9,95.2l0-60.8
		C170.4,355.4,175,371.9,184.7,366.4z"/>
	<polygon class="st4" points="306.4,278.3 321.2,269.7 321.2,264.4 306.4,273 	"/>
	<polygon class="st4" points="199.6,316.8 214.4,308.2 214.4,303 199.6,311.5 	"/>
	<polygon class="st5" points="252.8,299.6 267.7,291 267.7,285.8 252.8,294.3 	"/>
	<polygon class="st4" points="214.3,430.8 232.3,420.4 232.3,400.2 214.3,410.6 	"/>
	<polygon class="st4" points="175.6,435.7 206.7,417.7 206.7,414.9 175.6,432.9 	"/>
	<polygon class="st5" points="254.6,391.5 285.6,373.6 285.6,370.8 254.6,388.7 	"/>
	<polygon class="st5" points="254.6,398.8 285.6,380.9 285.6,378.1 254.6,396 	"/>
	<polygon class="st5" points="254.6,406.1 285.6,388.2 285.6,385.4 254.6,403.3 	"/>
	<polygon class="st5" points="254.6,413.4 285.6,395.5 285.6,392.7 254.6,410.6 	"/>
	<polygon class="st5" points="254.6,420.7 285.6,402.8 285.6,400 254.6,417.9 	"/>
	<polygon class="st4" points="175.6,441.4 210.4,421.3 210.4,418.7 175.6,438.7 	"/>
	<polygon class="st4" points="175.6,447.2 210.4,427.2 210.4,424.5 175.6,444.6 	"/>
	<polygon class="st4" points="214.3,455.9 232.3,445.5 232.3,425.3 214.3,435.7 	"/>
	<polygon class="st4" points="175.6,460.6 210.4,440.6 210.4,438 175.6,458 	"/>
	<polygon class="st4" points="175.6,466.5 210.4,446.4 210.4,443.8 175.6,463.9 	"/>
	<polygon class="st4" points="175.6,472.4 210.4,452.3 210.4,449.7 175.6,469.7 	"/>
	<path class="st5" d="M294.7,381c0-10.4,7.3-23.2,16.4-28.4c9-5.2,16.4-1,16.4,9.5c0,10.5-7.3,23.2-16.4,28.4
		C302,395.7,294.7,391.4,294.7,381z"/>
	<path class="st1" d="M311,352.6v18.9l-16.4,9.5C294.7,370.5,302,357.8,311,352.6z"/>
</g>
<g>
	<g>
		<path class="st8" d="M271.3,394.8c-5.3,3.1-9.6,10.5-9.6,16.7l0.2,60.7c0,6.1,4.4,8.6,9.7,5.5l56.8-33c5.3-3.1,9.6-10.5,9.6-16.7
			l-0.2-60.7c0-6.1-4.4-8.6-9.7-5.5L271.3,394.8z"/>
	</g>
	<g>
		<path class="st1" d="M290,422.8l-9.8,9.8l9.8-1.6v4.2l-14,2v-4.4l14-14.2V422.8z"/>
		<path class="st1" d="M302.7,402.9l4.1-2.4l-9.7,37.4l-4.1,2.4L302.7,402.9z"/>
		<path class="st1" d="M323.6,405.3v4.4l-14,14.2v-4.2l9.8-9.7l-9.8,1.5v-4.2L323.6,405.3z"/>
	</g>
</g>
</svg>
