<?xml version="1.0" encoding="utf-8"?>
<!-- Generator: Adobe Illustrator 21.1.0, SVG Export Plug-In . SVG Version: 6.00 Build 0)  -->
<svg version="1.1" id="Слой_1" xmlns="http://www.w3.org/2000/svg" xmlns:xlink="http://www.w3.org/1999/xlink" x="0px" y="0px"
	 viewBox="0 0 900 712" style="enable-background:new 0 0 900 712;" xml:space="preserve">
<style type="text/css">
	.st0{fill:#923CFF;}
	.st1{fill:#B37FFF;}
	.st2{fill:#CBABFD;}
	.st3{fill:#FFDE00;}
	.st4{fill:#DA44D0;}
	.st5{fill:#B17EFD;}
	.st6{fill:#B61BB6;}
	.st7{fill:#CDD8EF;}
	.st8{fill:#FFFFFF;}
	.st9{fill:#FCFFFF;}
	.st10{fill:#FBFCFF;}
	.st11{fill:#FBFCFC;}
	.st12{fill:#FAFCFC;}
	.st13{fill:#F9FCFC;}
	.st14{fill:#F8FBFC;}
	.st15{fill:#F7FBFB;}
	.st16{fill:#F6FAFB;}
	.st17{fill:#F5FAFB;}
	.st18{fill:#F4FAFB;}
	.st19{fill:#F3F9FA;}
	.st20{fill:#F2F9FA;}
	.st21{fill:#D8EEF3;}
	.st22{fill:#F3AB00;}
	.st23{fill:#FBDA05;}
	.st24{clip-path:url(#SVGID_2_);}
	.st25{fill:none;}
	.st26{fill:#FB993D;}
	.st27{fill:none;stroke:#000000;stroke-width:6;stroke-linecap:round;stroke-linejoin:round;stroke-miterlimit:10;}
	.st28{fill:#DEE3F3;}
	.st29{fill:#EBEDF7;}
	.st30{fill:#E7EAF6;}
</style>
<rect x="100" y="100" class="st0" width="700" height="512"/>
<g>
	<g>
		<path class="st1" d="M651.2,615.3l24.1,43.8c8.1,6.1,19.2-27.3,19.2-37.4l0.4-302.8h-90.9v261.6
			C604.1,580.6,647.3,612.4,651.2,615.3z"/>
		<g>
			<path class="st1" d="M672.8,703.2c12.9,4.3,21.2-5.8,21.5-21.8l0.6-148.3c0.1-14.5-9.7-31.6-21.7-38c-12-6.5-21.9,0.1-21.9,14.6
				l-0.6,154.6C650.7,682.7,658.2,698.3,672.8,703.2z"/>
		</g>
		<g>
			<path class="st1" d="M639.2,646.4c7.1,2.1,11.6-4,11.6-11.8l0.3-134.5c0-7.8-5.3-17.1-11.8-20.6c-6.5-3.5-11.8,0.1-11.9,7.9
				l-0.3,137.9C627.2,633.1,630.7,643.9,639.2,646.4z"/>
		</g>
		<g>
			<path class="st1" d="M608.7,645.9c12.5,4.2,20.6-5.6,20.9-21.2l0.6-291.5c0.1-14.1-9.4-30.7-21.1-37
				c-11.7-6.3-21.3,0.1-21.3,14.2L587.2,608C587.2,625.9,594.5,641.2,608.7,645.9z"/>
		</g>
	</g>
	<path class="st2" d="M674.3,526.4c-1,0-1.8,0.8-1.8,1.8v155.4c0,1,0.8,1.8,1.8,1.8c1,0,1.8-0.8,1.8-1.8V528.2
		C676.2,527.2,675.3,526.4,674.3,526.4z"/>
	<path class="st2" d="M674.3,334.2c-1,0-1.8,0.8-1.8,1.8v164.2c0,1,0.8,1.8,1.8,1.8c1,0,1.8-0.8,1.8-1.8V336
		C676.2,335,675.3,334.2,674.3,334.2z"/>
	<path class="st2" d="M609.9,548.9c-1,0-1.8,0.8-1.8,1.8v44.7c0,1,0.8,1.8,1.8,1.8c1,0,1.8-0.8,1.8-1.8v-44.7
		C611.7,549.7,610.9,548.9,609.9,548.9z"/>
	<path class="st2" d="M609.9,487.4c-1,0-1.8,0.8-1.8,1.8v32c0,1,0.8,1.8,1.8,1.8c1,0,1.8-0.8,1.8-1.8v-32
		C611.7,488.2,610.9,487.4,609.9,487.4z"/>
	<path class="st2" d="M609.9,376.6c-1,0-1.8,0.8-1.8,1.8V476c0,1,0.8,1.8,1.8,1.8c1,0,1.8-0.8,1.8-1.8v-97.6
		C611.7,377.4,610.9,376.6,609.9,376.6z"/>
</g>
<path id="cloud_81_" class="st3" d="M801.4,378c7.4-89-42.3-147.3-103.3-153.2c-9.5-53-34.5-104.7-75.2-128.2
	C563.4,62.2,494.6,78.2,484,145.9c-0.2,1.6,0,3.2,0,4.7c0,0-0.1,0-0.1,0c-45.6-26.3-83.1-3.9-83.9,50.1s35.5,119.1,81,145.4
	l302.3,173.7c38.1,22,74.5,0.9,80.3-38.7C868.9,444.5,850.5,395.4,801.4,378z"/>
<path id="cloud_79_" class="st4" d="M41,467.4c11-37.6,41.5-67.8,80.1-73c9.5-47.1,42.9-96.9,82.3-119.1
	c41.4-23.3,75.5-8.3,81.9,33.1c0.1-0.1,0.3-0.2,0.4-0.2c29.3-16.5,52.7-2.7,52.5,30.8c22.7-5.5,39.1,9.1,38.8,37.6
	c-0.4,34.3-24.9,75.8-54.8,92.7l-168.1,94.7C114.5,593.7,9.5,575,41,467.4z"/>
<g>
	<g>
		<path class="st5" d="M382.4,166.6l31.2-150.9c10.4-7.9,24.9,35.3,24.9,48.4l0.6,445.9l-117.6,36.5V153.7
			C321.5,153.7,377.5,170.4,382.4,166.6z"/>
		<g>
			<path class="st5" d="M410.5,10.5c16.7-5.6,27.4,7.5,27.8,28.3l0.8,134.1c0.1,18.7-12.6,40.9-28.1,49.2
				c-15.5,8.4-28.3-0.2-28.4-18.9L381.8,61C381.8,37.1,391.5,16.8,410.5,10.5z"/>
		</g>
		<g>
			<path class="st5" d="M337,114.8c9.1-2.7,15,5.2,15.1,15.3l0.4,46.1c0,10.1-6.8,22.2-15.2,26.7c-8.4,4.5-15.3-0.1-15.4-10.2
				l-0.4-50.5C321.4,132,326,118.1,337,114.8z"/>
		</g>
		<g>
			<path class="st5" d="M366.9,57.5c9.1-2.7,15,5.2,15.1,15.3l0.4,116.2c0,10.1-6.8,22.2-15.2,26.7c-8.4,4.5-15.3-0.1-15.4-10.2
				l-0.4-120.6C351.4,74.8,355.9,60.8,366.9,57.5z"/>
		</g>
	</g>
	<path class="st2" d="M412.4,207.4c-1.3,0-2.3-1-2.3-2.3V61.8c0-1.3,1-2.3,2.3-2.3s2.3,1,2.3,2.3V205
		C414.8,206.3,413.7,207.4,412.4,207.4z"/>
	<path class="st2" d="M412.4,456.1c-1.3,0-2.3-1-2.3-2.3V241.2c0-1.3,1-2.3,2.3-2.3s2.3,1,2.3,2.3v212.6
		C414.8,455.1,413.7,456.1,412.4,456.1z"/>
	<path class="st2" d="M412.4,523.9c-1.3,0-2.3-1-2.3-2.3v-32.2c0-1.3,1-2.3,2.3-2.3s2.3,1,2.3,2.3v32.2
		C414.8,522.9,413.7,523.9,412.4,523.9z"/>
	<path class="st2" d="M385.7,319.2c-1.3,0-2.3-1-2.3-2.3V115.7c0-1.3,1-2.3,2.3-2.3s2.3,1,2.3,2.3v201.2
		C388.1,318.2,387,319.2,385.7,319.2z"/>
	<path class="st2" d="M385.7,412.9c-1.3,0-2.3-1-2.3-2.3v-61c0-1.3,1-2.3,2.3-2.3s2.3,1,2.3,2.3v61
		C388.1,411.9,387,412.9,385.7,412.9z"/>
	<path class="st2" d="M350.6,228.8c-1.3,0-2.3-1-2.3-2.3V185c0-1.3,1-2.3,2.3-2.3c1.3,0,2.3,1,2.3,2.3v41.5
		C353,227.8,351.9,228.8,350.6,228.8z"/>
	<path class="st2" d="M350.6,399.4c-1.3,0-2.3-1-2.3-2.3V270.8c0-1.3,1-2.3,2.3-2.3c1.3,0,2.3,1,2.3,2.3v126.3
		C353,398.4,351.9,399.4,350.6,399.4z"/>
	<path class="st2" d="M350.6,460.4c-1.3,0-2.3-1-2.3-2.3v-18.7c0-1.3,1-2.3,2.3-2.3c1.3,0,2.3,1,2.3,2.3v18.7
		C353,459.4,351.9,460.4,350.6,460.4z"/>
</g>
<g>
	<polygon points="269,485.8 284.3,568.1 397.1,675.9 435,624.9 454.7,639.7 530.4,565.6 550.3,487.9 362.5,470.9 	"/>
	<ellipse cx="409.8" cy="480.8" rx="141.2" ry="69.1"/>
	<ellipse cx="411.6" cy="480.8" rx="103.3" ry="48.3"/>
	<ellipse class="st5" cx="411.6" cy="480.8" rx="113.7" ry="53.2"/>
</g>
<g>
	<path class="st6" d="M417.7,305c10.5-6.1,19.3,12.8,19.3,12.8c-4.2,4.5-10.3,10.9-17.4,18.7c-8.2,9-18.1,23.7-24.8,34.2
		C394.7,343,407.2,311.1,417.7,305z"/>
	<path class="st6" d="M507.6,277.8c1.8-3.3,5.4-8.5,9.6-14.1c7.4-9.9,16.4-21,19.6-24.6c5.1-5.7,12.6-12.3,16.1-7.9
		c3.5,4.4,0,15.9,0,15.9c-3.6,13.6-15.3,41.3-15.3,41.3c0,0,0,0,0,0C528.9,277.8,515.8,277,507.6,277.8z"/>
	<path class="st4" d="M552.9,231.2c-3.4-4.4-11,2.1-16.1,7.9c-3.3,3.7-12.3,14.7-19.6,24.6c-4.2,5.6-7.8,10.8-9.6,14.1
		c-4.4,0.4-7.4,1.3-7.4,1.3s4.9-9.1,12.5-19.7c5.2-7.3,11.6-15.4,18.5-21.7c16.9-15.4,22.8-19.7,29-14.1c8.9,15.4-19,70.6-19,70.6
		c-1.1-2.2-2.4-4.2-3.8-5.9c0,0,11.7-27.7,15.3-41.3C552.9,247.1,556.4,235.6,552.9,231.2z"/>
	<path class="st4" d="M413.8,301.2c9.8-8.8,17.5-4.9,19.3-3.8c0.1,0,0.1,0.1,0.2,0.1c0.1,0.1,0.2,0.1,0.2,0.2c0,0,0,0,0,0
		c8.1,6.1,9.9,13.6,9.9,13.6s-2.3,2.4-6.3,6.6c0,0-8.8-18.8-19.3-12.8c-10.5,6.1-23,38-22.9,65.7c-4.6,7.2-7.7,12.4-7.7,12.4
		C386.1,353.6,397.9,315.7,413.8,301.2z"/>
	<path class="st7" d="M281.7,279.9c-3-0.4-6.4-1.9-6.7-6.4c-0.5-6,11.1-8.9,17-10c-2.6,3.5-5,7.1-7.3,10.9
		C283.6,276.3,282.6,278.1,281.7,279.9z"/>
	<path class="st8" d="M560.9,389.6c6.1-34-2.5-70.3-23.3-101.2c-8.6-10.5-21.8-11.3-29.9-10.5c-4.4,0.4-7.4,1.3-7.4,1.3
		s-8.9-9.5-10.3-21.2c-0.7-5.7,0.5-9.7,3.8-13.7c-3.5-2.5-7.2-4.8-11-7c-67.9-39.9-150.3-27.6-190.8,26.4c-2.6,3.5-5,7.1-7.3,10.9
		c-1.1,1.8-2,3.6-3,5.4c-26.7,51.4-11.8,116,33.4,160.3c9.8,9.6,20.9,18.2,33.4,25.5c2.8,1.6,5.6,3.2,8.4,4.6
		c10.8,5.6,21.8,9.8,32.9,12.9c21.8,6,43.9,7.4,64.7,4.4c6.9-1,25.6-6.8,31.7-10C525.2,457.6,550.7,435.1,560.9,389.6z M380.1,310.8
		c9.6-17.9,25-24,42.4-18.6c4.3,1.3,7.7,3.2,10.5,5.2c0.1,0,0.1,0.1,0.2,0.1c0.1,0.1,0.2,0.1,0.2,0.2c0,0,0,0,0,0
		c8.1,6.1,9.9,13.6,9.9,13.6s-2.3,2.4-6.3,6.6c-4.2,4.5-10.3,10.9-17.4,18.7c-8.2,9-18.1,23.7-24.8,34.2c-4.6,7.2-7.7,12.4-7.7,12.4
		C364.5,362.6,370.5,328.8,380.1,310.8z"/>
	<path class="st7" d="M356.9,470.3c-1.1,4-5,12.8-18.7,12.8c-17.6,0-19.8-13.5-20.5-18.3c-0.5-3.7-2-18.5-2.7-24.7
		c9.8,9.6,20.9,18.2,33.4,25.5C351.3,467.3,354.1,468.8,356.9,470.3z"/>
	<path class="st7" d="M422.6,292.2c4.3,1.3,7.7,3.2,10.5,5.2c-1.8-1.1-9.5-5-19.3,3.8c-15.9,14.4-27.7,52.3-26.7,81.9
		c-22.5-20.5-16.5-54.4-6.9-72.3C389.8,292.9,405.2,286.9,422.6,292.2z"/>
	<path class="st7" d="M454.6,487.6l-5.5,27.7c0,0.2-0.2,10.7-27.9,10.7c-28.1,0-26.8-14-27.2-16.1c-0.4-1.7-3.1-20-4.1-26.7
		C411.7,489.3,433.8,490.6,454.6,487.6z"/>
	<path class="st7" d="M531.3,237.7c-6.9,6.3-13.3,14.3-18.5,21.7c-7.5,10.6-12.5,19.7-12.5,19.7s-8.9-9.5-10.3-21.2
		c-0.7-5.7,0.5-9.7,3.8-13.7c3.4-4.1,9.1-8.3,17.2-14.6c16.1-12.5,40.5-21.3,49.4-5.9C554.1,218.1,548.2,222.3,531.3,237.7z"/>
	<polygon class="st8" points="498.4,426.6 502,429.7 531.6,395.9 502.1,392.7 	"/>
	<polygon class="st8" points="502,429.7 503,430.6 533.3,396.1 531.6,395.9 	"/>
	<polygon class="st8" points="503,430.6 504,431.5 535,396.3 533.3,396.1 	"/>
	<polygon class="st9" points="504,431.5 505.1,432.4 536.6,396.5 535,396.3 	"/>
	<polygon class="st9" points="505.1,432.4 506.1,433.3 538.3,396.6 536.6,396.5 	"/>
	<polygon class="st10" points="506.1,433.3 507.1,434.2 539.9,396.8 538.3,396.6 	"/>
	<polygon class="st11" points="507.1,434.2 508.2,435.1 541.6,397 539.9,396.8 	"/>
	<polygon class="st12" points="508.2,435.1 509.2,436 543.3,397.2 541.6,397 	"/>
	<polygon class="st13" points="509.2,436 510.2,436.9 544.9,397.4 543.3,397.2 	"/>
	<polygon class="st14" points="510.2,436.9 511.3,437.8 546.6,397.6 544.9,397.4 	"/>
	<polygon class="st14" points="511.3,437.8 512.3,438.8 548.3,397.7 546.6,397.6 	"/>
	<polygon class="st15" points="512.3,438.8 512.4,438.9 513.9,439 549.9,397.9 548.3,397.7 	"/>
	<polygon class="st16" points="513.9,439 515.5,439.2 551.6,398.1 549.9,397.9 	"/>
	<polygon class="st17" points="515.5,439.2 517.2,439.4 553.3,398.3 551.6,398.1 	"/>
	<polygon class="st18" points="517.2,439.4 518.8,439.6 554.9,398.5 553.3,398.3 	"/>
	<polygon class="st19" points="518.8,439.6 520.5,439.8 556.6,398.6 554.9,398.5 	"/>
	<polygon class="st20" points="520.5,439.8 522.2,439.9 558.2,398.8 556.6,398.6 	"/>
	<path class="st8" d="M499.1,420.1c0,0,21.7,19.7,37.4,21.4c35.7,3.9,22.4-42.6,22.4-42.6L499.1,420.1z"/>
	<g>
		<path class="st7" d="M515.3,418.8c2.3,12.2,26.2,11.1,31.7,4.8c7.2-8.4,6.3-21.8,6.3-21.8C539.9,389.8,515.3,418.8,515.3,418.8z"
			/>
	</g>
	<g>
		<path class="st21" d="M392,224.4c-16.8-4.2-36.2,6.2-36.2,6.2c8.7,0.1,64.7,34.3,83.3,44c14.1,7.4,22.4-6,18.7-11.8
			C449,248.8,410.4,229,392,224.4z"/>
	</g>
	<g>
		<path d="M381.9,225c-16.8-4.2-26.1,5.5-26.1,5.5c8.7,0.1,55.8,29.2,74.5,38.9c14.1,7.4,22.1-2.7,18.4-8.5
			C439.8,247.1,400.3,229.6,381.9,225z"/>
	</g>
	<g>
		<g>
			<g>
				<g>
					<path class="st22" d="M425.9,184.3l-0.9,64.2c0,0,14.1,4.4,21-8.5c6.9-12.9,8.2-30.8-1.2-46.2
						C436.9,180.9,425.9,184.3,425.9,184.3z"/>
				</g>
			</g>
		</g>
		<g>
			<g>
				<g>
					<path class="st23" d="M411.6,194.2c-6.9,12.9-5.9,33.3,2.1,45.6c8,12.3,20.1,11.8,27-1.1c6.9-12.9,5.9-33.3-2.1-45.6
						C430.5,180.8,418.4,181.3,411.6,194.2z"/>
				</g>
			</g>
		</g>
		<g>
			<g>
				<g>
					<path class="st23" d="M413.9,197.7c-5.8,10.8-5,28,1.8,38.4c6.8,10.4,16.9,10,22.7-0.9c5.8-10.9,5-28-1.8-38.4
						C429.8,186.5,419.7,186.9,413.9,197.7z"/>
				</g>
			</g>
		</g>
		<g>
			<g>
				<g>
					<path class="st22" d="M427.7,242.8c-0.3-0.1-0.6-0.2-0.8-0.3c-0.1,0-0.1,0-0.2-0.1c-0.3-0.1-0.7-0.3-1-0.5
						c-0.1-0.1-0.3-0.2-0.4-0.2c-0.1,0-0.1-0.1-0.2-0.1c-0.2-0.1-0.4-0.3-0.7-0.4c0,0,0,0,0,0c-0.2-0.2-0.5-0.4-0.7-0.5
						c-0.1-0.1-0.1-0.1-0.2-0.2c-0.2-0.1-0.3-0.3-0.5-0.4c-0.3-0.2-0.5-0.5-0.8-0.8c-0.1-0.1-0.1-0.1-0.2-0.2
						c-0.2-0.2-0.4-0.4-0.6-0.7c-0.1-0.1-0.1-0.2-0.2-0.3c-0.2-0.3-0.4-0.5-0.6-0.8c-0.1-0.1-0.2-0.2-0.2-0.3
						c-0.3-0.4-0.5-0.7-0.8-1.1c-0.3-0.5-0.6-1-0.9-1.5c0-0.1-0.1-0.2-0.2-0.3c-0.3-0.5-0.5-1-0.8-1.6c-0.1-0.1-0.1-0.2-0.1-0.3
						c-0.3-0.5-0.5-1.1-0.7-1.7c0-0.1,0-0.1-0.1-0.2c-0.2-0.6-0.4-1.1-0.6-1.7c0-0.1-0.1-0.2-0.1-0.3c-0.1-0.4-0.3-0.9-0.4-1.3
						c0,0,0-0.1,0-0.1c-0.1-0.4-0.2-0.9-0.3-1.3c0-0.1,0-0.2-0.1-0.3c-0.2-0.7-0.3-1.4-0.5-2.2c0-0.1,0-0.2,0-0.2
						c-0.1-0.6-0.2-1.2-0.3-1.8c0-0.1,0-0.2,0-0.3c-0.1-0.6-0.1-1.2-0.2-1.7c0-0.1,0-0.3,0-0.4c0-0.5-0.1-0.9-0.1-1.4
						c0-0.1,0-0.2,0-0.3c0-0.5,0-1.1-0.1-1.6c0-0.1,0-0.3,0-0.4c0-0.4,0-0.9,0-1.3c0-0.1,0-0.3,0-0.4c0-0.5,0-1.1,0.1-1.6
						c0-0.1,0-0.1,0-0.2c0-0.5,0.1-1,0.1-1.4c0-0.1,0-0.3,0-0.4c0.1-0.6,0.1-1.1,0.2-1.7c0,0,0-0.1,0-0.1c0.1-0.6,0.2-1.1,0.3-1.7
						c0-0.1,0-0.2,0.1-0.3c0.1-0.6,0.3-1.3,0.5-1.9c0-0.1,0.1-0.3,0.1-0.4c0.1-0.2,0.1-0.5,0.2-0.7c0.1-0.2,0.1-0.3,0.2-0.5
						c0.1-0.2,0.2-0.5,0.3-0.7c0.1-0.1,0.1-0.3,0.2-0.4c0.2-0.5,0.4-1,0.6-1.5c0-0.1,0.1-0.2,0.1-0.3c0.2-0.5,0.5-1,0.7-1.5
						c2.8-5.4,6.4-7.7,10.5-7.9c0,0-2.2-0.4-3.6-0.4c-4.1-0.1-8.1,3.2-11,8.6c-0.3,0.5-0.5,1-0.7,1.5c0,0.1-0.1,0.2-0.1,0.3
						c-0.2,0.5-0.4,1-0.6,1.5c0,0,0,0.1,0,0.1c0,0.1-0.1,0.2-0.1,0.4c-0.1,0.2-0.2,0.5-0.3,0.7c-0.1,0.2-0.1,0.3-0.2,0.5
						c-0.1,0.2-0.1,0.5-0.2,0.7c0,0.1-0.1,0.2-0.1,0.2c0,0.1,0,0.1,0,0.2c-0.2,0.6-0.3,1.3-0.5,1.9c0,0,0,0.1,0,0.1
						c0,0.1,0,0.1,0,0.2c-0.1,0.6-0.2,1.1-0.3,1.7c0,0,0,0.1,0,0.1c0,0,0,0,0,0c-0.1,0.6-0.2,1.1-0.2,1.7c0,0.1,0,0.1,0,0.2
						c0,0.1,0,0.2,0,0.2c-0.1,0.5-0.1,1-0.1,1.4c0,0.1,0,0.1,0,0.2c0,0,0,0,0,0c0,0.5-0.1,1.1-0.1,1.6c0,0.1,0,0.1,0,0.2
						c0,0.1,0,0.2,0,0.3c0,0.4,0,0.9,0,1.3c0,0.1,0,0.2,0,0.3c0,0,0,0.1,0,0.1c0,0.5,0,1.1,0.1,1.6c0,0,0,0.1,0,0.1
						c0,0.1,0,0.1,0,0.2c0,0.5,0.1,0.9,0.1,1.4c0,0.1,0,0.2,0,0.3c0,0.1,0,0.1,0,0.2c0.1,0.6,0.1,1.2,0.2,1.7c0,0,0,0.1,0,0.1
						c0,0.1,0,0.1,0,0.2c0.1,0.6,0.2,1.2,0.3,1.8c0,0.1,0,0.1,0,0.2c0,0,0,0,0,0.1c0.1,0.7,0.3,1.5,0.5,2.2c0,0.1,0,0.1,0,0.2
						c0,0,0,0.1,0,0.1c0.1,0.4,0.2,0.9,0.3,1.3c0,0,0,0.1,0,0.1c0.1,0.5,0.3,0.9,0.4,1.3c0,0,0,0.1,0,0.1c0,0.1,0,0.1,0.1,0.2
						c0.2,0.6,0.4,1.1,0.6,1.7c0,0.1,0,0.1,0.1,0.2c0.2,0.6,0.5,1.1,0.7,1.7c0,0.1,0.1,0.2,0.1,0.3c0.3,0.5,0.5,1.1,0.8,1.6
						c0.1,0.1,0.1,0.2,0.2,0.3c0.3,0.5,0.6,1,0.9,1.5c0.3,0.4,0.5,0.8,0.8,1.1c0.1,0.1,0.2,0.2,0.2,0.3c0.2,0.3,0.4,0.5,0.6,0.8
						c0.1,0.1,0.1,0.1,0.1,0.2c0,0,0.1,0.1,0.1,0.1c0.2,0.2,0.4,0.5,0.6,0.7c0.1,0.1,0.1,0.1,0.2,0.2c0.3,0.3,0.5,0.5,0.8,0.8
						c0,0,0,0,0,0c0.1,0.1,0.3,0.2,0.4,0.4c0.1,0.1,0.1,0.1,0.2,0.2c0.2,0.2,0.5,0.4,0.7,0.5l0,0c0,0,0,0,0,0
						c0.2,0.2,0.4,0.3,0.7,0.4c0.1,0,0.1,0.1,0.2,0.1c0.1,0.1,0.2,0.1,0.3,0.2c0,0,0.1,0,0.1,0c0.3,0.2,0.7,0.4,1,0.5c0,0,0,0,0,0
						c0,0,0.1,0,0.1,0c0.3,0.1,0.6,0.2,0.8,0.3c0,0,0.1,0,0.1,0.1c0,0,0.1,0,0.1,0c0.3,0.1,0.7,0.2,1,0.2l0,0c0,0,0,0,0,0
						c0.3,0.1,0.6,0.1,0.9,0.1c0,0,0.1,0,0.1,0c0,0,0.1,0,0.1,0c0.3,0,0.5,0,0.8,0c0,0,0.1,0,0.1,0c0,0,0.1,0,0.1,0l1.6-0.1
						c0,0-0.5-0.4-0.9-0.5C427.9,242.9,427.8,242.9,427.7,242.8z"/>
				</g>
			</g>
		</g>
	</g>
	<g>
		<defs>
			<path id="SVGID_1_" d="M381.9,225c18.4,4.6,57.9,22.1,66.8,36c3.7,5.8-4.3,15.8-18.4,8.5c-18.6-9.7-65.8-38.8-74.5-38.9
				C355.8,230.5,365.1,220.8,381.9,225z"/>
		</defs>
		<clipPath id="SVGID_2_">
			<use xlink:href="#SVGID_1_"  style="overflow:visible;"/>
		</clipPath>
		<g class="st24">
			<g>
				<g>
					<g>
						<path class="st22" d="M381.9,231l-0.9,62.5c0,0,13.8,4.3,20.4-8.2c6.7-12.5,8-30-1.1-44.9C392.6,227.7,381.9,231,381.9,231z"
							/>
					</g>
				</g>
			</g>
			<g>
				<g>
					<g>
						<path class="st23" d="M367.9,240.7c-6.7,12.5-5.7,32.4,2.1,44.4c7.8,12,19.6,11.5,26.3-1c6.7-12.5,5.7-32.4-2.1-44.4
							C386.3,227.7,374.6,228.1,367.9,240.7z"/>
					</g>
				</g>
			</g>
			<g>
				<g>
					<g>
						<path class="st25" d="M370.1,244.1c-5.6,10.6-4.8,27.3,1.8,37.4c6.6,10.1,16.5,9.7,22.1-0.9c5.6-10.6,4.8-27.3-1.8-37.4
							C385.7,233.2,375.8,233.5,370.1,244.1z"/>
					</g>
				</g>
			</g>
			<g>
				<g>
					<g>
						<path class="st22" d="M383.6,288c-0.3-0.1-0.5-0.2-0.8-0.3c-0.1,0-0.1,0-0.2-0.1c-0.3-0.1-0.7-0.3-1-0.5
							c-0.1-0.1-0.3-0.2-0.4-0.2c-0.1,0-0.1-0.1-0.2-0.1c-0.2-0.1-0.4-0.3-0.6-0.4c0,0,0,0,0,0c-0.2-0.2-0.5-0.3-0.7-0.5
							c-0.1-0.1-0.1-0.1-0.2-0.2c-0.2-0.1-0.3-0.3-0.5-0.4c-0.3-0.2-0.5-0.5-0.8-0.7c-0.1-0.1-0.1-0.1-0.2-0.2
							c-0.2-0.2-0.4-0.4-0.6-0.7c-0.1-0.1-0.1-0.2-0.2-0.3c-0.2-0.2-0.4-0.5-0.6-0.8c-0.1-0.1-0.2-0.2-0.2-0.3
							c-0.3-0.4-0.5-0.7-0.8-1.1c-0.3-0.5-0.6-1-0.9-1.5c0-0.1-0.1-0.2-0.1-0.3c-0.3-0.5-0.5-1-0.8-1.5c0-0.1-0.1-0.2-0.1-0.3
							c-0.2-0.5-0.5-1.1-0.7-1.6c0-0.1,0-0.1-0.1-0.1c-0.2-0.5-0.4-1.1-0.6-1.6c0-0.1-0.1-0.2-0.1-0.3c-0.1-0.4-0.3-0.9-0.4-1.3
							c0,0,0-0.1,0-0.1c-0.1-0.4-0.2-0.8-0.3-1.2c0-0.1,0-0.2-0.1-0.3c-0.2-0.7-0.3-1.4-0.5-2.1c0-0.1,0-0.2,0-0.2
							c-0.1-0.6-0.2-1.1-0.3-1.7c0-0.1,0-0.2,0-0.3c-0.1-0.6-0.1-1.1-0.2-1.7c0-0.1,0-0.3,0-0.4c0-0.5-0.1-0.9-0.1-1.4
							c0-0.1,0-0.2,0-0.3c0-0.5,0-1.1-0.1-1.6c0-0.1,0-0.3,0-0.4c0-0.4,0-0.8,0-1.3c0-0.1,0-0.3,0-0.4c0-0.5,0-1.1,0.1-1.6
							c0-0.1,0-0.1,0-0.2c0-0.5,0.1-0.9,0.1-1.4c0-0.1,0-0.3,0-0.4c0.1-0.5,0.1-1.1,0.2-1.6c0,0,0-0.1,0-0.1
							c0.1-0.6,0.2-1.1,0.3-1.6c0-0.1,0-0.2,0.1-0.3c0.1-0.6,0.3-1.3,0.5-1.9c0-0.1,0.1-0.3,0.1-0.4c0.1-0.2,0.1-0.5,0.2-0.7
							c0.1-0.2,0.1-0.3,0.2-0.5c0.1-0.2,0.2-0.5,0.3-0.7c0-0.1,0.1-0.3,0.2-0.4c0.2-0.5,0.4-1,0.6-1.5c0-0.1,0.1-0.2,0.1-0.3
							c0.2-0.5,0.5-1,0.7-1.5c2.8-5.2,6.3-7.5,10.2-7.7c0,0-2.1-0.4-3.5-0.4c-4-0.1-7.9,3.1-10.7,8.4c-0.3,0.5-0.5,1-0.7,1.5
							c0,0.1-0.1,0.2-0.1,0.3c-0.2,0.5-0.4,1-0.6,1.5c0,0,0,0.1,0,0.1c0,0.1-0.1,0.2-0.1,0.3c-0.1,0.2-0.2,0.5-0.2,0.7
							c-0.1,0.2-0.1,0.3-0.2,0.5c-0.1,0.2-0.1,0.5-0.2,0.7c0,0.1,0,0.2-0.1,0.2c0,0.1,0,0.1,0,0.2c-0.2,0.6-0.3,1.2-0.5,1.9
							c0,0,0,0.1,0,0.1c0,0.1,0,0.1,0,0.2c-0.1,0.5-0.2,1.1-0.3,1.7c0,0,0,0.1,0,0.1c0,0,0,0,0,0c-0.1,0.5-0.2,1.1-0.2,1.6
							c0,0.1,0,0.1,0,0.2c0,0.1,0,0.2,0,0.2c-0.1,0.5-0.1,0.9-0.1,1.4c0,0.1,0,0.1,0,0.2c0,0,0,0,0,0c0,0.5-0.1,1.1-0.1,1.6
							c0,0,0,0.1,0,0.2c0,0.1,0,0.2,0,0.3c0,0.4,0,0.8,0,1.3c0,0.1,0,0.2,0,0.3c0,0,0,0.1,0,0.1c0,0.5,0,1.1,0,1.6c0,0,0,0.1,0,0.1
							c0,0.1,0,0.1,0,0.2c0,0.5,0.1,0.9,0.1,1.4c0,0.1,0,0.2,0,0.2c0,0.1,0,0.1,0,0.2c0.1,0.6,0.1,1.1,0.2,1.7c0,0,0,0.1,0,0.1
							c0,0.1,0,0.1,0,0.2c0.1,0.6,0.2,1.2,0.3,1.7c0,0.1,0,0.1,0,0.2c0,0,0,0,0,0.1c0.1,0.7,0.3,1.4,0.5,2.1c0,0.1,0,0.1,0,0.2
							c0,0,0,0.1,0,0.1c0.1,0.4,0.2,0.8,0.3,1.2c0,0,0,0.1,0,0.1c0.1,0.4,0.3,0.9,0.4,1.3c0,0,0,0.1,0,0.1c0,0.1,0,0.1,0.1,0.2
							c0.2,0.6,0.4,1.1,0.6,1.6c0,0,0,0.1,0.1,0.2c0.2,0.6,0.5,1.1,0.7,1.6c0,0.1,0.1,0.2,0.1,0.3c0.2,0.5,0.5,1,0.8,1.5
							c0,0.1,0.1,0.2,0.1,0.3c0.3,0.5,0.6,1,0.9,1.5c0.3,0.4,0.5,0.8,0.8,1.1c0.1,0.1,0.2,0.2,0.2,0.3c0.2,0.3,0.4,0.5,0.6,0.8
							c0,0.1,0.1,0.1,0.1,0.2c0,0,0.1,0.1,0.1,0.1c0.2,0.2,0.4,0.4,0.6,0.7c0,0.1,0.1,0.1,0.2,0.2c0.3,0.3,0.5,0.5,0.8,0.7
							c0,0,0,0,0,0c0.1,0.1,0.3,0.2,0.4,0.4c0.1,0.1,0.1,0.1,0.2,0.2c0.2,0.2,0.5,0.4,0.7,0.5l0,0c0,0,0,0,0,0
							c0.2,0.1,0.4,0.3,0.6,0.4c0.1,0,0.1,0.1,0.2,0.1c0.1,0.1,0.2,0.1,0.3,0.2c0,0,0.1,0,0.1,0c0.3,0.2,0.7,0.3,1,0.5c0,0,0,0,0,0
							c0,0,0.1,0,0.1,0c0.3,0.1,0.5,0.2,0.8,0.3c0,0,0.1,0,0.1,0.1c0,0,0.1,0,0.1,0c0.3,0.1,0.6,0.2,0.9,0.2l0,0c0,0,0,0,0,0
							c0.3,0.1,0.6,0.1,0.9,0.1c0,0,0.1,0,0.1,0c0,0,0.1,0,0.1,0c0.3,0,0.5,0,0.8,0c0,0,0.1,0,0.1,0c0,0,0.1,0,0.1,0l1.6-0.1
							c0,0-0.5-0.4-0.8-0.5C383.8,288.1,383.7,288.1,383.6,288z"/>
					</g>
				</g>
			</g>
			<g>
				<g>
					<g>
						<path class="st26" d="M377.9,265.1c0-0.2,0-0.4,0-0.6c0-0.4,0.1-0.6,0.2-0.9c0.2-0.3,0.4-0.4,0.6-0.5c0.1,0,0.2,0,0.4,0.1
							L377.9,265.1z M385.3,260.2c-0.2,0.3-0.4,0.5-0.6,0.5c-0.1,0-0.2,0-0.4-0.1l1.2-2C385.7,259.5,385.4,259.9,385.3,260.2z"/>
					</g>
				</g>
			</g>
		</g>
	</g>
	<g>
		<g>
			<g>
				<g>
					<path class="st22" d="M379.1,106.8l-0.9,64.2c0,0,14.1,4.4,21-8.5c6.9-12.9,8.2-30.8-1.2-46.2
						C390.1,103.5,379.1,106.8,379.1,106.8z"/>
				</g>
			</g>
		</g>
		<g>
			<g>
				<g>
					<path class="st23" d="M364.8,116.8c-6.9,12.9-5.9,33.3,2.1,45.6c8,12.3,20.1,11.8,27-1.1c6.9-12.9,5.9-33.3-2.1-45.6
						C383.7,103.4,371.6,103.9,364.8,116.8z"/>
				</g>
			</g>
		</g>
		<g>
			<g>
				<g>
					<path class="st23" d="M367.1,120.3c-5.8,10.8-5,28,1.8,38.4c6.8,10.4,16.9,10,22.7-0.9c5.8-10.9,5-28-1.8-38.4
						C383,109,372.9,109.4,367.1,120.3z"/>
				</g>
			</g>
		</g>
		<g>
			<g>
				<g>
					<path class="st22" d="M380.9,165.4c-0.3-0.1-0.6-0.2-0.8-0.3c-0.1,0-0.1,0-0.2-0.1c-0.3-0.1-0.7-0.3-1-0.5
						c-0.1-0.1-0.3-0.2-0.4-0.2c-0.1,0-0.1-0.1-0.2-0.1c-0.2-0.1-0.4-0.3-0.7-0.4c0,0,0,0,0,0c-0.2-0.2-0.5-0.4-0.7-0.5
						c-0.1-0.1-0.1-0.1-0.2-0.2c-0.2-0.1-0.3-0.3-0.5-0.4c-0.3-0.2-0.5-0.5-0.8-0.8c-0.1-0.1-0.1-0.1-0.2-0.2
						c-0.2-0.2-0.4-0.4-0.6-0.7c-0.1-0.1-0.2-0.2-0.2-0.3c-0.2-0.3-0.4-0.5-0.6-0.8c-0.1-0.1-0.2-0.2-0.2-0.3
						c-0.3-0.4-0.5-0.7-0.8-1.1c-0.3-0.5-0.6-1-0.9-1.5c-0.1-0.1-0.1-0.2-0.2-0.3c-0.3-0.5-0.5-1-0.8-1.6c0-0.1-0.1-0.2-0.1-0.3
						c-0.3-0.5-0.5-1.1-0.7-1.7c0-0.1,0-0.1-0.1-0.2c-0.2-0.6-0.4-1.1-0.6-1.7c0-0.1-0.1-0.2-0.1-0.3c-0.1-0.4-0.3-0.9-0.4-1.3
						c0,0,0-0.1,0-0.1c-0.1-0.4-0.2-0.9-0.3-1.3c0-0.1,0-0.2-0.1-0.3c-0.2-0.7-0.3-1.4-0.5-2.2c0-0.1,0-0.2,0-0.2
						c-0.1-0.6-0.2-1.2-0.3-1.8c0-0.1,0-0.2,0-0.3c-0.1-0.6-0.1-1.2-0.2-1.7c0-0.1,0-0.3,0-0.4c0-0.5-0.1-0.9-0.1-1.4
						c0-0.1,0-0.2,0-0.3c0-0.5,0-1.1-0.1-1.6c0-0.1,0-0.3,0-0.4c0-0.4,0-0.9,0-1.3c0-0.1,0-0.3,0-0.4c0-0.5,0-1.1,0.1-1.6
						c0-0.1,0-0.1,0-0.2c0-0.5,0.1-1,0.1-1.4c0-0.1,0-0.3,0-0.4c0.1-0.6,0.1-1.1,0.2-1.7c0,0,0-0.1,0-0.1c0.1-0.6,0.2-1.1,0.3-1.7
						c0-0.1,0-0.2,0.1-0.3c0.1-0.6,0.3-1.3,0.5-1.9c0-0.1,0.1-0.3,0.1-0.4c0.1-0.2,0.1-0.5,0.2-0.7c0.1-0.2,0.1-0.3,0.2-0.5
						c0.1-0.2,0.2-0.5,0.3-0.7c0.1-0.1,0.1-0.3,0.2-0.4c0.2-0.5,0.4-1,0.6-1.5c0-0.1,0.1-0.2,0.1-0.3c0.2-0.5,0.5-1,0.7-1.5
						c2.9-5.4,6.4-7.7,10.5-7.9c0,0-2.2-0.4-3.6-0.4c-4.1-0.1-8.1,3.2-11,8.6c-0.3,0.5-0.5,1-0.7,1.5c0,0.1-0.1,0.2-0.1,0.3
						c-0.2,0.5-0.4,1-0.6,1.5c0,0,0,0.1,0,0.1c0,0.1-0.1,0.2-0.1,0.4c-0.1,0.2-0.2,0.5-0.3,0.7c-0.1,0.2-0.1,0.3-0.2,0.5
						c-0.1,0.2-0.1,0.5-0.2,0.7c0,0.1-0.1,0.2-0.1,0.2c0,0.1,0,0.1,0,0.2c-0.2,0.6-0.3,1.3-0.5,1.9c0,0,0,0.1,0,0.1
						c0,0.1,0,0.1,0,0.2c-0.1,0.6-0.2,1.1-0.3,1.7c0,0,0,0.1,0,0.1c0,0,0,0,0,0c-0.1,0.6-0.2,1.1-0.2,1.7c0,0.1,0,0.1,0,0.2
						c0,0.1,0,0.2,0,0.2c-0.1,0.5-0.1,1-0.1,1.4c0,0.1,0,0.1,0,0.2c0,0,0,0,0,0.1c0,0.5-0.1,1.1-0.1,1.6c0,0.1,0,0.1,0,0.2
						c0,0.1,0,0.2,0,0.3c0,0.4,0,0.9,0,1.3c0,0.1,0,0.2,0,0.3c0,0,0,0.1,0,0.1c0,0.5,0,1.1,0,1.6c0,0,0,0.1,0,0.1c0,0.1,0,0.1,0,0.2
						c0,0.5,0.1,0.9,0.1,1.4c0,0.1,0,0.2,0,0.3c0,0.1,0,0.1,0,0.2c0.1,0.6,0.1,1.2,0.2,1.7c0,0,0,0.1,0,0.1c0,0.1,0,0.1,0,0.2
						c0.1,0.6,0.2,1.2,0.3,1.8c0,0.1,0,0.1,0,0.2c0,0,0,0,0,0.1c0.1,0.7,0.3,1.5,0.5,2.2c0,0.1,0,0.1,0,0.2c0,0,0,0.1,0,0.1
						c0.1,0.4,0.2,0.9,0.3,1.3c0,0,0,0.1,0,0.1c0.1,0.5,0.3,0.9,0.4,1.3c0,0,0,0.1,0,0.1c0,0.1,0,0.1,0.1,0.2
						c0.2,0.6,0.4,1.1,0.6,1.7c0,0.1,0,0.1,0.1,0.2c0.2,0.6,0.5,1.1,0.7,1.7c0,0.1,0.1,0.2,0.1,0.3c0.3,0.5,0.5,1.1,0.8,1.6
						c0,0.1,0.1,0.2,0.1,0.3c0.3,0.5,0.6,1,0.9,1.5c0.3,0.4,0.5,0.8,0.8,1.1c0.1,0.1,0.2,0.2,0.2,0.3c0.2,0.3,0.4,0.5,0.6,0.8
						c0,0.1,0.1,0.1,0.1,0.2c0,0,0.1,0.1,0.1,0.1c0.2,0.2,0.4,0.5,0.6,0.7c0.1,0.1,0.1,0.1,0.2,0.2c0.3,0.3,0.5,0.5,0.8,0.8
						c0,0,0,0,0,0c0.1,0.1,0.3,0.2,0.4,0.4c0.1,0.1,0.1,0.1,0.2,0.2c0.2,0.2,0.5,0.4,0.7,0.5l0,0c0,0,0,0,0,0
						c0.2,0.2,0.4,0.3,0.7,0.4c0.1,0,0.1,0.1,0.2,0.1c0.1,0.1,0.2,0.1,0.3,0.2c0,0,0.1,0,0.1,0c0.3,0.2,0.7,0.4,1,0.5c0,0,0,0,0,0
						c0,0,0.1,0,0.1,0c0.3,0.1,0.6,0.2,0.8,0.3c0.1,0,0.1,0,0.1,0.1c0,0,0.1,0,0.1,0c0.3,0.1,0.6,0.2,1,0.2l0,0c0,0,0,0,0,0
						c0.3,0.1,0.6,0.1,0.9,0.1c0,0,0.1,0,0.1,0c0.1,0,0.1,0,0.2,0c0.3,0,0.5,0,0.8,0c0,0,0.1,0,0.1,0c0,0,0.1,0,0.1,0l1.6-0.1
						c0,0-0.5-0.4-0.9-0.5C381.1,165.5,381,165.5,380.9,165.4z"/>
				</g>
			</g>
		</g>
	</g>
	<path class="st27" d="M523,360.8c0,0,8.6-44,23.6-21.4"/>
	<g>
		<path class="st8" d="M526.5,354.6c0,0,0,1.1-5.3,0.9c0,0-25-4.8-30.6,17.2c-5.9,23.2,24.4,53.6,29.8,48.5l34.5-62.2
			C554.9,359,539.9,347.5,526.5,354.6z"/>
	</g>
	<g>
		<path class="st4" d="M541,357.3c-18.5,6.9-22,29.7-24.4,52c-0.4,3.3-6.7,14.1,5,12.3c0,0,9.8-2.3,15.6-10.7
			c2.6-3.8,8.5-8,16.1-9.1c6-0.8,20.2-0.5,21.4-11.6C575.4,383.8,562.2,349.5,541,357.3z"/>
	</g>
	<g>
		<path class="st6" d="M554.7,372.3c-3.2,0.7-3.3,10.6-2.4,13c2.3,6.2,6.2,9.9,9.8,8.5c1.7-0.6,3.8-1.9,3.9-6.2
			C566,385.6,559.4,371.3,554.7,372.3z"/>
	</g>
	<g>
		<path class="st6" d="M538.1,378.4c-3.3-0.3-9.3,7.8-10.1,10.6c-2,7.1-1.1,12.6,2.5,13.9l0.2,0.1l0.1,0c3.8,1,7.8-3.2,9.9-10.6
			C542.9,385.3,541.4,378.7,538.1,378.4z"/>
	</g>
</g>
<g>
	<path class="st5" d="M524.5,610.9L488,680.5c-4.8,3-11-0.5-11-6.1V507.6l38.6-22.9c0,0,29.4,19.4,29.4,31.3l-0.3,104.2
		C544.9,632.3,524.5,644.6,524.5,610.9z"/>
	<g>
		<path class="st5" d="M494,534.8c10.4-3.1,17,5.9,17.1,17.4l0.5,117.9c0,11.5-7.7,25.1-17.2,30.2c-9.5,5.1-17.4-0.1-17.4-11.6
			l-0.5-122.9C476.4,554.3,481.6,538.6,494,534.8z"/>
	</g>
	<g>
		<path class="st5" d="M520.7,565.7c5.6-1.7,9.2,3.2,9.3,9.4l0.3,63.9c0,6.2-4.2,13.6-9.3,16.4c-5.2,2.8-9.4,0-9.4-6.3l-0.3-66.6
			C511.1,576.3,513.9,567.7,520.7,565.7z"/>
	</g>
</g>
<path class="st2" d="M498,632.2c-0.8,0-1.4-0.6-1.4-1.4v-88.4c0-0.8,0.6-1.4,1.4-1.4s1.4,0.6,1.4,1.4v88.4
	C499.4,631.6,498.8,632.2,498,632.2z"/>
<path class="st2" d="M520.1,566.4c-0.8,0-1.4-0.6-1.4-1.4v-31.6c0-0.8,0.6-1.4,1.4-1.4s1.4,0.6,1.4,1.4V565
	C521.5,565.8,520.9,566.4,520.1,566.4z"/>
<path class="st2" d="M520.1,635.8c-0.8,0-1.4-0.6-1.4-1.4v-45.2c0-0.8,0.6-1.4,1.4-1.4s1.4,0.6,1.4,1.4v45.2
	C521.5,635.1,520.9,635.8,520.1,635.8z"/>
<path class="st5" d="M469.9,525.7h1.7c3.1,0,5.5,2.5,5.5,5.6l-0.1,5.9h15.3l5.7-16.6l-2.1-7.7l-32.8-3.1l-2.5,7.2L469.9,525.7z"/>
<path class="st27" d="M460.6,390.8c0,0,18.2-45.2,35.6-18.7"/>
<g id="XMLID_519_">
	<polygon id="XMLID_522_" class="st28" points="598.5,212.9 610.5,235 635.5,235.7 623.6,213.7 	"/>
	<polygon id="XMLID_521_" class="st29" points="598.5,212.9 611.7,191.6 636.8,192.3 623.6,213.7 	"/>
	<polygon id="XMLID_520_" class="st30" points="635.5,235.7 648.7,214.4 636.8,192.3 623.6,213.7 	"/>
</g>
<g id="XMLID_515_">
	<polygon id="XMLID_518_" class="st28" points="189.5,385.1 181.5,407.2 196.5,425.2 204.6,403.2 	"/>
	<polygon id="XMLID_517_" class="st29" points="189.5,385.1 212.7,381.1 227.8,399.1 204.6,403.2 	"/>
	<polygon id="XMLID_516_" class="st30" points="196.5,425.2 219.7,421.2 227.8,399.1 204.6,403.2 	"/>
</g>
<g id="XMLID_511_">
	<polygon id="XMLID_514_" class="st28" points="649.5,336.8 657.2,351 673.3,351.5 665.6,337.2 	"/>
	<polygon id="XMLID_513_" class="st29" points="649.5,336.8 658,323 674.1,323.5 665.6,337.2 	"/>
	<polygon id="XMLID_512_" class="st30" points="673.3,351.5 681.8,337.7 674.1,323.5 665.6,337.2 	"/>
</g>
</svg>
