<?xml version="1.0" encoding="utf-8"?>
<!-- Generator: Adobe Illustrator 21.1.0, SVG Export Plug-In . SVG Version: 6.00 Build 0)  -->
<svg version="1.1" id="Слой_1" xmlns="http://www.w3.org/2000/svg" xmlns:xlink="http://www.w3.org/1999/xlink" x="0px" y="0px"
	 viewBox="0 0 900 712" style="enable-background:new 0 0 900 712;" xml:space="preserve">
<style type="text/css">
	.st0{fill:#FFDE00;}
	.st1{fill:#F3AB00;}
	.st2{fill:#B61BB6;}
	.st3{fill:#6C19D6;}
	.st4{fill:url(#SVGID_1_);}
	.st5{fill:url(#SVGID_2_);}
	.st6{fill:url(#SVGID_3_);}
	.st7{fill:url(#SVGID_4_);}
	.st8{fill:url(#SVGID_5_);}
	.st9{fill:url(#SVGID_6_);}
	.st10{fill:url(#SVGID_7_);}
	.st11{fill:url(#SVGID_8_);}
	.st12{fill:url(#SVGID_9_);}
	.st13{fill:url(#SVGID_10_);}
	.st14{fill:url(#SVGID_11_);}
	.st15{fill:#B37FFF;}
	.st16{fill:#FFFFFF;}
	.st17{fill:#DA44D0;}
	.st18{fill:url(#SVGID_12_);}
	.st19{fill:url(#SVGID_13_);}
	.st20{fill:#DEE3F3;}
	.st21{fill:#EBEDF7;}
	.st22{fill:#E7EAF6;}
	.st23{fill:#353436;}
	.st24{fill:#414042;}
	.st25{opacity:0.15;}
	.st26{fill:#EE8056;}
	.st27{opacity:0.5;}
	.st28{fill:#9DA9C4;}
	.st29{fill:#3B6CB3;}
	.st30{fill-rule:evenodd;clip-rule:evenodd;fill:#EE8056;}
	.st31{fill:#F1A901;}
	.st32{fill:#1E388D;}
	.st33{fill:#CBD3E6;}
	.st34{fill:#726487;}
</style>
<rect x="100" y="100.3" class="st0" width="700" height="511.3"/>
<path id="cloud_2_" class="st1" d="M627.4,502.4c-4.3-51.6,24.5-85.4,59.9-88.8c5.5-30.7,20-60.7,43.6-74.3
	c34.5-19.9,74.3-10.6,80.5,28.6c0.1,0.9,0,1.8,0,2.7c0,0,0,0,0,0c26.4-15.2,48.2-2.2,48.6,29.1s-20.6,69-47,84.3L637.9,584.6
	c-22.1,12.7-43.2,0.5-46.5-22.5C588.3,541,598.9,512.5,627.4,502.4z"/>
<path id="cloud_85_" class="st2" d="M406.1,219.3c27.1-15.7,50.6-9.9,62.1,11.7c3.8-3.2,7.8-6,11.9-8.3c23.9-13.8,44.3-8,52,12.2
	c3.6-3.4,7.4-6.3,11.4-8.6c20.9-12.1,37.8-2.3,37.8,21.8s-16.9,53.4-37.8,65.5l-137.4,79.3c-38.5,22.2-69.6,1.3-69.6-46.6
	C336.5,298.3,367.7,241.5,406.1,219.3z"/>
<path class="st3" d="M232,193.8c0,0,40.4-102.7,108.1-66.6s5,261.3,88.9,307.1s167.9-87.7,213.7-76.4c58,14.3,79.4,52.9,111.1,208.9
	v53.2l-61.2,48.7l-71.8,20.9L539,668.5l-152-96.2l-30.5,37.9L282,583L90.4,468.2l-20.3-38.6l20.5-24.8l88.8-59.4l25.5-43.9
	l21.9-55.2L232,193.8z"/>
<g>
	<linearGradient id="SVGID_1_" gradientUnits="userSpaceOnUse" x1="364.6617" y1="338.4345" x2="361.6864" y2="515.464">
		<stop  offset="0.2291" style="stop-color:#FFDE00"/>
		<stop  offset="1" style="stop-color:#FFDE00;stop-opacity:0"/>
	</linearGradient>
	<path class="st4" d="M367.4,407.2c-0.7-1.1-1.2-2.2-1.9-3.5c-0.4-0.8-0.7-1.5-1.1-2.2l-0.2-0.4c-0.3-0.6-0.7-1.3-1.1-2l-6.6-12.9
		v195.6c0,3.1,2.6,5.7,5.7,5.7c3.1,0,5.7-2.6,5.7-5.7V408L367.4,407.2z"/>
</g>
<g>
	<linearGradient id="SVGID_2_" gradientUnits="userSpaceOnUse" x1="293.798" y1="32.6601" x2="291.0667" y2="333.1082">
		<stop  offset="0.2291" style="stop-color:#FFDE00"/>
		<stop  offset="1" style="stop-color:#FFDE00;stop-opacity:0"/>
	</linearGradient>
	<path class="st5" d="M286,349.5c0,3.5,2.9,6.4,6.4,6.4h0c3.5,0,6.4-2.9,6.4-6.4V22.8H286V349.5z"/>
	<linearGradient id="SVGID_3_" gradientUnits="userSpaceOnUse" x1="247.235" y1="3.3648" x2="244.2598" y2="330.6462">
		<stop  offset="0.2291" style="stop-color:#FFDE00"/>
		<stop  offset="1" style="stop-color:#FFDE00;stop-opacity:0"/>
	</linearGradient>
	<path class="st6" d="M238.8,322.9c0,3.5,2.9,6.4,6.4,6.4h0c3.5,0,6.4-2.9,6.4-6.4V129.3h-12.9V322.9z"/>
	<linearGradient id="SVGID_4_" gradientUnits="userSpaceOnUse" x1="341.692" y1="34.83" x2="338.9564" y2="335.7477">
		<stop  offset="0.2291" style="stop-color:#FFDE00"/>
		<stop  offset="1" style="stop-color:#FFDE00;stop-opacity:0"/>
	</linearGradient>
	<path class="st7" d="M333.7,377.7c0,3.5,2.9,6.4,6.4,6.4c3.5,0,6.4-2.9,6.4-6.4V44.6h-12.9V377.7z"/>
	<linearGradient id="SVGID_5_" gradientUnits="userSpaceOnUse" x1="436.4122" y1="328.1144" x2="433.4368" y2="450.1072">
		<stop  offset="0.2789" style="stop-color:#F3AB00"/>
		<stop  offset="0.8168" style="stop-color:#F3AB00;stop-opacity:0"/>
	</linearGradient>
	<path class="st8" d="M429,434.2c0,3.5,2.9,6.4,6.4,6.4h0c3.5,0,6.4-2.9,6.4-6.4v-134H429V434.2z"/>
	<linearGradient id="SVGID_6_" gradientUnits="userSpaceOnUse" x1="485.0243" y1="329.3001" x2="482.0489" y2="451.2929">
		<stop  offset="0.2789" style="stop-color:#F3AB00"/>
		<stop  offset="0.8168" style="stop-color:#F3AB00;stop-opacity:0"/>
	</linearGradient>
	<path class="st9" d="M476.7,462.5c0,3.5,2.9,6.4,6.4,6.4h0c3.5,0,6.4-2.9,6.4-6.4V350h-12.9V462.5z"/>
	<linearGradient id="SVGID_7_" gradientUnits="userSpaceOnUse" x1="533.2556" y1="330.4764" x2="530.2801" y2="452.4693">
		<stop  offset="0.2789" style="stop-color:#F3AB00"/>
		<stop  offset="0.8168" style="stop-color:#F3AB00;stop-opacity:0"/>
	</linearGradient>
	<path class="st10" d="M524.4,490.7c0,3.5,2.9,6.4,6.4,6.4c3.5,0,6.4-2.9,6.4-6.4V368.9h-12.9V490.7z"/>
	<linearGradient id="SVGID_8_" gradientUnits="userSpaceOnUse" x1="580.9716" y1="331.6403" x2="577.9962" y2="453.6331">
		<stop  offset="0.2789" style="stop-color:#F3AB00"/>
		<stop  offset="0.8168" style="stop-color:#F3AB00;stop-opacity:0"/>
	</linearGradient>
	<path class="st11" d="M572.1,518.9c0,3.5,2.9,6.4,6.4,6.4h0c3.5,0,6.4-2.9,6.4-6.4V345.4h-12.9V518.9z"/>
	<linearGradient id="SVGID_9_" gradientUnits="userSpaceOnUse" x1="625.6931" y1="263.5818" x2="626.6849" y2="535.3382">
		<stop  offset="0.2789" style="stop-color:#F3AB00"/>
		<stop  offset="0.8168" style="stop-color:#F3AB00;stop-opacity:0"/>
	</linearGradient>
	<path class="st12" d="M619.8,547.2c0,3.5,2.9,6.4,6.4,6.4h0c3.5,0,6.4-2.9,6.4-6.4V261.4h-12.9V547.2z"/>
	<linearGradient id="SVGID_10_" gradientUnits="userSpaceOnUse" x1="673.2855" y1="263.4081" x2="674.2773" y2="535.1645">
		<stop  offset="0.2789" style="stop-color:#F3AB00"/>
		<stop  offset="0.8168" style="stop-color:#F3AB00;stop-opacity:0"/>
	</linearGradient>
	<path class="st13" d="M667.5,575.4c0,3.5,2.9,6.4,6.4,6.4h0c3.5,0,6.4-2.9,6.4-6.4V282.7h-12.9V575.4z"/>
	<linearGradient id="SVGID_11_" gradientUnits="userSpaceOnUse" x1="720.7897" y1="263.2348" x2="721.7816" y2="534.9911">
		<stop  offset="0.2789" style="stop-color:#F3AB00"/>
		<stop  offset="0.8168" style="stop-color:#F3AB00;stop-opacity:0"/>
	</linearGradient>
	<path class="st14" d="M715.1,355v248.6c0,3.5,2.9,6.4,6.4,6.4h0c3.5,0,6.4-2.9,6.4-6.4V355H715.1z"/>
</g>
<path class="st15" d="M767.1,555.6l-28.1-176.5c-7.2-45.2-38.8-93.3-75.2-114.3l-1.2-0.7c-19.4-11.2-38.3-13.8-53.3-7.2
	c-13.2,5.8-22.2,17.8-26,34.9l-7.3,32.1c-3.8,16.6-12.2,28.2-24.5,33.6c-14.4,6.3-33.2,3.5-52.8-7.9l-1.4-0.8
	c-41-23.7-75.9-77.8-82.8-128.6l-16-87.4c-5.9-43.4-35.8-89.7-71-110.1l-1.2-0.7c-19-10.9-37.4-13.2-52-6.3
	c-12.8,6-21.4,18.7-24.2,35.6l-34.7,206.6c-7.5,44.3-34.1,83.2-72.9,106.6l-56.4,32.1C71.7,405,63,419.8,63,436.4
	c-0.1,16.6,8.5,31.5,22.9,39.8l214.6,123.9c28.1,16.2,54.7,18.6,75.1,6.8c7.9-4.6,14.5-11,19.5-19.3l162.9,94
	c19,11,40.7,16.8,62.9,16.8c21.7,0,43.1-5.6,61.8-16.2l32-18.1C752.9,642.6,774,599,767.1,555.6z M344.3,539.1
	c-51.7-29.8-93.7-102.7-93.7-162.4c0-39.1,12.1-39.1,17.2-39.1c10.8,0,27.1,6.5,51.2,20.4c27.3,15.8,44.2,49.5,53.6,74.9
	c11.9,32.3,18.8,70.8,18.8,105.6c0,9-1.1,16.8-3.7,26.1L344.3,539.1z M251.8,325c-12.3,7.1-18.2,24-18.2,51.7
	c0,64.9,45.7,144.1,101.9,176.5l45.4,26.3c-7.6,12-19.2,18.3-33.7,18.3c-11.6,0-24.9-4.1-38.5-12L94,462
	c-9.2-5.3-14.7-14.9-14.7-25.5c0-10.7,5.6-20.2,14.9-25.5l56.4-32.1c44.1-25.1,73.6-68.3,81-118.4l34.7-206.6
	c2.7-16.3,12.3-25.7,26.2-25.7c7.7,0,16.6,2.8,25.7,8l1.2,0.7c30.7,17.7,57.8,59.9,63,98.1l16,87.4c7.5,55.4,45.7,114.5,90.8,140.5
	l1.4,0.8c15.3,8.9,30.3,13.3,44.4,13.3c28.7,0,50-18.5,57-49.6l7.3-32.1c3.8-16.6,13.6-25.7,27.8-25.7c8.2,0,17.7,3,27.4,8.6
	l1.2,0.7c32.5,18.7,60.7,61.9,67.2,102.7l28.1,176.5c5.9,36.7-12,73.6-44.3,91.9l-32,18.1c-16.4,9.2-35,14.1-53.8,14.1
	c-19.2,0-38.1-5.1-54.7-14.6l-164.1-95.1c3.3-10,5-21.4,5-34c-0.1-59.6-21.6-160.6-80.6-194.7C288.9,322.1,266.6,316.5,251.8,325z"
	/>
<path id="cloud_82_" class="st16" d="M658.2,538.1c-7.5-25.5-28.2-46-54.4-49.5c-6.4-32-29.1-65.7-55.8-80.8
	c-28.1-15.8-51.2-5.6-55.6,22.4c-0.1-0.1-0.2-0.1-0.3-0.2c-19.9-11.2-35.8-1.8-35.6,20.9c-15.4-3.7-26.5,6.2-26.3,25.5
	c0.2,23.3,16.9,51.4,37.2,62.8l114,64.2C608.4,623.8,679.5,611.1,658.2,538.1z"/>
<path id="cloud_83_" class="st17" d="M86.5,460.7c-5-59.4,28.3-98.3,69-102.3c6.3-35.4,23-69.9,50.2-85.6
	c39.7-22.9,85.6-12.3,92.7,32.9c0.2,1,0,2.1,0,3.2c0,0,0,0,0.1,0c30.4-17.6,55.5-2.6,56,33.5c0.5,36-23.7,79.5-54.1,97L98.6,555.4
	C73.2,570,48.9,555.9,45,529.5C41.5,505.1,53.7,472.4,86.5,460.7z"/>
<linearGradient id="SVGID_12_" gradientUnits="userSpaceOnUse" x1="268.3907" y1="336.8165" x2="265.4154" y2="513.8459">
	<stop  offset="0.2291" style="stop-color:#FFDE00"/>
	<stop  offset="1" style="stop-color:#FFDE00;stop-opacity:0"/>
</linearGradient>
<path class="st18" d="M261.2,525.4c0,3.1,2.6,5.7,5.7,5.7c3.1,0,5.7-2.5,5.7-5.7V332.2h-11.4V525.4z"/>
<linearGradient id="SVGID_13_" gradientUnits="userSpaceOnUse" x1="316.4408" y1="337.624" x2="313.4655" y2="514.6535">
	<stop  offset="0.2291" style="stop-color:#FFDE00"/>
	<stop  offset="1" style="stop-color:#FFDE00;stop-opacity:0"/>
</linearGradient>
<path class="st19" d="M316.1,350l-0.3-0.2l-0.7-0.3c-0.1,0-0.2-0.1-0.3-0.1l-0.9-0.6h-5v204.8c0,3.1,2.6,5.7,5.7,5.7
	c3.1,0,5.7-2.6,5.7-5.7V352.5l-1.7-1C317.7,351,316.8,350.5,316.1,350z"/>
<g id="XMLID_519_">
	<polygon id="XMLID_522_" class="st20" points="660.9,187.3 672.7,209.2 697.6,209.9 685.8,188 	"/>
	<polygon id="XMLID_521_" class="st21" points="660.9,187.3 674,166.1 698.8,166.8 685.8,188 	"/>
	<polygon id="XMLID_520_" class="st22" points="697.6,209.9 710.6,188.7 698.8,166.8 685.8,188 	"/>
</g>
<g id="XMLID_515_">
	<polygon id="XMLID_518_" class="st20" points="149.3,213.6 142.8,231.4 155,246 161.5,228.2 	"/>
	<polygon id="XMLID_517_" class="st21" points="149.3,213.6 168,210.4 180.2,224.9 161.5,228.2 	"/>
	<polygon id="XMLID_516_" class="st22" points="155,246 173.7,242.8 180.2,224.9 161.5,228.2 	"/>
</g>
<g id="XMLID_511_">
	<polygon id="XMLID_514_" class="st20" points="624.2,404 631.8,418.1 647.8,418.5 640.2,404.4 	"/>
	<polygon id="XMLID_513_" class="st21" points="624.2,404 632.6,390.3 648.6,390.8 640.2,404.4 	"/>
	<polygon id="XMLID_512_" class="st22" points="647.8,418.5 656.2,404.9 648.6,390.8 640.2,404.4 	"/>
</g>
<g id="XMLID_497_">
	<polygon id="XMLID_500_" class="st20" points="495.5,250.2 502.4,262.9 516.8,263.3 510,250.6 	"/>
	<polygon id="XMLID_499_" class="st21" points="495.5,250.2 503.1,237.9 517.5,238.3 510,250.6 	"/>
	<polygon id="XMLID_498_" class="st22" points="516.8,263.3 524.4,251 517.5,238.3 510,250.6 	"/>
</g>
<g id="XMLID_485_">
	<polygon id="XMLID_488_" class="st20" points="694.9,544.4 688.4,562 700.5,576.5 706.9,558.8 	"/>
	<polygon id="XMLID_487_" class="st21" points="694.9,544.4 713.4,541.2 725.5,555.6 706.9,558.8 	"/>
	<polygon id="XMLID_486_" class="st22" points="700.5,576.5 719,573.2 725.5,555.6 706.9,558.8 	"/>
</g>
<g id="XMLID_481_">
	<polygon id="XMLID_484_" class="st20" points="501.4,495 512.6,515.8 536.2,516.5 525,495.7 	"/>
	<polygon id="XMLID_483_" class="st21" points="501.4,495 513.8,474.9 537.4,475.6 525,495.7 	"/>
	<polygon id="XMLID_482_" class="st22" points="536.2,516.5 548.6,496.4 537.4,475.6 525,495.7 	"/>
</g>
<path class="st17" d="M122.2,370.4c-24.1,16.3-40,48.2-36.5,90.6c-32.8,11.6-45.1,44.4-41.5,68.8c3.8,26.4,28.2,40.5,53.6,25.9
	l24.4-14l73.1-58.7L122.2,370.4z"/>
<g id="XMLID_489_">
	<polygon id="XMLID_492_" class="st20" points="174.9,369.9 166.4,393.1 182.3,412 190.8,388.9 	"/>
	<polygon id="XMLID_491_" class="st21" points="174.9,369.9 199.3,365.7 215.1,384.6 190.8,388.9 	"/>
	<polygon id="XMLID_490_" class="st22" points="182.3,412 206.6,407.8 215.1,384.6 190.8,388.9 	"/>
</g>
<path id="cloud_1_" class="st17" d="M86.5,460.7c-5-59.4,28.3-98.3,69-102.3c6.3-35.4,23-69.9,50.2-85.6
	c11.6-6.7,23.7-10.5,35.3-11.5c13.9-1.1,3.3,21.5,13.5,28.8c10.3,7.4,8.8,7-13.5,35.3c-11.9,15.1-39.3,137.4-10.6,154.1L98.6,555.4
	C73.2,570,48.9,555.9,45,529.5C41.5,505.1,53.7,472.4,86.5,460.7z"/>
<path class="st15" d="M326.5,343.8c-37.6-21.7-59.9-27.3-74.7-18.8c-12.3,7.1-18.2,24-18.2,51.7c0,41.3,18.5,88.5,46.5,125.6h21.3
	c-30.2-35.4-50.8-83.7-50.8-125.6c0-39.1,12.1-39.1,17.2-39.1c10.8,0,27.1,6.5,51.2,20.4c27.3,15.8,44.2,49.5,53.6,74.9
	c7.9,21.4,13.5,45.5,16.5,69.4h15.8C397.9,444.2,374.7,371.6,326.5,343.8z"/>
<g>
	<g>
		<g>
			<g>
				<path d="M455.9,342.4l-1,1.4c-0.1,0.1-0.1,0.2-0.2,0.2l31.2-19.1c0.1-0.1,0.2-0.1,0.2-0.2l1-1.4L455.9,342.4z"/>
				<path class="st0" d="M489.6,314c0-0.2,0-0.5,0-0.7c0,0,0-0.1,0-0.1c0-0.1,0-0.2,0-0.4c0-0.2,0-0.3,0-0.5c0-0.1,0-0.1,0-0.2
					c0-0.1,0-0.3,0-0.4c0-0.1,0-0.2,0-0.4c0-0.1,0-0.2,0-0.3c0-0.1,0-0.3-0.1-0.4c0-0.1,0-0.2,0-0.2c0-0.2-0.1-0.3-0.1-0.5
					c0-0.1,0-0.3-0.1-0.4c0,0,0-0.1,0-0.1c0-0.3-0.1-0.6-0.2-0.8c0-0.1,0-0.1,0-0.2c0,0,0,0,0,0c-0.1-0.3-0.1-0.7-0.2-1.1
					c0,0,0-0.1,0-0.1c0-0.1-0.1-0.2-0.1-0.3c0-0.2-0.1-0.4-0.1-0.6c0-0.1,0-0.1-0.1-0.2c0-0.1-0.1-0.3-0.1-0.4
					c0-0.1-0.1-0.3-0.1-0.4c0-0.1-0.1-0.2-0.1-0.3c0-0.1-0.1-0.3-0.1-0.4c0-0.1-0.1-0.2-0.1-0.3c-0.1-0.2-0.1-0.4-0.2-0.6
					c0-0.1-0.1-0.2-0.1-0.4c0,0,0-0.1,0-0.1c-0.1-0.3-0.2-0.6-0.3-1c0,0,0,0,0-0.1c0-0.1-0.1-0.1-0.1-0.2c-0.1-0.2-0.2-0.5-0.2-0.7
					c0-0.1-0.1-0.2-0.1-0.3c0-0.1-0.1-0.2-0.1-0.3c0-0.1-0.1-0.2-0.1-0.2c-0.1-0.3-0.2-0.5-0.3-0.8c0,0,0-0.1,0-0.1
					c0-0.1,0-0.1-0.1-0.2c-0.1-0.2-0.1-0.3-0.2-0.5c-0.1-0.2-0.2-0.5-0.3-0.7c0,0,0,0,0,0c0,0,0,0,0,0c-0.1-0.2-0.2-0.4-0.3-0.6
					c-0.1-0.2-0.2-0.5-0.3-0.7c0,0,0,0,0,0c0,0,0,0,0,0c-0.1-0.2-0.2-0.4-0.3-0.6c-0.1-0.2-0.2-0.4-0.3-0.6c0,0,0,0,0-0.1
					c0,0,0,0,0-0.1c-0.1-0.2-0.2-0.3-0.3-0.5c-0.1-0.2-0.2-0.5-0.4-0.7c0,0,0,0,0-0.1c0,0,0-0.1-0.1-0.1c-0.1-0.2-0.2-0.4-0.3-0.6
					c-0.1-0.2-0.2-0.4-0.4-0.7c0,0,0,0,0,0c0,0,0,0,0,0c-0.2-0.4-0.5-0.8-0.7-1.2c0,0,0,0,0,0c-0.3-0.5-0.7-1.1-1-1.6
					c-0.1-0.1-0.2-0.3-0.3-0.4c-0.3-0.4-0.5-0.8-0.8-1.2c-0.1-0.1-0.1-0.2-0.2-0.3c-0.1-0.1-0.1-0.2-0.2-0.3
					c-0.1-0.1-0.2-0.2-0.2-0.3c-0.1-0.1-0.2-0.2-0.2-0.3c-0.2-0.3-0.4-0.5-0.6-0.8l-24.7-32.7l-31.2,19.1l24.7,32.7
					c0.3,0.4,0.5,0.7,0.8,1.1c0.1,0.1,0.2,0.2,0.2,0.3c0.1,0.2,0.3,0.4,0.4,0.5c0.3,0.4,0.6,0.8,0.8,1.2c0.1,0.1,0.2,0.3,0.3,0.4
					c0.3,0.5,0.7,1.1,1,1.6c0.3,0.4,0.5,0.8,0.7,1.2c0,0,0,0,0,0c0.2,0.4,0.5,0.8,0.7,1.2c0,0,0,0.1,0.1,0.1
					c0.2,0.4,0.4,0.8,0.7,1.3c0,0,0,0,0,0.1c0.2,0.4,0.4,0.9,0.6,1.3c0,0,0,0,0,0c0.2,0.4,0.4,0.9,0.6,1.3c0,0,0,0,0,0
					c0.2,0.4,0.4,0.8,0.5,1.2c0,0.1,0,0.1,0.1,0.2c0.2,0.4,0.3,0.8,0.5,1.2c0,0.1,0.1,0.2,0.1,0.3c0.1,0.3,0.3,0.7,0.4,1
					c0,0.1,0.1,0.1,0.1,0.2c0.1,0.4,0.3,0.8,0.4,1.2c0,0.1,0.1,0.2,0.1,0.4c0.1,0.3,0.2,0.6,0.3,0.8c0,0.1,0.1,0.3,0.1,0.4
					c0.1,0.3,0.1,0.5,0.2,0.8c0,0.1,0.1,0.3,0.1,0.4c0.1,0.3,0.1,0.6,0.2,0.8c0,0.1,0.1,0.2,0.1,0.3c0.1,0.4,0.2,0.8,0.2,1.2
					c0,0.1,0,0.1,0,0.2c0.1,0.3,0.1,0.7,0.2,1c0,0.1,0,0.3,0.1,0.4c0,0.3,0.1,0.5,0.1,0.8c0,0.1,0,0.3,0.1,0.4
					c0,0.2,0.1,0.5,0.1,0.7c0,0.1,0,0.3,0,0.4c0,0.2,0,0.5,0,0.7c0,0.1,0,0.3,0,0.4c0,0.3,0,0.6,0,0.8c0,0.1,0,0.2,0,0.2
					c0,0.4,0,0.7,0,1c0,0.1,0,0.2,0,0.3c0,0.3,0,0.5-0.1,0.8c0,0.2,0,0.3-0.1,0.5c0,0.2,0,0.3-0.1,0.5c0,0.2-0.1,0.4-0.1,0.7
					c0,0.1,0,0.2-0.1,0.4c-0.1,0.3-0.2,0.7-0.2,1c0,0.1,0,0.1-0.1,0.2c-0.1,0.3-0.2,0.6-0.3,0.9c-0.1,0.1-0.1,0.3-0.2,0.4
					c0,0.1-0.1,0.2-0.1,0.3c-0.1,0.2-0.2,0.3-0.2,0.5c0,0.1-0.1,0.2-0.1,0.2c-0.1,0.2-0.2,0.3-0.3,0.5c0,0.1-0.1,0.2-0.1,0.2
					c-0.1,0.2-0.3,0.5-0.5,0.7c0,0,0,0,0,0l0,0l0,0l31.2-19.1c0.2-0.2,0.3-0.4,0.5-0.7c0-0.1,0.1-0.2,0.1-0.2
					c0.1-0.1,0.2-0.3,0.2-0.4c0,0,0,0,0-0.1c0-0.1,0.1-0.2,0.1-0.2c0.1-0.2,0.2-0.3,0.2-0.5c0-0.1,0.1-0.2,0.1-0.3
					c0-0.1,0.1-0.2,0.1-0.3c0,0,0-0.1,0-0.2c0.1-0.3,0.2-0.6,0.3-0.9c0,0,0-0.1,0-0.1c0,0,0,0,0,0c0.1-0.3,0.2-0.7,0.2-1
					c0,0,0,0,0,0c0-0.1,0-0.2,0.1-0.3c0-0.2,0.1-0.4,0.1-0.7c0,0,0,0,0-0.1c0-0.1,0-0.3,0.1-0.5c0-0.2,0-0.3,0.1-0.5c0,0,0,0,0-0.1
					c0-0.2,0-0.5,0-0.7c0-0.1,0-0.2,0-0.3c0,0,0,0,0,0c0-0.3,0-0.7,0-1c0,0,0,0,0,0C489.6,314.2,489.6,314.1,489.6,314z"/>
				<g>
					<g>
						<path d="M412.8,285.4l43.1,57l-1,1.4c-0.4,0.6-1.3,0.4-2.2-0.4c-0.2-0.2-0.5-0.5-0.7-0.7l-41.2-54.6L412.8,285.4z"/>
					</g>
					<g>
						<path class="st1" d="M422.7,272.4l24.7,32.7c10.1,13.4,13.9,30.1,8.5,37.3l-43.1-57L422.7,272.4z"/>
					</g>
				</g>
			</g>
			<g>
				<path d="M455.9,259.6c-1.1-5.4-2.3-9.3-3.7-10.7c-1.9-1.9-3.7-2.2-6.1-1.1c-1.6,0.7-3.4,1.4-5.3,2.3c-3,1.5-8.1,3.1-9,4.7
					c-2.1,3.7,0.2,8.2,2.2,13.7l-7.2,4.4l11.2,14.9l0,0l10.4,13.7l0.6,0.8l0.2-0.1l20.8-12.7l5.7-3.5L455.9,259.6z"/>
				<path class="st23" d="M459.6,281.8c-4.5-3.6-12.7,0.7-12.4,2.3c0.3,1.6,1.7,5.9,2.9,7.5c0.7,0.9,4.8,2.8,8.9,4.6l11-6.7
					C465.1,285.7,459.6,281.8,459.6,281.8z"/>
				<path class="st24" d="M450.6,285.5c-4.5-3.6-12.7,0.7-12.4,2.3c0,0,0,0.1,0,0.2l10.2,13.5l0,0c0.3,0.2,0.5,0.4,0.8,0.6l0,0
					l10.3-6.3C455.5,291.1,450.6,285.5,450.6,285.5z"/>
				<g>
					<path class="st16" d="M452.2,248.9c-1.9-1.9-3.7-2.2-6.1-1.1c-1.6,0.7-3.4,1.4-5.3,2.3c-3,1.5-8.1,3.1-9,4.7
						c-2.8,5.1,2.4,11.5,4.1,20.1l2.1,12.9c0.2,1.2-0.7,3.2,7.1,2.5c2.6-0.2,15.7-5.6,15.1-8.4c-0.5-2.5-1.6-6.9-2.4-11.8
						C456.1,259.7,454.4,251.1,452.2,248.9z"/>
				</g>
				<path class="st25" d="M458.3,268.5c-0.3-0.6-0.4-0.9-0.5-1.1c-0.4-0.6-9.6-10.3-10.9-11.4s2-9.6,4.5-7.9
					c0.1,0.1,0.3,0.3,0.5,0.5c1.4,2.7,4.7,9.6,5.7,15.4C457.9,265.7,458.1,267.2,458.3,268.5z"/>
				<path class="st16" d="M451.3,248.1c1.9,1.3,11.6,14.8,12.3,15.8c0.6,1,4.1,9.9,5.2,12.4c0.9,2-4.9,5.5-6.2,3.1
					c-1.7-3.1-4.3-11.3-4.9-12c-0.4-0.6-9.6-10.2-10.9-11.4C445.6,254.9,448.8,246.4,451.3,248.1z"/>
			</g>
		</g>
		<path class="st26" d="M447.7,289.7l4.3,2.7c0.4,0.2,0.5,0.7,0.2,1.1l0,0c-0.2,0.3-0.6,0.4-1,0.2l-2.4-1.3c0,0-2.1,2.4-3.3-0.9
			C444.3,288.2,447.7,289.7,447.7,289.7z"/>
		<path class="st26" d="M463.2,279l1.9,5.7c0.2,0.4,0.6,0.6,1,0.4l0,0c0.4-0.2,0.5-0.5,0.4-0.9l-0.8-2.7c0,0,2.8-1.5-0.2-3.4
			C463.3,276.6,463.2,279,463.2,279z"/>
		<path class="st16" d="M447.3,302.7c-0.3,0-0.5-0.1-0.7-0.4l-2.9-4.8c-0.2-0.4-0.1-0.8,0.3-1.1l28.6-17.5c0.2-0.1,0.4-0.1,0.6-0.1
			c0.2,0.1,0.4,0.2,0.5,0.4l2.9,4.8c0.2,0.4,0.1,0.8-0.3,1.1c-0.4,0.2-0.8,0.1-1.1-0.3l-2.5-4.2l-27.3,16.7l2.5,4.2
			c0.2,0.4,0.1,0.8-0.3,1.1C447.6,302.7,447.4,302.7,447.3,302.7z"/>
		<path class="st25" d="M430.8,259.5c-0.1,2.3-0.7,17-0.2,19.2c0.5,2.2,10.6,12.2,12.3,14.1c1,1.1,6.2,0.2,6.9-1.8
			c0.1-0.2-1.8-1.7-1.8-1.9c0.1-0.5,0-0.9-0.3-1.3c-2.3-2.7-9.5-10.3-9.9-10.9c-0.4-0.7,1.2-11.8,1.1-13.5
			C438.8,261.7,431,256.4,430.8,259.5z"/>
		<path class="st16" d="M431,257.7c-0.1,2.3-2.6,18.8-2.1,21c0.5,2.2,10.6,12.2,12.3,14.1c1.3,1.4,6.6-2.8,4.8-5
			c-2.3-2.7-8.9-10.1-9.3-10.8c-0.4-0.7,2.7-15.4,2.6-17.1S431.2,254.7,431,257.7z"/>
		<path class="st26" d="M446.3,288.9c0.1,0.2,0.2,0.1,0.2,0.1s3.2,1.3,3.6,2.2c0.5,0.8,1.1,2.2,1.1,3.7c0,1-4.2,3.5-5,2.9
			c-0.8-0.6-0.4-1-1.4-2.2c-1-1.3-2.7-2.6-3.1-3.1C440.8,291.3,444.6,286.8,446.3,288.9z"/>
		<path class="st26" d="M468.3,276.9c0.1,0.1,0.4,0.4,0.4,0.4s3.4,2,3.6,2.9c0.2,0.9,0.1,1.6-0.2,2.4c-0.3,0.9-3.9,2.7-4.9,2.8
			c-0.4,0-0.7-0.6-1.2-2.2c-0.3-1-1.5-1.6-2.2-2.6c-0.2-0.4-0.5-1-0.6-1.3C462.6,277.6,466.8,275.3,468.3,276.9z"/>
	</g>
	<g>
		<g>
			<g>
				<path class="st26" d="M438.5,247.5c0.2,0.9,0.3,2.9-0.1,3.7c-0.4,0.9,3.4,3,6.9,1.3c2.3-1.1,0.4-5.1-2.2-6.2
					c0,0-2.3-1.2-3.4-0.5C439.8,245.8,438.3,246.6,438.5,247.5z"/>
			</g>
		</g>
		<g class="st27">
			<g>
				<path class="st26" d="M438.5,247.5c0.2,0.9,0.3,2.9-0.1,3.7c-0.4,0.9,3.4,3,6.9,1.3c2.3-1.1,0.4-5.1-2.2-6.2
					c0,0-2.3-1.2-3.4-0.5C439.8,245.8,438.3,246.6,438.5,247.5z"/>
			</g>
		</g>
		<g>
			<g>
				<path class="st26" d="M446.3,231.8c1,0.5,1.8,1.4,1.9,2.6l0.6,9.2c0.1,3.5-0.6,6.3-3.7,6.7c0,0-8.4,0.5-10.7-6.1l-1.2-3.5
					c-2.3-7.4,1.9-10.4,6.3-10.7C442.8,229.8,446.3,231.8,446.3,231.8z"/>
			</g>
			<path class="st3" d="M448.4,237.8c0,0-0.9,1.7-9.4,3.4l0.7,4.9c0,0.1-0.1,0.1-0.2,0.1l-0.7-1.1c-0.2-0.3-0.4-0.5-0.6-0.7
				c-0.4-0.3-1-0.4-1.5,0.5c-0.6,1.3,1.8,3.5,2.7,4.2c0.1,0,0,0.1-0.1,0.1c-1.7-0.6-5.1-2.6-6.8-9c-2-7.6,3.6-10.3,5.9-10.5
				c7.2-0.4,7.3,0.6,8.7-1.1C448.8,229.7,449.2,236.9,448.4,237.8z"/>
		</g>
	</g>
</g>
<polygon points="266.8,535.7 296.8,551.8 274.5,562.9 254.5,551.5 256,539.6 263.3,535.7 "/>
<path d="M155,520.2v2c0,1.2,0.6,2.4,1.7,3.1l52.6,32.7c0.9,0.6,2.1,0.6,3,0l30.4-19.4c0.7-0.5,1.2-1.3,1.2-2.2v-9.3l-28.2,7.5
	l-29.7-7l-14.3-7.4H155z"/>
<g>
	<path class="st15" d="M243.9,533.1c1.7-13.7-3.6-28.5-15.7-35.3l-2.6-1.5l-36.9-20.7c-1.7-1-3.1-0.4-3.4,1.4l-1.6,11.3l3.7,0.7
		l-0.9,6.6L243.9,533.1z"/>
</g>
<polygon class="st15" points="186,475.5 243.9,533.1 210.9,554.4 155,494.4 "/>
<g>
	<polygon points="162.8,494.9 196.5,513.4 220.6,497.5 188.2,479.3 	"/>
</g>
<g>
	<path class="st3" d="M210.9,554.4L210.9,554.4c0.8-15.7-6.5-34-20.2-41.7c-0.1-0.1-0.2-0.1-0.3-0.2l-32.8-18.1
		c-1.7-1-3.1-0.4-3.4,1.4l0.7,24.3L210.9,554.4z"/>
</g>
<path class="st23" d="M195.1,489.9c-5.9-2.7-5.6,5.9-5.3,7.5c0.3,1.6,1.7,5.9,2.9,7.5c0.7,0.9,5.2,3.1,9.2,4.9l8.8-5.8
	C207,499.7,199.9,492.1,195.1,489.9z"/>
<path class="st24" d="M191.7,493.3c-4.5-3.6-12.7-3.6-13.8-2.4c-3.6,3.8-3.6,7.3-3.6,10.3l22.2,12.2l7.5-4.9
	C199.9,503.7,191.7,493.3,191.7,493.3z"/>
<path class="st26" d="M200.8,485.3c0,0,6.7,1.3,8.1,0.4c1.5-0.9-3.4,4.8-3.4,4.8l-5.1,2.4l-2.6-1.2l-1.7-4L200.8,485.3z"/>
<g>
	<g>
		<g>
			<g>
				<g>
					<g>
						<g>
							<g>
								<g>
									<g>
										<path class="st28" d="M189.4,463.4c0.7-0.6,1.5-0.9,2.4-1c2.2-0.1,4,1.6,4,3.8c0.2,7.2,0.2,7.2,0.5,8.8
											c0.6,3.3,2,6.8,4.4,10.3c1.2,1.8,0.7,4.2-1.1,5.4c-1.8,1.2-4.2,0.7-5.4-1.1c-3-4.4-4.9-8.9-5.6-13.4
											c-0.4-2.1-0.4-2.3-0.6-9.8C188,465.3,188.6,464.2,189.4,463.4z"/>
									</g>
								</g>
							</g>
						</g>
					</g>
				</g>
			</g>
		</g>
	</g>
</g>
<g>
	<g>
		<g>
			<g>
				<g>
					<g>
						<g>
							<g>
								<g>
									<g>
										<g>
											<path class="st20" d="M175.1,471.6l1.3,4.7l1.9,14.3c0.3,1,0.9,1.8,1.7,2.2c2.3,1.1,5.3,5.7,11.8,3
												c1-0.4,2.4,0.4,2.6-0.8l5-16.4l0-0.2c0.3-1.7,0.1-3.4-0.7-4.8l-2.4-4.6v-2.5c0-2.9-2.6-5-5.1-4.2l-0.9,0.3l-1.4,0.5
												l-6.3,2.2l-1.8,0.6l-3.6,1.2C175.5,467.8,174.6,469.7,175.1,471.6z"/>
										</g>
									</g>
								</g>
							</g>
						</g>
					</g>
				</g>
			</g>
		</g>
		<g>
			<g>
				<g>
					<g>
						<g>
							<g>
								<g>
									<g>
										<g>
											<path class="st16" d="M175.1,471.6l1.3,4.7c0.6,0.8,1.3,1.6,1.9,2.3c1.3,1.7,2.7,3.3,4.6,4.2c3.1,1.4,6.6,0.3,9.7-1.1
												c1.9-0.8,3.8-1.7,5.7-2.6c0.4-0.2,0.8-0.4,1.1-0.6l0-0.2c0.3-1.7,0.1-3.4-0.7-4.8l-2.4-4.6v-2.5c0-2.9-2.6-5-5.1-4.2
												l-0.9,0.3c0,0-1.3,0.5-1.4,0.5C185.4,464.4,173.6,466.1,175.1,471.6z"/>
										</g>
									</g>
								</g>
							</g>
						</g>
					</g>
				</g>
			</g>
		</g>
	</g>
</g>
<g>
	<g>
		<g>
			<g>
				<g>
					<g>
						<g>
							<g>
								<g>
									<g>
										<g>
											<path class="st16" d="M175.2,495.7c1.6-0.4,2.8-1.6,3.2-3.3l4.4-20.1c0.5-2.3-1-4.6-3.3-5.1c-2.3-0.5-4.6,1-5.1,3.3
												l-4.4,20.1c-0.5,2.3,1,4.6,3.3,5.1C173.9,495.8,174.6,495.8,175.2,495.7z"/>
										</g>
									</g>
								</g>
							</g>
						</g>
					</g>
				</g>
			</g>
		</g>
	</g>
	<g>
		<g>
			<g>
				<g>
					<g>
						<g>
							<g>
								<g>
									<g>
										<g>
											<g>
												<path class="st26" d="M196.9,497.1c1.8-0.6,2.9-2.5,2.3-4.4c-0.6-1.8-1.3-0.3-3.1,0.2c-13.3,4.1-17.9-2.8-18-2.8
													c-0.9-1.7-3-2.4-4.7-1.6c-1.7,0.9-2.4,3-1.6,4.7C172.4,494.3,177.5,503.2,196.9,497.1z"/>
											</g>
										</g>
									</g>
								</g>
							</g>
						</g>
					</g>
				</g>
			</g>
		</g>
		<g>
			<g>
				<g>
					<g>
						<g>
							<g>
								<g>
									<g>
										<g>
											<g>
												<path class="st26" d="M195.9,491.9L195.9,491.9c-0.1,0.7,0.5,1.4,1.3,1.5l3.3,0.3c0.8,0.1,1.4-0.5,1.5-1.2l0,0
													c0.1-0.7-0.5-1.4-1.3-1.5l-3.3-0.3C196.7,490.6,196,491.2,195.9,491.9z"/>
											</g>
										</g>
									</g>
								</g>
							</g>
						</g>
					</g>
				</g>
			</g>
		</g>
	</g>
</g>
<g>
	<g>
		<g>
			<g>
				<g>
					<g>
						<g>
							<g>
								<g>
									<g>
										<path class="st3" d="M183.6,445.3c-1.1-1.2-2.3-0.9-2.7-0.3c-0.9-1.3-2.7-1.8-4.2-1.6c-3.3,0.4-6,3.3-6.9,6.5
											c-0.4,1.4-0.5,2.8-0.5,4.2c-1.3,0.7-2.7,1.3-3.9,2.2c-1.8,1.4-3.1,3.8-2.1,5.9c0.2,0.5,0.6,1,0.8,1.6
											c0.4,1.3-0.5,2.6-1.5,3.5c-1,0.9-2.2,1.7-2.7,3c-0.7,1.6,0,3.6,1.4,4.4c2.3,1.3,5.1-0.2,7-2c0.2-0.2,0.4-0.4,0.6-0.6
											c1.7-1.7,3.5-3.4,5.8-3.6c0.6,0,1.2,0,1.8-0.1c1.7-0.4,2.6-2.2,2.7-3.9c0.1-1.7-0.5-3.3-0.8-5c-0.3-1.7-0.4-3.5,0.5-4.9
											c0.1-0.2,0.2-0.3,0.4-0.4c1.2-1.4,3.4-2,4.5-3.6C184.8,448.9,184.7,446.7,183.6,445.3z"/>
									</g>
								</g>
							</g>
						</g>
					</g>
				</g>
			</g>
		</g>
	</g>
	<g>
		<g>
			<g>
				<g>
					<g>
						<g>
							<g>
								<g>
									<g>
										<g>
											<path class="st29" d="M183.1,457.3C183.2,457.3,183.2,457.3,183.1,457.3c0,0,0-0.1,0-0.1
												C183.2,457.2,183.2,457.2,183.1,457.3z"/>
										</g>
									</g>
								</g>
							</g>
						</g>
					</g>
				</g>
			</g>
		</g>
		<g>
			<g>
				<g>
					<g>
						<g>
							<g>
								<g>
									<g>
										<g>
											<g>
												<g>
													<g>
														<g>
															<g>
																<g>
																	<path class="st26" d="M189.3,458.1v6.9c0,0,0,0.1,0,0.1c0,0.4-0.1,0.8-0.2,1.1c-0.5,1.3-1.7,2.2-3.2,2.2
																		c-1.9,0-3.4-1.5-3.4-3.4v-6.9c0-0.7,0.2-1.4,0.6-1.9c0.4-0.6,0.9-1,1.6-1.3c0.4-0.2,0.8-0.2,1.3-0.2
																		c0.9,0,1.8,0.4,2.4,1C188.9,456.3,189.3,457.1,189.3,458.1z"/>
																</g>
															</g>
														</g>
													</g>
												</g>
											</g>
										</g>
									</g>
								</g>
							</g>
						</g>
					</g>
				</g>
				<g>
					<g>
						<g>
							<g>
								<g>
									<g>
										<g>
											<g>
												<g>
													<g>
														<g>
															<g>
																<g>
																	<path class="st26" d="M189.3,458.1v6.9c0,0,0,0.1,0,0.1c0,0.4-0.1,0.8-0.2,1.1c-3.2-2-7-17.2-8.3-19.2l1.6,11.1
																		c0-0.7,0.2-1.4,0.6-1.9c0.4-0.6,0.9-1,1.6-1.3c0.4-0.2,0.8-0.2,1.3-0.2c0.9,0,1.8,0.4,2.4,1
																		C188.9,456.3,189.3,457.1,189.3,458.1z"/>
																</g>
															</g>
														</g>
													</g>
												</g>
											</g>
										</g>
									</g>
								</g>
							</g>
						</g>
					</g>
				</g>
			</g>
			<g>
				<g>
					<g>
						<g>
							<g>
								<g>
									<g>
										<g>
											<g>
												<path class="st26" d="M191.8,447.1c0,0.7-0.6,1.2-1.3,1.5c-0.6,0.2-1.3,0.2-2,0.3c-2.2,0.3-4.3,1.4-5.8,3.1
													c-3.3,3.8,0.6,10.5,5.2,11.1c2.3,0.3,4.8-0.4,6.3-2.2c1.5-1.8,1.9-4.3,1.8-6.7c-0.1-2.4-0.4-4.7-0.1-7.1
													C194.6,447.1,193.2,447.1,191.8,447.1z"/>
											</g>
										</g>
									</g>
								</g>
							</g>
						</g>
					</g>
				</g>
			</g>
			<g>
				<g>
					<g>
						<g>
							<g>
								<g>
									<g>
										<g>
											<g>
												<path class="st3" d="M197.3,446.5c-0.8-0.6-1.9-0.9-2.9-1.3c-1.4-0.6-2.4-1.6-3.8-2.1c-1.6-0.4-3.3-0.6-4.9-0.2
													c-1.2,0.3-2.4,1-3.3,1.9c-0.9,0.9-1.1,2.1-2,3.1c-0.8,0.8-0.8,2.1-0.7,3.3c0.3,2.8,1.2,5.6,2.6,8.1
													c0.2-0.1,0.3-0.3,0.5-0.4c0.1-0.6,0-1.2-0.4-1.6c-0.2-0.3-0.5-0.5-0.7-0.7c-0.2-0.3-0.2-0.8-0.2-1.2
													c0-0.4,0.2-0.8,0.4-1.1c0.3-0.3,0.7-0.5,1.1-0.3c0.1,0,0.2,0.1,0.2,0.1c0.1,0.1,0.1,0.2,0.1,0.3c0,1.1-0.2,1.9,0.3,2.9
													c1.9-0.8,3.1-2.9,3.2-5c3.2,0,5.9-1.7,8.9-2l0.1,2c0.8-0.1,2-1.4,2.4-2.1c0.4-0.8,0.4-1.8-0.1-2.6
													C198,447,197.7,446.7,197.3,446.5z"/>
											</g>
										</g>
									</g>
								</g>
							</g>
						</g>
					</g>
				</g>
			</g>
			<g>
				<g>
					<g>
						<g>
							<g>
								<g>
									<g>
										<g>
											<g>
												<g>
													<path class="st26" d="M185,456.3c-0.2-0.1-0.3-0.2-0.5-0.4c-0.2-0.4-0.3-0.9-0.5-1.4c-0.3-0.9-1.1-1.8-1.8-1.5
														c-0.7,0.2-1.1,1.3-0.9,2.3c0.1,0.9,0.6,1.7,1.2,2.3c0.5,0.5,1.2,0.9,1.8,0.7c0.5-0.2,1-1,0.8-1.7
														C185.1,456.5,185.1,456.4,185,456.3z"/>
												</g>
											</g>
										</g>
									</g>
								</g>
							</g>
						</g>
					</g>
				</g>
			</g>
		</g>
	</g>
</g>
<g>
	<path class="st30" d="M211.8,483.8c0.7,0.2,1.5,0.3,2.4,0.4c-0.2,1.7-1.8,1.5-3.2,1.3L211.8,483.8z"/>
	<g>
		<g>
			<g>
				<g>
					<g>
						<g>
							<g>
								<g>
									<g>
										<g>
											<g>
												<g>
													<path class="st16" d="M189.3,501.6c-0.4-0.3-0.5-0.8-0.3-1.2c1.3-2.9,5-9.9,6.4-12.8c0.1-0.3,0.3-0.7,0.6-0.9
														c0,0,8.2-4.6,8.2-4.6l7.7-4.4c0.2-0.1,0.4-0.2,0.6-0.1l0,0l0,0c0.2,0,1.3,0.7,1.3,0.7l-0.6,0.6l-6.7,12.9
														c-0.1,0.4-0.3,0.7-0.6,0.9l-15.1,9.7C190.4,502.4,189.7,502,189.3,501.6z"/>
												</g>
											</g>
										</g>
									</g>
								</g>
							</g>
						</g>
					</g>
				</g>
			</g>
		</g>
		<g>
			<g>
				<g>
					<g>
						<g>
							<g>
								<path d="M213,478.2l-7.7,4.4c0,0-8.2,4.6-8.2,4.6c-0.3,0.2-0.4,0.5-0.6,0.9c-1.4,3-4.7,9.3-6.6,12.9c-0.4,0.7,0.5,1.4,1.2,1
									l15.9-9c0.3-0.2,0.5-0.5,0.6-0.9c1.7-3.6,4.7-9.6,6.5-13C214.5,478.4,213.7,477.8,213,478.2z"/>
							</g>
						</g>
					</g>
				</g>
			</g>
		</g>
	</g>
	<path class="st30" d="M210.7,485.2c1.2,0.6,1.2,0.1,1.1,0.9c-0.3,1.3-2.8,4.2-4.1,4.8c0,0-0.7,0.2-1-0.2c-0.3-0.3,0.1-0.5,0.5-1.3
		l2-3.4C209.8,485,210,484.8,210.7,485.2z"/>
</g>
<g>
	<path class="st16" d="M196.2,515c-0.2,0-0.5-0.1-0.6-0.3l-2.9-4.2c-0.2-0.3-0.1-0.7,0.2-1l24.6-17.5c0.2-0.1,0.3-0.2,0.5-0.1
		c0.2,0,0.3,0.1,0.5,0.3l2.9,4.2c0.2,0.3,0.1,0.8-0.2,1c-0.3,0.2-0.8,0.1-1-0.2l-2.5-3.6l-23.5,16.6l2.5,3.6c0.2,0.3,0.1,0.8-0.2,1
		C196.4,514.9,196.3,515,196.2,515z"/>
</g>
<g>
	<g>
		<path d="M228.8,561.3v2c0,1.2,0.6,2.4,1.7,3.1l52.6,32.7c0.9,0.6,2.1,0.6,3,0l30.4-19.4c0.7-0.5,1.2-1.3,1.2-2.2v-9.3l-28.2,7.5
			l-29.7-7l-14.3-7.4H228.8z"/>
		<g>
			<path class="st17" d="M317.7,574.1c1.7-13.7-3.6-28.5-15.7-35.3l-2.6-1.5l-36.9-20.7c-1.7-1-3.1-0.4-3.4,1.4l-1.6,11.3l3.7,0.7
				l-0.9,6.6L317.7,574.1z"/>
		</g>
		<polygon class="st17" points="259.8,516.5 317.7,574.1 284.7,595.5 228.8,535.4 		"/>
		<g>
			<polygon points="236.6,536 270.3,554.5 294.4,538.6 262.1,520.4 			"/>
		</g>
		<g>
			<path class="st2" d="M284.7,595.5L284.7,595.5c0.8-15.7-6.5-34-20.2-41.7c-0.1-0.1-0.2-0.1-0.3-0.2l-32.8-18.1
				c-1.7-1-3.1-0.4-3.4,1.4l0.7,24.3L284.7,595.5z"/>
		</g>
		<g>
			<path class="st23" d="M268.9,531c-5.9-2.7-5.6,5.9-5.3,7.5c0.3,1.6,1.7,5.9,2.9,7.5c0.7,0.9,5.2,3.1,9.2,4.9l8.8-5.8
				C280.8,540.7,273.7,533.2,268.9,531z"/>
			<path class="st24" d="M265.5,534.4c-4.5-3.6-12.7-3.6-13.8-2.4c-3.6,3.8-3.6,7.3-3.6,10.3l22.2,12.2l7.5-4.9
				C273.8,544.7,265.5,534.4,265.5,534.4z"/>
			<g>
				<g>
					<g>
						<g>
							<g>
								<g>
									<g>
										<g>
											<g>
												<g>
													<g>
														<path class="st31" d="M259.5,510.1c-0.2-0.6-0.3-1.3,0-2c0.5-1.6,2.1-2.8,3.7-2.2c5.2,1.8,5.3,2.1,6.6,2.4
															c2.6,0.5,5.5,0.4,8.6-0.4c1.6-0.4,3.3,0.6,3.6,2.3c0.4,1.6-0.8,3.7-2.4,4.1c-4,0.9-11.3,2.5-14.7,1.8
															c-1.6-0.3,1.9-2.2-3.6-4.1C260.4,511.6,259.8,510.9,259.5,510.1z"/>
													</g>
												</g>
											</g>
										</g>
									</g>
								</g>
							</g>
						</g>
					</g>
				</g>
				<g>
					<g>
						<g>
							<g>
								<g>
									<g>
										<g>
											<g>
												<g>
													<path class="st26" d="M278.5,511.7c-0.5-1.1,0-3,1.1-3.6c4.2-2.6,7.8-6.1,10.4-10.3c0.6-1,2-1.3,3-0.7
														c1,0.6,0.8,1.7,0.1,2.7c-3,4.7-6.7,10-11.4,13C280.7,513.5,279.2,513.2,278.5,511.7z"/>
												</g>
											</g>
										</g>
									</g>
								</g>
							</g>
						</g>
					</g>
				</g>
			</g>
			<g>
				<g>
					<g>
						<g>
							<g>
								<g>
									<path d="M246.8,505.2c-0.2-0.4,0.9,0.8,1,1c0.3,0.1,1.6,1,1.2,0.8c2.9,1.3,5.7,1.3,8.6,0.9c0,0,0.1,0,0.1,0
										c4.8-0.7,8.5-4.7,9-9.6c0-0.3,0-0.6,0.1-0.9c0.1-1.5-0.1-3-0.7-4.4c-1.7-3.8-6.5-5.7-10.1-6.4c-2.7-0.5-5.4,0.4-7.2,2.4
										c-2.8,3.2-2.2,7.9-2.1,11.7c0,1.3-0.1,2.3-0.5,3.2C246.3,504.4,246.5,504.8,246.8,505.2z"/>
								</g>
							</g>
						</g>
					</g>
				</g>
				<g>
					<g>
						<g>
							<g>
								<g>
									<path class="st32" d="M248.8,494.9l0,1.4c0,0,0-0.1,0-0.1C248.8,495.8,248.8,495.4,248.8,494.9z"/>
								</g>
							</g>
						</g>
					</g>
				</g>
			</g>
			<g>
				<g>
					<g>
						<g>
							<g>
								<path class="st31" d="M246.4,516.8l1.9,4.2l4.1,13c0.4,0.9,1.1,1.5,2,1.8c2.3,0.7,6.4,1.7,12-1.9c0.9-0.6,2.4-1.7,2.5-2.8
									l1.3-11.6l0-0.2c0-1.6-0.5-3.1-1.4-4.4l-3-3.9l-1.4,0.8c-0.5-2.7-2.2-7.3-4.5-6.2l-0.8,0.4l-1.2,0.7l-5.5,3l-1.6,0.9
									l-3.1,1.7C246.2,513.2,245.7,515.2,246.4,516.8z"/>
							</g>
						</g>
					</g>
				</g>
			</g>
			<g>
				<g>
					<g>
						<g>
							<g>
								<path class="st0" d="M246.4,516.8l1.9,4.2c0.7,0.6,1.4,1.2,2.1,1.9c1.5,1.3,3.1,2.7,4.9,3.2c3.1,0.8,6.2-0.8,8.9-2.6
									c1.7-1.1,3.3-2.2,4.9-3.3c0.3-0.2,0.7-0.5,1-0.7l0-0.2c0-1.6-0.5-3.1-1.4-4.4c0,0-2-2.8-2.5-3.9c-0.2-0.5-0.9-2.2-0.9-2.2
									c-0.8-2.8-3.2-4.2-5.5-3.1l-0.8,0.4l-1.2,0.7l-5.5,3l-1.6,0.9l-3.1,1.7C246.2,513.2,245.7,515.2,246.4,516.8z"/>
							</g>
						</g>
					</g>
				</g>
			</g>
			<g>
				<g>
					<g>
						<g>
							<g>
								<path class="st26" d="M250.8,510.6c1.1,1.2,2.4,2.2,3.8,3c1,0.6,2.1,1.2,3.3,1.4c1.2,0.2,2.5-0.1,3.3-1.1
									c0.6-0.7,0.8-1.8,0.7-2.8c-0.1-1-0.5-1.9-1-2.7c-0.5-0.9-1.1-1.7-1.8-2.5l-1.2,0.7l-5.5,3L250.8,510.6z"/>
							</g>
						</g>
					</g>
				</g>
			</g>
			<g>
				<g>
					<g>
						<g>
							<g>
								<path class="st33" d="M271.8,517.4l0,0.2c0,0,0,0,0.1,0C271.8,517.5,271.8,517.5,271.8,517.4z"/>
							</g>
						</g>
					</g>
				</g>
			</g>
			<g>
				<g>
					<g>
						<g>
							<g>
								<path d="M252.7,488.7c0.5,0,1.1,0,1.4-0.4c0.4-0.5,0-1.2-0.4-1.7c-0.4-0.5-0.9-1-0.8-1.7c0.1-0.5,0.7-0.8,1.2-0.9
									c1.2-0.4,2.5-0.3,3.7,0.2c1.9,0.8,3.1,2.6,4.1,4.4c0.1,0.2,0.2,0.5,0.1,0.7c-0.1,0.1-0.2,0.2-0.4,0.2
									c-2.5,0.8-5.3,0.7-7.6-0.3L252.7,488.7z"/>
							</g>
						</g>
					</g>
				</g>
			</g>
			<g>
				<g>
					<g>
						<g>
							<g>
								<path d="M264.1,494.5c0.8,4.6-2.1,8.9-6.4,9.7c-1.7,0.3-3.4,0-4.9-0.8c-2.2-1.2-3.9-3.4-4.4-6.2c-0.1-0.6-0.1-1.2-0.1-1.8
									c0-1,0.2-1.9,0.5-2.7c0.5-1.4,1.4-2.6,2.5-3.5c1-0.8,2.2-1.4,3.6-1.7c0.2,0,0.3-0.1,0.5-0.1c1.1-0.1,2.2,0,3.2,0.3
									C261.3,488.7,263.5,491.2,264.1,494.5z"/>
							</g>
						</g>
					</g>
				</g>
			</g>
			<g>
				<g>
					<g>
						<g>
							<polygon class="st26" points="259.7,501.7 259.6,502.5 258.9,508.4 258.8,509.4 258,509.7 251.7,511.2 251.9,510.2 
								252.7,504.7 252.9,503.5 253.4,500.6 							"/>
						</g>
					</g>
				</g>
			</g>
			<g>
				<g>
					<g>
						<g>
							<path class="st26" d="M259.7,501.7l-0.1,0.8l-0.7,5.9c-2.2-1.5-4.2-3.2-6-4.9l0.5-2.9L259.7,501.7z"/>
						</g>
					</g>
				</g>
			</g>
			<g>
				<g>
					<g>
						<g>
							<g>
								<path class="st26" d="M264.6,495c0.7,4.3-2,8.4-6.2,9.1c-1.7,0.3-3.3,0-4.7-0.7c-2.1-1.1-3.7-3.2-4.2-5.8
									c-0.7-4.3,2-8.4,6.2-9.1c0.2,0,0.3,0,0.5-0.1C260.2,488,263.9,490.8,264.6,495z"/>
							</g>
						</g>
					</g>
				</g>
			</g>
			<g>
				<g>
					<g>
						<g>
							<g>
								<path d="M251.3,494.4c2.1-0.8,3.7-2.2,4.3-4.8c0.1-0.5,0.1-1-0.1-1.4c-0.8-1.2-4.1,0.9-3.9,2.2l-0.2-1.4
									c-1.9,1.5-3.1,3.8-3.2,6.2C249.2,495.1,250.3,494.8,251.3,494.4z"/>
							</g>
						</g>
					</g>
				</g>
			</g>
			<g>
				<g>
					<g>
						<g>
							<g>
								
									<ellipse transform="matrix(0.9853 -0.1708 0.1708 0.9853 -81.1782 49.9839)" class="st26" cx="249.9" cy="496.8" rx="2.4" ry="2.4"/>
							</g>
						</g>
					</g>
				</g>
			</g>
			<g>
				<g>
					<g>
						<g>
							<g>
								<path class="st16" d="M260,498.1c1.6,0.2,3-0.9,3.4-2.5c0.1-0.3-0.1-0.6-0.4-0.7l-5.5-0.7c-0.3,0-0.5,0.2-0.5,0.5
									C257.1,496.4,258.4,497.9,260,498.1z"/>
							</g>
						</g>
					</g>
				</g>
			</g>
			<g>
				<path class="st26" d="M295.5,497.9c0.9-0.5,1.4-0.8,1.7-1.5c1.6-3-0.2-6.5-0.6-7.1c-0.2-0.2-0.7,0.8-1.2,1.1
					c-1.5,0.7-2.7,1.9-3.4,3.4c-0.7,1.5-0.9,3.2-0.5,4.8c0.2,0.8,0.8,1.8,1.7,1.2C293.9,499.3,294.8,498.3,295.5,497.9z"/>
				<path class="st26" d="M289.7,493.1c0-0.7-0.2-1.5-0.2-2.2c0-0.1,0-0.2,0.1-0.3c0.2-0.2,0.5-0.1,0.7,0c0.8,0.6,1.3,1.5,1.4,2.5
					c0,0.5,0,1-0.1,1.5c-0.1,0.7-0.2,1.4-0.3,2.1c-0.1,0.8-0.3,1.7-0.9,2.2c-0.1,0.1-0.1,0.1-0.2,0.1c-0.4,0.1,0.2,0-0.1-0.1
					c-0.7-0.4-1.1-1.9-1.2-2.5C288.7,495.1,289.7,494.3,289.7,493.1z"/>
				<g>
					<g>
						<g>
							<g>
								<g>
									<g>
										<g>
											<path d="M293.9,499.2l-3.4-2.2c-0.2-0.1-0.3-0.3-0.2-0.5l1.8-10.4c0.1-0.5,1.4-0.7,1.8-0.6l4.3,2
												c0.2,0.1,0.3,0.3,0.2,0.5l-2.5,10.2C295.5,499.2,294.2,499.4,293.9,499.2z"/>
										</g>
									</g>
								</g>
							</g>
						</g>
					</g>
					<g>
						<g>
							<g>
								<g>
									<g>
										<g>
											<path d="M293.9,499.2l-4.3-2c-0.2-0.1-0.3-0.3-0.2-0.5l2.5-10.2c0.1-0.5,0.8-0.9,1.2-0.8l4.3,2c0.2,0.1,0.3,0.3,0.2,0.5
												l-2.5,10.2C294.9,498.9,294.2,499.4,293.9,499.2z"/>
										</g>
									</g>
								</g>
							</g>
						</g>
					</g>
					<g>
						<g>
							<g>
								<g>
									<g>
										<g>
											<path class="st34" d="M291.5,496.8c0,0.3,0.3,0.5,0.6,0.5c0.3,0,0.4-0.2,0.4-0.5c0-0.3-0.3-0.5-0.6-0.5
												C291.7,496.4,291.5,496.6,291.5,496.8z"/>
										</g>
									</g>
								</g>
							</g>
						</g>
					</g>
				</g>
			</g>
		</g>
	</g>
	<g>
		<path class="st26" d="M269.6,544.3l4,2.2c0.3,0.2,0.5,0.6,0.3,1l0,0c-0.2,0.3-0.6,0.4-0.9,0.3l-2.3-1c0,0-1.7,2.3-3-0.6
			C266.4,543.2,269.6,544.3,269.6,544.3z"/>
		<path class="st16" d="M270,556.1c-0.2,0-0.5-0.1-0.6-0.3l-2.9-4.2c-0.2-0.3-0.1-0.7,0.2-1l24.6-17.5c0.2-0.1,0.3-0.2,0.5-0.1
			c0.2,0,0.3,0.1,0.5,0.3l2.9,4.2c0.2,0.3,0.1,0.8-0.2,1c-0.3,0.2-0.8,0.1-1-0.2l-2.5-3.6L268,551.4l2.5,3.6c0.2,0.3,0.1,0.8-0.2,1
			C270.2,556,270.1,556,270,556.1z"/>
		<path class="st26" d="M268.3,543.7c0.1,0.1,0.2,0.1,0.2,0.1s2.9,1,3.4,1.7c0.5,0.7,1.1,1.9,1.2,3.3c0.1,0.9-3.6,3.4-4.3,2.9
			c-0.7-0.5-0.4-0.8-1.4-1.9c-1-1.1-2.6-2.2-2.9-2.6C263.5,546.2,266.6,541.9,268.3,543.7z"/>
		<path class="st25" d="M246,514.7c0.3,2.3,2.4,16.8,3.3,18.9c0.9,2.1,12.6,10,14.7,11.6c1.2,0.9,2,1.5,2.4-0.6c0-0.2,0.8,0,1.7-1.4
			c0.3-0.4,0.4-2.3,0-2.6c-2.7-2.2-11.6-9.6-12.1-10.1c-0.5-0.6-1-11.8-1.4-13.5C254.2,515.3,245.5,511.6,246,514.7z"/>
		<path class="st0" d="M246.1,516c0.1,2.3,0.5,15.8,1.4,17.9c0.9,2.1,14.1,11.9,16.1,13.4c1.5,1.2,5.9-4,3.8-5.7
			c-2.7-2.2-12-10.1-12.5-10.7c-0.5-0.6-0.2-12.7-0.6-14.3C253.9,514.9,245.9,509.8,246.1,516z"/>
	</g>
</g>
<g id="XMLID_1_">
	<polygon id="XMLID_4_" class="st20" points="608.2,152.3 615.8,166.4 631.8,166.8 624.2,152.7 	"/>
	<polygon id="XMLID_3_" class="st21" points="608.2,152.3 616.6,138.6 632.6,139.1 624.2,152.7 	"/>
	<polygon id="XMLID_2_" class="st22" points="631.8,166.8 640.2,153.2 632.6,139.1 624.2,152.7 	"/>
</g>
</svg>
