<?xml version="1.0" encoding="utf-8"?>
<!-- Generator: Adobe Illustrator 21.1.0, SVG Export Plug-In . SVG Version: 6.00 Build 0)  -->
<svg version="1.1" id="Слой_1" xmlns="http://www.w3.org/2000/svg" xmlns:xlink="http://www.w3.org/1999/xlink" x="0px" y="0px"
	 viewBox="0 0 900 712" style="enable-background:new 0 0 900 712;" xml:space="preserve">
<style type="text/css">
	.st0{fill:#FDDC03;}
	.st1{fill:#6C19D6;}
	.st2{fill:#903CFD;}
	.st3{fill:#803BE9;}
	.st4{fill:#AD7FF7;}
	.st5{fill:#DA44D0;}
	.st6{opacity:0.4;fill:#DA44D0;}
	.st7{fill:#C7ACFA;}
	.st8{fill:#B17EFD;}
	.st9{fill:#DEE3F3;}
	.st10{fill:#EBEDF7;}
	.st11{fill:#E7EAF6;}
	.st12{fill:#FFFFFF;}
	.st13{fill:#B41CB4;}
	.st14{opacity:0.3;}
	.st15{fill:#42D1FD;}
	.st16{opacity:0.6;fill:#42D1FD;}
	.st17{fill:#F3AB00;}
	.st18{fill:#923CFF;}
</style>
<rect x="100" y="100" class="st0" width="700" height="512"/>
<g>
	<g>
		<path class="st1" d="M454.3,603.9c18,0,33.2-6.9,33.2-15.2v-25.5h-66.4v25.2C421.2,596.7,436.3,603.9,454.3,603.9z"/>
		<ellipse class="st2" cx="454.3" cy="563.2" rx="33.2" ry="16.2"/>
		<path class="st3" d="M454.3,635.1c18,0,33.2-6.9,33.2-15.2v-25.3c-6.1,6.2-18.5,12.3-33.2,12.3c-14.7,0-27.1-6-33.2-12.3v24.9
			C421.2,627.8,436.3,635.1,454.3,635.1z"/>
		<path class="st4" d="M454.3,639c-14.7,0-27.1-7-33.2-13.2v24.9c0,8.3,15.2,15.6,33.2,15.6c18,0,33.2-6.9,33.2-15.2v-25.3
			C481.4,632.1,469,639,454.3,639z"/>
		<ellipse class="st5" cx="480.1" cy="584.8" rx="1.5" ry="2.8"/>
		<ellipse class="st5" cx="480.1" cy="614.7" rx="1.5" ry="2.8"/>
		<ellipse class="st6" cx="480.1" cy="647.2" rx="1.5" ry="2.8"/>
		<path class="st7" d="M454.3,635.1c-15.4,0-28.8-5.3-32.3-12.1c-0.6,1-0.9,1.9-0.9,3v0.1c0,1.4,0.4,2.9,1.7,4.1
			c6.5,5.4,18,8.8,31.5,8.8c0,0,0,0,0,0c13.4,0,24.9-3.5,31.4-8.8c1.6-1.7,1.7-2.7,1.7-4.1c0-1-0.3-1.9-0.8-2.9
			C483.3,629.9,469.9,635.1,454.3,635.1z"/>
		<path class="st2" d="M454.3,603.9c-15.4,0-28.8-5.3-32.3-12.1c-0.6,1-0.9,1.9-0.9,3v0.1c0,1.4,0.4,2.9,1.7,4.1
			c6.5,5.4,18,8.8,31.5,8.8c0,0,0,0,0,0c13.4,0,24.9-3.5,31.4-8.8c1.6-1.7,1.7-2.7,1.7-4.1c0-1-0.3-1.9-0.8-2.9
			C483.3,598.7,469.9,603.9,454.3,603.9z"/>
	</g>
</g>
<path id="cloud_36_" class="st8" d="M800,326.8c7.4-89-42.3-147.3-103.3-153.2c-9.5-53-34.5-104.7-75.2-128.2
	C562,11,493.3,27,482.6,94.7c-0.2,1.6,0,3.2,0,4.7c0,0-0.1,0-0.1,0c-45.6-26.3-83.1-3.9-83.9,50.1c-0.8,54,35.5,119.1,81,145.4
	L782,468.6c38.1,22,74.5,0.9,80.3-38.7C867.6,393.3,849.2,344.2,800,326.8z"/>
<g id="XMLID_36_">
	<polygon id="XMLID_39_" class="st9" points="510.4,119.1 522.3,141.2 547.4,141.9 535.5,119.8 	"/>
	<polygon id="XMLID_38_" class="st10" points="510.4,119.1 523.6,97.7 548.7,98.5 535.5,119.8 	"/>
	<polygon id="XMLID_37_" class="st11" points="547.4,141.9 560.6,120.5 548.7,98.5 535.5,119.8 	"/>
</g>
<g id="XMLID_12_">
	<polygon id="XMLID_15_" class="st9" points="568.6,288.8 560.5,310.9 575.6,328.9 583.7,306.9 	"/>
	<polygon id="XMLID_14_" class="st10" points="568.6,288.8 591.8,284.8 606.8,302.8 583.7,306.9 	"/>
	<polygon id="XMLID_13_" class="st11" points="575.6,328.9 598.8,324.9 606.8,302.8 583.7,306.9 	"/>
</g>
<path class="st12" d="M664.4,268.2C664.4,268.2,664.4,268.2,664.4,268.2c-22.6-24.6-61.1-41.3-97.4-51.1
	c-98.6-26.6-230.4-17.4-304.8,28.2v204.5c51.2-28.8,123.6-40.7,186.5-40.7c63.6,0,122.3,11.5,166.1,30.4c2,0.9,3.9,1.7,5.9,2.6
	c29.3,13.6,51.3,30.6,62.4,49.8V339.6v-24.8v-8.4C681.9,293.9,675.9,281,664.4,268.2z"/>
<path id="cloud_38_" class="st1" d="M40.3,373.1c10.7-36.4,40.3-65.8,77.8-70.8c9.2-45.7,41.6-94,79.9-115.6
	c40.2-22.7,73.2-8.1,79.5,32.1c0.1-0.1,0.3-0.2,0.4-0.2c28.4-16,51.2-2.6,51,29.9c22-5.3,37.9,8.9,37.7,36.5
	c-0.3,33.3-24.1,73.6-53.2,89.9l-163.1,91.9C111.6,495.6,9.8,477.5,40.3,373.1z"/>
<g>
	<path class="st13" d="M573.1,457.9c0-0.1,0-0.3,0-0.5c0-0.2,0-0.4,0-0.6c0-0.1,0-0.2,0-0.3c0-0.2,0-0.3,0-0.5c0-0.1,0-0.3,0-0.4
		c0-0.2,0-0.3,0-0.5c0-0.2,0-0.3,0-0.5c0-0.1,0-0.2,0-0.3c0-0.2-0.1-0.5-0.1-0.7c0-0.2,0-0.3-0.1-0.5c0,0,0-0.1,0-0.1
		c-0.1-0.4-0.1-0.8-0.2-1.2c0,0,0,0,0-0.1c0,0,0,0,0,0c-0.1-0.4-0.1-0.9-0.2-1.3c0,0,0-0.1,0-0.1c0-0.1-0.1-0.3-0.1-0.4
		c0-0.2-0.1-0.5-0.1-0.7c0-0.1,0-0.2-0.1-0.3c0-0.2-0.1-0.4-0.1-0.5c0-0.2-0.1-0.3-0.1-0.5c0-0.2-0.1-0.3-0.1-0.5
		c0-0.2-0.1-0.3-0.1-0.5c0-0.1,0-0.2-0.1-0.3c-0.1-0.3-0.1-0.5-0.2-0.8c0-0.1-0.1-0.2-0.1-0.3c0,0,0-0.1,0-0.1
		c-0.1-0.4-0.2-0.8-0.3-1.2c0,0,0-0.1,0-0.1c0-0.1-0.1-0.2-0.1-0.4c-0.1-0.2-0.1-0.4-0.2-0.6c0-0.1-0.1-0.3-0.2-0.4
		c0-0.1-0.1-0.3-0.1-0.4c0-0.1-0.1-0.2-0.1-0.3c-0.1-0.3-0.2-0.7-0.4-1c0,0,0-0.1,0-0.1c0,0,0,0,0,0c-0.2-0.4-0.3-0.8-0.5-1.2
		c0-0.1,0-0.1-0.1-0.2c-0.1-0.2-0.1-0.3-0.2-0.5c-0.1-0.2-0.2-0.4-0.3-0.7c0-0.1-0.1-0.1-0.1-0.2c-0.2-0.5-0.4-0.9-0.6-1.4
		c0-0.1-0.1-0.2-0.1-0.3c0,0,0,0,0-0.1c-0.3-0.7-0.7-1.4-1-2c-0.1-0.2-0.2-0.3-0.3-0.5c-0.3-0.6-0.7-1.2-1-1.8
		c0-0.1-0.1-0.1-0.1-0.2c0,0,0,0,0-0.1c-0.3-0.6-0.7-1.2-1.1-1.7c0,0-0.1-0.1-0.1-0.1c-0.1-0.2-0.3-0.4-0.4-0.6
		c-0.1-0.2-0.3-0.4-0.4-0.6c0,0-0.1-0.1-0.1-0.1c-0.2-0.3-0.4-0.6-0.6-0.9c-0.1-0.1-0.2-0.2-0.2-0.3c0,0,0,0,0,0
		c-0.3-0.4-0.6-0.8-0.9-1.2c0,0-0.1-0.1-0.1-0.1c-0.3-0.3-0.5-0.7-0.8-1c-0.2-0.2-0.3-0.4-0.5-0.6c-0.1-0.1-0.2-0.2-0.3-0.3
		c-0.1-0.1-0.1-0.1-0.2-0.2c-0.3-0.4-0.7-0.8-1-1.1c-0.1-0.1-0.1-0.1-0.2-0.2c-0.1-0.1-0.2-0.2-0.3-0.3c-0.2-0.2-0.4-0.4-0.6-0.6
		c-0.2-0.2-0.4-0.4-0.6-0.6c-0.1-0.1-0.2-0.2-0.3-0.3c-0.1-0.1-0.1-0.1-0.2-0.2c-0.3-0.3-0.7-0.7-1-1c-0.1-0.1-0.2-0.1-0.2-0.2
		l-0.1-76.3l9-4.1c0.3-0.1,0.5-0.3,0.8-0.4c0.1,0,0.2-0.1,0.3-0.2c0.2-0.1,0.3-0.2,0.5-0.3c0.1-0.1,0.2-0.1,0.3-0.2
		c0.1-0.1,0.3-0.2,0.4-0.3c0.1-0.1,0.2-0.2,0.3-0.2c0.1-0.1,0.3-0.2,0.4-0.3c0.1-0.1,0.2-0.2,0.3-0.3c0.1-0.1,0.2-0.2,0.4-0.3
		c0.1-0.1,0.2-0.2,0.3-0.3c0.1-0.1,0.2-0.2,0.3-0.4c0.1-0.1,0.2-0.2,0.3-0.3c0.1-0.1,0.2-0.3,0.3-0.4c0.1-0.1,0.2-0.2,0.3-0.4
		c0.1-0.1,0.1-0.2,0.2-0.3c0,0,0-0.1,0.1-0.1c0.3-0.5,0.6-1,0.9-1.5c0,0,0-0.1,0.1-0.1c0,0,0-0.1,0.1-0.1c0.2-0.4,0.4-0.8,0.6-1.3
		c0,0,0,0,0,0c0-0.1,0-0.1,0.1-0.2c0.1-0.3,0.2-0.6,0.4-1c0-0.1,0-0.1,0.1-0.2c0-0.1,0-0.2,0.1-0.2c0.1-0.3,0.2-0.5,0.2-0.8
		c0-0.1,0.1-0.2,0.1-0.3c0-0.1,0-0.1,0-0.2c0.1-0.3,0.1-0.5,0.2-0.8c0-0.1,0.1-0.2,0.1-0.3c0,0,0-0.1,0-0.1c0-0.2,0.1-0.5,0.1-0.7
		c0-0.1,0.1-0.3,0.1-0.4c0,0,0,0,0-0.1c0-0.2,0.1-0.4,0.1-0.6c0-0.2,0.1-0.3,0.1-0.5c0,0,0,0,0-0.1c0-0.2,0-0.4,0.1-0.6
		c0-0.2,0-0.4,0.1-0.6c0,0,0-0.1,0-0.1c0-0.2,0-0.3,0-0.5c0-0.2,0-0.4,0-0.6c0,0,0-0.1,0-0.1c0-0.2,0-0.4,0-0.5c0-0.2,0-0.4,0-0.6
		c0-0.1,0-0.1,0-0.2c0-0.2,0-0.4,0-0.5c0-0.2,0-0.3,0-0.5c0-0.1,0-0.2,0-0.2c0-0.2,0-0.4,0-0.5c0-0.2,0-0.3,0-0.4c0-0.1,0-0.2,0-0.3
		c0-0.2,0-0.4,0-0.6c0-0.1,0-0.3,0-0.4c0-0.1,0-0.2,0-0.4c0-0.2,0-0.4,0-0.6c0-0.1,0-0.2,0-0.3c0-0.2,0-0.3-0.1-0.5
		c0-0.2,0-0.4-0.1-0.6c0-0.1,0-0.2,0-0.3c0-0.2-0.1-0.4-0.1-0.6c0-0.2-0.1-0.4-0.1-0.6c0-0.1,0-0.1,0-0.2c0-0.2-0.1-0.4-0.1-0.7
		c0-0.2-0.1-0.3-0.1-0.5c0,0,0-0.1,0-0.1c-0.1-0.3-0.1-0.6-0.2-0.9c0-0.1,0-0.2-0.1-0.3c0,0,0,0,0,0c-0.1-0.4-0.2-0.9-0.3-1.3
		c0,0,0,0,0-0.1c0-0.1-0.1-0.2-0.1-0.3c-0.1-0.3-0.1-0.6-0.2-0.8c0-0.1,0-0.1-0.1-0.2c0-0.2-0.1-0.3-0.1-0.5
		c-0.1-0.2-0.1-0.4-0.1-0.6c0-0.1-0.1-0.3-0.1-0.4c0-0.2-0.1-0.3-0.1-0.5c0-0.1-0.1-0.2-0.1-0.3c-0.1-0.2-0.1-0.5-0.2-0.7
		c0-0.1-0.1-0.2-0.1-0.3c0,0,0-0.1,0-0.1c-0.1-0.4-0.3-0.8-0.4-1.2c0-0.1,0-0.1-0.1-0.2c-0.1-0.3-0.2-0.6-0.3-0.9
		c-0.1-0.4-0.3-0.8-0.4-1.2c0,0,0-0.1,0-0.1c0-0.1-0.1-0.1-0.1-0.2c-0.1-0.4-0.3-0.7-0.4-1.1c-0.1-0.2-0.2-0.4-0.3-0.6
		c-0.1-0.2-0.2-0.5-0.3-0.7c-0.1-0.2-0.1-0.3-0.2-0.5c-0.1-0.2-0.2-0.3-0.3-0.5c-0.3-0.5-0.5-1.1-0.8-1.6c-0.1-0.3-0.3-0.5-0.4-0.8
		c-0.3-0.6-0.6-1.1-0.9-1.7c-0.1-0.2-0.2-0.3-0.3-0.5c0-0.1-0.1-0.1-0.1-0.2c-0.1-0.2-0.3-0.4-0.4-0.7c-0.2-0.3-0.4-0.6-0.5-0.9
		c-0.1-0.1-0.1-0.2-0.2-0.3c-0.1-0.2-0.2-0.3-0.3-0.5c-0.1-0.2-0.2-0.4-0.4-0.6c-0.2-0.3-0.4-0.5-0.5-0.8c-0.1-0.1-0.1-0.2-0.2-0.3
		c0,0-0.1-0.1-0.1-0.1c-0.3-0.4-0.6-0.8-0.9-1.2c-0.1-0.1-0.1-0.1-0.2-0.2c-0.1-0.1-0.2-0.2-0.3-0.4c-0.1-0.2-0.3-0.4-0.4-0.6
		c-0.2-0.2-0.3-0.4-0.5-0.6c-0.1-0.1-0.2-0.2-0.3-0.4c0-0.1-0.1-0.1-0.1-0.2c-0.3-0.4-0.7-0.8-1-1.1c0,0,0-0.1-0.1-0.1
		c-0.1-0.1-0.2-0.2-0.2-0.3c-0.2-0.3-0.5-0.5-0.7-0.8c-0.1-0.1-0.2-0.2-0.3-0.3c-0.1-0.1-0.3-0.3-0.4-0.4c-0.1-0.1-0.2-0.2-0.4-0.4
		c-0.2-0.2-0.4-0.4-0.7-0.6c-0.1-0.1-0.2-0.2-0.3-0.3c0,0-0.1-0.1-0.1-0.1c-0.3-0.3-0.7-0.6-1-0.9c-0.1,0-0.1-0.1-0.2-0.1
		c-0.1-0.1-0.2-0.2-0.3-0.2c-0.2-0.2-0.4-0.3-0.6-0.5c-0.2-0.1-0.4-0.3-0.5-0.4c-0.1-0.1-0.2-0.1-0.3-0.2c-0.1,0-0.1-0.1-0.2-0.1
		c-0.3-0.2-0.6-0.5-1-0.7c-0.1,0-0.1-0.1-0.2-0.1c-0.1-0.1-0.2-0.1-0.3-0.2c-0.2-0.1-0.3-0.2-0.5-0.3c-0.3-0.2-0.5-0.3-0.8-0.5
		c0,0-0.1,0-0.1-0.1c-0.3-0.2-0.6-0.3-0.9-0.5c-0.1,0-0.2-0.1-0.3-0.1c-0.1,0-0.2-0.1-0.3-0.1c-0.1-0.1-0.2-0.1-0.4-0.2
		c-0.3-0.1-0.6-0.3-0.9-0.4c0,0,0,0,0,0c0,0,0,0-0.1,0c-0.3-0.1-0.6-0.2-0.9-0.3c-0.1,0-0.3-0.1-0.4-0.1c-0.1,0-0.2-0.1-0.3-0.1
		c-0.1,0-0.2-0.1-0.3-0.1c-0.3-0.1-0.7-0.2-1-0.3c0,0,0,0,0,0c-0.1,0-0.1,0-0.1,0c-0.3-0.1-0.6-0.1-0.8-0.2c-0.1,0-0.2,0-0.3,0
		c-0.1,0-0.3,0-0.4-0.1c-0.1,0-0.2,0-0.4-0.1c-0.2,0-0.4,0-0.6,0c-0.1,0-0.3,0-0.4,0c0,0-0.1,0-0.1,0c-0.3,0-0.6,0-0.9,0
		c-0.1,0-0.2,0-0.3,0c0,0,0,0,0,0c-0.4,0-0.9,0.1-1.3,0.1c0,0,0,0,0,0c-0.5,0.1-0.9,0.2-1.3,0.3c-0.1,0-0.1,0-0.2,0.1
		c-0.1,0-0.1,0-0.2,0c-0.4,0.1-0.8,0.3-1.1,0.4l-2.6,1.2l-53.2-70.5c0.1-0.4,0.2-0.8,0.3-1.2c0-0.2,0.1-0.3,0.1-0.5
		c0-0.1,0-0.3,0.1-0.4c0-0.1,0-0.2,0.1-0.3c0.1-0.4,0.1-0.8,0.2-1.2c0,0,0-0.1,0-0.2c0-0.1,0-0.2,0-0.3c0-0.3,0.1-0.5,0.1-0.8
		c0-0.3,0.1-0.7,0.1-1c0,0,0-0.1,0-0.1c0,0,0,0,0-0.1c0-0.4,0-0.8,0-1.2c0-0.3,0-0.6,0-0.9c0-0.1,0-0.2,0-0.4c0-0.4,0-0.7,0-1.1
		c0,0,0-0.1,0-0.1c0,0,0,0,0,0c0-0.4,0-0.8-0.1-1.3c0-0.1,0-0.1,0-0.2c0-0.1,0-0.3,0-0.4c0-0.2,0-0.5-0.1-0.7c0-0.1,0-0.2,0-0.3
		c0-0.2,0-0.3-0.1-0.5c0-0.1,0-0.3,0-0.4c0-0.2-0.1-0.4-0.1-0.6c0-0.2,0-0.3-0.1-0.5c0-0.1,0-0.2,0-0.2c0-0.3-0.1-0.6-0.2-0.9
		c0-0.1,0-0.2-0.1-0.3c0,0,0,0,0-0.1c-0.1-0.4-0.2-0.9-0.3-1.3c0,0,0-0.1,0-0.1c0-0.1-0.1-0.2-0.1-0.4c-0.1-0.3-0.1-0.5-0.2-0.8
		c0-0.1,0-0.2-0.1-0.3c0-0.2-0.1-0.3-0.1-0.5c0-0.2-0.1-0.3-0.1-0.5c0-0.2-0.1-0.4-0.2-0.6c0-0.1-0.1-0.3-0.1-0.4
		c0-0.1,0-0.1-0.1-0.2c-0.1-0.4-0.2-0.8-0.3-1.2c0,0,0,0,0,0c0-0.1,0-0.1-0.1-0.2c-0.1-0.3-0.2-0.6-0.3-1c0-0.1-0.1-0.2-0.1-0.3
		c0-0.1-0.1-0.3-0.1-0.4c0-0.1-0.1-0.3-0.1-0.4c-0.1-0.2-0.2-0.5-0.3-0.7c0-0.1-0.1-0.2-0.1-0.3c0,0,0-0.1,0-0.1
		c-0.2-0.4-0.3-0.8-0.5-1.3c0,0,0,0,0-0.1c0-0.1-0.1-0.2-0.1-0.3c-0.1-0.3-0.3-0.6-0.4-0.9c0-0.1,0-0.1-0.1-0.2
		c-0.3-0.6-0.5-1.2-0.8-1.8c0,0,0,0,0,0c0,0,0,0,0,0c-0.3-0.7-0.7-1.4-1.1-2.1c-0.1-0.1-0.1-0.3-0.2-0.4c-0.4-0.7-0.7-1.4-1.1-2.1
		c0,0,0-0.1-0.1-0.1c-0.1-0.1-0.1-0.2-0.2-0.3c-0.2-0.4-0.5-0.8-0.7-1.2c-0.1-0.1-0.1-0.2-0.2-0.3c-0.1-0.1-0.1-0.2-0.2-0.3
		c-0.2-0.2-0.3-0.5-0.5-0.7c-0.1-0.1-0.2-0.3-0.2-0.4c-0.1-0.1-0.1-0.2-0.2-0.3c-0.1-0.2-0.3-0.4-0.4-0.6c-0.1-0.1-0.2-0.2-0.2-0.4
		c-0.1-0.1-0.2-0.3-0.3-0.4c-0.1-0.2-0.3-0.4-0.4-0.5c-0.1-0.1-0.1-0.2-0.2-0.3c-0.1-0.2-0.2-0.3-0.3-0.4c-0.1-0.2-0.3-0.3-0.4-0.5
		c-0.1-0.1-0.1-0.1-0.2-0.2c-0.1-0.2-0.3-0.3-0.4-0.5c-0.1-0.2-0.3-0.4-0.4-0.5c0,0-0.1-0.1-0.1-0.1c-0.1-0.2-0.3-0.3-0.4-0.5
		c-0.1-0.2-0.3-0.3-0.4-0.5c0,0-0.1-0.1-0.1-0.1c-0.2-0.2-0.3-0.3-0.5-0.5c-0.2-0.2-0.3-0.3-0.5-0.5c0,0-0.1-0.1-0.1-0.1
		c-0.2-0.2-0.4-0.4-0.5-0.5c-0.1-0.1-0.3-0.3-0.4-0.4c0,0,0,0-0.1-0.1c-0.2-0.2-0.5-0.4-0.7-0.6c-0.1-0.1-0.2-0.2-0.3-0.3
		c0,0,0,0,0,0c-0.3-0.3-0.7-0.6-1-0.9c0,0,0,0,0,0c-0.1-0.1-0.2-0.1-0.3-0.2c-0.2-0.2-0.5-0.4-0.7-0.6c0,0-0.1-0.1-0.1-0.1
		c-0.1-0.1-0.2-0.2-0.3-0.3c-0.2-0.1-0.3-0.3-0.5-0.4c-0.1-0.1-0.2-0.1-0.2-0.2c-0.1-0.1-0.3-0.2-0.4-0.3c-0.1-0.1-0.2-0.2-0.3-0.2
		c-0.1-0.1-0.2-0.2-0.4-0.2c-0.1-0.1-0.2-0.2-0.4-0.2c-0.1,0-0.1-0.1-0.2-0.1c-0.3-0.2-0.6-0.3-0.8-0.5c0,0-0.1,0-0.1-0.1
		c-0.2-0.1-0.4-0.2-0.6-0.3c-0.1-0.1-0.2-0.1-0.3-0.2c0,0,0,0,0,0c-0.3-0.2-0.6-0.3-0.9-0.5c0,0,0,0,0,0c0,0-0.1,0-0.1,0
		c-0.3-0.1-0.6-0.3-0.9-0.4c0,0,0,0,0,0c-0.1,0-0.2-0.1-0.4-0.1c-0.2-0.1-0.4-0.2-0.6-0.2c0,0,0,0,0,0c-0.2-0.1-0.3-0.1-0.5-0.2
		c-0.1,0-0.3-0.1-0.4-0.1c0,0,0,0,0,0c-0.2-0.1-0.4-0.1-0.6-0.2c-0.1,0-0.2-0.1-0.4-0.1c0,0,0,0,0,0c-0.3-0.1-0.7-0.1-1-0.2
		c0,0,0,0,0,0c0,0-0.1,0-0.1,0c-0.3,0-0.6-0.1-0.9-0.1c0,0-0.1,0-0.1,0c-0.1,0-0.2,0-0.2,0c-0.2,0-0.5,0-0.7,0c-0.1,0-0.1,0-0.2,0
		c-0.1,0-0.1,0-0.2,0c-0.3,0-0.6,0-0.9,0c-0.1,0-0.1,0-0.2,0c0,0,0,0-0.1,0c-0.4,0-0.8,0.1-1.2,0.1c0,0-0.1,0-0.1,0
		c-0.1,0-0.1,0-0.2,0c-0.1,0-0.3,0.1-0.4,0.1c-0.1,0-0.3,0.1-0.4,0.1c-0.1,0-0.3,0.1-0.4,0.1c-0.1,0-0.1,0-0.2,0.1c0,0-0.1,0-0.1,0
		c-0.3,0.1-0.7,0.2-1,0.4l-15,6.8c0.3-0.1,0.6-0.3,1-0.4c0.1,0,0.2-0.1,0.3-0.1c0.1,0,0.3-0.1,0.4-0.1c0.1,0,0.3-0.1,0.4-0.1
		c0.1,0,0.3-0.1,0.4-0.1c0.1,0,0.2,0,0.3-0.1c0.4-0.1,0.8-0.1,1.2-0.1c0.1,0,0.1,0,0.2,0c0.3,0,0.6,0,0.9,0c0.1,0,0.2,0,0.3,0
		c0.2,0,0.5,0,0.7,0c0.1,0,0.2,0,0.3,0c0.3,0,0.6,0.1,0.9,0.1c0,0,0.1,0,0.1,0c0.3,0.1,0.6,0.1,1,0.2c0.1,0,0.3,0.1,0.4,0.1
		c0.2,0.1,0.4,0.1,0.6,0.2c0.2,0,0.3,0.1,0.5,0.2c0.2,0.1,0.3,0.1,0.5,0.2c0.2,0.1,0.4,0.2,0.6,0.2c0.1,0,0.2,0.1,0.4,0.1
		c0.3,0.1,0.6,0.3,0.9,0.4c0,0,0.1,0,0.1,0c0.3,0.2,0.6,0.3,1,0.5c0.1,0.1,0.2,0.1,0.3,0.2c0.2,0.1,0.5,0.3,0.7,0.4
		c0.4,0.2,0.7,0.4,1,0.6c0.1,0.1,0.3,0.2,0.4,0.2c0.2,0.2,0.5,0.3,0.7,0.5c0.1,0.1,0.3,0.2,0.4,0.3c0.2,0.2,0.5,0.4,0.7,0.5
		c0.1,0.1,0.2,0.2,0.3,0.3c0.3,0.2,0.5,0.4,0.8,0.7c0.1,0.1,0.2,0.1,0.3,0.2c0.4,0.3,0.7,0.6,1.1,0.9c0.1,0.1,0.2,0.2,0.3,0.3
		c0.2,0.2,0.5,0.5,0.7,0.7c0.1,0.1,0.3,0.3,0.4,0.4c0.2,0.2,0.4,0.4,0.6,0.6c0.2,0.2,0.3,0.3,0.5,0.5c0.2,0.2,0.4,0.4,0.6,0.6
		c0.1,0.2,0.3,0.3,0.4,0.5c0.2,0.2,0.4,0.4,0.6,0.7c0.1,0.2,0.3,0.4,0.4,0.5c0.2,0.2,0.4,0.4,0.5,0.7c0.1,0.2,0.3,0.3,0.4,0.5
		c0.2,0.2,0.4,0.5,0.5,0.7c0.1,0.2,0.3,0.4,0.4,0.5c0.2,0.2,0.3,0.5,0.5,0.7c0.1,0.2,0.3,0.4,0.4,0.6c0.2,0.2,0.3,0.5,0.5,0.7
		c0.2,0.2,0.3,0.5,0.5,0.7c0.1,0.2,0.3,0.4,0.4,0.6c0.2,0.4,0.5,0.8,0.7,1.2c0.1,0.2,0.2,0.3,0.3,0.5c0.4,0.7,0.8,1.4,1.1,2.1
		c0.1,0.1,0.2,0.3,0.2,0.4c0.4,0.7,0.7,1.4,1.1,2.1c0,0,0,0,0,0c0.3,0.6,0.5,1.2,0.8,1.8c0.2,0.4,0.3,0.7,0.5,1.1
		c0,0.1,0.1,0.2,0.1,0.3c0.2,0.5,0.4,1,0.6,1.4c0,0.1,0.1,0.2,0.1,0.3c0.1,0.4,0.3,0.8,0.4,1.1c0,0.1,0.1,0.3,0.1,0.4
		c0.1,0.4,0.3,0.8,0.4,1.3c0,0.1,0,0.1,0.1,0.2c0.1,0.5,0.3,0.9,0.4,1.4c0,0.1,0.1,0.3,0.1,0.4c0.1,0.3,0.2,0.7,0.3,1
		c0,0.2,0.1,0.3,0.1,0.5c0.1,0.4,0.2,0.7,0.3,1.1c0,0.1,0.1,0.2,0.1,0.4c0.1,0.5,0.2,1,0.3,1.5c0,0.1,0,0.2,0.1,0.3
		c0.1,0.4,0.1,0.8,0.2,1.2c0,0.2,0,0.3,0.1,0.5c0,0.3,0.1,0.7,0.1,1c0,0.2,0,0.3,0.1,0.5c0,0.3,0.1,0.7,0.1,1c0,0.1,0,0.3,0,0.4
		c0,0.5,0.1,1,0.1,1.4c0,0,0,0.1,0,0.1c0,0.5,0,1,0,1.4c0,0.7,0,1.4-0.1,2.1c0,0,0,0.1,0,0.1c0,0.6-0.1,1.2-0.2,1.8
		c0,0.1,0,0.2,0,0.3c-0.1,0.6-0.2,1.1-0.3,1.7c0,0.1,0,0.3-0.1,0.4c-0.1,0.6-0.2,1.1-0.4,1.6c-0.1,0.5-0.3,1-0.4,1.4
		c-0.1,0.2-0.1,0.4-0.2,0.5c-0.1,0.3-0.2,0.5-0.3,0.8c-0.2,0.4-0.3,0.7-0.5,1.1c0,0.1-0.1,0.2-0.1,0.3c-0.1,0.1-0.1,0.2-0.2,0.4
		c-4.6,1-9.8,4.7-13.9,6.6c0.1,0,0.3,0.1,0.4,0.1c0.1,0,0.2,0,0.4,0.1c0.2,0,0.3,0.1,0.5,0.1c0.1,0,0.1,0,0.2,0c0.1,0,0.2,0,0.3,0
		c0.2,0,0.4,0,0.6,0c0.1,0,0.1,0,0.2,0c0.1,0,0.2,0,0.3,0c0.2,0,0.5,0,0.7,0c0.1,0,0.2,0,0.2,0c0.1,0,0.1,0,0.2,0
		c0.4,0,0.8-0.1,1.1-0.1c0,0,0.1,0,0.1,0c0,0,0,0,0,0c0.1,0,0.1,0,0.2,0c0.2,0,0.5-0.1,0.7-0.2c0.1,0,0.2-0.1,0.3-0.1
		c0.1,0,0.3-0.1,0.4-0.1c0,0,0.1,0,0.1,0c0.3-0.1,0.7-0.3,1-0.4c0,0,0,0,0,0l1.6-0.7l69.2,194.5l-7.1,3.2c-0.3,0.1-0.5,0.3-0.8,0.4
		l-132-76.2c0-0.2-0.1-0.4-0.1-0.5c-0.1-0.4-0.2-0.9-0.3-1.3c0-0.1,0-0.2-0.1-0.3c0-0.1,0-0.2-0.1-0.3c0-0.2-0.1-0.5-0.2-0.7
		c-0.1-0.4-0.2-0.8-0.3-1.3c0,0,0-0.1,0-0.1c0-0.1,0-0.1-0.1-0.2c-0.1-0.3-0.2-0.6-0.2-0.9c-0.1-0.4-0.2-0.8-0.3-1.2
		c0,0,0-0.1,0-0.1c0,0,0-0.1,0-0.1c-0.1-0.3-0.2-0.6-0.3-1c-0.1-0.4-0.2-0.7-0.4-1.1c0-0.1-0.1-0.2-0.1-0.3
		c-0.1-0.3-0.2-0.6-0.3-0.9c-0.2-0.4-0.3-0.8-0.5-1.2c0-0.1-0.1-0.1-0.1-0.2c0-0.1-0.1-0.2-0.1-0.3c-0.1-0.3-0.2-0.6-0.4-0.9
		c-0.1-0.3-0.2-0.5-0.4-0.8c-0.1-0.2-0.2-0.4-0.3-0.6c0-0.1-0.1-0.2-0.1-0.3c-0.2-0.4-0.4-0.8-0.5-1.1c-0.1-0.2-0.2-0.5-0.3-0.7
		c-0.3-0.7-0.7-1.4-1.1-2l69.8-116.4c-0.4-0.4-0.9-0.9-1.3-1.3c0,0,0,0,0,0c-0.4-0.4-0.8-0.8-1.2-1.3c-0.1-0.1-0.2-0.3-0.4-0.4
		c-0.3-0.3-0.6-0.6-0.8-1c-0.1-0.1-0.2-0.3-0.4-0.4c-0.3-0.4-0.6-0.8-1-1.2c0-0.1-0.1-0.1-0.1-0.2c-0.4-0.5-0.7-1-1-1.4
		c-0.1-0.1-0.2-0.3-0.3-0.4c-0.3-0.4-0.5-0.7-0.7-1.1c-0.1-0.2-0.2-0.3-0.3-0.5c-0.2-0.3-0.4-0.6-0.6-0.9c-0.2-0.3-0.4-0.6-0.5-0.9
		c-0.3-0.5-0.6-1-0.9-1.5c-1,0.5-2.2,1-3.3,1.5l-6.1,2.8c-0.8,0.3-1.5,0.7-2.2,1l-3.3,1.5c0.2,0.4,0.5,0.8,0.7,1.3
		c0.1,0.1,0.1,0.2,0.2,0.3c0.2,0.3,0.4,0.6,0.5,0.9c0.1,0.2,0.2,0.4,0.4,0.6c0.1,0.1,0.1,0.2,0.2,0.3c0.1,0.2,0.2,0.3,0.3,0.5
		c0.1,0.2,0.2,0.4,0.4,0.5c0.1,0.2,0.3,0.4,0.4,0.6c0.1,0.1,0.2,0.3,0.3,0.4c0.1,0.1,0.1,0.2,0.2,0.2c0.3,0.4,0.6,0.8,0.9,1.2
		c0,0,0,0,0,0c0,0.1,0.1,0.1,0.1,0.2c0.2,0.3,0.5,0.6,0.7,0.9c0.1,0.1,0.2,0.2,0.2,0.3c0.1,0.1,0.2,0.3,0.4,0.4
		c0.1,0.1,0.2,0.3,0.3,0.4c0.2,0.2,0.3,0.4,0.5,0.6c0.1,0.1,0.2,0.3,0.3,0.4c0.1,0.1,0.1,0.1,0.2,0.2c0.3,0.4,0.7,0.7,1,1.1
		c0,0,0,0,0,0c0,0,0,0,0,0c0.3,0.3,0.7,0.7,1,1c0.1,0.1,0.2,0.2,0.3,0.3l-60.6,101c0,0-0.1-0.1-0.1-0.1c-0.1-0.1-0.2-0.2-0.3-0.4
		c-0.2-0.2-0.4-0.4-0.5-0.6c-0.1-0.1-0.2-0.3-0.3-0.4c0,0-0.1-0.1-0.1-0.1c-0.3-0.4-0.7-0.8-1-1.1c0,0,0,0,0,0c0,0-0.1-0.1-0.1-0.1
		c-0.3-0.3-0.6-0.6-0.9-0.9c-0.1-0.1-0.2-0.2-0.3-0.3c-0.3-0.2-0.5-0.5-0.8-0.7c0,0-0.1-0.1-0.1-0.1l-0.1-76.5l8.9-4
		c0.3-0.1,0.5-0.3,0.8-0.4c0.1,0,0.2-0.1,0.2-0.1c0.2-0.1,0.3-0.2,0.5-0.3c0.1-0.1,0.2-0.1,0.3-0.2c0.1-0.1,0.3-0.2,0.4-0.3
		c0.1-0.1,0.2-0.2,0.3-0.2c0.1-0.1,0.3-0.2,0.4-0.3c0.1-0.1,0.2-0.2,0.3-0.3c0.1-0.1,0.3-0.2,0.4-0.4c0.1-0.1,0.2-0.2,0.3-0.3
		c0.1-0.1,0.2-0.3,0.4-0.4c0.1-0.1,0.2-0.2,0.3-0.3c0.1-0.1,0.2-0.3,0.3-0.5c0.1-0.1,0.2-0.2,0.2-0.3c0,0,0.1-0.1,0.1-0.1
		c0.1-0.2,0.3-0.4,0.4-0.6c0.2-0.3,0.4-0.7,0.6-1.1c0,0,0,0,0,0c0,0,0,0,0,0c0.2-0.4,0.4-0.8,0.6-1.3c0,0,0-0.1,0.1-0.1
		c0-0.1,0.1-0.2,0.1-0.3c0.1-0.3,0.2-0.5,0.3-0.8c0-0.1,0.1-0.2,0.1-0.2c0-0.1,0.1-0.2,0.1-0.3c0.1-0.2,0.1-0.4,0.2-0.6
		c0-0.1,0.1-0.2,0.1-0.3c0-0.1,0.1-0.2,0.1-0.4c0-0.2,0.1-0.4,0.1-0.6c0-0.1,0-0.2,0.1-0.3c0-0.1,0.1-0.3,0.1-0.4
		c0-0.2,0.1-0.4,0.1-0.5c0-0.1,0-0.2,0-0.2c0-0.2,0.1-0.4,0.1-0.6c0-0.2,0-0.3,0.1-0.5c0-0.1,0-0.1,0-0.2c0-0.3,0.1-0.6,0.1-0.8
		c0-0.1,0-0.2,0-0.3c0,0,0,0,0,0c0-0.4,0.1-0.8,0.1-1.2c0,0,0-0.1,0-0.1c0-0.1,0-0.2,0-0.4c0-0.2,0-0.5,0-0.7c0-0.1,0-0.2,0-0.2
		c0-0.2,0-0.3,0-0.5c0-0.2,0-0.3,0-0.5c0-0.1,0-0.3,0-0.4c0-0.2,0-0.3,0-0.5c0-0.1,0-0.2,0-0.3c0-0.2,0-0.4,0-0.7c0-0.1,0-0.3,0-0.4
		c0,0,0-0.1,0-0.1c0-0.4-0.1-0.8-0.1-1.3c0,0,0,0,0,0c0,0,0,0,0-0.1c0-0.4-0.1-0.8-0.1-1.2c0-0.1,0-0.1,0-0.2c0-0.2,0-0.3-0.1-0.5
		c0-0.2-0.1-0.5-0.1-0.7c0-0.1,0-0.2-0.1-0.3c0-0.2-0.1-0.4-0.1-0.6c0-0.2-0.1-0.3-0.1-0.5c0-0.3-0.1-0.5-0.1-0.8
		c0-0.2-0.1-0.4-0.1-0.5c-0.1-0.4-0.2-0.9-0.3-1.3c0,0,0,0,0-0.1c0-0.1,0-0.1,0-0.2c-0.1-0.3-0.2-0.7-0.3-1c0-0.2-0.1-0.4-0.2-0.6
		c0-0.1-0.1-0.2-0.1-0.4c0-0.1-0.1-0.2-0.1-0.3c-0.1-0.4-0.2-0.8-0.3-1.2c0-0.1,0-0.1-0.1-0.2c0-0.1-0.1-0.2-0.1-0.3
		c-0.1-0.2-0.1-0.4-0.2-0.6c-0.1-0.4-0.3-0.8-0.4-1.1c-0.1-0.4-0.3-0.8-0.4-1.2c-0.1-0.2-0.2-0.4-0.2-0.6c0-0.1-0.1-0.2-0.1-0.3
		c0-0.1-0.1-0.2-0.1-0.3c-0.2-0.5-0.4-0.9-0.6-1.3c0,0,0,0,0-0.1l36.6-6.2c0,0.1,0,0.2,0.1,0.3c0.1,0.4,0.2,0.9,0.3,1.3
		c0,0.1,0,0.2,0.1,0.3c0,0.1,0.1,0.2,0.1,0.4c0,0.2,0.1,0.4,0.1,0.6c0.1,0.4,0.2,0.7,0.3,1.1c0,0,0,0,0,0.1c0,0,0,0,0,0
		c0.1,0.4,0.2,0.8,0.3,1.2c0.1,0.2,0.1,0.4,0.2,0.6c0,0.1,0.1,0.2,0.1,0.3c0,0.1,0.1,0.2,0.1,0.3c0.1,0.4,0.3,0.8,0.4,1.1
		c0,0.1,0.1,0.2,0.1,0.3c0,0.1,0.1,0.2,0.1,0.3c0.1,0.2,0.1,0.3,0.2,0.5c0.2,0.4,0.3,0.8,0.5,1.2c0,0,0,0,0,0c0,0,0,0.1,0,0.1
		c0.2,0.4,0.3,0.8,0.5,1.2c0,0.1,0.1,0.2,0.1,0.3c0.1,0.3,0.2,0.5,0.4,0.8c0.1,0.2,0.2,0.4,0.3,0.6c0,0.1,0.1,0.2,0.1,0.3
		c0.4,0.8,0.7,1.6,1.1,2.3l15-6.8c-0.4-0.8-0.8-1.5-1.1-2.3c-0.1-0.3-0.3-0.6-0.4-0.9c-0.1-0.3-0.2-0.5-0.4-0.8
		c-0.2-0.5-0.4-1-0.6-1.5c0,0,0-0.1,0-0.1c-0.2-0.6-0.4-1.2-0.7-1.7c0-0.1-0.1-0.2-0.1-0.3c-0.2-0.6-0.4-1.1-0.6-1.7
		c0-0.1-0.1-0.2-0.1-0.3c-0.2-0.6-0.4-1.2-0.5-1.8c0,0,0,0,0-0.1c-0.2-0.6-0.3-1.1-0.4-1.7c0-0.1-0.1-0.2-0.1-0.4
		c-0.1-0.6-0.3-1.2-0.4-1.8l-53.4,9.1c-0.4-0.9-0.9-1.7-1.4-2.5c-0.1-0.1-0.1-0.2-0.1-0.3c-0.2-0.3-0.4-0.7-0.6-1
		c-0.1-0.2-0.2-0.4-0.3-0.6c0,0-0.1-0.1-0.1-0.1c-0.3-0.5-0.6-0.9-0.9-1.4c-0.1-0.1-0.1-0.2-0.2-0.3c-0.1-0.1-0.2-0.2-0.2-0.4
		c-0.1-0.2-0.3-0.4-0.4-0.6c-0.3-0.4-0.6-0.8-0.9-1.2c0,0,0,0,0,0c-0.3-0.3-0.5-0.7-0.8-1c-0.1-0.2-0.3-0.3-0.4-0.5
		c-0.1-0.1-0.2-0.3-0.3-0.4c-0.1-0.1-0.2-0.2-0.2-0.3c-0.3-0.4-0.7-0.8-1-1.2c0,0,0,0,0,0c0,0-0.1-0.1-0.1-0.1
		c-0.3-0.3-0.6-0.7-0.9-1c-0.1-0.1-0.2-0.2-0.3-0.3c-0.1-0.1-0.2-0.2-0.4-0.4c-0.1-0.1-0.3-0.3-0.4-0.4c-0.2-0.2-0.4-0.4-0.6-0.6
		c-0.1-0.1-0.2-0.2-0.3-0.3c0,0-0.1-0.1-0.1-0.1c-0.3-0.3-0.7-0.6-1-0.9c-0.1,0-0.1-0.1-0.2-0.1c-0.1-0.1-0.2-0.2-0.3-0.2
		c-0.2-0.1-0.4-0.3-0.5-0.4c-0.2-0.1-0.4-0.3-0.6-0.4c-0.1-0.1-0.2-0.1-0.3-0.2c0,0-0.1-0.1-0.1-0.1c-0.3-0.2-0.6-0.5-1-0.7
		c-0.1,0-0.1-0.1-0.2-0.1c-0.1-0.1-0.2-0.1-0.3-0.2c-0.2-0.1-0.3-0.2-0.5-0.3c-0.3-0.2-0.5-0.3-0.8-0.5c0,0-0.1,0-0.1-0.1
		c-0.2-0.1-0.4-0.2-0.5-0.3c-0.1-0.1-0.2-0.1-0.4-0.2c0,0,0,0,0,0c-0.2-0.1-0.4-0.2-0.6-0.3c-0.1-0.1-0.2-0.1-0.3-0.2c0,0,0,0,0,0
		c-0.2-0.1-0.4-0.2-0.6-0.3c-0.1,0-0.2-0.1-0.3-0.1c0,0,0,0,0,0c-0.2-0.1-0.4-0.1-0.5-0.2c-0.1-0.1-0.3-0.1-0.4-0.2c0,0,0,0,0,0
		c-0.1,0-0.2-0.1-0.3-0.1c-0.2-0.1-0.5-0.2-0.7-0.2c0,0,0,0,0,0c-0.1,0-0.2,0-0.2-0.1c-0.2-0.1-0.5-0.1-0.7-0.2c0,0,0,0,0,0
		c-0.1,0-0.2,0-0.3-0.1c-0.2-0.1-0.5-0.1-0.7-0.1c0,0-0.1,0-0.1,0c-0.1,0-0.2,0-0.3,0c-0.2,0-0.5-0.1-0.7-0.1c0,0-0.1,0-0.1,0
		c-0.1,0-0.1,0-0.2,0c-0.2,0-0.5,0-0.7,0c-0.1,0-0.1,0-0.2,0c0,0-0.1,0-0.1,0c-0.4,0-0.7,0-1,0c0,0,0,0,0,0c0,0,0,0,0,0
		c-0.4,0-0.8,0.1-1.2,0.1c0,0-0.1,0-0.1,0c-0.1,0-0.1,0-0.2,0c-0.1,0-0.3,0.1-0.4,0.1c-0.1,0-0.3,0.1-0.4,0.1
		c-0.1,0-0.3,0.1-0.4,0.1c-0.1,0-0.2,0-0.2,0.1c0,0-0.1,0-0.1,0c-0.3,0.1-0.7,0.2-1,0.4l-15,6.8c0.3-0.1,0.7-0.3,1-0.4
		c0.1,0,0.2-0.1,0.4-0.1c0.1,0,0.3-0.1,0.4-0.1c0.1,0,0.3-0.1,0.4-0.1c0.1,0,0.3-0.1,0.4-0.1c0.1,0,0.2,0,0.3-0.1
		c0.4-0.1,0.8-0.1,1.2-0.1c0,0,0,0,0,0c0.3,0,0.7,0,1,0c0.1,0,0.2,0,0.3,0c0.2,0,0.5,0,0.7,0c0.1,0,0.2,0,0.4,0
		c0.2,0,0.4,0.1,0.7,0.1c0.1,0,0.2,0,0.3,0.1c0.2,0,0.5,0.1,0.7,0.1c0.1,0,0.2,0,0.3,0.1c0.2,0.1,0.5,0.1,0.7,0.2
		c0.1,0,0.2,0,0.3,0.1c0.2,0.1,0.4,0.1,0.7,0.2c0.1,0,0.2,0.1,0.3,0.1c0.1,0,0.3,0.1,0.4,0.2c0.2,0.1,0.4,0.1,0.6,0.2
		c0.1,0,0.2,0.1,0.3,0.1c0.2,0.1,0.4,0.2,0.6,0.3c0.1,0.1,0.2,0.1,0.4,0.2c0.2,0.1,0.4,0.2,0.6,0.3c0.1,0.1,0.3,0.1,0.4,0.2
		c0.2,0.1,0.4,0.2,0.6,0.3c0.4,0.3,0.9,0.5,1.3,0.8c0.1,0.1,0.2,0.1,0.3,0.2c0.4,0.3,0.9,0.6,1.3,0.9c0.1,0.1,0.2,0.1,0.3,0.2
		c0.4,0.3,0.7,0.6,1.1,0.9c0.1,0.1,0.2,0.2,0.3,0.2c0.4,0.4,0.9,0.7,1.3,1.1c0.1,0.1,0.2,0.2,0.3,0.3c0.3,0.3,0.7,0.7,1,1
		c0.1,0.1,0.2,0.2,0.4,0.4c0.4,0.4,0.8,0.8,1.2,1.3c0,0,0.1,0.1,0.1,0.1c0.4,0.5,0.8,1,1.3,1.5c0.1,0.1,0.2,0.3,0.3,0.4
		c0.4,0.5,0.8,1,1.2,1.5c0.4,0.6,0.9,1.2,1.3,1.8c0.1,0.1,0.2,0.2,0.2,0.4c0.4,0.6,0.8,1.2,1.2,1.8c0.1,0.2,0.2,0.4,0.3,0.6
		c0.3,0.4,0.5,0.9,0.8,1.3c0.5,0.8,1,1.7,1.4,2.5c0.4,0.7,0.7,1.4,1,2.1c0.2,0.4,0.4,0.8,0.6,1.2c0.1,0.2,0.2,0.4,0.3,0.6
		c0.2,0.6,0.5,1.1,0.7,1.7c0,0.1,0.1,0.2,0.1,0.3c0.2,0.6,0.4,1.2,0.6,1.7c0,0,0,0,0,0c0.2,0.6,0.4,1.2,0.6,1.8
		c0,0.1,0.1,0.2,0.1,0.3c0.2,0.6,0.3,1.1,0.5,1.7c0,0.1,0.1,0.2,0.1,0.4c0.1,0.5,0.3,1.1,0.4,1.6c0,0.1,0,0.1,0,0.2
		c0.1,0.6,0.3,1.3,0.4,1.9c0.1,0.4,0.2,0.8,0.2,1.3c0,0.2,0.1,0.4,0.1,0.6c0.1,0.3,0.1,0.7,0.1,1c0,0.2,0,0.3,0.1,0.5
		c0.1,0.5,0.1,0.9,0.2,1.4c0,0,0,0,0,0.1c0,0.5,0.1,0.9,0.1,1.4c0,0.1,0,0.3,0,0.4c0,0.3,0,0.6,0,1c0,0.2,0,0.3,0,0.5
		c0,0.3,0,0.6,0,0.9c0,0.2,0,0.3,0,0.5c0,0.3,0,0.7,0,1c0,0.1,0,0.2,0,0.4c0,0.4-0.1,0.9-0.1,1.3c0,0.1,0,0.2,0,0.3
		c0,0.3-0.1,0.7-0.1,1c0,0.2,0,0.3-0.1,0.5c0,0.3-0.1,0.5-0.1,0.8c0,0.2-0.1,0.4-0.1,0.5c0,0.2-0.1,0.5-0.1,0.7
		c0,0.2-0.1,0.4-0.1,0.6c-0.1,0.2-0.1,0.4-0.2,0.6c-0.1,0.2-0.1,0.4-0.2,0.7c-0.1,0.2-0.1,0.4-0.2,0.6c-0.1,0.3-0.2,0.5-0.3,0.8
		c-0.1,0.2-0.1,0.3-0.2,0.5c-0.2,0.4-0.4,0.9-0.6,1.3c0,0,0,0,0,0c0,0,0,0.1-0.1,0.1l0-0.1c-0.4-0.1-0.8-0.2-1.2-0.4
		c-0.1,0-0.2-0.1-0.3-0.1c-0.4-0.1-0.8-0.3-1.2-0.5c-0.1,0-0.1,0-0.2-0.1c-0.4-0.2-0.7-0.3-1.1-0.5c-0.1,0-0.2-0.1-0.3-0.1
		c-0.4-0.2-0.9-0.4-1.3-0.7c-0.4-0.2-0.8-0.5-1.2-0.7c-0.1-0.1-0.2-0.1-0.3-0.2c-0.4-0.3-0.8-0.5-1.2-0.8c0,0,0,0-0.1,0
		c-0.4-0.3-0.8-0.6-1.2-0.9c-0.1-0.1-0.2-0.2-0.4-0.3c-0.4-0.3-0.8-0.6-1.1-1c-1.3,0.6-2.7,1.2-4.2,1.9l-6.6,3
		c-0.8,0.3-1.5,0.7-2.2,1l-1.9,0.9c0.2,0.2,0.5,0.4,0.7,0.6c0.1,0.1,0.3,0.2,0.4,0.3c0.1,0.1,0.2,0.2,0.4,0.3
		c0.1,0.1,0.1,0.1,0.2,0.2c0.3,0.3,0.6,0.5,1,0.7c0,0,0,0,0,0c0,0,0,0,0,0c0.3,0.2,0.6,0.4,0.9,0.6c0.1,0.1,0.2,0.1,0.3,0.2
		c0.1,0.1,0.2,0.1,0.3,0.2c0.1,0.1,0.2,0.2,0.4,0.2c0.3,0.2,0.5,0.3,0.8,0.5c0,0,0.1,0,0.1,0.1c0.3,0.2,0.6,0.3,0.9,0.5
		c0.1,0,0.2,0.1,0.2,0.1c0.1,0.1,0.2,0.1,0.3,0.1c0.1,0.1,0.3,0.1,0.4,0.2c0.2,0.1,0.5,0.2,0.7,0.3c0.1,0,0.1,0,0.2,0.1
		c0,0,0,0,0.1,0c0.3,0.1,0.6,0.3,1,0.4c0.1,0,0.1,0,0.2,0.1c0.1,0,0.2,0.1,0.3,0.1c0.1,0,0.3,0.1,0.4,0.1c0.3,0.1,0.5,0.1,0.8,0.2
		l0.1,66.2c-0.1,0-0.2,0-0.3,0c-0.1,0-0.3,0-0.4,0c0,0-0.1,0-0.1,0c-0.4,0-0.9,0.1-1.3,0.1c0,0-0.1,0-0.1,0c-0.1,0-0.2,0.1-0.4,0.1
		c-0.4,0.1-0.8,0.2-1.1,0.3c0,0-0.1,0-0.1,0c-0.4,0.1-0.8,0.3-1.1,0.4l-15,6.8c0.4-0.2,0.8-0.3,1.2-0.5c0.4-0.1,0.8-0.2,1.1-0.3
		c0.2,0,0.3-0.1,0.5-0.1c0.5-0.1,0.9-0.1,1.4-0.2c0.1,0,0.3,0,0.4,0c0.3,0,0.7,0,1,0c0.1,0,0.3,0,0.4,0c0.4,0,0.7,0.1,1.1,0.1
		c0.1,0,0.2,0,0.3,0c0.5,0.1,1,0.2,1.5,0.3c0.4,0.1,0.8,0.2,1.2,0.4c0.1,0,0.2,0.1,0.3,0.1c0.4,0.1,0.8,0.3,1.2,0.5
		c0.1,0,0.2,0.1,0.2,0.1c0.3,0.1,0.7,0.3,1,0.5c0.1,0,0.2,0.1,0.3,0.1c0.4,0.2,0.8,0.4,1.2,0.7c0.4,0.2,0.8,0.5,1.2,0.8
		c0.1,0.1,0.2,0.1,0.3,0.2c0.4,0.3,0.8,0.6,1.2,0.9c0.1,0,0.1,0.1,0.2,0.1c0.4,0.3,0.7,0.5,1.1,0.8c0.1,0.1,0.2,0.2,0.4,0.3
		c0.4,0.3,0.8,0.7,1.2,1c0.3,0.3,0.6,0.6,0.9,0.8c0.4,0.4,0.8,0.8,1.2,1.2c0,0,0.1,0.1,0.1,0.1c0.4,0.4,0.8,0.8,1.2,1.3
		c0.1,0.1,0.2,0.3,0.3,0.4c0.3,0.3,0.6,0.6,0.8,1c0.1,0.1,0.2,0.3,0.4,0.4c0.3,0.4,0.6,0.7,0.9,1.1c0.1,0.1,0.2,0.2,0.2,0.3
		c0.4,0.5,0.7,0.9,1.1,1.4c0.1,0.1,0.2,0.2,0.2,0.3c0.3,0.4,0.5,0.8,0.8,1.2c0.1,0.2,0.2,0.3,0.3,0.5c0.2,0.3,0.4,0.6,0.6,1
		c0.2,0.3,0.3,0.6,0.5,0.9c0.3,0.5,0.6,1,0.9,1.5c0.4,0.7,0.7,1.3,1.1,2c0.1,0.2,0.2,0.5,0.3,0.7c0.2,0.5,0.5,1,0.7,1.4
		c0.1,0.2,0.2,0.4,0.3,0.6c0.2,0.6,0.5,1.1,0.7,1.7c0,0.1,0.1,0.2,0.1,0.3c0.3,0.7,0.6,1.5,0.9,2.3c0.3,0.8,0.5,1.5,0.8,2.3
		c0,0,0,0.1,0,0.1c0.2,0.7,0.4,1.5,0.6,2.2c0,0.1,0,0.1,0.1,0.2c0.2,0.7,0.3,1.4,0.5,2.1c0,0.1,0,0.2,0.1,0.3
		c0.2,0.7,0.3,1.4,0.4,2.1c0.1,0.6,0.2,1.2,0.3,1.8c0,0.1,0,0.1,0,0.2c0.1,0.6,0.1,1.1,0.2,1.7c0,0.1,0,0.3,0,0.4
		c0,0.5,0.1,1,0.1,1.5c0,0.1,0,0.1,0,0.2c0,0.5,0,1.1,0,1.6c0,0.1,0,0.3,0,0.4c0,0.5,0,0.9,0,1.4c0,0.1,0,0.2,0,0.2
		c0,0.5-0.1,1-0.1,1.5c0,0.1,0,0.3,0,0.4c0,0.4-0.1,0.8-0.1,1.1c0,0.1,0,0.3-0.1,0.4c-0.1,0.5-0.2,1-0.3,1.4c-0.1,0.3-0.2,0.7-0.2,1
		c-0.1,0.4-0.2,0.8-0.3,1.2c0,0.1-0.1,0.2-0.1,0.3c-0.1,0.3-0.2,0.6-0.3,0.8c-0.1,0.2-0.1,0.4-0.2,0.5c0,0.1-0.1,0.1-0.1,0.2
		c-0.2,0.4-0.3,0.8-0.5,1.2c-0.1,0.1-0.1,0.2-0.2,0.3c-0.2,0.4-0.5,0.9-0.7,1.3c-0.1,0.2-0.2,0.3-0.3,0.5c-0.1,0.1-0.2,0.3-0.3,0.4
		c-0.2,0.2-0.3,0.4-0.5,0.6c-0.1,0.1-0.2,0.2-0.3,0.3c-0.2,0.2-0.4,0.4-0.6,0.6c-0.1,0.1-0.2,0.2-0.3,0.3c-0.3,0.3-0.6,0.5-0.9,0.8
		c-0.7,0.6-1.5,1-2.3,1.4l11.8-5.4l49.5,65.6c-0.3,0.2-0.6,0.5-0.9,0.7c-0.1,0.1-0.2,0.2-0.3,0.3c-0.2,0.2-0.4,0.4-0.6,0.6
		c-0.1,0.1-0.2,0.2-0.3,0.4c-0.2,0.2-0.3,0.4-0.5,0.6c-0.1,0.1-0.2,0.3-0.3,0.4c-0.1,0.1-0.2,0.2-0.2,0.3c0,0.1-0.1,0.1-0.1,0.2
		c-0.3,0.5-0.6,0.9-0.8,1.5c0,0,0,0,0,0c0,0,0,0,0,0c-0.2,0.4-0.4,0.9-0.6,1.4c0,0,0,0,0,0.1c-0.1,0.3-0.2,0.6-0.3,0.8
		c-0.1,0.2-0.1,0.3-0.2,0.5c0,0,0,0,0,0c-0.1,0.4-0.3,0.8-0.4,1.3c0,0,0,0.1,0,0.1l15-6.8c0.1-0.5,0.3-1,0.4-1.4
		c0.1-0.2,0.1-0.3,0.2-0.5c0.1-0.3,0.2-0.6,0.3-0.9c0.2-0.5,0.4-0.9,0.6-1.4c0,0,0,0,0,0c0,0,0,0,0,0c0.1,0,0.1,0,0.2,0
		c0.2,0,0.4,0.1,0.6,0.2c0.2,0,0.3,0.1,0.5,0.2c0.2,0.1,0.3,0.1,0.5,0.2c0.2,0.1,0.4,0.1,0.6,0.2c0.1,0,0.3,0.1,0.4,0.1
		c0.3,0.1,0.6,0.2,0.9,0.4c0,0,0.1,0,0.1,0c0.3,0.2,0.6,0.3,1,0.5c0.1,0.1,0.2,0.1,0.3,0.2c0.2,0.1,0.5,0.3,0.7,0.4
		c0.4,0.2,0.7,0.4,1.1,0.7c0.1,0.1,0.2,0.2,0.4,0.2c0.3,0.2,0.5,0.4,0.8,0.6c0.1,0.1,0.2,0.2,0.3,0.2c0.4,0.3,0.8,0.6,1.1,0.8
		c0,0,0,0,0,0c0.4,0.3,0.7,0.6,1.1,0.9c0.1,0.1,0.3,0.2,0.4,0.3c0.2,0.2,0.5,0.4,0.7,0.6c0.2,0.1,0.3,0.3,0.4,0.4
		c0.2,0.2,0.4,0.4,0.7,0.6c0.2,0.2,0.3,0.3,0.5,0.5c0.2,0.2,0.4,0.4,0.6,0.6c0.2,0.2,0.3,0.3,0.5,0.5c0.2,0.2,0.4,0.5,0.6,0.7
		c0.1,0.2,0.3,0.3,0.4,0.5c0.2,0.3,0.4,0.5,0.7,0.8c0.1,0.1,0.2,0.3,0.4,0.4c0.3,0.4,0.6,0.8,0.9,1.2c0,0,0,0.1,0.1,0.1
		c0.3,0.4,0.6,0.9,0.9,1.3c0.1,0.1,0.2,0.3,0.3,0.4c0.2,0.3,0.4,0.6,0.6,0.9c0.1,0.2,0.3,0.4,0.4,0.6c0.2,0.2,0.3,0.5,0.5,0.8
		c0.2,0.4,0.5,0.8,0.7,1.1c0.1,0.2,0.2,0.3,0.3,0.5c0.6,1.1,1.2,2.2,1.8,3.3c0.3,0.6,0.5,1.1,0.8,1.7c0.1,0.2,0.2,0.4,0.2,0.5
		c0.2,0.4,0.4,0.8,0.5,1.2c0.2,0.5,0.4,1,0.6,1.5c0,0.1,0.1,0.2,0.1,0.3c0.2,0.4,0.3,0.8,0.5,1.3c0,0.1,0.1,0.3,0.1,0.4
		c0.2,0.5,0.4,1,0.5,1.5c0,0.1,0,0.1,0.1,0.2c0.1,0.5,0.3,0.9,0.4,1.4c0,0.1,0.1,0.3,0.1,0.4c0.1,0.5,0.3,1,0.4,1.5c0,0,0,0,0,0.1
		c0.1,0.6,0.3,1.1,0.4,1.7c0.2,0.8,0.3,1.6,0.5,2.4c0,0.1,0,0.2,0.1,0.3c0.1,0.8,0.2,1.5,0.3,2.2c0,0.1,0,0.2,0,0.3
		c0.1,0.8,0.2,1.5,0.2,2.2c0,0.1,0,0.2,0,0.3c0,0.8,0.1,1.6,0.1,2.3c0,0.5,0,1,0,1.5c0,0.1,0,0.3,0,0.4c0,0.5-0.1,1-0.1,1.5
		c0,0.1,0,0.2,0,0.3c0,0.4-0.1,0.8-0.1,1.2c0,0.2,0,0.3-0.1,0.5c-0.1,0.3-0.1,0.7-0.2,1c0,0.1-0.1,0.3-0.1,0.4
		c-0.1,0.4-0.2,0.7-0.2,1c0,0.1-0.1,0.2-0.1,0.3c-0.1,0.5-0.2,0.9-0.4,1.3c-0.1,0.4-0.3,0.9-0.5,1.3c0,0,0,0,0,0
		c-0.2,0.5-0.4,0.9-0.6,1.3c-0.1,0.1-0.1,0.2-0.2,0.3c-0.2,0.4-0.5,0.9-0.7,1.3c-0.1,0.1-0.1,0.2-0.2,0.3c-0.1,0.1-0.1,0.2-0.2,0.3
		c-0.1,0.2-0.3,0.4-0.5,0.6c-0.1,0.1-0.1,0.2-0.2,0.3c-0.2,0.2-0.4,0.4-0.6,0.6c-0.1,0.1-0.1,0.1-0.2,0.2c-0.2,0.2-0.5,0.5-0.7,0.7
		c-0.1,0.1-0.1,0.1-0.2,0.2c-0.2,0.2-0.4,0.3-0.6,0.5c-0.1,0.1-0.2,0.1-0.3,0.2c-0.2,0.1-0.4,0.3-0.6,0.4c-0.1,0.1-0.2,0.1-0.3,0.2
		c-0.3,0.2-0.6,0.3-0.9,0.5c0,0,0,0,0,0l0,0l0,0l15-6.8c0.3-0.1,0.6-0.3,0.9-0.5c0.1-0.1,0.2-0.1,0.3-0.2c0.2-0.1,0.4-0.2,0.6-0.4
		c0.1-0.1,0.2-0.1,0.3-0.2c0.2-0.1,0.4-0.3,0.6-0.5c0.1-0.1,0.1-0.1,0.2-0.2c0.3-0.2,0.5-0.5,0.7-0.7c0.1-0.1,0.1-0.1,0.2-0.2
		c0.2-0.2,0.4-0.4,0.6-0.6c0.1-0.1,0.1-0.2,0.2-0.3c0.2-0.2,0.3-0.4,0.5-0.6c0.1-0.1,0.1-0.2,0.2-0.3c0-0.1,0.1-0.1,0.1-0.1
		c0-0.1,0.1-0.1,0.1-0.2c0.3-0.4,0.5-0.8,0.7-1.3c0-0.1,0.1-0.1,0.1-0.2c0,0,0-0.1,0.1-0.1c0.2-0.4,0.4-0.9,0.6-1.3c0,0,0,0,0,0
		c0,0,0,0,0,0c0.2-0.4,0.3-0.8,0.5-1.3c0,0,0,0,0,0c0.1-0.4,0.3-0.8,0.4-1.3c0,0,0,0,0-0.1c0-0.1,0.1-0.2,0.1-0.3
		c0.1-0.3,0.1-0.6,0.2-0.9c0-0.1,0-0.1,0-0.2c0-0.1,0.1-0.3,0.1-0.4c0-0.2,0.1-0.4,0.1-0.6c0-0.1,0-0.3,0.1-0.4c0-0.2,0-0.3,0.1-0.5
		c0-0.1,0-0.2,0.1-0.3c0-0.3,0.1-0.6,0.1-0.8c0-0.1,0-0.2,0-0.3c0,0,0-0.1,0-0.1c0-0.4,0.1-0.8,0.1-1.2c0-0.1,0-0.1,0-0.2
		c0-0.1,0-0.2,0-0.4c0-0.2,0-0.4,0-0.6c0-0.3,0-0.6,0-0.9c0-0.1,0-0.2,0-0.4c0-0.4,0-0.8,0-1.2c0-0.2,0-0.5,0-0.7c0-0.1,0-0.2,0-0.3
		c0-0.1,0-0.2,0-0.3c0-0.4-0.1-0.8-0.1-1.3c0-0.2-0.1-0.5-0.1-0.7c0-0.1,0-0.2,0-0.3c0-0.1,0-0.2,0-0.3c-0.1-0.4-0.1-0.9-0.2-1.3
		c0-0.2-0.1-0.4-0.1-0.7c0-0.1,0-0.2-0.1-0.3c0-0.1,0-0.2-0.1-0.3c-0.1-0.4-0.2-0.9-0.3-1.3c-0.1-0.3-0.1-0.5-0.2-0.8
		c0-0.2-0.1-0.3-0.1-0.5c-0.1-0.4-0.2-0.8-0.3-1.2c0,0,0,0,0-0.1c0,0,0,0,0,0c-0.1-0.4-0.2-0.8-0.3-1.2c0-0.1-0.1-0.2-0.1-0.3
		c0-0.1-0.1-0.3-0.1-0.4c0-0.2-0.1-0.3-0.1-0.5c-0.1-0.3-0.2-0.6-0.3-0.9c0-0.1,0-0.1-0.1-0.2c0,0,0,0,0-0.1
		c-0.1-0.4-0.3-0.8-0.4-1.1c0-0.1-0.1-0.2-0.1-0.3c0-0.1-0.1-0.3-0.1-0.4c-0.1-0.1-0.1-0.3-0.2-0.5c-0.1-0.3-0.2-0.5-0.3-0.8
		c0-0.1-0.1-0.2-0.1-0.3c0,0,0-0.1,0-0.1c-0.1-0.3-0.2-0.6-0.3-0.8l36.4-6.2c0.1,0.3,0.1,0.6,0.2,0.9c0,0.2,0.1,0.4,0.1,0.5
		c0,0.2,0.1,0.3,0.1,0.5c0,0.1,0,0.2,0.1,0.3c0.1,0.4,0.2,0.8,0.3,1.2c0,0,0,0,0,0c0,0,0,0,0,0.1c0.1,0.4,0.2,0.7,0.3,1.1
		c0,0.1,0.1,0.2,0.1,0.4c0,0.1,0.1,0.3,0.1,0.4c0,0.1,0.1,0.3,0.1,0.4c0.1,0.4,0.2,0.7,0.4,1.1c0,0,0,0,0,0.1c0,0,0,0,0,0
		c0.1,0.4,0.3,0.8,0.4,1.1c0,0.1,0.1,0.2,0.1,0.3c0.1,0.1,0.1,0.3,0.2,0.4c0.1,0.1,0.1,0.3,0.2,0.4c0.1,0.2,0.2,0.5,0.3,0.7
		c0.1,0.1,0.1,0.3,0.2,0.4c0,0.1,0,0.1,0.1,0.2c0.1,0.2,0.2,0.4,0.3,0.6c0.1,0.3,0.3,0.6,0.4,0.9c0,0.1,0.1,0.1,0.1,0.2
		c0.2,0.4,0.4,0.9,0.6,1.3l15-6.8c-0.2-0.5-0.5-1-0.7-1.5c-0.1-0.3-0.3-0.6-0.4-0.9c-0.1-0.3-0.2-0.5-0.4-0.8
		c-0.1-0.2-0.1-0.3-0.2-0.5c-0.2-0.4-0.3-0.8-0.5-1.1c-0.1-0.1-0.1-0.3-0.2-0.4c-0.2-0.5-0.4-1-0.6-1.5c0,0,0,0,0-0.1
		c-0.2-0.5-0.3-1-0.5-1.5c0-0.1-0.1-0.3-0.1-0.4c-0.2-0.5-0.3-1-0.4-1.5c0,0,0,0,0-0.1c-0.1-0.5-0.3-1-0.4-1.5
		c0-0.2-0.1-0.3-0.1-0.5c-0.1-0.5-0.2-1-0.3-1.4l-8.5,1.4l8-3.7c-0.1-0.6-0.2-1.1-0.3-1.7c0-0.1,0-0.2,0-0.4
		c-0.1-0.6-0.1-1.1-0.2-1.7c0-0.1,0-0.2,0-0.4c0-0.5-0.1-0.9-0.1-1.4c0-0.1,0-0.2,0-0.4c0-0.5,0-1.1,0-1.6c0-0.1,0-0.2,0-0.3
		c0-0.4,0-0.9,0-1.3c0-0.1,0-0.3,0-0.4c0-0.5,0.1-1,0.1-1.5c0-0.1,0-0.2,0-0.2c0-0.4,0.1-0.8,0.2-1.3c0-0.1,0-0.3,0.1-0.4
		c0.1-0.5,0.2-1,0.3-1.4l-7.7-4.4l2.3-1c0,0,0,0,0.1,0c0.1,0,0.2-0.1,0.2-0.1c0.3-0.1,0.6-0.1,0.9-0.2c0.4-0.1,0.8-0.1,1.2-0.1
		c0.1,0,0.3,0,0.4,0c0.2,0,0.5,0,0.7,0c0.2,0,0.3,0,0.5,0c0.2,0,0.4,0,0.6,0c0.2,0,0.3,0,0.5,0.1c0.2,0,0.4,0,0.5,0.1
		c0.3,0,0.5,0.1,0.8,0.1c0.3,0.1,0.6,0.1,0.9,0.2c0.4,0.1,0.8,0.2,1.2,0.4c0.1,0,0.2,0.1,0.3,0.1c0.4,0.1,0.8,0.3,1.2,0.5
		c0.1,0,0.1,0.1,0.2,0.1c0.4,0.2,0.7,0.3,1.1,0.5c0.1,0,0.2,0.1,0.3,0.1c0.4,0.2,0.9,0.4,1.3,0.7c0.4,0.2,0.8,0.5,1.2,0.7
		c0.1,0.1,0.2,0.1,0.3,0.2c0.4,0.3,0.8,0.5,1.2,0.8c0,0,0,0,0,0c0.4,0.3,0.8,0.6,1.2,0.9c0.1,0.1,0.2,0.2,0.4,0.3
		c0.4,0.3,0.8,0.6,1.2,1c0.5,0.4,1,0.9,1.5,1.4c0.1,0.1,0.2,0.2,0.3,0.3c0.4,0.4,0.8,0.8,1.1,1.2c0.1,0.1,0.2,0.2,0.3,0.3
		c0.4,0.5,0.9,1,1.3,1.5c0.1,0.1,0.2,0.2,0.3,0.3c0.4,0.5,0.9,1.1,1.3,1.7c0.3,0.4,0.7,0.9,1,1.4c0.1,0.1,0.2,0.2,0.2,0.3
		c0.2,0.3,0.5,0.7,0.7,1c0.1,0.2,0.3,0.4,0.4,0.6c0.2,0.3,0.3,0.5,0.5,0.8c0.4,0.6,0.7,1.2,1.1,1.7c0,0.1,0.1,0.2,0.1,0.2
		c0.3,0.6,0.7,1.2,1,1.8c0.1,0.2,0.2,0.3,0.3,0.5c0.3,0.7,0.7,1.4,1,2c0.1,0.1,0.1,0.3,0.2,0.4c0.2,0.5,0.4,0.9,0.6,1.4
		c0.1,0.3,0.3,0.6,0.4,0.9c0.1,0.2,0.1,0.3,0.2,0.5c0.2,0.5,0.4,0.9,0.6,1.4c0,0,0,0.1,0,0.1c0.2,0.4,0.3,0.9,0.5,1.3
		c0,0.1,0.1,0.3,0.1,0.4c0.1,0.4,0.2,0.7,0.4,1.1c0,0.1,0.1,0.2,0.1,0.3c0.1,0.5,0.3,0.9,0.4,1.4c0,0.1,0.1,0.2,0.1,0.3
		c0.1,0.4,0.2,0.7,0.3,1.1c0,0.2,0.1,0.3,0.1,0.5c0.1,0.3,0.2,0.6,0.2,1c0,0.2,0.1,0.4,0.1,0.5c0.1,0.3,0.1,0.7,0.2,1
		c0,0.1,0.1,0.3,0.1,0.4c0.1,0.5,0.2,1,0.2,1.4c0,0,0,0,0,0.1c0.1,0.5,0.1,0.9,0.2,1.4c0,0.2,0,0.3,0.1,0.5c0,0.3,0.1,0.6,0.1,1
		c0,0.2,0,0.3,0,0.5c0,0.3,0,0.6,0.1,0.9c0,0.2,0,0.3,0,0.5c0,0.3,0,0.6,0,0.9c0,0.2,0,0.3,0,0.5c0,0.4,0,0.8,0,1.2c0,0,0,0.1,0,0.1
		c0,0.4,0,0.9-0.1,1.3c0,0.1,0,0.3,0,0.4c0,0.3,0,0.6-0.1,0.9c0,0.2,0,0.3-0.1,0.5c0,0.3-0.1,0.5-0.1,0.8c0,0.2,0,0.3-0.1,0.5
		c0,0.2-0.1,0.5-0.1,0.7c0,0.2-0.1,0.4-0.1,0.6c0,0.2-0.1,0.4-0.1,0.7c0,0.2-0.1,0.4-0.1,0.6c-0.1,0.2-0.1,0.4-0.2,0.6
		c-0.1,0.2-0.1,0.5-0.2,0.7c-0.1,0.2-0.1,0.3-0.2,0.5c-0.1,0.3-0.2,0.5-0.3,0.8c-0.1,0.2-0.1,0.3-0.2,0.5c-0.2,0.4-0.3,0.8-0.5,1.1
		c0,0.1-0.1,0.1-0.1,0.2c-0.2,0.4-0.4,0.7-0.6,1.1c-0.2,0.3-0.3,0.5-0.5,0.8c-0.1,0.1-0.2,0.2-0.2,0.3c-0.1,0.2-0.2,0.3-0.3,0.5
		c-0.1,0.1-0.2,0.2-0.3,0.3c-0.1,0.1-0.2,0.3-0.4,0.4c-0.1,0.1-0.2,0.2-0.3,0.3c-0.1,0.1-0.2,0.3-0.4,0.4c-0.1,0.1-0.2,0.2-0.3,0.3
		c-0.1,0.1-0.3,0.2-0.4,0.3c-0.1,0.1-0.2,0.2-0.3,0.2c-0.1,0.1-0.3,0.2-0.4,0.3c-0.1,0.1-0.2,0.1-0.3,0.2c-0.2,0.1-0.3,0.2-0.5,0.3
		c-0.1,0-0.2,0.1-0.2,0.1c-0.3,0.1-0.5,0.3-0.8,0.4l15-6.8c0.3-0.1,0.5-0.3,0.8-0.4c0.1,0,0.2-0.1,0.2-0.1c0.2-0.1,0.3-0.2,0.5-0.3
		c0.1-0.1,0.2-0.1,0.3-0.2c0.1-0.1,0.3-0.2,0.4-0.3c0.1-0.1,0.2-0.2,0.3-0.2c0.1-0.1,0.3-0.2,0.4-0.3c0.1-0.1,0.2-0.2,0.3-0.3
		c0.1-0.1,0.3-0.2,0.4-0.4c0.1-0.1,0.2-0.2,0.3-0.3c0.1-0.1,0.2-0.3,0.4-0.4c0.1-0.1,0.2-0.2,0.3-0.3c0.1-0.1,0.2-0.3,0.3-0.5
		c0.1-0.1,0.2-0.2,0.2-0.3c0,0,0.1-0.1,0.1-0.1c0.1-0.2,0.3-0.4,0.4-0.6c0.2-0.3,0.4-0.7,0.6-1.1c0,0,0,0,0,0c0-0.1,0-0.1,0.1-0.2
		c0.2-0.4,0.3-0.7,0.5-1.1c0-0.1,0.1-0.1,0.1-0.2c0-0.1,0.1-0.2,0.1-0.3c0.1-0.3,0.2-0.5,0.3-0.8c0-0.1,0.1-0.2,0.1-0.3
		c0-0.1,0-0.2,0.1-0.2c0.1-0.2,0.1-0.4,0.2-0.7c0-0.1,0.1-0.2,0.1-0.4c0-0.1,0-0.2,0.1-0.2c0-0.2,0.1-0.4,0.1-0.6
		c0-0.1,0.1-0.3,0.1-0.4c0-0.1,0-0.2,0.1-0.3c0-0.2,0.1-0.4,0.1-0.6c0-0.1,0.1-0.3,0.1-0.4c0-0.1,0-0.2,0.1-0.3
		c0-0.2,0.1-0.3,0.1-0.5c0-0.1,0-0.2,0-0.3c0-0.2,0-0.3,0.1-0.5c0-0.2,0-0.3,0.1-0.5c0-0.1,0-0.1,0-0.2c0-0.2,0-0.4,0-0.7
		c0-0.1,0-0.3,0-0.4c0,0,0-0.1,0-0.1c0-0.4,0-0.8,0-1.2c0,0,0,0,0,0c0-0.1,0-0.1,0-0.2c0-0.3,0-0.7,0-1
		C573.1,458,573.1,457.9,573.1,457.9z M512.3,432.8c0,0.1,0,0.2-0.1,0.4c0,0.1,0,0.3-0.1,0.4c0,0.1,0,0.3-0.1,0.4
		c0,0.3-0.1,0.6-0.1,0.8c0,0.1,0,0.2,0,0.2c0,0,0,0.1,0,0.1c0,0.4-0.1,0.8-0.1,1.2c0,0.1,0,0.2,0,0.3c0,0.1,0,0.3,0,0.4
		c0,0.2,0,0.4,0,0.6c0,0.3,0,0.5,0,0.8c0,0.1,0,0.2,0,0.3c0,0,0,0.1,0,0.1c0,0.4,0,0.8,0,1.2c0,0.1,0,0.1,0,0.2c0,0.1,0,0.3,0,0.4
		c0,0.2,0,0.4,0,0.6c0,0.2,0,0.5,0.1,0.7c0,0.1,0,0.2,0,0.4c0,0.1,0,0.1,0,0.2c0,0.4,0.1,0.9,0.1,1.3c0,0.1,0,0.1,0,0.2
		c0,0,0,0.1,0,0.1l-37.5,6.4c-0.6-1.1-1.2-2.2-1.8-3.3c0,0,0-0.1,0-0.1c-0.1-0.1-0.2-0.3-0.2-0.4c-0.2-0.4-0.5-0.8-0.7-1.1
		c0-0.1-0.1-0.2-0.1-0.2c-0.1-0.2-0.2-0.3-0.3-0.5c-0.1-0.2-0.3-0.4-0.4-0.6c0-0.1-0.1-0.1-0.1-0.2c-0.2-0.2-0.3-0.4-0.5-0.7
		c-0.1-0.1-0.2-0.3-0.3-0.4c0,0-0.1-0.1-0.1-0.1c-0.3-0.4-0.6-0.8-0.9-1.2c0,0,0,0,0,0c0,0,0-0.1-0.1-0.1c-0.3-0.4-0.5-0.7-0.8-1
		c0,0-0.1-0.1-0.1-0.1c-0.1-0.1-0.2-0.3-0.4-0.4c-0.2-0.2-0.3-0.4-0.5-0.6c-0.1-0.1-0.1-0.1-0.2-0.2c-0.1-0.2-0.3-0.3-0.4-0.5
		c-0.1-0.2-0.3-0.3-0.4-0.5c-0.1-0.1-0.1-0.2-0.2-0.2c-0.2-0.2-0.3-0.3-0.5-0.5c-0.1-0.1-0.2-0.2-0.3-0.4c-0.1-0.1-0.2-0.2-0.3-0.3
		c-0.2-0.2-0.3-0.3-0.5-0.5c-0.1-0.1-0.2-0.2-0.3-0.3c-0.1-0.1-0.2-0.2-0.4-0.3c-0.1-0.1-0.3-0.3-0.4-0.4c-0.1-0.1-0.1-0.1-0.2-0.2
		c-0.2-0.2-0.3-0.3-0.5-0.4c-0.1-0.1-0.3-0.2-0.4-0.3c0,0-0.1-0.1-0.1-0.1c-0.3-0.3-0.6-0.5-1-0.8c0,0,0,0,0,0c0,0,0,0,0,0
		c-0.3-0.3-0.6-0.5-1-0.7c0,0-0.1-0.1-0.1-0.1c-0.1-0.1-0.2-0.2-0.3-0.2c-0.2-0.1-0.3-0.2-0.5-0.3c-0.1-0.1-0.2-0.1-0.3-0.2
		c-0.1-0.1-0.2-0.2-0.4-0.2c-0.1-0.1-0.2-0.1-0.3-0.2c-0.3-0.2-0.6-0.3-0.8-0.5c0,0-0.1,0-0.1-0.1c-0.2-0.1-0.4-0.2-0.6-0.3
		c-0.1-0.1-0.2-0.1-0.3-0.2c0,0,0,0,0,0c-0.3-0.2-0.6-0.3-0.9-0.5c0,0,0,0,0,0c0,0-0.1,0-0.1,0c-0.3-0.1-0.6-0.3-0.8-0.4
		c0,0,0,0,0,0c-0.1-0.1-0.3-0.1-0.4-0.1c-0.2-0.1-0.4-0.1-0.5-0.2c0,0,0,0,0,0c-0.2-0.1-0.3-0.1-0.5-0.2c-0.2,0-0.3-0.1-0.5-0.1
		c0,0,0,0,0,0c-0.2-0.1-0.4-0.1-0.6-0.2c-0.1,0-0.2-0.1-0.4-0.1c0,0,0,0,0,0c-0.3-0.1-0.7-0.1-1-0.2c0,0,0,0,0,0c0,0,0,0-0.1,0
		c-0.3-0.1-0.6-0.1-0.9-0.1c0,0,0,0-0.1,0c-0.1,0-0.1,0-0.2,0c-0.3,0-0.5,0-0.7-0.1c-0.1,0-0.1,0-0.2,0c-0.1,0-0.1,0-0.2,0
		c-0.3,0-0.6,0-0.9,0c-0.1,0-0.1,0-0.2,0c0,0,0,0-0.1,0c-0.4,0-0.8,0.1-1.2,0.1c0,0-0.1,0-0.1,0c-0.1,0-0.1,0-0.2,0
		c-0.1,0-0.3,0.1-0.4,0.1c-0.1,0-0.3,0.1-0.4,0.1c-0.1,0-0.3,0.1-0.4,0.1c-0.1,0-0.1,0-0.2,0.1c0,0-0.1,0-0.1,0
		c-0.3,0.1-0.7,0.2-1,0.4l-2.4,1.1l-53.3-70.5l125,72.1C512.4,432.1,512.3,432.5,512.3,432.8z M555.3,339.2
		c-0.4-0.1-0.8-0.2-1.2-0.4c-0.1,0-0.2-0.1-0.3-0.1c-0.4-0.1-0.8-0.3-1.2-0.5c-0.1,0-0.2-0.1-0.3-0.1c-0.3-0.1-0.6-0.3-1-0.5
		c-0.1,0-0.2-0.1-0.3-0.1c-0.4-0.2-0.8-0.4-1.2-0.7c-0.4-0.2-0.8-0.5-1.2-0.8c-0.1-0.1-0.2-0.1-0.3-0.2c-0.4-0.3-0.8-0.6-1.2-0.9
		c-0.1,0-0.1-0.1-0.2-0.1c-0.4-0.3-0.7-0.5-1.1-0.8c-0.1-0.1-0.2-0.2-0.4-0.3c-0.4-0.3-0.8-0.7-1.2-1l-2.7,1.2
		c-0.6,0.3-1.2,0.6-1.9,0.9l-1.2,0.6c-3.2,1.4-6.4,2.9-9.2,4.2c0.3,0.3,0.6,0.5,0.9,0.8c0.1,0.1,0.2,0.2,0.3,0.2
		c0.1,0.1,0.2,0.2,0.4,0.3c0.1,0.1,0.2,0.2,0.3,0.3c0.2,0.2,0.5,0.4,0.7,0.5c0.1,0,0.1,0.1,0.2,0.1c0,0,0,0,0.1,0
		c0.3,0.2,0.6,0.5,1,0.7c0.1,0,0.1,0.1,0.2,0.1c0.1,0.1,0.2,0.1,0.3,0.2c0.1,0.1,0.3,0.2,0.4,0.3c0.3,0.2,0.5,0.3,0.8,0.5
		c0,0,0,0,0,0h0c0,0,0.1,0,0.1,0.1c0.3,0.2,0.6,0.3,0.9,0.5c0.1,0,0.1,0.1,0.2,0.1c0.1,0.1,0.2,0.1,0.3,0.1c0.2,0.1,0.3,0.2,0.5,0.2
		c0.2,0.1,0.3,0.2,0.5,0.2c0.1,0,0.2,0.1,0.3,0.1c0,0,0.1,0,0.1,0.1c0.3,0.1,0.6,0.3,0.9,0.4c0,0,0.1,0,0.1,0c0.1,0,0.2,0.1,0.3,0.1
		c0.2,0.1,0.4,0.1,0.6,0.2c0.2,0.1,0.4,0.1,0.6,0.2l0.1,57.9l-61-171.6l38.7,51.2c-0.3,0.2-0.6,0.5-0.9,0.8
		c-0.1,0.1-0.2,0.2-0.3,0.3c-0.2,0.2-0.4,0.4-0.5,0.6c-0.1,0.1-0.2,0.2-0.3,0.3c-0.2,0.2-0.3,0.4-0.5,0.6c-0.1,0.1-0.2,0.2-0.3,0.4
		c0,0.1-0.1,0.1-0.1,0.2c0,0.1-0.1,0.2-0.1,0.2c-0.2,0.4-0.5,0.8-0.7,1.2c0,0.1-0.1,0.1-0.1,0.2c0,0,0,0.1-0.1,0.1
		c-0.2,0.3-0.3,0.6-0.4,1c-0.1,0.1-0.1,0.2-0.2,0.4c0,0,0,0.1,0,0.1c-0.1,0.2-0.2,0.4-0.2,0.6c-0.1,0.2-0.2,0.4-0.2,0.6
		c0,0,0,0.1,0,0.1c0,0.2-0.1,0.3-0.1,0.5c-0.1,0.2-0.1,0.5-0.2,0.7c0,0.1-0.1,0.2-0.1,0.4l15-6.8c0.1-0.4,0.2-0.7,0.3-1.1
		c0-0.2,0.1-0.3,0.1-0.5c0.1-0.3,0.2-0.5,0.3-0.7c0.1-0.2,0.1-0.4,0.2-0.6c0.1-0.1,0.1-0.3,0.2-0.4c0.1-0.3,0.3-0.6,0.4-1
		c0-0.1,0.1-0.1,0.1-0.2c0.3,0.1,0.7,0.2,1,0.3c0.1,0,0.2,0.1,0.3,0.1c0.4,0.1,0.8,0.3,1.3,0.5c0,0,0,0,0.1,0
		c0.4,0.2,0.9,0.4,1.3,0.6c0.1,0,0.2,0.1,0.3,0.1c0.4,0.2,0.9,0.5,1.3,0.7c0.4,0.3,0.9,0.5,1.3,0.8c0.1,0.1,0.2,0.1,0.3,0.2
		c0.4,0.3,0.9,0.6,1.3,0.9c0.1,0.1,0.2,0.1,0.3,0.2c0.4,0.3,0.7,0.6,1.1,0.9c0.1,0.1,0.2,0.2,0.3,0.2c0.4,0.4,0.9,0.7,1.3,1.1
		c0.1,0.1,0.2,0.2,0.3,0.3c0.3,0.3,0.7,0.6,1,1c0.1,0.1,0.3,0.3,0.4,0.4c0.3,0.4,0.7,0.7,1,1.1c0.1,0.1,0.2,0.2,0.2,0.3
		c0.4,0.5,0.8,0.9,1.2,1.4c0.1,0.1,0.2,0.2,0.3,0.3c0.3,0.4,0.6,0.8,1,1.2c0.1,0.1,0.2,0.2,0.3,0.4c0.4,0.5,0.8,1,1.1,1.5
		c0.1,0.1,0.1,0.2,0.2,0.3c0.3,0.4,0.6,0.9,0.9,1.3c0.1,0.2,0.2,0.3,0.3,0.5c0.3,0.4,0.5,0.8,0.7,1.2c0.1,0.2,0.3,0.4,0.4,0.7
		c0.1,0.2,0.2,0.4,0.4,0.6c0.3,0.6,0.6,1.1,0.9,1.7c0.1,0.3,0.3,0.5,0.4,0.8c0.3,0.5,0.5,1.1,0.8,1.6c0.2,0.3,0.3,0.6,0.5,1
		c0.1,0.2,0.2,0.5,0.3,0.7c0.2,0.5,0.5,1.1,0.7,1.6c0,0.1,0.1,0.1,0.1,0.2c0.3,0.7,0.6,1.5,0.8,2.2c0.2,0.5,0.3,1,0.5,1.4
		c0,0.1,0.1,0.2,0.1,0.3c0.1,0.3,0.2,0.7,0.3,1c0,0.2,0.1,0.3,0.1,0.5c0.1,0.3,0.2,0.6,0.3,0.9c0,0.2,0.1,0.3,0.1,0.5
		c0.1,0.3,0.2,0.7,0.3,1c0,0.1,0.1,0.2,0.1,0.4c0.1,0.5,0.2,0.9,0.3,1.4c0,0.1,0,0.2,0.1,0.3c0.1,0.4,0.1,0.7,0.2,1.1
		c0,0.2,0.1,0.3,0.1,0.5c0,0.3,0.1,0.6,0.1,0.9c0,0.2,0.1,0.4,0.1,0.6c0,0.3,0.1,0.5,0.1,0.8c0,0.2,0,0.4,0.1,0.6
		c0,0.3,0.1,0.5,0.1,0.8c0,0.2,0,0.4,0,0.6c0,0.3,0,0.5,0.1,0.8c0,0.2,0,0.4,0,0.6c0,0.2,0,0.5,0,0.7c0,0.2,0,0.4,0,0.6
		c0,0.2,0,0.5,0,0.7c0,0.2,0,0.4,0,0.5c0,0.2,0,0.5,0,0.7c0,0.2,0,0.4,0,0.5c0,0.2,0,0.5,0,0.7c0,0.2,0,0.3,0,0.5
		c0,0.2,0,0.4-0.1,0.6c0,0.2,0,0.4-0.1,0.6c0,0.2-0.1,0.4-0.1,0.6c0,0.2-0.1,0.4-0.1,0.6c0,0.2-0.1,0.3-0.1,0.5
		c0,0.2-0.1,0.5-0.1,0.7c0,0.1-0.1,0.3-0.1,0.4c-0.1,0.3-0.1,0.5-0.2,0.8c0,0.1-0.1,0.3-0.1,0.4c-0.1,0.3-0.1,0.5-0.2,0.8
		c0,0.1-0.1,0.3-0.1,0.4c-0.1,0.3-0.2,0.7-0.4,1c0,0.1-0.1,0.2-0.1,0.2c-0.2,0.4-0.4,0.9-0.6,1.3c0,0.1-0.1,0.2-0.1,0.2
		c-0.1,0.1-0.1,0.2-0.2,0.3L555.3,339.2z"/>
	<g>
		<g>
			<path class="st5" d="M350.2,315.2c1.9,1.1,3.8,2.5,5.6,4.1c0.3,0.3,0.6,0.6,0.9,0.8c3.5,3.4,6.8,7.7,9.6,12.6
				c1.6,2.8,2.9,5.9,4.1,9c1.1,3.2,1.9,6.3,2.5,9.3c0.9,5.3,0.9,10.1,0,14.2c-0.1,0.3-0.2,0.7-0.2,1c-1,4-2.9,7.2-5.5,9.2
				c-1.5,1.2-3.2,2-5.2,2.3c-3.7,0.6-7.7-0.4-11.6-2.7c-8-4.6-15.8-14.5-20.1-26.6c-6.4-18-2.6-34.1,8.4-36.1c2-0.3,4-0.2,6.1,0.4
				C346.5,313.3,348.3,314.1,350.2,315.2z"/>
		</g>
		<g>
			<path class="st5" d="M372.5,366.3l53.5,70.8c-2.5,2-4.5,5-5.5,9.1L367,375.5C369.6,373.5,371.5,370.3,372.5,366.3z"/>
		</g>
		<g>
			<path class="st5" d="M355.6,239.3l0.1,80c-1.8-1.6-3.7-3-5.6-4.1c-1.8-1-3.6-1.8-5.4-2.3l-0.1-79.9c1.8,1.6,3.6,2.9,5.4,3.9
				C351.9,238,353.8,238.8,355.6,239.3z"/>
		</g>
		<g>
			<path class="st5" d="M442.6,437.6c6.8,3.9,12.9,11.2,17.1,19.7c2.2,4.3,3.8,8.9,4.9,13.5c0.8,3.4,1.2,6.8,1.2,10.1
				c0,16.5-10.3,24-23.1,16.6c-12.8-7.4-23.2-26.8-23.2-43.3c0-2.9,0.3-5.6,0.9-7.9c1.1-4.1,3-7.2,5.5-9.1
				C430.2,433.9,436.1,433.8,442.6,437.6z"/>
		</g>
		<g>
			<path class="st5" d="M350,177c3.9,2.3,7.9,5.9,11.6,10.7c2,2.6,3.7,5.5,5.2,8.4c2.6,5,4.5,10.4,5.5,15.5c1.7,8.5,1.1,16.5-2.2,22
				c-3.3,5.5-8.6,7.3-14.4,5.7c-1.8-0.5-3.7-1.3-5.6-2.4c-1.8-1-3.6-2.4-5.4-3.9c-2.1-1.9-4.2-4.1-6.2-6.7
				c-11.1-14.6-14.9-35.2-8.5-45.9C334.2,173.2,342,172.4,350,177z"/>
		</g>
		<g>
			<path class="st5" d="M512.9,448.2c1,4.5,2.6,9.1,4.8,13.6l-53.1,9c-1-4.6-2.7-9.2-4.9-13.5L512.9,448.2z"/>
		</g>
		<g>
			<path class="st5" d="M512.5,431.7c-0.9,4.2-0.8,9.1,0,14.3l-139.8-80.7c0.9-4.1,0.9-9,0-14.2L512.5,431.7z"/>
		</g>
		<g>
			<path class="st5" d="M420.2,187c1.1,5.3,3,10.6,5.6,15.5l-53.5,9.1c-1-5.2-2.9-10.5-5.5-15.5L420.2,187z"/>
		</g>
		<g>
			<path class="st5" d="M426.4,203.7c2.7,4.8,5.9,9.2,9.6,12.6l-69.8,116.4c-2.7-5-6-9.3-9.6-12.6L426.4,203.7z"/>
		</g>
		<g>
			<path class="st5" d="M535,421.9c1.8,1.1,3.7,2.4,5.5,4c2.1,1.9,4.1,4.1,6.1,6.7c11.2,14.8,15,35.2,8.5,45.9
				c-4.3,7.2-12.1,8-20.1,3.4c-3.9-2.3-7.9-5.9-11.6-10.7c-2.2-2.9-4.1-6.1-5.7-9.3c-2.2-4.4-3.8-9.1-4.8-13.6
				c-0.2-0.7-0.3-1.5-0.4-2.2c-0.9-5.1-0.9-10,0-14.3c0.5-2.4,1.3-4.6,2.4-6.5c1.1-1.9,2.5-3.3,4.1-4.4c2.7-1.8,6-2.3,9.5-1.6
				c0.3,0.1,0.6,0.1,0.9,0.2C531.2,420,533.1,420.8,535,421.9z"/>
		</g>
		<g>
			<path class="st5" d="M458.4,222.2l70.1,197.1c-3.5-0.7-6.8-0.2-9.5,1.6l-70.1-197.1C452.5,224.5,455.8,223.9,458.4,222.2z"/>
		</g>
		<g>
			<path class="st5" d="M442.4,161.3c12.8,7.4,23.2,26.8,23.2,43.3c0,3-0.3,5.7-0.9,8c-1.1,4.1-3,7.1-5.6,9.1
				c-0.2,0.2-0.4,0.3-0.6,0.4c-2.6,1.8-5.9,2.3-9.5,1.6c-2.1-0.4-4.2-1.3-6.5-2.6c-2.2-1.3-4.4-3-6.5-4.9c-3.6-3.5-6.9-7.8-9.6-12.6
				c-0.2-0.4-0.4-0.8-0.7-1.2c-2.6-4.9-4.5-10.2-5.6-15.5c-0.6-3.1-1-6.1-1-9.1C419.2,161.3,429.5,153.9,442.4,161.3z"/>
		</g>
		<g>
			<path class="st5" d="M529.3,339.5c1.8,1.7,3.7,3,5.6,4.1c1.8,1,3.6,1.8,5.4,2.3l0.1,79.9c-1.8-1.6-3.6-2.9-5.5-4
				c-1.9-1.1-3.7-1.9-5.6-2.3L529.3,339.5z"/>
		</g>
		<g>
			<path class="st5" d="M464.6,212.6l53.5,70.8c-2.6,2.1-4.4,5.3-5.4,9.3L459,221.7C461.6,219.8,463.5,216.7,464.6,212.6z"/>
		</g>
		<g>
			<path class="st5" d="M534.8,283.7c8,4.6,15.8,14.5,20.1,26.6c6.4,18,2.6,34.1-8.5,36.1c-2,0.3-4.1,0.2-6.2-0.4
				c-1.8-0.5-3.6-1.2-5.4-2.3c-1.9-1.1-3.8-2.5-5.6-4.1c-5.9-5.3-11.2-13.2-14.5-22.4c-3.3-9.2-3.9-17.9-2.2-24.5
				c1-4,2.8-7.2,5.4-9.3c1.5-1.2,3.3-2,5.2-2.3C526.9,280.4,530.9,281.4,534.8,283.7z"/>
		</g>
	</g>
</g>
<g>
	<g class="st14">
		<path class="st15" d="M528.1,489.9c27.1-4.6,54-11.4,79-20.7v66.3c-23.6,9.5-50.4,70-78.9,75.1C528.2,598,528.2,517.4,528.1,489.9
			z"/>
		<path class="st15" d="M607.1,401.9v28.5c-23.6,9.5-50.4,17-78.9,22.2c0-6.6,0-17.3-0.1-29.9C555,418,581.9,411.2,607.1,401.9z"/>
		<path class="st16" d="M528,457.7c0,6.8,0.1,18,0.1,25.6c42.4-7.2,85.4-20.1,121.6-40v-25.6C613.5,437.5,570.5,450.4,528,457.7z"/>
	</g>
	<path d="M558.6,406.3c-15.6,3.9-31.8,6.9-48.1,9.1v210.7c98-13.3,173.4-55.1,173-107.1l0.6-209.3
		C683.2,354.7,626.2,389.2,558.6,406.3z"/>
</g>
<path class="st5" d="M323.4,419.1c-59.4-18.3-106.7-50.6-107.5-91.6l0.6,209.3c-0.3,39.4,43.1,73.1,106.9,92.8V419.1z"/>
<g id="XMLID_28_">
	<polygon id="XMLID_31_" class="st9" points="241.7,301.6 251.4,319.6 271.8,320.2 262.1,302.2 	"/>
	<polygon id="XMLID_30_" class="st10" points="241.7,301.6 252.4,284.3 272.8,284.9 262.1,302.2 	"/>
	<polygon id="XMLID_29_" class="st11" points="271.8,320.2 282.5,302.8 272.8,284.9 262.1,302.2 	"/>
</g>
<g id="XMLID_84_">
	<polygon id="XMLID_87_" class="st0" points="590.9,218.5 575.6,260.3 604.2,294.5 619.5,252.6 	"/>
	<polygon id="XMLID_86_" class="st0" points="590.9,218.5 634.8,210.8 663.3,245 619.5,252.6 	"/>
	<polygon id="XMLID_85_" class="st17" points="604.2,294.5 648,286.8 663.3,245 619.5,252.6 	"/>
</g>
<g>
	<g>
		<path class="st17" d="M598,589.9c22.3,0,41.1-8.6,41.1-18.8v-31.6h-82.1v31.1C556.9,580.9,575.7,589.9,598,589.9z"/>
		<ellipse class="st0" cx="598" cy="539.5" rx="41.1" ry="20.1"/>
		<path class="st17" d="M598,628.5c22.3,0,41.1-8.6,41.1-18.8v-31.3c-7.5,7.7-22.9,15.2-41.1,15.2c-18.2,0-33.5-7.5-41.1-15.2v30.8
			C556.9,619.5,575.7,628.5,598,628.5z"/>
		<path class="st17" d="M598,633.4c-18.2,0-33.5-8.6-41.1-16.3v30.8c0,10.2,18.7,19.3,41.1,19.3c22.3,0,41.1-8.6,41.1-18.8V617
			C631.5,624.7,616.1,633.4,598,633.4z"/>
		<ellipse class="st18" cx="629.9" cy="566.3" rx="1.9" ry="3.4"/>
		<ellipse class="st18" cx="629.9" cy="603.2" rx="1.9" ry="3.4"/>
		<ellipse class="st18" cx="629.9" cy="643.4" rx="1.9" ry="3.4"/>
		<path class="st0" d="M598,628.5c-19.1,0-35.6-6.6-39.9-15c-0.7,1.2-1.1,2.4-1.1,3.7v0.1c0,1.8,0.5,3.6,2.1,5.1
			c8.1,6.6,22.3,10.9,38.9,10.9c0,0,0,0,0,0c16.6,0,30.8-4.3,38.9-10.9c1.9-2.1,2.1-3.3,2.1-5.1c0-1.2-0.4-2.4-1-3.5
			C633.8,622.1,617.2,628.5,598,628.5z"/>
		<path class="st0" d="M598,589.9c-19.1,0-35.6-6.6-39.9-15c-0.7,1.2-1.1,2.4-1.1,3.7v0.1c0,1.8,0.5,3.6,2.1,5.1
			c8.1,6.6,22.3,10.9,38.9,10.9c0,0,0,0,0,0c16.6,0,30.8-4.3,38.9-10.9c1.9-2.1,2.1-3.3,2.1-5.1c0-1.2-0.4-2.4-1-3.5
			C633.8,583.5,617.2,589.9,598,589.9z"/>
	</g>
</g>
<g>
	<g>
		<path class="st1" d="M740,472.5c12.7,0,23.4-4.9,23.4-10.7v-18h-46.8v17.8C716.6,467.3,727.3,472.5,740,472.5z"/>
		<ellipse class="st2" cx="740" cy="443.7" rx="23.4" ry="11.5"/>
		<path class="st3" d="M740,494.5c12.7,0,23.4-4.9,23.4-10.7v-17.8c-4.3,4.4-13.1,8.7-23.4,8.7c-10.4,0-19.1-4.3-23.4-8.7v17.6
			C716.6,489.3,727.3,494.5,740,494.5z"/>
		<path class="st4" d="M740,497.2c-10.4,0-19.1-4.9-23.4-9.3v17.6c0,5.8,10.7,11,23.4,11c12.7,0,23.4-4.9,23.4-10.7v-17.8
			C759.2,492.3,750.4,497.2,740,497.2z"/>
		<ellipse class="st5" cx="758.2" cy="459" rx="1.1" ry="1.9"/>
		<ellipse class="st5" cx="758.2" cy="480.1" rx="1.1" ry="1.9"/>
		<ellipse class="st6" cx="758.2" cy="503" rx="1.1" ry="1.9"/>
		<path class="st7" d="M740,494.5c-10.9,0-20.3-3.8-22.8-8.5c-0.4,0.7-0.6,1.4-0.6,2.1v0.1c0,1,0.3,2.1,1.2,2.9
			c4.6,3.8,12.7,6.2,22.2,6.2c0,0,0,0,0,0c9.5,0,17.6-2.5,22.2-6.2c1.1-1.2,1.2-1.9,1.2-2.9c0-0.7-0.2-1.4-0.6-2
			C760.5,490.8,751,494.5,740,494.5z"/>
		<path class="st2" d="M740,472.5c-10.9,0-20.3-3.8-22.8-8.5c-0.4,0.7-0.6,1.4-0.6,2.1v0.1c0,1,0.3,2.1,1.2,2.9
			c4.6,3.8,12.7,6.2,22.2,6.2c0,0,0,0,0,0c9.5,0,17.6-2.5,22.2-6.2c1.1-1.2,1.2-1.9,1.2-2.9c0-0.7-0.2-1.4-0.6-2
			C760.5,468.8,751,472.5,740,472.5z"/>
	</g>
</g>
<g>
	<g>
		<path class="st17" d="M161.4,477.4c13.1,0,24.1-5,24.1-11.1v-18.6h-48.3V466C137.3,472.1,148.3,477.4,161.4,477.4z"/>
		<ellipse class="st0" cx="161.4" cy="447.7" rx="24.1" ry="11.8"/>
		<path class="st17" d="M161.4,500.1c13.1,0,24.1-5,24.1-11.1v-18.4c-4.4,4.5-13.5,8.9-24.1,8.9c-10.7,0-19.7-4.4-24.1-8.9v18.1
			C137.3,494.8,148.3,500.1,161.4,500.1z"/>
		<path class="st17" d="M161.4,502.9c-10.7,0-19.7-5.1-24.1-9.6v18.1c0,6,11,11.3,24.1,11.3c13.1,0,24.1-5,24.1-11.1v-18.4
			C181.1,497.8,172.1,502.9,161.4,502.9z"/>
		<ellipse class="st5" cx="180.2" cy="463.5" rx="1.1" ry="2"/>
		<ellipse class="st5" cx="180.2" cy="485.2" rx="1.1" ry="2"/>
		<ellipse class="st6" cx="180.2" cy="508.8" rx="1.1" ry="2"/>
		<path class="st0" d="M161.4,500.1c-11.2,0-20.9-3.9-23.5-8.8c-0.4,0.7-0.7,1.4-0.7,2.2v0.1c0,1,0.3,2.1,1.3,3
			c4.7,3.9,13.1,6.4,22.9,6.4c0,0,0,0,0,0c9.7,0,18.1-2.5,22.9-6.4c1.1-1.2,1.3-2,1.3-3c0-0.7-0.2-1.4-0.6-2.1
			C182.5,496.3,172.8,500.1,161.4,500.1z"/>
		<path class="st0" d="M161.4,477.4c-11.2,0-20.9-3.9-23.5-8.8c-0.4,0.7-0.7,1.4-0.7,2.2v0.1c0,1,0.3,2.1,1.3,3
			c4.7,3.9,13.1,6.4,22.9,6.4c0,0,0,0,0,0c9.7,0,18.1-2.5,22.9-6.4c1.1-1.2,1.3-2,1.3-3c0-0.7-0.2-1.4-0.6-2.1
			C182.5,473.6,172.8,477.4,161.4,477.4z"/>
	</g>
</g>
<g>
	<g>
		<path class="st1" d="M241.7,597.5c24.8,0,45.6-9.5,45.6-20.9v-35.1h-91.3v34.6C196.1,587.5,216.9,597.5,241.7,597.5z"/>
		<ellipse class="st2" cx="241.7" cy="541.5" rx="45.6" ry="22.3"/>
		<path class="st3" d="M241.7,640.4c24.8,0,45.6-9.5,45.6-20.9v-34.8c-8.4,8.6-25.5,16.9-45.6,16.9c-20.2,0-37.3-8.3-45.6-16.9V619
			C196.1,630.4,216.9,640.4,241.7,640.4z"/>
		<path class="st4" d="M241.7,645.8c-20.2,0-37.3-9.6-45.6-18.2v34.3c0,11.4,20.8,21.4,45.6,21.4c24.8,0,45.6-9.5,45.6-20.9v-34.8
			C279,636.2,261.9,645.8,241.7,645.8z"/>
		<ellipse class="st5" cx="277.2" cy="571.2" rx="2.1" ry="3.8"/>
		<ellipse class="st5" cx="277.2" cy="612.3" rx="2.1" ry="3.8"/>
		<ellipse class="st6" cx="277.2" cy="657" rx="2.1" ry="3.8"/>
		<path class="st7" d="M241.7,640.4c-21.2,0-39.6-7.4-44.4-16.6c-0.8,1.3-1.2,2.7-1.2,4.1v0.1c0,2,0.6,4,2.4,5.6
			c9,7.4,24.8,12.2,43.3,12.2c0,0,0,0,0,0c18.4,0,34.3-4.8,43.2-12.2c2.1-2.3,2.4-3.7,2.4-5.7c0-1.3-0.4-2.7-1.1-3.9
			C281.6,633.3,263.2,640.4,241.7,640.4z"/>
		<path class="st2" d="M241.7,597.5c-21.2,0-39.6-7.4-44.4-16.6c-0.8,1.3-1.2,2.7-1.2,4.1v0.1c0,2,0.6,4,2.4,5.6
			c9,7.4,24.8,12.2,43.3,12.2c0,0,0,0,0,0c18.4,0,34.3-4.8,43.2-12.2c2.1-2.3,2.4-3.7,2.4-5.7c0-1.3-0.4-2.7-1.1-3.9
			C281.6,590.4,263.2,597.5,241.7,597.5z"/>
	</g>
</g>
<g id="XMLID_1_">
	<polygon id="XMLID_4_" class="st9" points="160.4,315.5 167,327.7 180.9,328.1 174.3,315.9 	"/>
	<polygon id="XMLID_3_" class="st10" points="160.4,315.5 167.7,303.7 181.6,304.1 174.3,315.9 	"/>
	<polygon id="XMLID_2_" class="st11" points="180.9,328.1 188.1,316.3 181.6,304.1 174.3,315.9 	"/>
</g>
<g id="XMLID_5_">
	<polygon id="XMLID_8_" class="st9" points="282.5,141 291.3,157.2 309.7,157.8 301,141.5 	"/>
	<polygon id="XMLID_7_" class="st10" points="282.5,141 292.2,125.3 310.6,125.8 301,141.5 	"/>
	<polygon id="XMLID_6_" class="st11" points="309.7,157.8 319.4,142 310.6,125.8 301,141.5 	"/>
</g>
</svg>
