<?xml version="1.0" encoding="utf-8"?>
<!-- Generator: Adobe Illustrator 21.1.0, SVG Export Plug-In . SVG Version: 6.00 Build 0)  -->
<svg version="1.1" id="Слой_1" xmlns="http://www.w3.org/2000/svg" xmlns:xlink="http://www.w3.org/1999/xlink" x="0px" y="0px"
	 viewBox="0 0 900 712" style="enable-background:new 0 0 900 712;" xml:space="preserve">
<style type="text/css">
	.st0{fill:#DA44D0;}
	.st1{fill:#923CFF;}
	.st2{fill:#B61BB6;}
	.st3{fill:#FFFFFF;}
	.st4{fill:#DEE3F3;}
	.st5{fill:#DB4437;}
	.st6{fill:#0F9D58;}
	.st7{fill:#FFCD40;}
	.st8{opacity:0.21;fill:#2C3542;}
	.st9{fill:#F1F1F1;}
	.st10{fill:#4285F4;}
	.st11{fill:#8B9BC6;}
	.st12{fill:#EBEDF7;}
	.st13{fill:#E7EAF6;}
	.st14{fill:#FFDE00;}
	.st15{fill-rule:evenodd;clip-rule:evenodd;}
	.st16{fill-rule:evenodd;clip-rule:evenodd;fill:#B17EFD;}
</style>
<rect x="100.5" y="104.7" class="st0" width="700" height="512"/>
<path d="M289.7,343c-0.3,0-0.6,0-0.8-0.1c-1.3-0.5-2-1.9-1.5-3.2c38.1-105.6,25-140.7,24.9-141.1c-0.5-1.3,0.1-2.7,1.4-3.2
	c1.3-0.5,2.7,0.1,3.2,1.4c0.6,1.4,14.2,36.7-24.8,144.7C291.7,342.4,290.7,343,289.7,343z"/>
<path d="M319.6,352.7c-0.6,0-1.2-0.2-1.7-0.6c-1-0.9-1.1-2.5-0.2-3.5c23.6-26.4,38-58.6,42.9-95.8c3.9-29.9,1.7-63-6.6-98.4
	c-14.1-60.5-41.4-107.5-41.6-108c-0.7-1.2-0.3-2.7,0.9-3.4c1.2-0.7,2.7-0.3,3.4,0.9c0.3,0.5,27.9,48,42.2,109.2
	c8.4,36.1,10.7,69.8,6.7,100.3c-5,38.2-19.8,71.4-44.1,98.5C321,352.4,320.3,352.7,319.6,352.7z"/>
<path d="M586.5,174.7c-0.1,0-0.1,0-0.1,0c-3.4-0.1-5.5-2.5-6.1-3.9c-0.6-1.3,0-2.7,1.2-3.3c1.3-0.6,2.7,0,3.3,1.2
	c0.1,0.1,0.6,1,1.8,1c0,0,0,0,0,0c1.9,0,9.3-2.3,24.3-31.5c22.7-44.2,9.8-86,9.7-86.4c-0.4-1.3,0.3-2.7,1.6-3.1
	c1.3-0.4,2.7,0.3,3.1,1.6c0.6,1.8,13.7,44.2-10,90.2C603.5,163.5,594,174.7,586.5,174.7z"/>
<path id="cloud_41_" class="st1" d="M455.5,556.6c-13.4-45.7-50.5-82.4-97.4-88.7c-11.5-57.3-52.1-117.8-100.1-144.8
	c-50.4-28.4-91.8-10.1-99.6,40.2c-0.2-0.1-0.3-0.2-0.5-0.3c-35.6-20.1-64.1-3.3-63.8,37.4c-27.6-6.6-47.5,11.1-47.2,45.7
	c0.4,41.7,30.3,92.2,66.6,112.6l204.3,115.2C366.2,710.1,493.8,687.4,455.5,556.6z"/>
<path id="cloud_40_" class="st2" d="M763.4,303.2c-33.7-19.5-62.9-12.3-77.2,14.5c-4.8-3.9-9.7-7.4-14.8-10.4
	c-29.7-17.2-55-9.9-64.5,15.1c-4.5-4.2-9.2-7.8-14.1-10.7c-25.9-15-47-2.8-47,27.1s21,66.4,47,81.3l170.6,98.5
	c47.8,27.6,86.5,1.7,86.5-57.9C849.9,401.4,811.1,330.8,763.4,303.2z"/>
<g>
	<g>
		<g>
			<path class="st3" d="M283.6,358.2l0.4,251.1c0,6.7,4.8,9.4,10.6,6l291.3-166.7c5.8-3.4,10.5-11.5,10.5-18.2L596,179.3
				L283.6,358.2z"/>
			<path class="st4" d="M294,318.8c-5.8,3.4-10.5,11.5-10.5,18.2l0.1,21.2L596,179.3l-0.1-21.2c0-6.7-4.8-9.4-10.6-6L294,318.8z"/>
		</g>
	</g>
	<g>
		<g>
			<path class="st5" d="M421.1,426.4l32.9-71.4l74.5-30c-13.8-22.7-42-30.3-74.5-16.9c-29.5,12.2-55.5,38.5-70.3,67.9v0L421.1,426.4
				z"/>
			<path class="st6" d="M421.1,426.4L383.7,376l0,0c-8.4,16.5-13.3,34.1-13.3,50.9c0,45.2,35.3,68.9,79.7,54.5l36.9-80.6
				L421.1,426.4z"/>
			<path class="st7" d="M528.6,325l-74.5,30l32.9,45.8l-36.9,80.6c0,0,0,0,0,0c1.3-0.4,2.6-0.9,3.9-1.4
				c46.2-17.2,83.6-70.4,83.6-118.8C537.7,346.8,534.4,334.6,528.6,325z"/>
		</g>
		<path class="st8" d="M454.1,355v20.5l74.5-50.4L454.1,355z"/>
		<path class="st8" d="M383.7,376l54.4,33.7l-17,16.6L383.7,376z"/>
		<path class="st8" d="M450.1,481.3l19.9-84.1l17,3.5L450.1,481.3z"/>
		<path class="st9" d="M454.1,355c21-8.4,38,2.4,38,24.1s-17,45.9-38,54c-21,8-38-2.8-38-24.1C416,387.6,433.1,363.4,454.1,355z"/>
		<path class="st10" d="M454.1,362.8c16.8-6.7,30.4,1.9,30.4,19.3c0,17.4-13.6,36.7-30.4,43.2c-16.8,6.5-30.4-2.2-30.4-19.3
			C423.6,388.9,437.3,369.5,454.1,362.8z"/>
	</g>
	<path class="st11" d="M300.5,329.8c2.8-1.1,5,0.3,5,3.2c0,2.9-2.3,6.1-5,7.2c-2.8,1.1-5-0.4-5-3.2
		C295.5,334.1,297.7,330.9,300.5,329.8z"/>
	<path class="st11" d="M314.5,320.9c2.8-1.1,5,0.3,5,3.2s-2.3,6.1-5,7.2c-2.8,1.1-5-0.4-5-3.2C309.5,325.2,311.8,322,314.5,320.9z"
		/>
	<path class="st11" d="M328.6,312.9c2.8-1.1,5,0.3,5,3.2c0,2.9-2.3,6.1-5,7.2c-2.8,1.1-5-0.4-5-3.2S325.8,314,328.6,312.9z"/>
</g>
<g id="XMLID_60_">
	<polygon id="XMLID_63_" class="st4" points="193,251.9 205.8,275.6 232.7,276.4 219.9,252.7 	"/>
	<polygon id="XMLID_62_" class="st12" points="193,251.9 207.1,229 234,229.8 219.9,252.7 	"/>
	<polygon id="XMLID_61_" class="st13" points="232.7,276.4 246.8,253.5 234,229.8 219.9,252.7 	"/>
</g>
<g id="XMLID_56_">
	<polygon id="XMLID_59_" class="st4" points="257.9,483.9 270.1,506.5 295.7,507.2 283.5,484.7 	"/>
	<polygon id="XMLID_58_" class="st12" points="257.9,483.9 271.3,462.1 297,462.8 283.5,484.7 	"/>
	<polygon id="XMLID_57_" class="st13" points="295.7,507.2 309.1,485.4 297,462.8 283.5,484.7 	"/>
</g>
<g id="XMLID_48_">
	<polygon id="XMLID_51_" class="st4" points="689.8,273.5 678.8,303.5 699.3,328 710.3,298 	"/>
	<polygon id="XMLID_50_" class="st12" points="689.8,273.5 721.3,268.1 741.8,292.6 710.3,298 	"/>
	<polygon id="XMLID_49_" class="st13" points="699.3,328 730.8,322.6 741.8,292.6 710.3,298 	"/>
</g>
<g id="XMLID_64_">
	<polygon id="XMLID_67_" class="st4" points="118.3,448.8 109,474.1 126.3,494.8 135.6,469.5 	"/>
	<polygon id="XMLID_66_" class="st12" points="118.3,448.8 144.8,444.2 162.1,464.9 135.6,469.5 	"/>
	<polygon id="XMLID_65_" class="st13" points="126.3,494.8 152.9,490.2 162.1,464.9 135.6,469.5 	"/>
</g>
<path id="cloud_39_" class="st14" d="M523.9,537.1c3.2-1.9,6.4-3.2,9.4-4c0.2-35.2,22-75.6,50-91.8c2.6-1.5,5.2-2.7,7.7-3.7
	c9.6-30,29.5-58.1,53.1-71.7c34.4-19.9,63.7-1.4,65.4,41.3c0,1,0.1,1.9,0.1,2.9c0,0,0,0,0,0c26.4-15.2,48.8-1.1,50.1,31.6
	c1.3,32.7-19,71.5-45.4,86.8L527.9,636.1c-22,12.7-40.8,0.9-41.9-26.4C484.9,582.3,501.9,549.9,523.9,537.1z"/>
<g id="XMLID_52_">
	<polygon id="XMLID_55_" class="st4" points="620.9,568.9 634.9,583.8 654.8,579.2 640.8,564.3 	"/>
	<polygon id="XMLID_54_" class="st12" points="620.9,568.9 626.9,549.4 646.7,544.7 640.8,564.3 	"/>
	<polygon id="XMLID_53_" class="st13" points="654.8,579.2 660.7,559.6 646.7,544.7 640.8,564.3 	"/>
</g>
<g id="XMLID_72_">
	<polygon id="XMLID_75_" class="st4" points="641.1,471.6 659,504.8 696.8,505.9 678.8,472.7 	"/>
	<polygon id="XMLID_74_" class="st12" points="641.1,471.6 660.9,439.4 698.7,440.5 678.8,472.7 	"/>
	<polygon id="XMLID_73_" class="st13" points="696.8,505.9 716.6,473.8 698.7,440.5 678.8,472.7 	"/>
</g>
<g id="XMLID_40_">
	<polygon id="XMLID_43_" class="st4" points="676.7,175.2 670.8,191.3 681.8,204.4 687.7,188.3 	"/>
	<polygon id="XMLID_42_" class="st12" points="676.7,175.2 693.6,172.2 704.6,185.4 687.7,188.3 	"/>
	<polygon id="XMLID_41_" class="st13" points="681.8,204.4 698.7,201.5 704.6,185.4 687.7,188.3 	"/>
</g>
<g>
	<polygon class="st15" points="289.7,44.5 289.7,56.6 414.5,128.4 323.4,185 289.7,200.3 289.7,212.3 327.3,234 461,157 597.9,234 
		635.5,212.3 635.5,200.3 551.1,158.1 510.6,128.4 635.5,56.6 635.5,44.5 597.9,26.9 462.6,100.8 327.3,26.9 	"/>
	<polygon class="st16" points="597.9,221.9 289.7,44.5 327.3,22.9 635.5,200.3 	"/>
	<polygon class="st16" points="327.3,221.9 635.5,44.5 597.9,22.9 289.7,200.3 	"/>
</g>
</svg>
