<?xml version="1.0" encoding="utf-8"?>
<!-- Generator: Adobe Illustrator 21.1.0, SVG Export Plug-In . SVG Version: 6.00 Build 0)  -->
<svg version="1.1" id="Слой_1" xmlns="http://www.w3.org/2000/svg" xmlns:xlink="http://www.w3.org/1999/xlink" x="0px" y="0px"
	 viewBox="0 0 1024 630" style="enable-background:new 0 0 1024 630;" xml:space="preserve">
<style type="text/css">
	.st0{fill:#923CFF;}
	.st1{fill:#FFFFFF;}
	.st2{fill:#B37FFF;}
	.st3{fill:#CDADFF;}
	.st4{fill:#FFDE00;}
	.st5{fill:#F3AB00;}
	.st6{fill-rule:evenodd;clip-rule:evenodd;}
	.st7{fill:#B61BB6;}
	.st8{fill:#DC44D2;}
	.st9{fill:#F08056;}
	.st10{opacity:0.71;}
	.st11{fill:#FF8059;}
	.st12{fill:#C2DCF4;}
	.st13{fill:#EBF2F7;}
	.st14{fill:#CDD5E8;}
	.st15{fill:#1D1D1B;}
	.st16{fill-rule:evenodd;clip-rule:evenodd;fill:#B61BB6;}
	.st17{fill-rule:evenodd;clip-rule:evenodd;fill:#DC44D2;}
	.st18{fill:#3B6CB5;}
	.st19{fill-rule:evenodd;clip-rule:evenodd;fill:#F08056;}
	.st20{fill:#AF80F9;}
	.st21{fill:#C9AEFC;}
	.st22{fill:#6C19D9;}
	.st23{fill:#7732E1;}
	.st24{fill:#823BEB;}
	.st25{opacity:0.4;fill:#DC44D2;}
	.st26{fill:#1E388F;}
	.st27{fill:#726489;}
</style>
<rect x="-0.3" y="61.2" class="st0" width="1024" height="512"/>
<g>
	<path id="cloud_4_" class="st1" d="M497.7,208.4c2.1-12.9,11-26.9,21.8-33c6.3-3.6,12-3.9,16-1.4c2.4-2.5,5.1-4.7,7.9-6.3
		c11.2-6.5,20.4-1.6,20.4,10.8c0,12.5-9.1,27.8-20.4,34.3l-41.5,24c-7.5,4.4-13.7,0.8-13.7-7.9C488.2,221.9,492.2,213.6,497.7,208.4
		z"/>
	<g>
		<path class="st2" d="M636.6,24.2l-14.9,27.6l-29-17l-8.7,3.2l-0.4,223h65.4V30.5C649.1,23.6,642.5,27.7,636.6,24.2z"/>
		<g>
			<path class="st2" d="M633.3,3.4C624,0.6,618,8.6,617.9,18.9l-0.4,114.4c0,10.3,6.9,22.6,15.5,27.2c8.6,4.6,15.6-0.1,15.6-10.4
				l0.4-118.9C649.1,20.9,644.5,6.7,633.3,3.4z"/>
		</g>
		<g>
			<path class="st2" d="M609.4,31.1c-5-1.5-8.3,2.9-8.3,8.5l-0.2,66c0,5.6,3.8,12.2,8.4,14.7c4.6,2.5,8.5,0,8.5-5.6l0.2-68.4
				C618,40.6,615.4,32.9,609.4,31.1z"/>
		</g>
		<g>
			<path class="st2" d="M592.6,3.2c-5-1.5-8.3,2.9-8.3,8.5l-0.2,66c0,5.6,3.8,12.2,8.4,14.7c4.6,2.5,8.5,0,8.5-5.6l0.2-68.4
				C601.1,12.7,598.6,5,592.6,3.2z"/>
		</g>
	</g>
	<path class="st3" d="M631.4,192.6c-0.6,0-1-0.5-1-1v-69.9c0-0.6,0.5-1,1-1c0.6,0,1,0.5,1,1v69.9C632.4,192.1,632,192.6,631.4,192.6
		z"/>
	<path class="st3" d="M631.4,113.7c-0.6,0-1-0.5-1-1V48c0-0.6,0.5-1,1-1c0.6,0,1,0.5,1,1v64.7C632.4,113.3,632,113.7,631.4,113.7z"
		/>
	<path class="st3" d="M618.9,186.4c-0.6,0-1-0.5-1-1v-34.5c0-0.6,0.5-1,1-1s1,0.5,1,1v34.5C619.9,186,619.4,186.4,618.9,186.4z"/>
	<path class="st3" d="M604.1,92.8c-0.6,0-1-0.5-1-1V79.2c0-0.6,0.5-1,1-1s1,0.5,1,1v12.6C605.1,92.3,604.6,92.8,604.1,92.8z"/>
	<path class="st3" d="M604.1,183.3c-0.6,0-1-0.5-1-1v-77.4c0-0.6,0.5-1,1-1s1,0.5,1,1v77.4C605.1,182.9,604.6,183.3,604.1,183.3z"/>
	<polygon points="536.9,198.9 544.6,229.8 590.8,276.5 602.9,255.2 602.9,255.2 629.7,229 637,198.9 570.2,195.4 	"/>
	<ellipse class="st0" cx="587" cy="198.9" rx="50" ry="24.5"/>
	<path id="cloud_3_" class="st1" d="M944.1,280c-10.3-21.8-22.3-39.4-40.9-49.9c-5.9-3.3-11.6-5.5-16.9-6.5c-8-39.5-36-81.3-69-99.9
		c-34.7-19.6-63.3-7-68.7,27.7c-0.1-0.1-0.2-0.1-0.3-0.2c-24.6-13.8-44.2-2.3-44,25.8c-19-4.6-32.8,7.7-32.6,31.5
		c0.3,28.8,20.9,63.6,46,77.7l189.4,107.1C991.1,426.8,1011.1,313.8,944.1,280z"/>
	<path class="st2" d="M770.8,62.7l-10.7-15.6c-2.2-1.4-5,0.1-5,2.7v223.8h24.5V67C779.5,62.5,774.6,65.2,770.8,62.7z"/>
	<g>
		<path class="st2" d="M773.3,34.7c-3.7-1.1-6.1,2.1-6.1,6.2l-0.2,41.9c0,4.1,2.7,8.9,6.1,10.7c3.4,1.8,6.4,0.1,6.4-4l0-43.8
			C779.6,41.6,777.7,36,773.3,34.7z"/>
	</g>
	<g>
		<path class="st2" d="M761,44.2c-3.7-1.1-6.1,2.1-6.1,6.2l0.1,42.7c0,4.1,2.5,8.1,5.9,9.9c3.4,1.8,6.2,0,6.2-4.1l0.2-43.7
			C767.3,51.2,765.5,45.6,761,44.2z"/>
	</g>
	<path id="cloud_2_" class="st1" d="M518.9,340.7c2.7-1.5,5.3-2.7,7.8-3.4c1.3-27.3,20.3-59.3,43.6-72.7c2.2-1.2,4.3-2.3,6.4-3.1
		c8.8-23.6,25.8-46,45.4-57.3c28.6-16.5,51.8-3.1,51.8,29.9c0,0.7,0,1.5,0,2.2c0,0,0,0,0,0c21.9-12.6,39.7-2.4,39.7,22.9
		s-17.8,56.1-39.7,68.7l-154.9,89.5c-18.3,10.6-33.2,2-33.2-19.1C485.7,377,500.6,351.3,518.9,340.7z"/>
	<polygon points="737.1,282.1 744.5,323 800.6,375.3 819.5,349.9 829.3,357.3 867,320.4 877.3,278.2 783.4,273.2 	"/>
	<ellipse class="st2" cx="807" cy="278.2" rx="70.3" ry="34.4"/>
	<g>
		<path class="st4" d="M762.2,270.4c0,15.5,20.7,28.1,46.2,28.1c8.4,0,16.2-1.4,23-3.7c11.9-4.2,20.5-11.5,22.7-20.1
			c0.5-4.8-0.4-9.8-2.3-14.1c-2.8-4.6-7.5-8.6-13.5-11.7c-8-4.1-18.4-6.6-29.8-6.6C782.9,242.3,762.2,254.9,762.2,270.4z M790,266.9
			c0-2.9,8.5-5.2,19.1-5.2c4.4,0,8.5,0.4,11.7,1.1c4.5,0.9,7.4,2.4,7.4,4.1c0,1.3-1.7,2.4-4.5,3.3c-3.5,1.1-8.7,1.8-14.6,1.8
			C798.6,272,790,269.7,790,266.9z"/>
		<path class="st5" d="M776.2,259.8c0,8.3,15.1,15,33.8,15c5.4,0,10.6-0.6,15.1-1.6c11.1-2.5,18.7-7.5,18.7-13.4
			c0-2.4-1.3-4.7-3.5-6.7l0,0c-0.8-0.7-1.7-1.3-2.7-2l0,0c-0.4-0.2-0.7-0.5-1.1-0.7c-6.2-3.4-15.7-5.6-26.4-5.6
			C791.4,244.9,776.2,251.6,776.2,259.8z M790.8,266.7c0-2.6,8.4-4.7,18.8-4.7c4.4,0,8.4,0.4,11.6,1c4.4,0.9,7.2,2.2,7.2,3.7
			c0,1.2-1.7,2.2-4.4,3c-3.4,1-8.6,1.7-14.4,1.7C799.2,271.4,790.8,269.3,790.8,266.7z"/>
		<g>
			<g>
				<g>
					<g>
						<g>
							<g>
								<g>
									<g>
										<g>
											<g>
												<g>
													<g>
														<g>
															<path class="st4" d="M738.1,262.4c0.3,0.9-0.2,1.9-0.9,2.5c-0.7,0.6-1.7,0.9-2.6,1.1c-0.8,0.2-1.7,0.5-2.4,0.1
																c-0.5-0.3-0.8-0.7-1-1.2c-0.5-0.9-1.1-1.7-1.4-2.6c-0.4-1.1-0.6-2.2-1.1-3.2c-0.3-0.7-0.7-1.3-1.1-1.9
																c-1-1.8-1.6-3.8-1.6-5.9c0-0.5,0-0.9,0.3-1.3c0.4-0.6,1.3-0.7,2-0.4c0.7,0.3,1.2,0.9,1.7,1.4c1.5,1.7,3,3.4,4.5,5.1
																c1.5,1.7,3,3.4,3.7,5.5c0.2,0.7,0.2,1.7-0.5,1.8L738.1,262.4z"/>
														</g>
													</g>
												</g>
											</g>
										</g>
									</g>
								</g>
							</g>
						</g>
					</g>
				</g>
			</g>
			<g>
				<g>
					<g>
						<g>
							<g>
								<g>
									<g>
										<g>
											<g>
												<g>
													<g>
														<g>
															<path class="st1" d="M733.8,261.1l0,0.2c-0.1,1.4,0.9,2.6,2.2,2.7l4.2,0.4c1.4,0.1,2.6-0.9,2.7-2.2l0-0.2
																c0.1-1.4-0.9-2.6-2.2-2.7l-4.2-0.4C735.1,258.7,733.9,259.7,733.8,261.1z"/>
														</g>
													</g>
												</g>
											</g>
										</g>
									</g>
								</g>
							</g>
						</g>
					</g>
				</g>
			</g>
			<g>
				<g>
					<g>
						<g>
							<g>
								<g>
									<g>
										<g>
											<g>
												<g>
													<g>
														<g>
															<path class="st4" d="M752.2,290.9c-0.7,0.3-1.5,0.6-2.2,1c-0.8,0.3-1.5,0.7-2.2,1.1c-1,0.6-3,1.9-2.9,3.4
																c0.2,2.1,3,2.6,4.6,2.4c2.4-0.2,4.8-0.6,7.2-1.1c1-0.2,2.1-0.5,2.9-1.2c2.4-2.1,3.7-6.8,0-8.3
																c-1.3-0.6-2.4-0.1-3.5,0.7C754.9,289.6,753.6,290.3,752.2,290.9z"/>
														</g>
													</g>
												</g>
											</g>
										</g>
									</g>
								</g>
							</g>
						</g>
					</g>
				</g>
			</g>
			<g>
				<g>
					<g>
						<g>
							<g>
								<g>
									<g>
										<g>
											<g>
												<g>
													<g>
														<g>
															<path class="st1" d="M757.1,291.3l1.4,0.8c0.8,0.5,1.9,0.2,2.4-0.6l2.8-4.9c0.5-0.8,0.2-1.9-0.6-2.4l-1.4-0.8
																c-0.8-0.5-1.9-0.2-2.4,0.6l-2.8,4.9C756,289.7,756.2,290.8,757.1,291.3z"/>
														</g>
													</g>
												</g>
											</g>
										</g>
									</g>
								</g>
							</g>
						</g>
					</g>
				</g>
			</g>
			<g>
				<g>
					<path class="st6" d="M773.7,244c-6.3,13.8-11.9,27.7-17.2,41.9c0.3,1.9,3.1,4,6.7,4c3.8-6.6,11.8-15.5,15.1-22.4
						c2.7-5.7,3.4-10.1,5-16.6C786.2,242.8,776.5,240.1,773.7,244z"/>
				</g>
				<path class="st6" d="M818.1,247.1c-1.6-0.5-5.8-1.4-12.1-2.6c-6.3-1.2-18.4-2.6-25.9-3.1c-6.7-1.1-10.7,6.4-2.8,11.4
					c10,3,24.7,6.7,37.3,8.6L818.1,247.1z"/>
			</g>
			<g>
				<path class="st6" d="M825.7,261.7c-1.2,2.6-2.2,5.1-3.4,6.8c-3.3,5-6.8,6.6-10.3,6.7c-7.1,0.1-11.7-4.1-26-8.7
					c-3.3-1.1-5.5-1.1-8-1.3c-5-1.4-5.4-11.9,1.7-13.2c2.4-0.3,4.9-0.4,7.3-0.2c6.5,0.5,12.2,0.7,18.8,1.6c0.4-4.5,2-7.7,4.3-9.9
					C810.5,243.4,822.5,259.4,825.7,261.7z"/>
				<g>
					<path class="st6" d="M784,265.8c-6.7-0.3-15.2,1.7-21,1.7c-7,0.1-16.1-1-25.3-2c-1.2-2.2-1.3-6.6-0.1-7.7
						c11.3-0.4,21.8-3.5,30.9-4.7c4.2-0.5,8.6-1.1,13.6-1.8C791.5,250.6,795.5,265,784,265.8z"/>
				</g>
			</g>
			<g>
				<g>
					<g>
						<g>
							<g>
								<g>
									<g>
										<g>
											<g>
												<g>
													<g>
														<g>
															<path class="st7" d="M794.3,237.7c-1.5-1.4-2.1-3.6-1.4-5.6l0,0l6.2-19.5l2.1-0.4c1.1-1.8,0.6-0.4,2.7,0.2
																c1.3,0.3,2.4,1.1,3,2.3c0.6,1.1,0.8,2.3,0.4,3.4l-6.9,22.1l-0.1,0.1c-0.9,1.5-2.7,2.4-4.6,2.3
																c-0.3,0-0.5-0.1-0.8-0.1c-0.1,0,1.1-3,1.1-3L794.3,237.7z"/>
														</g>
													</g>
												</g>
											</g>
										</g>
									</g>
								</g>
							</g>
						</g>
					</g>
				</g>
			</g>
			<g>
				<g>
					<g>
						<g>
							<g>
								<g>
									<g>
										<g>
											<g>
												<g>
													<g>
														<g>
															<path class="st8" d="M824.4,262.9c-2.2,1.7-5.9,1.3-9.7,0.2c-4.1-1.2-8.3-3.4-10.6-5.2l0,0c-0.3-0.2-2.6-1.6-5-3.1
																c-3.2-2-4.5-6-2.9-9.4c3.1-7,5-14.9,3.4-22c-0.4-1.5-0.7-3-0.8-4.5c0-0.2,0-0.5,0-0.7l0.1-0.7l-0.1,0.9
																c-0.4-4.7,0.6-8.8,6-11.4c1-0.5,2.4-0.6,3.9-0.5c0.7,0.1,1.4,0.1,2.1,0.3c9.7,2.7,14.6,6.4,17.1,11.5
																c1.7,3.4,2.3,7.5,2.5,12.5C830.6,238.3,828.4,259.9,824.4,262.9z"/>
														</g>
													</g>
												</g>
											</g>
										</g>
									</g>
								</g>
							</g>
						</g>
					</g>
				</g>
			</g>
			<g>
				<g>
					<g>
						<g>
							<g>
								<g>
									<g>
										<g>
											<g>
												<g>
													<g>
														<g>
															<path class="st7" d="M815.3,211c-0.1,0.7-0.4,1.3-1,1.8c-0.9,0.8-2.3,1.2-3.9,1c-1.5-0.1-2.8-0.8-3.6-1.7
																c-0.5-0.6-0.8-1.3-0.7-2c0.1-0.7,0.5-1.4,1.1-1.9c0.1,0,0.1-0.1,0.2-0.1c0,0,0,0,0,0c0.7-0.5,1.6-0.8,2.7-0.8
																c0.2,0,0.3,0,0.5,0c0.2,0,0.3,0,0.5,0c1.6,0.1,2.9,0.8,3.6,1.7C815.1,209.6,815.4,210.3,815.3,211z"/>
														</g>
													</g>
												</g>
											</g>
										</g>
									</g>
								</g>
							</g>
						</g>
					</g>
				</g>
			</g>
			<g>
				<g>
					<g>
						<g>
							<g>
								<g>
									<g>
										<g>
											<g>
												<g>
													<g>
														<g>
															<g>
																<g>
																	<g>
																		<g>
																			<g>
																				<path class="st9" d="M815.3,199.8l-1,11.2c0,0.4-0.2,0.7-0.6,0.9c-0.9,0.5-2.1,0.8-3.4,0.7
																					c-1.3-0.1-2.2-0.7-2.9-1.3c-0.3-0.3-0.4-0.6-0.4-1l0.8-11.1L815.3,199.8z"/>
																			</g>
																		</g>
																	</g>
																</g>
															</g>
														</g>
													</g>
												</g>
											</g>
										</g>
									</g>
								</g>
							</g>
						</g>
					</g>
				</g>
				<g class="st10">
					<g>
						<g>
							<g>
								<g>
									<g>
										<g>
											<g>
												<g>
													<g>
														<g>
															<g>
																<g>
																	<g>
																		<g>
																			<g>
																				<path class="st9" d="M807,210.3c0,0,1.1-0.1,1.5-0.1c2.4-0.5,4.1-2.6,4.7-4.9l0.8-2.9l0.7-0.9l-0.6,0l-2.9-0.1
																					c-1.3,1.1-2.6,2.1-3.8,3.4L807,210.3z"/>
																			</g>
																		</g>
																	</g>
																</g>
															</g>
														</g>
													</g>
												</g>
											</g>
										</g>
									</g>
								</g>
							</g>
						</g>
					</g>
				</g>
				<g>
					<g>
						<g>
							<g>
								<g>
									<g>
										<g>
											<g>
												<g>
													<g>
														<g>
															<g>
																<g>
																	<g>
																		<g>
																			<g>
																				<path class="st11" d="M815.8,198.9c0,0.4-0.5,0.8-1,1.2c-0.2,0.1-0.3,0.3-0.5,0.4c0,0,0,0,0,0
																					c-0.1,0.1-0.2,0.2-0.3,0.3c-0.1,0.1-0.2,0.3-0.2,0.5c-0.1,0.6-0.2,1.1-0.4,1.7c-0.6,1.7-1.7,3.2-3.1,4.3
																					c-0.3,0.2-0.6,0.4-1,0.6c-0.7,0.4-1.4,0.6-2.1,0.8c-0.3,0.1-0.6,0.1-0.9,0.1c-1.8,0.1-3.7-0.5-5.4-2.2
																					c-0.9-0.9-1.5-2-1.8-3.2c-0.2-0.7-0.4-1.5-0.4-2.2c-0.1-0.9-0.1-1.7-0.2-2.6c-0.1-1.3-0.1-2.7-0.2-4
																					c0-0.5,0-1.1-0.1-1.6c-0.1-0.2-0.1-0.5,0-0.7c0.1-0.7,0.5-1.3,1.1-1.7c0.9-0.6,2-0.7,3.1-0.6
																					c2.2,0.1,4.4,0.4,6.4,1.3c2,0.9,3.7,2.5,4.5,4.5C813.7,196.7,815.8,197.9,815.8,198.9z"/>
																			</g>
																		</g>
																	</g>
																</g>
															</g>
														</g>
													</g>
												</g>
											</g>
										</g>
									</g>
								</g>
							</g>
						</g>
					</g>
				</g>
				<g>
					<g>
						<g>
							<g>
								<g>
									<g>
										<g>
											<g>
												<g>
													<g>
														<g>
															<g>
																<g>
																	<g>
																		<g>
																			<g>
																				<path class="st0" d="M817.4,191.5c-0.3-2-1.1-3.6-2.4-4.8c-1.1-1.1-2.6-1.8-4.4-2.2c-1.1-0.2-2.2-0.4-3.3-0.2
																					c-1.6,0.2-2.9,1.1-4.4,1.7c-1.5,0.6-3.2,0.8-4.6,1.5c-1.5,0.7-2.8,2-2.8,3.6c0,1.7,1.4,3.1,3,3.6
																					c1.6,0.5,3.3,0.4,5,0.2c1.1-0.1,3.5-0.8,4.5-0.3c1.6,0.7,1.2,3.1,2.1,4.3c0.3,0.4,0.7,0.6,1.1,0.5
																					c1-0.2,1.3-1.6,2.2-2.1c0.7-0.3,1.5,0.1,1.8,0.7c0.3,0.6,0.2,1.4-0.2,2c-0.4,0.6-1.3,0.8-1.7,1.3
																					c-0.3,0.4-0.1,1.1,0.1,1.7c0.2,0.5,0.6,1.1,1.1,1.2C818.6,205.2,817.7,193.4,817.4,191.5z"/>
																			</g>
																		</g>
																	</g>
																</g>
															</g>
														</g>
													</g>
												</g>
											</g>
										</g>
									</g>
								</g>
							</g>
						</g>
					</g>
				</g>
			</g>
			<g id="XMLID_2_">
				<g>
					<g>
						<g>
							<g>
								<g>
									<g>
										<g>
											<g>
												<g>
													<g>
														<g>
															<g>
																<path class="st12" d="M811.3,246.2l-21.7-12.7l-21.1,11.8l22,13.5c0.9,0.6,2.1,0.6,3.1,0.1l18.1-10.1
																	c0.3-0.2,0.5-0.5,0.5-0.8l0,0C812.3,247.2,811.9,246.5,811.3,246.2z"/>
															</g>
														</g>
													</g>
												</g>
											</g>
										</g>
									</g>
								</g>
							</g>
						</g>
					</g>
					<g>
						<g>
							<g>
								<g>
									<g>
										<g>
											<g>
												<g>
													<g>
														<g>
															<g>
																<path class="st13" d="M791.2,258.6l-23.6-14.4l20.1-11.2c0.6-0.4,1.4-0.3,2,0l21.6,13.2c0.4,0.2,0.4,0.8,0,1.1
																	L791.2,258.6z"/>
															</g>
														</g>
													</g>
												</g>
											</g>
										</g>
									</g>
								</g>
							</g>
						</g>
					</g>
					<g>
						<g>
							<g>
								<g>
									<g>
										<g>
											<g>
												<g>
													<g>
														<g>
															<g>
																<polygon class="st14" points="780.8,238.1 799.8,249.1 791.7,254.2 773.3,242.9 																"/>
															</g>
														</g>
													</g>
												</g>
											</g>
										</g>
									</g>
								</g>
							</g>
						</g>
					</g>
					<g>
						<g>
							<g>
								<g>
									<g>
										<g>
											<g>
												<g>
													<g>
														<g>
															<g>
																<polygon class="st14" points="802.2,242.6 793.1,236.7 788.3,239.3 797.5,245.4 																"/>
															</g>
														</g>
													</g>
												</g>
											</g>
										</g>
									</g>
								</g>
							</g>
						</g>
					</g>
					<path class="st11" d="M799.8,232.8c-0.4-0.5-0.9-0.9-1.5-1.2c-1.9-0.7-3.1,0.2-4.7,2l-12.3,16.2c-0.7,1.9,0.2,0.1,2.1,0.8
						c0.4,0.2,0.8,0.3,1.2,0.3c1.5,0,1.3,2.2,2,0.8c2.6-5.8,12.1-13.3,12.1-13.3C799.2,236.5,799.6,234.8,799.8,232.8z"/>
					<g>
						<g>
							<g>
								<g>
									<g>
										<g>
											<g>
												<g>
													<g>
														<g>
															<g>
																<g>
																	<path class="st1" d="M793.4,257.3l-2.2-21.3c-0.1-0.5-0.4-1-0.8-1.2c0,0-11.1-6.8-11.1-6.8l-10.5-6.6
																		c-0.3-0.2-0.6-0.2-0.8-0.2l0,0l0,0c-0.3,0-2.1,1-2.1,1l1.2,0.7l2.2,20.4c0.1,0.5,0.4,1,0.8,1.2l21.8,13.8
																		C791.7,258.3,793.2,257.4,793.4,257.3z"/>
																</g>
															</g>
														</g>
													</g>
												</g>
											</g>
										</g>
									</g>
								</g>
							</g>
						</g>
						<g>
							<g>
								<g>
									<g>
										<g>
											<g>
												<path d="M767.2,222.2l10.5,6.6c0,0,11.1,6.8,11.1,6.8c0.4,0.3,0.7,0.7,0.8,1.2l2.2,20.8c0.1,1.1-0.9,1.6-1.9,1
													l-21.6-13.4c-0.4-0.3-0.7-0.7-0.8-1.2l-2.2-20.8C765.3,222.2,766.3,221.6,767.2,222.2z"/>
											</g>
										</g>
									</g>
								</g>
							</g>
						</g>
					</g>
				</g>
			</g>
			<g>
				<g>
					<g>
						<g>
							<g>
								<g>
									<g>
										<g>
											<g>
												<g>
													<g>
														<g>
															<g>
																<path class="st11" d="M828.6,224.6l-2.2,23.1c-0.8,3-2.7,6-5.9,6.6c0,0-13.1-3.5-17.5-3.1c-0.9,0.1-2,2.6-2.9,2.4
																	c-1.3-0.3-2.4-1.3-2.9-2.6c-0.9-2.2,0.1-5.2,2.5-5.6c4.4-0.7,17.7,0.9,17.7,0.9c0.3-0.1,0.6-0.4,0.7-0.8l2.2-23.1
																	c0.6-2.3,3-3.7,5.3-3.1C827.8,219.9,829.2,222.3,828.6,224.6z"/>
															</g>
														</g>
													</g>
												</g>
											</g>
										</g>
									</g>
								</g>
							</g>
						</g>
					</g>
				</g>
			</g>
			<g>
				<g>
					<g>
						<g>
							<g>
								<g>
									<g>
										<g>
											<g>
												<g>
													<g>
														<g>
															<path class="st8" d="M824.1,216.4c2.8,0.3,4.9,3.3,4.5,6.8l-2.1,22.5l-0.1,0.1c-1.4,1.8-2.8,2.6-4.8,2.4
																c-0.3,0-0.6-0.1-0.9-0.1c-1.3-0.3-2.9-1.1-4.3-2.3l-0.1-0.1l2.2-23.4C818.7,218.8,821.3,216.2,824.1,216.4z"/>
														</g>
													</g>
												</g>
											</g>
										</g>
									</g>
								</g>
							</g>
						</g>
					</g>
				</g>
			</g>
			<g>
				<g>
					<g>
						<g>
							<g>
								<g>
									<g>
										<g>
											<g>
												<g>
													<g>
														<g>
															<path class="st11" d="M796.3,253.5l3.4-4.8c0.3-0.7,0-1.5-0.7-1.8l0,0c-0.7-0.3-1.5,0-1.8,0.7L795,253
																C794.7,253.7,796,254.2,796.3,253.5z"/>
														</g>
													</g>
												</g>
											</g>
										</g>
									</g>
								</g>
							</g>
						</g>
					</g>
				</g>
			</g>
		</g>
		<path class="st4" d="M808.1,234.7c0.2,6.6,7.2,18.8,13.3,19.5c2.1,0.2,14.3-2.8,18-5.3c6.9-4.6,6-12.5,5.7-16.8
			c-0.5-6.9-6.4-15.4-14.5-16.3C824.4,215.1,807.6,215.7,808.1,234.7z"/>
		
			<ellipse transform="matrix(0.9141 -0.4054 0.4054 0.9141 -23.5264 358.11)" class="st15" cx="833.7" cy="234.6" rx="1.7" ry="2.6"/>
		<path d="M833.3,245.6c-1,2.9,3.4,2.2,7.5,3c10.1,1.7,10.4,0.4,11.7-1.8c0.9-1.5,0.1-5.1-1.1-5.2
			C850.2,241.4,834,243.5,833.3,245.6z"/>
		<path class="st11" d="M833.2,246.2c0.6,1.4,2-1.5,5.9-0.1c5.2,1.8,12.4-3.9,15.2-7.8c0.3-0.4,0.6-1.6-0.3-2
			c-1.1-0.5-4.8,0.8-7.5-1.1c-1.3-0.9-1.2-1.7-1.7-1.7c-2.5,0.3-6.9,5.9-9.2,9.1C834.7,243.8,832.8,245.4,833.2,246.2z"/>
		<path class="st4" d="M831.4,294.8c4.3-1.5,8.2-3.5,11.5-5.7c-1.9-8.8-8.4-16.8-16.9-19.9c-0.6,0.3-1.4,0.6-2.3,0.9
			c-3.5,1.1-8.7,1.8-14.6,1.8c-8.7,0-16.1-1.6-18.3-3.8c-1.1,0.2-1.6,1.1-3.2,1.4c-1.5,0.3-1.8,0.4-3,0.4c-3.4,2.5-5.7,6.1-7.5,9.9
			c-1.4,3.1-2.5,6.4-2.2,9.7c8.4,5.4,20.4,8.8,33.6,8.8C816.8,298.6,824.6,297.2,831.4,294.8z"/>
		<path class="st5" d="M786.9,269.8c-0.1,0-0.2,0-0.2,0c-0.1,0-0.1,0-0.2,0c-0.1,0-0.1,0-0.2,0c-0.1,0-0.2,0-0.2,0c0,0-0.1,0-0.1,0
			c-0.1,0-0.1,0-0.2,0c0,0-0.1,0-0.1,0c-0.1,0-0.3,0-0.4,0c6.2,2.9,14.9,4.7,24.7,4.7c5.4,0,10.6-0.6,15.1-1.6c2-0.4,3.9-1,5.6-1.6
			c0,0,0,0-0.1,0c-0.4-0.3-0.9-0.5-1.4-0.8c-0.1,0-0.1-0.1-0.2-0.1c-0.5-0.3-1.1-0.5-1.6-0.8c-0.2-0.1-0.4-0.2-0.6-0.2
			c-0.3-0.1-0.6-0.3-0.9-0.4c-0.6,0.3-1.5,0.3-2.4,0.6c-3.5,1.1-8.9,1.6-14.7,1.6c-8.7,0-13.8-1.4-16.5-2.5l-1.6-0.6
			c-0.1,0-0.3,0.1-0.4,0.1c0,0,0,0,0,0c-0.5,0.2-1,0.5-1.5,0.8c0,0,0,0-0.1,0c-0.1,0.1-0.3,0.1-0.4,0.2c0,0-0.1,0-0.1,0.1
			c-0.2,0.1-0.4,0.1-0.7,0.2c-0.2,0-0.3,0.1-0.4,0.1C787,269.8,787,269.8,786.9,269.8z"/>
		<path class="st4" d="M812.1,246c0.1,0.1,1.7,3.6,1.8,3.7c0.3,0.5,0.6,1,0.9,1.5v0c2.2,3.8,4.3,7.6,6,11.6c1,2.2,1.8,4.3,2.6,6.6
			c0.1,0.3,0.2,0.6,0.3,0.8c0.2,0.6,0.4,1.1,0.5,1.7c0.2,0.7,0.4,1.4,0.6,2.2c0.2,0.8,0.4,1.6,0.6,2.4c0.3,1.3,0.6,2.6,0.8,4
			c0.6,3.9,0.9,7.9,0.6,12c0,0.6-0.1,1.2-0.1,1.8c0,0.1,0,0.2,0,0.4c1.7,0.2,3.2,0.2,4.7,0.2c11.9-4.2,20.5-11.5,22.7-20.1
			c1.2-5.5-0.4-9.8-2.3-14.1c-2.8-4.6-7.5-8.6-13.5-11.7c-0.5,0-1.1,0.1-1.8,0.3c-2.9,0.5-7.2,1.6-11.8,1.6h0
			C820.6,250.7,811.7,245.4,812.1,246z"/>
	</g>
	<g>
		<path class="st2" d="M832,469.1l-14.3,46c-3.4,2.1-7.8-0.3-7.8-4.3V299.7h37.9v184.9C847.7,492,838.2,465.3,832,469.1z"/>
		<g>
			<path class="st2" d="M822,411.5c7.4-2.2,12.1,4.2,12.2,12.4l0.4,83.9c0,8.2-5.5,17.9-12.3,21.5c-6.8,3.6-12.4-0.1-12.4-8.2
				l-0.4-87.4C809.5,425.4,813.2,414.2,822,411.5z"/>
		</g>
		<g>
			<path class="st2" d="M841,433.5c4-1.2,6.6,2.3,6.6,6.7l0.2,45.5c0,4.4-3,9.7-6.6,11.7c-3.7,2-6.7,0-6.7-4.5l-0.2-47.4
				C834.2,441,836.2,434.9,841,433.5z"/>
		</g>
	</g>
	<path class="st3" d="M824.8,388.3c-0.6,0-1-0.5-1-1v-62.9c0-0.6,0.5-1,1-1c0.6,0,1,0.5,1,1v62.9
		C825.8,387.9,825.4,388.3,824.8,388.3z"/>
	<polygon points="613.9,392.1 625.4,454.2 710.7,535.7 739.3,497.2 754.2,508.4 811.4,452.4 826.4,393.7 684.5,380.8 	"/>
	<ellipse cx="720.3" cy="388.3" rx="106.7" ry="52.2"/>
	<ellipse class="st2" cx="721.6" cy="388.3" rx="78.1" ry="36.5"/>
	<ellipse class="st2" cx="721.6" cy="388.3" rx="78.1" ry="36.5"/>
	<g>
		<path class="st2" d="M689.3,136.1L703,89c4.6-3.5,10.9,15.5,10.9,21.2l0.2,247.4h-51.6V155.9C662.6,155.9,687.2,137.8,689.3,136.1
			z"/>
		<g>
			<path class="st2" d="M701.6,86.7c7.3-2.4,12,3.3,12.2,12.4l0.4,84.2c0,8.2-5.5,17.9-12.3,21.6c-6.8,3.7-12.4-0.1-12.4-8.3
				l-0.4-87.8C689.1,98.4,693.3,89.5,701.6,86.7z"/>
		</g>
		<g>
			<path class="st2" d="M669.4,128.1c4-1.2,6.6,2.3,6.6,6.7l0.2,45.6c0,4.5-3,9.7-6.7,11.7c-3.7,2-6.7,0-6.7-4.5l-0.2-47.6
				C662.6,135.6,664.6,129.5,669.4,128.1z"/>
		</g>
		<g>
			<path class="st2" d="M682.5,107.3c4-1.2,6.6,2.3,6.6,6.7l0.2,76.4c0,4.5-3,9.7-6.7,11.7c-3.7,2-6.7,0-6.7-4.5l-0.2-78.3
				C675.7,114.9,677.7,108.8,682.5,107.3z"/>
		</g>
	</g>
	<g>
		<g>
			<g>
				<g>
					<g>
						<g>
							<g>
								<g>
									<g>
										<g>
											<path d="M628.5,257.8c-1.9-2.3-4.2-1.7-5.1-0.6c-1.6-2.3-5-3.3-7.8-3c-6.1,0.7-11,6-12.7,11.9c-0.7,2.5-0.9,5.1-0.8,7.7
												c-2.5,1.2-5,2.4-7.1,4c-3.3,2.5-5.6,7-4,10.8c0.4,1,1.1,1.8,1.4,2.9c0.7,2.4-1,4.8-2.8,6.5c-1.8,1.7-4,3.2-5,5.5
												c-1.2,2.9,0,6.6,2.7,8.1c4.2,2.4,9.4-0.4,12.9-3.7c0.4-0.4,0.8-0.7,1.2-1.1c3.2-3,6.4-6.3,10.7-6.7
												c1.1-0.1,2.2,0,3.2-0.2c3-0.7,4.8-4,5-7.1c0.2-3.1-0.9-6.2-1.5-9.2c-0.6-3.1-0.8-6.5,1-9.1c0.2-0.3,0.4-0.6,0.7-0.8
												c2.3-2.6,6.2-3.7,8.3-6.6C630.7,264.4,630.6,260.4,628.5,257.8z"/>
										</g>
									</g>
								</g>
							</g>
						</g>
					</g>
				</g>
			</g>
		</g>
		<g>
			<path class="st16" d="M624.5,335.3c-3.7,8.6-3.2,20.4-1.7,23.3c4.3,8.1,9.3,11.2,14.6,11.8c10.8,1.4,18.5-4.4,41.1-9.1
				c5.2-1.1,8.5-0.9,12.4-0.7c7.9-1.3,9.4-13.6-1.2-16.7c-3.7-0.9-31.5,1.4-48.9,9.4c0.1-7,7.7-27.4,4.5-31.2
				C644.9,322.1,629.8,332.3,624.5,335.3z"/>
			<g>
				<path class="st16" d="M679,352.4c-0.3,8.5-3.8,19.2-4.5,26.5c-0.9,8.8,0.4,4.4,0.7,16.1c2.6,1.7,11.5,2.3,13,0.9
					c1.6-3.2,7.4-33.3,8.9-39.6C699.6,342.6,681.9,341.2,679,352.4z"/>
			</g>
		</g>
		<path class="st9" d="M660.2,331.4c0,0,12.3,2.3,15,0.7s-6.3,8.9-6.3,8.9l-9.4,4.5l-4.8-2.1l-3-7.3L660.2,331.4z"/>
		<g>
			<path class="st17" d="M615.1,353.3c-3.7,8.6-2.8,20.2-1.7,23.3c2.9,8,8.5,9.6,13.9,9.7c13.6,0.2,19.2-2.3,41.9-6.9
				c5.2-1.1,8.5-0.9,12.4-0.7c7.9-1.3,10.2-17.2-0.4-20.3c-3.7-0.9-7.4-1.5-11.2-1.6c-10-0.3-18.7-0.9-28.9-0.7
				c0.1-7-1.7-12.1-5-15.9C635.5,340.1,620.3,350.4,615.1,353.3z"/>
			<g>
				<path class="st17" d="M667.8,367c-0.4,9.6-4.3,21.6-5.1,29.9c-1,10,5-9.5,5.3,3.7c2.9,2,4.3,1.6,6,0c3.9-8.7,7.2,3,9.9-9.9
					c1.2-5.9,2.7-12.2,4.3-19.3C690.5,358.1,670.4,350.5,667.8,367z"/>
			</g>
		</g>
		<g>
			<g>
				<g>
					<g>
						<g>
							<g>
								<g>
									<g>
										<g>
											<g>
												<path class="st4" d="M639.2,291.1c1.2-1,2.8-1.7,4.5-1.8c4-0.1,7.3,3,7.4,7c0.4,13.2,0.4,13.2,0.9,16.1
													c1,6.1,3.8,12.5,8.1,19c2.2,3.3,1.3,7.8-2,10c-3.3,2.2-7.8,1.3-10-2c-5.5-8.2-8.9-16.4-10.3-24.6
													c-0.7-3.9-0.7-4.2-1.1-18.1C636.7,294.5,637.7,292.5,639.2,291.1z"/>
											</g>
										</g>
									</g>
								</g>
							</g>
						</g>
					</g>
				</g>
			</g>
		</g>
		<g>
			<g>
				<g>
					<g>
						<g>
							<g>
								<g>
									<g>
										<g>
											<g>
												<g>
													<path class="st5" d="M612.8,306.1l2.3,8.7l3.5,26.3c0.5,1.8,1.6,3.2,3.2,4c4.2,2.1,9.7,10.5,21.7,5.4
														c1.9-0.8,4.4,0.7,4.8-1.4l9.2-30.2l0.1-0.4c0.6-3,0.1-6.2-1.3-8.9l-4.4-8.4v-4.5c0-5.3-4.7-9.2-9.5-7.7l-1.6,0.6
														l-2.6,0.9l-11.5,4l-3.4,1.2l-6.6,2.3C613.7,299.2,611.9,302.7,612.8,306.1z"/>
												</g>
											</g>
										</g>
									</g>
								</g>
							</g>
						</g>
					</g>
				</g>
				<g>
					<g>
						<g>
							<g>
								<g>
									<g>
										<g>
											<g>
												<g>
													<path class="st4" d="M612.8,306.1l2.3,8.7c1.2,1.4,2.3,2.9,3.5,4.3c2.4,3,5,6.1,8.4,7.7c5.7,2.6,12.2,0.5,17.9-2
														c3.6-1.5,7.1-3.1,10.5-4.8c0.7-0.3,1.4-0.7,2.1-1.1l0.1-0.4c0.6-3,0.1-6.2-1.3-8.9l-4.4-8.4v-4.5
														c0-5.3-4.7-9.2-9.5-7.7l-1.6,0.6c0,0-2.5,0.8-2.6,0.9C631.8,292.8,610.1,296,612.8,306.1z"/>
												</g>
											</g>
										</g>
									</g>
								</g>
							</g>
						</g>
					</g>
				</g>
			</g>
		</g>
		<g>
			<g>
				<g>
					<g>
						<g>
							<g>
								<g>
									<g>
										<g>
											<g>
												<g>
													<path class="st4" d="M613.1,350.4c2.8-0.7,5.2-2.9,5.9-6l8.1-36.9c0.9-4.3-1.8-8.5-6-9.4c-4.3-0.9-8.5,1.8-9.4,6
														l-8.1,36.9c-0.9,4.3,1.8,8.5,6,9.4C610.8,350.7,612,350.6,613.1,350.4z"/>
												</g>
											</g>
										</g>
									</g>
								</g>
							</g>
						</g>
					</g>
				</g>
			</g>
			<g>
				<g>
					<g>
						<g>
							<g>
								<g>
									<g>
										<g>
											<g>
												<g>
													<g>
														<path class="st9" d="M653,353.1c3.4-1,5.3-4.6,4.2-8c-1-3.4-2.4-0.6-5.8,0.4c-24.4,7.6-33-5.1-33-5.2
															c-1.6-3.2-5.4-4.4-8.6-2.9c-3.2,1.6-4.4,5.4-2.9,8.6C608,347.9,617.3,364.2,653,353.1z"/>
													</g>
												</g>
											</g>
										</g>
									</g>
								</g>
							</g>
						</g>
					</g>
				</g>
				<g>
					<g>
						<g>
							<g>
								<g>
									<g>
										<g>
											<g>
												<g>
													<g>
														<path class="st9" d="M651.2,343.5L651.2,343.5c-0.1,1.4,1,2.6,2.4,2.8l6.1,0.6c1.4,0.1,2.6-0.9,2.8-2.2l0,0
															c0.1-1.4-1-2.6-2.4-2.8l-6.1-0.6C652.5,341.1,651.3,342.1,651.2,343.5z"/>
													</g>
												</g>
											</g>
										</g>
									</g>
								</g>
							</g>
						</g>
					</g>
				</g>
			</g>
		</g>
		<g>
			<g>
				<g>
					<g>
						<g>
							<g>
								<g>
									<g>
										<g>
											<g>
												<path class="st18" d="M627.7,279.8C627.7,279.8,627.7,279.8,627.7,279.8c0.1,0,0.1-0.2,0.1-0.3
													C627.8,279.6,627.8,279.7,627.7,279.8z"/>
											</g>
										</g>
									</g>
								</g>
							</g>
						</g>
					</g>
				</g>
			</g>
			<g>
				<g>
					<g>
						<g>
							<g>
								<g>
									<g>
										<g>
											<g>
												<g>
													<g>
														<g>
															<g>
																<g>
																	<g>
																		<path class="st9" d="M639,281.3v12.6c0,0.1,0,0.1,0,0.2c0,0.7-0.2,1.4-0.4,2.1c-0.9,2.4-3.2,4-5.9,4
																			c-3.5,0-6.3-2.8-6.3-6.3v-12.6c0-1.3,0.4-2.5,1.1-3.5c0.7-1,1.7-1.9,2.9-2.4c0.7-0.3,1.5-0.4,2.3-0.4
																			c1.7,0,3.3,0.7,4.5,1.9C638.3,278,639,279.6,639,281.3z"/>
																	</g>
																</g>
															</g>
														</g>
													</g>
												</g>
											</g>
										</g>
									</g>
								</g>
							</g>
						</g>
					</g>
					<g>
						<g>
							<g>
								<g>
									<g>
										<g>
											<g>
												<g>
													<g>
														<g>
															<g>
																<g>
																	<g>
																		<path class="st9" d="M639,281.3v12.6c0,0.1,0,0.1,0,0.2c0,0.7-0.2,1.4-0.4,2.1c-6-3.6-12.8-31.7-15.2-35.3l3,20.4
																			c0-1.3,0.4-2.5,1.1-3.5c0.7-1,1.7-1.9,2.9-2.4c0.7-0.3,1.5-0.4,2.3-0.4c1.7,0,3.3,0.7,4.5,1.9
																			C638.3,278,639,279.6,639,281.3z"/>
																	</g>
																</g>
															</g>
														</g>
													</g>
												</g>
											</g>
										</g>
									</g>
								</g>
							</g>
						</g>
					</g>
				</g>
				<g>
					<g>
						<g>
							<g>
								<g>
									<g>
										<g>
											<g>
												<g>
													<path class="st9" d="M643.6,261.2c-0.1,1.3-1.2,2.2-2.3,2.7c-1.2,0.4-2.5,0.4-3.7,0.6c-4.1,0.5-7.9,2.5-10.6,5.6
														c-6,7,1.2,19.2,9.6,20.4c4.2,0.6,8.8-0.7,11.6-4c2.8-3.3,3.5-8,3.3-12.3c-0.1-4.4-0.8-8.7-0.2-13
														C648.7,261.2,646.2,261.2,643.6,261.2z"/>
												</g>
											</g>
										</g>
									</g>
								</g>
							</g>
						</g>
					</g>
				</g>
				<g>
					<g>
						<g>
							<g>
								<g>
									<g>
										<g>
											<g>
												<g>
													<path d="M653.8,259.9c-1.5-1.1-3.6-1.7-5.4-2.4c-2.6-1.1-4.3-3-7.1-3.8c-2.9-0.8-6-1.1-8.9-0.3c-2.3,0.6-4.4,1.8-6,3.5
														c-1.6,1.7-2.1,3.9-3.6,5.6c-1.4,1.6-1.5,3.9-1.3,6c0.5,5.2,2.2,10.3,4.9,14.8c0.3-0.2,0.6-0.5,0.9-0.8
														c0.2-1,0-2.2-0.7-3c-0.4-0.5-0.9-0.8-1.3-1.4c-0.4-0.6-0.4-1.4-0.4-2.1c0.1-0.7,0.3-1.5,0.8-2.1c0.5-0.6,1.3-0.9,2-0.6
														c0.2,0.1,0.3,0.1,0.4,0.3c0.1,0.2,0.1,0.4,0.1,0.6c-0.1,2-0.4,3.6,0.6,5.3c3.5-1.5,5.6-5.4,5.8-9.1
														c6,0,10.9-3.2,16.3-3.7l0.2,3.7c1.5-0.2,3.7-2.5,4.3-3.8c0.7-1.5,0.7-3.4-0.1-4.8C655.1,261,654.5,260.4,653.8,259.9z"
														/>
												</g>
											</g>
										</g>
									</g>
								</g>
							</g>
						</g>
					</g>
				</g>
				<g>
					<g>
						<g>
							<g>
								<g>
									<g>
										<g>
											<g>
												<g>
													<g>
														<path class="st9" d="M631.2,278.1c-0.3-0.2-0.6-0.4-0.9-0.8c-0.4-0.8-0.6-1.7-0.9-2.6c-0.6-1.7-2-3.3-3.3-2.8
															c-1.2,0.4-1.9,2.4-1.7,4.2c0.2,1.7,1.1,3.2,2.1,4.2c1,1,2.2,1.7,3.3,1.3c1-0.3,1.8-1.8,1.5-3.1
															C631.3,278.3,631.2,278.2,631.2,278.1z"/>
													</g>
												</g>
											</g>
										</g>
									</g>
								</g>
							</g>
						</g>
					</g>
				</g>
			</g>
		</g>
		<g>
			<path class="st19" d="M680.4,328.6c1.3,0.3,2.8,0.6,4.4,0.7c-0.4,3.1-3.4,2.7-5.8,2.5L680.4,328.6z"/>
			<g>
				<g>
					<g>
						<g>
							<g>
								<g>
									<g>
										<g>
											<g>
												<g>
													<g>
														<g>
															<path class="st1" d="M639,361.4c-0.7-0.5-0.9-1.5-0.5-2.3c2.4-5.3,9.2-18.2,11.7-23.6c0.3-0.6,0.5-1.3,1.1-1.6
																c0,0,15.1-8.4,15.1-8.5l14.2-8.2c0.4-0.2,0.8-0.3,1.1-0.3l0,0l0,0c0.4,0,2.4,1.2,2.4,1.2l-1.2,1L670.6,343
																c-0.1,0.6-0.5,1.3-1.1,1.6l-27.8,17.8C641,362.7,639.8,361.9,639,361.4z"/>
														</g>
													</g>
												</g>
											</g>
										</g>
									</g>
								</g>
							</g>
						</g>
					</g>
				</g>
				<g>
					<g>
						<g>
							<g>
								<g>
									<g>
										<path d="M682.5,318.4l-14.2,8.2c0,0-15.1,8.5-15.1,8.5c-0.6,0.3-0.8,1-1.1,1.6c-2.6,5.4-8.6,17.1-12.1,23.8
											c-0.7,1.2,0.9,2.7,2.2,1.9l29.3-16.6c0.6-0.3,0.8-1,1.1-1.6c3.1-6.5,8.7-17.6,11.9-23.8
											C685.3,318.6,683.8,317.6,682.5,318.4z"/>
									</g>
								</g>
							</g>
						</g>
					</g>
				</g>
			</g>
			<path class="st19" d="M678.4,331.1c2.2,1.1,2.3,0.1,1.9,1.7c-0.5,2.3-5.2,7.7-7.6,8.8c0,0-1.3,0.4-1.9-0.3
				c-0.6-0.6,0.1-0.9,0.9-2.3l3.7-6.3C676.6,330.8,677,330.4,678.4,331.1z"/>
		</g>
	</g>
	<g>
		<path class="st20" d="M546.8,594.1c-12.2,0-22.6-5.8-27.7-11v20.8c0,6.9,12.6,13,27.7,13c15,0,27.7-5.8,27.7-12.7v-21.1
			C569.4,588.2,559.1,594.1,546.8,594.1z"/>
		<path class="st21" d="M546.8,590.8c-12.9,0-24-4.5-26.9-10.1c-0.5,0.8-0.7,1.6-0.8,2.5v0.1c0,1.2,0.4,2.5,1.4,3.4
			c5.4,4.5,15,7.4,26.2,7.4c0,0,0,0,0,0c11.2,0,20.8-2.9,26.2-7.4c1.3-1.4,1.4-2.2,1.4-3.5c0-0.8-0.2-1.6-0.7-2.4
			C571,586.5,559.8,590.8,546.8,590.8z"/>
		<path class="st22" d="M546.8,539.2c15,0,27.7-5.8,27.7-12.7v-21.3h-55.3v21C519.2,533.1,531.8,539.2,546.8,539.2z"/>
		<ellipse class="st8" cx="546.8" cy="505.3" rx="27.7" ry="13.5"/>
		<path class="st23" d="M546.8,565.2c15,0,27.7-5.8,27.7-12.7v-21.1c-5.1,5.2-15.4,10.2-27.7,10.2c-12.2,0-22.6-5-27.7-10.2v20.8
			C519.2,559.1,531.8,565.2,546.8,565.2z"/>
		<path class="st24" d="M546.8,568.5c-12.2,0-22.6-5.8-27.7-11v20.8c0,6.9,12.6,13,27.7,13c15,0,27.7-5.8,27.7-12.7v-21.1
			C569.4,562.6,559.1,568.5,546.8,568.5z"/>
		<ellipse class="st8" cx="568.3" cy="523.3" rx="1.3" ry="2.3"/>
		<ellipse class="st8" cx="568.3" cy="548.2" rx="1.3" ry="2.3"/>
		<ellipse class="st25" cx="568.3" cy="575.3" rx="1.3" ry="2.3"/>
		<path class="st0" d="M546.8,565.2c-12.9,0-24-4.5-26.9-10.1c-0.5,0.8-0.7,1.6-0.8,2.5v0.1c0,1.2,0.4,2.5,1.4,3.4
			c5.4,4.5,15,7.4,26.2,7.4c0,0,0,0,0,0c11.2,0,20.8-2.9,26.2-7.4c1.3-1.4,1.4-2.2,1.4-3.5c0-0.8-0.2-1.6-0.7-2.4
			C571,560.9,559.8,565.2,546.8,565.2z"/>
		<path class="st0" d="M546.8,539.2c-12.9,0-24-4.5-26.9-10.1c-0.5,0.8-0.7,1.6-0.8,2.5v0.1c0,1.2,0.4,2.5,1.4,3.4
			c5.4,4.5,15,7.4,26.2,7.4c0,0,0,0,0,0c11.2,0,20.8-2.9,26.2-7.4c1.3-1.4,1.4-2.2,1.4-3.5c0-0.8-0.2-1.6-0.7-2.4
			C571,534.9,559.8,539.2,546.8,539.2z"/>
	</g>
	<path class="st2" d="M676.1,392.6c4.2-0.4,6.7-2.9,8.9-6.5c3.4,0,8-2.4,8.9-5.6c7.2,1.1,18.6,15.1,10.7,24.1
		c-7.3,8.3-20.7,11.5-23.1,10.8c-5.1-1.6-15.3-3-19.1-6.9c-4.7-4.8-6-13.8-2.5-18c2.9-3.4,2.6-1.6,6,0.3
		C668.6,392.2,673.3,392.8,676.1,392.6z"/>
	<g>
		<g>
			<g>
				<g>
					<g>
						<g>
							<g>
								<g>
									<g>
										<g>
											<g>
												<g>
													<g>
														<path class="st7" d="M573.9,104.1c0.1-0.7,0-1.4-0.3-2.1c-0.8-1.5-2.7-2.5-4.2-1.6c-5.1,2.8-5.1,3.2-6.3,3.6
															c-2.5,1-5.6,1.4-9,1.2c-1.7-0.1-3.2,1.2-3.3,3c-0.1,1.7,1.4,3.7,3.2,3.8c4.3,0.2,12.1,0.6,15.5-0.7
															c1.6-0.6-2.4-1.9,3-4.9C573.2,105.8,573.7,105,573.9,104.1z"/>
													</g>
												</g>
											</g>
										</g>
									</g>
								</g>
							</g>
						</g>
					</g>
				</g>
				<g>
					<g>
						<g>
							<g>
								<g>
									<g>
										<g>
											<g>
												<g>
													<path class="st9" d="M554.5,109.2c0.3-1.2-0.6-3.1-1.7-3.5c-4.7-1.9-9.1-4.9-12.6-8.7c-0.8-0.9-2.3-1-3.2-0.1
														c-0.9,0.8-0.5,1.9,0.4,2.8c3.9,4.3,8.7,9.1,14.1,11.3C552.6,111.3,554.1,110.8,554.5,109.2z"/>
												</g>
											</g>
										</g>
									</g>
								</g>
							</g>
						</g>
					</g>
				</g>
			</g>
			<g>
				<g>
					<g>
						<g>
							<g>
								<path d="M574.5,204.4c0,1-0.2,2-1,2.4c-0.3,0.2-0.8,0.3-1.2,0.3c-3.9,0.5-7.9,0.6-11.8,0c-2.7-0.4-0.8-2.1,0.6-2.7
									c0.2-0.1,0.5-0.2,0.7-0.3c1.5-0.6,3-1.2,4.5-1.8c1.7-0.7,3.5-1.4,5.3-1.4c0.2,0,0.4,0,0.7,0.1c0.2,0,0.3,0.1,0.4,0.2
									c0.5,0.2,1,0.6,1.2,1.1C574.2,202.9,574.4,203.6,574.5,204.4z"/>
							</g>
						</g>
					</g>
				</g>
			</g>
			<g>
				<g>
					<g>
						<g>
							<path class="st9" d="M572.9,176.2L572.9,176.2l0.9,19.2l0.3,6c0,0.3,0,0.6-0.1,0.8c0,0,0,0,0,0c-0.3,1.1-1.3,1.9-2.4,1.8
								l-1.2-0.1c-1.1-0.1-2-1-2.1-2.2l0-0.1l-1.2-9.1c0,0-1.5-11.3-2.2-16.3L572.9,176.2L572.9,176.2z"/>
						</g>
					</g>
				</g>
			</g>
			<g>
				<g>
					<g>
						<g>
							<g>
								<path class="st9" d="M573.4,201.5c0.8,0.7,1.2,1.6,0.4,2.5c-1.2,1.4-7,0.8-8.6,1c-0.6,0-2.4,0.2-1.9-1
									c0.1-0.4,0.5-0.6,0.9-0.8c1.1-0.6,2.3-1.1,3.5-1.4c0.6-0.2,1.3-0.3,1.8-0.6c0.3-0.2,0.6-0.4,1-0.5
									C571.2,200.4,572.5,200.8,573.4,201.5z"/>
							</g>
						</g>
					</g>
				</g>
			</g>
			<g>
				<g>
					<g>
						<g>
							<g>
								<path d="M568.7,126l16.3,0.9c7.8,7.6,3.7,25.3,3.5,28.7c-0.4,5,1.1,9.9,0.3,14.7c-1.6,1.4-3.5,2.8-5.6,2.7
									c-2.2-0.1-4-1.8-4.9-3.8c-2.8-6.2-1.7-15.8-2.1-22.6l-2.9,26.2l0.6,13.1c0.2,5.1,0.2,5.4-0.9,6c-1.8,1.1-6,1.2-7.9,0.2
									c-1.4-0.7-1.4-1.3-1.6-2.6c0,0-1.1-37.1,0.3-49.1C565.1,129.3,568.7,126,568.7,126z"/>
							</g>
						</g>
					</g>
				</g>
			</g>
			<g>
				<g>
					<g>
						<g>
							<g>
								<path d="M604.5,193.5c0.2,0.7,0.3,1.4,0.5,2.1c0.2,0.7,0.3,1.4,0.6,2c0.4,1,1.1,2.9,2.4,3c1.9,0.2,2.7-2.1,2.8-3.5
									c0.2-2.1,0.3-4.2,0.2-6.3c0-0.9-0.1-1.8-0.6-2.6c-1.4-2.4-5.1-4.2-7-1.3c-0.7,1-0.5,2,0,3.1
									C603.9,191.1,604.3,192.3,604.5,193.5z"/>
							</g>
						</g>
					</g>
				</g>
			</g>
			<g>
				<g>
					<g>
						<g>
							<path class="st9" d="M596.4,174.4c0,0,10.8,10.7,10.8,10.7c1.5,1.5,2.1,4.8,2.2,6.9c0,1.6-0.4,3.2-1.5,4.4
								c-0.2,0.2-0.5,0.5-0.9,0.4c-0.2,0-0.4-0.2-0.5-0.3c-1.9-1.9-1.8-5.3-3.9-6.9l-9.8-8.1l-11.4-9.5c-1.6-1.4-2.1-3.7-1-5.6
								c0,0,0-0.1,0-0.1c1.4-2.5,4.9-2.9,6.9-0.9L596.4,174.4z"/>
						</g>
					</g>
				</g>
			</g>
			<g>
				<g>
					<g>
						<g>
							<path d="M595.7,171.6c1,1.1,1.4,2.6,1.1,4c0,0.1,0,0.1,0,0.2l0,0c-0.6,2.7-3.4,5.2-4,5.6l0,0c-0.8,0.9-2.1,1-3,0.3l-0.1,0
								l-9.2-9.1c-1.4-1.4-1.7-3.5-0.8-5.3c0.4-0.7,0.8-1.4,1.2-2.1c1.4-2.4,4.8-2.9,6.8-0.9L595.7,171.6z"/>
						</g>
					</g>
				</g>
			</g>
			<g>
				<g>
					<g>
						<g>
							<g>
								<g>
									<path class="st4" d="M586.1,96.8c0.2-0.4-0.7,1-0.9,1.2c-0.2,0.2-1.5,1.3-1.1,1c-2.7,1.9-5.6,2.4-8.7,2.4c0,0-0.1,0-0.1,0
										c-5.1,0.1-9.6-3.3-11-8.2c-0.1-0.3-0.1-0.6-0.2-0.9c-0.3-1.6-0.4-3.1,0-4.7c1.1-4.3,5.6-7.1,9.3-8.4c2.7-1,5.7-0.6,7.8,1.2
										c3.4,2.8,3.6,7.7,4.3,11.7c0.2,1.3,0.6,2.3,1,3.2C586.5,95.8,586.3,96.2,586.1,96.8z"/>
								</g>
							</g>
						</g>
					</g>
				</g>
				<g>
					<g>
						<g>
							<g>
								<g>
									<path class="st26" d="M582.2,86.5l0.3,1.5c0,0,0-0.1-0.1-0.1C582.3,87.4,582.2,87,582.2,86.5z"/>
								</g>
							</g>
						</g>
					</g>
				</g>
			</g>
			<g>
				<g>
					<g>
						<g>
							<g>
								<path class="st7" d="M588.5,108.6l-1.2,4.6l-1.9,14.1c-0.3,1-0.9,1.7-1.7,2.2c-2.2,1.1-6.3,2.9-12.7,0.2
									c-1-0.4-2.8-1.4-3-2.5l-3.4-11.7l0-0.2c-0.3-1.6-0.1-3.3,0.7-4.8l2.4-4.5l1.6,0.6c0-2.9,1-7.9,3.5-7.1l0.9,0.3l1.4,0.5
									l6.2,2.2l1.8,0.6l3.5,1.2C588.1,104.9,589,106.8,588.5,108.6z"/>
							</g>
						</g>
					</g>
				</g>
			</g>
			<g>
				<g>
					<g>
						<g>
							<g>
								<path class="st8" d="M588.5,108.6l-1.2,4.6c-0.6,0.8-1.2,1.5-1.9,2.3c-1.3,1.6-2.7,3.3-4.5,4.1c-3,1.4-6.5,0.3-9.6-1
									c-1.9-0.8-3.8-1.7-5.6-2.6c-0.4-0.2-0.8-0.4-1.1-0.6l0-0.2c-0.3-1.6-0.1-3.3,0.7-4.8c0,0,1.6-3.3,1.9-4.5
									c0.1-0.6,0.5-2.4,0.5-2.4c0.3-3,2.5-4.9,5.1-4.1l0.9,0.3l1.4,0.5l6.2,2.2l1.8,0.6l3.5,1.2
									C588.1,104.9,589,106.8,588.5,108.6z"/>
							</g>
						</g>
					</g>
				</g>
			</g>
			<g>
				<g>
					<g>
						<g>
							<g>
								<path class="st9" d="M582.9,103.1c-0.9,1.4-2.1,2.7-3.3,3.8c-1,0.8-2,1.7-3.2,2c-1.2,0.4-2.6,0.3-3.6-0.5
									c-0.8-0.7-1.2-1.7-1.2-2.7c0-1,0.2-2,0.6-3c0.4-1,0.8-2,1.4-2.9l1.4,0.5l6.2,2.2L582.9,103.1z"/>
							</g>
						</g>
					</g>
				</g>
			</g>
			<g>
				<g>
					<g>
						<g>
							<g>
								<path class="st14" d="M562.5,113.8l0.1,0.2c0,0,0,0-0.1,0C562.5,113.9,562.5,113.9,562.5,113.8z"/>
							</g>
						</g>
					</g>
				</g>
			</g>
			<g>
				<g>
					<g>
						<g>
							<g>
								<path class="st4" d="M577.1,80.9c-0.5,0.1-1.1,0.2-1.5-0.1c-0.5-0.5-0.2-1.3,0.1-1.8c0.4-0.6,0.8-1.2,0.5-1.9
									c-0.2-0.5-0.8-0.7-1.4-0.8c-1.3-0.2-2.7,0.2-3.8,0.9c-1.8,1.2-2.7,3.3-3.4,5.3c-0.1,0.2-0.2,0.6,0,0.8
									c0.1,0.1,0.3,0.2,0.5,0.2c2.7,0.4,5.5-0.2,7.8-1.7L577.1,80.9z"/>
							</g>
						</g>
					</g>
				</g>
			</g>
			<g>
				<g>
					<g>
						<g>
							<g>
								<path class="st4" d="M566.3,88.8c0,4.9,3.7,8.8,8.4,8.8c1.8,0,3.5-0.6,4.9-1.7c2.1-1.6,3.4-4.2,3.4-7.1
									c0-0.6-0.1-1.2-0.2-1.8c-0.2-1-0.5-1.9-1-2.7c-0.8-1.3-1.9-2.5-3.2-3.2c-1.2-0.7-2.5-1.1-4-1.1c-0.2,0-0.4,0-0.5,0
									c-1.1,0.1-2.2,0.4-3.2,0.9C568.2,82.4,566.3,85.4,566.3,88.8z"/>
							</g>
						</g>
					</g>
				</g>
			</g>
			<g id="XMLID_1_">
				<g>
					<g>
						<g>
							<g>
								<polygon class="st9" points="572.1,95.5 572.4,96.3 574.1,102.2 574.5,103.3 575.3,103.3 582.1,103.8 581.7,102.8 
									579.9,97.3 579.4,96.1 578.4,93.2 								"/>
							</g>
						</g>
					</g>
				</g>
				<g>
					<g>
						<g>
							<g>
								<path class="st9" d="M572.1,95.5l0.2,0.8l1.8,5.9c2-1.9,3.8-4,5.3-6.1l-1-2.9L572.1,95.5z"/>
							</g>
						</g>
					</g>
				</g>
			</g>
			<g>
				<g>
					<g>
						<g>
							<g>
								<path class="st9" d="M565.9,89.4c0,4.6,3.6,8.3,8,8.3c1.8,0,3.4-0.6,4.7-1.6c2-1.5,3.3-3.9,3.3-6.7c0-4.6-3.6-8.3-8-8.3
									c-0.2,0-0.3,0-0.5,0C569.2,81.4,565.9,85,565.9,89.4z"/>
							</g>
						</g>
					</g>
				</g>
			</g>
			<g>
				<g>
					<g>
						<g>
							<g>
								<path class="st4" d="M579.6,86.5c-2.3-0.5-4.2-1.6-5.2-4.2c-0.2-0.5-0.3-1-0.1-1.5c0.6-1.3,4.4,0.2,4.4,1.6v-1.5
									c2.2,1.2,3.8,3.3,4.4,5.8C581.8,86.8,580.6,86.7,579.6,86.5z"/>
							</g>
						</g>
					</g>
				</g>
			</g>
			<g>
				<g>
					<g>
						<g>
							<g>
								<circle class="st9" cx="581.3" cy="88.7" r="2.5"/>
							</g>
						</g>
					</g>
				</g>
			</g>
			<g>
				<g>
					<g>
						<g>
							<g>
								<path class="st1" d="M571.2,91.8c-1.6,0.5-3.3-0.4-4-1.9c-0.1-0.3,0-0.7,0.3-0.7l5.5-1.7c0.3-0.1,0.6,0.1,0.6,0.4
									C573.9,89.6,572.8,91.3,571.2,91.8z"/>
							</g>
						</g>
					</g>
				</g>
			</g>
			<g>
				<g>
					<g>
						<g>
							<g>
								<g>
									<g>
										<g>
											<g>
												<g>
													<g>
														<g>
															<g>
																<g>
																	<g>
																		<g>
																			<g>
																				<path class="st8" d="M614.6,138.2c0-0.1,0.1-0.1,0.1-0.2c1-1.4,0.7-3.5-0.8-4.5c-10.1-7.3-18.8-16.7-25.3-27.5
																					c-0.9-1.5-2.9-2.1-4.5-1.1c-1.5,0.9-2.5,4.7-1.6,6.2c6.9,11.5,17.1,19.2,27.9,27
																					C612,139.1,613.6,139.5,614.6,138.2z"/>
																			</g>
																		</g>
																	</g>
																</g>
															</g>
														</g>
													</g>
												</g>
											</g>
										</g>
									</g>
								</g>
							</g>
						</g>
					</g>
				</g>
			</g>
			<path class="st9" d="M617.9,137.1c1.3,0.7,2.6,1.3,4.1,1.6c1.1,0.2,2.8,0.1,2.9,0.3c0.1,0.3-1.6,0.7-2.8,0.7
				c0.8,0.2,3,0.1,3.1,0.2c0.2,0.4-1.4,1.4-2,1.6c-0.6,0.2-1.2,0.2-1.8,0.2c-2.1,0-6.6-2-6.9-2.2c-0.7-0.5-0.7-1.7-1.1-2.4
				c-0.3-0.5-0.5-1-0.4-1.6c0-0.4,0.3-1,0.7-1.1c0.5-0.1,1,0.6,1.3,0.8C615.8,136,616.9,136.6,617.9,137.1z"/>
			<path class="st9" d="M614.1,140.3c0.3,1.1,0.6,2.3,1,3.4c0.3,0,0.5-0.2,0.6-0.5c0.3-0.7,0.2-1.6,0.4-2.3c0.2-0.6,0.5-1.2,0.4-1.8
				c-0.1-0.3-0.2-0.5-0.4-0.7c-0.5-0.7-1.8-1.8-2.7-1c-0.4,0.3-0.7,0.4-0.5,0.8C613.2,138.7,613.9,139.6,614.1,140.3z"/>
			<ellipse class="st9" cx="613.6" cy="136.5" rx="1.3" ry="1.9"/>
		</g>
		<g>
			<path class="st9" d="M534.6,98c-1-0.3-1.6-0.6-2-1.2c-2.1-2.9-1-6.8-0.6-7.5c0.1-0.3,0.8,0.7,1.4,0.9c1.7,0.4,3.1,1.5,4.1,2.9
				c1,1.4,1.5,3.1,1.4,4.8c-0.1,0.8-0.5,2-1.5,1.5C536.5,99.1,535.4,98.3,534.6,98z"/>
			<path class="st9" d="M539.7,92c-0.1-0.8,0-1.6-0.2-2.3c0-0.1-0.1-0.2-0.1-0.3c-0.2-0.2-0.5,0-0.7,0.2c-0.7,0.7-1.1,1.8-1,2.8
				c0,0.5,0.2,1.1,0.4,1.6c0.2,0.7,0.5,1.4,0.7,2.1c0.3,0.8,0.6,1.7,1.3,2.1c0.1,0,0.2,0.1,0.2,0.1c0.4,0-0.2,0.1,0-0.1
				c0.7-0.6,0.8-2.1,0.8-2.8C541.1,93.8,539.9,93.2,539.7,92z"/>
			<g>
				<g>
					<g>
						<g>
							<g>
								<g>
									<g>
										<path d="M536.5,99l3.2-2.9c0.2-0.1,0.2-0.3,0.1-0.6L536,85.1c-0.2-0.5-1.6-0.5-2-0.3l-4,2.9c-0.2,0.1-0.2,0.3-0.1,0.6
											l4.4,10.1C534.8,99.2,536.1,99.2,536.5,99z"/>
									</g>
								</g>
							</g>
						</g>
					</g>
				</g>
				<g>
					<g>
						<g>
							<g>
								<g>
									<g>
										<path d="M536.5,99l4-2.9c0.2-0.1,0.2-0.3,0.1-0.6l-4.4-10.1c-0.2-0.5-1-0.8-1.3-0.6l-4,2.9c-0.2,0.1-0.2,0.3-0.1,0.6
											l4.4,10.1C535.4,98.9,536.1,99.2,536.5,99z"/>
									</g>
								</g>
							</g>
						</g>
					</g>
				</g>
				<g>
					<g>
						<g>
							<g>
								<g>
									<g>
										<path class="st2" d="M538.9,93.7l-3.2-7.4c-0.1-0.2-0.2-0.3-0.4-0.3c-0.2,0-0.4,0-0.5,0.1l-2.7,1.9
											c-0.2,0.2-0.3,0.5-0.2,0.7l3.2,7.3c0.1,0.2,0.2,0.3,0.4,0.3c0.1,0,0.1,0,0.2,0c0.1,0,0.2,0,0.3-0.1l2.7-1.8
											C538.9,94.2,539,93.9,538.9,93.7z"/>
									</g>
								</g>
							</g>
						</g>
					</g>
				</g>
				<g>
					<g>
						<g>
							<g>
								<g>
									<g>
										<path class="st27" d="M538.5,96.1c0,0.3-0.2,0.6-0.5,0.6c-0.3,0.1-0.5-0.1-0.5-0.4c0-0.3,0.2-0.6,0.5-0.6
											C538.3,95.7,538.5,95.8,538.5,96.1z"/>
									</g>
								</g>
							</g>
						</g>
					</g>
				</g>
			</g>
		</g>
	</g>
	<path class="st3" d="M702.5,198.5c-0.6,0-1-0.5-1-1v-88.2c0-0.6,0.5-1,1-1c0.6,0,1,0.5,1,1v88.2C703.5,198,703.1,198.5,702.5,198.5
		z"/>
	<path class="st3" d="M702.5,307.6c-0.6,0-1-0.5-1-1v-93.2c0-0.6,0.5-1,1-1c0.6,0,1,0.5,1,1v93.2
		C703.5,307.1,703.1,307.6,702.5,307.6z"/>
	<path class="st3" d="M702.5,337.3c-0.6,0-1-0.5-1-1v-14.1c0-0.6,0.5-1,1-1c0.6,0,1,0.5,1,1v14.1
		C703.5,336.8,703.1,337.3,702.5,337.3z"/>
	<path class="st3" d="M692.7,247.5c-0.6,0-1-0.5-1-1v-88.2c0-0.6,0.5-1,1-1c0.6,0,1,0.5,1,1v88.2
		C693.7,247.1,693.2,247.5,692.7,247.5z"/>
	<path class="st3" d="M692.7,288.6c-0.6,0-1-0.5-1-1v-26.7c0-0.6,0.5-1,1-1c0.6,0,1,0.5,1,1v26.7
		C693.7,288.2,693.2,288.6,692.7,288.6z"/>
	<path class="st3" d="M675.4,172.9c-0.6,0-1-0.5-1-1v-25.4c0-0.6,0.5-1,1-1s1,0.5,1,1v25.4C676.4,172.5,676,172.9,675.4,172.9z"/>
	<path class="st3" d="M675.4,207.9c-0.6,0-1-0.5-1-1v-18.2c0-0.6,0.5-1,1-1s1,0.5,1,1v18.2C676.4,207.4,676,207.9,675.4,207.9z"/>
	<path class="st3" d="M675.4,282.7c-0.6,0-1-0.5-1-1v-55.4c0-0.6,0.5-1,1-1s1,0.5,1,1v55.4C676.4,282.2,676,282.7,675.4,282.7z"/>
	<path class="st3" d="M675.4,309.4c-0.6,0-1-0.5-1-1v-8.2c0-0.6,0.5-1,1-1s1,0.5,1,1v8.2C676.4,309,676,309.4,675.4,309.4z"/>
	<path class="st3" d="M840.6,341.6c-0.6,0-1-0.5-1-1v-22.5c0-0.6,0.5-1,1-1c0.6,0,1,0.5,1,1v22.5
		C841.6,341.1,841.1,341.6,840.6,341.6z"/>
	<path class="st3" d="M840.6,419.3c-0.6,0-1-0.5-1-1v-60.6c0-0.6,0.5-1,1-1c0.6,0,1,0.5,1,1v60.6
		C841.6,418.8,841.1,419.3,840.6,419.3z"/>
	<path class="st3" d="M834.8,441.6c-0.6,0-1-0.5-1-1v-8c0-0.6,0.5-1,1-1c0.6,0,1,0.5,1,1v8C835.9,441.1,835.4,441.6,834.8,441.6z"/>
	<path class="st3" d="M762.2,117.1c-0.6,0-1-0.5-1-1v-33c0-0.6,0.5-1,1-1c0.6,0,1,0.5,1,1v33C763.2,116.7,762.7,117.1,762.2,117.1z"
		/>
	<path class="st3" d="M762.2,137.3c-0.6,0-1-0.5-1-1v-12c0-0.6,0.5-1,1-1c0.6,0,1,0.5,1,1v12C763.2,136.8,762.7,137.3,762.2,137.3z"
		/>
	<path class="st3" d="M762.2,209.7c-0.6,0-1-0.5-1-1v-55.3c0-0.6,0.5-1,1-1c0.6,0,1,0.5,1,1v55.3
		C763.2,209.2,762.7,209.7,762.2,209.7z"/>
	<path class="st3" d="M771.7,160.8c-0.6,0-1-0.5-1-1v-29.6c0-0.6,0.5-1,1-1c0.6,0,1,0.5,1,1v29.6
		C772.8,160.4,772.3,160.8,771.7,160.8z"/>
	<path class="st3" d="M771.7,189.2c-0.6,0-1-0.5-1-1v-7.8c0-0.6,0.5-1,1-1c0.6,0,1,0.5,1,1v7.8C772.8,188.7,772.3,189.2,771.7,189.2
		z"/>
	<path class="st3" d="M673.8,393.2c-0.4,0-0.9,0-1.3,0c-4.2-0.1-9.2-1.9-10.8-5.5c-0.2-0.5,0-1.1,0.5-1.4c0.5-0.2,1.1,0,1.4,0.5
		c1.3,2.8,5.6,4.2,9,4.3c2.3,0.1,4.9,0,7.3-1c2.3-1,4-2.8,4.4-4.9c0.1-0.5,0.6-0.9,1.1-0.8c5.3,0.6,7.1-2,7.7-4.2
		c0.1-0.5,0.7-0.9,1.2-0.7c0.5,0.1,0.9,0.7,0.7,1.2c-0.5,1.9-2.4,6.2-9,5.8c-0.8,2.3-2.7,4.4-5.4,5.5
		C678.4,393,676,393.2,673.8,393.2z"/>
	<path id="cloud_1_" class="st1" d="M946.8,143.5c-7.6-4.4-14.1-2.8-17.3,3.3c-1.1-0.9-2.2-1.7-3.3-2.3c-6.7-3.9-12.4-2.2-14.5,3.4
		c-1-0.9-2.1-1.8-3.2-2.4c-5.8-3.4-10.6-0.6-10.6,6.1s4.7,14.9,10.6,18.3l38.3,22.1c10.7,6.2,19.4,0.4,19.4-13
		C966.2,165.6,957.5,149.7,946.8,143.5z"/>
	<path class="st1" d="M648.1,282.9c0,0-0.8,2.2-2.3,3.5c-0.1,0.1-0.9,0.3-3.3-1.1c-1.4-0.8-2.3-2.4-0.2-2.2
		C643.1,283.1,646.7,283.4,648.1,282.9z"/>
	<path class="st1" d="M801.5,203.6c0,0,0.7,1.9,1.9,3c0.1,0.1,0.8,0.2,2.9-0.9c1.2-0.7,2-2,0.1-1.9
		C805.8,203.8,802.8,204,801.5,203.6z"/>
	<g>
		<path class="st22" d="M621.6,522.4c6.6,0,12.1-2.5,12.1-5.6v-9.3h-24.3v9.2C609.5,519.7,615.1,522.4,621.6,522.4z"/>
		<ellipse class="st8" cx="621.6" cy="507.5" rx="12.1" ry="5.9"/>
		<path class="st23" d="M621.6,533.8c6.6,0,12.1-2.5,12.1-5.6V519c-2.2,2.3-6.8,4.5-12.1,4.5c-5.4,0-9.9-2.2-12.1-4.5v9.1
			C609.5,531.1,615.1,533.8,621.6,533.8z"/>
		<path class="st24" d="M621.6,535.2c-5.4,0-9.9-2.5-12.1-4.8v9.1c0,3,5.5,5.7,12.1,5.7c6.6,0,12.1-2.5,12.1-5.6v-9.2
			C631.6,532.6,627,535.2,621.6,535.2z"/>
		<ellipse class="st8" cx="631.1" cy="515.4" rx="0.6" ry="1"/>
		<ellipse class="st8" cx="631.1" cy="526.3" rx="0.6" ry="1"/>
		<ellipse class="st25" cx="631.1" cy="538.2" rx="0.6" ry="1"/>
		<path class="st0" d="M621.6,533.8c-5.6,0-10.5-2-11.8-4.4c-0.2,0.3-0.3,0.7-0.3,1.1v0c0,0.5,0.2,1.1,0.6,1.5
			c2.4,2,6.6,3.2,11.5,3.2c0,0,0,0,0,0c4.9,0,9.1-1.3,11.5-3.2c0.6-0.6,0.6-1,0.6-1.5c0-0.4-0.1-0.7-0.3-1
			C632.2,531.9,627.3,533.8,621.6,533.8z"/>
		<path class="st0" d="M621.6,522.4c-5.6,0-10.5-2-11.8-4.4c-0.2,0.3-0.3,0.7-0.3,1.1v0c0,0.5,0.2,1.1,0.6,1.5
			c2.4,2,6.6,3.2,11.5,3.2c0,0,0,0,0,0c4.9,0,9.1-1.3,11.5-3.2c0.6-0.6,0.6-1,0.6-1.5c0-0.4-0.1-0.7-0.3-1
			C632.2,520.5,627.3,522.4,621.6,522.4z"/>
	</g>
	<g>
		<path class="st22" d="M887.4,565.2c17.4,0,32-6.7,32-14.7v-24.6h-64.1v24.3C855.4,558.2,870,565.2,887.4,565.2z"/>
		<ellipse class="st8" cx="887.4" cy="525.9" rx="32" ry="15.7"/>
		<path class="st24" d="M887.4,595.3c17.4,0,32-6.7,32-14.7v-24.4c-5.9,6-17.9,11.8-32,11.8c-14.2,0-26.2-5.8-32-11.8v24.1
			C855.4,588.3,870,595.3,887.4,595.3z"/>
		<path class="st20" d="M887.4,599.1c-14.2,0-26.2-6.7-32-12.7v24.1c0,8,14.6,15,32,15c17.4,0,32-6.7,32-14.7v-24.4
			C913.6,592.4,901.6,599.1,887.4,599.1z"/>
		<ellipse class="st8" cx="912.3" cy="546.7" rx="1.5" ry="2.7"/>
		<ellipse class="st8" cx="912.3" cy="575.6" rx="1.5" ry="2.7"/>
		<ellipse class="st25" cx="912.3" cy="607" rx="1.5" ry="2.7"/>
		<path class="st21" d="M887.4,595.3c-14.9,0-27.8-5.2-31.2-11.7c-0.6,0.9-0.9,1.9-0.9,2.9v0.1c0,1.4,0.4,2.8,1.7,3.9
			c6.3,5.2,17.4,8.5,30.4,8.5c0,0,0,0,0,0c12.9,0,24-3.4,30.3-8.5c1.5-1.6,1.7-2.6,1.7-4c0-0.9-0.3-1.9-0.8-2.8
			C915.4,590.3,902.5,595.3,887.4,595.3z"/>
		<path class="st0" d="M887.4,565.2c-14.9,0-27.8-5.2-31.2-11.7c-0.6,0.9-0.9,1.9-0.9,2.9v0.1c0,1.4,0.4,2.8,1.7,3.9
			c6.3,5.2,17.4,8.5,30.4,8.5c0,0,0,0,0,0c12.9,0,24-3.4,30.3-8.5c1.5-1.6,1.7-2.6,1.7-4c0-0.9-0.3-1.9-0.8-2.8
			C915.4,560.2,902.5,565.2,887.4,565.2z"/>
	</g>
	<g>
		<path class="st22" d="M937.9,464.1c10.2,0,18.7-3.9,18.7-8.6v-14.4h-37.4v14.2C919.3,460,927.8,464.1,937.9,464.1z"/>
		<ellipse class="st8" cx="937.9" cy="441.2" rx="18.7" ry="9.1"/>
		<path class="st23" d="M937.9,481.7c10.2,0,18.7-3.9,18.7-8.6v-14.2c-3.4,3.5-10.4,6.9-18.7,6.9c-8.3,0-15.3-3.4-18.7-6.9v14
			C919.3,477.6,927.8,481.7,937.9,481.7z"/>
		<path class="st24" d="M937.9,483.9c-8.3,0-15.3-3.9-18.7-7.4v14c0,4.7,8.5,8.8,18.7,8.8c10.2,0,18.7-3.9,18.7-8.6v-14.2
			C953.2,480,946.2,483.9,937.9,483.9z"/>
		<ellipse class="st8" cx="952.5" cy="453.4" rx="0.9" ry="1.6"/>
		<ellipse class="st8" cx="952.5" cy="470.2" rx="0.9" ry="1.6"/>
		<ellipse class="st25" cx="952.5" cy="488.5" rx="0.9" ry="1.6"/>
		<path class="st0" d="M937.9,481.7c-8.7,0-16.2-3-18.2-6.8c-0.3,0.5-0.5,1.1-0.5,1.7v0.1c0,0.8,0.2,1.7,1,2.3c3.7,3,10.2,5,17.7,5
			h0c7.5,0,14-2,17.7-5c0.9-1,1-1.5,1-2.3c0-0.6-0.2-1.1-0.5-1.6C954.3,478.8,946.7,481.7,937.9,481.7z"/>
		<path class="st0" d="M937.9,464.1c-8.7,0-16.2-3-18.2-6.8c-0.3,0.5-0.5,1.1-0.5,1.7v0.1c0,0.8,0.2,1.7,1,2.3c3.7,3,10.2,5,17.7,5
			h0c7.5,0,14-2,17.7-5c0.9-1,1-1.5,1-2.3c0-0.6-0.2-1.1-0.5-1.6C954.3,461.2,946.7,464.1,937.9,464.1z"/>
	</g>
	<path class="st3" d="M617.9,122.7c-0.6,0-1-0.5-1-1v-26c0-0.6,0.5-1,1-1c0.6,0,1,0.5,1,1v26C619,122.3,618.5,122.7,617.9,122.7z"/>
	<path class="st2" d="M804.9,312.6h1.2c2.2,0,3.9,1.8,3.9,4l-0.1,4.2h10.9l4.1-11.8l-1.5-5.5l-23.3-2.2l-1.8,5.1L804.9,312.6z"/>
	<path class="st3" d="M706.9,378.1c-2.6,0-5.2-0.2-7.8-0.6c-0.6-0.1-0.9-0.6-0.8-1.2c0.1-0.6,0.6-0.9,1.2-0.8
		c3.7,0.6,7.4,0.8,11.1,0.5c1.9-0.2,4-0.5,5.2-1.8c0.6-0.6,0.9-1.7,0.7-2.6c-0.1-0.4-0.3-1-0.9-1.2c-0.5-0.2-0.7-0.7-0.6-1.2
		c0.1-0.5,0.6-0.8,1.1-0.8c3.3,0.3,6.4,0.4,8.7-1.1c1.2-0.8,2-2.5,1.9-4.1c0-0.7-0.3-1.7-1.3-2.2c-0.5-0.3-0.7-0.9-0.4-1.4
		c0.3-0.5,0.9-0.7,1.4-0.4c1.4,0.7,2.3,2.2,2.4,3.9c0.1,2.3-1,4.6-2.8,5.9c-2.2,1.5-4.8,1.8-7.6,1.6c0.1,0.2,0.1,0.3,0.1,0.5
		c0.3,1.6-0.1,3.3-1.2,4.4c-1.7,1.8-4.3,2.3-6.6,2.4C709.4,378,708.1,378.1,706.9,378.1z"/>
	<path class="st3" d="M721.5,393.8c-4.7,0-9.3-1.3-13.7-2.8c-0.5-0.2-0.8-0.8-0.6-1.3c0.2-0.5,0.8-0.8,1.3-0.6
		c5.3,1.8,10.9,3.3,16.4,2.4c4.8-0.8,10.4-4.1,11.4-9.7c0.1-0.5,0.6-0.9,1.1-0.8c4.3,0.4,8.2,0.6,11.2-1.2c1.7-1,2.9-3.1,3-5.2
		c0.1-1-0.1-2.4-1.4-3.4c-0.4-0.3-0.5-0.9-0.3-1.3c0.3-0.4,0.8-0.6,1.3-0.4c2.4,1,5.4,0.4,7.2-1.5c1.8-1.9,2.3-4.9,1.2-7.3
		c-0.2-0.5,0-1.1,0.5-1.4c0.5-0.2,1.1,0,1.4,0.5c1.5,3.1,0.8,7.1-1.6,9.6c-1.7,1.8-4.2,2.7-6.7,2.6c0.3,0.8,0.4,1.7,0.4,2.7
		c-0.2,2.7-1.8,5.4-4,6.8c-3.6,2.2-8.1,1.9-11.6,1.6c-1.6,6-7.7,9.6-12.9,10.5C724,393.7,722.8,393.8,721.5,393.8z"/>
</g>
</svg>
