<?xml version="1.0" encoding="utf-8"?>
<!-- Generator: Adobe Illustrator 21.1.0, SVG Export Plug-In . SVG Version: 6.00 Build 0)  -->
<svg version="1.1" id="Слой_1" xmlns="http://www.w3.org/2000/svg" xmlns:xlink="http://www.w3.org/1999/xlink" x="0px" y="0px"
	 viewBox="0 0 375 450" style="enable-background:new 0 0 375 450;" xml:space="preserve">
<style type="text/css">
	.st0{fill:#923CFF;}
	.st1{fill:#FFFFFF;}
	.st2{fill:#B37FFF;}
	.st3{fill:#CDADFF;}
	.st4{fill:#FFDE00;}
	.st5{fill:#F3AB00;}
	.st6{fill-rule:evenodd;clip-rule:evenodd;}
	.st7{fill:#B61BB6;}
	.st8{fill:#DC44D2;}
	.st9{fill:#F08056;}
	.st10{opacity:0.71;}
	.st11{fill:#FF8059;}
	.st12{fill:#C2DCF4;}
	.st13{fill:#EBF2F7;}
	.st14{fill:#CDD5E8;}
	.st15{fill:#1D1D1B;}
	.st16{fill-rule:evenodd;clip-rule:evenodd;fill:#B61BB6;}
	.st17{fill-rule:evenodd;clip-rule:evenodd;fill:#DC44D2;}
	.st18{fill:#3B6CB5;}
	.st19{fill-rule:evenodd;clip-rule:evenodd;fill:#F08056;}
	.st20{fill:#AF80F9;}
	.st21{fill:#C9AEFC;}
	.st22{fill:#6C19D9;}
	.st23{fill:#7732E1;}
	.st24{fill:#823BEB;}
	.st25{opacity:0.4;fill:#DC44D2;}
	.st26{fill:#1E388F;}
	.st27{fill:#726489;}
</style>
<rect y="34.7" class="st0" width="375" height="375"/>
<g>
	<path id="cloud_19_" class="st1" d="M21.7,149.3c1.4-9,7.7-18.8,15.2-23.1c4.4-2.5,8.4-2.7,11.2-1c1.7-1.8,3.5-3.3,5.5-4.4
		c7.9-4.5,14.2-1.2,14.2,7.6c0,8.7-6.4,19.5-14.2,24l-29,16.8c-5.3,3-9.6,0.6-9.6-5.5C15,158.7,17.8,152.9,21.7,149.3z"/>
	<g>
		<path class="st2" d="M118.8,20.5l-10.4,19.3L88.2,27.9l-6.1,2.2l-0.3,156h45.7V24.8C127.5,20.1,123,22.9,118.8,20.5z"/>
		<g>
			<path class="st2" d="M116.5,5.9c-6.5-2-10.7,3.7-10.7,10.9l-0.3,80c0,7.2,4.8,15.8,10.8,19c6,3.2,10.9-0.1,10.9-7.3l0.3-83.2
				C127.6,18.1,124.3,8.2,116.5,5.9z"/>
		</g>
		<g>
			<path class="st2" d="M99.8,25.3c-3.5-1.1-5.8,2-5.8,5.9l-0.2,46.1c0,3.9,2.6,8.5,5.9,10.3c3.2,1.7,5.9,0,5.9-3.9l0.2-47.8
				C105.8,31.9,104,26.6,99.8,25.3z"/>
		</g>
		<g>
			<path class="st2" d="M88,5.8c-3.5-1.1-5.8,2-5.8,5.9L82,57.8c0,3.9,2.6,8.5,5.9,10.3c3.2,1.7,5.9,0,5.9-3.9L94,16.3
				C94,12.4,92.3,7.1,88,5.8z"/>
		</g>
	</g>
	<path class="st3" d="M115.2,138.2c-0.4,0-0.7-0.3-0.7-0.7V88.7c0-0.4,0.3-0.7,0.7-0.7s0.7,0.3,0.7,0.7v48.8
		C115.9,137.9,115.6,138.2,115.2,138.2z"/>
	<path class="st3" d="M115.2,83.1c-0.4,0-0.7-0.3-0.7-0.7V37.1c0-0.4,0.3-0.7,0.7-0.7s0.7,0.3,0.7,0.7v45.3
		C115.9,82.7,115.6,83.1,115.2,83.1z"/>
	<path class="st3" d="M106.4,133.9c-0.4,0-0.7-0.3-0.7-0.7V109c0-0.4,0.3-0.7,0.7-0.7c0.4,0,0.7,0.3,0.7,0.7v24.1
		C107.1,133.6,106.8,133.9,106.4,133.9z"/>
	<path class="st3" d="M96.1,68.4c-0.4,0-0.7-0.3-0.7-0.7v-8.8c0-0.4,0.3-0.7,0.7-0.7s0.7,0.3,0.7,0.7v8.8
		C96.8,68.1,96.5,68.4,96.1,68.4z"/>
	<path class="st3" d="M96.1,131.8c-0.4,0-0.7-0.3-0.7-0.7V76.9c0-0.4,0.3-0.7,0.7-0.7s0.7,0.3,0.7,0.7V131
		C96.8,131.4,96.5,131.8,96.1,131.8z"/>
	<polygon points="49.1,142.6 54.5,164.3 86.8,196.9 95.2,182 95.2,182 114,163.6 119.1,142.6 72.4,140.2 	"/>
	<ellipse class="st0" cx="84.1" cy="142.6" rx="35" ry="17.1"/>
	<path id="cloud_18_" class="st1" d="M333.8,199.3c-7.2-15.3-15.6-27.6-28.6-34.9c-4.1-2.3-8.1-3.8-11.8-4.6
		c-5.6-27.6-25.2-56.9-48.3-69.9c-24.3-13.7-44.3-4.9-48,19.4c-0.1,0-0.2-0.1-0.2-0.1c-17.2-9.7-30.9-1.6-30.8,18.1
		c-13.3-3.2-22.9,5.4-22.8,22.1c0.2,20.1,14.6,44.5,32.1,54.4l132.5,74.9C366.7,302,380.7,223,333.8,199.3z"/>
	<path class="st2" d="M212.7,47.4l-7.5-10.9c-1.5-1-3.5,0.1-3.5,1.9v156.5h17.1V50.4C218.8,47.2,215.3,49.1,212.7,47.4z"/>
	<g>
		<path class="st2" d="M214.4,27.8c-2.6-0.8-4.2,1.5-4.2,4.3L210,61.4c0,2.9,1.9,6.2,4.3,7.5c2.4,1.3,4.4,0.1,4.5-2.8l0-30.6
			C218.8,32.6,217.5,28.7,214.4,27.8z"/>
	</g>
	<g>
		<path class="st2" d="M205.8,34.5c-2.6-0.8-4.2,1.5-4.2,4.3l0.1,29.9c0,2.9,1.7,5.7,4.1,7c2.4,1.3,4.3,0,4.3-2.9l0.1-30.5
			C210.2,39.3,208.9,35.4,205.8,34.5z"/>
	</g>
	<path id="cloud_17_" class="st1" d="M36.5,241.8c1.9-1.1,3.7-1.9,5.4-2.4c0.9-19.1,14.2-41.5,30.5-50.9c1.5-0.9,3-1.6,4.4-2.2
		c6.2-16.5,18.1-32.2,31.8-40.1c20-11.5,36.2-2.2,36.2,20.9c0,0.5,0,1,0,1.6c0,0,0,0,0,0c15.3-8.8,27.7-1.7,27.7,16
		s-12.4,39.2-27.7,48L36.5,295.3c-12.8,7.4-23.2,1.4-23.2-13.4C13.3,267.2,23.7,249.2,36.5,241.8z"/>
	<polygon points="189.1,200.8 194.3,229.4 233.5,266 246.7,248.2 253.6,253.4 280,227.6 287.1,198.1 221.5,194.6 	"/>
	<ellipse class="st2" cx="238" cy="198.1" rx="49.2" ry="24.1"/>
	<g>
		<path class="st4" d="M206.6,192.6c0,10.9,14.5,19.7,32.3,19.7c5.9,0,11.3-0.9,16.1-2.6c8.3-2.9,14.3-8,15.9-14
			c0.4-3.3-0.3-6.8-1.6-9.9c-2-3.2-5.3-6-9.5-8.2c-5.6-2.9-12.9-4.6-20.8-4.6C221.1,173,206.6,181.8,206.6,192.6z M226.1,190.2
			c0-2,6-3.6,13.3-3.6c3.1,0,5.9,0.3,8.2,0.8c3.1,0.7,5.1,1.7,5.1,2.8c0,0.9-1.2,1.7-3.1,2.3c-2.4,0.8-6.1,1.3-10.2,1.3
			C232.1,193.8,226.1,192.2,226.1,190.2z"/>
		<path class="st5" d="M216.5,185.2c0,5.8,10.6,10.5,23.6,10.5c3.8,0,7.4-0.4,10.6-1.1c7.7-1.7,13.1-5.3,13.1-9.4
			c0-1.7-0.9-3.3-2.5-4.7l0,0c-0.5-0.5-1.2-0.9-1.9-1.4l0,0c-0.3-0.2-0.5-0.3-0.8-0.5c-4.3-2.4-11-3.9-18.5-3.9
			C227,174.8,216.5,179.5,216.5,185.2z M226.7,190c0-1.8,5.9-3.3,13.1-3.3c3,0,5.9,0.3,8.1,0.7c3.1,0.6,5.1,1.5,5.1,2.6
			c0,0.8-1.2,1.5-3.1,2.1c-2.4,0.7-6,1.2-10.1,1.2C232.5,193.3,226.7,191.8,226.7,190z"/>
		<g>
			<g>
				<g>
					<g>
						<g>
							<g>
								<g>
									<g>
										<g>
											<g>
												<g>
													<g>
														<g>
															<path class="st4" d="M189.8,187c0.2,0.6-0.1,1.3-0.6,1.7c-0.5,0.4-1.2,0.6-1.8,0.8c-0.6,0.2-1.2,0.3-1.7,0
																c-0.3-0.2-0.5-0.5-0.7-0.8c-0.4-0.6-0.7-1.2-1-1.8c-0.3-0.7-0.4-1.5-0.8-2.2c-0.2-0.5-0.5-0.9-0.8-1.3
																c-0.7-1.2-1.1-2.7-1.1-4.1c0-0.3,0-0.7,0.2-0.9c0.3-0.4,0.9-0.5,1.4-0.3c0.5,0.2,0.9,0.6,1.2,1
																c1,1.2,2.1,2.4,3.1,3.6c1,1.2,2.1,2.4,2.6,3.9c0.2,0.5,0.1,1.2-0.4,1.3L189.8,187z"/>
														</g>
													</g>
												</g>
											</g>
										</g>
									</g>
								</g>
							</g>
						</g>
					</g>
				</g>
			</g>
			<g>
				<g>
					<g>
						<g>
							<g>
								<g>
									<g>
										<g>
											<g>
												<g>
													<g>
														<g>
															<path class="st1" d="M186.8,186.1l0,0.1c-0.1,1,0.6,1.8,1.6,1.9l2.9,0.3c1,0.1,1.8-0.6,1.9-1.6l0-0.1
																c0.1-1-0.6-1.8-1.6-1.9l-2.9-0.3C187.7,184.4,186.9,185.1,186.8,186.1z"/>
														</g>
													</g>
												</g>
											</g>
										</g>
									</g>
								</g>
							</g>
						</g>
					</g>
				</g>
			</g>
			<g>
				<g>
					<g>
						<g>
							<g>
								<g>
									<g>
										<g>
											<g>
												<g>
													<g>
														<g>
															<path class="st4" d="M199.7,206.9c-0.5,0.2-1.1,0.4-1.6,0.7c-0.5,0.2-1.1,0.5-1.5,0.8c-0.7,0.5-2.1,1.3-2,2.3
																c0.2,1.5,2.1,1.8,3.2,1.7c1.7-0.1,3.4-0.4,5-0.8c0.7-0.2,1.4-0.4,2-0.9c1.7-1.5,2.6-4.7,0-5.8
																c-0.9-0.4-1.7-0.1-2.4,0.5C201.5,206.1,200.6,206.5,199.7,206.9z"/>
														</g>
													</g>
												</g>
											</g>
										</g>
									</g>
								</g>
							</g>
						</g>
					</g>
				</g>
			</g>
			<g>
				<g>
					<g>
						<g>
							<g>
								<g>
									<g>
										<g>
											<g>
												<g>
													<g>
														<g>
															<path class="st1" d="M203.5,207.5L203.5,207.5c0.9,0.5,2,0.2,2.5-0.6l1.4-2.5c0.5-0.8,0.2-1.9-0.6-2.4l-0.1,0
																c-0.8-0.5-1.9-0.2-2.4,0.6l-1.4,2.5C202.4,205.9,202.7,207,203.5,207.5z"/>
														</g>
													</g>
												</g>
											</g>
										</g>
									</g>
								</g>
							</g>
						</g>
					</g>
				</g>
			</g>
			<g>
				<g>
					<path class="st6" d="M214.7,174.2c-4.4,9.6-8.3,19.4-12,29.3c0.2,1.4,2.2,2.8,4.7,2.8c2.7-4.6,8.2-10.8,10.5-15.7
						c1.9-4,2.4-7.1,3.5-11.6C223.4,173.4,216.7,171.5,214.7,174.2z"/>
				</g>
				<path class="st6" d="M245.7,176.3c-1.2-0.3-4-1-8.4-1.8c-4.4-0.8-12.9-1.9-18.1-2.1c-4.7-0.8-7.5,4.5-2,8c7,2.1,17.3,4.7,26.1,6
					L245.7,176.3z"/>
			</g>
			<g>
				<path class="st6" d="M251.1,186.6c-0.8,1.8-1.6,3.5-2.4,4.8c-2.3,3.5-4.8,4.6-7.2,4.7c-5,0.1-8.1-2.9-18.2-6.1
					c-2.3-0.7-3.8-0.8-5.6-0.9c-3.5-1-3.8-8.3,1.2-9.2c1.7-0.2,3.4-0.3,5.1-0.2c4.6,0.3,8.5,0.5,13.1,1.1c0.3-3.2,1.4-5.4,3-7
					C240.4,173.7,248.8,185,251.1,186.6z"/>
				<g>
					<path class="st6" d="M221.9,189.4c-4.7-0.2-10.6,1.2-14.7,1.2c-4.9,0.1-11.3-0.7-17.7-1.4c-0.8-1.5-0.9-4.6-0.1-5.4
						c7.9-0.3,15.3-2.5,21.6-3.3c2.9-0.4,6-0.8,9.5-1.3C227.1,178.8,230,188.8,221.9,189.4z"/>
				</g>
			</g>
			<g>
				<g>
					<g>
						<g>
							<g>
								<g>
									<g>
										<g>
											<g>
												<g>
													<g>
														<g>
															<path class="st7" d="M229.1,169.8c-1.1-1-1.4-2.5-1-3.9l0,0l4.4-13.6l1.5-0.3c0.8-1.2,0.4-0.3,1.9,0.1
																c0.9,0.2,1.6,0.8,2.1,1.6c0.4,0.7,0.5,1.6,0.3,2.4l-4.8,15.4l0,0.1c-0.7,1.1-1.9,1.7-3.2,1.6c-0.2,0-0.4-0.1-0.6-0.1
																c0,0,0.8-2.1,0.8-2.1L229.1,169.8z"/>
														</g>
													</g>
												</g>
											</g>
										</g>
									</g>
								</g>
							</g>
						</g>
					</g>
				</g>
			</g>
			<g>
				<g>
					<g>
						<g>
							<g>
								<g>
									<g>
										<g>
											<g>
												<g>
													<g>
														<g>
															<path class="st8" d="M250.2,187.4c-1.5,1.2-4.1,0.9-6.8,0.1c-2.9-0.9-5.8-2.4-7.4-3.6l0,0c-0.2-0.2-1.8-1.1-3.5-2.1
																c-2.2-1.4-3.1-4.2-2.1-6.6c2.2-4.9,3.5-10.4,2.3-15.4c-0.3-1.1-0.5-2.1-0.6-3.1c0-0.2,0-0.3,0-0.5l0-0.5l-0.1,0.6
																c-0.3-3.3,0.4-6.2,4.2-7.9c0.7-0.3,1.7-0.4,2.7-0.3c0.5,0,1,0.1,1.5,0.2c6.7,1.9,10.2,4.4,11.9,8
																c1.2,2.4,1.6,5.3,1.8,8.7C254.5,170.2,252.9,185.3,250.2,187.4z"/>
														</g>
													</g>
												</g>
											</g>
										</g>
									</g>
								</g>
							</g>
						</g>
					</g>
				</g>
			</g>
			<g>
				<g>
					<g>
						<g>
							<g>
								<g>
									<g>
										<g>
											<g>
												<g>
													<g>
														<g>
															<path class="st7" d="M243.8,151.1c0,0.5-0.3,0.9-0.7,1.3c-0.6,0.5-1.6,0.8-2.7,0.7c-1.1-0.1-2-0.5-2.5-1.2
																c-0.4-0.4-0.6-0.9-0.5-1.4c0-0.5,0.3-1,0.8-1.3c0,0,0.1-0.1,0.1-0.1c0,0,0,0,0,0c0.5-0.3,1.1-0.5,1.9-0.6
																c0.1,0,0.2,0,0.3,0c0.1,0,0.2,0,0.3,0c1.1,0.1,2,0.6,2.5,1.2C243.7,150.1,243.8,150.6,243.8,151.1z"/>
														</g>
													</g>
												</g>
											</g>
										</g>
									</g>
								</g>
							</g>
						</g>
					</g>
				</g>
			</g>
			<g>
				<g>
					<g>
						<g>
							<g>
								<g>
									<g>
										<g>
											<g>
												<g>
													<g>
														<g>
															<g>
																<g>
																	<g>
																		<g>
																			<g>
																				<path class="st9" d="M243.8,143.3l-0.7,7.8c0,0.3-0.2,0.5-0.4,0.6c-0.6,0.4-1.5,0.6-2.4,0.5
																					c-0.9-0.1-1.5-0.5-2-0.9c-0.2-0.2-0.3-0.4-0.3-0.7l0.5-7.8L243.8,143.3z"/>
																			</g>
																		</g>
																	</g>
																</g>
															</g>
														</g>
													</g>
												</g>
											</g>
										</g>
									</g>
								</g>
							</g>
						</g>
					</g>
				</g>
				<g class="st10">
					<g>
						<g>
							<g>
								<g>
									<g>
										<g>
											<g>
												<g>
													<g>
														<g>
															<g>
																<g>
																	<g>
																		<g>
																			<g>
																				<path class="st9" d="M238,150.6c0,0,0.8-0.1,1-0.1c1.7-0.3,2.9-1.8,3.3-3.4l0.6-2l0.5-0.6l-0.4,0l-2.1-0.1
																					c-0.9,0.8-1.8,1.5-2.7,2.4L238,150.6z"/>
																			</g>
																		</g>
																	</g>
																</g>
															</g>
														</g>
													</g>
												</g>
											</g>
										</g>
									</g>
								</g>
							</g>
						</g>
					</g>
				</g>
				<g>
					<g>
						<g>
							<g>
								<g>
									<g>
										<g>
											<g>
												<g>
													<g>
														<g>
															<g>
																<g>
																	<g>
																		<g>
																			<g>
																				<path class="st11" d="M244.1,142.6c0,0.3-0.3,0.6-0.7,0.9c-0.1,0.1-0.2,0.2-0.3,0.3c0,0,0,0,0,0
																					c-0.1,0.1-0.2,0.2-0.2,0.2c-0.1,0.1-0.1,0.2-0.2,0.3c-0.1,0.4-0.1,0.8-0.3,1.2c-0.4,1.2-1.2,2.3-2.1,3
																					c-0.2,0.2-0.4,0.3-0.7,0.4c-0.5,0.3-1,0.5-1.5,0.5c-0.2,0-0.4,0.1-0.6,0.1c-1.3,0.1-2.6-0.4-3.8-1.5
																					c-0.6-0.6-1-1.4-1.3-2.3c-0.1-0.5-0.2-1-0.3-1.5c-0.1-0.6-0.1-1.2-0.1-1.8c0-0.9-0.1-1.9-0.1-2.8
																					c0-0.4,0-0.7-0.1-1.1c0-0.2-0.1-0.3,0-0.5c0.1-0.5,0.4-0.9,0.8-1.2c0.6-0.4,1.4-0.5,2.2-0.4
																					c1.5,0,3.1,0.3,4.5,0.9c1.4,0.6,2.6,1.8,3.2,3.2C242.7,141.1,244.1,141.9,244.1,142.6z"/>
																			</g>
																		</g>
																	</g>
																</g>
															</g>
														</g>
													</g>
												</g>
											</g>
										</g>
									</g>
								</g>
							</g>
						</g>
					</g>
				</g>
				<g>
					<g>
						<g>
							<g>
								<g>
									<g>
										<g>
											<g>
												<g>
													<g>
														<g>
															<g>
																<g>
																	<g>
																		<g>
																			<g>
																				<path class="st0" d="M245.2,137.4c-0.2-1.4-0.8-2.5-1.7-3.4c-0.8-0.8-1.8-1.3-3.1-1.6c-0.8-0.2-1.6-0.3-2.3-0.2
																					c-1.1,0.2-2.1,0.8-3.1,1.2c-1.1,0.4-2.2,0.6-3.2,1c-1,0.5-2,1.4-2,2.5c0,1.2,1,2.2,2.1,2.5
																					c1.1,0.4,2.3,0.3,3.5,0.1c0.8-0.1,2.4-0.6,3.2-0.2c1.1,0.5,0.9,2.2,1.5,3c0.2,0.3,0.5,0.4,0.8,0.4
																					c0.7-0.1,0.9-1.1,1.5-1.4c0.5-0.2,1,0,1.3,0.5c0.2,0.4,0.2,1-0.1,1.4c-0.3,0.4-0.9,0.5-1.2,0.9
																					c-0.2,0.3-0.1,0.8,0,1.2c0.1,0.4,0.4,0.7,0.8,0.8C246.1,147,245.5,138.8,245.2,137.4z"/>
																			</g>
																		</g>
																	</g>
																</g>
															</g>
														</g>
													</g>
												</g>
											</g>
										</g>
									</g>
								</g>
							</g>
						</g>
					</g>
				</g>
			</g>
			<g id="XMLID_5_">
				<g>
					<g>
						<g>
							<g>
								<g>
									<g>
										<g>
											<g>
												<g>
													<g>
														<g>
															<g>
																<path class="st12" d="M241,175.7l-15.2-8.9l-14.8,8.3l15.4,9.4c0.7,0.4,1.5,0.4,2.2,0l12.7-7.1
																	c0.2-0.1,0.3-0.3,0.3-0.6l0,0C241.7,176.4,241.4,175.9,241,175.7z"/>
															</g>
														</g>
													</g>
												</g>
											</g>
										</g>
									</g>
								</g>
							</g>
						</g>
					</g>
					<g>
						<g>
							<g>
								<g>
									<g>
										<g>
											<g>
												<g>
													<g>
														<g>
															<g>
																<path class="st13" d="M226.9,184.4l-16.5-10.1l14-7.8c0.4-0.2,1-0.2,1.4,0l15.1,9.3c0.3,0.2,0.3,0.6,0,0.8
																	L226.9,184.4z"/>
															</g>
														</g>
													</g>
												</g>
											</g>
										</g>
									</g>
								</g>
							</g>
						</g>
					</g>
					<g>
						<g>
							<g>
								<g>
									<g>
										<g>
											<g>
												<g>
													<g>
														<g>
															<g>
																<polygon class="st14" points="219.6,170 232.9,177.7 227.3,181.3 214.4,173.4 																"/>
															</g>
														</g>
													</g>
												</g>
											</g>
										</g>
									</g>
								</g>
							</g>
						</g>
					</g>
					<g>
						<g>
							<g>
								<g>
									<g>
										<g>
											<g>
												<g>
													<g>
														<g>
															<g>
																<polygon class="st14" points="234.6,173.2 228.3,169 224.9,170.9 231.3,175.2 																"/>
															</g>
														</g>
													</g>
												</g>
											</g>
										</g>
									</g>
								</g>
							</g>
						</g>
					</g>
					<path class="st11" d="M232.9,166.3c-0.3-0.3-0.6-0.6-1.1-0.8c-1.3-0.5-2.2,0.1-3.3,1.4l-8.6,11.3c-0.5,1.3,0.2,0,1.5,0.6
						c0.3,0.1,0.6,0.2,0.9,0.2c1,0,0.9,1.5,1.4,0.6c1.8-4.1,8.5-9.3,8.5-9.3C232.5,168.9,232.8,167.7,232.9,166.3z"/>
					<g>
						<g>
							<g>
								<g>
									<g>
										<g>
											<g>
												<g>
													<g>
														<g>
															<g>
																<g>
																	<path class="st1" d="M228.4,183.5l-1.5-14.9c0-0.3-0.2-0.7-0.6-0.9c0,0-7.8-4.8-7.8-4.8l-7.3-4.6
																		c-0.2-0.1-0.4-0.2-0.6-0.2l0,0l0,0c-0.2,0-1.5,0.7-1.5,0.7l0.8,0.5l1.5,14.2c0,0.3,0.2,0.7,0.6,0.9l15.3,9.7
																		C227.3,184.1,228.3,183.6,228.4,183.5z"/>
																</g>
															</g>
														</g>
													</g>
												</g>
											</g>
										</g>
									</g>
								</g>
							</g>
						</g>
						<g>
							<g>
								<g>
									<g>
										<g>
											<g>
												<path d="M210.2,158.9l7.3,4.6c0,0,7.8,4.8,7.8,4.8c0.3,0.2,0.5,0.5,0.6,0.9l1.6,14.5c0.1,0.7-0.6,1.1-1.3,0.7L211,175
													c-0.3-0.2-0.5-0.5-0.6-0.9l-1.6-14.5C208.8,158.9,209.5,158.5,210.2,158.9z"/>
											</g>
										</g>
									</g>
								</g>
							</g>
						</g>
					</g>
				</g>
			</g>
			<g>
				<g>
					<g>
						<g>
							<g>
								<g>
									<g>
										<g>
											<g>
												<g>
													<g>
														<g>
															<g>
																<path class="st11" d="M253.1,160.6l-1.6,16.2c-0.6,2.1-1.9,4.2-4.2,4.6c0,0-9.2-2.5-12.3-2.2
																	c-0.7,0.1-1.4,1.8-2,1.7c-0.9-0.2-1.7-0.9-2-1.8c-0.6-1.6,0.1-3.7,1.7-3.9c3.1-0.5,12.4,0.6,12.4,0.6
																	c0.2-0.1,0.4-0.3,0.5-0.6l1.6-16.2c0.4-1.6,2.1-2.6,3.7-2.1C252.5,157.3,253.5,159,253.1,160.6z"/>
															</g>
														</g>
													</g>
												</g>
											</g>
										</g>
									</g>
								</g>
							</g>
						</g>
					</g>
				</g>
			</g>
			<g>
				<g>
					<g>
						<g>
							<g>
								<g>
									<g>
										<g>
											<g>
												<g>
													<g>
														<g>
															<path class="st8" d="M249.9,154.9c2,0.2,3.4,2.3,3.2,4.8l-1.5,15.7l0,0c-1,1.3-2,1.8-3.4,1.7c-0.2,0-0.4-0.1-0.7-0.1
																c-0.9-0.2-2-0.8-3-1.6l-0.1-0.1l1.5-16.3C246.2,156.5,248,154.7,249.9,154.9z"/>
														</g>
													</g>
												</g>
											</g>
										</g>
									</g>
								</g>
							</g>
						</g>
					</g>
				</g>
			</g>
			<g>
				<g>
					<g>
						<g>
							<g>
								<g>
									<g>
										<g>
											<g>
												<g>
													<g>
														<g>
															<path class="st11" d="M230.5,180.8l2.4-3.4c0.2-0.5,0-1.1-0.5-1.3l0,0c-0.5-0.2-1.1,0-1.3,0.5l-1.5,3.7
																C229.4,180.9,230.3,181.3,230.5,180.8z"/>
														</g>
													</g>
												</g>
											</g>
										</g>
									</g>
								</g>
							</g>
						</g>
					</g>
				</g>
			</g>
		</g>
		<path class="st4" d="M238.7,167.7c0.1,4.6,5,13.1,9.3,13.6c1.5,0.2,10-2,12.6-3.7c4.8-3.2,4.2-8.7,4-11.8
			c-0.3-4.8-4.5-10.8-10.1-11.4C250.1,153.9,238.4,154.3,238.7,167.7z"/>
		
			<ellipse transform="matrix(0.9141 -0.4054 0.4054 0.9141 -45.9096 118.4214)" class="st15" cx="256.6" cy="167.6" rx="1.2" ry="1.8"/>
		<path d="M256.3,175.3c-0.7,2.1,2.3,1.6,5.3,2.1c7,1.2,7.3,0.3,8.2-1.3c0.6-1.1,0.1-3.5-0.8-3.6
			C268.1,172.3,256.8,173.8,256.3,175.3z"/>
		<path class="st11" d="M256.3,175.7c0.4,1,1.4-1,4.1-0.1c3.7,1.3,8.7-2.8,10.7-5.5c0.2-0.3,0.4-1.1-0.2-1.4
			c-0.7-0.4-3.4,0.6-5.3-0.8c-0.9-0.7-0.8-1.2-1.2-1.2c-1.8,0.2-4.9,4.1-6.4,6.4C257.4,174,256,175.1,256.3,175.7z"/>
		<path class="st4" d="M255,209.7c3-1.1,5.7-2.4,8.1-4c-1.3-6.2-5.9-11.7-11.8-13.9c-0.5,0.2-1,0.5-1.6,0.7
			c-2.4,0.8-6.1,1.3-10.2,1.3c-6.1,0-11.2-1.1-12.8-2.6c-0.8,0.2-1.1,0.7-2.3,1c-1,0.2-1.2,0.3-2.1,0.3c-2.4,1.7-4,4.3-5.2,7
			c-1,2.1-1.7,4.5-1.6,6.8c5.9,3.8,14.2,6.2,23.5,6.2C244.8,212.3,250.3,211.4,255,209.7z"/>
		<path class="st5" d="M223.9,192.2c-0.1,0-0.1,0-0.2,0c0,0-0.1,0-0.1,0c0,0-0.1,0-0.1,0c-0.1,0-0.1,0-0.2,0c0,0-0.1,0-0.1,0
			c0,0-0.1,0-0.1,0c0,0,0,0-0.1,0c-0.1,0-0.2,0-0.3,0c4.3,2,10.4,3.3,17.3,3.3c3.8,0,7.4-0.4,10.6-1.1c1.4-0.3,2.7-0.7,3.9-1.1
			c0,0,0,0,0,0c-0.3-0.2-0.6-0.4-0.9-0.6c0,0-0.1-0.1-0.1-0.1c-0.4-0.2-0.7-0.4-1.1-0.6c-0.1-0.1-0.3-0.1-0.4-0.2
			c-0.2-0.1-0.4-0.2-0.7-0.3c-0.4,0.2-1.1,0.2-1.7,0.4c-2.4,0.8-6.2,1.1-10.3,1.1c-6.1,0-9.7-1-11.5-1.8l-1.1-0.4
			c-0.1,0-0.2,0-0.3,0.1c0,0,0,0,0,0c-0.4,0.1-0.7,0.4-1.1,0.6c0,0,0,0,0,0c-0.1,0-0.2,0.1-0.3,0.1c0,0-0.1,0-0.1,0
			c-0.1,0-0.3,0.1-0.5,0.1c-0.1,0-0.2,0-0.3,0.1C224,192.2,224,192.2,223.9,192.2z"/>
		<path class="st4" d="M241.5,175.6c0.1,0.1,1.2,2.5,1.3,2.6c0.2,0.3,0.4,0.7,0.6,1.1v0c1.6,2.6,3,5.3,4.2,8.1
			c0.7,1.5,1.3,3,1.8,4.6c0.1,0.2,0.1,0.4,0.2,0.6c0.1,0.4,0.3,0.8,0.4,1.2c0.2,0.5,0.3,1,0.4,1.5c0.1,0.6,0.3,1.1,0.4,1.7
			c0.2,0.9,0.4,1.8,0.5,2.8c0.4,2.7,0.6,5.6,0.4,8.4c0,0.4-0.1,0.9-0.1,1.3c0,0.1,0,0.2,0,0.3c1.2,0.1,2.3,0.2,3.3,0.1
			c8.3-2.9,14.3-8,15.9-14c0.8-3.9-0.3-6.8-1.6-9.9c-2-3.2-5.3-6-9.5-8.2c-0.4,0-0.8,0.1-1.3,0.2c-2.1,0.4-5,1.1-8.2,1.1h0
			C247.4,178.9,241.3,175.1,241.5,175.6z"/>
	</g>
	<g>
		<path class="st2" d="M255.5,331.6l-10,32.2c-2.4,1.5-5.5-0.2-5.5-3V213.1h26.5v129.3C266.5,347.6,259.8,328.9,255.5,331.6z"/>
		<g>
			<path class="st2" d="M248.5,291.3c5.2-1.5,8.5,2.9,8.5,8.6l0.2,58.6c0,5.7-3.8,12.5-8.6,15c-4.7,2.6-8.6,0-8.7-5.8l-0.2-61.1
				C239.7,301,242.3,293.2,248.5,291.3z"/>
		</g>
		<g>
			<path class="st2" d="M261.7,306.7c2.8-0.8,4.6,1.6,4.6,4.7l0.1,31.8c0,3.1-2.1,6.8-4.6,8.2c-2.6,1.4-4.7,0-4.7-3.1L257,315
				C257,311.9,258.4,307.7,261.7,306.7z"/>
		</g>
	</g>
	<path class="st3" d="M250.4,275.1c-0.4,0-0.7-0.3-0.7-0.7v-44c0-0.4,0.3-0.7,0.7-0.7c0.4,0,0.7,0.3,0.7,0.7v44
		C251.1,274.8,250.8,275.1,250.4,275.1z"/>
	<polygon points="102.9,277.7 111,321.2 170.6,378.2 190.6,351.2 201.1,359 241.1,319.9 251.6,278.8 152.3,269.9 	"/>
	<ellipse cx="177.3" cy="275.1" rx="74.6" ry="36.5"/>
	<ellipse class="st2" cx="178.3" cy="275.1" rx="54.6" ry="25.5"/>
	<ellipse class="st2" cx="178.3" cy="275.1" rx="54.6" ry="25.5"/>
	<g>
		<path class="st2" d="M155.7,98.7l9.6-32.9c3.2-2.4,7.6,10.8,7.6,14.8l0.2,173H137V112.5C137,112.5,154.2,99.9,155.7,98.7z"/>
		<g>
			<path class="st2" d="M164.3,64.2c5.1-1.7,8.4,2.3,8.5,8.7l0.2,58.9c0,5.7-3.9,12.5-8.6,15.1c-4.8,2.6-8.7,0-8.7-5.8l-0.2-61.4
				C155.5,72.3,158.5,66.1,164.3,64.2z"/>
		</g>
		<g>
			<path class="st2" d="M141.8,93.1c2.8-0.8,4.6,1.6,4.6,4.7l0.1,31.9c0,3.1-2.1,6.8-4.7,8.2c-2.6,1.4-4.7,0-4.7-3.1l-0.1-33.3
				C137,98.4,138.4,94.1,141.8,93.1z"/>
		</g>
		<g>
			<path class="st2" d="M150.9,78.6c2.8-0.8,4.6,1.6,4.6,4.7l0.1,53.4c0,3.1-2.1,6.8-4.7,8.2c-2.6,1.4-4.7,0-4.7-3.1L146.2,87
				C146.2,83.9,147.6,79.6,150.9,78.6z"/>
		</g>
	</g>
	<g>
		<g>
			<g>
				<g>
					<g>
						<g>
							<g>
								<g>
									<g>
										<g>
											<path d="M113.1,183.8c-1.3-1.6-3-1.2-3.5-0.4c-1.1-1.6-3.5-2.3-5.4-2.1c-4.3,0.5-7.7,4.2-8.9,8.3
												c-0.5,1.7-0.7,3.5-0.6,5.4c-1.7,0.8-3.5,1.6-5,2.8c-2.3,1.8-3.9,4.9-2.8,7.5c0.3,0.7,0.8,1.3,1,2
												c0.5,1.7-0.7,3.4-1.9,4.5c-1.3,1.2-2.8,2.2-3.5,3.8c-0.9,2,0,4.6,1.9,5.7c2.9,1.7,6.6-0.3,9-2.6c0.3-0.3,0.5-0.5,0.8-0.8
												c2.2-2.1,4.5-4.4,7.5-4.7c0.8-0.1,1.5,0,2.3-0.2c2.1-0.5,3.4-2.8,3.5-5c0.1-2.2-0.6-4.3-1-6.4c-0.4-2.1-0.5-4.5,0.7-6.3
												c0.1-0.2,0.3-0.4,0.5-0.6c1.6-1.8,4.3-2.6,5.8-4.6C114.7,188.5,114.6,185.6,113.1,183.8z"/>
										</g>
									</g>
								</g>
							</g>
						</g>
					</g>
				</g>
			</g>
		</g>
		<g>
			<path class="st16" d="M110.4,238c-2.6,6-2.3,14.3-1.2,16.3c3,5.7,6.5,7.8,10.2,8.3c7.6,1,12.9-3.1,28.7-6.4
				c3.6-0.7,6-0.6,8.7-0.5c5.5-0.9,6.6-9.5-0.8-11.7c-2.6-0.6-22,1-34.2,6.6c0.1-4.9,5.4-19.1,3.1-21.8
				C124.6,228.8,114,235.9,110.4,238z"/>
			<g>
				<path class="st16" d="M148.5,249.9c-0.2,5.9-2.6,13.4-3.1,18.5c-0.6,6.2,0.3,3.1,0.5,11.3c1.8,1.2,8,1.6,9.1,0.7
					c1.1-2.2,5.2-23.3,6.2-27.7C162.9,243.1,150.5,242.2,148.5,249.9z"/>
			</g>
		</g>
		<path class="st9" d="M135.3,235.3c0,0,8.6,1.6,10.5,0.5c1.9-1.1-4.4,6.2-4.4,6.2l-6.6,3.1l-3.4-1.5l-2.1-5.1L135.3,235.3z"/>
		<g>
			<path class="st17" d="M103.8,250.6c-2.6,6-2,14.1-1.2,16.3c2,5.6,6,6.7,9.7,6.8c9.5,0.1,13.4-1.6,29.3-4.8c3.6-0.7,6-0.6,8.7-0.5
				c5.5-0.9,7.1-12-0.3-14.2c-2.6-0.6-5.2-1-7.8-1.1c-7-0.2-13-0.6-20.2-0.5c0.1-4.9-1.2-8.4-3.5-11.1
				C118.1,241.4,107.4,248.5,103.8,250.6z"/>
			<g>
				<path class="st17" d="M140.6,260.1c-0.2,6.7-3,15.1-3.5,20.9c-0.7,7,3.5-6.7,3.7,2.6c2.1,1.4,3,1.1,4.2,0c2.7-6.1,5.1,2.1,7-6.9
					c0.9-4.2,1.9-8.5,3-13.5C156.5,254,142.4,248.7,140.6,260.1z"/>
			</g>
		</g>
		<g>
			<g>
				<g>
					<g>
						<g>
							<g>
								<g>
									<g>
										<g>
											<g>
												<path class="st4" d="M120.7,207.1c0.8-0.7,1.9-1.2,3.1-1.2c2.8-0.1,5.1,2.1,5.2,4.9c0.3,9.2,0.3,9.2,0.6,11.3
													c0.7,4.3,2.6,8.7,5.7,13.3c1.5,2.3,0.9,5.4-1.4,7c-2.3,1.5-5.4,0.9-7-1.4c-3.8-5.7-6.2-11.5-7.2-17.2
													c-0.5-2.7-0.5-2.9-0.8-12.7C118.9,209.5,119.6,208.1,120.7,207.1z"/>
											</g>
										</g>
									</g>
								</g>
							</g>
						</g>
					</g>
				</g>
			</g>
		</g>
		<g>
			<g>
				<g>
					<g>
						<g>
							<g>
								<g>
									<g>
										<g>
											<g>
												<g>
													<path class="st5" d="M102.2,217.6l1.6,6.1l2.4,18.4c0.3,1.2,1.1,2.3,2.2,2.8c2.9,1.5,6.8,7.4,15.2,3.8
														c1.3-0.6,3.1,0.5,3.4-1l6.4-21.1l0.1-0.3c0.4-2.1,0.1-4.3-0.9-6.2l-3.1-5.9v-3.2c0-3.7-3.3-6.4-6.6-5.4l-1.1,0.4
														l-1.8,0.6l-8.1,2.8l-2.4,0.8L105,212C102.8,212.7,101.5,215.2,102.2,217.6z"/>
												</g>
											</g>
										</g>
									</g>
								</g>
							</g>
						</g>
					</g>
				</g>
				<g>
					<g>
						<g>
							<g>
								<g>
									<g>
										<g>
											<g>
												<g>
													<path class="st4" d="M102.2,217.6l1.6,6.1c0.8,1,1.6,2,2.4,3c1.7,2.1,3.5,4.3,5.9,5.4c4,1.8,8.5,0.3,12.5-1.4
														c2.5-1,4.9-2.2,7.4-3.3c0.5-0.2,1-0.5,1.5-0.8l0.1-0.3c0.4-2.1,0.1-4.3-0.9-6.2l-3.1-5.9v-3.2c0-3.7-3.3-6.4-6.6-5.4
														l-1.1,0.4c0,0-1.7,0.6-1.8,0.6C115.4,208.3,100.3,210.5,102.2,217.6z"/>
												</g>
											</g>
										</g>
									</g>
								</g>
							</g>
						</g>
					</g>
				</g>
			</g>
		</g>
		<g>
			<g>
				<g>
					<g>
						<g>
							<g>
								<g>
									<g>
										<g>
											<g>
												<g>
													<path class="st4" d="M102.4,248.6c2-0.5,3.6-2.1,4.1-4.2l5.7-25.8c0.7-3-1.2-5.9-4.2-6.6c-3-0.7-5.9,1.2-6.6,4.2
														L95.7,242c-0.7,3,1.2,5.9,4.2,6.6C100.8,248.8,101.6,248.7,102.4,248.6z"/>
												</g>
											</g>
										</g>
									</g>
								</g>
							</g>
						</g>
					</g>
				</g>
			</g>
			<g>
				<g>
					<g>
						<g>
							<g>
								<g>
									<g>
										<g>
											<g>
												<g>
													<g>
														<path class="st9" d="M130.3,250.5c2.4-0.7,3.7-3.2,2.9-5.6c-0.7-2.4-1.7-0.4-4,0.3c-17.1,5.3-23-3.6-23.1-3.6
															c-1.1-2.2-3.8-3.1-6-2c-2.2,1.1-3.1,3.8-2,6C98.8,246.8,105.3,258.2,130.3,250.5z"/>
													</g>
												</g>
											</g>
										</g>
									</g>
								</g>
							</g>
						</g>
					</g>
				</g>
				<g>
					<g>
						<g>
							<g>
								<g>
									<g>
										<g>
											<g>
												<g>
													<g>
														<path class="st9" d="M129,243.7L129,243.7c-0.1,1,0.7,1.8,1.7,1.9l4.2,0.4c1,0.1,1.9-0.6,1.9-1.6l0,0
															c0.1-1-0.7-1.8-1.7-1.9l-4.2-0.4C130,242.1,129.1,242.8,129,243.7z"/>
													</g>
												</g>
											</g>
										</g>
									</g>
								</g>
							</g>
						</g>
					</g>
				</g>
			</g>
		</g>
		<g>
			<g>
				<g>
					<g>
						<g>
							<g>
								<g>
									<g>
										<g>
											<g>
												<path class="st18" d="M112.6,199.2C112.6,199.2,112.6,199.2,112.6,199.2c0.1,0,0.1-0.1,0.1-0.2
													C112.6,199.1,112.6,199.2,112.6,199.2z"/>
											</g>
										</g>
									</g>
								</g>
							</g>
						</g>
					</g>
				</g>
			</g>
			<g>
				<g>
					<g>
						<g>
							<g>
								<g>
									<g>
										<g>
											<g>
												<g>
													<g>
														<g>
															<g>
																<g>
																	<g>
																		<path class="st9" d="M120.5,200.2v8.8c0,0,0,0.1,0,0.1c0,0.5-0.1,1-0.3,1.5c-0.6,1.7-2.2,2.8-4.1,2.8
																			c-2.4,0-4.4-2-4.4-4.4v-8.8c0-0.9,0.3-1.7,0.7-2.4c0.5-0.7,1.2-1.3,2-1.7c0.5-0.2,1.1-0.3,1.6-0.3
																			c1.2,0,2.3,0.5,3.1,1.3C120,197.9,120.5,199,120.5,200.2z"/>
																	</g>
																</g>
															</g>
														</g>
													</g>
												</g>
											</g>
										</g>
									</g>
								</g>
							</g>
						</g>
					</g>
					<g>
						<g>
							<g>
								<g>
									<g>
										<g>
											<g>
												<g>
													<g>
														<g>
															<g>
																<g>
																	<g>
																		<path class="st9" d="M120.5,200.2v8.8c0,0,0,0.1,0,0.1c0,0.5-0.1,1-0.3,1.5c-4.2-2.5-8.9-22.1-10.6-24.7l2.1,14.3
																			c0-0.9,0.3-1.7,0.7-2.4c0.5-0.7,1.2-1.3,2-1.7c0.5-0.2,1.1-0.3,1.6-0.3c1.2,0,2.3,0.5,3.1,1.3
																			C120,197.9,120.5,199,120.5,200.2z"/>
																	</g>
																</g>
															</g>
														</g>
													</g>
												</g>
											</g>
										</g>
									</g>
								</g>
							</g>
						</g>
					</g>
				</g>
				<g>
					<g>
						<g>
							<g>
								<g>
									<g>
										<g>
											<g>
												<g>
													<path class="st9" d="M123.7,186.2c-0.1,0.9-0.8,1.6-1.6,1.9c-0.8,0.3-1.7,0.3-2.6,0.4c-2.9,0.3-5.6,1.8-7.4,4
														c-4.2,4.9,0.8,13.4,6.7,14.3c3,0.4,6.2-0.5,8.1-2.8c2-2.3,2.4-5.6,2.3-8.6c-0.1-3-0.5-6.1-0.1-9.1
														C127.3,186.2,125.5,186.2,123.7,186.2z"/>
												</g>
											</g>
										</g>
									</g>
								</g>
							</g>
						</g>
					</g>
				</g>
				<g>
					<g>
						<g>
							<g>
								<g>
									<g>
										<g>
											<g>
												<g>
													<path d="M130.8,185.3c-1.1-0.8-2.5-1.2-3.7-1.7c-1.8-0.8-3-2.1-4.9-2.6c-2-0.6-4.2-0.7-6.3-0.2
														c-1.6,0.4-3.1,1.2-4.2,2.4c-1.1,1.2-1.4,2.8-2.5,3.9c-1,1.1-1.1,2.7-0.9,4.2c0.3,3.7,1.5,7.2,3.4,10.4
														c0.2-0.2,0.4-0.4,0.7-0.6c0.1-0.7,0-1.5-0.5-2.1c-0.3-0.3-0.7-0.6-0.9-1c-0.3-0.4-0.3-1-0.2-1.5c0.1-0.5,0.2-1,0.6-1.4
														c0.4-0.4,0.9-0.6,1.4-0.4c0.1,0,0.2,0.1,0.3,0.2c0.1,0.1,0.1,0.3,0.1,0.4c0,1.4-0.3,2.5,0.4,3.7
														c2.4-1.1,3.9-3.8,4.1-6.4c4.2,0,7.6-2.2,11.4-2.6l0.1,2.6c1.1-0.1,2.6-1.7,3-2.7c0.5-1.1,0.5-2.4-0.1-3.4
														C131.7,186.1,131.3,185.6,130.8,185.3z"/>
												</g>
											</g>
										</g>
									</g>
								</g>
							</g>
						</g>
					</g>
				</g>
				<g>
					<g>
						<g>
							<g>
								<g>
									<g>
										<g>
											<g>
												<g>
													<g>
														<path class="st9" d="M115,198c-0.2-0.1-0.4-0.3-0.6-0.6c-0.3-0.5-0.4-1.2-0.6-1.8c-0.4-1.2-1.4-2.3-2.3-2
															c-0.9,0.3-1.4,1.7-1.2,2.9c0.1,1.2,0.8,2.2,1.5,2.9c0.7,0.7,1.5,1.2,2.3,0.9c0.7-0.2,1.2-1.3,1.1-2.2
															C115.1,198.2,115.1,198.1,115,198z"/>
													</g>
												</g>
											</g>
										</g>
									</g>
								</g>
							</g>
						</g>
					</g>
				</g>
			</g>
		</g>
		<g>
			<path class="st19" d="M149.5,233.4c0.9,0.2,2,0.4,3.1,0.5c-0.3,2.1-2.3,1.9-4.1,1.7L149.5,233.4z"/>
			<g>
				<g>
					<g>
						<g>
							<g>
								<g>
									<g>
										<g>
											<g>
												<g>
													<g>
														<g>
															<path class="st1" d="M120.5,256.2c-0.5-0.4-0.6-1.1-0.4-1.6c1.7-3.7,6.4-12.7,8.2-16.5c0.2-0.4,0.4-0.9,0.8-1.1
																c0,0,10.5-5.9,10.6-5.9l9.9-5.7c0.3-0.2,0.5-0.2,0.8-0.2l0,0l0,0c0.3,0,1.6,0.9,1.6,0.9l-0.8,0.7l-8.6,16.6
																c-0.1,0.5-0.4,0.9-0.8,1.1l-19.4,12.4C121.9,257.2,121,256.6,120.5,256.2z"/>
														</g>
													</g>
												</g>
											</g>
										</g>
									</g>
								</g>
							</g>
						</g>
					</g>
				</g>
				<g>
					<g>
						<g>
							<g>
								<g>
									<g>
										<path d="M150.9,226.2l-9.9,5.7c0,0-10.6,5.9-10.6,5.9c-0.4,0.2-0.6,0.7-0.8,1.1c-1.8,3.8-6,12-8.5,16.6
											c-0.5,0.9,0.6,1.9,1.5,1.3l20.5-11.6c0.4-0.2,0.6-0.7,0.8-1.1c2.1-4.6,6.1-12.3,8.3-16.7
											C152.9,226.3,151.8,225.7,150.9,226.2z"/>
									</g>
								</g>
							</g>
						</g>
					</g>
				</g>
			</g>
			<path class="st19" d="M148,235.1c1.6,0.8,1.6,0.1,1.4,1.2c-0.3,1.6-3.6,5.4-5.3,6.2c0,0-0.9,0.3-1.3-0.2
				c-0.4-0.4,0.1-0.6,0.7-1.6l2.6-4.4C146.8,234.9,147,234.6,148,235.1z"/>
		</g>
	</g>
	<g>
		<path class="st20" d="M56,421.7c-8.6,0-15.8-4.1-19.3-7.7v14.5c0,4.8,8.8,9.1,19.3,9.1c10.5,0,19.3-4,19.3-8.9v-14.7
			C71.8,417.7,64.6,421.7,56,421.7z"/>
		<path class="st21" d="M56,419.5c-9,0-16.8-3.1-18.8-7c-0.3,0.6-0.5,1.1-0.5,1.7v0.1c0,0.8,0.2,1.7,1,2.4
			c3.8,3.1,10.5,5.2,18.3,5.2c0,0,0,0,0,0c7.8,0,14.5-2,18.3-5.2c0.9-1,1-1.6,1-2.4c0-0.6-0.2-1.1-0.5-1.7
			C73,416.5,65.1,419.5,56,419.5z"/>
		<path class="st22" d="M56,383.4c10.5,0,19.3-4,19.3-8.9v-14.9H36.7v14.7C36.7,379.1,45.5,383.4,56,383.4z"/>
		<ellipse class="st8" cx="56" cy="359.7" rx="19.3" ry="9.5"/>
		<path class="st23" d="M56,401.6c10.5,0,19.3-4,19.3-8.9V378c-3.5,3.6-10.8,7.1-19.3,7.1c-8.6,0-15.8-3.5-19.3-7.1v14.5
			C36.7,397.3,45.5,401.6,56,401.6z"/>
		<path class="st24" d="M56,403.8c-8.6,0-15.8-4.1-19.3-7.7v14.5c0,4.8,8.8,9.1,19.3,9.1c10.5,0,19.3-4,19.3-8.9v-14.7
			C71.8,399.8,64.6,403.8,56,403.8z"/>
		<ellipse class="st8" cx="71.1" cy="372.2" rx="0.9" ry="1.6"/>
		<ellipse class="st8" cx="71.1" cy="389.7" rx="0.9" ry="1.6"/>
		<ellipse class="st25" cx="71.1" cy="408.6" rx="0.9" ry="1.6"/>
		<path class="st0" d="M56,401.6c-9,0-16.8-3.1-18.8-7c-0.3,0.6-0.5,1.1-0.5,1.7v0.1c0,0.8,0.2,1.7,1,2.4c3.8,3.1,10.5,5.2,18.3,5.2
			c0,0,0,0,0,0c7.8,0,14.5-2,18.3-5.2c0.9-1,1-1.6,1-2.4c0-0.6-0.2-1.1-0.5-1.7C73,398.6,65.1,401.6,56,401.6z"/>
		<path class="st0" d="M56,383.4c-9,0-16.8-3.1-18.8-7c-0.3,0.6-0.5,1.1-0.5,1.7v0.1c0,0.8,0.2,1.7,1,2.4c3.8,3.1,10.5,5.2,18.3,5.2
			c0,0,0,0,0,0c7.8,0,14.5-2,18.3-5.2c0.9-1,1-1.6,1-2.4c0-0.6-0.2-1.1-0.5-1.7C73,380.4,65.1,383.4,56,383.4z"/>
	</g>
	<path class="st2" d="M146.5,278.1c2.9-0.3,4.7-2,6.2-4.6c2.4,0,5.6-1.6,6.2-3.9c5,0.8,13,10.6,7.5,16.9c-5.1,5.8-14.5,8.1-16.1,7.5
		c-3.6-1.1-10.7-2.1-13.3-4.8c-3.3-3.4-4.2-9.7-1.7-12.6c2-2.4,1.8-1.1,4.2,0.2C141.2,277.8,144.5,278.2,146.5,278.1z"/>
	<g>
		<g>
			<g>
				<g>
					<g>
						<g>
							<g>
								<g>
									<g>
										<g>
											<g>
												<g>
													<g>
														<path class="st7" d="M75,76.3c0.1-0.5,0-1-0.2-1.5c-0.6-1.1-1.9-1.7-3-1.1c-3.5,1.9-3.6,2.2-4.4,2.5
															c-1.8,0.7-3.9,0.9-6.3,0.8c-1.2-0.1-2.3,0.9-2.3,2.1c-0.1,1.2,1,2.6,2.2,2.6c3,0.2,8.4,0.4,10.8-0.5
															c1.1-0.4-1.7-1.4,2.1-3.4C74.5,77.5,74.9,77,75,76.3z"/>
													</g>
												</g>
											</g>
										</g>
									</g>
								</g>
							</g>
						</g>
					</g>
				</g>
				<g>
					<g>
						<g>
							<g>
								<g>
									<g>
										<g>
											<g>
												<g>
													<path class="st9" d="M61.4,79.9c0.2-0.8-0.4-2.1-1.2-2.5c-3.3-1.3-6.4-3.5-8.8-6.1c-0.6-0.6-1.6-0.7-2.2-0.1
														c-0.6,0.6-0.3,1.3,0.2,2c2.7,3,6.1,6.4,9.8,7.9C60.1,81.4,61.1,81,61.4,79.9z"/>
												</g>
											</g>
										</g>
									</g>
								</g>
							</g>
						</g>
					</g>
				</g>
			</g>
			<g>
				<g>
					<g>
						<g>
							<g>
								<path d="M75.4,146.5c0,0.7-0.1,1.4-0.7,1.7c-0.2,0.1-0.5,0.2-0.8,0.2c-2.7,0.4-5.5,0.4-8.3,0c-1.9-0.2-0.6-1.5,0.4-1.9
									c0.2-0.1,0.3-0.1,0.5-0.2c1.1-0.4,2.1-0.8,3.2-1.3c1.2-0.5,2.4-1,3.7-1c0.1,0,0.3,0,0.5,0.1c0.1,0,0.2,0.1,0.3,0.1
									c0.4,0.1,0.7,0.4,0.9,0.8C75.2,145.4,75.3,145.9,75.4,146.5z"/>
							</g>
						</g>
					</g>
				</g>
			</g>
			<g>
				<g>
					<g>
						<g>
							<path class="st9" d="M74.3,126.8L74.3,126.8l0.6,13.4l0.2,4.2c0,0.2,0,0.4-0.1,0.6c0,0,0,0,0,0c-0.2,0.8-0.9,1.3-1.7,1.3
								l-0.8-0.1c-0.8-0.1-1.4-0.7-1.5-1.6l0-0.1l-0.9-6.4c0,0-1.1-7.9-1.5-11.4L74.3,126.8L74.3,126.8z"/>
						</g>
					</g>
				</g>
			</g>
			<g>
				<g>
					<g>
						<g>
							<g>
								<path class="st9" d="M74.6,144.5c0.6,0.5,0.8,1.1,0.3,1.8c-0.8,1-4.9,0.6-6,0.7c-0.4,0-1.7,0.1-1.3-0.7
									c0.1-0.3,0.4-0.4,0.6-0.6c0.8-0.4,1.6-0.7,2.4-1c0.4-0.1,0.9-0.2,1.3-0.4c0.2-0.1,0.4-0.3,0.7-0.4
									C73.1,143.7,74,144,74.6,144.5z"/>
							</g>
						</g>
					</g>
				</g>
			</g>
			<g>
				<g>
					<g>
						<g>
							<g>
								<path d="M71.3,91.7l11.4,0.6c5.4,5.3,2.6,17.7,2.4,20.1c-0.3,3.5,0.8,6.9,0.2,10.3c-1.1,1-2.4,2-3.9,1.9
									c-1.5-0.1-2.8-1.3-3.4-2.6c-1.9-4.4-1.2-11.1-1.5-15.8l-2,18.3l0.4,9.2c0.1,3.6,0.1,3.8-0.6,4.2c-1.3,0.8-4.2,0.9-5.5,0.2
									c-1-0.5-0.9-0.9-1.1-1.8c0,0-0.8-26,0.2-34.4C68.8,93.9,71.3,91.7,71.3,91.7z"/>
							</g>
						</g>
					</g>
				</g>
			</g>
			<g>
				<g>
					<g>
						<g>
							<g>
								<path d="M96.4,138.9c0.1,0.5,0.2,1,0.3,1.4c0.1,0.5,0.2,1,0.4,1.4c0.3,0.7,0.8,2,1.7,2.1c1.3,0.1,1.9-1.5,2-2.4
									c0.2-1.5,0.2-2.9,0.1-4.4c0-0.6-0.1-1.3-0.4-1.8c-1-1.7-3.6-2.9-4.9-0.9c-0.5,0.7-0.4,1.4,0,2.1
									C96,137.1,96.2,138,96.4,138.9z"/>
							</g>
						</g>
					</g>
				</g>
			</g>
			<g>
				<g>
					<g>
						<g>
							<path class="st9" d="M90.7,125.5c0,0,7.5,7.5,7.5,7.5c1.1,1.1,1.5,3.3,1.5,4.8c0,1.1-0.3,2.3-1.1,3c-0.2,0.2-0.4,0.3-0.6,0.3
								c-0.1,0-0.3-0.1-0.4-0.2c-1.3-1.4-1.3-3.7-2.7-4.8l-6.8-5.7l-8-6.6c-1.1-1-1.5-2.6-0.7-3.9c0,0,0,0,0-0.1
								c1-1.8,3.4-2,4.9-0.6L90.7,125.5z"/>
						</g>
					</g>
				</g>
			</g>
			<g>
				<g>
					<g>
						<g>
							<path d="M90.2,123.5c0.7,0.8,1,1.8,0.8,2.8c0,0,0,0.1,0,0.1l0,0c-0.4,1.9-2.4,3.6-2.8,3.9l0,0c-0.5,0.6-1.5,0.7-2.1,0.2l0,0
								l-6.4-6.4c-1-1-1.2-2.5-0.5-3.7c0.3-0.5,0.6-1,0.9-1.5c1-1.7,3.3-2,4.8-0.7L90.2,123.5z"/>
						</g>
					</g>
				</g>
			</g>
			<g>
				<g>
					<g>
						<g>
							<g>
								<g>
									<path class="st4" d="M83.5,71.2c0.1-0.3-0.5,0.7-0.6,0.9c-0.2,0.1-1.1,0.9-0.7,0.7c-1.9,1.3-3.9,1.7-6.1,1.7c0,0,0,0-0.1,0
										c-3.6,0.1-6.7-2.3-7.7-5.8c-0.1-0.2-0.1-0.4-0.1-0.6c-0.2-1.1-0.3-2.2,0-3.3c0.8-3,3.9-5,6.5-5.9c1.9-0.7,4-0.4,5.5,0.8
										c2.4,2,2.5,5.4,3,8.2c0.1,0.9,0.4,1.6,0.7,2.2C83.7,70.5,83.6,70.9,83.5,71.2z"/>
								</g>
							</g>
						</g>
					</g>
				</g>
				<g>
					<g>
						<g>
							<g>
								<g>
									<path class="st26" d="M80.7,64l0.2,1c0,0,0,0,0-0.1C80.8,64.7,80.8,64.4,80.7,64z"/>
								</g>
							</g>
						</g>
					</g>
				</g>
			</g>
			<g>
				<g>
					<g>
						<g>
							<g>
								<path class="st7" d="M85.2,79.5l-0.9,3.2L83,92.6c-0.2,0.7-0.6,1.2-1.2,1.5c-1.6,0.8-4.4,2.1-8.9,0.2
									c-0.7-0.3-2-0.9-2.1-1.7l-2.4-8.2l0-0.1c-0.2-1.1,0-2.3,0.5-3.3l1.6-3.2l1.1,0.4c0-2,0.7-5.6,2.5-5l0.6,0.2l1,0.3l4.3,1.5
									l1.3,0.4l2.5,0.9C84.9,76.9,85.5,78.2,85.2,79.5z"/>
							</g>
						</g>
					</g>
				</g>
			</g>
			<g>
				<g>
					<g>
						<g>
							<g>
								<path class="st8" d="M85.2,79.5l-0.9,3.2c-0.4,0.5-0.9,1.1-1.3,1.6c-0.9,1.1-1.9,2.3-3.2,2.9c-2.1,1-4.6,0.2-6.7-0.7
									c-1.3-0.6-2.7-1.2-4-1.8c-0.3-0.1-0.5-0.3-0.8-0.4l0-0.1c-0.2-1.1,0-2.3,0.5-3.3c0,0,1.1-2.3,1.3-3.1
									c0.1-0.4,0.3-1.7,0.3-1.7c0.2-2.1,1.8-3.4,3.5-2.9l0.6,0.2l1,0.3l4.3,1.5l1.3,0.4l2.5,0.9C84.9,76.9,85.5,78.2,85.2,79.5z"
									/>
							</g>
						</g>
					</g>
				</g>
			</g>
			<g>
				<g>
					<g>
						<g>
							<g>
								<path class="st9" d="M81.2,75.6c-0.6,1-1.5,1.9-2.3,2.7c-0.7,0.6-1.4,1.2-2.2,1.4c-0.8,0.3-1.8,0.2-2.5-0.3
									c-0.6-0.5-0.8-1.2-0.9-1.9c0-0.7,0.2-1.4,0.4-2.1c0.3-0.7,0.6-1.4,1-2l1,0.3l4.3,1.5L81.2,75.6z"/>
							</g>
						</g>
					</g>
				</g>
			</g>
			<g>
				<g>
					<g>
						<g>
							<g>
								<path class="st14" d="M67,83.1l0.1,0.1c0,0,0,0,0,0C67,83.2,67,83.2,67,83.1z"/>
							</g>
						</g>
					</g>
				</g>
			</g>
			<g>
				<g>
					<g>
						<g>
							<g>
								<path class="st4" d="M77.2,60.1c-0.4,0.1-0.8,0.2-1.1-0.1c-0.3-0.3-0.2-0.9,0.1-1.3c0.2-0.4,0.6-0.9,0.4-1.3
									c-0.2-0.3-0.6-0.5-0.9-0.5c-0.9-0.1-1.9,0.1-2.6,0.6c-1.2,0.8-1.9,2.3-2.4,3.7c-0.1,0.2-0.1,0.4,0,0.5
									c0.1,0.1,0.2,0.1,0.3,0.1c1.9,0.3,3.9-0.2,5.5-1.2L77.2,60.1z"/>
							</g>
						</g>
					</g>
				</g>
			</g>
			<g>
				<g>
					<g>
						<g>
							<g>
								<path class="st4" d="M69.7,65.7c0,3.4,2.6,6.2,5.9,6.2c1.3,0,2.5-0.4,3.4-1.2c1.5-1.1,2.4-2.9,2.4-5c0-0.4,0-0.9-0.1-1.3
									c-0.1-0.7-0.4-1.3-0.7-1.9c-0.5-0.9-1.3-1.7-2.2-2.2c-0.8-0.5-1.8-0.7-2.8-0.7c-0.1,0-0.3,0-0.4,0c-0.8,0.1-1.6,0.3-2.2,0.6
									C71,61.1,69.7,63.2,69.7,65.7z"/>
							</g>
						</g>
					</g>
				</g>
			</g>
			<g id="XMLID_4_">
				<g>
					<g>
						<g>
							<g>
								<polygon class="st9" points="73.7,70.3 73.9,70.9 75.1,75 75.4,75.8 76,75.8 80.7,76.2 80.4,75.5 79.1,71.6 78.8,70.7 
									78.1,68.7 								"/>
							</g>
						</g>
					</g>
				</g>
				<g>
					<g>
						<g>
							<g>
								<path class="st9" d="M73.7,70.3l0.2,0.5l1.2,4.2c1.4-1.4,2.6-2.8,3.7-4.3l-0.7-2L73.7,70.3z"/>
							</g>
						</g>
					</g>
				</g>
			</g>
			<g>
				<g>
					<g>
						<g>
							<g>
								<path class="st9" d="M69.4,66.1c0,3.2,2.5,5.8,5.6,5.8c1.2,0,2.4-0.4,3.3-1.1c1.4-1,2.3-2.8,2.3-4.7c0-3.2-2.5-5.8-5.6-5.8
									c-0.1,0-0.2,0-0.4,0C71.7,60.5,69.4,63,69.4,66.1z"/>
							</g>
						</g>
					</g>
				</g>
			</g>
			<g>
				<g>
					<g>
						<g>
							<g>
								<path class="st4" d="M78.9,64c-1.6-0.3-2.9-1.1-3.7-2.9c-0.1-0.3-0.2-0.7-0.1-1c0.4-0.9,3.1,0.2,3.1,1.1v-1
									c1.5,0.8,2.7,2.3,3.1,4.1C80.5,64.2,79.7,64.2,78.9,64z"/>
							</g>
						</g>
					</g>
				</g>
			</g>
			<g>
				<g>
					<g>
						<g>
							<g>
								<circle class="st9" cx="80.2" cy="65.6" r="1.8"/>
							</g>
						</g>
					</g>
				</g>
			</g>
			<g>
				<g>
					<g>
						<g>
							<g>
								<path class="st1" d="M73.1,67.7c-1.1,0.3-2.3-0.2-2.8-1.3c-0.1-0.2,0-0.5,0.2-0.5l3.9-1.2c0.2-0.1,0.4,0.1,0.4,0.3
									C74.9,66.2,74.2,67.4,73.1,67.7z"/>
							</g>
						</g>
					</g>
				</g>
			</g>
			<g>
				<g>
					<g>
						<g>
							<g>
								<g>
									<g>
										<g>
											<g>
												<g>
													<g>
														<g>
															<g>
																<g>
																	<g>
																		<g>
																			<g>
																				<path class="st8" d="M103.5,100.2c0,0,0.1-0.1,0.1-0.1c0.7-1,0.5-2.4-0.5-3.2C96,91.9,89.8,85.2,85.4,77.7
																					c-0.6-1.1-2-1.4-3.1-0.8c-1.1,0.6-1.7,3.3-1.1,4.3c4.8,8,11.9,13.4,19.5,18.9
																					C101.6,100.8,102.7,101.1,103.5,100.2z"/>
																			</g>
																		</g>
																	</g>
																</g>
															</g>
														</g>
													</g>
												</g>
											</g>
										</g>
									</g>
								</g>
							</g>
						</g>
					</g>
				</g>
			</g>
			<path class="st9" d="M105.7,99.4c0.9,0.5,1.8,0.9,2.8,1.1c0.8,0.2,2,0.1,2,0.2c0.1,0.2-1.1,0.5-2,0.5c0.6,0.1,2.1,0.1,2.1,0.2
				c0.1,0.3-1,1-1.4,1.1c-0.4,0.1-0.8,0.2-1.3,0.2c-1.4,0-4.6-1.4-4.8-1.6c-0.5-0.4-0.5-1.2-0.8-1.7c-0.2-0.3-0.3-0.7-0.3-1.1
				c0-0.3,0.2-0.7,0.5-0.8c0.3,0,0.7,0.4,0.9,0.6C104.3,98.7,105,99.1,105.7,99.4z"/>
			<path class="st9" d="M103.1,101.7c0.2,0.8,0.5,1.6,0.7,2.4c0.2,0,0.3-0.2,0.4-0.4c0.2-0.5,0.1-1.1,0.3-1.6
				c0.1-0.4,0.4-0.8,0.3-1.3c0-0.2-0.1-0.3-0.3-0.5c-0.4-0.5-1.3-1.2-1.9-0.7c-0.3,0.2-0.5,0.3-0.3,0.5
				C102.5,100.5,102.9,101.2,103.1,101.7z"/>
			<ellipse class="st9" cx="102.7" cy="99" rx="0.9" ry="1.3"/>
		</g>
		<g>
			<path class="st9" d="M47.5,72.1c-0.7-0.2-1.1-0.4-1.4-0.9c-1.5-2-0.7-4.7-0.4-5.2c0.1-0.2,0.6,0.5,1,0.6c1.2,0.3,2.2,1,2.9,2
				c0.7,1,1.1,2.2,1,3.4c0,0.6-0.4,1.4-1.1,1.1C48.8,72.8,48.1,72.3,47.5,72.1z"/>
			<path class="st9" d="M51.1,67.9c-0.1-0.5,0-1.1-0.1-1.6c0-0.1,0-0.1-0.1-0.2c-0.1-0.1-0.4,0-0.5,0.1c-0.5,0.5-0.8,1.2-0.7,2
				c0,0.4,0.1,0.7,0.3,1.1c0.2,0.5,0.3,1,0.5,1.5c0.2,0.6,0.4,1.2,0.9,1.5c0.1,0,0.1,0.1,0.2,0.1c0.3,0-0.1,0,0-0.1
				c0.5-0.4,0.6-1.5,0.6-1.9C52.1,69.1,51.2,68.7,51.1,67.9z"/>
			<g>
				<g>
					<g>
						<g>
							<g>
								<g>
									<g>
										<path d="M48.8,72.7l2.2-2c0.1-0.1,0.1-0.2,0.1-0.4l-2.6-7.3c-0.2-0.4-1.1-0.4-1.4-0.2l-2.8,2c-0.1,0.1-0.1,0.2-0.1,0.4
											l3.1,7.1C47.7,72.9,48.6,72.9,48.8,72.7z"/>
									</g>
								</g>
							</g>
						</g>
					</g>
				</g>
				<g>
					<g>
						<g>
							<g>
								<g>
									<g>
										<path d="M48.8,72.7l2.8-2c0.1-0.1,0.1-0.2,0.1-0.4l-3.1-7.1c-0.2-0.4-0.7-0.6-0.9-0.4l-2.8,2c-0.1,0.1-0.1,0.2-0.1,0.4
											l3.1,7.1C48.1,72.7,48.6,72.9,48.8,72.7z"/>
									</g>
								</g>
							</g>
						</g>
					</g>
				</g>
				<g>
					<g>
						<g>
							<g>
								<g>
									<g>
										<path class="st2" d="M50.5,69l-2.3-5.1c-0.1-0.1-0.1-0.2-0.3-0.2c-0.1,0-0.3,0-0.4,0.1L45.7,65c-0.2,0.1-0.2,0.3-0.1,0.5
											l2.2,5.1c0.1,0.1,0.1,0.2,0.3,0.2c0,0,0.1,0,0.1,0c0.1,0,0.2,0,0.2-0.1l1.9-1.3C50.5,69.4,50.6,69.2,50.5,69z"/>
									</g>
								</g>
							</g>
						</g>
					</g>
				</g>
				<g>
					<g>
						<g>
							<g>
								<g>
									<g>
										<path class="st27" d="M50.2,70.8c0,0.2-0.2,0.4-0.3,0.4c-0.2,0-0.3-0.1-0.3-0.3c0-0.2,0.2-0.4,0.3-0.4
											C50,70.4,50.2,70.6,50.2,70.8z"/>
									</g>
								</g>
							</g>
						</g>
					</g>
				</g>
			</g>
		</g>
	</g>
	<path class="st3" d="M164.9,142.3c-0.4,0-0.7-0.3-0.7-0.7V79.9c0-0.4,0.3-0.7,0.7-0.7c0.4,0,0.7,0.3,0.7,0.7v61.7
		C165.6,142,165.3,142.3,164.9,142.3z"/>
	<path class="st3" d="M164.9,218.6c-0.4,0-0.7-0.3-0.7-0.7v-65.2c0-0.4,0.3-0.7,0.7-0.7c0.4,0,0.7,0.3,0.7,0.7v65.2
		C165.6,218.3,165.3,218.6,164.9,218.6z"/>
	<path class="st3" d="M164.9,239.4c-0.4,0-0.7-0.3-0.7-0.7v-9.9c0-0.4,0.3-0.7,0.7-0.7c0.4,0,0.7,0.3,0.7,0.7v9.9
		C165.6,239.1,165.3,239.4,164.9,239.4z"/>
	<path class="st3" d="M158,176.6c-0.4,0-0.7-0.3-0.7-0.7v-61.7c0-0.4,0.3-0.7,0.7-0.7s0.7,0.3,0.7,0.7v61.7
		C158.7,176.3,158.4,176.6,158,176.6z"/>
	<path class="st3" d="M158,205.4c-0.4,0-0.7-0.3-0.7-0.7V186c0-0.4,0.3-0.7,0.7-0.7s0.7,0.3,0.7,0.7v18.7
		C158.7,205,158.4,205.4,158,205.4z"/>
	<path class="st3" d="M145.9,124.5c-0.4,0-0.7-0.3-0.7-0.7V106c0-0.4,0.3-0.7,0.7-0.7c0.4,0,0.7,0.3,0.7,0.7v17.7
		C146.7,124.2,146.3,124.5,145.9,124.5z"/>
	<path class="st3" d="M145.9,148.9c-0.4,0-0.7-0.3-0.7-0.7v-12.7c0-0.4,0.3-0.7,0.7-0.7c0.4,0,0.7,0.3,0.7,0.7v12.7
		C146.7,148.6,146.3,148.9,145.9,148.9z"/>
	<path class="st3" d="M145.9,201.2c-0.4,0-0.7-0.3-0.7-0.7v-38.7c0-0.4,0.3-0.7,0.7-0.7c0.4,0,0.7,0.3,0.7,0.7v38.7
		C146.7,200.9,146.3,201.2,145.9,201.2z"/>
	<path class="st3" d="M145.9,219.9c-0.4,0-0.7-0.3-0.7-0.7v-5.7c0-0.4,0.3-0.7,0.7-0.7c0.4,0,0.7,0.3,0.7,0.7v5.7
		C146.7,219.6,146.3,219.9,145.9,219.9z"/>
	<path class="st3" d="M261.4,242.4c-0.4,0-0.7-0.3-0.7-0.7V226c0-0.4,0.3-0.7,0.7-0.7s0.7,0.3,0.7,0.7v15.7
		C262.1,242.1,261.8,242.4,261.4,242.4z"/>
	<path class="st3" d="M261.4,296.8c-0.4,0-0.7-0.3-0.7-0.7v-42.4c0-0.4,0.3-0.7,0.7-0.7s0.7,0.3,0.7,0.7V296
		C262.1,296.4,261.8,296.8,261.4,296.8z"/>
	<path class="st3" d="M257.4,312.3c-0.4,0-0.7-0.3-0.7-0.7V306c0-0.4,0.3-0.7,0.7-0.7s0.7,0.3,0.7,0.7v5.6
		C258.1,312,257.8,312.3,257.4,312.3z"/>
	<path class="st3" d="M206.6,85.5c-0.4,0-0.7-0.3-0.7-0.7V61.7c0-0.4,0.3-0.7,0.7-0.7c0.4,0,0.7,0.3,0.7,0.7v23.1
		C207.3,85.1,207,85.5,206.6,85.5z"/>
	<path class="st3" d="M206.6,99.6c-0.4,0-0.7-0.3-0.7-0.7v-8.4c0-0.4,0.3-0.7,0.7-0.7c0.4,0,0.7,0.3,0.7,0.7v8.4
		C207.3,99.2,207,99.6,206.6,99.6z"/>
	<path class="st3" d="M206.6,150.2c-0.4,0-0.7-0.3-0.7-0.7v-38.7c0-0.4,0.3-0.7,0.7-0.7c0.4,0,0.7,0.3,0.7,0.7v38.7
		C207.3,149.9,207,150.2,206.6,150.2z"/>
	<path class="st3" d="M213.3,116c-0.4,0-0.7-0.3-0.7-0.7V94.6c0-0.4,0.3-0.7,0.7-0.7s0.7,0.3,0.7,0.7v20.7
		C214,115.7,213.7,116,213.3,116z"/>
	<path class="st3" d="M213.3,135.8c-0.4,0-0.7-0.3-0.7-0.7v-5.5c0-0.4,0.3-0.7,0.7-0.7s0.7,0.3,0.7,0.7v5.5
		C214,135.5,213.7,135.8,213.3,135.8z"/>
	<path class="st3" d="M144.8,278.5c-0.3,0-0.6,0-0.9,0c-2.9-0.1-6.4-1.3-7.6-3.8c-0.2-0.4,0-0.8,0.4-0.9c0.4-0.2,0.8,0,0.9,0.4
		c0.9,2,3.9,2.9,6.3,3c1.6,0,3.5,0,5.1-0.7c1.6-0.7,2.8-2,3.1-3.4c0.1-0.4,0.4-0.6,0.8-0.6c3.7,0.4,4.9-1.4,5.4-3
		c0.1-0.4,0.5-0.6,0.9-0.5c0.4,0.1,0.6,0.5,0.5,0.9c-0.3,1.3-1.7,4.3-6.3,4.1c-0.5,1.6-1.9,3.1-3.7,3.8
		C148,278.3,146.3,278.5,144.8,278.5z"/>
	<path id="cloud_5_" class="st1" d="M335.7,103.9c-5.3-3.1-9.9-1.9-12.1,2.3c-0.7-0.6-1.5-1.2-2.3-1.6c-4.7-2.7-8.7-1.6-10.1,2.4
		c-0.7-0.7-1.4-1.2-2.2-1.7c-4.1-2.4-7.4-0.4-7.4,4.3s3.3,10.4,7.4,12.8l26.8,15.5c7.5,4.3,13.6,0.3,13.6-9.1
		S343.2,108.2,335.7,103.9z"/>
	<path class="st1" d="M126.9,201.4c0,0-0.6,1.5-1.6,2.4c-0.1,0.1-0.6,0.2-2.3-0.8c-1-0.5-1.6-1.7-0.1-1.6
		C123.4,201.5,125.9,201.7,126.9,201.4z"/>
	<path class="st1" d="M234.1,145.9c0,0,0.5,1.3,1.4,2.1c0.1,0.1,0.6,0.2,2-0.7c0.8-0.5,1.4-1.4,0.1-1.3
		C237.1,146.1,235,146.2,234.1,145.9z"/>
	<g>
		<path class="st22" d="M108.4,368.8c4.6,0,8.5-1.8,8.5-3.9v-6.5h-17v6.4C99.9,367,103.7,368.8,108.4,368.8z"/>
		<ellipse class="st8" cx="108.4" cy="358.4" rx="8.5" ry="4.2"/>
		<path class="st23" d="M108.4,376.8c4.6,0,8.5-1.8,8.5-3.9v-6.5c-1.6,1.6-4.7,3.1-8.5,3.1c-3.8,0-6.9-1.5-8.5-3.1v6.4
			C99.9,374.9,103.7,376.8,108.4,376.8z"/>
		<path class="st24" d="M108.4,377.8c-3.8,0-6.9-1.8-8.5-3.4v6.4c0,2.1,3.9,4,8.5,4c4.6,0,8.5-1.8,8.5-3.9v-6.5
			C115.3,376,112.1,377.8,108.4,377.8z"/>
		<ellipse class="st8" cx="115" cy="363.9" rx="0.4" ry="0.7"/>
		<ellipse class="st8" cx="115" cy="371.6" rx="0.4" ry="0.7"/>
		<ellipse class="st25" cx="115" cy="379.9" rx="0.4" ry="0.7"/>
		<path class="st0" d="M108.4,376.8c-3.9,0-7.4-1.4-8.3-3.1c-0.1,0.2-0.2,0.5-0.2,0.8v0c0,0.4,0.1,0.8,0.4,1c1.7,1.4,4.6,2.3,8,2.3
			c0,0,0,0,0,0c3.4,0,6.4-0.9,8-2.3c0.4-0.4,0.4-0.7,0.4-1.1c0-0.3-0.1-0.5-0.2-0.7C115.8,375.5,112.3,376.8,108.4,376.8z"/>
		<path class="st0" d="M108.4,368.8c-3.9,0-7.4-1.4-8.3-3.1c-0.1,0.2-0.2,0.5-0.2,0.8v0c0,0.4,0.1,0.8,0.4,1c1.7,1.4,4.6,2.3,8,2.3
			c0,0,0,0,0,0c3.4,0,6.4-0.9,8-2.3c0.4-0.4,0.4-0.7,0.4-1.1c0-0.3-0.1-0.5-0.2-0.7C115.8,367.5,112.3,368.8,108.4,368.8z"/>
	</g>
	<g>
		<path class="st22" d="M294.2,401.6c12.2,0,22.4-4.7,22.4-10.3v-17.2h-44.8v17C271.8,396.7,282,401.6,294.2,401.6z"/>
		<ellipse class="st8" cx="294.2" cy="374.1" rx="22.4" ry="11"/>
		<path class="st24" d="M294.2,422.6c12.2,0,22.4-4.7,22.4-10.3v-17.1c-4.1,4.2-12.5,8.3-22.4,8.3c-9.9,0-18.3-4.1-22.4-8.3v16.8
			C271.8,417.7,282,422.6,294.2,422.6z"/>
		<path class="st20" d="M294.2,425.3c-9.9,0-18.3-4.7-22.4-8.9v16.8c0,5.6,10.2,10.5,22.4,10.5c12.2,0,22.4-4.7,22.4-10.3v-17.1
			C312.5,420.6,304.1,425.3,294.2,425.3z"/>
		<ellipse class="st8" cx="311.6" cy="388.7" rx="1" ry="1.9"/>
		<ellipse class="st8" cx="311.6" cy="408.8" rx="1" ry="1.9"/>
		<ellipse class="st25" cx="311.6" cy="430.8" rx="1" ry="1.9"/>
		<path class="st21" d="M294.2,422.6c-10.4,0-19.4-3.6-21.8-8.2c-0.4,0.6-0.6,1.3-0.6,2v0.1c0,1,0.3,2,1.2,2.8
			c4.4,3.6,12.2,6,21.2,6c0,0,0,0,0,0c9,0,16.8-2.4,21.2-6c1.1-1.1,1.2-1.8,1.2-2.8c0-0.7-0.2-1.3-0.5-1.9
			C313.8,419.1,304.7,422.6,294.2,422.6z"/>
		<path class="st0" d="M294.2,401.6c-10.4,0-19.4-3.6-21.8-8.2c-0.4,0.6-0.6,1.3-0.6,2v0.1c0,1,0.3,2,1.2,2.8c4.4,3.6,12.2,6,21.2,6
			c0,0,0,0,0,0c9,0,16.8-2.4,21.2-6c1.1-1.1,1.2-1.8,1.2-2.8c0-0.7-0.2-1.3-0.5-1.9C313.8,398.1,304.7,401.6,294.2,401.6z"/>
	</g>
	<g>
		<path class="st22" d="M329.5,328.1c7.1,0,13.1-2.7,13.1-6v-10.1h-26.1v9.9C316.5,325.2,322.4,328.1,329.5,328.1z"/>
		<ellipse class="st8" cx="329.5" cy="312.1" rx="13.1" ry="6.4"/>
		<path class="st23" d="M329.5,340.4c7.1,0,13.1-2.7,13.1-6v-10c-2.4,2.5-7.3,4.8-13.1,4.8c-5.8,0-10.7-2.4-13.1-4.8v9.8
			C316.5,337.5,322.4,340.4,329.5,340.4z"/>
		<path class="st24" d="M329.5,341.9c-5.8,0-10.7-2.7-13.1-5.2v9.8c0,3.3,6,6.1,13.1,6.1c7.1,0,13.1-2.7,13.1-6v-10
			C340.2,339.2,335.3,341.9,329.5,341.9z"/>
		<ellipse class="st8" cx="339.7" cy="320.6" rx="0.6" ry="1.1"/>
		<ellipse class="st8" cx="339.7" cy="332.3" rx="0.6" ry="1.1"/>
		<ellipse class="st25" cx="339.7" cy="345.1" rx="0.6" ry="1.1"/>
		<path class="st0" d="M329.5,340.4c-6.1,0-11.3-2.1-12.7-4.8c-0.2,0.4-0.4,0.8-0.4,1.2v0c0,0.6,0.2,1.2,0.7,1.6
			c2.6,2.1,7.1,3.5,12.4,3.5h0c5.3,0,9.8-1.4,12.4-3.5c0.6-0.7,0.7-1.1,0.7-1.6c0-0.4-0.1-0.8-0.3-1.1
			C341,338.4,335.7,340.4,329.5,340.4z"/>
		<path class="st0" d="M329.5,328.1c-6.1,0-11.3-2.1-12.7-4.8c-0.2,0.4-0.4,0.8-0.4,1.2v0c0,0.6,0.2,1.2,0.7,1.6
			c2.6,2.1,7.1,3.5,12.4,3.5h0c5.3,0,9.8-1.4,12.4-3.5c0.6-0.7,0.7-1.1,0.7-1.6c0-0.4-0.1-0.8-0.3-1.1
			C341,326.1,335.7,328.1,329.5,328.1z"/>
	</g>
	<path class="st3" d="M105.8,89.4c-0.4,0-0.7-0.3-0.7-0.7V70.5c0-0.4,0.3-0.7,0.7-0.7c0.4,0,0.7,0.3,0.7,0.7v18.2
		C106.5,89.1,106.2,89.4,105.8,89.4z"/>
	<path class="st2" d="M236.5,222.1h0.8c1.5,0,2.8,1.3,2.7,2.8l-0.1,3h7.6l2.8-8.2l-1.1-3.8l-16.3-1.6l-1.3,3.6L236.5,222.1z"/>
	<path class="st3" d="M167.9,267.9c-1.8,0-3.6-0.1-5.4-0.4c-0.4-0.1-0.7-0.4-0.6-0.8c0.1-0.4,0.4-0.7,0.8-0.6
		c2.6,0.4,5.2,0.5,7.8,0.3c1.3-0.1,2.8-0.3,3.7-1.3c0.4-0.4,0.6-1.2,0.5-1.8c-0.1-0.3-0.2-0.7-0.6-0.8c-0.3-0.1-0.5-0.5-0.4-0.8
		c0.1-0.3,0.4-0.6,0.8-0.5c2.3,0.2,4.5,0.3,6.1-0.8c0.8-0.6,1.4-1.7,1.3-2.8c0-0.5-0.2-1.2-0.9-1.6c-0.4-0.2-0.5-0.6-0.3-1
		c0.2-0.4,0.6-0.5,1-0.3c1,0.5,1.6,1.5,1.7,2.7c0.1,1.6-0.7,3.2-2,4.1c-1.6,1.1-3.4,1.2-5.3,1.2c0,0.1,0.1,0.2,0.1,0.4
		c0.2,1.1-0.1,2.3-0.8,3.1c-1.2,1.3-3,1.6-4.6,1.7C169.7,267.9,168.8,267.9,167.9,267.9z"/>
	<path class="st3" d="M178.2,278.9c-3.3,0-6.5-0.9-9.6-2c-0.4-0.1-0.6-0.5-0.4-0.9c0.1-0.4,0.5-0.6,0.9-0.4
		c3.7,1.3,7.6,2.3,11.5,1.7c3.3-0.5,7.3-2.9,8-6.8c0.1-0.4,0.4-0.6,0.8-0.6c3,0.3,5.7,0.4,7.9-0.9c1.2-0.7,2-2.2,2.1-3.6
		c0-0.7-0.1-1.7-0.9-2.3c-0.3-0.2-0.4-0.6-0.2-0.9c0.2-0.3,0.6-0.4,0.9-0.3c1.7,0.7,3.8,0.3,5-1c1.3-1.3,1.6-3.4,0.8-5.1
		c-0.2-0.4,0-0.8,0.3-1c0.4-0.2,0.8,0,1,0.3c1,2.2,0.6,4.9-1.1,6.7c-1.2,1.3-3,1.9-4.7,1.8c0.2,0.6,0.3,1.2,0.3,1.9
		c-0.1,1.9-1.2,3.8-2.8,4.8c-2.5,1.5-5.7,1.4-8.1,1.1c-1.1,4.2-5.4,6.7-9,7.3C179.9,278.8,179.1,278.9,178.2,278.9z"/>
</g>
</svg>
