<?xml version="1.0" encoding="utf-8"?>
<!-- Generator: Adobe Illustrator 21.1.0, SVG Export Plug-In . SVG Version: 6.00 Build 0)  -->
<svg version="1.1" id="Слой_1" xmlns="http://www.w3.org/2000/svg" xmlns:xlink="http://www.w3.org/1999/xlink" x="0px" y="0px"
	 viewBox="0 0 900 712" style="enable-background:new 0 0 900 712;" xml:space="preserve">
<style type="text/css">
	.st0{fill:#F3AB00;}
	.st1{fill:#923CFF;}
	.st2{fill:#AD7FF7;}
	.st3{fill:#6C19D9;}
	.st4{fill:none;stroke:#000000;stroke-width:5;stroke-linecap:round;stroke-linejoin:round;stroke-miterlimit:10;}
	.st5{fill:none;stroke:#000000;stroke-width:4.5576;stroke-linecap:round;stroke-linejoin:round;stroke-miterlimit:10;}
	.st6{fill:#FFFFFF;}
	.st7{fill:#FFDE00;}
	.st8{fill:#B37FFF;}
	.st9{fill:#DA44D0;}
	.st10{fill:#B61BB6;}
	.st11{fill:#DEE3F3;}
	.st12{fill:#EBEDF7;}
	.st13{fill:#E7EAF6;}
</style>
<rect x="100" y="100" class="st0" width="700" height="512"/>
<g>
	<path class="st1" d="M696.7,253.1c23.9,0,44-9.2,44-20.2v-33.8h-88v33.4C652.7,243.4,672.8,253.1,696.7,253.1z"/>
	<ellipse class="st2" cx="696.7" cy="199.1" rx="44" ry="21.5"/>
	<path class="st1" d="M696.7,294.4c23.9,0,44-9.2,44-20.2v-33.5c-8.1,8.3-24.5,16.3-44,16.3c-19.5,0-35.9-8-44-16.3v33
		C652.7,284.8,672.8,294.4,696.7,294.4z"/>
	<path class="st1" d="M696.7,299.6c-19.5,0-35.9-9.2-44-17.5v33c0,11,20.1,20.6,44,20.6c23.9,0,44-9.2,44-20.2v-33.5
		C732.6,290.4,716.2,299.6,696.7,299.6z"/>
	<ellipse class="st3" cx="730.9" cy="227.7" rx="2" ry="3.7"/>
	<ellipse class="st3" cx="730.9" cy="267.3" rx="2" ry="3.7"/>
	<ellipse class="st3" cx="730.9" cy="310.4" rx="2" ry="3.7"/>
	<path class="st2" d="M696.7,294.4c-20.5,0-38.2-7.1-42.8-16c-0.8,1.3-1.2,2.6-1.2,3.9v0.1c0,1.9,0.6,3.9,2.3,5.4
		c8.7,7.1,23.9,11.7,41.7,11.7c0,0,0,0,0,0c17.8,0,33-4.6,41.7-11.7c2.1-2.3,2.3-3.6,2.3-5.5c0-1.3-0.4-2.6-1.1-3.8
		C735.2,287.5,717.4,294.4,696.7,294.4z"/>
	<path class="st2" d="M696.7,253c-20.5,0-38.2-7.1-42.8-16c-0.8,1.3-1.2,2.6-1.2,3.9v0.1c0,1.9,0.6,3.9,2.3,5.4
		c8.7,7.1,23.9,11.7,41.7,11.7c0,0,0,0,0,0c17.8,0,33-4.6,41.7-11.7c2.1-2.3,2.3-3.6,2.3-5.5c0-1.3-0.4-2.6-1.1-3.8
		C735.2,246.2,717.4,253,696.7,253z"/>
</g>
<path class="st4" d="M679.2,229.7l-9.5,3.8c-1,0.6-1.6,1.6-1.6,2.7l0.2,123.3c0,2.3-1.2,4.4-3.2,5.5L454.3,489.5
	c-1,0.5-1.1-14.5-2.1-15l-36.7-21.2"/>
<g>
	<path class="st1" d="M196.8,388.6c-23.8,0-43.9-9.2-43.9-20.1v-33.7h87.8V368C240.7,378.9,220.6,388.6,196.8,388.6z"/>
	<ellipse class="st2" cx="196.8" cy="334.7" rx="43.9" ry="21.5"/>
	<path class="st1" d="M196.8,429.8c-23.8,0-43.9-9.2-43.9-20.1v-33.4c8,8.2,24.5,16.2,43.9,16.2c19.4,0,35.8-8,43.9-16.2v33
		C240.7,420.2,220.6,429.8,196.8,429.8z"/>
	<path class="st1" d="M196.8,475.9c19.4,0,35.8-9.2,43.9-17.5v33c0,11-20,20.6-43.9,20.6c-23.8,0-43.9-9.2-43.9-20.1v-33.4
		C160.9,466.7,177.4,475.9,196.8,475.9z"/>
	<ellipse class="st3" cx="162.7" cy="486.7" rx="2" ry="3.6"/>
	<path class="st2" d="M196.8,470.7c20.4,0,38.1-7.1,42.7-16c0.8,1.3,1.2,2.6,1.2,3.9v0.1c0,1.9-0.6,3.9-2.3,5.4
		c-8.6,7.1-23.9,11.7-41.6,11.7c0,0,0,0,0,0c-17.7,0-33-4.6-41.6-11.7c-2.1-2.2-2.3-3.6-2.3-5.5c0-1.3,0.4-2.6,1.1-3.8
		C158.4,463.9,176.2,470.7,196.8,470.7z"/>
	<path class="st1" d="M196.8,435c19.4,0,35.8-9.2,43.9-17.5v33c0,11-20,20.6-43.9,20.6c-23.8,0-43.9-9.2-43.9-20.1v-33.4
		C160.9,425.8,177.4,435,196.8,435z"/>
	<ellipse class="st3" cx="162.7" cy="363.3" rx="2" ry="3.6"/>
	<ellipse class="st3" cx="162.7" cy="402.8" rx="2" ry="3.6"/>
	<ellipse class="st3" cx="162.7" cy="445.8" rx="2" ry="3.6"/>
	<path class="st2" d="M196.8,429.8c20.4,0,38.1-7.1,42.7-16c0.8,1.3,1.2,2.6,1.2,3.9v0.1c0,1.9-0.6,3.9-2.3,5.4
		c-8.6,7.1-23.9,11.7-41.6,11.7c0,0,0,0,0,0c-17.7,0-33-4.6-41.6-11.7c-2.1-2.2-2.3-3.6-2.3-5.5c0-1.3,0.4-2.6,1.1-3.8
		C158.4,423,176.2,429.8,196.8,429.8z"/>
	<path class="st2" d="M196.8,388.5c20.4,0,38.1-7.1,42.7-16c0.8,1.3,1.2,2.6,1.2,3.9v0.1c0,1.9-0.6,3.9-2.3,5.4
		c-8.6,7.1-23.9,11.7-41.6,11.7c0,0,0,0,0,0c-17.7,0-33-4.6-41.6-11.7c-2.1-2.2-2.3-3.6-2.3-5.5c0-1.3,0.4-2.6,1.1-3.8
		C158.4,381.7,176.2,388.5,196.8,388.5z"/>
</g>
<path class="st5" d="M312.9,345l6,3.4c1.4,0.8,2.2,2.2,2.2,3.8l-0.3,79.9c0,3.2,1.7,6.1,4.5,7.7l48.5,27.3c1.3,0.8,3,0.7,4.3,0
	l51.2-29.6"/>
<path class="st4" d="M215.7,368.6l7.5,4.2c1.7,1,2.8,2.8,2.8,4.8l0.1,144c0,4,2.1,7.6,5.6,9.6l60.1,38.2c1.7,0.9,3.7,0.9,5.4,0
	l78.2-43.1"/>
<path class="st4" d="M665.5,445.7L640,505.1c-2.8-1.6-6.3,0.4-6.3,3.7l-0.3,136.8c0,3.3-3.6,5.5-6.5,3.8L413.5,529.2"/>
<path d="M547.2,457.5c-24.7-19.1-68.3-31.8-117.9-31.8s-93.2,12.7-117.9,31.8h-21.6v39.3h0.1c3,36.4,64.3,65.4,139.3,65.4
	s136.3-29,139.3-65.4h0.1v-39.3H547.2z"/>
<ellipse class="st1" cx="429.3" cy="457.5" rx="136.4" ry="66.8"/>
<g>
	<path class="st6" d="M429.3,409.3c33.8,0,66.5,6.5,89.8,18c18.5,9.1,29.6,20.4,29.6,30.2c0,9.9-11.1,21.2-29.6,30.2
		c-23.3,11.4-56,18-89.8,18c-33.8,0-66.5-6.5-89.8-18c-18.5-9.1-29.6-20.4-29.6-30.2c0-9.9,11.1-21.2,29.6-30.2
		C362.9,415.9,395.6,409.3,429.3,409.3 M429.3,389.3c-77,0-139.5,30.6-139.5,68.3s62.4,68.3,139.5,68.3c77,0,139.5-30.6,139.5-68.3
		S506.4,389.3,429.3,389.3L429.3,389.3z"/>
</g>
<path class="st6" d="M309.9,94.7v362.8c0,9.9,11.1,21.2,29.6,30.2c23.3,11.4,56,18,89.8,18c33.8,0,66.5-6.5,89.8-18
	c18.5-9.1,29.6-20.4,29.6-30.2V94.7H309.9z"/>
<path class="st1" d="M429.3,409.3c33.8,0,66.5,6.5,89.8,18c18.5,9.1,29.6,20.4,29.6,30.2c0,9.9-11.1,21.2-29.6,30.2
	c-23.3,11.4-56,18-89.8,18c-33.8,0-66.5-6.5-89.8-18c-18.5-9.1-29.6-20.4-29.6-30.2c0-9.9,11.1-21.2,29.6-30.2
	C362.9,415.9,395.6,409.3,429.3,409.3"/>
<path class="st7" d="M347.4,491.3c22.5,9.2,51.8,14.4,81.9,14.4c28.8,0,56.7-4.8,78.8-13.2V92.5H347.4V491.3z"/>
<path class="st8" d="M508.2,422.5c-22.1-8.5-50.1-13.2-78.8-13.2c-30.1,0-59.4,5.2-81.9,14.4v67.5c1.3,0.5,2.7,1.1,4,1.6
	c0.1,0.1,0.3,0.1,0.4,0.2c1.3,0.5,2.6,1,4,1.4c0.2,0.1,0.4,0.1,0.6,0.2c1.3,0.4,2.7,0.9,4,1.3c0.2,0.1,0.5,0.1,0.7,0.2
	c1.4,0.4,2.8,0.8,4.2,1.2c0.2,0.1,0.4,0.1,0.5,0.1c6.1,1.7,12.5,3.1,19.1,4.3c0.2,0,0.4,0.1,0.6,0.1c1.2,0.2,2.4,0.4,3.7,0.6
	c0.7,0.1,1.3,0.2,2,0.3c1.1,0.2,2.2,0.3,3.3,0.5c0.8,0.1,1.6,0.2,2.5,0.3c1,0.1,2,0.2,3.1,0.4c0.9,0.1,1.9,0.2,2.8,0.3
	c1,0.1,1.9,0.2,2.9,0.3c1,0.1,2,0.2,3.1,0.3c0.9,0.1,1.8,0.1,2.7,0.2c1.1,0.1,2.2,0.1,3.3,0.2c0.8,0,1.7,0.1,2.5,0.1
	c1.3,0.1,2.6,0.1,3.8,0.1c0.7,0,1.4,0.1,2.1,0.1c1.9,0,3.9,0.1,5.8,0.1c0,0,0.1,0,0.1,0c0,0,0.1,0,0.1,0c1.9,0,3.8,0,5.8-0.1
	c0.7,0,1.4,0,2-0.1c1.3,0,2.5-0.1,3.8-0.1c0.8,0,1.6-0.1,2.4-0.1c1.1-0.1,2.2-0.1,3.4-0.2c0.9-0.1,1.7-0.1,2.6-0.2
	c1-0.1,2.1-0.2,3.1-0.3c0.9-0.1,1.8-0.2,2.7-0.3c0.9-0.1,1.9-0.2,2.8-0.3c1-0.1,1.9-0.2,2.9-0.3c0.6-0.1,1.2-0.2,1.8-0.2
	c2.5-0.3,5-0.7,7.4-1.1c0.4-0.1,0.8-0.1,1.2-0.2c1.3-0.2,2.6-0.5,3.8-0.7c0.5-0.1,0.9-0.2,1.4-0.3c1.3-0.2,2.6-0.5,3.8-0.8
	c0.4-0.1,0.8-0.2,1.2-0.3c1.3-0.3,2.7-0.6,4-0.9c0.2-0.1,0.5-0.1,0.7-0.2c7.7-1.9,15-4.1,21.8-6.7c0,0,0,0,0,0V422.5z"/>
<path id="cloud_44_" class="st9" d="M206.2,183.5c9.4-32.2,35.6-58.2,68.8-62.7c8.2-40.5,36.8-83.2,70.7-102.3
	c35.6-20,64.8-7.1,70.3,28.4c0.1-0.1,0.2-0.1,0.3-0.2c25.1-14.2,45.3-2.3,45.1,26.4c19.5-4.7,33.6,7.8,33.3,32.3
	c-0.3,29.5-21.4,65.1-47,79.6l-144.3,81.3C269.3,292,179.1,275.9,206.2,183.5z"/>
<g>
	<path class="st10" d="M674.6,648.6c-29.2,0-54-13.9-66.1-26.3v49.6c0,16.5,30.2,31,66.1,31c35.9,0,66.1-13.8,66.1-30.3v-50.3
		C728.6,634.7,703.8,648.6,674.6,648.6z"/>
	<path class="st9" d="M674.6,640.8c-30.8,0-57.3-10.6-64.3-24.1c-1.2,1.9-1.8,3.9-1.8,5.9v0.2c0,2.8,0.8,5.9,3.4,8.1
		c13,10.7,35.9,17.6,62.6,17.6c0,0,0,0,0,0c26.7,0,49.6-7,62.6-17.6c3.1-3.4,3.5-5.4,3.5-8.3c0-2-0.6-3.9-1.6-5.7
		C732.4,630.5,705.7,640.8,674.6,640.8z"/>
	<path class="st10" d="M674.6,517.3c35.9,0,66.1-13.8,66.1-30.3v-50.8H608.6v50.1C608.6,502.9,638.7,517.3,674.6,517.3z"/>
	<ellipse class="st9" cx="674.6" cy="436.3" rx="66.1" ry="32.3"/>
	<path class="st10" d="M674.6,579.4c35.9,0,66.1-13.8,66.1-30.3v-50.3c-12.1,12.4-36.9,24.4-66.1,24.4c-29.2,0-54-12-66.1-24.4v49.6
		C608.6,565,638.7,579.4,674.6,579.4z"/>
	<path class="st10" d="M674.6,587.2c-29.2,0-54-13.9-66.1-26.3v49.6c0,16.5,30.2,31,66.1,31c35.9,0,66.1-13.8,66.1-30.3V561
		C728.6,573.4,703.8,587.2,674.6,587.2z"/>
	<path class="st9" d="M674.6,579.4c-30.8,0-57.3-10.6-64.3-24.1c-1.2,1.9-1.8,3.9-1.8,5.9v0.2c0,2.8,0.8,5.9,3.4,8.1
		c13,10.7,35.9,17.6,62.6,17.6c0,0,0,0,0,0c26.7,0,49.6-7,62.6-17.6c3.1-3.4,3.5-5.4,3.5-8.3c0-2-0.6-3.9-1.6-5.7
		C732.4,569.1,705.7,579.4,674.6,579.4z"/>
	<path class="st9" d="M674.6,517.3c-30.8,0-57.3-10.6-64.3-24.1c-1.2,1.9-1.8,3.9-1.8,5.9v0.2c0,2.8,0.8,5.9,3.4,8.1
		c13,10.7,35.9,17.6,62.6,17.6c0,0,0,0,0,0c26.7,0,49.6-7,62.6-17.6c3.1-3.4,3.5-5.4,3.5-8.3c0-2-0.6-3.9-1.6-5.7
		C732.4,507,705.7,517.3,674.6,517.3z"/>
</g>
<path id="cloud_42_" class="st1" d="M592.8,203.2c5-15.6-0.7-58.2-38-72.3c-9.2-24.7-27-48.1-47.5-59.9
	c-29.9-17.3-54.2-3.3-54.2,31.3c0,0.8,0,1.5,0,2.3c0,0,0,0,0,0c-22.9-13.2-41.5-2.5-41.5,24s18.6,58.6,41.5,71.9L583.3,275
	c19.2,11.1,36-11.6,36-24.3C619.3,234.1,616.8,217.9,592.8,203.2z"/>
<g id="XMLID_102_">
	<polygon id="XMLID_105_" class="st11" points="374.5,144.1 378.9,152.3 388.1,152.5 383.7,144.4 	"/>
	<polygon id="XMLID_104_" class="st12" points="374.5,144.1 379.4,136.2 388.6,136.5 383.7,144.4 	"/>
	<polygon id="XMLID_103_" class="st13" points="388.1,152.5 393,144.6 388.6,136.5 383.7,144.4 	"/>
</g>
<path id="cloud_43_" class="st6" d="M345.2,123.8c14.2-8.2,26.5-5.2,32.5,6.1c2-1.7,4.1-3.1,6.2-4.4c12.5-7.2,23.2-4.2,27.2,6.4
	c1.9-1.8,3.9-3.3,6-4.5c10.9-6.3,19.8-1.2,19.8,11.4s-8.9,28-19.8,34.3l-71.9,41.5c-20.1,11.6-36.4,0.7-36.4-24.4
	C308.7,165.1,325,135.4,345.2,123.8z"/>
<g id="XMLID_118_">
	<polygon id="XMLID_121_" class="st11" points="460.2,282.4 453,295.6 438,296 445.1,282.8 	"/>
	<polygon id="XMLID_120_" class="st12" points="460.2,282.4 452.3,269.6 437.3,270 445.1,282.8 	"/>
	<polygon id="XMLID_119_" class="st13" points="438,296 430.1,283.3 437.3,270 445.1,282.8 	"/>
</g>
<g id="XMLID_114_">
	<polygon id="XMLID_117_" class="st11" points="339.1,39 333.3,49.8 321.1,50.2 326.9,39.4 	"/>
	<polygon id="XMLID_116_" class="st12" points="339.1,39 332.7,28.6 320.5,29 326.9,39.4 	"/>
	<polygon id="XMLID_115_" class="st13" points="321.1,50.2 314.7,39.7 320.5,29 326.9,39.4 	"/>
</g>
<g id="XMLID_110_">
	<polygon id="XMLID_113_" class="st11" points="430.6,221 419.2,242.1 395.1,242.8 406.6,221.7 	"/>
	<polygon id="XMLID_112_" class="st12" points="430.6,221 418,200.5 394,201.2 406.6,221.7 	"/>
	<polygon id="XMLID_111_" class="st13" points="395.1,242.8 382.5,222.4 394,201.2 406.6,221.7 	"/>
</g>
<g id="XMLID_106_">
	<polygon id="XMLID_109_" class="st11" points="572.8,102.8 557,132.2 523.6,133.2 539.5,103.8 	"/>
	<polygon id="XMLID_108_" class="st12" points="572.8,102.8 555.3,74.5 522,75.4 539.5,103.8 	"/>
	<polygon id="XMLID_107_" class="st13" points="523.6,133.2 506.1,104.8 522,75.4 539.5,103.8 	"/>
</g>
<g id="XMLID_94_">
	<polygon id="XMLID_97_" class="st11" points="404.7,302.9 408.4,312.9 401.6,321.1 397.9,311.1 	"/>
	<polygon id="XMLID_96_" class="st12" points="404.7,302.9 394.2,301.1 387.4,309.3 397.9,311.1 	"/>
	<polygon id="XMLID_95_" class="st13" points="401.6,321.1 391.1,319.3 387.4,309.3 397.9,311.1 	"/>
</g>
<g id="XMLID_88_">
	<polygon id="XMLID_93_" class="st11" points="387.8,45.9 404,62.3 397.9,84.6 381.7,68.2 	"/>
	<polygon id="XMLID_92_" class="st12" points="387.8,45.9 365.5,51.8 359.4,74 381.7,68.2 	"/>
	<polygon id="XMLID_89_" class="st13" points="397.9,84.6 375.6,90.4 359.4,74 381.7,68.2 	"/>
</g>
<g id="XMLID_76_">
	<polygon id="XMLID_79_" class="st11" points="491.2,196.8 497.9,215.1 485.4,230 478.7,211.7 	"/>
	<polygon id="XMLID_78_" class="st12" points="491.2,196.8 472,193.5 459.5,208.4 478.7,211.7 	"/>
	<polygon id="XMLID_77_" class="st13" points="485.4,230 466.2,226.7 459.5,208.4 478.7,211.7 	"/>
</g>
</svg>
