<?xml version="1.0" encoding="utf-8"?>
<!-- Generator: Adobe Illustrator 21.1.0, SVG Export Plug-In . SVG Version: 6.00 Build 0)  -->
<svg version="1.1" id="Слой_1" xmlns="http://www.w3.org/2000/svg" xmlns:xlink="http://www.w3.org/1999/xlink" x="0px" y="0px"
	 viewBox="0 0 900 712" style="enable-background:new 0 0 900 712;" xml:space="preserve">
<style type="text/css">
	.st0{fill:#DA44D0;}
	.st1{fill:#B61BB6;}
	.st2{fill-rule:evenodd;clip-rule:evenodd;}
	.st3{fill-rule:evenodd;clip-rule:evenodd;fill:#FFFFFF;}
	.st4{fill-rule:evenodd;clip-rule:evenodd;fill:#6C19D6;}
	.st5{fill:#F3AB00;}
	.st6{fill:#FFDE00;}
	.st7{fill:#CBABFD;}
	.st8{fill:#B37FFF;}
	.st9{fill:#C7ACFA;}
	.st10{fill:none;stroke:#C7ACFA;stroke-width:2.9088;stroke-linecap:round;stroke-linejoin:round;stroke-miterlimit:10;}
	.st11{fill:#DEE3F3;}
	.st12{fill:#EBEDF7;}
	.st13{fill:#E7EAF6;}
	.st14{fill:#6C19D6;}
	.st15{fill:#903CFD;}
	.st16{fill:#803BE9;}
	.st17{fill:#AD7FF7;}
	.st18{opacity:0.4;fill:#DA44D0;}
	.st19{fill:#FFFFFF;}
</style>
<rect x="100" y="100" class="st0" width="700" height="512"/>
<path class="st1" d="M242.4,89.5L230.9,83c-2.1-1.2-4.7-1.2-6.8,0.1c-2.1,1.2-3.4,3.5-3.4,5.9l-0.3,268.2c0,1.1-0.7,1.6-1,1.8
	c-0.3,0.2-1.1,0.5-2,0l-116.5-66.6v5.8l114,65.2c1.1,0.6,2.2,0.9,3.4,0.9c1.2,0,2.5-0.3,3.6-1c2.2-1.3,3.5-3.5,3.5-6.1L225.7,89
	c0-1,0.6-1.4,0.9-1.6s1-0.5,1.8,0l11.5,6.5c1.2,0.7,2.7,0.3,3.4-0.9C244,91.7,243.6,90.2,242.4,89.5z"/>
<path class="st1" d="M301.2,345.3c-0.7-1.2-2.2-1.6-3.4-1l-92,51.1c-1.8,1-4,1-5.7,0l-99.1-58.7v5.8l96.5,57.2
	c1.7,1,3.6,1.5,5.4,1.5c1.8,0,3.7-0.5,5.3-1.4l92-51.1C301.4,348.1,301.8,346.5,301.2,345.3z"/>
<path class="st1" d="M186.7,212.4l-11.5-6.5c-2.1-1.2-4.7-1.2-6.8,0.1c-2.1,1.2-3.4,3.5-3.4,5.9l-0.3,203.8c0,1.1-0.7,1.6-1,1.8
	s-1.1,0.5-2,0l-60.8-33.6v5.7l58.4,32.3c1.1,0.6,2.2,0.9,3.4,0.9c1.2,0,2.5-0.3,3.6-1c2.2-1.3,3.5-3.5,3.5-6.1l0.3-203.8
	c0-1,0.6-1.4,0.9-1.6c0.3-0.2,1-0.5,1.8,0l11.5,6.5c1.2,0.7,2.7,0.3,3.4-0.9C188.3,214.6,187.9,213.1,186.7,212.4z"/>
<polygon class="st2" points="188.2,431 311,361.5 745.9,611.7 623.2,681.2 "/>
<path class="st1" d="M400.7,500c-1.2,0-2.5-0.3-3.6-1c-2.2-1.3-3.5-3.5-3.5-6.1l-0.3-276.3c0-1-0.6-1.4-0.9-1.6s-1-0.5-1.8,0
	l-11.5,6.5l-2.5-4.4l11.5-6.5c2.1-1.2,4.7-1.2,6.8,0.1c2.1,1.2,3.4,3.5,3.4,5.9l0.3,276.3c0,1.1,0.7,1.6,1,1.8c0.3,0.2,1.1,0.5,2,0
	l2.4,4.4C403.1,499.7,401.9,500,400.7,500z"/>
<polygon class="st3" points="370.5,430.1 414.9,492.4 416.3,562.1 324.8,509.3 370.5,430.1 "/>
<polygon class="st4" points="416.3,562.1 370.5,430.1 462,377.3 507.7,509.3 416.3,562.1 "/>
<polygon class="st3" points="624.1,576.4 139.3,297.4 257.6,229.3 742.5,508.4 624.1,576.4 "/>
<path id="cloud_41_" class="st5" d="M814.6,363.1c-8.4-28.8-31.9-52-61.5-56c-7.3-36.2-32.9-74.4-63.2-91.4
	c-31.8-17.9-57.9-6.4-62.9,25.4c-0.1-0.1-0.2-0.1-0.3-0.2c-22.5-12.7-40.5-2.1-40.3,23.6c-17.4-4.2-30,7-29.8,28.9
	c0.3,26.3,19.1,58.2,42,71.1l129,72.7C758.2,460,838.8,445.6,814.6,363.1z"/>
<path id="cloud_39_" class="st6" d="M468.6,364.8c2.4-1.4,4.7-2.4,7-3c0.1-26,16.3-55.8,36.9-67.8c1.9-1.1,3.8-2,5.7-2.8
	c7.1-22.2,21.8-42.9,39.2-53c25.4-14.7,47-1,48.3,30.5c0,0.7,0,1.4,0,2.1c0,0,0,0,0,0c19.5-11.2,36-0.8,37,23.4
	c1,24.1-14,52.8-33.5,64.1l-137.7,79.5c-16.3,9.4-30.1,0.7-30.9-19.5C439.8,398.2,452.3,374.2,468.6,364.8z"/>
<path class="st7" d="M518.2,570.8c0.9,0,1.6-0.7,1.6-1.6v-35c0-0.9-0.7-1.6-1.6-1.6c-0.9,0-1.6,0.7-1.6,1.6v35
	C516.6,570.1,517.4,570.8,518.2,570.8z"/>
<g>
	<g>
		<g>
			<path class="st8" d="M530,516c-11.1-3.3-18.3,6.3-18.4,18.7l-0.5,126.8c0,12.4,8.3,27,18.5,32.5c10.3,5.5,18.7-0.1,18.7-12.5
				l0.5-132.1C548.9,537,543.4,520.1,530,516z"/>
		</g>
		<g>
			<path class="st8" d="M500.2,537.5c-6.8-2.1-11.2,3.9-11.3,11.4l-0.3,77.7c0,7.6,5.1,16.5,11.4,19.9c6.3,3.4,11.4-0.1,11.5-7.6
				l0.3-81C511.8,550.3,508.4,539.9,500.2,537.5z"/>
		</g>
	</g>
	<g>
		<path class="st8" d="M609.8,373.3v57c0,1-0.5,1.8-1.3,2.3l-113.8,61c-3.7,2.1-6,6-6,10.2l0.9,80.3c0,11.1,14.3,9.5,23.8,15.3
			L535,669c5.1,3.2,13.9-39.3,13.9-45.3V537c0-1.8,1-3.5,2.6-4.4l109.8-61.1c5-2.9,8.2-8.3,8.4-14.1v-77.2L609.8,373.3z"/>
		<path class="st9" d="M528.5,638.2c0.9,0,1.5-0.7,1.5-1.5v-36.9c0-0.9-0.7-1.5-1.5-1.5s-1.5,0.7-1.5,1.5v36.9
			C526.9,637.5,527.6,638.2,528.5,638.2z"/>
		<path class="st9" d="M505.7,546.4c0.9,0,1.5-0.7,1.5-1.5v-23.7c0-0.9-0.7-1.5-1.5-1.5s-1.5,0.7-1.5,1.5v23.7
			C504.1,545.7,504.8,546.4,505.7,546.4z"/>
		<path class="st9" d="M505.7,602.6c0.9,0,1.5-0.7,1.5-1.5V558c0-0.9-0.7-1.5-1.5-1.5s-1.5,0.7-1.5,1.5v43.1
			C504.1,601.9,504.8,602.6,505.7,602.6z"/>
		<path class="st10" d="M525.7,495.5l61.5-35.7"/>
		<path class="st10" d="M559.3,503.9L534,519c-3.4,2-5.5,5.7-5.5,9.7v60.6"/>
		<line class="st10" x1="612.1" y1="472.4" x2="580.5" y2="491.2"/>
	</g>
</g>
<g id="XMLID_60_">
	<polygon id="XMLID_63_" class="st11" points="559.1,272.2 565.8,284.7 580,285.1 573.2,272.6 	"/>
	<polygon id="XMLID_62_" class="st12" points="559.1,272.2 566.5,260.2 580.7,260.6 573.2,272.6 	"/>
	<polygon id="XMLID_61_" class="st13" points="580,285.1 587.4,273.1 580.7,260.6 573.2,272.6 	"/>
</g>
<g id="XMLID_56_">
	<polygon id="XMLID_59_" class="st11" points="641,362.7 647.4,374.6 660.9,375 654.5,363.1 	"/>
	<polygon id="XMLID_58_" class="st12" points="641,362.7 648.1,351.2 661.6,351.6 654.5,363.1 	"/>
	<polygon id="XMLID_57_" class="st13" points="660.9,375 668,363.5 661.6,351.6 654.5,363.1 	"/>
</g>
<g id="XMLID_52_">
	<polygon id="XMLID_55_" class="st11" points="681.8,483.1 694.1,496.2 711.6,492.1 699.3,479 	"/>
	<polygon id="XMLID_54_" class="st12" points="681.8,483.1 687,465.9 704.5,461.8 699.3,479 	"/>
	<polygon id="XMLID_53_" class="st13" points="711.6,492.1 716.8,474.9 704.5,461.8 699.3,479 	"/>
</g>
<g id="XMLID_48_">
	<polygon id="XMLID_51_" class="st11" points="668.4,261.6 662.7,277.4 673.4,290.4 679.2,274.6 	"/>
	<polygon id="XMLID_50_" class="st12" points="668.4,261.6 685,258.7 695.8,271.7 679.2,274.6 	"/>
	<polygon id="XMLID_49_" class="st13" points="673.4,290.4 690,287.5 695.8,271.7 679.2,274.6 	"/>
</g>
<g id="XMLID_44_">
	<polygon id="XMLID_47_" class="st11" points="511,342.4 504.4,360.4 516.7,375.1 523.3,357.1 	"/>
	<polygon id="XMLID_46_" class="st12" points="511,342.4 529.8,339.1 542.1,353.8 523.3,357.1 	"/>
	<polygon id="XMLID_45_" class="st13" points="516.7,375.1 535.5,371.8 542.1,353.8 523.3,357.1 	"/>
</g>
<g>
	<g>
		<path class="st14" d="M276.5,223.1c21.7,0,40-8.4,40-18.3V174h-80v30.3C236.5,214.4,254.8,223.1,276.5,223.1z"/>
		<ellipse class="st15" cx="276.5" cy="174" rx="40" ry="19.6"/>
		<path class="st16" d="M276.5,260.8c21.7,0,40-8.4,40-18.3v-30.5c-7.3,7.5-22.3,14.8-40,14.8c-17.7,0-32.7-7.3-40-14.8V242
			C236.5,252,254.8,260.8,276.5,260.8z"/>
		<path class="st17" d="M276.5,265.5c-17.7,0-32.7-8.4-40-15.9v30.1c0,10,18.3,18.8,40,18.8c21.7,0,40-8.4,40-18.3v-30.5
			C309.2,257.1,294.2,265.5,276.5,265.5z"/>
		<ellipse class="st0" cx="307.7" cy="200.1" rx="1.8" ry="3.3"/>
		<ellipse class="st0" cx="307.7" cy="236.1" rx="1.8" ry="3.3"/>
		<ellipse class="st18" cx="307.7" cy="275.3" rx="1.8" ry="3.3"/>
		<path class="st9" d="M276.5,260.8c-18.6,0-34.7-6.4-38.9-14.6c-0.7,1.1-1.1,2.3-1.1,3.6v0.1c0,1.7,0.5,3.5,2.1,4.9
			c7.9,6.5,21.8,10.7,37.9,10.7c0,0,0,0,0,0c16.2,0,30.1-4.2,37.9-10.7c1.9-2,2.1-3.2,2.1-5c0-1.2-0.3-2.3-1-3.4
			C311.5,254.5,295.3,260.8,276.5,260.8z"/>
		<path class="st15" d="M276.5,223.1c-18.6,0-34.7-6.4-38.9-14.6c-0.7,1.1-1.1,2.3-1.1,3.6v0.1c0,1.7,0.5,3.5,2.1,4.9
			c7.9,6.5,21.8,10.7,37.9,10.7c0,0,0,0,0,0c16.2,0,30.1-4.2,37.9-10.7c1.9-2,2.1-3.2,2.1-5c0-1.2-0.3-2.3-1-3.4
			C311.5,216.9,295.3,223.1,276.5,223.1z"/>
	</g>
	<g>
		<path class="st14" d="M276.5,114.6c21.7,0,40-8.4,40-18.3V65.5h-80v30.3C236.5,105.8,254.8,114.6,276.5,114.6z"/>
		<ellipse class="st17" cx="276.5" cy="65.5" rx="40" ry="19.6"/>
		<path class="st16" d="M276.5,152.2c21.7,0,40-8.4,40-18.3v-30.5c-7.3,7.5-22.3,14.8-40,14.8c-17.7,0-32.7-7.3-40-14.8v30.1
			C236.5,143.5,254.8,152.2,276.5,152.2z"/>
		<path class="st17" d="M276.5,156.9c-17.7,0-32.7-8.4-40-15.9v30.1c0,10,18.3,18.8,40,18.8c21.7,0,40-8.4,40-18.3V141
			C309.2,148.5,294.2,156.9,276.5,156.9z"/>
		<ellipse class="st0" cx="307.7" cy="91.5" rx="1.8" ry="3.3"/>
		<ellipse class="st0" cx="307.7" cy="127.6" rx="1.8" ry="3.3"/>
		<ellipse class="st18" cx="307.7" cy="166.8" rx="1.8" ry="3.3"/>
		<path class="st9" d="M276.5,152.2c-18.6,0-34.7-6.4-38.9-14.6c-0.7,1.1-1.1,2.3-1.1,3.6v0.1c0,1.7,0.5,3.5,2.1,4.9
			c7.9,6.5,21.8,10.7,37.9,10.7c0,0,0,0,0,0c16.2,0,30.1-4.2,37.9-10.7c1.9-2,2.1-3.2,2.1-5c0-1.2-0.3-2.3-1-3.4
			C311.5,146,295.3,152.2,276.5,152.2z"/>
		<path class="st15" d="M276.5,114.6c-18.6,0-34.7-6.4-38.9-14.6c-0.7,1.1-1.1,2.3-1.1,3.6v0.1c0,1.7,0.5,3.5,2.1,4.9
			c7.9,6.5,21.8,10.7,37.9,10.7c0,0,0,0,0,0c16.2,0,30.1-4.2,37.9-10.7c1.9-2,2.1-3.2,2.1-5c0-1.2-0.3-2.3-1-3.4
			C311.5,108.4,295.3,114.6,276.5,114.6z"/>
	</g>
</g>
<g>
	<path class="st14" d="M219.8,236.8c21.7,0,40-8.4,40-18.3v-30.8h-80v30.3C179.8,228.1,198,236.8,219.8,236.8z"/>
	<ellipse class="st15" cx="219.8" cy="187.7" rx="40" ry="19.6"/>
	<path class="st16" d="M219.8,274.5c21.7,0,40-8.4,40-18.3v-30.5c-7.3,7.5-22.3,14.8-40,14.8c-17.7,0-32.7-7.3-40-14.8v30.1
		C179.8,265.7,198,274.5,219.8,274.5z"/>
	<path class="st17" d="M219.8,279.2c-17.7,0-32.7-8.4-40-15.9v30.1c0,10,18.3,18.8,40,18.8c21.7,0,40-8.4,40-18.3v-30.5
		C252.5,270.8,237.5,279.2,219.8,279.2z"/>
	<ellipse class="st0" cx="250.9" cy="213.8" rx="1.8" ry="3.3"/>
	<ellipse class="st0" cx="250.9" cy="249.8" rx="1.8" ry="3.3"/>
	<ellipse class="st18" cx="250.9" cy="289" rx="1.8" ry="3.3"/>
	<path class="st9" d="M219.8,274.5c-18.6,0-34.7-6.4-38.9-14.6c-0.7,1.1-1.1,2.3-1.1,3.6v0.1c0,1.7,0.5,3.5,2.1,4.9
		c7.9,6.5,21.8,10.7,37.9,10.7c0,0,0,0,0,0c16.2,0,30.1-4.2,37.9-10.7c1.9-2,2.1-3.2,2.1-5c0-1.2-0.3-2.3-1-3.4
		C254.8,268.2,238.6,274.5,219.8,274.5z"/>
	<path class="st15" d="M219.8,236.8c-18.6,0-34.7-6.4-38.9-14.6c-0.7,1.1-1.1,2.3-1.1,3.6v0.1c0,1.7,0.5,3.5,2.1,4.9
		c7.9,6.5,21.8,10.7,37.9,10.7c0,0,0,0,0,0c16.2,0,30.1-4.2,37.9-10.7c1.9-2,2.1-3.2,2.1-5c0-1.2-0.3-2.3-1-3.4
		C254.8,230.6,238.6,236.8,219.8,236.8z"/>
</g>
<g>
	<path class="st14" d="M331,257.2c-28.5,0-52.5-11-52.5-24.1v-40.4h105v39.8C383.5,245.7,359.5,257.2,331,257.2z"/>
	<ellipse class="st17" cx="331" cy="192.8" rx="52.5" ry="25.7"/>
	<path class="st16" d="M331,306.6c-28.5,0-52.5-11-52.5-24.1v-40c9.6,9.9,29.3,19.4,52.5,19.4c23.2,0,42.9-9.6,52.5-19.4V282
		C383.5,295.1,359.5,306.6,331,306.6z"/>
	<path class="st17" d="M331,312.8c23.2,0,42.9-11,52.5-20.9v39.4c0,13.1-24,24.6-52.5,24.6c-28.5,0-52.5-11-52.5-24.1v-40
		C288.1,301.7,307.8,312.8,331,312.8z"/>
	<ellipse class="st0" cx="290.2" cy="227" rx="2.4" ry="4.4"/>
	<ellipse class="st0" cx="290.2" cy="274.3" rx="2.4" ry="4.4"/>
	<ellipse class="st18" cx="290.2" cy="325.7" rx="2.4" ry="4.4"/>
	<path class="st9" d="M331,306.6c24.4,0,45.5-8.5,51.1-19.1c0.9,1.5,1.4,3.1,1.4,4.7v0.2c0,2.3-0.7,4.7-2.7,6.5
		c-10.3,8.5-28.6,14-49.8,14c0,0,0,0,0,0c-21.2,0-39.4-5.5-49.8-14c-2.5-2.7-2.7-4.3-2.7-6.6c0-1.6,0.5-3.1,1.3-4.5
		C285.1,298.4,306.3,306.6,331,306.6z"/>
	<path class="st15" d="M331,257.2c24.4,0,45.5-8.5,51.1-19.1c0.9,1.5,1.4,3.1,1.4,4.7v0.2c0,2.3-0.7,4.7-2.7,6.5
		c-10.3,8.5-28.6,14-49.8,14c0,0,0,0,0,0c-21.2,0-39.4-5.5-49.8-14c-2.5-2.7-2.7-4.3-2.7-6.6c0-1.6,0.5-3.1,1.3-4.5
		C285.1,249,306.3,257.2,331,257.2z"/>
</g>
<path id="cloud_40_" class="st19" d="M673,306.3c-18-10.4-33.6-6.6-41.3,7.8c-2.5-2.1-5.2-4-7.9-5.5c-15.9-9.2-29.4-5.3-34.5,8.1
	c-2.4-2.2-4.9-4.2-7.6-5.7c-13.9-8-25.1-1.5-25.1,14.5c0,16,11.2,35.5,25.1,43.5l91.2,52.7c25.5,14.7,46.2,0.9,46.2-30.9
	C719.2,358.8,698.5,321,673,306.3z"/>
<g id="XMLID_40_">
	<polygon id="XMLID_43_" class="st11" points="603.3,198.1 599.1,209.6 606.9,218.9 611.1,207.5 	"/>
	<polygon id="XMLID_42_" class="st12" points="603.3,198.1 615.3,196 623.1,205.4 611.1,207.5 	"/>
	<polygon id="XMLID_41_" class="st13" points="606.9,218.9 618.9,216.8 623.1,205.4 611.1,207.5 	"/>
</g>
<g id="XMLID_72_">
	<polygon id="XMLID_75_" class="st11" points="677.3,339.2 686.8,356.7 706.7,357.3 697.2,339.8 	"/>
	<polygon id="XMLID_74_" class="st12" points="677.3,339.2 687.8,322.3 707.7,322.8 697.2,339.8 	"/>
	<polygon id="XMLID_73_" class="st13" points="706.7,357.3 717.1,340.3 707.7,322.8 697.2,339.8 	"/>
</g>
<g id="XMLID_64_">
	<polygon id="XMLID_67_" class="st11" points="594.9,364.8 585.2,391.5 603.4,413.3 613.2,386.7 	"/>
	<polygon id="XMLID_66_" class="st12" points="594.9,364.8 622.9,360 641.2,381.8 613.2,386.7 	"/>
	<polygon id="XMLID_65_" class="st13" points="603.4,413.3 631.4,408.5 641.2,381.8 613.2,386.7 	"/>
</g>
<g id="XMLID_68_">
	<polygon id="XMLID_71_" class="st11" points="637.6,432.2 633.6,443.1 641,452.1 645,441.1 	"/>
	<polygon id="XMLID_70_" class="st12" points="637.6,432.2 649,430.2 656.5,439.2 645,441.1 	"/>
	<polygon id="XMLID_69_" class="st13" points="641,452.1 652.5,450.1 656.5,439.2 645,441.1 	"/>
</g>
</svg>
